<svg xmlns="http://www.w3.org/2000/svg" width="173.7" height="109.6" viewBox="0 0 173.7 109.6" fill="#4a7ef2" xmlns:v="https://vecta.io/nano"><path d="M83.9 37.6l-11.3-3.8c-.4-.1-.8-.1-1.2.2-.3.2-.5.6-.5 1l-.1 14.7c0 .5-.6.6-.9.2l-10.2-20c-.2-.4-.5-.7-1-.8l-9-3.1c-.7 1.1-1 2.4-1 3.7v3.5h0l-.1 26.6h0v4c0 3.4 2.4 6.3 5.7 7.2l6.1 2.2h.1c.3-.2.5-.6.5-1l.1-13.7c0-.5.6-.6.9-.2l10.1 19.2 9.5 3.5c.5.2 1 .4 1.5.5.2 0 .4-.1.6-.2.3-.2.5-.6.5-1l.5-41.5c0-.6-.3-1-.8-1.2zm34 33.2c3.3-.8 5.7-3.7 5.7-7.2v-5.9-.5c-.1 0-.2 0-.3.1l-19.4 6.4c-.1 0-.3 0-.4-.1-.1 0-.1-.1-.1-.2V60c0-.1.1-.2.2-.2l13.8-4.7c.7-.2 1.1-.8 1.1-1.5v-7.4c0-.5-.2-1-.7-1.3-.4-.3-1-.4-1.6-.2l-12.5 4.1c-.1 0-.3 0-.4-.1-.1 0-.1-.1-.1-.2v-2.3c0-.1.1-.2.2-.2l18.5-7.5c.6-.2 1.1-.8 1.1-1.5v-8.9-.1c-.1-.3-.2-.6-.4-.9l-.3-.3c-.5-.3-1-.4-1.6-.2L89.3 37.7c-.7.2-1.1.8-1.1 1.5v40.6c0 .5.2 1 .7 1.3h.1l28.9-10.3h0zM84.3 34c.8.3 1.7.4 2.6.4s1.8-.1 2.6-.4l29-10c.7-.3 1.2-.9 1.2-1.7V22c-.6-.4-1.3-.7-2.1-.9l.1-.1h0L90 11c-1.8-.8-3.9-.9-5.9-.2l-7.2 2.6h-.2l-21 7.7c-1.2.3-2.3 1-3.2 1.8L84.3 34zm-7.2-11.4l13.6-4.8h.2l5.4 1.8c.3.1.3.6 0 .7l-12.6 4.6a2.8 2.8 0 0 1-2.2 0l-4.4-1.6c-.3-.2-.3-.6 0-.7zM50.3 94.3c0-.8-.6-1.1-1.9-1.4-1.1-.3-2.3-.8-2.3-2.3 0-1.3 1.1-2.2 2.6-2.2.9 0 1.7.2 2.5.7l-.4.9c-.6-.4-1.4-.6-2.1-.6-1.1 0-1.6.5-1.6 1.2 0 .8.7 1.1 1.9 1.4 1.1.3 2.3.9 2.3 2.3 0 1.3-1.1 2.3-2.7 2.3-.9 0-1.9-.3-2.6-.7l.4-1c.7.4 1.4.8 2.3.8.9-.1 1.6-.7 1.6-1.4zm11.5 3.1l-.5.9-3.4-1.8h-.3c-2.3 0-3.9-1.6-3.9-4.1 0-2.3 1.6-4.1 3.9-4.1s3.9 1.6 3.9 4.1c0 1.7-.9 3.1-2.2 3.7l2.5 1.3zm-4.2-8.1c-1.7 0-2.8 1.2-2.8 3.1s1.2 3.2 2.9 3.2 2.8-1.3 2.8-3.1c0-2-1.2-3.2-2.9-3.2zm9.8 7.2c-2 0-3-1.2-3-3.1v-4.9h1v4.7c0 1.4.7 2.2 2.1 2.2 1.2 0 2-.7 2-2.2 0 .1 0-4.8 0-4.8h1v4.8c-.1 2.1-1.1 3.3-3.1 3.3zm12.3-.2h-1.1l-.7-2h-3.4l-.7 2h-1.1l2.9-7.8h1.2l2.9 7.8zm-3.5-6.7l-1.3 3.7h2.7l-1.4-3.7zm6.9 6.7H82v-7.8h2.3c1.9 0 2.9.9 2.9 2.3 0 1.2-.7 1.9-1.8 2.2l2.1 3.3h-1.3l-1.9-3.1-1.3.1v3zm1.3-3.9c1 0 1.8-.5 1.8-1.5 0-.9-.8-1.4-1.9-1.4h-1.1v2.9h1.2zm5.7 3.9v-7.8H95v1h-3.9v2.4h3.2v1h-3.2v2.4H95v1h-4.9zm11.4.2c-2.3 0-4.2-1.3-4.2-4.1 0-2.5 1.9-4.1 4.2-4.1s4.2 1.3 4.2 4.1c0 2.6-1.9 4.1-4.2 4.1zm0-6.2c-1.1 0-1.7.9-1.7 2.1 0 1.3.6 2.2 1.7 2.2s1.7-.9 1.7-2.1c0-1.3-.6-2.2-1.7-2.2zm12-1.8h2.3v7.9h-2.6l-2.8-4.5v4.4h-2.3v-7.8h2.6l2.8 4.4v-4.4zm5 7.8v-7.8h6.1v1.9h-3.7v1h2.9v1.9h-2.9v1h3.7v1.9h-6.1z"/></svg>
