<?xml version="1.0" encoding="utf-8"?>
<!-- Generator: Adobe Illustrator 21.1.0, SVG Export Plug-In . SVG Version: 6.00 Build 0)  -->
<svg version="1.1" id="Isolation_Mode" xmlns="http://www.w3.org/2000/svg" xmlns:xlink="http://www.w3.org/1999/xlink" x="0px"
	 y="0px" viewBox="0 0 173.7 109.6" enable-background="new 0 0 173.7 109.6" xml:space="preserve">
<g>
	<g>
		<path fill="none" d="M75.8,23.3l4.4,1.6c0.7,0.3,1.5,0.3,2.2,0L95,20.3c0.3-0.1,0.3-0.6,0-0.7l-5.4-1.8c-0.1,0-0.2,0-0.2,0
			l-13.6,4.8C75.4,22.7,75.4,23.1,75.8,23.3z"/>
	</g>
	<g>
		<path fill="#4A7EF2" d="M83.9,37.6l-11.3-3.8c-0.4-0.1-0.8-0.1-1.2,0.2c-0.3,0.2-0.5,0.6-0.5,1l-0.1,14.7c0,0.5-0.6,0.6-0.9,0.2
			L59.7,29.9c-0.2-0.4-0.5-0.7-1-0.8l-9-3.1c-0.7,1.1-1,2.4-1,3.7v3.5l0,0l-0.1,26.6l0,0v4c0,3.4,2.4,6.3,5.7,7.2l6.1,2.2
			c0,0,0.1,0,0.1,0c0.3-0.2,0.5-0.6,0.5-1l0.1-13.7c0-0.5,0.6-0.6,0.9-0.2l10.1,19.2l9.5,3.5c0.5,0.2,1,0.4,1.5,0.5
			c0.2,0,0.4-0.1,0.6-0.2c0.3-0.2,0.5-0.6,0.5-1l0.5-41.5C84.7,38.2,84.4,37.8,83.9,37.6z"/>
	</g>
	<g>
		<path fill="#4A7EF2" d="M117.9,70.8c3.3-0.8,5.7-3.7,5.7-7.2v-5.9l0-0.5c-0.1,0-0.2,0-0.3,0.1l-19.4,6.4c-0.1,0-0.3,0-0.4-0.1
			c-0.1,0-0.1-0.1-0.1-0.2l0-3.4c0-0.1,0.1-0.2,0.2-0.2l13.8-4.7c0.7-0.2,1.1-0.8,1.1-1.5l0-7.4c0-0.5-0.2-1-0.7-1.3
			c-0.4-0.3-1-0.4-1.6-0.2l-12.5,4.1c-0.1,0-0.3,0-0.4-0.1c-0.1,0-0.1-0.1-0.1-0.2l0-2.3c0-0.1,0.1-0.2,0.2-0.2l18.5-7.5
			c0.6-0.2,1.1-0.8,1.1-1.5l0-8.9c0,0,0-0.1,0-0.1c-0.1-0.3-0.2-0.6-0.4-0.9c-0.1-0.1-0.2-0.2-0.3-0.3c-0.5-0.3-1-0.4-1.6-0.2
			L89.3,37.7c-0.7,0.2-1.1,0.8-1.1,1.5v40.6c0,0.5,0.2,1,0.7,1.3c0,0,0.1,0,0.1,0L117.9,70.8L117.9,70.8z"/>
	</g>
	<g>
		<path fill="#4A7EF2" d="M84.3,34c0.8,0.3,1.7,0.4,2.6,0.4s1.8-0.1,2.6-0.4l29-10c0.7-0.3,1.2-0.9,1.2-1.7c0-0.1,0-0.2,0-0.3
			c-0.6-0.4-1.3-0.7-2.1-0.9l0.1-0.1h0l-27.7-10c-1.8-0.8-3.9-0.9-5.9-0.2l-7.2,2.6l-0.2,0l-21,7.7c-1.2,0.3-2.3,1-3.2,1.8L84.3,34z
			 M77.1,22.6l13.6-4.8c0.1,0,0.2,0,0.2,0l5.4,1.8c0.3,0.1,0.3,0.6,0,0.7l-12.6,4.6c-0.7,0.3-1.5,0.3-2.2,0l-4.4-1.6
			C76.8,23.1,76.8,22.7,77.1,22.6z"/>
	</g>
</g>
<g>
	<path fill="#4A7EF2" d="M50.3,94.3c0-0.8-0.6-1.1-1.9-1.4c-1.1-0.3-2.3-0.8-2.3-2.3c0-1.3,1.1-2.2,2.6-2.2c0.9,0,1.7,0.2,2.5,0.7
		L50.8,90c-0.6-0.4-1.4-0.6-2.1-0.6c-1.1,0-1.6,0.5-1.6,1.2c0,0.8,0.7,1.1,1.9,1.4c1.1,0.3,2.3,0.9,2.3,2.3c0,1.3-1.1,2.3-2.7,2.3
		c-0.9,0-1.9-0.3-2.6-0.7l0.4-1c0.7,0.4,1.4,0.8,2.3,0.8C49.6,95.6,50.3,95,50.3,94.3z"/>
	<path fill="#4A7EF2" d="M61.8,97.4l-0.5,0.9l-3.4-1.8c-0.1,0-0.2,0-0.3,0c-2.3,0-3.9-1.6-3.9-4.1c0-2.3,1.6-4.1,3.9-4.1
		c2.3,0,3.9,1.6,3.9,4.1c0,1.7-0.9,3.1-2.2,3.7L61.8,97.4z M57.6,89.3c-1.7,0-2.8,1.2-2.8,3.1c0,1.9,1.2,3.2,2.9,3.2
		c1.7,0,2.8-1.3,2.8-3.1C60.5,90.5,59.3,89.3,57.6,89.3z"/>
	<path fill="#4A7EF2" d="M67.4,96.5c-2,0-3-1.2-3-3.1v-4.9h1v4.7c0,1.4,0.7,2.2,2.1,2.2c1.2,0,2-0.7,2-2.2c0,0.1,0-4.8,0-4.8h1
		c0,0,0,4.7,0,4.8C70.4,95.3,69.4,96.5,67.4,96.5z"/>
	<path fill="#4A7EF2" d="M79.7,96.3h-1.1l-0.7-2h-3.4l-0.7,2h-1.1l2.9-7.8h1.2L79.7,96.3z M76.2,89.6l-1.3,3.7h2.7L76.2,89.6z"/>
	<path fill="#4A7EF2" d="M83.1,96.3H82v-7.8c0,0,2.3,0,2.3,0c1.9,0,2.9,0.9,2.9,2.3c0,1.2-0.7,1.9-1.8,2.2l2.1,3.3h-1.3l-1.9-3.1
		l-1.3,0.1V96.3z M84.4,92.4c1,0,1.8-0.5,1.8-1.5c0-0.9-0.8-1.4-1.9-1.4h-1.1v2.9L84.4,92.4z"/>
	<path fill="#4A7EF2" d="M90.1,96.3v-7.8H95v1h-3.9v2.4h3.2v1h-3.2v2.4H95v1H90.1z"/>
	<path fill="#4A7EF2" d="M101.5,96.5c-2.3,0-4.2-1.3-4.2-4.1c0-2.5,1.9-4.1,4.2-4.1s4.2,1.3,4.2,4.1C105.7,95,103.8,96.5,101.5,96.5
		z M101.5,90.3c-1.1,0-1.7,0.9-1.7,2.1c0,1.3,0.6,2.2,1.7,2.2c1.1,0,1.7-0.9,1.7-2.1C103.2,91.2,102.6,90.3,101.5,90.3z"/>
	<path fill="#4A7EF2" d="M113.5,88.5h2.3v7.9h-2.6l-2.8-4.5v4.4h-2.3v-7.8h2.6l2.8,4.4V88.5z"/>
	<path fill="#4A7EF2" d="M118.5,96.3v-7.8h6.1v1.9h-3.7v1h2.9v1.9h-2.9v1h3.7v1.9H118.5z"/>
</g>
</svg>
