<svg xmlns="http://www.w3.org/2000/svg" viewBox="0 0 134 92"><path fill="#FFF" d="M32.4 20.8h70v51.9h-70z"/><path d="M14.5 37.7v10.9H121V37.7H14.5zm48.2 6.9H18.1v-2.4h44.6v2.4zm50.1 1.3l2.5-4.3 2.5 4.3h-5zM14.5 70.9v10.9H121V70.9H14.5zm48.2 6.3H18.1v-2.4h44.6v2.4zm52.6 1.9l-2.5-4.3h4.9l-2.4 4.3zM119.9 49.6v19.1H15.6V49.6h104.3m1-1H14.6v21.1h106.3V48.6z"/><path d="M18.2 55.3h81.5v1.6H18.2zM18.2 52.1h81.5v1.6H18.2zM18.2 58.5h83.7v1.6H18.2zM18.2 61.7h60.4v1.6H18.2zM39.7 12.2h56.5v4.9H39.7zM25.5 23.4H108v2H25.5zM32.5 28.5h71v2h-71z"/></svg>