<?xml version="1.0" encoding="utf-8"?>
<!-- Generator: Adobe Illustrator 21.1.0, SVG Export Plug-In . SVG Version: 6.00 Build 0)  -->
<svg version="1.1" xmlns="http://www.w3.org/2000/svg" xmlns:xlink="http://www.w3.org/1999/xlink" x="0px" y="0px"
	 viewBox="0 0 134 92" enable-background="new 0 0 134 92" xml:space="preserve">
<g id="Layer_1">
	<g>
		<path d="M17.5,24.3V35H68V24.3H17.5z M42.8,31H21v-2.4h21.8V31z M60,32.3l2.4-4.2l2.4,4.2L60,32.3z"/>
		<path d="M17.5,56.9v10.7H68V56.9H17.5z M42.8,63.1H21v-2.4h21.8V63.1z M62.5,64.9L60,60.7l4.9,0L62.5,64.9z"/>
		<path d="M17.5,68.9v10.7H68V68.9H17.5z M42.8,75.1H21v-2.4h21.8V75.1z M62.5,76.9L60,72.7l4.9,0L62.5,76.9z"/>
		<g>
			<path d="M66.9,36v18.7H18.5V36H66.9 M67.9,35H17.5v20.7h50.4V35L67.9,35z"/>
		</g>
		<rect x="21.1" y="41.5" width="37.5" height="1.6"/>
		<rect x="21.1" y="38.4" width="37.5" height="1.6"/>
		<rect x="21.1" y="44.7" width="40.6" height="1.6"/>
		<rect x="21.1" y="47.8" width="37.3" height="1.6"/>
	</g>
	<g>
		<rect x="73.1" y="29.4" width="39" height="2"/>
		<rect x="73.1" y="25.4" width="43" height="2"/>
		<rect x="73.1" y="33.4" width="45" height="2"/>
		<rect x="73.1" y="41.5" width="37.4" height="2"/>
		<rect x="73.1" y="37.5" width="43" height="2"/>
		<rect x="73.1" y="53.5" width="37.5" height="2"/>
		<rect x="73.1" y="49.5" width="43" height="2"/>
		<rect x="73.1" y="57.5" width="45" height="2"/>
	</g>
	<rect x="43" y="12.3" width="55.5" height="4.8"/>
</g>
<g id="Layer_2">
</g>
</svg>
