<?xml version="1.0" encoding="utf-8"?>
<!-- Generator: Adobe Illustrator 21.1.0, SVG Export Plug-In . SVG Version: 6.00 Build 0)  -->
<svg version="1.1" xmlns="http://www.w3.org/2000/svg" xmlns:xlink="http://www.w3.org/1999/xlink" x="0px" y="0px"
	 viewBox="0 0 134 92" enable-background="new 0 0 134 92" xml:space="preserve">
<g id="Layer_1">
	<path d="M13.5,11.8v68.4h107.1V11.8H13.5z M116.3,75.6H18.5V16.3h97.8V75.6z"/>
	<g>
		<polygon points="112.8,76 31.8,75.6 18.5,75.6 18.5,61.6 13.8,64.4 13.8,78.2 85.3,78.2 119.8,78.2 		"/>
		<polygon points="61,67.4 68.5,62.8 68.5,16.6 116.2,16.6 116.2,75.5 111.2,75.5 112.8,76 116.3,76 116.3,16.3 18.5,16.3 
			18.5,61.6 35,51.7 		"/>
	</g>
	<rect x="73.3" y="24" width="35.5" height="5.1"/>
	<rect x="73.3" y="31" width="32.3" height="5.1"/>
	<rect x="73.3" y="42" width="33.9" height="2.1"/>
	<rect x="73.3" y="38.8" width="33.9" height="2.1"/>
</g>
<g id="Layer_2">
</g>
<g id="Layer_3">
</g>
</svg>
