<?xml version="1.0" encoding="utf-8"?>
<!-- Generator: Adobe Illustrator 21.1.0, SVG Export Plug-In . SVG Version: 6.00 Build 0)  -->
<svg version="1.1" id="Layer_1" xmlns="http://www.w3.org/2000/svg" xmlns:xlink="http://www.w3.org/1999/xlink" x="0px" y="0px"
	 viewBox="0 0 134 92" enable-background="new 0 0 134 92" xml:space="preserve">
<g>
	<polygon fill="none" points="57,26.2 101,26.2 101,67.4 57,67.4 57,70.2 103.8,70.2 103.8,23.4 57,23.4 57,26.1 57,26.1 	"/>
	<polygon points="101,26.2 57,26.2 57,67.4 57,67.4 57,67.4 101,67.4 	"/>
	<polygon points="54.2,26.2 28.1,26.2 28.1,67.4 54.2,67.4 54.2,67.4 	"/>
	<path d="M105.2,20.7H55.6c-0.8,0-1.4,0.6-1.4,1.4v4.1H57v-2.7h46.8v46.8H57v-2.8h-2.8v4.2c0,0.8,0.6,1.4,1.4,1.4h49.6
		c0.8,0,1.4-0.6,1.4-1.4V22C106.6,21.3,106,20.7,105.2,20.7z"/>
	<rect x="54.2" y="67.4" width="2.8" height="0"/>
	<rect x="57" y="26.1" fill="#FFFFFF" width="0" height="0.1"/>
	<rect x="57" y="26.2" fill="#FFFFFF" width="0" height="41.3"/>
	<rect x="54.2" y="26.1" fill="#FFFFFF" width="2.8" height="0.1"/>
</g>
</svg>
