<?xml version="1.0" encoding="utf-8"?>
<!-- Generator: Adobe Illustrator 21.1.0, SVG Export Plug-In . SVG Version: 6.00 Build 0)  -->
<svg version="1.1" id="Layer_1" xmlns="http://www.w3.org/2000/svg" xmlns:xlink="http://www.w3.org/1999/xlink" x="0px" y="0px"
	 viewBox="0 0 134 92" enable-background="new 0 0 134 92" xml:space="preserve">
<path d="M15.8,14.4h101.8v62.8H15.8V14.4z M14.5,11.7L14.5,11.7c-0.8,0-1.4,0.6-1.4,1.4v65.6c0,0.8,0.6,1.4,1.4,1.4H119
	c0.8,0,1.4-0.6,1.4-1.4V13c0-0.8-0.6-1.4-1.4-1.4H14.5z"/>
<rect x="46.8" y="26.2" width="41.2" height="41.3"/>
<polygon points="20.6,43.7 31.9,43.7 31.9,38 41.7,46.1 31.9,54.3 31.9,48.6 20.6,48.6 "/>
<polygon points="102,38 102,43.7 113.2,43.7 113.2,48.6 102,48.6 102,54.3 92.1,46.1 "/>
</svg>
