<?xml version="1.0" encoding="utf-8"?>
<!-- Generator: Adobe Illustrator 21.1.0, SVG Export Plug-In . SVG Version: 6.00 Build 0)  -->
<svg version="1.1" id="Layer_1" xmlns="http://www.w3.org/2000/svg" xmlns:xlink="http://www.w3.org/1999/xlink" x="0px" y="0px"
	 viewBox="0 0 134 92" enable-background="new 0 0 134 92" xml:space="preserve">
<rect x="30.2" y="20.8" width="74.4" height="6.1"/>
<rect x="35.6" y="30.1" width="64.1" height="6.1"/>
<path fill-rule="evenodd" clip-rule="evenodd" d="M39,53.1C39,53.1,39,53.1,39,53.1C39,53,39,53,39,53.1v-0.5l0,0
	c-0.2-2.7-2.5-4.8-5.2-4.8H19c-2.8,0-5,2.1-5.2,4.9l0,0v13.5l0,0c0.2,2.7,2.5,4.9,5.2,4.9h14.7c2.8,0,5-2.2,5.2-4.9l0,0v-0.4
	c0,0,0,0,0,0s0,0,0,0V53.1z M22.2,59.7l3.1-3.4c-0.3-0.3-0.6-0.6-0.9-1c-0.6,0.3-1.2-0.5-0.8-1l1.8-2.4c0.4-0.6,1.3-0.2,1.2,0.5
	c1.2,0.4,2.3,1.2,3,2.3c0.6-0.3,1.2,0.5,0.8,1l-1.8,2.4c-0.4,0.6-1.3,0.2-1.2-0.5c-0.4-0.1-0.8-0.3-1.2-0.6L24,61.1
	c-0.2,0.3-0.4,0.5-0.7,0.5c-0.3,0.1-0.6,0-0.9-0.2c-0.3-0.2-0.4-0.5-0.4-0.8C21.9,60.3,22,60,22.2,59.7z M31.8,66H20.7v-1.7h11.1V66
	z"/>
<path fill-rule="evenodd" clip-rule="evenodd" d="M66.3,53.1C66.3,53.1,66.3,53.1,66.3,53.1C66.3,53,66.3,53,66.3,53.1v-0.5l0,0
	c-0.2-2.7-2.5-4.8-5.2-4.8H46.3c-2.8,0-5,2.1-5.2,4.9l0,0v13.5l0,0c0.2,2.7,2.5,4.9,5.2,4.9H61c2.8,0,5-2.2,5.2-4.9l0,0v-0.4
	c0,0,0,0,0,0s0,0,0,0V53.1z M49.6,59.7l3.1-3.4c-0.3-0.3-0.6-0.6-0.9-1c-0.6,0.3-1.2-0.5-0.8-1l1.8-2.4c0.4-0.6,1.3-0.2,1.2,0.5
	c1.2,0.4,2.3,1.2,3,2.3c0.6-0.3,1.2,0.5,0.8,1l-1.8,2.4c-0.4,0.6-1.3,0.2-1.2-0.5c-0.4-0.1-0.8-0.3-1.2-0.6l-2.3,3.9
	c-0.2,0.3-0.4,0.5-0.7,0.5c-0.3,0.1-0.6,0-0.9-0.2c-0.3-0.2-0.4-0.5-0.4-0.8C49.2,60.3,49.3,60,49.6,59.7z M59.1,66H48v-1.7h11.1V66
	z"/>
<path fill-rule="evenodd" clip-rule="evenodd" d="M94,53.1C94,53.1,94,53.1,94,53.1C94,53,94,53,94,53.1v-0.5l0,0
	c-0.2-2.7-2.5-4.8-5.2-4.8H74c-2.8,0-5,2.1-5.2,4.9l0,0v13.5l0,0c0.2,2.7,2.5,4.9,5.2,4.9h14.7c2.8,0,5-2.2,5.2-4.9l0,0v-0.4
	c0,0,0,0,0,0s0,0,0,0V53.1z M77.2,59.7l3.1-3.4c-0.3-0.3-0.6-0.6-0.9-1c-0.6,0.3-1.2-0.5-0.8-1l1.8-2.4c0.4-0.6,1.3-0.2,1.2,0.5
	c1.2,0.4,2.3,1.2,3,2.3c0.6-0.3,1.2,0.5,0.8,1l-1.8,2.4c-0.4,0.6-1.3,0.2-1.2-0.5c-0.4-0.1-0.8-0.3-1.2-0.6L79,61.1
	c-0.2,0.3-0.4,0.5-0.7,0.5c-0.3,0.1-0.6,0-0.9-0.2c-0.3-0.2-0.4-0.5-0.4-0.8C76.9,60.3,77,60,77.2,59.7z M86.8,66H75.7v-1.7h11.1V66
	z"/>
<path fill-rule="evenodd" clip-rule="evenodd" d="M121,53.1C121,53.1,121,53.1,121,53.1C121,53,121,53,121,53.1v-0.5l0,0
	c-0.2-2.7-2.5-4.8-5.2-4.8H101c-2.8,0-5,2.1-5.2,4.9l0,0v13.5l0,0c0.2,2.7,2.5,4.9,5.2,4.9h14.7c2.8,0,5-2.2,5.2-4.9l0,0v-0.4
	c0,0,0,0,0,0s0,0,0,0V53.1z M104.2,59.7l3.1-3.4c-0.3-0.3-0.6-0.6-0.9-1c-0.6,0.3-1.2-0.5-0.8-1l1.8-2.4c0.4-0.6,1.3-0.2,1.2,0.5
	c1.2,0.4,2.3,1.2,3,2.3c0.6-0.3,1.2,0.5,0.8,1l-1.8,2.4c-0.4,0.6-1.3,0.2-1.2-0.5c-0.4-0.1-0.8-0.3-1.2-0.6l-2.3,3.9
	c-0.2,0.3-0.4,0.5-0.7,0.5c-0.3,0.1-0.6,0-0.9-0.2c-0.3-0.2-0.4-0.5-0.4-0.8C103.9,60.3,104,60,104.2,59.7z M113.8,66h-11.1v-1.7
	h11.1V66z"/>
</svg>
