<?xml version="1.0" encoding="utf-8"?>
<!-- Generator: Adobe Illustrator 21.0.2, SVG Export Plug-In . SVG Version: 6.00 Build 0)  -->
<svg version="1.1" id="Layer_1" xmlns="http://www.w3.org/2000/svg" xmlns:xlink="http://www.w3.org/1999/xlink" x="0px" y="0px"
	 viewBox="0 0 134 92" enable-background="new 0 0 134 92" xml:space="preserve">
<path d="M13.5,11.8v68.4h107.1V11.8H13.5z M53.6,30.7l27.4,0v1.9l-27.4,0V30.7z M26.6,42.2h-1.1c0,0.2,0,0.4,0.1,0.6
	c0.2,0.4,0.5,0.6,0.9,0.7v0.7c-0.6-0.1-1.1-0.4-1.4-0.8c-0.3-0.4-0.5-0.9-0.5-1.6v-1.4h1.9V42.2z M29.3,42.2h-1.1
	c0,0.2,0,0.4,0.1,0.6c0.2,0.4,0.5,0.6,0.9,0.8v0.7c-0.6-0.1-1.1-0.4-1.4-0.8c-0.3-0.4-0.5-0.9-0.5-1.6v-1.4h1.9V42.2z M76.5,63.6
	l-15.9,0v-1.9l15.9,0V63.6z M102.5,56h-67v-2.6h67V56z M38.1,49.5v-2.6h62.2v2.6H38.1z M104.3,42.9H32v-2.6h72.3V42.9z M106.6,54.8
	c0,0.7-0.2,1.2-0.5,1.6c-0.3,0.4-0.8,0.6-1.4,0.8v-0.7c0.5-0.1,0.8-0.4,0.9-0.8c0.1-0.2,0.1-0.4,0.1-0.6h-1.1v-1.8h1.9V54.8z
	 M109.3,54.8c0,0.7-0.2,1.2-0.5,1.6c-0.3,0.4-0.8,0.7-1.4,0.8v-0.7c0.5-0.1,0.8-0.4,0.9-0.7c0.1-0.2,0.1-0.4,0.1-0.6h-1.1v-1.8h1.9
	V54.8z"/>
</svg>
