<?xml version="1.0" encoding="utf-8"?>
<!-- Generator: Adobe Illustrator 21.0.2, SVG Export Plug-In . SVG Version: 6.00 Build 0)  -->
<svg version="1.1" id="Layer_1" xmlns="http://www.w3.org/2000/svg" xmlns:xlink="http://www.w3.org/1999/xlink" x="0px" y="0px"
	 viewBox="0 0 134 92" enable-background="new 0 0 134 92" xml:space="preserve">
<path d="M13.5,11.8v68.4h107.1V11.8H13.5z M68.2,32.7c0-1.8,0.4-3.3,1.3-4.3c0.9-1,2.1-1.7,3.7-2v1.9c-1.2,0.4-2,1.1-2.5,2
	c-0.2,0.5-0.3,1-0.3,1.5h2.8v4.8h-5.2V32.7z M61,32.7c0-1.8,0.4-3.2,1.3-4.3c0.9-1.1,2.1-1.7,3.8-2.1v1.9c-1.2,0.4-2.1,1.1-2.5,2
	c-0.2,0.5-0.3,1-0.3,1.5h2.8v4.8H61V32.7z M76.6,66.6l-19,0v-1.9l19,0V66.6z M107.7,59h-80v-2.6h80V59z M30.9,52.5v-2.6h74.3v2.6
	H30.9z M109.9,45.9H23.5v-2.6h86.3V45.9z"/>
</svg>
