<?xml version="1.0" encoding="utf-8"?>
<!-- Generator: Adobe Illustrator 21.1.0, SVG Export Plug-In . SVG Version: 6.00 Build 0)  -->
<svg version="1.1" xmlns="http://www.w3.org/2000/svg" xmlns:xlink="http://www.w3.org/1999/xlink" x="0px" y="0px"
	 viewBox="0 0 600 417.1" enable-background="new 0 0 600 417.1" xml:space="preserve">
<g id="Layer_1">
	<g>
		<defs>
			<rect id="SVGID_3_" x="-0.2" y="0.1" width="600" height="415.6"/>
		</defs>
		<clipPath id="SVGID_2_">
			<use xlink:href="#SVGID_3_"  overflow="visible"/>
		</clipPath>
		<g clip-path="url(#SVGID_2_)">
			<rect x="-0.2" y="0.1" fill="#FFFFFF" width="600" height="415.8"/>
		</g>
		<g clip-path="url(#SVGID_2_)">
			<path fill="#0A5995" d="M336.2,409.4c3.5,2,8.2,1.4,11.1-1.4l125.3-123l188.1,102.6l-4.2-23.8l-180.9-98.8
				c-3.5-2-8.2-1.4-11.1,1.4L339,389.8L122.8,269.9c-2.4-1.4-5.5-1.7-8.2-0.6c-1.1,0.5-2.1,1.2-2.9,2l-211.9,209l3.9,22.3L120,289.5
				L336.2,409.4z"/>
			<path fill="#FFFFFF" d="M-101.2,518l-7.1-40.3l214.7-211.8c1.4-1.5,3.2-2.7,5.2-3.5l0.3-0.1c4.7-1.8,10.1-1.4,14.5,1.1
				l211.3,117.2L459.4,261c5.2-5,13.6-6,19.9-2.5l184,100.5l7.5,42.7L473.9,294.3L352.5,413.5c-5.3,5-13.6,6-19.9,2.5L121.3,298.8
				L-101.2,518z M-92.1,482.9l0.8,4.4l210.1-207l221.2,122.7c0.6,0.3,1.7,0.2,2.2-0.3l129.2-126.9l179.3,97.8l-0.9-4.9L472,271.6
				c-0.6-0.3-1.7-0.2-2.2,0.3L340.3,399.1L119.1,276.4c-0.5-0.3-1.1-0.3-1.6-0.2c-0.2,0.1-0.3,0.2-0.4,0.3L-92.1,482.9z"/>
		</g>
		<g clip-path="url(#SVGID_2_)">
			<polygon fill="#E3F9FF" points="625.9,525.1 -41.4,438.4 118.6,280.4 315.9,389.1 341.7,403.1 471.2,275.7 639.9,366.4 			"/>
		</g>
	</g>
	<g>
		<g>
			<rect x="234.3" y="232.6" fill="#0A5995" width="130.7" height="50.6"/>
		</g>
	</g>
	<g>
		<g>
			<rect x="269.1" y="256.8" fill="#FFFFFF" width="46.6" height="2.7"/>
		</g>
	</g>
	<g>
		<g>
			<polygon fill="#FFFFFF" points="315.7,258.2 315.7,249.2 323.5,253.7 331.3,258.2 323.5,262.7 315.7,267.2 			"/>
		</g>
	</g>
	<g>
		<path fill="#0A5995" d="M428.6,31.1c-22,0-39.9,17.9-39.9,39.9s17.9,39.9,39.9,39.9s39.9-17.9,39.9-39.9S450.6,31.1,428.6,31.1z
			 M428.6,99.4c-15.8,0-28.5-12.7-28.5-28.5c0-14.8,11.2-27,25.6-28.5c0.9-0.1,1.9,0,2.8,0c15.8,0,28.5,12.7,28.5,28.5
			S444.4,99.4,428.6,99.4z"/>
		<path fill="#FFFFFF" d="M428.6,114.8c-24.2,0-43.9-19.7-43.9-43.9s19.7-43.9,43.9-43.9s43.9,19.7,43.9,43.9
			S452.8,114.8,428.6,114.8z M428.6,35.1c-19.8,0-35.9,16.1-35.9,35.9s16.1,35.9,35.9,35.9s35.9-16.1,35.9-35.9
			S448.4,35.1,428.6,35.1z M428.6,103.4c-17.9,0-32.5-14.6-32.5-32.5c0-16.8,12.6-30.8,29.2-32.5c0.9-0.1,1.7-0.1,2.4,0
			c0.3,0,0.6,0,0.8,0c17.9,0,32.5,14.6,32.5,32.5S446.5,103.4,428.6,103.4z M426.7,46.4c-0.2,0-0.4,0-0.6,0
			c-12.5,1.3-22,11.8-22,24.5c0,13.5,11,24.5,24.5,24.5s24.5-11,24.5-24.5s-11-24.5-24.5-24.5c-0.4,0-0.7,0-1.1,0
			C427.2,46.4,427,46.4,426.7,46.4z"/>
	</g>
	<g>
		<circle fill="#E3F9FF" cx="428.6" cy="71.1" r="32.3"/>
	</g>
	<g>
		<defs>
			<rect id="SVGID_5_" x="-666" y="2.1" width="600" height="415.6"/>
		</defs>
		<clipPath id="SVGID_4_">
			<use xlink:href="#SVGID_5_"  overflow="visible"/>
		</clipPath>
		<g clip-path="url(#SVGID_4_)">
			<g>
				<path fill="#FFFFFF" d="M-767,520l-7.1-40.3l214.7-211.8c1.4-1.5,3.2-2.7,5.2-3.5l0.3-0.1c4.7-1.8,10.1-1.4,14.5,1.1L-328,382.5
					L-206.4,263c5.2-5,13.6-6,19.9-2.5L-2.5,361L5,403.7l-196.9-107.4l-121.4,119.2c-5.3,5-13.6,6-19.9,2.5l-211.3-117.2L-767,520z
					 M-757.9,484.9l0.8,4.4l210.1-207l221.2,122.7c0.6,0.3,1.7,0.2,2.2-0.3l129.2-126.9l179.3,97.8l-0.9-4.9l-177.8-97.1
					c-0.6-0.3-1.7-0.2-2.2,0.3l-129.5,127.2l-221.2-122.7c-0.5-0.3-1.1-0.3-1.6-0.2c-0.2,0.1-0.3,0.2-0.4,0.3L-757.9,484.9z"/>
			</g>
		</g>
	</g>
	<g>
		<path fill="#0A5995" d="M141.4,152.6c0,2.3-0.7,4.1-2.2,5.3s-3.5,1.8-6.1,1.8h-1.9v7.6h-4.5v-21.4h6.8c2.6,0,4.6,0.6,5.9,1.7
			S141.4,150.3,141.4,152.6z M131.1,156h1.5c1.4,0,2.4-0.3,3.1-0.8c0.7-0.6,1-1.4,1-2.4c0-1.1-0.3-1.9-0.9-2.4s-1.5-0.8-2.7-0.8
			h-2.1V156z"/>
		<path fill="#0A5995" d="M154.7,167.3l-0.9-2.2h-0.1c-0.8,0.9-1.5,1.6-2.3,2c-0.8,0.4-1.8,0.5-3.1,0.5c-1.6,0-2.8-0.4-3.7-1.3
			s-1.4-2.2-1.4-3.8c0-1.7,0.6-3,1.8-3.8c1.2-0.8,3-1.3,5.5-1.4l2.8-0.1v-0.7c0-1.7-0.8-2.5-2.5-2.5c-1.3,0-2.8,0.4-4.6,1.2l-1.5-3
			c1.9-1,4-1.5,6.3-1.5c2.2,0,3.9,0.5,5.1,1.4s1.8,2.4,1.8,4.4v10.9H154.7z M153.4,159.7l-1.7,0.1c-1.3,0-2.3,0.3-2.9,0.7
			s-1,1.1-1,2c0,1.3,0.7,1.9,2.2,1.9c1,0,1.9-0.3,2.5-0.9s0.9-1.4,0.9-2.4V159.7z"/>
		<path fill="#0A5995" d="M176.8,167.3h-4.5v-9.6c0-1.2-0.2-2.1-0.6-2.7c-0.4-0.6-1.1-0.9-2-0.9c-1.2,0-2.2,0.4-2.7,1.3
			c-0.6,0.8-0.8,2.2-0.8,4.2v7.7h-4.5v-16.4h3.4l0.6,2.1h0.2c0.5-0.8,1.2-1.4,2.1-1.8s1.9-0.6,3-0.6c1.9,0,3.3,0.5,4.3,1.5
			s1.5,2.5,1.5,4.5V167.3z"/>
		<path fill="#0A5995" d="M188.1,167.6c-2.6,0-4.7-0.7-6.2-2.2s-2.2-3.5-2.2-6.2c0-2.7,0.7-4.9,2.1-6.4s3.3-2.2,5.7-2.2
			c2.3,0,4.1,0.7,5.4,2s1.9,3.1,1.9,5.5v2.2h-10.6c0,1.3,0.4,2.3,1.1,3s1.7,1.1,3,1.1c1,0,1.9-0.1,2.8-0.3s1.8-0.5,2.8-1v3.5
			c-0.8,0.4-1.6,0.7-2.5,0.9C190.4,167.5,189.4,167.6,188.1,167.6z M187.4,153.8c-0.9,0-1.7,0.3-2.2,0.9c-0.5,0.6-0.8,1.5-0.9,2.6
			h6.3c0-1.1-0.3-2-0.9-2.6C189.1,154.1,188.4,153.8,187.4,153.8z"/>
		<path fill="#0A5995" d="M202.1,167.3h-4.5v-22.8h4.5V167.3z"/>
		<path fill="#0A5995" d="M221.7,167.3h-4.5v-17.6h-5.8v-3.8h16.2v3.8h-5.8V167.3z"/>
		<path fill="#0A5995" d="M229.5,146.7c0-1.5,0.8-2.2,2.4-2.2s2.4,0.7,2.4,2.2c0,0.7-0.2,1.2-0.6,1.6c-0.4,0.4-1,0.6-1.8,0.6
			C230.3,148.9,229.5,148.1,229.5,146.7z M234.2,167.3h-4.5v-16.4h4.5V167.3z"/>
		<path fill="#0A5995" d="M245,164c0.8,0,1.7-0.2,2.8-0.5v3.3c-1.1,0.5-2.5,0.7-4.1,0.7c-1.8,0-3.1-0.5-3.9-1.4
			c-0.8-0.9-1.2-2.3-1.2-4.1v-7.9h-2.1v-1.9l2.5-1.5l1.3-3.5h2.9v3.5h4.6v3.4h-4.6v7.9c0,0.6,0.2,1.1,0.5,1.4S244.4,164,245,164z"/>
		<path fill="#0A5995" d="M254.9,167.3h-4.5v-22.8h4.5V167.3z"/>
		<path fill="#0A5995" d="M266.2,167.6c-2.6,0-4.7-0.7-6.2-2.2s-2.2-3.5-2.2-6.2c0-2.7,0.7-4.9,2.1-6.4s3.3-2.2,5.7-2.2
			c2.3,0,4.1,0.7,5.4,2s1.9,3.1,1.9,5.5v2.2h-10.6c0,1.3,0.4,2.3,1.1,3s1.7,1.1,3,1.1c1,0,1.9-0.1,2.8-0.3s1.8-0.5,2.8-1v3.5
			c-0.8,0.4-1.6,0.7-2.5,0.9C268.6,167.5,267.5,167.6,266.2,167.6z M265.6,153.8c-0.9,0-1.7,0.3-2.2,0.9c-0.5,0.6-0.8,1.5-0.9,2.6
			h6.3c0-1.1-0.3-2-0.9-2.6C267.3,154.1,266.5,153.8,265.6,153.8z"/>
		<path fill="#0A5995" d="M287.6,167.3h-4.5v-21.4h12.3v3.7h-7.8v5.5h7.3v3.7h-7.3V167.3z"/>
		<path fill="#0A5995" d="M313.4,159.1c0,2.7-0.7,4.8-2.1,6.3s-3.4,2.3-5.9,2.3c-1.6,0-3-0.3-4.2-1c-1.2-0.7-2.1-1.7-2.8-3
			s-1-2.8-1-4.5c0-2.7,0.7-4.8,2.1-6.2s3.4-2.2,5.9-2.2c1.6,0,3,0.3,4.2,1s2.1,1.7,2.8,2.9S313.4,157.4,313.4,159.1z M302.1,159.1
			c0,1.6,0.3,2.8,0.8,3.7s1.4,1.2,2.6,1.2c1.2,0,2-0.4,2.6-1.2s0.8-2.1,0.8-3.7c0-1.6-0.3-2.8-0.8-3.6s-1.4-1.2-2.6-1.2
			c-1.2,0-2.1,0.4-2.6,1.2C302.4,156.2,302.1,157.4,302.1,159.1z"/>
		<path fill="#0A5995" d="M325.5,150.6c0.6,0,1.1,0,1.5,0.1l-0.3,4.2c-0.4-0.1-0.8-0.1-1.3-0.1c-1.4,0-2.5,0.4-3.3,1.1
			s-1.2,1.8-1.2,3.1v8.3h-4.5v-16.4h3.4l0.7,2.8h0.2c0.5-0.9,1.2-1.7,2.1-2.2S324.5,150.6,325.5,150.6z"/>
		<path fill="#0A5995" d="M354.2,167.3h-4.5v-9.2h-8.5v9.2h-4.5v-21.4h4.5v8.4h8.5v-8.4h4.5V167.3z"/>
		<path fill="#0A5995" d="M365.9,167.6c-2.6,0-4.7-0.7-6.2-2.2s-2.2-3.5-2.2-6.2c0-2.7,0.7-4.9,2.1-6.4s3.3-2.2,5.7-2.2
			c2.3,0,4.1,0.7,5.4,2s1.9,3.1,1.9,5.5v2.2H362c0,1.3,0.4,2.3,1.1,3s1.7,1.1,3,1.1c1,0,1.9-0.1,2.8-0.3s1.8-0.5,2.8-1v3.5
			c-0.8,0.4-1.6,0.7-2.5,0.9C368.2,167.5,367.2,167.6,365.9,167.6z M365.3,153.8c-0.9,0-1.7,0.3-2.2,0.9c-0.5,0.6-0.8,1.5-0.9,2.6
			h6.3c0-1.1-0.3-2-0.9-2.6C367,154.1,366.2,153.8,365.3,153.8z"/>
		<path fill="#0A5995" d="M385.8,167.3l-0.9-2.2h-0.1c-0.8,0.9-1.5,1.6-2.3,2c-0.8,0.4-1.8,0.5-3.1,0.5c-1.6,0-2.8-0.4-3.7-1.3
			s-1.4-2.2-1.4-3.8c0-1.7,0.6-3,1.8-3.8c1.2-0.8,3-1.3,5.5-1.4l2.8-0.1v-0.7c0-1.7-0.8-2.5-2.5-2.5c-1.3,0-2.8,0.4-4.6,1.2l-1.5-3
			c1.9-1,4-1.5,6.3-1.5c2.2,0,3.9,0.5,5.1,1.4s1.8,2.4,1.8,4.4v10.9H385.8z M384.5,159.7l-1.7,0.1c-1.3,0-2.3,0.3-2.9,0.7
			s-1,1.1-1,2c0,1.3,0.7,1.9,2.2,1.9c1,0,1.9-0.3,2.5-0.9s0.9-1.4,0.9-2.4V159.7z"/>
		<path fill="#0A5995" d="M398,167.6c-1.9,0-3.4-0.7-4.5-2.2s-1.6-3.6-1.6-6.2c0-2.7,0.6-4.8,1.7-6.3s2.7-2.2,4.6-2.2
			c2.1,0,3.6,0.8,4.7,2.4h0.1c-0.2-1.2-0.3-2.3-0.3-3.3v-5.2h4.5v22.8h-3.4l-0.9-2.1h-0.2C401.6,166.8,400.1,167.6,398,167.6z
			 M399.6,164c1.1,0,2-0.3,2.5-1s0.8-1.8,0.9-3.4v-0.5c0-1.8-0.3-3-0.8-3.8s-1.4-1.1-2.6-1.1c-1,0-1.8,0.4-2.3,1.3
			c-0.6,0.8-0.8,2.1-0.8,3.7s0.3,2.8,0.8,3.6C397.7,163.6,398.5,164,399.6,164z"/>
		<path fill="#0A5995" d="M415.5,167.3h-4.5v-22.8h4.5V167.3z"/>
		<path fill="#0A5995" d="M419.3,146.7c0-1.5,0.8-2.2,2.4-2.2s2.4,0.7,2.4,2.2c0,0.7-0.2,1.2-0.6,1.6c-0.4,0.4-1,0.6-1.8,0.6
			C420.1,148.9,419.3,148.1,419.3,146.7z M423.9,167.3h-4.5v-16.4h4.5V167.3z"/>
		<path fill="#0A5995" d="M443,167.3h-4.5v-9.6c0-1.2-0.2-2.1-0.6-2.7c-0.4-0.6-1.1-0.9-2-0.9c-1.2,0-2.2,0.4-2.7,1.3
			c-0.6,0.8-0.8,2.2-0.8,4.2v7.7h-4.5v-16.4h3.4l0.6,2.1h0.2c0.5-0.8,1.2-1.4,2.1-1.8s1.9-0.6,3-0.6c1.9,0,3.3,0.5,4.3,1.5
			s1.5,2.5,1.5,4.5V167.3z"/>
		<path fill="#0A5995" d="M454.2,167.6c-2.6,0-4.7-0.7-6.2-2.2s-2.2-3.5-2.2-6.2c0-2.7,0.7-4.9,2.1-6.4s3.3-2.2,5.7-2.2
			c2.3,0,4.1,0.7,5.4,2s1.9,3.1,1.9,5.5v2.2h-10.6c0,1.3,0.4,2.3,1.1,3s1.7,1.1,3,1.1c1,0,1.9-0.1,2.8-0.3s1.8-0.5,2.8-1v3.5
			c-0.8,0.4-1.6,0.7-2.5,0.9C456.6,167.5,455.5,167.6,454.2,167.6z M453.6,153.8c-0.9,0-1.7,0.3-2.2,0.9c-0.5,0.6-0.8,1.5-0.9,2.6
			h6.3c0-1.1-0.3-2-0.9-2.6C455.3,154.1,454.6,153.8,453.6,153.8z"/>
		<path fill="#0A5995" d="M475.2,162.4c0,1.7-0.6,3-1.8,3.8s-2.9,1.3-5.2,1.3c-1.2,0-2.2-0.1-3-0.2c-0.8-0.2-1.6-0.4-2.4-0.7v-3.7
			c0.8,0.4,1.8,0.7,2.8,1s2,0.4,2.7,0.4c1.6,0,2.4-0.5,2.4-1.4c0-0.4-0.1-0.6-0.3-0.9c-0.2-0.2-0.6-0.5-1.1-0.7
			c-0.5-0.3-1.2-0.6-2.1-1c-1.3-0.5-2.2-1-2.8-1.5s-1-1-1.3-1.5c-0.3-0.6-0.4-1.3-0.4-2.1c0-1.5,0.6-2.6,1.7-3.4s2.7-1.2,4.8-1.2
			c2,0,3.9,0.4,5.8,1.3l-1.3,3.2c-0.8-0.4-1.6-0.6-2.3-0.9s-1.4-0.3-2.2-0.3c-1.3,0-2,0.4-2,1.1c0,0.4,0.2,0.7,0.6,1
			s1.4,0.7,2.8,1.3c1.3,0.5,2.2,1,2.8,1.5s1,1,1.3,1.6S475.2,161.6,475.2,162.4z"/>
	</g>
	<g>
		<path fill="#0A5995" d="M94.6,196.2c-0.9,0-1.6,0.3-2.1,0.9s-0.7,1.5-0.7,2.6c0,1.1,0.2,2,0.7,2.6c0.5,0.6,1.2,0.9,2.1,0.9
			c0.4,0,0.8,0,1.1-0.1s0.8-0.2,1.1-0.3v1.3c-0.7,0.3-1.6,0.4-2.5,0.4c-1.4,0-2.4-0.4-3.1-1.2s-1.1-2-1.1-3.5c0-1,0.2-1.8,0.5-2.5
			c0.4-0.7,0.9-1.3,1.5-1.7s1.5-0.6,2.4-0.6c0.9,0,1.8,0.2,2.6,0.6l-0.5,1.3c-0.3-0.1-0.6-0.3-1-0.4C95.3,196.2,95,196.2,94.6,196.2
			z"/>
		<path fill="#0A5995" d="M104.6,200.8c0,1.1-0.3,2-0.9,2.7s-1.4,1-2.5,1c-0.7,0-1.2-0.1-1.7-0.4s-0.9-0.7-1.2-1.3
			c-0.3-0.6-0.4-1.2-0.4-1.9c0-1.1,0.3-2,0.9-2.7c0.6-0.6,1.4-1,2.5-1c1,0,1.8,0.3,2.4,1C104.3,198.8,104.6,199.7,104.6,200.8z
			 M99.5,200.8c0,1.6,0.6,2.4,1.8,2.4c1.2,0,1.8-0.8,1.8-2.4c0-1.6-0.6-2.4-1.8-2.4c-0.6,0-1.1,0.2-1.4,0.6
			C99.6,199.4,99.5,200,99.5,200.8z"/>
		<path fill="#0A5995" d="M112.2,204.3h-1.5V200c0-0.5-0.1-0.9-0.3-1.2c-0.2-0.3-0.6-0.4-1-0.4c-0.6,0-1.1,0.2-1.4,0.6
			s-0.4,1-0.4,1.9v3.5H106v-7h1.2l0.2,0.9h0.1c0.2-0.3,0.5-0.6,0.9-0.8c0.4-0.2,0.8-0.3,1.3-0.3c1.7,0,2.5,0.9,2.5,2.6V204.3z"/>
		<path fill="#0A5995" d="M116.5,203.2c0.4,0,0.7-0.1,1.1-0.2v1.1c-0.2,0.1-0.4,0.1-0.6,0.2c-0.3,0-0.5,0.1-0.8,0.1
			c-1.4,0-2.1-0.7-2.1-2.2v-3.8h-1v-0.7l1-0.5l0.5-1.5h0.9v1.6h2v1.1h-2v3.8c0,0.4,0.1,0.6,0.3,0.8
			C116,203.1,116.2,203.2,116.5,203.2z"/>
		<path fill="#0A5995" d="M121.8,204.4c-1.1,0-1.9-0.3-2.6-1c-0.6-0.6-0.9-1.5-0.9-2.6c0-1.1,0.3-2,0.9-2.7c0.6-0.7,1.4-1,2.4-1
			c0.9,0,1.7,0.3,2.2,0.8c0.5,0.6,0.8,1.3,0.8,2.3v0.8h-4.7c0,0.7,0.2,1.2,0.6,1.6s0.8,0.5,1.5,0.5c0.4,0,0.8,0,1.2-0.1
			c0.4-0.1,0.7-0.2,1.2-0.4v1.2c-0.4,0.2-0.7,0.3-1.1,0.4C122.7,204.4,122.3,204.4,121.8,204.4z M121.5,198.3
			c-0.5,0-0.9,0.2-1.1,0.5c-0.3,0.3-0.5,0.7-0.5,1.3h3.2c0-0.6-0.1-1-0.4-1.3C122.3,198.4,122,198.3,121.5,198.3z"/>
		<path fill="#0A5995" d="M132,204.3h-1.5V200c0-0.5-0.1-0.9-0.3-1.2c-0.2-0.3-0.6-0.4-1-0.4c-0.6,0-1.1,0.2-1.4,0.6
			c-0.3,0.4-0.4,1-0.4,1.9v3.5h-1.5v-7h1.2l0.2,0.9h0.1c0.2-0.3,0.5-0.6,0.9-0.8c0.4-0.2,0.8-0.3,1.3-0.3c1.7,0,2.5,0.9,2.5,2.6
			V204.3z"/>
		<path fill="#0A5995" d="M136.4,203.2c0.4,0,0.7-0.1,1.1-0.2v1.1c-0.2,0.1-0.4,0.1-0.6,0.2c-0.3,0-0.5,0.1-0.8,0.1
			c-1.4,0-2.1-0.7-2.1-2.2v-3.8h-1v-0.7l1-0.5l0.5-1.5h0.9v1.6h2v1.1h-2v3.8c0,0.4,0.1,0.6,0.3,0.8
			C135.9,203.1,136.1,203.2,136.4,203.2z"/>
		<path fill="#0A5995" d="M146,204.3l-0.3-1h-0.1c-0.3,0.4-0.7,0.7-1,0.9s-0.8,0.2-1.3,0.2c-0.7,0-1.2-0.2-1.6-0.6
			c-0.4-0.4-0.6-0.9-0.6-1.6c0-0.7,0.3-1.3,0.8-1.6c0.5-0.4,1.4-0.6,2.5-0.6l1.2,0v-0.4c0-0.4-0.1-0.8-0.3-1c-0.2-0.2-0.5-0.3-1-0.3
			c-0.4,0-0.7,0.1-1,0.2c-0.3,0.1-0.6,0.2-1,0.4l-0.5-1.1c0.4-0.2,0.8-0.4,1.3-0.5s0.9-0.2,1.3-0.2c0.9,0,1.6,0.2,2,0.6
			c0.5,0.4,0.7,1,0.7,1.8v4.7H146z M143.8,203.3c0.5,0,1-0.2,1.3-0.5c0.3-0.3,0.5-0.7,0.5-1.3v-0.6l-0.9,0c-0.7,0-1.2,0.1-1.5,0.4
			c-0.3,0.2-0.5,0.5-0.5,1c0,0.3,0.1,0.6,0.3,0.7C143.2,203.2,143.4,203.3,143.8,203.3z"/>
		<path fill="#0A5995" d="M152.4,197.1c0.3,0,0.5,0,0.7,0.1l-0.1,1.4c-0.2-0.1-0.4-0.1-0.7-0.1c-0.6,0-1.1,0.2-1.5,0.6
			c-0.4,0.4-0.6,0.9-0.6,1.5v3.7h-1.5v-7h1.2l0.2,1.2h0.1c0.2-0.4,0.5-0.8,0.9-1C151.6,197.3,152,197.1,152.4,197.1z"/>
		<path fill="#0A5995" d="M157.2,204.4c-1.1,0-1.9-0.3-2.6-1c-0.6-0.6-0.9-1.5-0.9-2.6c0-1.1,0.3-2,0.9-2.7c0.6-0.7,1.4-1,2.4-1
			c0.9,0,1.7,0.3,2.2,0.8c0.5,0.6,0.8,1.3,0.8,2.3v0.8h-4.7c0,0.7,0.2,1.2,0.6,1.6s0.8,0.5,1.5,0.5c0.4,0,0.8,0,1.2-0.1
			c0.4-0.1,0.7-0.2,1.2-0.4v1.2c-0.4,0.2-0.7,0.3-1.1,0.4C158.1,204.4,157.7,204.4,157.2,204.4z M156.9,198.3
			c-0.5,0-0.9,0.2-1.1,0.5c-0.3,0.3-0.5,0.7-0.5,1.3h3.2c0-0.6-0.1-1-0.4-1.3C157.8,198.4,157.4,198.3,156.9,198.3z"/>
		<path fill="#0A5995" d="M165.7,204.3l-0.3-1h-0.1c-0.3,0.4-0.7,0.7-1,0.9s-0.8,0.2-1.3,0.2c-0.7,0-1.2-0.2-1.6-0.6
			c-0.4-0.4-0.6-0.9-0.6-1.6c0-0.7,0.3-1.3,0.8-1.6c0.5-0.4,1.4-0.6,2.5-0.6l1.2,0v-0.4c0-0.4-0.1-0.8-0.3-1c-0.2-0.2-0.5-0.3-1-0.3
			c-0.4,0-0.7,0.1-1,0.2c-0.3,0.1-0.6,0.2-1,0.4l-0.5-1.1c0.4-0.2,0.8-0.4,1.3-0.5s0.9-0.2,1.3-0.2c0.9,0,1.6,0.2,2,0.6
			c0.5,0.4,0.7,1,0.7,1.8v4.7H165.7z M163.5,203.3c0.5,0,1-0.2,1.3-0.5c0.3-0.3,0.5-0.7,0.5-1.3v-0.6l-0.9,0c-0.7,0-1.2,0.1-1.5,0.4
			c-0.3,0.2-0.5,0.5-0.5,1c0,0.3,0.1,0.6,0.3,0.7C162.8,203.2,163.1,203.3,163.5,203.3z"/>
		<path fill="#0A5995" d="M175.1,198.4h-1.7v5.9h-1.5v-5.9h-1.2v-0.7l1.2-0.5v-0.5c0-0.8,0.2-1.4,0.6-1.8c0.4-0.4,1-0.6,1.8-0.6
			c0.5,0,1,0.1,1.5,0.3l-0.4,1.1c-0.4-0.1-0.7-0.2-1.1-0.2c-0.3,0-0.6,0.1-0.7,0.3c-0.2,0.2-0.2,0.5-0.2,0.9v0.5h1.7V198.4z"/>
		<path fill="#0A5995" d="M182.2,200.8c0,1.1-0.3,2-0.9,2.7s-1.4,1-2.5,1c-0.7,0-1.2-0.1-1.7-0.4s-0.9-0.7-1.2-1.3
			c-0.3-0.6-0.4-1.2-0.4-1.9c0-1.1,0.3-2,0.9-2.7c0.6-0.6,1.4-1,2.5-1c1,0,1.8,0.3,2.4,1C181.9,198.8,182.2,199.7,182.2,200.8z
			 M177.1,200.8c0,1.6,0.6,2.4,1.8,2.4c1.2,0,1.8-0.8,1.8-2.4c0-1.6-0.6-2.4-1.8-2.4c-0.6,0-1.1,0.2-1.4,0.6
			C177.2,199.4,177.1,200,177.1,200.8z"/>
		<path fill="#0A5995" d="M187.1,197.1c0.3,0,0.5,0,0.7,0.1l-0.1,1.4c-0.2-0.1-0.4-0.1-0.7-0.1c-0.6,0-1.1,0.2-1.5,0.6
			c-0.4,0.4-0.6,0.9-0.6,1.5v3.7h-1.5v-7h1.2l0.2,1.2h0.1c0.2-0.4,0.5-0.8,0.9-1C186.3,197.3,186.7,197.1,187.1,197.1z"/>
		<path fill="#0A5995" d="M194.3,204.4c-0.9,0-1.6-0.3-2.1-1s-0.7-1.5-0.7-2.7c0-1.2,0.2-2,0.7-2.7c0.5-0.6,1.2-1,2.1-1
			c0.9,0,1.6,0.3,2.1,1h0.1c-0.1-0.5-0.1-0.9-0.1-1.2v-2.6h1.5v9.9h-1.2l-0.3-0.9h-0.1C195.9,204.1,195.2,204.4,194.3,204.4z
			 M194.7,203.2c0.6,0,1.1-0.2,1.3-0.5s0.4-0.9,0.4-1.7v-0.2c0-0.9-0.1-1.5-0.4-1.9s-0.7-0.6-1.4-0.6c-0.5,0-0.9,0.2-1.2,0.6
			c-0.3,0.4-0.4,1-0.4,1.8c0,0.8,0.1,1.4,0.4,1.8S194.1,203.2,194.7,203.2z"/>
		<path fill="#0A5995" d="M202.7,204.4c-1.1,0-1.9-0.3-2.6-1c-0.6-0.6-0.9-1.5-0.9-2.6c0-1.1,0.3-2,0.9-2.7c0.6-0.7,1.4-1,2.4-1
			c0.9,0,1.7,0.3,2.2,0.8c0.5,0.6,0.8,1.3,0.8,2.3v0.8h-4.7c0,0.7,0.2,1.2,0.6,1.6s0.8,0.5,1.5,0.5c0.4,0,0.8,0,1.2-0.1
			c0.4-0.1,0.7-0.2,1.2-0.4v1.2c-0.4,0.2-0.7,0.3-1.1,0.4C203.6,204.4,203.2,204.4,202.7,204.4z M202.5,198.3
			c-0.5,0-0.9,0.2-1.1,0.5c-0.3,0.3-0.5,0.7-0.5,1.3h3.2c0-0.6-0.1-1-0.4-1.3C203.3,198.4,202.9,198.3,202.5,198.3z"/>
		<path fill="#0A5995" d="M211.6,202.3c0,0.7-0.2,1.2-0.7,1.6s-1.2,0.5-2.1,0.5c-0.9,0-1.7-0.1-2.3-0.4v-1.3
			c0.8,0.4,1.6,0.6,2.3,0.6c0.9,0,1.4-0.3,1.4-0.8c0-0.2-0.1-0.3-0.2-0.4c-0.1-0.1-0.3-0.2-0.5-0.4s-0.6-0.3-1-0.4
			c-0.8-0.3-1.4-0.6-1.6-0.9c-0.3-0.3-0.4-0.7-0.4-1.2c0-0.6,0.2-1.1,0.7-1.4c0.5-0.3,1.1-0.5,2-0.5c0.8,0,1.6,0.2,2.3,0.5l-0.5,1.1
			c-0.8-0.3-1.4-0.5-1.9-0.5c-0.8,0-1.2,0.2-1.2,0.7c0,0.2,0.1,0.4,0.3,0.6c0.2,0.2,0.7,0.4,1.3,0.6c0.6,0.2,1,0.4,1.3,0.6
			s0.5,0.4,0.6,0.6S211.6,202,211.6,202.3z"/>
		<path fill="#0A5995" d="M215.7,204.4c-1.1,0-1.9-0.3-2.4-0.9c-0.6-0.6-0.8-1.5-0.8-2.7c0-1.2,0.3-2.1,0.9-2.7c0.6-0.6,1.4-1,2.5-1
			c0.7,0,1.4,0.1,2,0.4l-0.5,1.2c-0.6-0.2-1.2-0.4-1.6-0.4c-1.2,0-1.8,0.8-1.8,2.4c0,0.8,0.2,1.4,0.5,1.8c0.3,0.4,0.7,0.6,1.3,0.6
			c0.7,0,1.3-0.2,1.9-0.5v1.3c-0.3,0.2-0.6,0.3-0.9,0.3C216.5,204.4,216.1,204.4,215.7,204.4z"/>
		<path fill="#0A5995" d="M222.5,197.1c0.3,0,0.5,0,0.7,0.1l-0.1,1.4c-0.2-0.1-0.4-0.1-0.7-0.1c-0.6,0-1.1,0.2-1.5,0.6
			c-0.4,0.4-0.6,0.9-0.6,1.5v3.7H219v-7h1.2l0.2,1.2h0.1c0.2-0.4,0.5-0.8,0.9-1C221.7,197.3,222.1,197.1,222.5,197.1z"/>
		<path fill="#0A5995" d="M224.2,195.4c0-0.3,0.1-0.5,0.2-0.6c0.1-0.1,0.4-0.2,0.6-0.2c0.3,0,0.5,0.1,0.6,0.2
			c0.1,0.1,0.2,0.3,0.2,0.6c0,0.3-0.1,0.5-0.2,0.6c-0.1,0.1-0.4,0.2-0.6,0.2c-0.3,0-0.5-0.1-0.6-0.2
			C224.2,195.9,224.2,195.7,224.2,195.4z M225.7,204.3h-1.5v-7h1.5V204.3z"/>
		<path fill="#0A5995" d="M231.1,204.4c-0.9,0-1.6-0.3-2.1-1h-0.1c0.1,0.6,0.1,1,0.1,1.1v2.9h-1.5v-10.1h1.2c0,0.1,0.1,0.4,0.2,0.9
			h0.1c0.5-0.7,1.2-1.1,2.1-1.1c0.9,0,1.6,0.3,2,1c0.5,0.6,0.7,1.5,0.7,2.7c0,1.1-0.2,2-0.7,2.7C232.7,204.1,232,204.4,231.1,204.4z
			 M230.7,198.4c-0.6,0-1,0.2-1.3,0.5c-0.3,0.3-0.4,0.9-0.4,1.7v0.2c0,0.9,0.1,1.5,0.4,1.9s0.7,0.6,1.3,0.6c0.5,0,0.9-0.2,1.2-0.6
			s0.4-1,0.4-1.8c0-0.8-0.1-1.4-0.4-1.8C231.7,198.6,231.3,198.4,230.7,198.4z"/>
		<path fill="#0A5995" d="M237.9,203.2c0.4,0,0.7-0.1,1.1-0.2v1.1c-0.2,0.1-0.4,0.1-0.6,0.2c-0.3,0-0.5,0.1-0.8,0.1
			c-1.4,0-2.1-0.7-2.1-2.2v-3.8h-1v-0.7l1-0.5l0.5-1.5h0.9v1.6h2v1.1h-2v3.8c0,0.4,0.1,0.6,0.3,0.8
			C237.4,203.1,237.6,203.2,237.9,203.2z"/>
		<path fill="#0A5995" d="M240,195.4c0-0.3,0.1-0.5,0.2-0.6c0.1-0.1,0.4-0.2,0.6-0.2c0.3,0,0.5,0.1,0.6,0.2c0.1,0.1,0.2,0.3,0.2,0.6
			c0,0.3-0.1,0.5-0.2,0.6c-0.1,0.1-0.4,0.2-0.6,0.2c-0.3,0-0.5-0.1-0.6-0.2C240.1,195.9,240,195.7,240,195.4z M241.6,204.3h-1.5v-7
			h1.5V204.3z"/>
		<path fill="#0A5995" d="M249.6,200.8c0,1.1-0.3,2-0.9,2.7s-1.4,1-2.5,1c-0.7,0-1.2-0.1-1.7-0.4s-0.9-0.7-1.2-1.3
			c-0.3-0.6-0.4-1.2-0.4-1.9c0-1.1,0.3-2,0.9-2.7c0.6-0.6,1.4-1,2.5-1c1,0,1.8,0.3,2.4,1C249.3,198.8,249.6,199.7,249.6,200.8z
			 M244.5,200.8c0,1.6,0.6,2.4,1.8,2.4c1.2,0,1.8-0.8,1.8-2.4c0-1.6-0.6-2.4-1.8-2.4c-0.6,0-1.1,0.2-1.4,0.6
			C244.7,199.4,244.5,200,244.5,200.8z"/>
		<path fill="#0A5995" d="M257.2,204.3h-1.5V200c0-0.5-0.1-0.9-0.3-1.2c-0.2-0.3-0.6-0.4-1-0.4c-0.6,0-1.1,0.2-1.4,0.6
			s-0.4,1-0.4,1.9v3.5H251v-7h1.2l0.2,0.9h0.1c0.2-0.3,0.5-0.6,0.9-0.8c0.4-0.2,0.8-0.3,1.3-0.3c1.7,0,2.5,0.9,2.5,2.6V204.3z"/>
		<path fill="#0A5995" d="M263.7,202.3c0,0.7-0.2,1.2-0.7,1.6s-1.2,0.5-2.1,0.5c-0.9,0-1.7-0.1-2.3-0.4v-1.3
			c0.8,0.4,1.6,0.6,2.3,0.6c0.9,0,1.4-0.3,1.4-0.8c0-0.2-0.1-0.3-0.2-0.4c-0.1-0.1-0.3-0.2-0.5-0.4s-0.6-0.3-1-0.4
			c-0.8-0.3-1.4-0.6-1.6-0.9c-0.3-0.3-0.4-0.7-0.4-1.2c0-0.6,0.2-1.1,0.7-1.4c0.5-0.3,1.1-0.5,2-0.5c0.8,0,1.6,0.2,2.3,0.5l-0.5,1.1
			c-0.8-0.3-1.4-0.5-1.9-0.5c-0.8,0-1.2,0.2-1.2,0.7c0,0.2,0.1,0.4,0.3,0.6c0.2,0.2,0.7,0.4,1.3,0.6c0.6,0.2,1,0.4,1.3,0.6
			s0.5,0.4,0.6,0.6S263.7,202,263.7,202.3z"/>
		<path fill="#0A5995" d="M266.5,202.9c-0.2,0.8-0.6,1.8-1.1,3h-1.1c0.3-1.1,0.5-2.2,0.7-3.2h1.5L266.5,202.9z"/>
		<path fill="#0A5995" d="M272.6,204.3h-1.5v-9.9h1.5V204.3z"/>
		<path fill="#0A5995" d="M280.7,200.8c0,1.1-0.3,2-0.9,2.7s-1.4,1-2.5,1c-0.7,0-1.2-0.1-1.7-0.4s-0.9-0.7-1.2-1.3
			c-0.3-0.6-0.4-1.2-0.4-1.9c0-1.1,0.3-2,0.9-2.7c0.6-0.6,1.4-1,2.5-1c1,0,1.8,0.3,2.4,1C280.4,198.8,280.7,199.7,280.7,200.8z
			 M275.6,200.8c0,1.6,0.6,2.4,1.8,2.4c1.2,0,1.8-0.8,1.8-2.4c0-1.6-0.6-2.4-1.8-2.4c-0.6,0-1.1,0.2-1.4,0.6
			C275.7,199.4,275.6,200,275.6,200.8z"/>
		<path fill="#0A5995" d="M285.6,197.1c0.3,0,0.5,0,0.7,0.1l-0.1,1.4c-0.2-0.1-0.4-0.1-0.7-0.1c-0.6,0-1.1,0.2-1.5,0.6
			c-0.4,0.4-0.6,0.9-0.6,1.5v3.7h-1.5v-7h1.2l0.2,1.2h0.1c0.2-0.4,0.5-0.8,0.9-1C284.8,197.3,285.2,197.1,285.6,197.1z"/>
		<path fill="#0A5995" d="M290.4,204.4c-1.1,0-1.9-0.3-2.6-1c-0.6-0.6-0.9-1.5-0.9-2.6c0-1.1,0.3-2,0.9-2.7c0.6-0.7,1.4-1,2.4-1
			c0.9,0,1.7,0.3,2.2,0.8c0.5,0.6,0.8,1.3,0.8,2.3v0.8h-4.7c0,0.7,0.2,1.2,0.6,1.6s0.8,0.5,1.5,0.5c0.4,0,0.8,0,1.2-0.1
			c0.4-0.1,0.7-0.2,1.2-0.4v1.2c-0.4,0.2-0.7,0.3-1.1,0.4C291.3,204.4,290.9,204.4,290.4,204.4z M290.1,198.3
			c-0.5,0-0.9,0.2-1.1,0.5c-0.3,0.3-0.5,0.7-0.5,1.3h3.2c0-0.6-0.1-1-0.4-1.3C291,198.4,290.6,198.3,290.1,198.3z"/>
		<path fill="#0A5995" d="M300.4,204.3h-1.5V200c0-0.5-0.1-0.9-0.3-1.2s-0.5-0.4-1-0.4c-0.6,0-1,0.2-1.3,0.6c-0.3,0.4-0.4,1-0.4,1.9
			v3.5h-1.5v-7h1.2l0.2,0.9h0.1c0.2-0.3,0.5-0.6,0.8-0.8c0.4-0.2,0.8-0.3,1.2-0.3c1.1,0,1.8,0.4,2.1,1.1h0.1
			c0.2-0.3,0.5-0.6,0.9-0.8s0.8-0.3,1.3-0.3c0.8,0,1.4,0.2,1.8,0.6c0.4,0.4,0.6,1.1,0.6,1.9v4.6h-1.5V200c0-0.5-0.1-0.9-0.3-1.2
			c-0.2-0.3-0.5-0.4-1-0.4c-0.6,0-1,0.2-1.3,0.5c-0.3,0.4-0.4,0.9-0.4,1.7V204.3z"/>
		<path fill="#0A5995" d="M309.6,195.4c0-0.3,0.1-0.5,0.2-0.6c0.1-0.1,0.4-0.2,0.6-0.2c0.3,0,0.5,0.1,0.6,0.2
			c0.1,0.1,0.2,0.3,0.2,0.6c0,0.3-0.1,0.5-0.2,0.6c-0.1,0.1-0.4,0.2-0.6,0.2c-0.3,0-0.5-0.1-0.6-0.2
			C309.6,195.9,309.6,195.7,309.6,195.4z M311.2,204.3h-1.5v-7h1.5V204.3z"/>
		<path fill="#0A5995" d="M316.5,204.4c-0.9,0-1.6-0.3-2.1-1h-0.1c0.1,0.6,0.1,1,0.1,1.1v2.9H313v-10.1h1.2c0,0.1,0.1,0.4,0.2,0.9
			h0.1c0.5-0.7,1.2-1.1,2.1-1.1c0.9,0,1.6,0.3,2,1c0.5,0.6,0.7,1.5,0.7,2.7c0,1.1-0.2,2-0.7,2.7
			C318.1,204.1,317.4,204.4,316.5,204.4z M316.2,198.4c-0.6,0-1,0.2-1.3,0.5c-0.3,0.3-0.4,0.9-0.4,1.7v0.2c0,0.9,0.1,1.5,0.4,1.9
			s0.7,0.6,1.3,0.6c0.5,0,0.9-0.2,1.2-0.6s0.4-1,0.4-1.8c0-0.8-0.1-1.4-0.4-1.8C317.1,198.6,316.7,198.4,316.2,198.4z"/>
		<path fill="#0A5995" d="M325.5,202.3c0,0.7-0.2,1.2-0.7,1.6s-1.2,0.5-2.1,0.5c-0.9,0-1.7-0.1-2.3-0.4v-1.3
			c0.8,0.4,1.6,0.6,2.3,0.6c0.9,0,1.4-0.3,1.4-0.8c0-0.2-0.1-0.3-0.2-0.4c-0.1-0.1-0.3-0.2-0.5-0.4s-0.6-0.3-1-0.4
			c-0.8-0.3-1.4-0.6-1.6-0.9c-0.3-0.3-0.4-0.7-0.4-1.2c0-0.6,0.2-1.1,0.7-1.4c0.5-0.3,1.1-0.5,2-0.5c0.8,0,1.6,0.2,2.3,0.5l-0.5,1.1
			c-0.8-0.3-1.4-0.5-1.9-0.5c-0.8,0-1.2,0.2-1.2,0.7c0,0.2,0.1,0.4,0.3,0.6c0.2,0.2,0.7,0.4,1.3,0.6c0.6,0.2,1,0.4,1.3,0.6
			s0.5,0.4,0.6,0.6S325.5,202,325.5,202.3z"/>
		<path fill="#0A5995" d="M331.7,204.3l-0.2-0.9h-0.1c-0.2,0.3-0.5,0.6-0.9,0.8c-0.4,0.2-0.8,0.3-1.3,0.3c-0.9,0-1.5-0.2-1.9-0.6
			s-0.6-1.1-0.6-1.9v-4.6h1.5v4.3c0,0.5,0.1,0.9,0.3,1.2s0.6,0.4,1,0.4c0.6,0,1.1-0.2,1.4-0.6c0.3-0.4,0.4-1,0.4-1.9v-3.5h1.5v7
			H331.7z"/>
		<path fill="#0A5995" d="M340.6,204.3h-1.5V200c0-0.5-0.1-0.9-0.3-1.2s-0.5-0.4-1-0.4c-0.6,0-1,0.2-1.3,0.6c-0.3,0.4-0.4,1-0.4,1.9
			v3.5h-1.5v-7h1.2l0.2,0.9h0.1c0.2-0.3,0.5-0.6,0.8-0.8c0.4-0.2,0.8-0.3,1.2-0.3c1.1,0,1.8,0.4,2.1,1.1h0.1
			c0.2-0.3,0.5-0.6,0.9-0.8s0.8-0.3,1.3-0.3c0.8,0,1.4,0.2,1.8,0.6c0.4,0.4,0.6,1.1,0.6,1.9v4.6h-1.5V200c0-0.5-0.1-0.9-0.3-1.2
			c-0.2-0.3-0.5-0.4-1-0.4c-0.6,0-1,0.2-1.3,0.5c-0.3,0.4-0.4,0.9-0.4,1.7V204.3z"/>
		<path fill="#0A5995" d="M352.2,204.4c-0.9,0-1.6-0.3-2.1-1s-0.7-1.5-0.7-2.7c0-1.2,0.2-2,0.7-2.7c0.5-0.6,1.2-1,2.1-1
			c0.9,0,1.6,0.3,2.1,1h0.1c-0.1-0.5-0.1-0.9-0.1-1.2v-2.6h1.5v9.9h-1.2l-0.3-0.9h-0.1C353.8,204.1,353.1,204.4,352.2,204.4z
			 M352.6,203.2c0.6,0,1.1-0.2,1.3-0.5s0.4-0.9,0.4-1.7v-0.2c0-0.9-0.1-1.5-0.4-1.9s-0.7-0.6-1.4-0.6c-0.5,0-0.9,0.2-1.2,0.6
			c-0.3,0.4-0.4,1-0.4,1.8c0,0.8,0.1,1.4,0.4,1.8S352,203.2,352.6,203.2z"/>
		<path fill="#0A5995" d="M363.8,200.8c0,1.1-0.3,2-0.9,2.7s-1.4,1-2.5,1c-0.7,0-1.2-0.1-1.7-0.4s-0.9-0.7-1.2-1.3
			c-0.3-0.6-0.4-1.2-0.4-1.9c0-1.1,0.3-2,0.9-2.7c0.6-0.6,1.4-1,2.5-1c1,0,1.8,0.3,2.4,1C363.5,198.8,363.8,199.7,363.8,200.8z
			 M358.7,200.8c0,1.6,0.6,2.4,1.8,2.4c1.2,0,1.8-0.8,1.8-2.4c0-1.6-0.6-2.4-1.8-2.4c-0.6,0-1.1,0.2-1.4,0.6
			C358.9,199.4,358.7,200,358.7,200.8z"/>
		<path fill="#0A5995" d="M366.7,204.3h-1.5v-9.9h1.5V204.3z"/>
		<path fill="#0A5995" d="M374.7,200.8c0,1.1-0.3,2-0.9,2.7s-1.4,1-2.5,1c-0.7,0-1.2-0.1-1.7-0.4s-0.9-0.7-1.2-1.3
			c-0.3-0.6-0.4-1.2-0.4-1.9c0-1.1,0.3-2,0.9-2.7c0.6-0.6,1.4-1,2.5-1c1,0,1.8,0.3,2.4,1C374.4,198.8,374.7,199.7,374.7,200.8z
			 M369.6,200.8c0,1.6,0.6,2.4,1.8,2.4c1.2,0,1.8-0.8,1.8-2.4c0-1.6-0.6-2.4-1.8-2.4c-0.6,0-1.1,0.2-1.4,0.6
			C369.8,199.4,369.6,200,369.6,200.8z"/>
		<path fill="#0A5995" d="M379.7,197.1c0.3,0,0.5,0,0.7,0.1l-0.1,1.4c-0.2-0.1-0.4-0.1-0.7-0.1c-0.6,0-1.1,0.2-1.5,0.6
			c-0.4,0.4-0.6,0.9-0.6,1.5v3.7h-1.5v-7h1.2l0.2,1.2h0.1c0.2-0.4,0.5-0.8,0.9-1C378.9,197.3,379.3,197.1,379.7,197.1z"/>
		<path fill="#0A5995" d="M389.2,202.3c0,0.7-0.2,1.2-0.7,1.6s-1.2,0.5-2.1,0.5c-0.9,0-1.7-0.1-2.3-0.4v-1.3
			c0.8,0.4,1.6,0.6,2.3,0.6c0.9,0,1.4-0.3,1.4-0.8c0-0.2-0.1-0.3-0.2-0.4c-0.1-0.1-0.3-0.2-0.5-0.4s-0.6-0.3-1-0.4
			c-0.8-0.3-1.4-0.6-1.6-0.9c-0.3-0.3-0.4-0.7-0.4-1.2c0-0.6,0.2-1.1,0.7-1.4c0.5-0.3,1.1-0.5,2-0.5c0.8,0,1.6,0.2,2.3,0.5l-0.5,1.1
			c-0.8-0.3-1.4-0.5-1.9-0.5c-0.8,0-1.2,0.2-1.2,0.7c0,0.2,0.1,0.4,0.3,0.6c0.2,0.2,0.7,0.4,1.3,0.6c0.6,0.2,1,0.4,1.3,0.6
			s0.5,0.4,0.6,0.6S389.2,202,389.2,202.3z"/>
		<path fill="#0A5995" d="M390.4,195.4c0-0.3,0.1-0.5,0.2-0.6c0.1-0.1,0.4-0.2,0.6-0.2c0.3,0,0.5,0.1,0.6,0.2
			c0.1,0.1,0.2,0.3,0.2,0.6c0,0.3-0.1,0.5-0.2,0.6c-0.1,0.1-0.4,0.2-0.6,0.2c-0.3,0-0.5-0.1-0.6-0.2
			C390.4,195.9,390.4,195.7,390.4,195.4z M392,204.3h-1.5v-7h1.5V204.3z"/>
		<path fill="#0A5995" d="M396.4,203.2c0.4,0,0.7-0.1,1.1-0.2v1.1c-0.2,0.1-0.4,0.1-0.6,0.2c-0.3,0-0.5,0.1-0.8,0.1
			c-1.4,0-2.1-0.7-2.1-2.2v-3.8h-1v-0.7l1-0.5l0.5-1.5h0.9v1.6h2v1.1h-2v3.8c0,0.4,0.1,0.6,0.3,0.8
			C395.8,203.1,396.1,203.2,396.4,203.2z"/>
		<path fill="#0A5995" d="M406,204.3l-0.3-1h-0.1c-0.3,0.4-0.7,0.7-1,0.9s-0.8,0.2-1.3,0.2c-0.7,0-1.2-0.2-1.6-0.6
			c-0.4-0.4-0.6-0.9-0.6-1.6c0-0.7,0.3-1.3,0.8-1.6c0.5-0.4,1.4-0.6,2.5-0.6l1.2,0v-0.4c0-0.4-0.1-0.8-0.3-1c-0.2-0.2-0.5-0.3-1-0.3
			c-0.4,0-0.7,0.1-1,0.2c-0.3,0.1-0.6,0.2-1,0.4l-0.5-1.1c0.4-0.2,0.8-0.4,1.3-0.5s0.9-0.2,1.3-0.2c0.9,0,1.6,0.2,2,0.6
			c0.5,0.4,0.7,1,0.7,1.8v4.7H406z M403.8,203.3c0.5,0,1-0.2,1.3-0.5c0.3-0.3,0.5-0.7,0.5-1.3v-0.6l-0.9,0c-0.7,0-1.2,0.1-1.5,0.4
			c-0.3,0.2-0.5,0.5-0.5,1c0,0.3,0.1,0.6,0.3,0.7C403.1,203.2,403.4,203.3,403.8,203.3z"/>
		<path fill="#0A5995" d="M414.7,204.3h-1.5V200c0-0.5-0.1-0.9-0.3-1.2s-0.5-0.4-1-0.4c-0.6,0-1,0.2-1.3,0.6c-0.3,0.4-0.4,1-0.4,1.9
			v3.5h-1.5v-7h1.2l0.2,0.9h0.1c0.2-0.3,0.5-0.6,0.8-0.8c0.4-0.2,0.8-0.3,1.2-0.3c1.1,0,1.8,0.4,2.1,1.1h0.1
			c0.2-0.3,0.5-0.6,0.9-0.8s0.8-0.3,1.3-0.3c0.8,0,1.4,0.2,1.8,0.6c0.4,0.4,0.6,1.1,0.6,1.9v4.6h-1.5V200c0-0.5-0.1-0.9-0.3-1.2
			c-0.2-0.3-0.5-0.4-1-0.4c-0.6,0-1,0.2-1.3,0.5c-0.3,0.4-0.4,0.9-0.4,1.7V204.3z"/>
		<path fill="#0A5995" d="M424,204.4c-1.1,0-1.9-0.3-2.6-1c-0.6-0.6-0.9-1.5-0.9-2.6c0-1.1,0.3-2,0.9-2.7c0.6-0.7,1.4-1,2.4-1
			c0.9,0,1.7,0.3,2.2,0.8c0.5,0.6,0.8,1.3,0.8,2.3v0.8H422c0,0.7,0.2,1.2,0.6,1.6s0.8,0.5,1.5,0.5c0.4,0,0.8,0,1.2-0.1
			c0.4-0.1,0.7-0.2,1.2-0.4v1.2c-0.4,0.2-0.7,0.3-1.1,0.4C424.9,204.4,424.5,204.4,424,204.4z M423.7,198.3c-0.5,0-0.9,0.2-1.1,0.5
			c-0.3,0.3-0.5,0.7-0.5,1.3h3.2c0-0.6-0.1-1-0.4-1.3C424.6,198.4,424.2,198.3,423.7,198.3z"/>
		<path fill="#0A5995" d="M430.7,203.2c0.4,0,0.7-0.1,1.1-0.2v1.1c-0.2,0.1-0.4,0.1-0.6,0.2c-0.3,0-0.5,0.1-0.8,0.1
			c-1.4,0-2.1-0.7-2.1-2.2v-3.8h-1v-0.7l1-0.5l0.5-1.5h0.9v1.6h2v1.1h-2v3.8c0,0.4,0.1,0.6,0.3,0.8
			C430.2,203.1,430.4,203.2,430.7,203.2z"/>
		<path fill="#0A5995" d="M438.8,204.4c-1.1,0-1.9-0.3-2.4-0.9c-0.6-0.6-0.8-1.5-0.8-2.7c0-1.2,0.3-2.1,0.9-2.7c0.6-0.6,1.4-1,2.5-1
			c0.7,0,1.4,0.1,2,0.4l-0.5,1.2c-0.6-0.2-1.2-0.4-1.6-0.4c-1.2,0-1.8,0.8-1.8,2.4c0,0.8,0.2,1.4,0.5,1.8c0.3,0.4,0.7,0.6,1.3,0.6
			c0.7,0,1.3-0.2,1.9-0.5v1.3c-0.3,0.2-0.6,0.3-0.9,0.3C439.5,204.4,439.2,204.4,438.8,204.4z"/>
		<path fill="#0A5995" d="M448.3,200.8c0,1.1-0.3,2-0.9,2.7s-1.4,1-2.5,1c-0.7,0-1.2-0.1-1.7-0.4s-0.9-0.7-1.2-1.3
			c-0.3-0.6-0.4-1.2-0.4-1.9c0-1.1,0.3-2,0.9-2.7c0.6-0.6,1.4-1,2.5-1c1,0,1.8,0.3,2.4,1C448,198.8,448.3,199.7,448.3,200.8z
			 M443.1,200.8c0,1.6,0.6,2.4,1.8,2.4c1.2,0,1.8-0.8,1.8-2.4c0-1.6-0.6-2.4-1.8-2.4c-0.6,0-1.1,0.2-1.4,0.6
			C443.3,199.4,443.1,200,443.1,200.8z"/>
		<path fill="#0A5995" d="M455.8,204.3h-1.5V200c0-0.5-0.1-0.9-0.3-1.2c-0.2-0.3-0.6-0.4-1-0.4c-0.6,0-1.1,0.2-1.4,0.6
			s-0.4,1-0.4,1.9v3.5h-1.5v-7h1.2l0.2,0.9h0.1c0.2-0.3,0.5-0.6,0.9-0.8c0.4-0.2,0.8-0.3,1.3-0.3c1.7,0,2.5,0.9,2.5,2.6V204.3z"/>
		<path fill="#0A5995" d="M462.3,202.3c0,0.7-0.2,1.2-0.7,1.6s-1.2,0.5-2.1,0.5c-0.9,0-1.7-0.1-2.3-0.4v-1.3
			c0.8,0.4,1.6,0.6,2.3,0.6c0.9,0,1.4-0.3,1.4-0.8c0-0.2-0.1-0.3-0.2-0.4c-0.1-0.1-0.3-0.2-0.5-0.4s-0.6-0.3-1-0.4
			c-0.8-0.3-1.4-0.6-1.6-0.9c-0.3-0.3-0.4-0.7-0.4-1.2c0-0.6,0.2-1.1,0.7-1.4c0.5-0.3,1.1-0.5,2-0.5c0.8,0,1.6,0.2,2.3,0.5l-0.5,1.1
			c-0.8-0.3-1.4-0.5-1.9-0.5c-0.8,0-1.2,0.2-1.2,0.7c0,0.2,0.1,0.4,0.3,0.6c0.2,0.2,0.7,0.4,1.3,0.6c0.6,0.2,1,0.4,1.3,0.6
			s0.5,0.4,0.6,0.6S462.3,202,462.3,202.3z"/>
		<path fill="#0A5995" d="M466.6,204.4c-1.1,0-1.9-0.3-2.6-1c-0.6-0.6-0.9-1.5-0.9-2.6c0-1.1,0.3-2,0.9-2.7c0.6-0.7,1.4-1,2.4-1
			c0.9,0,1.7,0.3,2.2,0.8c0.5,0.6,0.8,1.3,0.8,2.3v0.8h-4.7c0,0.7,0.2,1.2,0.6,1.6s0.8,0.5,1.5,0.5c0.4,0,0.8,0,1.2-0.1
			c0.4-0.1,0.7-0.2,1.2-0.4v1.2c-0.4,0.2-0.7,0.3-1.1,0.4C467.5,204.4,467.1,204.4,466.6,204.4z M466.4,198.3
			c-0.5,0-0.9,0.2-1.1,0.5c-0.3,0.3-0.5,0.7-0.5,1.3h3.2c0-0.6-0.1-1-0.4-1.3C467.2,198.4,466.8,198.3,466.4,198.3z"/>
		<path fill="#0A5995" d="M473.6,204.4c-1.1,0-1.9-0.3-2.4-0.9c-0.6-0.6-0.8-1.5-0.8-2.7c0-1.2,0.3-2.1,0.9-2.7c0.6-0.6,1.4-1,2.5-1
			c0.7,0,1.4,0.1,2,0.4l-0.5,1.2c-0.6-0.2-1.2-0.4-1.6-0.4c-1.2,0-1.8,0.8-1.8,2.4c0,0.8,0.2,1.4,0.5,1.8c0.3,0.4,0.7,0.6,1.3,0.6
			c0.7,0,1.3-0.2,1.9-0.5v1.3c-0.3,0.2-0.6,0.3-0.9,0.3C474.4,204.4,474,204.4,473.6,204.4z"/>
		<path fill="#0A5995" d="M479.5,203.2c0.4,0,0.7-0.1,1.1-0.2v1.1c-0.2,0.1-0.4,0.1-0.6,0.2c-0.3,0-0.5,0.1-0.8,0.1
			c-1.4,0-2.1-0.7-2.1-2.2v-3.8h-1v-0.7l1-0.5l0.5-1.5h0.9v1.6h2v1.1h-2v3.8c0,0.4,0.1,0.6,0.3,0.8
			C478.9,203.1,479.2,203.2,479.5,203.2z"/>
		<path fill="#0A5995" d="M484.7,204.4c-1.1,0-1.9-0.3-2.6-1c-0.6-0.6-0.9-1.5-0.9-2.6c0-1.1,0.3-2,0.9-2.7c0.6-0.7,1.4-1,2.4-1
			c0.9,0,1.7,0.3,2.2,0.8c0.5,0.6,0.8,1.3,0.8,2.3v0.8h-4.7c0,0.7,0.2,1.2,0.6,1.6s0.8,0.5,1.5,0.5c0.4,0,0.8,0,1.2-0.1
			c0.4-0.1,0.7-0.2,1.2-0.4v1.2c-0.4,0.2-0.7,0.3-1.1,0.4C485.6,204.4,485.2,204.4,484.7,204.4z M484.4,198.3
			c-0.5,0-0.9,0.2-1.1,0.5c-0.3,0.3-0.5,0.7-0.5,1.3h3.2c0-0.6-0.1-1-0.4-1.3C485.3,198.4,484.9,198.3,484.4,198.3z"/>
		<path fill="#0A5995" d="M491.4,203.2c0.4,0,0.7-0.1,1.1-0.2v1.1c-0.2,0.1-0.4,0.1-0.6,0.2c-0.3,0-0.5,0.1-0.8,0.1
			c-1.4,0-2.1-0.7-2.1-2.2v-3.8h-1v-0.7l1-0.5l0.5-1.5h0.9v1.6h2v1.1h-2v3.8c0,0.4,0.1,0.6,0.3,0.8
			C490.9,203.1,491.1,203.2,491.4,203.2z"/>
		<path fill="#0A5995" d="M498.5,204.3l-0.2-0.9h-0.1c-0.2,0.3-0.5,0.6-0.9,0.8c-0.4,0.2-0.8,0.3-1.3,0.3c-0.9,0-1.5-0.2-1.9-0.6
			s-0.6-1.1-0.6-1.9v-4.6h1.5v4.3c0,0.5,0.1,0.9,0.3,1.2s0.6,0.4,1,0.4c0.6,0,1.1-0.2,1.4-0.6c0.3-0.4,0.4-1,0.4-1.9v-3.5h1.5v7
			H498.5z"/>
		<path fill="#0A5995" d="M505.1,197.1c0.3,0,0.5,0,0.7,0.1l-0.1,1.4c-0.2-0.1-0.4-0.1-0.7-0.1c-0.6,0-1.1,0.2-1.5,0.6
			c-0.4,0.4-0.6,0.9-0.6,1.5v3.7h-1.5v-7h1.2l0.2,1.2h0.1c0.2-0.4,0.5-0.8,0.9-1C504.2,197.3,504.6,197.1,505.1,197.1z"/>
		<path fill="#0A5995" d="M506.6,203.5c0-0.3,0.1-0.5,0.2-0.7c0.2-0.2,0.4-0.2,0.7-0.2c0.3,0,0.5,0.1,0.7,0.3
			c0.2,0.2,0.2,0.4,0.2,0.7c0,0.3-0.1,0.5-0.2,0.7c-0.2,0.2-0.4,0.3-0.7,0.3s-0.5-0.1-0.7-0.3S506.6,203.8,506.6,203.5z"/>
	</g>
</g>
<g id="Layer_2">
</g>
</svg>
