<?xml version="1.0" encoding="utf-8"?>
<!-- Generator: Adobe Illustrator 21.1.0, SVG Export Plug-In . SVG Version: 6.00 Build 0)  -->
<svg version="1.1" xmlns="http://www.w3.org/2000/svg" xmlns:xlink="http://www.w3.org/1999/xlink" x="0px" y="0px"
	 viewBox="0 0 600 279" enable-background="new 0 0 600 279" xml:space="preserve">
<g id="Layer_1">
	<g>
		<g>
			<rect y="-0.3" fill="#FFFFFF" width="600" height="279.2"/>
		</g>
		<g>
			<path fill="#0A5995" d="M160.1,92.1c0,2-0.6,3.6-1.9,4.6c-1.3,1.1-3.1,1.6-5.4,1.6h-1.7v6.7h-4V86.3h6c2.3,0,4,0.5,5.2,1.5
				C159.5,88.7,160.1,90.2,160.1,92.1z M151.1,95.1h1.3c1.2,0,2.1-0.2,2.7-0.7c0.6-0.5,0.9-1.2,0.9-2.1c0-0.9-0.3-1.6-0.8-2.1
				c-0.5-0.4-1.3-0.7-2.4-0.7h-1.8V95.1z"/>
			<path fill="#0A5995" d="M171.8,105l-0.8-1.9h-0.1c-0.7,0.8-1.3,1.4-2,1.7c-0.7,0.3-1.6,0.5-2.7,0.5c-1.4,0-2.5-0.4-3.2-1.2
				c-0.8-0.8-1.2-1.9-1.2-3.4c0-1.5,0.5-2.6,1.6-3.4c1.1-0.7,2.7-1.1,4.8-1.2l2.5-0.1v-0.6c0-1.5-0.7-2.2-2.2-2.2
				c-1.1,0-2.5,0.3-4,1l-1.3-2.6c1.6-0.9,3.5-1.3,5.5-1.3c1.9,0,3.4,0.4,4.4,1.3c1,0.8,1.5,2.1,1.5,3.8v9.5H171.8z M170.6,98.4
				l-1.5,0.1c-1.1,0-2,0.2-2.5,0.6c-0.6,0.4-0.8,0.9-0.8,1.7c0,1.1,0.6,1.7,1.9,1.7c0.9,0,1.6-0.3,2.2-0.8c0.5-0.5,0.8-1.2,0.8-2.1
				V98.4z"/>
			<path fill="#0A5995" d="M191.1,105h-3.9v-8.4c0-1-0.2-1.8-0.6-2.3s-1-0.8-1.8-0.8c-1.1,0-1.9,0.4-2.4,1.1
				c-0.5,0.7-0.7,1.9-0.7,3.6v6.7h-3.9V90.7h3l0.5,1.8h0.2c0.4-0.7,1-1.2,1.8-1.6c0.8-0.4,1.6-0.5,2.6-0.5c1.7,0,2.9,0.5,3.8,1.4
				c0.9,0.9,1.3,2.2,1.3,3.9V105z"/>
			<path fill="#0A5995" d="M200.9,105.3c-2.3,0-4.1-0.6-5.4-1.9s-1.9-3.1-1.9-5.4c0-2.4,0.6-4.3,1.8-5.6c1.2-1.3,2.9-2,5-2
				c2,0,3.6,0.6,4.7,1.7c1.1,1.2,1.7,2.7,1.7,4.8v1.9h-9.2c0,1.1,0.4,2,1,2.6s1.5,0.9,2.6,0.9c0.9,0,1.7-0.1,2.4-0.3
				c0.8-0.2,1.6-0.5,2.4-0.9v3c-0.7,0.3-1.4,0.6-2.2,0.8C203,105.2,202,105.3,200.9,105.3z M200.4,93.2c-0.8,0-1.5,0.3-1.9,0.8
				c-0.5,0.5-0.7,1.3-0.8,2.2h5.5c0-1-0.3-1.7-0.8-2.2C201.9,93.5,201.2,93.2,200.4,93.2z"/>
			<path fill="#0A5995" d="M213.2,105h-3.9V85.1h3.9V105z"/>
			<path fill="#0A5995" d="M230.3,105h-4V89.6h-5.1v-3.3h14.1v3.3h-5.1V105z"/>
			<path fill="#0A5995" d="M237.2,87c0-1.3,0.7-1.9,2.1-1.9s2.1,0.6,2.1,1.9c0,0.6-0.2,1.1-0.5,1.4c-0.4,0.3-0.9,0.5-1.6,0.5
				C237.9,88.9,237.2,88.3,237.2,87z M241.2,105h-3.9V90.7h3.9V105z"/>
			<path fill="#0A5995" d="M250.7,102.1c0.7,0,1.5-0.1,2.5-0.4v2.9c-1,0.4-2.2,0.7-3.6,0.7c-1.6,0-2.7-0.4-3.4-1.2s-1.1-2-1.1-3.6
				v-6.9h-1.9V92l2.2-1.3l1.1-3h2.5v3h4v2.9h-4v6.9c0,0.6,0.2,1,0.5,1.2C249.8,102,250.2,102.1,250.7,102.1z"/>
			<path fill="#0A5995" d="M259.3,105h-3.9V85.1h3.9V105z"/>
			<path fill="#0A5995" d="M269.2,105.3c-2.3,0-4.1-0.6-5.4-1.9s-1.9-3.1-1.9-5.4c0-2.4,0.6-4.3,1.8-5.6c1.2-1.3,2.9-2,5-2
				c2,0,3.6,0.6,4.7,1.7c1.1,1.2,1.7,2.7,1.7,4.8v1.9h-9.2c0,1.1,0.4,2,1,2.6s1.5,0.9,2.6,0.9c0.9,0,1.7-0.1,2.4-0.3
				c0.8-0.2,1.6-0.5,2.4-0.9v3c-0.7,0.3-1.4,0.6-2.2,0.8C271.3,105.2,270.3,105.3,269.2,105.3z M268.7,93.2c-0.8,0-1.5,0.3-1.9,0.8
				c-0.5,0.5-0.7,1.3-0.8,2.2h5.5c0-1-0.3-1.7-0.8-2.2C270.2,93.5,269.5,93.2,268.7,93.2z"/>
			<path fill="#0A5995" d="M288,105h-3.9V86.3h10.7v3.3H288v4.8h6.4v3.2H288V105z"/>
			<path fill="#0A5995" d="M310.5,97.8c0,2.3-0.6,4.2-1.8,5.5c-1.2,1.3-2.9,2-5.1,2c-1.4,0-2.6-0.3-3.6-0.9c-1-0.6-1.9-1.5-2.4-2.6
				c-0.6-1.1-0.8-2.4-0.8-3.9c0-2.3,0.6-4.2,1.8-5.5c1.2-1.3,2.9-1.9,5.1-1.9c1.4,0,2.6,0.3,3.6,0.9c1,0.6,1.9,1.5,2.4,2.6
				C310.2,95,310.5,96.3,310.5,97.8z M300.6,97.8c0,1.4,0.2,2.5,0.7,3.2c0.5,0.7,1.2,1.1,2.3,1.1c1,0,1.8-0.4,2.2-1.1
				s0.7-1.8,0.7-3.2c0-1.4-0.2-2.5-0.7-3.2c-0.5-0.7-1.2-1.1-2.3-1.1c-1,0-1.8,0.4-2.3,1.1S300.6,96.4,300.6,97.8z"/>
			<path fill="#0A5995" d="M321.1,90.4c0.5,0,1,0,1.3,0.1l-0.3,3.7c-0.3-0.1-0.7-0.1-1.2-0.1c-1.2,0-2.2,0.3-2.9,1
				c-0.7,0.6-1,1.5-1,2.7v7.3h-3.9V90.7h3l0.6,2.4h0.2c0.4-0.8,1-1.4,1.8-1.9C319.4,90.7,320.2,90.4,321.1,90.4z"/>
			<path fill="#0A5995" d="M346.1,105h-4v-8.1h-7.4v8.1h-4V86.3h4v7.3h7.4v-7.3h4V105z"/>
			<path fill="#0A5995" d="M356.4,105.3c-2.3,0-4.1-0.6-5.4-1.9s-1.9-3.1-1.9-5.4c0-2.4,0.6-4.3,1.8-5.6c1.2-1.3,2.9-2,5-2
				c2,0,3.6,0.6,4.7,1.7c1.1,1.2,1.7,2.7,1.7,4.8v1.9H353c0,1.1,0.4,2,1,2.6c0.6,0.6,1.5,0.9,2.6,0.9c0.9,0,1.7-0.1,2.4-0.3
				c0.8-0.2,1.6-0.5,2.4-0.9v3c-0.7,0.3-1.4,0.6-2.2,0.8C358.4,105.2,357.5,105.3,356.4,105.3z M355.8,93.2c-0.8,0-1.5,0.3-1.9,0.8
				c-0.5,0.5-0.7,1.3-0.8,2.2h5.5c0-1-0.3-1.7-0.8-2.2S356.7,93.2,355.8,93.2z"/>
			<path fill="#0A5995" d="M373.8,105l-0.8-1.9H373c-0.7,0.8-1.3,1.4-2,1.7c-0.7,0.3-1.6,0.5-2.7,0.5c-1.4,0-2.5-0.4-3.2-1.2
				c-0.8-0.8-1.2-1.9-1.2-3.4c0-1.5,0.5-2.6,1.6-3.4s2.7-1.1,4.8-1.2l2.5-0.1v-0.6c0-1.5-0.7-2.2-2.2-2.2c-1.1,0-2.5,0.3-4,1
				l-1.3-2.6c1.6-0.9,3.5-1.3,5.5-1.3c1.9,0,3.4,0.4,4.4,1.3c1,0.8,1.5,2.1,1.5,3.8v9.5H373.8z M372.7,98.4l-1.5,0.1
				c-1.1,0-2,0.2-2.5,0.6c-0.6,0.4-0.8,0.9-0.8,1.7c0,1.1,0.6,1.7,1.9,1.7c0.9,0,1.6-0.3,2.2-0.8c0.5-0.5,0.8-1.2,0.8-2.1V98.4z"/>
			<path fill="#0A5995" d="M384.5,105.3c-1.7,0-3-0.7-4-2c-1-1.3-1.4-3.1-1.4-5.4c0-2.3,0.5-4.2,1.5-5.5s2.3-2,4-2
				c1.8,0,3.2,0.7,4.1,2.1h0.1c-0.2-1.1-0.3-2-0.3-2.9v-4.6h3.9V105h-3l-0.8-1.9h-0.2C387.6,104.6,386.3,105.3,384.5,105.3z
				 M385.8,102.1c1,0,1.7-0.3,2.2-0.9c0.5-0.6,0.7-1.6,0.8-3v-0.4c0-1.5-0.2-2.6-0.7-3.3s-1.2-1-2.3-1c-0.9,0-1.5,0.4-2,1.1
				c-0.5,0.7-0.7,1.8-0.7,3.2s0.2,2.5,0.7,3.2C384.2,101.8,384.9,102.1,385.8,102.1z"/>
			<path fill="#0A5995" d="M399.8,105h-3.9V85.1h3.9V105z"/>
			<path fill="#0A5995" d="M403.1,87c0-1.3,0.7-1.9,2.1-1.9c1.4,0,2.1,0.6,2.1,1.9c0,0.6-0.2,1.1-0.5,1.4s-0.9,0.5-1.6,0.5
				C403.8,88.9,403.1,88.3,403.1,87z M407.1,105h-3.9V90.7h3.9V105z"/>
			<path fill="#0A5995" d="M423.8,105h-3.9v-8.4c0-1-0.2-1.8-0.6-2.3s-1-0.8-1.8-0.8c-1.1,0-1.9,0.4-2.4,1.1s-0.7,1.9-0.7,3.6v6.7
				h-3.9V90.7h3l0.5,1.8h0.2c0.4-0.7,1-1.2,1.8-1.6c0.8-0.4,1.6-0.5,2.6-0.5c1.7,0,2.9,0.5,3.8,1.4c0.9,0.9,1.3,2.2,1.3,3.9V105z"/>
			<path fill="#0A5995" d="M433.6,105.3c-2.3,0-4.1-0.6-5.4-1.9s-1.9-3.1-1.9-5.4c0-2.4,0.6-4.3,1.8-5.6s2.9-2,5-2
				c2,0,3.6,0.6,4.7,1.7s1.7,2.7,1.7,4.8v1.9h-9.2c0,1.1,0.4,2,1,2.6c0.6,0.6,1.5,0.9,2.6,0.9c0.9,0,1.7-0.1,2.4-0.3
				c0.8-0.2,1.6-0.5,2.4-0.9v3c-0.7,0.3-1.4,0.6-2.2,0.8C435.7,105.2,434.8,105.3,433.6,105.3z M433.1,93.2c-0.8,0-1.5,0.3-1.9,0.8
				s-0.7,1.3-0.8,2.2h5.5c0-1-0.3-1.7-0.8-2.2C434.6,93.5,433.9,93.2,433.1,93.2z"/>
			<path fill="#0A5995" d="M452,100.7c0,1.5-0.5,2.6-1.5,3.4s-2.5,1.2-4.6,1.2c-1,0-1.9-0.1-2.7-0.2s-1.4-0.3-2.1-0.6v-3.2
				c0.7,0.3,1.5,0.6,2.5,0.9c0.9,0.2,1.7,0.3,2.4,0.3c1.4,0,2.1-0.4,2.1-1.2c0-0.3-0.1-0.6-0.3-0.7s-0.5-0.4-1-0.7
				c-0.5-0.2-1.1-0.5-1.8-0.9c-1.1-0.5-1.9-0.9-2.4-1.3s-0.9-0.8-1.1-1.4c-0.2-0.5-0.4-1.1-0.4-1.9c0-1.3,0.5-2.3,1.5-3
				c1-0.7,2.4-1,4.2-1c1.7,0,3.4,0.4,5,1.1l-1.2,2.8c-0.7-0.3-1.4-0.6-2-0.8s-1.3-0.3-1.9-0.3c-1.2,0-1.7,0.3-1.7,0.9
				c0,0.4,0.2,0.7,0.6,0.9c0.4,0.3,1.2,0.6,2.4,1.1c1.1,0.5,1.9,0.9,2.5,1.3c0.5,0.4,0.9,0.8,1.2,1.4C451.9,99.4,452,100,452,100.7z
				"/>
		</g>
		<g>
			<g>
				<rect x="19" y="143.2" fill="#0A5995" width="130.7" height="50.6"/>
			</g>
		</g>
		<g>
			<g>
				<rect x="53.7" y="167.5" fill="#FFFFFF" width="46.6" height="2.7"/>
			</g>
		</g>
		<g>
			<g>
				<polygon fill="#FFFFFF" points="100.4,168.8 100.4,159.8 108.2,164.3 116,168.8 108.2,173.3 100.4,177.8 				"/>
			</g>
		</g>
		<g>
			<g>
				<rect x="163" y="143.2" fill="#0A5995" width="130.7" height="50.6"/>
			</g>
		</g>
		<g>
			<g>
				<rect x="197.7" y="167.5" fill="#FFFFFF" width="46.6" height="2.7"/>
			</g>
		</g>
		<g>
			<g>
				<polygon fill="#FFFFFF" points="244.4,168.8 244.4,159.8 252.2,164.3 260,168.8 252.2,173.3 244.4,177.8 				"/>
			</g>
		</g>
		<g>
			<g>
				<rect x="306" y="143.2" fill="#0A5995" width="130.7" height="50.6"/>
			</g>
		</g>
		<g>
			<g>
				<rect x="340.7" y="167.5" fill="#FFFFFF" width="46.6" height="2.7"/>
			</g>
		</g>
		<g>
			<g>
				<polygon fill="#FFFFFF" points="387.4,168.8 387.4,159.8 395.2,164.3 403,168.8 395.2,173.3 387.4,177.8 				"/>
			</g>
		</g>
		<g>
			<g>
				<rect x="449.7" y="143.2" fill="#0A5995" width="130.7" height="50.6"/>
			</g>
		</g>
		<g>
			<g>
				<rect x="484.4" y="167.5" fill="#FFFFFF" width="46.6" height="2.7"/>
			</g>
		</g>
		<g>
			<g>
				<polygon fill="#FFFFFF" points="531,168.8 531,159.8 538.8,164.3 546.6,168.8 538.8,173.3 531,177.8 				"/>
			</g>
		</g>
	</g>
</g>
<g id="Layer_2">
</g>
</svg>
