<svg width="70" height="50" viewBox="0 0 70 50" fill="none" xmlns="http://www.w3.org/2000/svg">
<rect width="70" height="50" fill="white"/>
<path fill-rule="evenodd" clip-rule="evenodd" d="M37 14C37 12.3431 38.3431 11 40 11H58C59.6569 11 61 12.3431 61 14V28C61 29.6569 59.6569 31 58 31H40C38.3431 31 37 29.6569 37 28V14ZM40 13C39.4477 13 39 13.4477 39 14V28C39 28.5523 39.4477 29 40 29H58C58.5523 29 59 28.5523 59 28V14C59 13.4477 58.5523 13 58 13H40ZM52.1892 17.018C52.4946 17.0769 52.7553 17.2745 52.8945 17.5528L56.8945 25.5528C57.0495 25.8628 57.0329 26.2309 56.8507 26.5257C56.6685 26.8205 56.3466 27 56 27H43C42.5849 27 42.2129 26.7435 42.0653 26.3554C41.9178 25.9673 42.0254 25.5284 42.3357 25.2526L51.3357 17.2526C51.5682 17.0459 51.8837 16.9592 52.1892 17.018ZM45.6302 25H54.382L51.6892 19.6143L45.6302 25ZM46 18C46 19.1046 45.1046 20 44 20C42.8954 20 42 19.1046 42 18C42 16.8954 42.8954 16 44 16C45.1046 16 46 16.8954 46 18Z" fill="black"/>
<path d="M37 38C37 37.4477 37.4477 37 38 37H54C54.5523 37 55 37.4477 55 38V38C55 38.5523 54.5523 39 54 39H38C37.4477 39 37 38.5523 37 38V38Z" fill="black"/>
<path d="M37 34C37 33.4477 37.4477 33 38 33H58C58.5523 33 59 33.4477 59 34V34C59 34.5523 58.5523 35 58 35H38C37.4477 35 37 34.5523 37 34V34Z" fill="black"/>
<path fill-rule="evenodd" clip-rule="evenodd" d="M9 14C9 12.3431 10.3431 11 12 11H30C31.6569 11 33 12.3431 33 14V28C33 29.6569 31.6569 31 30 31H12C10.3431 31 9 29.6569 9 28V14ZM12 13C11.4477 13 11 13.4477 11 14V28C11 28.5523 11.4477 29 12 29H30C30.5523 29 31 28.5523 31 28V14C31 13.4477 30.5523 13 30 13H12ZM24.1892 17.018C24.4946 17.0769 24.7553 17.2745 24.8945 17.5528L28.8945 25.5528C29.0495 25.8628 29.0329 26.2309 28.8507 26.5257C28.6685 26.8205 28.3466 27 28 27H15C14.5849 27 14.2129 26.7435 14.0653 26.3554C13.9178 25.9673 14.0254 25.5284 14.3357 25.2526L23.3357 17.2526C23.5682 17.0459 23.8837 16.9592 24.1892 17.018ZM17.6302 25H26.382L23.6892 19.6143L17.6302 25ZM18 18C18 19.1046 17.1046 20 16 20C14.8954 20 14 19.1046 14 18C14 16.8954 14.8954 16 16 16C17.1046 16 18 16.8954 18 18Z" fill="black"/>
<path d="M9 38C9 37.4477 9.44772 37 10 37H26C26.5523 37 27 37.4477 27 38V38C27 38.5523 26.5523 39 26 39H10C9.44772 39 9 38.5523 9 38V38Z" fill="black"/>
<path d="M9 34C9 33.4477 9.44772 33 10 33H30C30.5523 33 31 33.4477 31 34V34C31 34.5523 30.5523 35 30 35H10C9.44772 35 9 34.5523 9 34V34Z" fill="black"/>
</svg>
