<svg width="66" height="66" viewBox="0 0 66 66" fill="none" xmlns="http://www.w3.org/2000/svg">
<path d="M33 20.4883H60.9085" stroke="black" stroke-width="2.5" stroke-miterlimit="10"/>
<path d="M22.4552 38.9285L8.50098 14.5273" stroke="black" stroke-width="2.5" stroke-miterlimit="10"/>
<path d="M43.545 38.9287L29.5918 63.3298" stroke="black" stroke-width="2.5" stroke-miterlimit="10"/>
<path d="M32.9997 45.0748C39.7246 45.0748 45.1762 39.5709 45.1762 32.7816C45.1762 25.9922 39.7246 20.4883 32.9997 20.4883C26.2748 20.4883 20.8232 25.9922 20.8232 32.7816C20.8232 39.5709 26.2748 45.0748 32.9997 45.0748Z" stroke="black" stroke-width="2.5" stroke-miterlimit="10" stroke-linecap="square"/>
<path d="M32.9998 63.5152C49.812 63.5152 63.4409 49.7555 63.4409 32.782C63.4409 15.8085 49.812 2.04883 32.9998 2.04883C16.1876 2.04883 2.55859 15.8085 2.55859 32.782C2.55859 49.7555 16.1876 63.5152 32.9998 63.5152Z" stroke="black" stroke-width="2.5" stroke-miterlimit="10" stroke-linecap="square"/>
</svg>
