<svg width="64" height="64" viewBox="0 0 64 64" fill="none" xmlns="http://www.w3.org/2000/svg">
<path d="M41.2846 58.7879C38.8992 59.5438 36.3782 59.7731 33.8955 59.46C31.4129 59.147 29.0277 58.299 26.9046 56.9746L26.8833 56.9652C24.8404 55.6973 23.07 54.0357 21.6753 52.0772C18.7843 48.1165 17.5851 43.1695 18.3415 38.3246C19.0979 33.4797 21.7479 29.1336 25.7086 26.2426C26.5422 25.6319 27.4283 25.0965 28.3566 24.6426" stroke="black" stroke-width="2.5" stroke-miterlimit="10"/>
<path d="M2.69141 30.5283C2.80074 22.159 11.0914 15.4443 20.9901 15.4443C24.3295 15.479 27.618 16.2675 30.6101 17.751C33.5805 19.2261 36.0416 21.5562 37.6767 24.4417C38.7628 26.5038 39.3346 28.7977 39.3434 31.1283" stroke="black" stroke-width="2.5" stroke-miterlimit="10"/>
<path d="M37.5584 35.7644C37.3731 36.0044 36.8024 36.3364 36.8024 37.0604C36.8356 37.4032 36.9513 37.7329 37.1396 38.0212C37.3279 38.3096 37.5832 38.5481 37.8837 38.7164C41.1771 41.007 47.3877 40.7044 47.4037 40.7044C49.8443 40.699 52.2387 40.0387 54.3371 38.7924C56.4539 37.5564 58.2108 35.7883 59.4333 33.6637C60.6559 31.539 61.3016 29.1316 61.3064 26.6804C61.3293 23.1588 60.4341 19.692 58.7091 16.6217C53.8557 7.1337 43.3784 1.66703 31.9851 1.66703C24.273 1.65465 16.8682 4.68871 11.382 10.1089C5.89593 15.5291 2.77258 22.8967 2.69173 30.6084C2.67131 35.0348 3.6178 39.4124 5.46506 43.435C8.49024 49.9555 13.8163 55.1296 20.4216 57.9647C27.0269 60.7998 34.4465 61.0965 41.2571 58.7977C47.6732 56.6093 53.1573 52.3093 56.8131 46.6004C56.9225 46.4284 56.9715 46.2248 56.9522 46.0219C56.933 45.819 56.8465 45.6283 56.7067 45.48C56.5668 45.3317 56.3815 45.2343 56.18 45.2032C55.9785 45.1721 55.7725 45.2091 55.5944 45.3084C54.8126 45.7174 54.0061 46.0777 53.1797 46.387C50.5502 47.371 47.7647 47.8724 44.9571 47.867C34.1184 47.867 24.6757 40.411 24.6757 30.8444C24.6894 29.5609 25.0455 28.3044 25.7072 27.2047C26.3689 26.1049 27.3122 25.2017 28.4397 24.5884C29.5343 23.9986 30.7564 23.685 31.9997 23.675C33.144 23.6831 34.2709 23.9562 35.292 24.4727C36.313 24.9893 37.2006 25.7353 37.8851 26.6524C38.8017 27.8786 39.31 29.3617 39.3384 30.8924C39.3384 30.999 39.3464 31.115 39.3464 31.2044C39.2241 32.87 38.6008 34.4596 37.5584 35.7644V35.7644Z" stroke="black" stroke-width="2.5" stroke-miterlimit="10" stroke-linecap="square"/>
</svg>
