<svg width="66" height="66" viewBox="0 0 66 66" fill="none" xmlns="http://www.w3.org/2000/svg">
<path d="M10.7178 13.0821C16.1008 7.18733 23.8044 3.55371 32.4386 3.55371C37.2757 3.55371 41.8358 4.72217 45.8611 6.78034" stroke="black" stroke-width="2.5" stroke-miterlimit="10"/>
<path d="M25.0623 26.3976C26.3104 24.8352 30.705 23.4497 31.6091 21.2521C31.8232 20.732 32.0658 19.509 31.3656 19.2525C30.2017 18.9748 27.4367 18.9657 26.4138 18.9738C24.4666 18.9899 23.597 17.568 23.391 16.8772C23.1861 16.1864 22.7853 14.5413 27.3961 10.7562C22.2708 10.0129 19.6468 13.5516 19.3079 14.0879C16.5468 13.4052 14.2029 13.5698 12.2435 14.1949C12.2415 14.1939 12.2384 14.1919 12.2364 14.1899C8.99439 12.6417 8.79145 8.3779 8.79145 8.3779C8.79145 8.3779 4.68392 11.6671 5.69152 19.1606C0.336921 30.1372 4.28311 43.0932 6.57432 46.9955C8.6636 50.5584 16.3388 62.1278 34.4199 62.1278C52.5009 62.1278 61.75 45.4443 60.2594 41.437C62.4724 37.055 63.4455 31.8793 62.996 27.1378C61.9478 16.0764 51.5786 8.68693 51.5786 8.68693C51.5786 8.68693 51.7044 9.39487 51.8962 10.9057C49.1585 7.96283 46.9008 6.45605 43.0905 6.45605C48.3224 10.2099 53.3249 20.5108 52.918 29.1657C51.7409 26.1774 50.1285 24.9352 50.1285 24.9352C51.4984 37.4045 44.8582 46.3694 39.6669 47.3883C35.7816 48.1508 28.5366 47.8327 23.8761 42.3964C26.7731 43.1023 30.702 42.8024 33.0429 41.1896C34.4584 40.215 36.0322 38.8739 37.5391 38.9446C38.7141 38.9991 39.4163 38.069 38.5386 37.0692C37.6639 36.0684 35.3453 34.1758 32.6553 35.4432C25.2682 38.9254 20.3408 33.7779 21.1952 30.7603C21.7462 28.8122 23.5747 29.1293 24.9131 30.3503C24.9141 30.3503 25.6051 28.2426 25.0623 26.3976Z" stroke="black" stroke-width="2.5" stroke-miterlimit="10" stroke-linecap="square"/>
</svg>
