<svg width="64" height="64" viewBox="0 0 64 64" fill="none" xmlns="http://www.w3.org/2000/svg">
<path d="M28.0898 28.0898L35.9112 35.9112" stroke="black" stroke-width="2.5" stroke-miterlimit="10"/>
<path d="M45.6892 18.3105L28.0892 28.0892L18.3105 45.6892L35.9105 35.9105L45.6892 18.3105Z" stroke="black" stroke-width="2.5" stroke-miterlimit="10" stroke-linecap="square"/>
<path d="M32.0003 61.3337C48.2007 61.3337 61.3337 48.2007 61.3337 32.0003C61.3337 15.8 48.2007 2.66699 32.0003 2.66699C15.8 2.66699 2.66699 15.8 2.66699 32.0003C2.66699 48.2007 15.8 61.3337 32.0003 61.3337Z" stroke="black" stroke-width="2.5" stroke-miterlimit="10" stroke-linecap="square"/>
<path d="M32 9.33398V12.0007" stroke="black" stroke-width="2.5" stroke-miterlimit="10" stroke-linecap="square"/>
<path d="M54.6667 32H52" stroke="black" stroke-width="2.5" stroke-miterlimit="10" stroke-linecap="square"/>
<path d="M48.0279 48.0279L46.1426 46.1426" stroke="black" stroke-width="2.5" stroke-miterlimit="10" stroke-linecap="square"/>
<path d="M32 54.6667V52" stroke="black" stroke-width="2.5" stroke-miterlimit="10" stroke-linecap="square"/>
<path d="M9.33398 32H12.0007" stroke="black" stroke-width="2.5" stroke-miterlimit="10" stroke-linecap="square"/>
<path d="M15.9727 15.9727L17.858 17.858" stroke="black" stroke-width="2.5" stroke-miterlimit="10" stroke-linecap="square"/>
</svg>
