<?xml version="1.0" encoding="utf-8"?>
<!-- Generator: Adobe Illustrator 21.1.0, SVG Export Plug-In . SVG Version: 6.00 Build 0)  -->
<svg version="1.1" xmlns="http://www.w3.org/2000/svg" xmlns:xlink="http://www.w3.org/1999/xlink" x="0px" y="0px"
	 viewBox="0 0 134 92" enable-background="new 0 0 134 92" xml:space="preserve">
<g id="Layer_1">
	<g>
		<rect x="25.5" y="28.9" width="35" height="5.1"/>
		<rect x="25.5" y="36.5" width="25.8" height="5.1"/>
		<path d="M13.5,11.8v68.4h107.1V11.8H13.5z M116.3,75.6H18.5V16.3h97.8V75.6z"/>
		<polygon points="31.1,78.2 13.8,78.2 39.3,62.5 43.4,67.4 56.4,51.7 67,64.4 67,78.2 		"/>
	</g>
	<path d="M67,14.7v62h51.8v-62H67z M92.8,57.7l-17.5,0v-5.1l17.5,0V57.7z M110.8,49.7l-35.5,0v-5.1l35.5,0V49.7z M110.8,41.7
		l-35.5,0v-5.1l35.5,0V41.7z M110.8,33.7l-35.5,0v-5.1l35.5,0V33.7z"/>
</g>
<g id="Layer_2">
</g>
<g id="Layer_3">
</g>
</svg>