<?xml version="1.0" encoding="utf-8"?>
<!-- Generator: Adobe Illustrator 21.1.0, SVG Export Plug-In . SVG Version: 6.00 Build 0)  -->
<svg version="1.1" xmlns="http://www.w3.org/2000/svg" xmlns:xlink="http://www.w3.org/1999/xlink" x="0px" y="0px"
	 viewBox="0 0 134 92" enable-background="new 0 0 134 92" xml:space="preserve">
<g id="Layer_1">
	<path d="M13.5,11.8v68.4h107.1V11.8H13.5z M116.3,75.6H18.5V16.3h97.8V75.6z"/>
	<path d="M18.5,16.3v59.3h13.3l84.5,0.4V16.3H18.5z M48.3,78.2H13.8l50.7-15.7l8.1,4.9l26-15.7l21.1,12.8v13.7H48.3z M89.5,48.5H44
		V18.6h45.5V48.5z M84.2,29.1l-35.5,0l0-5.1l35.5,0L84.2,29.1z M82.8,36.1l-32.3,0l0-5.1l32.3,0L82.8,36.1z M83.7,44.1l-33.9,0
		l0-2.1l33.9,0V44.1z M83.7,40.9l-33.9,0l0-2.1l33.9,0V40.9z"/>
</g>
<g id="Layer_2">
</g>
<g id="Layer_3">
</g>
</svg>
