<?xml version="1.0" encoding="utf-8"?>
<!-- Generator: Adobe Illustrator 21.0.2, SVG Export Plug-In . SVG Version: 6.00 Build 0)  -->
<svg version="1.1" id="Layer_1" xmlns="http://www.w3.org/2000/svg" xmlns:xlink="http://www.w3.org/1999/xlink" x="0px" y="0px"
	 viewBox="0 0 134 92" enable-background="new 0 0 134 92" xml:space="preserve">
<g>
	<path d="M13.5,11.8v68.4h107.1V11.8H13.5z M116.3,75.6H18.5V16.3h97.8V75.6z"/>
</g>
<rect x="24.5" y="24" width="35.5" height="5.1"/>
<rect x="24.5" y="31" width="32.3" height="5.1"/>
<rect x="24.5" y="43" width="33.9" height="2.1"/>
<rect x="24.5" y="39.8" width="33.9" height="2.1"/>
<rect x="24.5" y="46.5" width="19" height="2.1"/>
<g>
	<polygon points="69.8,79.3 73,68.2 67.2,66.5 67.2,79.2 	"/>
	<polygon points="73.8,65.6 85,27 67.2,22.4 67.2,63.9 	"/>
	<polygon points="85.7,24.4 88.7,13.8 67.2,14 67.2,19.6 	"/>
	<g>
		<circle cx="107.2" cy="43.1" r="2.2"/>
		<path d="M100.1,31.2l-6.9,23.3l24,6.2l0.1-24.7L100.1,31.2z M107.2,51.3c0,0-4.5-4.1-4.5-7.8c0-2.3,2-4.1,4.5-4.1s4.5,1.8,4.5,4.1
			C111.7,47.3,107.2,51.3,107.2,51.3z"/>
	</g>
	<polygon points="97.4,72.5 117,77.4 117.2,65.3 100.7,61.3 	"/>
	<polygon points="74.5,79.3 115.1,79.5 77.3,69.4 	"/>
	<polygon points="78,66.9 94.8,71.8 98.2,60.6 81.3,55.6 	"/>
	<polygon points="90.7,53.8 97.6,30.5 89.2,28.2 82.4,51.3 	"/>
	<polygon points="117.4,13.5 93.5,13.6 89.9,25.7 117.3,33.3 	"/>
</g>
</svg>
