<svg width="70" height="50" viewBox="0 0 70 50" fill="none" xmlns="http://www.w3.org/2000/svg">
<rect width="70" height="50" fill="white"/>
<path d="M9 12C9 11.4477 9.44772 11 10 11H22C22.5523 11 23 11.4477 23 12V12C23 12.5523 22.5523 13 22 13H10C9.44772 13 9 12.5523 9 12V12Z" fill="black"/>
<path d="M9 16C9 15.4477 9.44772 15 10 15H22C22.5523 15 23 15.4477 23 16V16C23 16.5523 22.5523 17 22 17H10C9.44772 17 9 16.5523 9 16V16Z" fill="black"/>
<path fill-rule="evenodd" clip-rule="evenodd" d="M29.0756 12.009C29.1978 12.0384 29.3021 12.1373 29.3578 12.2764L30.9578 16.2764C31.0198 16.4314 31.0131 16.6155 30.9403 16.7629C30.8674 16.9103 30.7386 17 30.6 17H25.4C25.2339 17 25.0851 16.8717 25.0261 16.6777C24.9671 16.4837 25.0101 16.2642 25.1343 16.1263L28.7343 12.1263C28.8273 12.023 28.9535 11.9796 29.0756 12.009Z" fill="black"/>
<path d="M26 13C26.5523 13 27 12.5523 27 12C27 11.4477 26.5523 11 26 11C25.4477 11 25 11.4477 25 12C25 12.5523 25.4477 13 26 13Z" fill="black"/>
<path d="M9 23C9 22.4477 9.44772 22 10 22H22C22.5523 22 23 22.4477 23 23V23C23 23.5523 22.5523 24 22 24H10C9.44772 24 9 23.5523 9 23V23Z" fill="black"/>
<path d="M9 27C9 26.4477 9.44772 26 10 26H22C22.5523 26 23 26.4477 23 27V27C23 27.5523 22.5523 28 22 28H10C9.44772 28 9 27.5523 9 27V27Z" fill="black"/>
<path fill-rule="evenodd" clip-rule="evenodd" d="M29.0756 23.009C29.1978 23.0384 29.3021 23.1373 29.3578 23.2764L30.9578 27.2764C31.0198 27.4314 31.0131 27.6155 30.9403 27.7629C30.8674 27.9103 30.7386 28 30.6 28H25.4C25.2339 28 25.0851 27.8717 25.0261 27.6777C24.9671 27.4837 25.0101 27.2642 25.1343 27.1263L28.7343 23.1263C28.8273 23.023 28.9535 22.9796 29.0756 23.009Z" fill="black"/>
<path d="M26 24C26.5523 24 27 23.5523 27 23C27 22.4477 26.5523 22 26 22C25.4477 22 25 22.4477 25 23C25 23.5523 25.4477 24 26 24Z" fill="black"/>
<path d="M9 34C9 33.4477 9.44772 33 10 33H22C22.5523 33 23 33.4477 23 34V34C23 34.5523 22.5523 35 22 35H10C9.44772 35 9 34.5523 9 34V34Z" fill="black"/>
<path d="M9 38C9 37.4477 9.44772 37 10 37H22C22.5523 37 23 37.4477 23 38V38C23 38.5523 22.5523 39 22 39H10C9.44772 39 9 38.5523 9 38V38Z" fill="black"/>
<path fill-rule="evenodd" clip-rule="evenodd" d="M29.0756 34.009C29.1978 34.0384 29.3021 34.1373 29.3578 34.2764L30.9578 38.2764C31.0198 38.4314 31.0131 38.6155 30.9403 38.7629C30.8674 38.9103 30.7386 39 30.6 39H25.4C25.2339 39 25.0851 38.8717 25.0261 38.6777C24.9671 38.4837 25.0101 38.2642 25.1343 38.1263L28.7343 34.1263C28.8273 34.023 28.9535 33.9796 29.0756 34.009Z" fill="black"/>
<path d="M26 35C26.5523 35 27 34.5523 27 34C27 33.4477 26.5523 33 26 33C25.4477 33 25 33.4477 25 34C25 34.5523 25.4477 35 26 35Z" fill="black"/>
<path d="M39 12C39 11.4477 39.4477 11 40 11H52C52.5523 11 53 11.4477 53 12V12C53 12.5523 52.5523 13 52 13H40C39.4477 13 39 12.5523 39 12V12Z" fill="black"/>
<path d="M39 16C39 15.4477 39.4477 15 40 15H52C52.5523 15 53 15.4477 53 16V16C53 16.5523 52.5523 17 52 17H40C39.4477 17 39 16.5523 39 16V16Z" fill="black"/>
<path fill-rule="evenodd" clip-rule="evenodd" d="M59.0756 12.009C59.1978 12.0384 59.3021 12.1373 59.3578 12.2764L60.9578 16.2764C61.0198 16.4314 61.0131 16.6155 60.9403 16.7629C60.8674 16.9103 60.7386 17 60.6 17H55.4C55.2339 17 55.0851 16.8717 55.0261 16.6777C54.9671 16.4837 55.0101 16.2642 55.1343 16.1263L58.7343 12.1263C58.8273 12.023 58.9535 11.9796 59.0756 12.009Z" fill="black"/>
<path d="M56 13C56.5523 13 57 12.5523 57 12C57 11.4477 56.5523 11 56 11C55.4477 11 55 11.4477 55 12C55 12.5523 55.4477 13 56 13Z" fill="black"/>
<path d="M39 23C39 22.4477 39.4477 22 40 22H52C52.5523 22 53 22.4477 53 23V23C53 23.5523 52.5523 24 52 24H40C39.4477 24 39 23.5523 39 23V23Z" fill="black"/>
<path d="M39 27C39 26.4477 39.4477 26 40 26H52C52.5523 26 53 26.4477 53 27V27C53 27.5523 52.5523 28 52 28H40C39.4477 28 39 27.5523 39 27V27Z" fill="black"/>
<path fill-rule="evenodd" clip-rule="evenodd" d="M59.0756 23.009C59.1978 23.0384 59.3021 23.1373 59.3578 23.2764L60.9578 27.2764C61.0198 27.4314 61.0131 27.6155 60.9403 27.7629C60.8674 27.9103 60.7386 28 60.6 28H55.4C55.2339 28 55.0851 27.8717 55.0261 27.6777C54.9671 27.4837 55.0101 27.2642 55.1343 27.1263L58.7343 23.1263C58.8273 23.023 58.9535 22.9796 59.0756 23.009Z" fill="black"/>
<path d="M56 24C56.5523 24 57 23.5523 57 23C57 22.4477 56.5523 22 56 22C55.4477 22 55 22.4477 55 23C55 23.5523 55.4477 24 56 24Z" fill="black"/>
<path d="M39 34C39 33.4477 39.4477 33 40 33H52C52.5523 33 53 33.4477 53 34V34C53 34.5523 52.5523 35 52 35H40C39.4477 35 39 34.5523 39 34V34Z" fill="black"/>
<path d="M39 38C39 37.4477 39.4477 37 40 37H52C52.5523 37 53 37.4477 53 38V38C53 38.5523 52.5523 39 52 39H40C39.4477 39 39 38.5523 39 38V38Z" fill="black"/>
<path fill-rule="evenodd" clip-rule="evenodd" d="M59.0756 34.009C59.1978 34.0384 59.3021 34.1373 59.3578 34.2764L60.9578 38.2764C61.0198 38.4314 61.0131 38.6155 60.9403 38.7629C60.8674 38.9103 60.7386 39 60.6 39H55.4C55.2339 39 55.0851 38.8717 55.0261 38.6777C54.9671 38.4837 55.0101 38.2642 55.1343 38.1263L58.7343 34.1263C58.8273 34.023 58.9535 33.9796 59.0756 34.009Z" fill="black"/>
<path d="M56 35C56.5523 35 57 34.5523 57 34C57 33.4477 56.5523 33 56 33C55.4477 33 55 33.4477 55 34C55 34.5523 55.4477 35 56 35Z" fill="black"/>
</svg>
