<svg width="70" height="50" viewBox="0 0 70 50" fill="none" xmlns="http://www.w3.org/2000/svg">
<rect width="70" height="50" fill="white"/>
<path fill-rule="evenodd" clip-rule="evenodd" d="M9 14C9 12.3431 10.3431 11 12 11H35C36.6569 11 38 12.3431 38 14V28C38 29.6569 36.6569 31 35 31H12C10.3431 31 9 29.6569 9 28V14ZM12 13C11.4477 13 11 13.4477 11 14V28C11 28.5523 11.4477 29 12 29H35C35.5523 29 36 28.5523 36 28V14C36 13.4477 35.5523 13 35 13H12ZM26.1892 17.0181C26.4946 17.0769 26.7553 17.2745 26.8945 17.5528L30.8945 25.5528C31.0495 25.8628 31.0329 26.2309 30.8507 26.5257C30.6685 26.8206 30.3466 27 30 27H17C16.5849 27 16.2129 26.7435 16.0653 26.3554C15.9178 25.9673 16.0254 25.5284 16.3357 25.2526L25.3357 17.2526C25.5682 17.0459 25.8837 16.9592 26.1892 17.0181ZM19.6302 25H28.382L25.6892 19.6143L19.6302 25ZM20 18C20 19.1046 19.1046 20 18 20C16.8954 20 16 19.1046 16 18C16 16.8954 16.8954 16 18 16C19.1046 16 20 16.8954 20 18Z" fill="black"/>
<path d="M9 38C9 37.4477 9.44772 37 10 37H31C31.5523 37 32 37.4477 32 38V38C32 38.5523 31.5523 39 31 39H10C9.44772 39 9 38.5523 9 38V38Z" fill="black"/>
<path d="M9 34C9 33.4477 9.44772 33 10 33H35C35.5523 33 36 33.4477 36 34V34C36 34.5523 35.5523 35 35 35H10C9.44771 35 9 34.5523 9 34V34Z" fill="black"/>
<path d="M42 12C42 11.4477 42.4477 11 43 11H52C52.5523 11 53 11.4477 53 12V12C53 12.5523 52.5523 13 52 13H43C42.4477 13 42 12.5523 42 12V12Z" fill="black"/>
<path d="M42 16C42 15.4477 42.4477 15 43 15H52C52.5523 15 53 15.4477 53 16V16C53 16.5523 52.5523 17 52 17H43C42.4477 17 42 16.5523 42 16V16Z" fill="black"/>
<path fill-rule="evenodd" clip-rule="evenodd" d="M59.0756 12.009C59.1978 12.0384 59.3021 12.1373 59.3578 12.2764L60.9578 16.2764C61.0198 16.4314 61.0131 16.6155 60.9403 16.7629C60.8674 16.9103 60.7386 17 60.6 17H55.4C55.2339 17 55.0851 16.8717 55.0261 16.6777C54.9671 16.4837 55.0101 16.2642 55.1343 16.1263L58.7343 12.1263C58.8273 12.023 58.9535 11.9796 59.0756 12.009Z" fill="black"/>
<path d="M56 13C56.5523 13 57 12.5523 57 12C57 11.4477 56.5523 11 56 11C55.4477 11 55 11.4477 55 12C55 12.5523 55.4477 13 56 13Z" fill="black"/>
<path d="M42 23C42 22.4477 42.4477 22 43 22H52C52.5523 22 53 22.4477 53 23V23C53 23.5523 52.5523 24 52 24H43C42.4477 24 42 23.5523 42 23V23Z" fill="black"/>
<path d="M42 27C42 26.4477 42.4477 26 43 26H52C52.5523 26 53 26.4477 53 27V27C53 27.5523 52.5523 28 52 28H43C42.4477 28 42 27.5523 42 27V27Z" fill="black"/>
<path fill-rule="evenodd" clip-rule="evenodd" d="M59.0756 23.009C59.1978 23.0384 59.3021 23.1373 59.3578 23.2764L60.9578 27.2764C61.0198 27.4314 61.0131 27.6155 60.9403 27.7629C60.8674 27.9103 60.7386 28 60.6 28H55.4C55.2339 28 55.0851 27.8717 55.0261 27.6777C54.9671 27.4837 55.0101 27.2642 55.1343 27.1263L58.7343 23.1263C58.8273 23.023 58.9535 22.9796 59.0756 23.009Z" fill="black"/>
<path d="M56 24C56.5523 24 57 23.5523 57 23C57 22.4477 56.5523 22 56 22C55.4477 22 55 22.4477 55 23C55 23.5523 55.4477 24 56 24Z" fill="black"/>
<path d="M42 34C42 33.4477 42.4477 33 43 33H52C52.5523 33 53 33.4477 53 34V34C53 34.5523 52.5523 35 52 35H43C42.4477 35 42 34.5523 42 34V34Z" fill="black"/>
<path d="M42 38C42 37.4477 42.4477 37 43 37H52C52.5523 37 53 37.4477 53 38V38C53 38.5523 52.5523 39 52 39H43C42.4477 39 42 38.5523 42 38V38Z" fill="black"/>
<path fill-rule="evenodd" clip-rule="evenodd" d="M59.0756 34.009C59.1978 34.0384 59.3021 34.1373 59.3578 34.2764L60.9578 38.2764C61.0198 38.4314 61.0131 38.6155 60.9403 38.7629C60.8674 38.9103 60.7386 39 60.6 39H55.4C55.2339 39 55.0851 38.8717 55.0261 38.6777C54.9671 38.4837 55.0101 38.2642 55.1343 38.1263L58.7343 34.1263C58.8273 34.023 58.9535 33.9796 59.0756 34.009Z" fill="black"/>
<path d="M56 35C56.5523 35 57 34.5523 57 34C57 33.4477 56.5523 33 56 33C55.4477 33 55 33.4477 55 34C55 34.5523 55.4477 35 56 35Z" fill="black"/>
</svg>
