<svg xmlns="http://www.w3.org/2000/svg" width="82.73" height="12.87" viewBox="0 0 82.73 12.87">
  <title>Artboard 1</title>
  <g>
    <path d="M6.53,7.5c0-.8-.6-1.1-1.9-1.4-1.1-.3-2.3-.8-2.3-2.3a2.33,2.33,0,0,1,2.6-2.2,4.51,4.51,0,0,1,2.5.7L7,3.2a3.94,3.94,0,0,0-2.1-.6c-1.1,0-1.6.5-1.6,1.2S4,4.9,5.23,5.2s2.3.9,2.3,2.3a2.44,2.44,0,0,1-2.7,2.3,5.59,5.59,0,0,1-2.6-.7l.4-1a4.54,4.54,0,0,0,2.3.8A1.63,1.63,0,0,0,6.53,7.5Z" style="fill: #fff"/>
    <path d="M18,10.6l-.5.9-3.4-1.8h-.3a3.78,3.78,0,0,1-3.9-4.1,3.89,3.89,0,0,1,3.9-4.1,3.78,3.78,0,0,1,3.9,4.1,4,4,0,0,1-2.2,3.7Zm-4.2-8.1c-1.7,0-2.8,1.2-2.8,3.1a2.92,2.92,0,0,0,2.9,3.2,2.82,2.82,0,0,0,2.8-3.1A2.87,2.87,0,0,0,13.83,2.5Z" style="fill: #fff"/>
    <path d="M23.63,9.7a2.77,2.77,0,0,1-3-3.1V1.7h1V6.4a1.93,1.93,0,0,0,2.1,2.2c1.2,0,2-.7,2-2.2V1.6h1V6.4C26.63,8.5,25.63,9.7,23.63,9.7Z" style="fill: #fff"/>
    <path d="M35.93,9.5h-1.1l-.7-2h-3.4l-.7,2h-1.1l2.9-7.8H33Zm-3.5-6.7-1.3,3.7h2.7Z" style="fill: #fff"/>
    <path d="M39.33,9.5h-1.1V1.7h2.3c1.9,0,2.9.9,2.9,2.3a2.16,2.16,0,0,1-1.8,2.2l2.1,3.3h-1.3l-1.9-3.1-1.3.1v3Zm1.3-3.9c1,0,1.8-.5,1.8-1.5s-.8-1.4-1.9-1.4h-1.1V5.6Z" style="fill: #fff"/>
    <path d="M46.33,9.5V1.7h4.9v1h-3.9V5.1h3.2v1h-3.2V8.5h3.9v1Z" style="fill: #fff"/>
    <path d="M57.73,9.7a3.85,3.85,0,0,1-4.2-4.1,4,4,0,0,1,4.2-4.1,3.85,3.85,0,0,1,4.2,4.1A4,4,0,0,1,57.73,9.7Zm0-6.2c-1.1,0-1.7.9-1.7,2.1s.6,2.2,1.7,2.2,1.7-.9,1.7-2.1S58.83,3.5,57.73,3.5Z" style="fill: #fff"/>
    <path d="M69.73,1.7H72V9.6h-2.6l-2.8-4.5V9.5h-2.3V1.7h2.6l2.8,4.4Z" style="fill: #fff"/>
    <path d="M74.73,9.5V1.7h6.1V3.6h-3.7v1H80V6.5h-2.9v1h3.7V9.4h-6.1Z" style="fill: #fff"/>
  </g>
</svg>
