<svg version="1.1" xmlns="http://www.w3.org/2000/svg" width="32" height="32" viewBox="0 0 32 32">
<path fill="#fff" d="M30 0q0.859 0 1.43 0.57t0.57 1.43q0 0.844-0.578 1.422l-12.594 12.578 12.594 12.578q0.578 0.578 0.578 1.422 0 0.859-0.57 1.43t-1.43 0.57q-0.844 0-1.422-0.578l-12.578-12.594-12.578 12.594q-0.578 0.578-1.422 0.578-0.859 0-1.43-0.57t-0.57-1.43q0-0.844 0.578-1.422l12.594-12.578-12.594-12.578q-0.578-0.578-0.578-1.422 0-0.859 0.57-1.43t1.43-0.57q0.844 0 1.422 0.578l12.578 12.594 12.578-12.594q0.578-0.578 1.422-0.578z"></path>
</svg>