<?xml version="1.0" encoding="utf-8"?>
<!-- Generator: Adobe Illustrator 21.1.0, SVG Export Plug-In . SVG Version: 6.00 Build 0)  -->
<svg version="1.1" xmlns="http://www.w3.org/2000/svg" xmlns:xlink="http://www.w3.org/1999/xlink" x="0px" y="0px"
	 viewBox="0 0 134 92" enable-background="new 0 0 134 92" xml:space="preserve">
<g id="Layer_1">
	<g>
		<g>
			<polygon points="116.3,62.3 116.3,75.6 22.3,75.6 13.8,78.2 48.3,78.2 119.8,78.2 119.8,64.4 			"/>
			<polygon points="72.7,74.4 98.7,62.7 116.3,73.3 116.3,16.3 18.5,16.3 18.5,75.6 22.3,75.6 64.6,69.5 			"/>
		</g>
		<path fill="#FFFFFF" d="M22.5,42.2v18.2h19.9V42.2H22.5z M29.2,51.4l2.4-2.7c-0.2-0.2-0.5-0.5-0.7-0.8c-0.5,0.2-0.9-0.4-0.6-0.8
			l1.4-1.9c0.3-0.5,1-0.2,0.9,0.4c0.9,0.3,1.8,0.9,2.4,1.8c0.5-0.2,0.9,0.4,0.6,0.8l-1.4,1.9c-0.3,0.5-1,0.2-0.9-0.4
			c-0.3-0.1-0.6-0.2-0.9-0.5l-1.7,3.2c-0.2,0.2-0.3,0.4-0.5,0.4c-0.2,0.1-0.5,0-0.7-0.2c-0.2-0.2-0.3-0.4-0.3-0.6
			C29,51.9,29.1,51.6,29.2,51.4z M36.8,56.3h-8.7V55h8.7V56.3z"/>
		<path fill="#FFFFFF" d="M45.5,42.2v18.2h19.9V42.2H45.5z M52.2,51.4l2.4-2.7c-0.2-0.2-0.5-0.5-0.7-0.8c-0.5,0.2-0.9-0.4-0.6-0.8
			l1.4-1.9c0.3-0.5,1-0.2,0.9,0.4c0.9,0.3,1.8,0.9,2.4,1.8c0.5-0.2,0.9,0.4,0.6,0.8l-1.4,1.9c-0.3,0.5-1,0.2-0.9-0.4
			c-0.3-0.1-0.6-0.2-0.9-0.5l-1.7,3.2c-0.2,0.2-0.3,0.4-0.5,0.4c-0.2,0.1-0.5,0-0.7-0.2c-0.2-0.2-0.3-0.4-0.3-0.6
			C52,51.9,52.1,51.6,52.2,51.4z M59.8,56.3h-8.7V55h8.7V56.3z"/>
		<path fill="#FFFFFF" d="M68.5,42.2v18.2h19.9V42.2H68.5z M75.2,51.4l2.4-2.7c-0.2-0.2-0.5-0.5-0.7-0.8c-0.5,0.2-0.9-0.4-0.6-0.8
			l1.4-1.9c0.3-0.5,1-0.2,0.9,0.4c0.9,0.3,1.8,0.9,2.4,1.8c0.5-0.2,0.9,0.4,0.6,0.8l-1.4,1.9c-0.3,0.5-1,0.2-0.9-0.4
			c-0.3-0.1-0.6-0.2-0.9-0.5l-1.7,3.2c-0.2,0.2-0.3,0.4-0.5,0.4c-0.2,0.1-0.5,0-0.7-0.2c-0.2-0.2-0.3-0.4-0.3-0.6
			C75,51.9,75.1,51.6,75.2,51.4z M82.8,56.3h-8.7V55h8.7V56.3z"/>
		<path fill="#FFFFFF" d="M91.5,42.2v18.2h19.9V42.2H91.5z M98.2,51.4l2.4-2.7c-0.2-0.2-0.5-0.5-0.7-0.8c-0.5,0.2-0.9-0.4-0.6-0.8
			l1.4-1.9c0.3-0.5,1-0.2,0.9,0.4c0.9,0.3,1.8,0.9,2.4,1.8c0.5-0.2,0.9,0.4,0.6,0.8l-1.4,1.9c-0.3,0.5-1,0.2-0.9-0.4
			c-0.3-0.1-0.6-0.2-0.9-0.5l-1.7,3.2c-0.2,0.2-0.3,0.4-0.5,0.4c-0.2,0.1-0.5,0-0.7-0.2c-0.2-0.2-0.3-0.4-0.3-0.6
			C98,51.9,98.1,51.6,98.2,51.4z M105.8,56.3h-8.7V55h8.7V56.3z"/>
		<rect x="39.5" y="22.9" fill="#FFFFFF" width="55.5" height="5.1"/>
		<rect x="46.5" y="30.5" fill="#FFFFFF" width="41" height="5.1"/>
		<path d="M13.5,11.8v68.4h107.1V11.8H13.5z M116.3,75.6H18.5V16.3h97.8V75.6z"/>
	</g>
</g>
<g id="Layer_2">
</g>
<g id="Layer_3">
</g>
</svg>
