<?xml version="1.0" encoding="utf-8"?>
<!-- Generator: Adobe Illustrator 21.1.0, SVG Export Plug-In . SVG Version: 6.00 Build 0)  -->
<svg version="1.1" id="Layer_1" xmlns="http://www.w3.org/2000/svg" xmlns:xlink="http://www.w3.org/1999/xlink" x="0px" y="0px"
	 viewBox="0 0 134 92" style="enable-background:new 0 0 134 92;" xml:space="preserve">
<g>
	<path d="M13.5,11.8v68.4h107.1V11.8H13.5z M17.8,16.3h97.8v59.3H17.8V16.3z"/>
</g>
<rect x="74.1" y="24" width="35.5" height="5.1"/>
<rect x="74.1" y="31" width="32.3" height="5.1"/>
<rect x="74.1" y="43" width="33.9" height="2.1"/>
<rect x="74.1" y="39.8" width="33.9" height="2.1"/>
<rect x="74.1" y="46.5" width="19" height="2.1"/>
<g>
	<polygon points="19.3,79.3 22.5,68.2 16.7,66.5 16.7,79.2 	"/>
	<polygon points="23.3,65.6 34.5,27 16.7,22.4 16.7,63.9 	"/>
	<polygon points="35.2,24.4 38.2,13.8 16.7,14 16.7,19.6 	"/>
	<g>
		<circle cx="56.7" cy="43.1" r="2.2"/>
		<path d="M49.6,31.2l-6.9,23.3l24,6.2L66.8,36L49.6,31.2z M56.7,51.3c0,0-4.5-4.1-4.5-7.8c0-2.3,2-4.1,4.5-4.1s4.5,1.8,4.5,4.1
			C61.2,47.3,56.7,51.3,56.7,51.3z"/>
	</g>
	<polygon points="46.9,72.5 66.5,77.4 66.7,65.3 50.2,61.3 	"/>
	<polygon points="24,79.3 64.6,79.5 26.8,69.4 	"/>
	<polygon points="27.5,66.9 44.3,71.8 47.7,60.6 30.8,55.6 	"/>
	<polygon points="40.2,53.8 47.1,30.5 38.7,28.2 31.9,51.3 	"/>
	<polygon points="66.9,13.5 43,13.6 39.4,25.7 66.8,33.3 	"/>
</g>
</svg>
