<svg width="65" height="29" viewBox="0 0 65 29" fill="none" xmlns="http://www.w3.org/2000/svg">
    <rect x="0.5" y="0.5" width="63.5263" height="28" fill="white" stroke="black" stroke-linecap="round" stroke-linejoin="round"/>
    <rect x="2.42105" y="8.10527" width="27" height="4.26316" fill="black"/>
    <rect x="2.42105" y="16.6316" width="18.4737" height="4.26316" fill="black"/>
    <path d="M40.872 13.108C40.698 13.108 40.521 13.09 40.341 13.054C40.161 13.018 39.981 12.961 39.801 12.883C39.627 12.799 39.456 12.691 39.288 12.559C39.126 12.421 38.976 12.256 38.838 12.064L39.738 11.326C39.894 11.536 40.071 11.695 40.269 11.803C40.473 11.905 40.662 11.956 40.836 11.956C41.106 11.956 41.316 11.902 41.466 11.794C41.622 11.68 41.7 11.518 41.7 11.308C41.7 11.194 41.682 11.095 41.646 11.011C41.61 10.921 41.541 10.846 41.439 10.786C41.343 10.726 41.208 10.681 41.034 10.651C40.866 10.621 40.65 10.606 40.386 10.606L40.584 9.598C40.86 9.598 41.088 9.58 41.268 9.544C41.454 9.502 41.598 9.448 41.7 9.382C41.808 9.31 41.883 9.229 41.925 9.139C41.967 9.043 41.988 8.938 41.988 8.824C41.988 8.668 41.934 8.545 41.826 8.455C41.718 8.365 41.568 8.32 41.376 8.32C41.25 8.32 41.124 8.347 40.998 8.401C40.878 8.455 40.728 8.536 40.548 8.644L39.864 7.726C40.17 7.516 40.467 7.375 40.755 7.303C41.043 7.225 41.34 7.186 41.646 7.186C41.91 7.186 42.153 7.219 42.375 7.285C42.597 7.351 42.789 7.447 42.951 7.573C43.113 7.693 43.239 7.84 43.329 8.014C43.419 8.188 43.464 8.38 43.464 8.59C43.464 8.95 43.377 9.253 43.203 9.499C43.035 9.745 42.726 9.946 42.276 10.102V10.138C42.582 10.264 42.801 10.432 42.933 10.642C43.071 10.852 43.14 11.08 43.14 11.326C43.14 11.62 43.08 11.878 42.96 12.1C42.846 12.322 42.687 12.508 42.483 12.658C42.279 12.808 42.039 12.922 41.763 13C41.487 13.072 41.19 13.108 40.872 13.108ZM45.6918 13.108C45.4578 13.108 45.2358 13.069 45.0258 12.991C44.8218 12.907 44.6418 12.781 44.4858 12.613C44.3358 12.439 44.2158 12.22 44.1258 11.956C44.0418 11.692 43.9998 11.38 43.9998 11.02C43.9998 10.348 44.0778 9.772 44.2338 9.292C44.3898 8.806 44.5908 8.407 44.8368 8.095C45.0828 7.783 45.3588 7.555 45.6648 7.411C45.9708 7.261 46.2738 7.186 46.5738 7.186C46.8078 7.186 47.0268 7.228 47.2308 7.312C47.4348 7.396 47.6118 7.525 47.7618 7.699C47.9118 7.867 48.0288 8.083 48.1128 8.347C48.2028 8.611 48.2478 8.926 48.2478 9.292C48.2478 9.964 48.1698 10.54 48.0138 11.02C47.8638 11.5 47.6658 11.896 47.4198 12.208C47.1798 12.514 46.9068 12.742 46.6008 12.892C46.2948 13.036 45.9918 13.108 45.6918 13.108ZM45.7818 12.01C45.9138 12.01 46.0488 11.941 46.1868 11.803C46.3248 11.659 46.4478 11.461 46.5558 11.209C46.6698 10.957 46.7598 10.654 46.8258 10.3C46.8978 9.946 46.9338 9.556 46.9338 9.13C46.9338 8.8 46.8918 8.578 46.8078 8.464C46.7238 8.344 46.6158 8.284 46.4838 8.284C46.3458 8.284 46.2078 8.356 46.0698 8.5C45.9378 8.638 45.8148 8.836 45.7008 9.094C45.5928 9.346 45.5028 9.652 45.4308 10.012C45.3648 10.366 45.3318 10.756 45.3318 11.182C45.3318 11.35 45.3408 11.488 45.3588 11.596C45.3828 11.698 45.4128 11.782 45.4488 11.848C45.4908 11.908 45.5388 11.95 45.5928 11.974C45.6528 11.998 45.7158 12.01 45.7818 12.01ZM50.0976 10.678C49.9236 10.678 49.7556 10.645 49.5936 10.579C49.4376 10.513 49.2996 10.417 49.1796 10.291C49.0656 10.165 48.9726 10.012 48.9006 9.832C48.8346 9.652 48.8016 9.448 48.8016 9.22C48.8016 8.89 48.8436 8.587 48.9276 8.311C49.0176 8.029 49.1376 7.786 49.2876 7.582C49.4436 7.378 49.6296 7.219 49.8456 7.105C50.0616 6.991 50.3016 6.934 50.5656 6.934C50.7396 6.934 50.9046 6.97 51.0606 7.042C51.2226 7.108 51.3606 7.204 51.4746 7.33C51.5946 7.456 51.6876 7.609 51.7536 7.789C51.8256 7.969 51.8616 8.17 51.8616 8.392C51.8616 8.722 51.8166 9.028 51.7266 9.31C51.6426 9.586 51.5226 9.826 51.3666 10.03C51.2166 10.234 51.0306 10.393 50.8086 10.507C50.5926 10.621 50.3556 10.678 50.0976 10.678ZM50.1876 9.832C50.3676 9.832 50.5236 9.706 50.6556 9.454C50.7876 9.202 50.8536 8.854 50.8536 8.41C50.8536 8.212 50.8206 8.059 50.7546 7.951C50.6946 7.837 50.6016 7.78 50.4756 7.78C50.2956 7.78 50.1396 7.906 50.0076 8.158C49.8756 8.41 49.8096 8.758 49.8096 9.202C49.8096 9.4 49.8396 9.556 49.8996 9.67C49.9656 9.778 50.0616 9.832 50.1876 9.832ZM49.6476 13.108L53.8776 6.952H54.6876L50.4576 13.108H49.6476ZM53.8776 13.108C53.7036 13.108 53.5356 13.075 53.3736 13.009C53.2176 12.943 53.0796 12.847 52.9596 12.721C52.8456 12.595 52.7526 12.442 52.6806 12.262C52.6146 12.082 52.5816 11.878 52.5816 11.65C52.5816 11.32 52.6236 11.017 52.7076 10.741C52.7976 10.459 52.9176 10.216 53.0676 10.012C53.2236 9.808 53.4096 9.649 53.6256 9.535C53.8416 9.421 54.0816 9.364 54.3456 9.364C54.5196 9.364 54.6846 9.4 54.8406 9.472C55.0026 9.538 55.1406 9.634 55.2546 9.76C55.3746 9.886 55.4676 10.039 55.5336 10.219C55.6056 10.399 55.6416 10.6 55.6416 10.822C55.6416 11.152 55.5966 11.458 55.5066 11.74C55.4226 12.016 55.3026 12.256 55.1466 12.46C54.9966 12.664 54.8106 12.823 54.5886 12.937C54.3726 13.051 54.1356 13.108 53.8776 13.108ZM53.9676 12.262C54.1476 12.262 54.3036 12.136 54.4356 11.884C54.5676 11.632 54.6336 11.284 54.6336 10.84C54.6336 10.642 54.6006 10.489 54.5346 10.381C54.4746 10.267 54.3816 10.21 54.2556 10.21C54.0756 10.21 53.9196 10.336 53.7876 10.588C53.6556 10.84 53.5896 11.188 53.5896 11.632C53.5896 11.83 53.6196 11.986 53.6796 12.1C53.7456 12.208 53.8416 12.262 53.9676 12.262Z" fill="black"/>
    <path d="M40.872 22.108C40.53 22.108 40.191 22.033 39.855 21.883C39.519 21.727 39.21 21.454 38.928 21.064L39.828 20.326C40.14 20.746 40.494 20.956 40.89 20.956C41.124 20.956 41.328 20.878 41.502 20.722C41.682 20.566 41.772 20.344 41.772 20.056C41.772 19.828 41.712 19.657 41.592 19.543C41.472 19.429 41.304 19.372 41.088 19.372C41.022 19.372 40.962 19.375 40.908 19.381C40.854 19.387 40.797 19.399 40.737 19.417C40.683 19.435 40.62 19.462 40.548 19.498C40.476 19.528 40.392 19.57 40.296 19.624L39.774 19.192L40.476 16.294H43.698L43.464 17.5H41.484L41.232 18.4C41.316 18.364 41.394 18.34 41.466 18.328C41.538 18.316 41.616 18.31 41.7 18.31C41.916 18.31 42.117 18.343 42.303 18.409C42.489 18.475 42.651 18.571 42.789 18.697C42.927 18.823 43.035 18.982 43.113 19.174C43.191 19.36 43.23 19.576 43.23 19.822C43.23 20.176 43.161 20.494 43.023 20.776C42.891 21.058 42.714 21.298 42.492 21.496C42.276 21.694 42.024 21.847 41.736 21.955C41.454 22.057 41.166 22.108 40.872 22.108ZM45.6918 22.108C45.4578 22.108 45.2358 22.069 45.0258 21.991C44.8218 21.907 44.6418 21.781 44.4858 21.613C44.3358 21.439 44.2158 21.22 44.1258 20.956C44.0418 20.692 43.9998 20.38 43.9998 20.02C43.9998 19.348 44.0778 18.772 44.2338 18.292C44.3898 17.806 44.5908 17.407 44.8368 17.095C45.0828 16.783 45.3588 16.555 45.6648 16.411C45.9708 16.261 46.2738 16.186 46.5738 16.186C46.8078 16.186 47.0268 16.228 47.2308 16.312C47.4348 16.396 47.6118 16.525 47.7618 16.699C47.9118 16.867 48.0288 17.083 48.1128 17.347C48.2028 17.611 48.2478 17.926 48.2478 18.292C48.2478 18.964 48.1698 19.54 48.0138 20.02C47.8638 20.5 47.6658 20.896 47.4198 21.208C47.1798 21.514 46.9068 21.742 46.6008 21.892C46.2948 22.036 45.9918 22.108 45.6918 22.108ZM45.7818 21.01C45.9138 21.01 46.0488 20.941 46.1868 20.803C46.3248 20.659 46.4478 20.461 46.5558 20.209C46.6698 19.957 46.7598 19.654 46.8258 19.3C46.8978 18.946 46.9338 18.556 46.9338 18.13C46.9338 17.8 46.8918 17.578 46.8078 17.464C46.7238 17.344 46.6158 17.284 46.4838 17.284C46.3458 17.284 46.2078 17.356 46.0698 17.5C45.9378 17.638 45.8148 17.836 45.7008 18.094C45.5928 18.346 45.5028 18.652 45.4308 19.012C45.3648 19.366 45.3318 19.756 45.3318 20.182C45.3318 20.35 45.3408 20.488 45.3588 20.596C45.3828 20.698 45.4128 20.782 45.4488 20.848C45.4908 20.908 45.5388 20.95 45.5928 20.974C45.6528 20.998 45.7158 21.01 45.7818 21.01ZM50.0976 19.678C49.9236 19.678 49.7556 19.645 49.5936 19.579C49.4376 19.513 49.2996 19.417 49.1796 19.291C49.0656 19.165 48.9726 19.012 48.9006 18.832C48.8346 18.652 48.8016 18.448 48.8016 18.22C48.8016 17.89 48.8436 17.587 48.9276 17.311C49.0176 17.029 49.1376 16.786 49.2876 16.582C49.4436 16.378 49.6296 16.219 49.8456 16.105C50.0616 15.991 50.3016 15.934 50.5656 15.934C50.7396 15.934 50.9046 15.97 51.0606 16.042C51.2226 16.108 51.3606 16.204 51.4746 16.33C51.5946 16.456 51.6876 16.609 51.7536 16.789C51.8256 16.969 51.8616 17.17 51.8616 17.392C51.8616 17.722 51.8166 18.028 51.7266 18.31C51.6426 18.586 51.5226 18.826 51.3666 19.03C51.2166 19.234 51.0306 19.393 50.8086 19.507C50.5926 19.621 50.3556 19.678 50.0976 19.678ZM50.1876 18.832C50.3676 18.832 50.5236 18.706 50.6556 18.454C50.7876 18.202 50.8536 17.854 50.8536 17.41C50.8536 17.212 50.8206 17.059 50.7546 16.951C50.6946 16.837 50.6016 16.78 50.4756 16.78C50.2956 16.78 50.1396 16.906 50.0076 17.158C49.8756 17.41 49.8096 17.758 49.8096 18.202C49.8096 18.4 49.8396 18.556 49.8996 18.67C49.9656 18.778 50.0616 18.832 50.1876 18.832ZM49.6476 22.108L53.8776 15.952H54.6876L50.4576 22.108H49.6476ZM53.8776 22.108C53.7036 22.108 53.5356 22.075 53.3736 22.009C53.2176 21.943 53.0796 21.847 52.9596 21.721C52.8456 21.595 52.7526 21.442 52.6806 21.262C52.6146 21.082 52.5816 20.878 52.5816 20.65C52.5816 20.32 52.6236 20.017 52.7076 19.741C52.7976 19.459 52.9176 19.216 53.0676 19.012C53.2236 18.808 53.4096 18.649 53.6256 18.535C53.8416 18.421 54.0816 18.364 54.3456 18.364C54.5196 18.364 54.6846 18.4 54.8406 18.472C55.0026 18.538 55.1406 18.634 55.2546 18.76C55.3746 18.886 55.4676 19.039 55.5336 19.219C55.6056 19.399 55.6416 19.6 55.6416 19.822C55.6416 20.152 55.5966 20.458 55.5066 20.74C55.4226 21.016 55.3026 21.256 55.1466 21.46C54.9966 21.664 54.8106 21.823 54.5886 21.937C54.3726 22.051 54.1356 22.108 53.8776 22.108ZM53.9676 21.262C54.1476 21.262 54.3036 21.136 54.4356 20.884C54.5676 20.632 54.6336 20.284 54.6336 19.84C54.6336 19.642 54.6006 19.489 54.5346 19.381C54.4746 19.267 54.3816 19.21 54.2556 19.21C54.0756 19.21 53.9196 19.336 53.7876 19.588C53.6556 19.84 53.5896 20.188 53.5896 20.632C53.5896 20.83 53.6196 20.986 53.6796 21.1C53.7456 21.208 53.8416 21.262 53.9676 21.262Z" fill="black"/>
</svg>
