<svg width="65" height="29" viewBox="0 0 65 29" fill="none" xmlns="http://www.w3.org/2000/svg">
    <rect x="0.5" y="0.5" width="63.5263" height="28" fill="white" stroke="black" stroke-linecap="round" stroke-linejoin="round"/>
    <rect x="0.5" y="0.5" width="63.5263" height="28" fill="white" stroke="black" stroke-linecap="round" stroke-linejoin="round"/>
    <rect x="7" y="4" width="27" height="4.26316" fill="black"/>
    <rect x="7" y="10" width="18.4737" height="4.26316" fill="black"/>
    <path d="M14.872 24.108C14.698 24.108 14.521 24.09 14.341 24.054C14.161 24.018 13.981 23.961 13.801 23.883C13.627 23.799 13.456 23.691 13.288 23.559C13.126 23.421 12.976 23.256 12.838 23.064L13.738 22.326C13.894 22.536 14.071 22.695 14.269 22.803C14.473 22.905 14.662 22.956 14.836 22.956C15.106 22.956 15.316 22.902 15.466 22.794C15.622 22.68 15.7 22.518 15.7 22.308C15.7 22.194 15.682 22.095 15.646 22.011C15.61 21.921 15.541 21.846 15.439 21.786C15.343 21.726 15.208 21.681 15.034 21.651C14.866 21.621 14.65 21.606 14.386 21.606L14.584 20.598C14.86 20.598 15.088 20.58 15.268 20.544C15.454 20.502 15.598 20.448 15.7 20.382C15.808 20.31 15.883 20.229 15.925 20.139C15.967 20.043 15.988 19.938 15.988 19.824C15.988 19.668 15.934 19.545 15.826 19.455C15.718 19.365 15.568 19.32 15.376 19.32C15.25 19.32 15.124 19.347 14.998 19.401C14.878 19.455 14.728 19.536 14.548 19.644L13.864 18.726C14.17 18.516 14.467 18.375 14.755 18.303C15.043 18.225 15.34 18.186 15.646 18.186C15.91 18.186 16.153 18.219 16.375 18.285C16.597 18.351 16.789 18.447 16.951 18.573C17.113 18.693 17.239 18.84 17.329 19.014C17.419 19.188 17.464 19.38 17.464 19.59C17.464 19.95 17.377 20.253 17.203 20.499C17.035 20.745 16.726 20.946 16.276 21.102V21.138C16.582 21.264 16.801 21.432 16.933 21.642C17.071 21.852 17.14 22.08 17.14 22.326C17.14 22.62 17.08 22.878 16.96 23.1C16.846 23.322 16.687 23.508 16.483 23.658C16.279 23.808 16.039 23.922 15.763 24C15.487 24.072 15.19 24.108 14.872 24.108ZM19.6918 24.108C19.4578 24.108 19.2358 24.069 19.0258 23.991C18.8218 23.907 18.6418 23.781 18.4858 23.613C18.3358 23.439 18.2158 23.22 18.1258 22.956C18.0418 22.692 17.9998 22.38 17.9998 22.02C17.9998 21.348 18.0778 20.772 18.2338 20.292C18.3898 19.806 18.5908 19.407 18.8368 19.095C19.0828 18.783 19.3588 18.555 19.6648 18.411C19.9708 18.261 20.2738 18.186 20.5738 18.186C20.8078 18.186 21.0268 18.228 21.2308 18.312C21.4348 18.396 21.6118 18.525 21.7618 18.699C21.9118 18.867 22.0288 19.083 22.1128 19.347C22.2028 19.611 22.2478 19.926 22.2478 20.292C22.2478 20.964 22.1698 21.54 22.0138 22.02C21.8638 22.5 21.6658 22.896 21.4198 23.208C21.1798 23.514 20.9068 23.742 20.6008 23.892C20.2948 24.036 19.9918 24.108 19.6918 24.108ZM19.7818 23.01C19.9138 23.01 20.0488 22.941 20.1868 22.803C20.3248 22.659 20.4478 22.461 20.5558 22.209C20.6698 21.957 20.7598 21.654 20.8258 21.3C20.8978 20.946 20.9338 20.556 20.9338 20.13C20.9338 19.8 20.8918 19.578 20.8078 19.464C20.7238 19.344 20.6158 19.284 20.4838 19.284C20.3458 19.284 20.2078 19.356 20.0698 19.5C19.9378 19.638 19.8148 19.836 19.7008 20.094C19.5928 20.346 19.5028 20.652 19.4308 21.012C19.3648 21.366 19.3318 21.756 19.3318 22.182C19.3318 22.35 19.3408 22.488 19.3588 22.596C19.3828 22.698 19.4128 22.782 19.4488 22.848C19.4908 22.908 19.5388 22.95 19.5928 22.974C19.6528 22.998 19.7158 23.01 19.7818 23.01ZM24.0976 21.678C23.9236 21.678 23.7556 21.645 23.5936 21.579C23.4376 21.513 23.2996 21.417 23.1796 21.291C23.0656 21.165 22.9726 21.012 22.9006 20.832C22.8346 20.652 22.8016 20.448 22.8016 20.22C22.8016 19.89 22.8436 19.587 22.9276 19.311C23.0176 19.029 23.1376 18.786 23.2876 18.582C23.4436 18.378 23.6296 18.219 23.8456 18.105C24.0616 17.991 24.3016 17.934 24.5656 17.934C24.7396 17.934 24.9046 17.97 25.0606 18.042C25.2226 18.108 25.3606 18.204 25.4746 18.33C25.5946 18.456 25.6876 18.609 25.7536 18.789C25.8256 18.969 25.8616 19.17 25.8616 19.392C25.8616 19.722 25.8166 20.028 25.7266 20.31C25.6426 20.586 25.5226 20.826 25.3666 21.03C25.2166 21.234 25.0306 21.393 24.8086 21.507C24.5926 21.621 24.3556 21.678 24.0976 21.678ZM24.1876 20.832C24.3676 20.832 24.5236 20.706 24.6556 20.454C24.7876 20.202 24.8536 19.854 24.8536 19.41C24.8536 19.212 24.8206 19.059 24.7546 18.951C24.6946 18.837 24.6016 18.78 24.4756 18.78C24.2956 18.78 24.1396 18.906 24.0076 19.158C23.8756 19.41 23.8096 19.758 23.8096 20.202C23.8096 20.4 23.8396 20.556 23.8996 20.67C23.9656 20.778 24.0616 20.832 24.1876 20.832ZM23.6476 24.108L27.8776 17.952H28.6876L24.4576 24.108H23.6476ZM27.8776 24.108C27.7036 24.108 27.5356 24.075 27.3736 24.009C27.2176 23.943 27.0796 23.847 26.9596 23.721C26.8456 23.595 26.7526 23.442 26.6806 23.262C26.6146 23.082 26.5816 22.878 26.5816 22.65C26.5816 22.32 26.6236 22.017 26.7076 21.741C26.7976 21.459 26.9176 21.216 27.0676 21.012C27.2236 20.808 27.4096 20.649 27.6256 20.535C27.8416 20.421 28.0816 20.364 28.3456 20.364C28.5196 20.364 28.6846 20.4 28.8406 20.472C29.0026 20.538 29.1406 20.634 29.2546 20.76C29.3746 20.886 29.4676 21.039 29.5336 21.219C29.6056 21.399 29.6416 21.6 29.6416 21.822C29.6416 22.152 29.5966 22.458 29.5066 22.74C29.4226 23.016 29.3026 23.256 29.1466 23.46C28.9966 23.664 28.8106 23.823 28.5886 23.937C28.3726 24.051 28.1356 24.108 27.8776 24.108ZM27.9676 23.262C28.1476 23.262 28.3036 23.136 28.4356 22.884C28.5676 22.632 28.6336 22.284 28.6336 21.84C28.6336 21.642 28.6006 21.489 28.5346 21.381C28.4746 21.267 28.3816 21.21 28.2556 21.21C28.0756 21.21 27.9196 21.336 27.7876 21.588C27.6556 21.84 27.5896 22.188 27.5896 22.632C27.5896 22.83 27.6196 22.986 27.6796 23.1C27.7456 23.208 27.8416 23.262 27.9676 23.262Z" fill="black"/>
    <path d="M36.872 24.108C36.53 24.108 36.191 24.033 35.855 23.883C35.519 23.727 35.21 23.454 34.928 23.064L35.828 22.326C36.14 22.746 36.494 22.956 36.89 22.956C37.124 22.956 37.328 22.878 37.502 22.722C37.682 22.566 37.772 22.344 37.772 22.056C37.772 21.828 37.712 21.657 37.592 21.543C37.472 21.429 37.304 21.372 37.088 21.372C37.022 21.372 36.962 21.375 36.908 21.381C36.854 21.387 36.797 21.399 36.737 21.417C36.683 21.435 36.62 21.462 36.548 21.498C36.476 21.528 36.392 21.57 36.296 21.624L35.774 21.192L36.476 18.294H39.698L39.464 19.5H37.484L37.232 20.4C37.316 20.364 37.394 20.34 37.466 20.328C37.538 20.316 37.616 20.31 37.7 20.31C37.916 20.31 38.117 20.343 38.303 20.409C38.489 20.475 38.651 20.571 38.789 20.697C38.927 20.823 39.035 20.982 39.113 21.174C39.191 21.36 39.23 21.576 39.23 21.822C39.23 22.176 39.161 22.494 39.023 22.776C38.891 23.058 38.714 23.298 38.492 23.496C38.276 23.694 38.024 23.847 37.736 23.955C37.454 24.057 37.166 24.108 36.872 24.108ZM41.6918 24.108C41.4578 24.108 41.2358 24.069 41.0258 23.991C40.8218 23.907 40.6418 23.781 40.4858 23.613C40.3358 23.439 40.2158 23.22 40.1258 22.956C40.0418 22.692 39.9998 22.38 39.9998 22.02C39.9998 21.348 40.0778 20.772 40.2338 20.292C40.3898 19.806 40.5908 19.407 40.8368 19.095C41.0828 18.783 41.3588 18.555 41.6648 18.411C41.9708 18.261 42.2738 18.186 42.5738 18.186C42.8078 18.186 43.0268 18.228 43.2308 18.312C43.4348 18.396 43.6118 18.525 43.7618 18.699C43.9118 18.867 44.0288 19.083 44.1128 19.347C44.2028 19.611 44.2478 19.926 44.2478 20.292C44.2478 20.964 44.1698 21.54 44.0138 22.02C43.8638 22.5 43.6658 22.896 43.4198 23.208C43.1798 23.514 42.9068 23.742 42.6008 23.892C42.2948 24.036 41.9918 24.108 41.6918 24.108ZM41.7818 23.01C41.9138 23.01 42.0488 22.941 42.1868 22.803C42.3248 22.659 42.4478 22.461 42.5558 22.209C42.6698 21.957 42.7598 21.654 42.8258 21.3C42.8978 20.946 42.9338 20.556 42.9338 20.13C42.9338 19.8 42.8918 19.578 42.8078 19.464C42.7238 19.344 42.6158 19.284 42.4838 19.284C42.3458 19.284 42.2078 19.356 42.0698 19.5C41.9378 19.638 41.8148 19.836 41.7008 20.094C41.5928 20.346 41.5028 20.652 41.4308 21.012C41.3648 21.366 41.3318 21.756 41.3318 22.182C41.3318 22.35 41.3408 22.488 41.3588 22.596C41.3828 22.698 41.4128 22.782 41.4488 22.848C41.4908 22.908 41.5388 22.95 41.5928 22.974C41.6528 22.998 41.7158 23.01 41.7818 23.01ZM46.0976 21.678C45.9236 21.678 45.7556 21.645 45.5936 21.579C45.4376 21.513 45.2996 21.417 45.1796 21.291C45.0656 21.165 44.9726 21.012 44.9006 20.832C44.8346 20.652 44.8016 20.448 44.8016 20.22C44.8016 19.89 44.8436 19.587 44.9276 19.311C45.0176 19.029 45.1376 18.786 45.2876 18.582C45.4436 18.378 45.6296 18.219 45.8456 18.105C46.0616 17.991 46.3016 17.934 46.5656 17.934C46.7396 17.934 46.9046 17.97 47.0606 18.042C47.2226 18.108 47.3606 18.204 47.4746 18.33C47.5946 18.456 47.6876 18.609 47.7536 18.789C47.8256 18.969 47.8616 19.17 47.8616 19.392C47.8616 19.722 47.8166 20.028 47.7266 20.31C47.6426 20.586 47.5226 20.826 47.3666 21.03C47.2166 21.234 47.0306 21.393 46.8086 21.507C46.5926 21.621 46.3556 21.678 46.0976 21.678ZM46.1876 20.832C46.3676 20.832 46.5236 20.706 46.6556 20.454C46.7876 20.202 46.8536 19.854 46.8536 19.41C46.8536 19.212 46.8206 19.059 46.7546 18.951C46.6946 18.837 46.6016 18.78 46.4756 18.78C46.2956 18.78 46.1396 18.906 46.0076 19.158C45.8756 19.41 45.8096 19.758 45.8096 20.202C45.8096 20.4 45.8396 20.556 45.8996 20.67C45.9656 20.778 46.0616 20.832 46.1876 20.832ZM45.6476 24.108L49.8776 17.952H50.6876L46.4576 24.108H45.6476ZM49.8776 24.108C49.7036 24.108 49.5356 24.075 49.3736 24.009C49.2176 23.943 49.0796 23.847 48.9596 23.721C48.8456 23.595 48.7526 23.442 48.6806 23.262C48.6146 23.082 48.5816 22.878 48.5816 22.65C48.5816 22.32 48.6236 22.017 48.7076 21.741C48.7976 21.459 48.9176 21.216 49.0676 21.012C49.2236 20.808 49.4096 20.649 49.6256 20.535C49.8416 20.421 50.0816 20.364 50.3456 20.364C50.5196 20.364 50.6846 20.4 50.8406 20.472C51.0026 20.538 51.1406 20.634 51.2546 20.76C51.3746 20.886 51.4676 21.039 51.5336 21.219C51.6056 21.399 51.6416 21.6 51.6416 21.822C51.6416 22.152 51.5966 22.458 51.5066 22.74C51.4226 23.016 51.3026 23.256 51.1466 23.46C50.9966 23.664 50.8106 23.823 50.5886 23.937C50.3726 24.051 50.1356 24.108 49.8776 24.108ZM49.9676 23.262C50.1476 23.262 50.3036 23.136 50.4356 22.884C50.5676 22.632 50.6336 22.284 50.6336 21.84C50.6336 21.642 50.6006 21.489 50.5346 21.381C50.4746 21.267 50.3816 21.21 50.2556 21.21C50.0756 21.21 49.9196 21.336 49.7876 21.588C49.6556 21.84 49.5896 22.188 49.5896 22.632C49.5896 22.83 49.6196 22.986 49.6796 23.1C49.7456 23.208 49.8416 23.262 49.9676 23.262Z" fill="black"/>
</svg>
