<?xml version="1.0" encoding="utf-8"?>
<!-- Generator: Adobe Illustrator 21.1.0, SVG Export Plug-In . SVG Version: 6.00 Build 0)  -->
<svg version="1.1" xmlns="http://www.w3.org/2000/svg" xmlns:xlink="http://www.w3.org/1999/xlink" x="0px" y="0px"
	 viewBox="0 0 600 195.3" enable-background="new 0 0 600 195.3" xml:space="preserve">
<g id="Layer_1">
	<g>
		<g>
			<rect y="-0.3" fill="#FFFFFF" width="600" height="195.5"/>
		</g>
		<g>
			<g>
				
					<rect x="486.2" y="75.5" transform="matrix(0.7071 -0.7071 0.7071 0.7071 78.9074 390.271)" fill="#E3F9FF" width="48.7" height="48.7"/>
				<path fill="#0A5995" d="M510.6,136.5L474,99.9l36.6-36.6l36.6,36.6L510.6,136.5z M478.2,99.9l32.3,32.3l32.3-32.3l-32.3-32.3
					L478.2,99.9z"/>
			</g>
			<g>
				<path fill="#E3F9FF" d="M379.3,65.4v46.1h0c0.4,12.6,25.9,22.8,25.9,22.8s25.5-10.2,25.9-22.8h0V65.4H379.3z"/>
				<path fill="#0A5995" d="M405.2,135.9l-0.6-0.2c-1-0.4-24.6-10-26.7-22.7h-0.1l0-1.5V63.9h54.9v49.1h-0.2
					c-2.1,12.7-25.7,22.3-26.7,22.7L405.2,135.9z M380.8,111.1l0,0.4c0.3,9.3,17.2,18.2,24.4,21.2c3.6-1.5,24.1-10.7,24.4-21.2
					l0-0.5v-44h-48.9V111.1z"/>
			</g>
			<g>
				<polygon fill="#E3F9FF" points="164.8,82.7 164.8,117.1 194.6,134.3 224.5,117.1 224.5,82.7 194.6,65.4 				"/>
				<path fill="#0A5995" d="M194.6,136.1L163.3,118V81.8l31.3-18.1L226,81.8V118L194.6,136.1z M166.3,116.2l28.3,16.4l28.3-16.4
					V83.5l-28.3-16.4l-28.3,16.4V116.2z"/>
			</g>
			<g>
				<polygon fill="#E3F9FF" points="299.9,65.4 306.3,71.9 314.9,68.8 317.8,77.4 326.9,78.4 325.8,87.4 333.5,92.2 328.7,99.9 
					333.5,107.6 325.8,112.3 326.9,121.4 317.8,122.3 314.9,130.9 306.3,127.9 299.9,134.3 293.6,127.9 285,130.9 282,122.3 
					273,121.4 274.1,112.3 266.4,107.6 271.2,99.9 266.4,92.2 274.1,87.4 273,78.4 282,77.4 285,68.8 293.6,71.9 				"/>
				<path fill="#0A5995" d="M299.9,136.5l-6.8-6.9l-9.1,3.2l-3.1-9.1l-9.6-1l1.1-9.6l-8.2-5.1l5.2-8.1l-5.2-8.1l8.2-5.1l-1.1-9.6
					l9.6-1l3.1-9.1l9.1,3.2l6.8-6.9l6.8,6.9l9.1-3.2l3.1,9.1l9.6,1l-1.1,9.6l8.2,5.1l-5.2,8.1l5.2,8.1l-8.2,5.1l1.1,9.6l-9.6,1
					l-3.1,9.1l-9.1-3.2L299.9,136.5z M294,126.1l6,6.1l6-6.1l8,2.9l2.8-8.1l8.5-0.9l-1-8.5l7.2-4.5l-4.6-7.2l4.6-7.2l-7.2-4.5l1-8.5
					l-8.5-0.9l-2.8-8.1l-8,2.9l-6-6.1l-6,6.1l-8-2.9l-2.8,8.1l-8.5,0.9l1,8.5l-7.2,4.5l4.6,7.2l-4.6,7.2l7.2,4.5l-1,8.5l8.5,0.9
					l2.8,8.1L294,126.1z"/>
			</g>
			<g>
				<circle fill="#E3F9FF" cx="89.3" cy="99.9" r="34.4"/>
				<path fill="#0A5995" d="M89.3,135.8c-19.8,0-35.9-16.1-35.9-35.9s16.1-35.9,35.9-35.9s35.9,16.1,35.9,35.9
					S109.2,135.8,89.3,135.8z M89.3,66.9c-18.2,0-32.9,14.8-32.9,32.9s14.8,32.9,32.9,32.9s32.9-14.8,32.9-32.9
					S107.5,66.9,89.3,66.9z"/>
			</g>
		</g>
	</g>
</g>
<g id="Layer_2">
</g>
</svg>
