<?xml version="1.0" encoding="utf-8"?>
<!-- Generator: Adobe Illustrator 21.1.0, SVG Export Plug-In . SVG Version: 6.00 Build 0)  -->
<svg version="1.1" xmlns="http://www.w3.org/2000/svg" xmlns:xlink="http://www.w3.org/1999/xlink" x="0px" y="0px"
	 viewBox="0 0 134 92" enable-background="new 0 0 134 92" xml:space="preserve">
<g id="Layer_1">
	<rect x="32.4" y="20.8" fill="#FFFFFF" width="70" height="51.9"/>
	<g>
		<path d="M14.5,37.7v10.9H121V37.7H14.5z M62.7,44.6H18.1v-2.4h44.6V44.6z M112.8,45.9l2.5-4.3l2.5,4.3L112.8,45.9z"/>
		<path d="M14.5,70.9v10.9H121V70.9H14.5z M62.7,77.2H18.1v-2.4h44.6V77.2z M115.3,79.1l-2.5-4.3l4.9,0L115.3,79.1z"/>
		<g>
			<path d="M119.9,49.6v19.1H15.6V49.6H119.9 M120.9,48.6H14.6v21.1h106.3V48.6L120.9,48.6z"/>
		</g>
		<rect x="18.2" y="55.3" width="81.5" height="1.6"/>
		<rect x="18.2" y="52.1" width="81.5" height="1.6"/>
		<rect x="18.2" y="58.5" width="83.7" height="1.6"/>
		<rect x="18.2" y="61.7" width="60.4" height="1.6"/>
	</g>
	<rect x="39.7" y="12.2" width="56.5" height="4.9"/>
	<rect x="25.5" y="23.4" width="82.5" height="2"/>
	<rect x="32.5" y="28.5" width="71" height="2"/>
</g>
<g id="Layer_2">
</g>
</svg>
