<?xml version="1.0" encoding="utf-8"?>
<!-- Generator: Adobe Illustrator 21.0.2, SVG Export Plug-In . SVG Version: 6.00 Build 0)  -->
<svg version="1.1" id="Layer_1" xmlns="http://www.w3.org/2000/svg" xmlns:xlink="http://www.w3.org/1999/xlink" x="0px" y="0px"
	 viewBox="0 0 134 92" enable-background="new 0 0 134 92" xml:space="preserve">
<g>
	<path d="M13.5,11.8v68.4h107.1V11.8H13.5z M116.3,75.6H18.5V16.3h97.8V75.6z"/>
</g>
<polygon points="62.6,65 89.2,57.8 79.1,18.8 54.7,25.7 "/>
<g>
	<path fill="none" d="M28.8,39.6c-2.5,0-4.5,1.8-4.5,4.1c0,3.8,4.5,7.8,4.5,7.8s4.5-4.1,4.5-7.8C33.2,41.4,31.2,39.6,28.8,39.6z
		 M28.8,45.6c-1.2,0-2.2-1-2.2-2.2c0-1.2,1-2.2,2.2-2.2s2.2,1,2.2,2.2C31,44.6,30,45.6,28.8,45.6z"/>
	<polygon points="61.1,68.2 64.3,79.3 95.2,77 91.7,64.3 75.7,64.3 	"/>
	<polygon points="113.7,54.8 113.7,64.3 94,64.3 97.9,78.2 118.4,78 116.7,54 	"/>
	<polygon points="66.8,22.4 49,27 60.3,65.6 66.8,63.9 	"/>
	<polygon points="82.1,15.5 66.8,14 45.3,13.8 48.3,24.4 	"/>
	<path d="M33.9,31.2L16.7,36l0.1,24.7l24-6.2L33.9,31.2z M28.8,51.5c0,0-4.5-4.1-4.5-7.8c0-2.3,2-4.1,4.5-4.1s4.5,1.8,4.5,4.1
		C33.2,47.5,28.8,51.5,28.8,51.5z"/>
	<circle cx="28.8" cy="43.3" r="2.2"/>
	<polygon points="33.3,61.3 16.9,65.3 17,77.4 36.7,72.5 	"/>
	<polygon points="19,79.5 59.6,79.3 56.7,69.4 	"/>
	<polygon points="39.2,71.8 56,66.9 52.8,55.6 35.9,60.6 	"/>
	<polygon points="43.3,53.8 51.6,51.3 44.8,28.2 36.5,30.5 	"/>
	<polygon points="113.7,37.6 118.1,36.5 117.5,12.8 93.1,15.7 97,28.6 113.7,28.6 	"/>
	<polygon points="120.4,49.7 119.9,37.8 113.7,39.6 113.7,51.8 	"/>
	<polygon points="89.7,16.5 81.1,18.5 84.1,28.6 93.4,28.6 	"/>
	<polygon points="44.1,25.7 40.6,13.6 16.7,13.5 16.7,33.3 	"/>
	<polygon fill="#FFFFFF" points="113.7,54.8 113.7,51.8 113.7,39.6 113.7,37.6 113.7,28.6 97,28.6 93.4,28.6 84.1,28.6 68.2,28.6 
		68.2,64.3 75.7,64.3 91.7,64.3 94,64.3 113.7,64.3 	"/>
</g>
<rect x="73" y="34" width="35.5" height="5.1"/>
<rect x="73" y="41" width="32.3" height="5.1"/>
<rect x="73" y="53" width="33.9" height="2.1"/>
<rect x="73" y="49.8" width="33.9" height="2.1"/>
<rect x="73" y="56.5" width="19" height="2.1"/>
</svg>
