<?xml version="1.0" encoding="utf-8"?>
<!-- Generator: Adobe Illustrator 21.0.2, SVG Export Plug-In . SVG Version: 6.00 Build 0)  -->
<svg version="1.1" id="Layer_1" xmlns="http://www.w3.org/2000/svg" xmlns:xlink="http://www.w3.org/1999/xlink" x="0px" y="0px"
	 viewBox="0 0 134 92" enable-background="new 0 0 134 92" xml:space="preserve">
<g>
	<path d="M13.5,11.8v68.4h107.1V11.8H13.5z M116.3,75.6H18.5V16.3h97.8V75.6z"/>
</g>
<polygon points="71.5,65 44.8,57.8 55,18.8 79.3,25.7 "/>
<rect x="15.3" y="33.2" width="5.7" height="9.3"/>
<g>
	<path fill="none" d="M106,52.3c0,0,4.5-4.1,4.5-7.8c0-2.3-2-4.1-4.5-4.1s-4.5,1.8-4.5,4.1C101.5,48.3,106,52.3,106,52.3z
		 M103.8,44.1c0-1.2,1-2.2,2.2-2.2s2.2,1,2.2,2.2c0,1.2-1,2.2-2.2,2.2S103.8,45.4,103.8,44.1z"/>
	<polygon points="42.4,64.3 38.8,77 69.8,79.3 73,68.2 58.4,64.3 	"/>
	<polygon points="19.7,54.6 17.3,54 15.7,78 36.2,78.2 40.1,64.3 19.7,64.3 	"/>
	<polygon points="67.2,22.4 67.2,63.9 73.8,65.6 85,27 	"/>
	<polygon points="88.7,13.8 67.2,14 52,15.5 85.7,24.4 	"/>
	<path d="M93.3,54.5l24,6.2l0.1-24.7l-17.2-4.8L93.3,54.5z M106,40.4c2.5,0,4.5,1.8,4.5,4.1c0,3.8-4.5,7.8-4.5,7.8s-4.5-4.1-4.5-7.8
		C101.5,42.2,103.5,40.4,106,40.4z"/>
	<circle cx="106" cy="44.1" r="2.2"/>
	<polygon points="97.4,72.5 117,77.4 117.2,65.3 100.7,61.3 	"/>
	<polygon points="74.5,79.3 115.1,79.5 77.3,69.4 	"/>
	<polygon points="78,66.9 94.8,71.8 98.2,60.6 81.3,55.6 	"/>
	<polygon points="90.7,53.8 97.6,30.5 89.2,28.2 82.4,51.3 	"/>
	<polygon points="37,28.6 40.9,15.7 18.5,12.5 16,36.5 19.7,37.4 19.7,28.6 	"/>
	<polygon points="14.2,37.8 13.7,49.7 19.7,51.6 19.7,39.4 	"/>
	<polygon points="52.9,18.5 44.3,16.5 40.6,28.6 49.9,28.6 	"/>
	<polygon points="117.4,13.5 93.5,13.6 89.9,25.7 117.3,33.3 	"/>
	<polygon fill="#FFFFFF" points="65.2,64.3 65.2,28.6 49.9,28.6 40.6,28.6 37,28.6 19.7,28.6 19.7,37.4 19.7,39.4 19.7,51.6 
		19.7,54.6 19.7,64.3 40.1,64.3 42.4,64.3 58.4,64.3 	"/>
</g>
<rect x="24.5" y="34" width="35.5" height="5.1"/>
<rect x="24.5" y="41" width="32.3" height="5.1"/>
<rect x="24.5" y="53" width="33.9" height="2.1"/>
<rect x="24.5" y="49.8" width="33.9" height="2.1"/>
<rect x="24.5" y="56.5" width="19" height="2.1"/>
<circle cx="106" cy="44.1" r="2.2"/>
</svg>
