<?xml version="1.0" encoding="UTF-8"?>
<svg width="108px" height="70px" viewBox="0 0 108 70" version="1.1" xmlns="http://www.w3.org/2000/svg" xmlns:xlink="http://www.w3.org/1999/xlink">
    <!-- Generator: Sketch 57.1 (83088) - https://sketch.com -->
    <title>Media + Text - Layout Icon - Boxed</title>
    <desc>Created with Sketch.</desc>
    <g id="Media-+-Text---Layout-Icon---Boxed" stroke="none" stroke-width="1" fill="none" fill-rule="evenodd">
        <g id="Group-5" transform="translate(10.000000, 18.000000)">
            <g id="Group" transform="translate(11.000000, 9.000000)" fill="#000000" fill-rule="nonzero">
                <path d="M5.08978873,0 L7.07394366,0 L12.25,13.6111111 L10.4383803,13.6111111 L9.1443662,10.0381944 L3.1056338,10.0381944 L1.81161972,13.6111111 L0,13.6111111 L5.08978873,0 Z M3.62323944,8.50694444 L8.62676056,8.50694444 L6.125,1.44618056 L3.62323944,8.50694444 Z" id="Shape"></path>
                <path d="M20.1444444,13.1444444 L20.1444444,11.4203704 C19.4567251,12.6907407 18.2532164,13.4166667 16.705848,13.4166667 C14.728655,13.4166667 13.6111111,12.237037 13.6111111,10.3314815 C13.6111111,8.1537037 15.0725146,7.06481481 17.0497076,7.06481481 L20.0584795,7.06481481 L20.0584795,6.06666667 C20.0584795,4.70555556 19.2847953,4.07037037 17.7374269,4.07037037 C16.619883,4.07037037 15.5883041,4.34259259 14.6426901,4.7962963 L14.2988304,3.34444444 C15.4163743,2.8 16.619883,2.52777778 17.9093567,2.52777778 C20.4883041,2.52777778 21.7777778,3.61666667 21.7777778,5.97592593 L21.7777778,13.1444444 L20.1444444,13.1444444 L20.1444444,13.1444444 Z M20.0584795,8.42592593 L17.3076023,8.42592593 C15.9321637,8.42592593 15.3304094,9.06111111 15.3304094,10.2407407 C15.3304094,11.4203704 16.0181287,11.9648148 17.2216374,11.9648148 C18.8549708,11.9648148 20.0584795,10.6037037 20.0584795,8.97037037 L20.0584795,8.42592593 Z" id="Shape"></path>
            </g>
            <g id="Group-2" stroke="#000000">
                <rect id="Rectangle" stroke-width="2" x="44" y="1" width="43" height="31"></rect>
                <rect id="Rectangle" stroke-width="2" x="1" y="1" width="43" height="31"></rect>
                <g id="Group-3" transform="translate(52.000000, 9.000000)">
                    <g id="np_image_1526143_000000">
                        <g id="Group-4">
                            <path d="M16.5675274,10.0747173 L9.58091925,0 L0,13.9354839 L27,13.9354839 L20.24941,5.50865468 L16.5675274,10.0747173 Z M14.4433644,12.9934568 L1.79232154,12.9934568 L9.58091925,1.69365236 L17.4176646,12.9934568 L14.4433644,12.9934568 Z M18.5497019,12.9934568 L17.0874753,10.9225793 L20.2497404,7.01435363 L25.0640378,12.9933627 L18.5497019,12.9934568 Z" id="Shape" stroke-width="0.5" fill="#000000" fill-rule="nonzero"></path>
                            <circle id="Oval" stroke-width="1.25" cx="21.7741935" cy="2.17741935" r="1.74193548"></circle>
                        </g>
                    </g>
                </g>
            </g>
        </g>
    </g>
</svg>