<?xml version="1.0" encoding="utf-8"?>
<!-- Generator: Adobe Illustrator 21.1.0, SVG Export Plug-In . SVG Version: 6.00 Build 0)  -->
<svg version="1.1" id="Layer_1" xmlns="http://www.w3.org/2000/svg" xmlns:xlink="http://www.w3.org/1999/xlink" x="0px" y="0px"
	 viewBox="0 0 134 92" enable-background="new 0 0 134 92" xml:space="preserve">
<path fill-rule="evenodd" clip-rule="evenodd" d="M33.7,57.6H19c-1.4,0-2.5,1.1-2.5,2.5c0,1.4,1.1,2.5,2.5,2.5h14.7
	c1.4,0,2.5-1.1,2.5-2.5C36.1,58.7,35,57.6,33.7,57.6z M19,54.8c-2.9,0-5.3,2.4-5.3,5.3c0,2.9,2.4,5.3,5.3,5.3h14.7
	c2.9,0,5.3-2.4,5.3-5.3c0-2.9-2.4-5.3-5.3-5.3H19z"/>
<path fill-rule="evenodd" clip-rule="evenodd" d="M60.9,57.6H46.2c-1.4,0-2.5,1.1-2.5,2.5c0,1.4,1.1,2.5,2.5,2.5h14.7
	c1.4,0,2.5-1.1,2.5-2.5C63.4,58.7,62.3,57.6,60.9,57.6z M46.2,54.8c-2.9,0-5.3,2.4-5.3,5.3c0,2.9,2.4,5.3,5.3,5.3h14.7
	c2.9,0,5.3-2.4,5.3-5.3c0-2.9-2.4-5.3-5.3-5.3H46.2z"/>
<path fill-rule="evenodd" clip-rule="evenodd" d="M88.7,57.6H74c-1.4,0-2.5,1.1-2.5,2.5c0,1.4,1.1,2.5,2.5,2.5h14.7
	c1.4,0,2.5-1.1,2.5-2.5C91.1,58.7,90,57.6,88.7,57.6z M74,54.8c-2.9,0-5.3,2.4-5.3,5.3c0,2.9,2.4,5.3,5.3,5.3h14.7
	c2.9,0,5.3-2.4,5.3-5.3c0-2.9-2.4-5.3-5.3-5.3H74z"/>
<path fill-rule="evenodd" clip-rule="evenodd" d="M115.7,57.6H101c-1.4,0-2.5,1.1-2.5,2.5c0,1.4,1.1,2.5,2.5,2.5h14.7
	c1.4,0,2.5-1.1,2.5-2.5C118.1,58.7,117,57.6,115.7,57.6z M101,54.8c-2.9,0-5.3,2.4-5.3,5.3c0,2.9,2.4,5.3,5.3,5.3h14.7
	c2.9,0,5.3-2.4,5.3-5.3c0-2.9-2.4-5.3-5.3-5.3H101z"/>
<rect x="30.2" y="27.8" transform="matrix(0.9999 -1.618934e-02 1.618934e-02 0.9999 -0.4895 1.0961)" width="74.4" height="6.1"/>
<rect x="35.6" y="37.1" width="64.1" height="6.1"/>
</svg>
