<?xml version="1.0" encoding="utf-8"?>
<svg version="1.1" id="Isolation_Mode" xmlns="http://www.w3.org/2000/svg" xmlns:xlink="http://www.w3.org/1999/xlink" x="0px"
	 y="0px" viewBox="0 0 75 66" enable-background="new 0 0 75 66" xml:space="preserve">
<g>
	<path fill="none" d="M27.3,12.2l4.4,1.5c0.7,0.2,1.5,0.2,2.1,0l12.5-4.2c0.3-0.1,0.3-0.5,0-0.6l-5.3-1.6c-0.1,0-0.2,0-0.2,0
		l-13.4,4.4C26.9,11.7,26.9,12.1,27.3,12.2z"/>
	<path class="cls-1" d="M35.3,25.4l-11.1-3.5c-0.4-0.1-0.8-0.1-1.1,0.2c-0.3,0.2-0.5,0.5-0.5,0.9l-0.1,13.4
		c0,0.4-0.6,0.6-0.9,0.2L11.4,18.3c-0.2-0.4-0.5-0.6-1-0.8l-8.9-2.8c-0.7,1-1,2.2-1,3.4v3.2l0,0L0.4,45.7l0,0v3.7
		c0,3.1,2.4,5.8,5.6,6.6l6.1,2.1c0,0,0.1,0,0.1,0c0.3-0.2,0.5-0.5,0.5-0.9l0.1-12.6c0-0.4,0.6-0.6,0.9-0.2l10,17.6l9.4,3.2
		c0.5,0.2,1,0.3,1.5,0.4c0.2,0,0.4-0.1,0.6-0.2c0.3-0.2,0.5-0.5,0.5-0.9l0.5-38C36.1,25.9,35.8,25.5,35.3,25.4z"/>
	<path class="cls-1" d="M69,55.8c3.2-0.8,5.7-3.4,5.7-6.6v-5.4l0-0.5c-0.1,0-0.2,0-0.3,0.1l-19.2,5.9
		c-0.1,0-0.3,0-0.4,0c-0.1,0-0.1-0.1-0.1-0.2l0-3.2c0-0.1,0.1-0.2,0.2-0.2l13.7-4.3c0.7-0.2,1.1-0.8,1.1-1.4l0-6.8
		c0-0.5-0.2-0.9-0.7-1.2c-0.4-0.3-1-0.4-1.5-0.2L55,35.6c-0.1,0-0.3,0-0.4,0c-0.1,0-0.1-0.1-0.1-0.2l0-2.1c0-0.1,0.1-0.2,0.2-0.2
		L73,26.2c0.6-0.2,1-0.8,1-1.4l0-8.1c0,0,0-0.1,0-0.1c-0.1-0.3-0.2-0.6-0.4-0.8c-0.1-0.1-0.2-0.2-0.3-0.2c-0.4-0.3-1-0.4-1.6-0.2
		L40.7,25.4c-0.7,0.2-1.1,0.8-1.1,1.4V64c0,0.5,0.2,0.9,0.7,1.2c0,0,0.1,0,0.1,0L69,55.8L69,55.8z"/>
	<path class="cls-1" d="M35.7,22.1c0.8,0.3,1.7,0.4,2.6,0.4c0.9,0,1.7-0.1,2.6-0.4l28.7-9.1c0.7-0.2,1.2-0.8,1.2-1.5
		c0-0.1,0-0.2,0-0.3c-0.6-0.4-1.3-0.7-2-0.8l0.1-0.1h0L41.3,1.1c-1.8-0.7-3.9-0.9-5.8-0.2l-7.2,2.4l-0.2,0l-20.8,7
		C6.1,10.7,5,11.2,4.1,12L35.7,22.1z M28.6,11.6L42,7.2c0.1,0,0.2,0,0.2,0l5.3,1.6c0.3,0.1,0.3,0.5,0,0.6l-12.5,4.2
		c-0.7,0.2-1.5,0.2-2.1,0l-4.4-1.5C28.3,12.1,28.3,11.7,28.6,11.6z"/>
</g>
</svg>
