<?xml version="1.0" encoding="utf-8"?>
<!-- Generator: Adobe Illustrator 21.1.0, SVG Export Plug-In . SVG Version: 6.00 Build 0)  -->
<svg version="1.1" xmlns="http://www.w3.org/2000/svg" xmlns:xlink="http://www.w3.org/1999/xlink" x="0px" y="0px"
	 viewBox="0 0 600 356" enable-background="new 0 0 600 356" xml:space="preserve">
<g id="Layer_1">
	<g>
		<g>
			<defs>
				<rect id="SVGID_1_" x="680.7" y="-0.3" width="600" height="322.6"/>
			</defs>
			<clipPath id="SVGID_2_">
				<use xlink:href="#SVGID_1_"  overflow="visible"/>
			</clipPath>
			<g clip-path="url(#SVGID_2_)">
				<path fill="#0A5995" d="M1017.1,385c3.5,2,8.2,1.4,11.1-1.4l125.3-123l188.1,102.6l-4.2-23.8l-180.9-98.8
					c-3.5-2-8.2-1.4-11.1,1.4l-125.5,123.4L803.7,245.5c-2.4-1.4-5.5-1.7-8.2-0.6c-1.1,0.5-2.1,1.2-2.9,2l-211.9,209l3.9,22.3
					l216.3-213.1L1017.1,385z"/>
				<path fill="#E3F9FF" d="M579.7,493.6l-7.1-40.3l214.7-211.8c1.4-1.5,3.2-2.7,5.2-3.5l0.3-0.1c4.7-1.8,10.1-1.4,14.5,1.1
					l211.3,117.2l121.6-119.6c5.2-5,13.6-6,19.9-2.5l184,100.5l7.5,42.7l-196.9-107.4l-121.4,119.2c-5.3,5-13.6,6-20,2.5
					L802.2,274.4L579.7,493.6z M588.7,458.5l0.8,4.4l210.1-207l221.2,122.7c0.6,0.3,1.7,0.2,2.2-0.3l129.2-126.9l179.3,97.8
					l-0.9-4.9l-177.8-97.1c-0.6-0.3-1.7-0.2-2.2,0.3l-129.5,127.2L800,252c-0.5-0.3-1.1-0.3-1.6-0.2c-0.2,0.1-0.3,0.2-0.4,0.3
					L588.7,458.5z"/>
			</g>
		</g>
	</g>
	<g>
		<g>
			<rect y="-0.3" fill="#FFFFFF" width="600" height="355.7"/>
		</g>
		<g>
			<g>
				<rect x="19" y="143.2" fill="#E3F9FF" width="130.7" height="128.8"/>
				<path fill="#0A5995" d="M151.2,273.5H17.5V141.7h133.7V273.5z M20.5,270.5h127.7V144.7H20.5V270.5z"/>
			</g>
		</g>
		<g>
			<g>
				<rect x="163" y="143.2" fill="#E3F9FF" width="130.7" height="128.8"/>
				<path fill="#0A5995" d="M295.2,273.5H161.5V141.7h133.7V273.5z M164.5,270.5h127.7V144.7H164.5V270.5z"/>
			</g>
		</g>
		<g>
			<g>
				<rect x="306" y="143.2" fill="#E3F9FF" width="130.7" height="128.8"/>
				<path fill="#0A5995" d="M438.2,273.5H304.5V141.7h133.7V273.5z M307.5,270.5h127.7V144.7H307.5V270.5z"/>
			</g>
		</g>
		<g>
			<g>
				<rect x="449.7" y="143.2" fill="#E3F9FF" width="130.7" height="128.8"/>
				<path fill="#0A5995" d="M581.8,273.5H448.2V141.7h133.7V273.5z M451.2,270.5h127.7V144.7H451.2V270.5z"/>
			</g>
		</g>
		<g>
			<path fill="#0A5995" d="M487.2,241.9c-0.8,0-1.5,0.3-1.9,0.9s-0.7,1.5-0.7,2.6c0,2.3,0.9,3.5,2.6,3.5c0.7,0,1.6-0.2,2.6-0.5v1.8
				c-0.9,0.4-1.8,0.5-2.9,0.5c-1.5,0-2.7-0.5-3.5-1.4c-0.8-0.9-1.2-2.2-1.2-3.9c0-1.1,0.2-2,0.6-2.8c0.4-0.8,1-1.4,1.7-1.9
				s1.6-0.6,2.6-0.6c1,0,2,0.2,3,0.7l-0.7,1.8c-0.4-0.2-0.8-0.3-1.2-0.5C487.9,242,487.6,241.9,487.2,241.9z"/>
			<path fill="#0A5995" d="M496.5,250.6l-0.4-1.1h-0.1c-0.4,0.5-0.7,0.8-1.1,1c-0.4,0.2-0.9,0.3-1.5,0.3c-0.8,0-1.4-0.2-1.8-0.7
				c-0.4-0.4-0.7-1.1-0.7-1.9c0-0.8,0.3-1.5,0.9-1.9c0.6-0.4,1.5-0.6,2.7-0.7l1.4,0v-0.3c0-0.8-0.4-1.2-1.2-1.2
				c-0.6,0-1.4,0.2-2.2,0.6l-0.7-1.5c0.9-0.5,1.9-0.7,3-0.7c1.1,0,1.9,0.2,2.4,0.7s0.9,1.2,0.9,2.1v5.3H496.5z M495.9,246.9l-0.8,0
				c-0.6,0-1.1,0.1-1.4,0.3c-0.3,0.2-0.5,0.5-0.5,1c0,0.6,0.4,0.9,1.1,0.9c0.5,0,0.9-0.1,1.2-0.4c0.3-0.3,0.5-0.7,0.5-1.1V246.9z"/>
			<path fill="#0A5995" d="M504.3,242.5c0.3,0,0.5,0,0.7,0.1l-0.2,2c-0.2,0-0.4-0.1-0.6-0.1c-0.7,0-1.2,0.2-1.6,0.5
				c-0.4,0.4-0.6,0.9-0.6,1.5v4h-2.2v-7.9h1.6l0.3,1.3h0.1c0.2-0.4,0.6-0.8,1-1.1C503.4,242.7,503.8,242.5,504.3,242.5z"/>
			<path fill="#0A5995" d="M508.7,250.8c-0.9,0-1.7-0.4-2.2-1.1c-0.5-0.7-0.8-1.7-0.8-3c0-1.3,0.3-2.3,0.8-3
				c0.5-0.7,1.3-1.1,2.2-1.1c1,0,1.8,0.4,2.3,1.2h0.1c-0.1-0.6-0.2-1.1-0.2-1.6v-2.5h2.2v11h-1.7l-0.4-1h-0.1
				C510.4,250.4,509.7,250.8,508.7,250.8z M509.4,249c0.6,0,1-0.2,1.2-0.5s0.4-0.9,0.4-1.6v-0.2c0-0.9-0.1-1.5-0.4-1.8
				c-0.3-0.4-0.7-0.6-1.3-0.6c-0.5,0-0.9,0.2-1.1,0.6c-0.3,0.4-0.4,1-0.4,1.8c0,0.8,0.1,1.4,0.4,1.8
				C508.5,248.8,508.9,249,509.4,249z"/>
			<path fill="#0A5995" d="M520.7,250.6h-2.2v-10.4h5.9v1.8h-3.8v2.7h3.5v1.8h-3.5V250.6z"/>
			<path fill="#0A5995" d="M533.2,246.6c0,1.3-0.3,2.3-1,3c-0.7,0.7-1.6,1.1-2.8,1.1c-0.8,0-1.4-0.2-2-0.5c-0.6-0.3-1-0.8-1.3-1.4
				c-0.3-0.6-0.5-1.4-0.5-2.2c0-1.3,0.3-2.3,1-3s1.6-1.1,2.9-1.1c0.8,0,1.4,0.2,2,0.5c0.6,0.3,1,0.8,1.3,1.4
				C533.1,245.1,533.2,245.8,533.2,246.6z M527.7,246.6c0,0.8,0.1,1.4,0.4,1.8s0.7,0.6,1.3,0.6c0.6,0,1-0.2,1.2-0.6
				c0.3-0.4,0.4-1,0.4-1.8c0-0.8-0.1-1.4-0.4-1.8c-0.3-0.4-0.7-0.6-1.3-0.6c-0.6,0-1,0.2-1.2,0.6
				C527.8,245.3,527.7,245.8,527.7,246.6z"/>
			<path fill="#0A5995" d="M540.2,250.6l-0.3-1h-0.1c-0.2,0.4-0.6,0.7-1,0.9c-0.4,0.2-0.9,0.3-1.5,0.3c-0.9,0-1.6-0.2-2.1-0.7
				c-0.5-0.5-0.7-1.2-0.7-2.2v-5.2h2.2v4.6c0,0.6,0.1,1,0.3,1.3c0.2,0.3,0.5,0.4,1,0.4c0.6,0,1-0.2,1.3-0.6c0.3-0.4,0.4-1.1,0.4-2
				v-3.7h2.2v7.9H540.2z"/>
			<path fill="#0A5995" d="M548.2,242.5c0.3,0,0.5,0,0.7,0.1l-0.2,2c-0.2,0-0.4-0.1-0.6-0.1c-0.7,0-1.2,0.2-1.6,0.5
				c-0.4,0.4-0.6,0.9-0.6,1.5v4h-2.2v-7.9h1.6l0.3,1.3h0.1c0.2-0.4,0.6-0.8,1-1.1C547.3,242.7,547.8,242.5,548.2,242.5z"/>
		</g>
		<g>
			<g>
				<path fill="#0A5995" d="M98.8,194.1l14.1,15.5v4H96.3l-7.7-8.6L98.8,194.1z M72,188.4l22.4,25.1H53.6v-5.4L72,188.4z
					 M87.9,179.6c0.1,0,0.2,0,0.4,0c2,0,3.5,1.6,3.5,3.5s-1.6,3.5-3.5,3.5c-2,0-3.5-1.6-3.5-3.5C84.7,181.3,86.1,179.8,87.9,179.6z
					 M88.2,178.2c-2.7,0-4.9,2.2-4.9,4.9s2.2,4.9,4.9,4.9c2.7,0,4.9-2.2,4.9-4.9S90.9,178.2,88.2,178.2z M53.6,174h59.3v33.5
					l-13.6-14.9c-0.2-0.2-0.4-0.3-0.6-0.2c-0.2,0-0.3,0.1-0.4,0.2l-10.6,11.3l-15.2-16.9c-0.2-0.2-0.4-0.3-0.6-0.2
					c-0.2,0-0.3,0.1-0.4,0.2l-17.8,19.2V174z M52.2,172.6v42.3h62.1v-42.3H52.9H52.2z"/>
				<path fill="#0A5995" d="M114.8,215.4H51.7v-43.3h63.1V215.4z M52.7,214.4h61.1v-41.3H52.7V214.4z M113.4,214H96.1l-8.2-9.1
					l10.9-11.6l14.6,16V214z M96.5,213h15.9v-3.3l-13.6-14.9l-9.5,10.1L96.5,213z M95.5,214H53.1v-6.1L72,187.7L95.5,214z M54.1,213
					h39.2L72,189.2l-17.8,19.1V213z M113.4,208.7L99,192.9c0,0-0.1-0.1-0.2-0.1c0,0-0.1,0-0.1,0.1l-11,11.7l-15.5-17.3
					c0,0-0.1-0.1-0.2-0.1c0,0-0.1,0-0.1,0.1l-18.7,20.1v-33.9h60.3V208.7z M98.8,191.8c0.3,0,0.7,0.1,0.9,0.4l12.7,13.9v-31.7H54.1
					v30.3l17-18.2c0.2-0.2,0.4-0.3,0.7-0.4c0.4-0.1,0.8,0.1,1.1,0.4l14.8,16.5l10.3-10.9c0.2-0.2,0.4-0.3,0.7-0.4
					C98.7,191.8,98.7,191.8,98.8,191.8z M88.2,188.6c-3,0-5.4-2.4-5.4-5.4c0-3,2.4-5.4,5.4-5.4c3,0,5.4,2.4,5.4,5.4
					C93.7,186.2,91.2,188.6,88.2,188.6z M88.2,178.7c-2.4,0-4.4,2-4.4,4.4s2,4.4,4.4,4.4s4.4-2,4.4-4.4S90.7,178.7,88.2,178.7z
					 M88.2,187.2c-2.2,0-4-1.8-4-4c0-2.1,1.6-3.8,3.6-4l0,0c0.1,0,0.2,0,0.3,0l0.1,0c2.2,0,4,1.8,4,4S90.4,187.2,88.2,187.2z
					 M87.9,180.1c-1.6,0.2-2.7,1.5-2.7,3c0,1.7,1.4,3,3,3s3-1.4,3-3s-1.4-3-3-3l-0.1,0C88,180.1,88,180.1,87.9,180.1z"/>
			</g>
		</g>
		<g>
			<g>
				<path fill="#0A5995" d="M242.8,194.1l14.1,15.5v4h-16.6l-7.7-8.6L242.8,194.1z M216,188.4l22.4,25.1h-40.8v-5.4L216,188.4z
					 M231.9,179.6c0.1,0,0.2,0,0.4,0c2,0,3.5,1.6,3.5,3.5s-1.6,3.5-3.5,3.5s-3.5-1.6-3.5-3.5C228.7,181.3,230.1,179.8,231.9,179.6z
					 M232.2,178.2c-2.7,0-4.9,2.2-4.9,4.9s2.2,4.9,4.9,4.9c2.7,0,4.9-2.2,4.9-4.9S234.9,178.2,232.2,178.2z M197.6,174h59.3v33.5
					l-13.6-14.9c-0.2-0.2-0.4-0.3-0.6-0.2c-0.2,0-0.3,0.1-0.4,0.2l-10.6,11.3l-15.2-16.9c-0.2-0.2-0.4-0.3-0.6-0.2
					c-0.2,0-0.3,0.1-0.4,0.2l-17.8,19.2V174z M196.2,172.6v42.3h62.1v-42.3h-61.4H196.2z"/>
				<path fill="#0A5995" d="M258.8,215.4h-63.1v-43.3h63.1V215.4z M196.7,214.4h61.1v-41.3h-61.1V214.4z M257.4,214h-17.3l-8.2-9.1
					l10.9-11.6l14.6,16V214z M240.5,213h15.9v-3.3l-13.6-14.9l-9.5,10.1L240.5,213z M239.5,214h-42.4v-6.1l18.8-20.2L239.5,214z
					 M198.1,213h39.2L216,189.2l-17.8,19.1V213z M257.4,208.7L243,192.9c0,0-0.1-0.1-0.2-0.1c0,0-0.1,0-0.1,0.1l-11,11.7l-15.5-17.3
					c0,0-0.1-0.1-0.2-0.1c0,0-0.1,0-0.1,0.1l-18.7,20.1v-33.9h60.3V208.7z M242.8,191.8c0.3,0,0.7,0.1,0.9,0.4l12.7,13.9v-31.7
					h-58.3v30.3l17-18.2c0.2-0.2,0.4-0.3,0.7-0.4c0.4-0.1,0.8,0.1,1.1,0.4l14.8,16.5l10.3-10.9c0.2-0.2,0.4-0.3,0.7-0.4
					C242.7,191.8,242.7,191.8,242.8,191.8z M232.2,188.6c-3,0-5.4-2.4-5.4-5.4c0-3,2.4-5.4,5.4-5.4c3,0,5.4,2.4,5.4,5.4
					C237.7,186.2,235.2,188.6,232.2,188.6z M232.2,178.7c-2.4,0-4.4,2-4.4,4.4s2,4.4,4.4,4.4s4.4-2,4.4-4.4S234.7,178.7,232.2,178.7
					z M232.2,187.2c-2.2,0-4-1.8-4-4c0-2.1,1.6-3.8,3.6-4l0,0c0.1,0,0.2,0,0.3,0l0.1,0c2.2,0,4,1.8,4,4S234.4,187.2,232.2,187.2z
					 M231.9,180.1c-1.6,0.2-2.7,1.5-2.7,3c0,1.7,1.4,3,3,3s3-1.4,3-3s-1.4-3-3-3l-0.1,0C232,180.1,232,180.1,231.9,180.1z"/>
			</g>
		</g>
		<g>
			<g>
				<path fill="#0A5995" d="M386.1,194.1l14.1,15.5v4h-16.6l-7.7-8.6L386.1,194.1z M359.3,188.4l22.4,25.1H341v-5.4L359.3,188.4z
					 M375.2,179.6c0.1,0,0.2,0,0.4,0c2,0,3.5,1.6,3.5,3.5s-1.6,3.5-3.5,3.5s-3.5-1.6-3.5-3.5C372,181.3,373.4,179.8,375.2,179.6z
					 M375.6,178.2c-2.7,0-4.9,2.2-4.9,4.9s2.2,4.9,4.9,4.9s4.9-2.2,4.9-4.9S378.3,178.2,375.6,178.2z M341,174h59.3v33.5l-13.6-14.9
					c-0.2-0.2-0.4-0.3-0.6-0.2c-0.2,0-0.3,0.1-0.4,0.2L375,203.9l-15.2-16.9c-0.2-0.2-0.4-0.3-0.6-0.2c-0.2,0-0.3,0.1-0.4,0.2
					L341,206.1V174z M339.6,172.6v42.3h62.1v-42.3h-61.4H339.6z"/>
				<path fill="#0A5995" d="M402.2,215.4h-63.1v-43.3h63.1V215.4z M340.1,214.4h61.1v-41.3h-61.1V214.4z M400.8,214h-17.3l-8.2-9.1
					l10.9-11.6l14.6,16V214z M383.9,213h15.9v-3.3l-13.6-14.9l-9.5,10.1L383.9,213z M382.9,214h-42.4v-6.1l18.8-20.2L382.9,214z
					 M341.5,213h39.2l-21.3-23.8l-17.8,19.1V213z M400.8,208.7l-14.5-15.8c0,0-0.1-0.1-0.2-0.1c0,0-0.1,0-0.1,0.1l-11,11.7
					l-15.5-17.3c0,0-0.1-0.1-0.2-0.1c0,0-0.1,0-0.1,0.1l-18.7,20.1v-33.9h60.3V208.7z M386.1,191.8c0.3,0,0.7,0.1,0.9,0.4l12.7,13.9
					v-31.7h-58.3v30.3l17-18.2c0.2-0.2,0.4-0.3,0.7-0.4c0.4-0.1,0.8,0.1,1.1,0.4l14.8,16.5l10.3-10.9c0.2-0.2,0.4-0.3,0.7-0.4
					C386,191.8,386.1,191.8,386.1,191.8z M375.6,188.6c-3,0-5.4-2.4-5.4-5.4c0-3,2.4-5.4,5.4-5.4c3,0,5.4,2.4,5.4,5.4
					C381,186.2,378.6,188.6,375.6,188.6z M375.6,178.7c-2.4,0-4.4,2-4.4,4.4s2,4.4,4.4,4.4s4.4-2,4.4-4.4S378,178.7,375.6,178.7z
					 M375.6,187.2c-2.2,0-4-1.8-4-4c0-2.1,1.6-3.8,3.6-4l0,0c0.1,0,0.2,0,0.3,0l0.1,0c2.2,0,4,1.8,4,4S377.8,187.2,375.6,187.2z
					 M375.2,180.1c-1.6,0.2-2.7,1.5-2.7,3c0,1.7,1.4,3,3,3s3-1.4,3-3s-1.4-3-3-3l-0.1,0C375.4,180.1,375.3,180.1,375.2,180.1z"/>
			</g>
		</g>
		<g>
			<g>
				<path fill="#0A5995" d="M529.8,194.1l14.1,15.5v4h-16.6l-7.7-8.6L529.8,194.1z M503,188.4l22.4,25.1h-40.8v-5.4L503,188.4z
					 M518.9,179.6c0.1,0,0.2,0,0.4,0c2,0,3.5,1.6,3.5,3.5s-1.6,3.5-3.5,3.5c-2,0-3.5-1.6-3.5-3.5
					C515.7,181.3,517.1,179.8,518.9,179.6z M519.2,178.2c-2.7,0-4.9,2.2-4.9,4.9s2.2,4.9,4.9,4.9s4.9-2.2,4.9-4.9
					S521.9,178.2,519.2,178.2z M484.6,174h59.3v33.5l-13.6-14.9c-0.2-0.2-0.4-0.3-0.6-0.2c-0.2,0-0.3,0.1-0.4,0.2l-10.6,11.3
					l-15.2-16.9c-0.2-0.2-0.4-0.3-0.6-0.2c-0.2,0-0.3,0.1-0.4,0.2l-17.8,19.2V174z M483.2,172.6v42.3h62.1v-42.3h-61.4H483.2z"/>
				<path fill="#0A5995" d="M545.8,215.4h-63.1v-43.3h63.1V215.4z M483.7,214.4h61.1v-41.3h-61.1V214.4z M544.4,214h-17.3l-8.2-9.1
					l10.9-11.6l14.6,16V214z M527.5,213h15.9v-3.3l-13.6-14.9l-9.5,10.1L527.5,213z M526.5,214h-42.4v-6.1l18.8-20.2L526.5,214z
					 M485.1,213h39.2L503,189.2l-17.8,19.1V213z M544.4,208.7L530,192.9c0,0-0.1-0.1-0.2-0.1c0,0-0.1,0-0.1,0.1l-11,11.7l-15.5-17.3
					c0,0-0.1-0.1-0.2-0.1c0,0-0.1,0-0.1,0.1l-18.7,20.1v-33.9h60.3V208.7z M529.8,191.8c0.3,0,0.7,0.1,0.9,0.4l12.7,13.9v-31.7
					h-58.3v30.3l17-18.2c0.2-0.2,0.4-0.3,0.7-0.4c0.4-0.1,0.8,0.1,1.1,0.4l14.8,16.5l10.3-10.9c0.2-0.2,0.4-0.3,0.7-0.4
					C529.7,191.8,529.7,191.8,529.8,191.8z M519.2,188.6c-3,0-5.4-2.4-5.4-5.4c0-3,2.4-5.4,5.4-5.4c3,0,5.4,2.4,5.4,5.4
					C524.7,186.2,522.2,188.6,519.2,188.6z M519.2,178.7c-2.4,0-4.4,2-4.4,4.4s2,4.4,4.4,4.4s4.4-2,4.4-4.4S521.7,178.7,519.2,178.7
					z M519.2,187.2c-2.2,0-4-1.8-4-4c0-2.1,1.6-3.8,3.6-4l0,0c0.1,0,0.2,0,0.3,0l0.1,0c2.2,0,4,1.8,4,4S521.4,187.2,519.2,187.2z
					 M518.9,180.1c-1.6,0.2-2.7,1.5-2.7,3c0,1.7,1.4,3,3,3s3-1.4,3-3s-1.4-3-3-3l-0.1,0C519,180.1,519,180.1,518.9,180.1z"/>
			</g>
		</g>
		<g>
			<path fill="#0A5995" d="M161.1,92.1c0,2-0.6,3.6-1.9,4.6c-1.3,1.1-3.1,1.6-5.4,1.6h-1.7v6.7h-4V86.3h6c2.3,0,4,0.5,5.2,1.5
				C160.5,88.7,161.1,90.2,161.1,92.1z M152.1,95.1h1.3c1.2,0,2.1-0.2,2.7-0.7c0.6-0.5,0.9-1.2,0.9-2.1c0-0.9-0.3-1.6-0.8-2.1
				c-0.5-0.4-1.3-0.7-2.4-0.7h-1.8V95.1z"/>
			<path fill="#0A5995" d="M172.8,105l-0.8-1.9h-0.1c-0.7,0.8-1.3,1.4-2,1.7c-0.7,0.3-1.6,0.5-2.7,0.5c-1.4,0-2.5-0.4-3.2-1.2
				c-0.8-0.8-1.2-1.9-1.2-3.4c0-1.5,0.5-2.6,1.6-3.4c1.1-0.7,2.7-1.1,4.8-1.2l2.5-0.1v-0.6c0-1.5-0.7-2.2-2.2-2.2
				c-1.1,0-2.5,0.3-4,1l-1.3-2.6c1.6-0.9,3.5-1.3,5.5-1.3c1.9,0,3.4,0.4,4.4,1.3c1,0.8,1.5,2.1,1.5,3.8v9.5H172.8z M171.6,98.4
				l-1.5,0.1c-1.1,0-2,0.2-2.5,0.6c-0.6,0.4-0.8,0.9-0.8,1.7c0,1.1,0.6,1.7,1.9,1.7c0.9,0,1.6-0.3,2.2-0.8c0.5-0.5,0.8-1.2,0.8-2.1
				V98.4z"/>
			<path fill="#0A5995" d="M192.1,105h-3.9v-8.4c0-1-0.2-1.8-0.6-2.3s-1-0.8-1.8-0.8c-1.1,0-1.9,0.4-2.4,1.1
				c-0.5,0.7-0.7,1.9-0.7,3.6v6.7h-3.9V90.7h3l0.5,1.8h0.2c0.4-0.7,1-1.2,1.8-1.6c0.8-0.4,1.6-0.5,2.6-0.5c1.7,0,2.9,0.5,3.8,1.4
				c0.9,0.9,1.3,2.2,1.3,3.9V105z"/>
			<path fill="#0A5995" d="M201.9,105.3c-2.3,0-4.1-0.6-5.4-1.9s-1.9-3.1-1.9-5.4c0-2.4,0.6-4.3,1.8-5.6c1.2-1.3,2.9-2,5-2
				c2,0,3.6,0.6,4.7,1.7c1.1,1.2,1.7,2.7,1.7,4.8v1.9h-9.2c0,1.1,0.4,2,1,2.6s1.5,0.9,2.6,0.9c0.9,0,1.7-0.1,2.4-0.3
				c0.8-0.2,1.6-0.5,2.4-0.9v3c-0.7,0.3-1.4,0.6-2.2,0.8C204,105.2,203,105.3,201.9,105.3z M201.4,93.2c-0.8,0-1.5,0.3-1.9,0.8
				c-0.5,0.5-0.7,1.3-0.8,2.2h5.5c0-1-0.3-1.7-0.8-2.2C202.9,93.5,202.2,93.2,201.4,93.2z"/>
			<path fill="#0A5995" d="M214.2,105h-3.9V85.1h3.9V105z"/>
			<path fill="#0A5995" d="M231.3,105h-4V89.6h-5.1v-3.3h14.1v3.3h-5.1V105z"/>
			<path fill="#0A5995" d="M238.2,87c0-1.3,0.7-1.9,2.1-1.9s2.1,0.6,2.1,1.9c0,0.6-0.2,1.1-0.5,1.4c-0.4,0.3-0.9,0.5-1.6,0.5
				C238.9,88.9,238.2,88.3,238.2,87z M242.2,105h-3.9V90.7h3.9V105z"/>
			<path fill="#0A5995" d="M251.7,102.1c0.7,0,1.5-0.1,2.5-0.4v2.9c-1,0.4-2.2,0.7-3.6,0.7c-1.6,0-2.7-0.4-3.4-1.2s-1.1-2-1.1-3.6
				v-6.9h-1.9V92l2.2-1.3l1.1-3h2.5v3h4v2.9h-4v6.9c0,0.6,0.2,1,0.5,1.2C250.8,102,251.2,102.1,251.7,102.1z"/>
			<path fill="#0A5995" d="M260.3,105h-3.9V85.1h3.9V105z"/>
			<path fill="#0A5995" d="M270.2,105.3c-2.3,0-4.1-0.6-5.4-1.9s-1.9-3.1-1.9-5.4c0-2.4,0.6-4.3,1.8-5.6c1.2-1.3,2.9-2,5-2
				c2,0,3.6,0.6,4.7,1.7c1.1,1.2,1.7,2.7,1.7,4.8v1.9h-9.2c0,1.1,0.4,2,1,2.6s1.5,0.9,2.6,0.9c0.9,0,1.7-0.1,2.4-0.3
				c0.8-0.2,1.6-0.5,2.4-0.9v3c-0.7,0.3-1.4,0.6-2.2,0.8C272.3,105.2,271.3,105.3,270.2,105.3z M269.7,93.2c-0.8,0-1.5,0.3-1.9,0.8
				c-0.5,0.5-0.7,1.3-0.8,2.2h5.5c0-1-0.3-1.7-0.8-2.2C271.2,93.5,270.5,93.2,269.7,93.2z"/>
			<path fill="#0A5995" d="M289,105h-3.9V86.3h10.7v3.3H289v4.8h6.4v3.2H289V105z"/>
			<path fill="#0A5995" d="M311.5,97.8c0,2.3-0.6,4.2-1.8,5.5c-1.2,1.3-2.9,2-5.1,2c-1.4,0-2.6-0.3-3.6-0.9
				c-1.1-0.6-1.9-1.5-2.4-2.6c-0.6-1.1-0.8-2.4-0.8-3.9c0-2.3,0.6-4.2,1.8-5.5s2.9-1.9,5.1-1.9c1.4,0,2.6,0.3,3.6,0.9
				s1.9,1.5,2.4,2.6C311.2,95,311.5,96.3,311.5,97.8z M301.6,97.8c0,1.4,0.2,2.5,0.7,3.2c0.5,0.7,1.2,1.1,2.3,1.1
				c1,0,1.8-0.4,2.2-1.1c0.5-0.7,0.7-1.8,0.7-3.2c0-1.4-0.2-2.5-0.7-3.2c-0.5-0.7-1.2-1.1-2.3-1.1c-1,0-1.8,0.4-2.3,1.1
				C301.8,95.3,301.6,96.4,301.6,97.8z"/>
			<path fill="#0A5995" d="M322.1,90.4c0.5,0,1,0,1.3,0.1l-0.3,3.7c-0.3-0.1-0.7-0.1-1.2-0.1c-1.2,0-2.2,0.3-2.9,1s-1,1.5-1,2.7v7.3
				h-3.9V90.7h3l0.6,2.4h0.2c0.4-0.8,1-1.4,1.8-1.9C320.4,90.7,321.2,90.4,322.1,90.4z"/>
			<path fill="#0A5995" d="M347.1,105h-4v-8.1h-7.4v8.1h-4V86.3h4v7.3h7.4v-7.3h4V105z"/>
			<path fill="#0A5995" d="M357.4,105.3c-2.3,0-4.1-0.6-5.4-1.9s-1.9-3.1-1.9-5.4c0-2.4,0.6-4.3,1.8-5.6c1.2-1.3,2.9-2,5-2
				c2,0,3.6,0.6,4.7,1.7c1.1,1.2,1.7,2.7,1.7,4.8v1.9H354c0,1.1,0.4,2,1,2.6s1.5,0.9,2.6,0.9c0.9,0,1.7-0.1,2.4-0.3
				c0.8-0.2,1.6-0.5,2.4-0.9v3c-0.7,0.3-1.4,0.6-2.2,0.8C359.5,105.2,358.5,105.3,357.4,105.3z M356.8,93.2c-0.8,0-1.5,0.3-1.9,0.8
				c-0.5,0.5-0.7,1.3-0.8,2.2h5.5c0-1-0.3-1.7-0.8-2.2C358.3,93.5,357.7,93.2,356.8,93.2z"/>
			<path fill="#0A5995" d="M374.8,105l-0.8-1.9H374c-0.7,0.8-1.3,1.4-2,1.7c-0.7,0.3-1.6,0.5-2.7,0.5c-1.4,0-2.5-0.4-3.2-1.2
				c-0.8-0.8-1.2-1.9-1.2-3.4c0-1.5,0.5-2.6,1.6-3.4c1.1-0.7,2.7-1.1,4.8-1.2l2.5-0.1v-0.6c0-1.5-0.7-2.2-2.2-2.2
				c-1.1,0-2.5,0.3-4,1l-1.3-2.6c1.6-0.9,3.5-1.3,5.5-1.3c1.9,0,3.4,0.4,4.4,1.3c1,0.8,1.5,2.1,1.5,3.8v9.5H374.8z M373.7,98.4
				l-1.5,0.1c-1.1,0-2,0.2-2.5,0.6c-0.6,0.4-0.8,0.9-0.8,1.7c0,1.1,0.6,1.7,1.9,1.7c0.9,0,1.6-0.3,2.2-0.8c0.5-0.5,0.8-1.2,0.8-2.1
				V98.4z"/>
			<path fill="#0A5995" d="M385.5,105.3c-1.7,0-3-0.7-4-2c-1-1.3-1.4-3.1-1.4-5.4c0-2.3,0.5-4.2,1.5-5.5c1-1.3,2.3-2,4-2
				c1.8,0,3.2,0.7,4.1,2.1h0.1c-0.2-1.1-0.3-2-0.3-2.9v-4.6h3.9V105h-3l-0.8-1.9h-0.2C388.6,104.6,387.3,105.3,385.5,105.3z
				 M386.8,102.1c1,0,1.7-0.3,2.2-0.9c0.5-0.6,0.7-1.6,0.8-3v-0.4c0-1.5-0.2-2.6-0.7-3.3c-0.5-0.7-1.2-1-2.3-1c-0.9,0-1.5,0.4-2,1.1
				c-0.5,0.7-0.7,1.8-0.7,3.2s0.2,2.5,0.7,3.2C385.2,101.8,385.9,102.1,386.8,102.1z"/>
			<path fill="#0A5995" d="M400.8,105h-3.9V85.1h3.9V105z"/>
			<path fill="#0A5995" d="M404.1,87c0-1.3,0.7-1.9,2.1-1.9s2.1,0.6,2.1,1.9c0,0.6-0.2,1.1-0.5,1.4c-0.4,0.3-0.9,0.5-1.6,0.5
				C404.8,88.9,404.1,88.3,404.1,87z M408.1,105h-3.9V90.7h3.9V105z"/>
			<path fill="#0A5995" d="M424.8,105h-3.9v-8.4c0-1-0.2-1.8-0.6-2.3s-1-0.8-1.8-0.8c-1.1,0-1.9,0.4-2.4,1.1
				c-0.5,0.7-0.7,1.9-0.7,3.6v6.7h-3.9V90.7h3l0.5,1.8h0.2c0.4-0.7,1-1.2,1.8-1.6c0.8-0.4,1.6-0.5,2.6-0.5c1.7,0,2.9,0.5,3.8,1.4
				c0.9,0.9,1.3,2.2,1.3,3.9V105z"/>
			<path fill="#0A5995" d="M434.6,105.3c-2.3,0-4.1-0.6-5.4-1.9s-1.9-3.1-1.9-5.4c0-2.4,0.6-4.3,1.8-5.6c1.2-1.3,2.9-2,5-2
				c2,0,3.6,0.6,4.7,1.7c1.1,1.2,1.7,2.7,1.7,4.8v1.9h-9.2c0,1.1,0.4,2,1,2.6s1.5,0.9,2.6,0.9c0.9,0,1.7-0.1,2.4-0.3
				c0.8-0.2,1.6-0.5,2.4-0.9v3c-0.7,0.3-1.4,0.6-2.2,0.8C436.7,105.2,435.8,105.3,434.6,105.3z M434.1,93.2c-0.8,0-1.5,0.3-1.9,0.8
				c-0.5,0.5-0.7,1.3-0.8,2.2h5.5c0-1-0.3-1.7-0.8-2.2C435.6,93.5,434.9,93.2,434.1,93.2z"/>
			<path fill="#0A5995" d="M453,100.7c0,1.5-0.5,2.6-1.5,3.4c-1,0.8-2.5,1.2-4.6,1.2c-1,0-1.9-0.1-2.7-0.2s-1.4-0.3-2.1-0.6v-3.2
				c0.7,0.3,1.5,0.6,2.5,0.9c0.9,0.2,1.7,0.3,2.4,0.3c1.4,0,2.1-0.4,2.1-1.2c0-0.3-0.1-0.6-0.3-0.7c-0.2-0.2-0.5-0.4-1-0.7
				c-0.5-0.2-1.1-0.5-1.8-0.9c-1.1-0.5-1.9-0.9-2.4-1.3s-0.9-0.8-1.1-1.4c-0.2-0.5-0.4-1.1-0.4-1.9c0-1.3,0.5-2.3,1.5-3
				c1-0.7,2.4-1,4.2-1c1.7,0,3.4,0.4,5,1.1l-1.2,2.8c-0.7-0.3-1.4-0.6-2-0.8c-0.6-0.2-1.3-0.3-1.9-0.3c-1.2,0-1.7,0.3-1.7,0.9
				c0,0.4,0.2,0.7,0.6,0.9c0.4,0.3,1.2,0.6,2.4,1.1c1.1,0.5,1.9,0.9,2.5,1.3c0.5,0.4,0.9,0.8,1.2,1.4C452.9,99.4,453,100,453,100.7z
				"/>
		</g>
		<g>
			<path fill="#0A5995" d="M57.5,241.9c-0.8,0-1.5,0.3-1.9,0.9s-0.7,1.5-0.7,2.6c0,2.3,0.9,3.5,2.6,3.5c0.7,0,1.6-0.2,2.6-0.5v1.8
				c-0.9,0.4-1.8,0.5-2.9,0.5c-1.5,0-2.7-0.5-3.5-1.4c-0.8-0.9-1.2-2.2-1.2-3.9c0-1.1,0.2-2,0.6-2.8c0.4-0.8,1-1.4,1.7-1.9
				s1.6-0.6,2.6-0.6c1,0,2,0.2,3,0.7l-0.7,1.8c-0.4-0.2-0.8-0.3-1.2-0.5C58.3,242,57.9,241.9,57.5,241.9z"/>
			<path fill="#0A5995" d="M66.9,250.6l-0.4-1.1h-0.1c-0.4,0.5-0.7,0.8-1.1,1c-0.4,0.2-0.9,0.3-1.5,0.3c-0.8,0-1.4-0.2-1.8-0.7
				c-0.4-0.4-0.7-1.1-0.7-1.9c0-0.8,0.3-1.5,0.9-1.9c0.6-0.4,1.5-0.6,2.7-0.7l1.4,0v-0.3c0-0.8-0.4-1.2-1.2-1.2
				c-0.6,0-1.4,0.2-2.2,0.6l-0.7-1.5c0.9-0.5,1.9-0.7,3-0.7c1.1,0,1.9,0.2,2.4,0.7s0.9,1.2,0.9,2.1v5.3H66.9z M66.2,246.9l-0.8,0
				c-0.6,0-1.1,0.1-1.4,0.3c-0.3,0.2-0.5,0.5-0.5,1c0,0.6,0.4,0.9,1.1,0.9c0.5,0,0.9-0.1,1.2-0.4c0.3-0.3,0.5-0.7,0.5-1.1V246.9z"/>
			<path fill="#0A5995" d="M74.7,242.5c0.3,0,0.5,0,0.7,0.1l-0.2,2c-0.2,0-0.4-0.1-0.6-0.1c-0.7,0-1.2,0.2-1.6,0.5
				c-0.4,0.4-0.6,0.9-0.6,1.5v4h-2.2v-7.9h1.6l0.3,1.3h0.1c0.2-0.4,0.6-0.8,1-1.1C73.7,242.7,74.2,242.5,74.7,242.5z"/>
			<path fill="#0A5995" d="M79,250.8c-0.9,0-1.7-0.4-2.2-1.1c-0.5-0.7-0.8-1.7-0.8-3c0-1.3,0.3-2.3,0.8-3c0.5-0.7,1.3-1.1,2.2-1.1
				c1,0,1.8,0.4,2.3,1.2h0.1c-0.1-0.6-0.2-1.1-0.2-1.6v-2.5h2.2v11h-1.7l-0.4-1h-0.1C80.7,250.4,80,250.8,79,250.8z M79.7,249
				c0.6,0,1-0.2,1.2-0.5s0.4-0.9,0.4-1.6v-0.2c0-0.9-0.1-1.5-0.4-1.8c-0.3-0.4-0.7-0.6-1.3-0.6c-0.5,0-0.9,0.2-1.1,0.6
				c-0.3,0.4-0.4,1-0.4,1.8c0,0.8,0.1,1.4,0.4,1.8C78.9,248.8,79.2,249,79.7,249z"/>
			<path fill="#0A5995" d="M98.3,245.4c0,1.7-0.4,3-1.3,4c-0.9,0.9-2.1,1.4-3.7,1.4c-1.6,0-2.8-0.5-3.7-1.4c-0.9-0.9-1.3-2.2-1.3-4
				c0-1.7,0.4-3,1.3-4c0.9-0.9,2.1-1.4,3.7-1.4c1.6,0,2.8,0.5,3.7,1.4C97.9,242.4,98.3,243.7,98.3,245.4z M90.7,245.4
				c0,1.2,0.2,2,0.7,2.6c0.4,0.6,1.1,0.9,2,0.9c1.8,0,2.6-1.2,2.6-3.5c0-2.3-0.9-3.5-2.6-3.5c-0.9,0-1.5,0.3-2,0.9
				C91,243.4,90.7,244.3,90.7,245.4z"/>
			<path fill="#0A5995" d="M107.2,250.6h-2.2V246c0-0.6-0.1-1-0.3-1.3c-0.2-0.3-0.5-0.4-1-0.4c-0.6,0-1,0.2-1.3,0.6
				c-0.3,0.4-0.4,1.1-0.4,2v3.7h-2.2v-7.9h1.7l0.3,1h0.1c0.2-0.4,0.6-0.7,1-0.9s0.9-0.3,1.4-0.3c0.9,0,1.6,0.2,2.1,0.7
				c0.5,0.5,0.7,1.2,0.7,2.2V250.6z"/>
			<path fill="#0A5995" d="M112.7,250.8c-1.3,0-2.3-0.4-3-1.1s-1.1-1.7-1.1-3c0-1.3,0.3-2.4,1-3.1c0.7-0.7,1.6-1.1,2.8-1.1
				c1.1,0,2,0.3,2.6,1c0.6,0.6,0.9,1.5,0.9,2.6v1h-5.1c0,0.6,0.2,1.1,0.5,1.4c0.3,0.3,0.8,0.5,1.4,0.5c0.5,0,0.9,0,1.4-0.1
				c0.4-0.1,0.9-0.3,1.3-0.5v1.7c-0.4,0.2-0.8,0.3-1.2,0.4C113.8,250.7,113.3,250.8,112.7,250.8z M112.4,244.1
				c-0.5,0-0.8,0.1-1.1,0.4c-0.3,0.3-0.4,0.7-0.4,1.2h3c0-0.5-0.1-0.9-0.4-1.2C113.2,244.2,112.9,244.1,112.4,244.1z"/>
		</g>
		<g>
			<path fill="#0A5995" d="M201.2,241.9c-0.8,0-1.5,0.3-1.9,0.9s-0.7,1.5-0.7,2.6c0,2.3,0.9,3.5,2.6,3.5c0.7,0,1.6-0.2,2.6-0.5v1.8
				c-0.9,0.4-1.8,0.5-2.9,0.5c-1.5,0-2.7-0.5-3.5-1.4c-0.8-0.9-1.2-2.2-1.2-3.9c0-1.1,0.2-2,0.6-2.8c0.4-0.8,1-1.4,1.7-1.9
				s1.6-0.6,2.6-0.6c1,0,2,0.2,3,0.7l-0.7,1.8c-0.4-0.2-0.8-0.3-1.2-0.5C201.9,242,201.6,241.9,201.2,241.9z"/>
			<path fill="#0A5995" d="M210.5,250.6l-0.4-1.1h-0.1c-0.4,0.5-0.7,0.8-1.1,1c-0.4,0.2-0.9,0.3-1.5,0.3c-0.8,0-1.4-0.2-1.8-0.7
				c-0.4-0.4-0.7-1.1-0.7-1.9c0-0.8,0.3-1.5,0.9-1.9c0.6-0.4,1.5-0.6,2.7-0.7l1.4,0v-0.3c0-0.8-0.4-1.2-1.2-1.2
				c-0.6,0-1.4,0.2-2.2,0.6l-0.7-1.5c0.9-0.5,1.9-0.7,3-0.7c1.1,0,1.9,0.2,2.4,0.7s0.9,1.2,0.9,2.1v5.3H210.5z M209.9,246.9l-0.8,0
				c-0.6,0-1.1,0.1-1.4,0.3c-0.3,0.2-0.5,0.5-0.5,1c0,0.6,0.4,0.9,1.1,0.9c0.5,0,0.9-0.1,1.2-0.4c0.3-0.3,0.5-0.7,0.5-1.1V246.9z"/>
			<path fill="#0A5995" d="M218.3,242.5c0.3,0,0.5,0,0.7,0.1l-0.2,2c-0.2,0-0.4-0.1-0.6-0.1c-0.7,0-1.2,0.2-1.6,0.5
				c-0.4,0.4-0.6,0.9-0.6,1.5v4h-2.2v-7.9h1.6l0.3,1.3h0.1c0.2-0.4,0.6-0.8,1-1.1C217.4,242.7,217.8,242.5,218.3,242.5z"/>
			<path fill="#0A5995" d="M222.7,250.8c-0.9,0-1.7-0.4-2.2-1.1c-0.5-0.7-0.8-1.7-0.8-3c0-1.3,0.3-2.3,0.8-3
				c0.5-0.7,1.3-1.1,2.2-1.1c1,0,1.8,0.4,2.3,1.2h0.1c-0.1-0.6-0.2-1.1-0.2-1.6v-2.5h2.2v11h-1.7l-0.4-1h-0.1
				C224.4,250.4,223.7,250.8,222.7,250.8z M223.4,249c0.6,0,1-0.2,1.2-0.5s0.4-0.9,0.4-1.6v-0.2c0-0.9-0.1-1.5-0.4-1.8
				c-0.3-0.4-0.7-0.6-1.3-0.6c-0.5,0-0.9,0.2-1.1,0.6c-0.3,0.4-0.4,1-0.4,1.8c0,0.8,0.1,1.4,0.4,1.8
				C222.5,248.8,222.9,249,223.4,249z"/>
			<path fill="#0A5995" d="M236.6,250.6h-2.2v-8.5h-2.8v-1.8h7.8v1.8h-2.8V250.6z"/>
			<path fill="#0A5995" d="M247,250.6l-0.6-2.8l-0.8-3.5h0l-1.4,6.3h-2.3l-2.3-7.9h2.2l0.9,3.5c0.1,0.6,0.3,1.5,0.4,2.6h0
				c0-0.4,0.1-0.9,0.2-1.7l0.1-0.6l1-3.8h2.4l0.9,3.8c0,0.1,0,0.3,0.1,0.5c0,0.2,0.1,0.4,0.1,0.6c0,0.2,0.1,0.5,0.1,0.7
				c0,0.2,0,0.4,0.1,0.5h0c0-0.3,0.1-0.8,0.2-1.4c0.1-0.6,0.2-1,0.2-1.2l1-3.5h2.1l-2.3,7.9H247z"/>
			<path fill="#0A5995" d="M259.7,246.6c0,1.3-0.3,2.3-1,3c-0.7,0.7-1.6,1.1-2.8,1.1c-0.8,0-1.4-0.2-2-0.5c-0.6-0.3-1-0.8-1.3-1.4
				s-0.5-1.4-0.5-2.2c0-1.3,0.3-2.3,1-3c0.7-0.7,1.6-1.1,2.9-1.1c0.8,0,1.4,0.2,2,0.5s1,0.8,1.3,1.4
				C259.6,245.1,259.7,245.8,259.7,246.6z M254.2,246.6c0,0.8,0.1,1.4,0.4,1.8s0.7,0.6,1.3,0.6c0.6,0,1-0.2,1.2-0.6
				c0.3-0.4,0.4-1,0.4-1.8c0-0.8-0.1-1.4-0.4-1.8c-0.3-0.4-0.7-0.6-1.3-0.6c-0.6,0-1,0.2-1.2,0.6
				C254.4,245.3,254.2,245.8,254.2,246.6z"/>
		</g>
		<g>
			<path fill="#0A5995" d="M338.8,241.9c-0.8,0-1.5,0.3-1.9,0.9s-0.7,1.5-0.7,2.6c0,2.3,0.9,3.5,2.6,3.5c0.7,0,1.6-0.2,2.6-0.5v1.8
				c-0.9,0.4-1.8,0.5-2.9,0.5c-1.5,0-2.7-0.5-3.5-1.4c-0.8-0.9-1.2-2.2-1.2-3.9c0-1.1,0.2-2,0.6-2.8c0.4-0.8,1-1.4,1.7-1.9
				s1.6-0.6,2.6-0.6c1,0,2,0.2,3,0.7l-0.7,1.8c-0.4-0.2-0.8-0.3-1.2-0.5C339.6,242,339.2,241.9,338.8,241.9z"/>
			<path fill="#0A5995" d="M348.2,250.6l-0.4-1.1h-0.1c-0.4,0.5-0.7,0.8-1.1,1c-0.4,0.2-0.9,0.3-1.5,0.3c-0.8,0-1.4-0.2-1.8-0.7
				c-0.4-0.4-0.7-1.1-0.7-1.9c0-0.8,0.3-1.5,0.9-1.9c0.6-0.4,1.5-0.6,2.7-0.7l1.4,0v-0.3c0-0.8-0.4-1.2-1.2-1.2
				c-0.6,0-1.4,0.2-2.2,0.6l-0.7-1.5c0.9-0.5,1.9-0.7,3-0.7c1.1,0,1.9,0.2,2.4,0.7s0.9,1.2,0.9,2.1v5.3H348.2z M347.6,246.9l-0.8,0
				c-0.6,0-1.1,0.1-1.4,0.3c-0.3,0.2-0.5,0.5-0.5,1c0,0.6,0.4,0.9,1.1,0.9c0.5,0,0.9-0.1,1.2-0.4c0.3-0.3,0.5-0.7,0.5-1.1V246.9z"/>
			<path fill="#0A5995" d="M356,242.5c0.3,0,0.5,0,0.7,0.1l-0.2,2c-0.2,0-0.4-0.1-0.6-0.1c-0.7,0-1.2,0.2-1.6,0.5
				c-0.4,0.4-0.6,0.9-0.6,1.5v4h-2.2v-7.9h1.6l0.3,1.3h0.1c0.2-0.4,0.6-0.8,1-1.1C355.1,242.7,355.5,242.5,356,242.5z"/>
			<path fill="#0A5995" d="M360.3,250.8c-0.9,0-1.7-0.4-2.2-1.1c-0.5-0.7-0.8-1.7-0.8-3c0-1.3,0.3-2.3,0.8-3
				c0.5-0.7,1.3-1.1,2.2-1.1c1,0,1.8,0.4,2.3,1.2h0.1c-0.1-0.6-0.2-1.1-0.2-1.6v-2.5h2.2v11h-1.7l-0.4-1h-0.1
				C362.1,250.4,361.3,250.8,360.3,250.8z M361.1,249c0.6,0,1-0.2,1.2-0.5s0.4-0.9,0.4-1.6v-0.2c0-0.9-0.1-1.5-0.4-1.8
				c-0.3-0.4-0.7-0.6-1.3-0.6c-0.5,0-0.9,0.2-1.1,0.6c-0.3,0.4-0.4,1-0.4,1.8c0,0.8,0.1,1.4,0.4,1.8
				C360.2,248.8,360.6,249,361.1,249z"/>
			<path fill="#0A5995" d="M374.2,250.6H372v-8.5h-2.8v-1.8h7.8v1.8h-2.8V250.6z"/>
			<path fill="#0A5995" d="M385.4,250.6h-2.2V246c0-1.1-0.4-1.7-1.3-1.7c-0.6,0-1,0.2-1.3,0.6c-0.3,0.4-0.4,1.1-0.4,2v3.7h-2.2v-11
				h2.2v2.2c0,0.2,0,0.6,0,1.2l0,0.6h0.1c0.5-0.8,1.2-1.2,2.3-1.2c0.9,0,1.6,0.3,2.1,0.8c0.5,0.5,0.7,1.2,0.7,2.2V250.6z"/>
			<path fill="#0A5995" d="M391.7,242.5c0.3,0,0.5,0,0.7,0.1l-0.2,2c-0.2,0-0.4-0.1-0.6-0.1c-0.7,0-1.2,0.2-1.6,0.5
				c-0.4,0.4-0.6,0.9-0.6,1.5v4h-2.2v-7.9h1.6l0.3,1.3h0.1c0.2-0.4,0.6-0.8,1-1.1C390.8,242.7,391.2,242.5,391.7,242.5z"/>
			<path fill="#0A5995" d="M397.1,250.8c-1.3,0-2.3-0.4-3-1.1s-1.1-1.7-1.1-3c0-1.3,0.3-2.4,1-3.1c0.7-0.7,1.6-1.1,2.8-1.1
				c1.1,0,2,0.3,2.6,1c0.6,0.6,0.9,1.5,0.9,2.6v1h-5.1c0,0.6,0.2,1.1,0.5,1.4c0.3,0.3,0.8,0.5,1.4,0.5c0.5,0,0.9,0,1.4-0.1
				c0.4-0.1,0.9-0.3,1.3-0.5v1.7c-0.4,0.2-0.8,0.3-1.2,0.4C398.3,250.7,397.7,250.8,397.1,250.8z M396.8,244.1
				c-0.5,0-0.8,0.1-1.1,0.4c-0.3,0.3-0.4,0.7-0.4,1.2h3c0-0.5-0.1-0.9-0.4-1.2C397.6,244.2,397.3,244.1,396.8,244.1z"/>
			<path fill="#0A5995" d="M405.3,250.8c-1.3,0-2.3-0.4-3-1.1s-1.1-1.7-1.1-3c0-1.3,0.3-2.4,1-3.1c0.7-0.7,1.6-1.1,2.8-1.1
				c1.1,0,2,0.3,2.6,1c0.6,0.6,0.9,1.5,0.9,2.6v1h-5.1c0,0.6,0.2,1.1,0.5,1.4c0.3,0.3,0.8,0.5,1.4,0.5c0.5,0,0.9,0,1.4-0.1
				c0.4-0.1,0.9-0.3,1.3-0.5v1.7c-0.4,0.2-0.8,0.3-1.2,0.4C406.5,250.7,406,250.8,405.3,250.8z M405,244.1c-0.5,0-0.8,0.1-1.1,0.4
				c-0.3,0.3-0.4,0.7-0.4,1.2h3c0-0.5-0.1-0.9-0.4-1.2C405.9,244.2,405.5,244.1,405,244.1z"/>
		</g>
	</g>
</g>
<g id="Layer_2">
</g>
</svg>
