<?xml version="1.0" encoding="utf-8"?>
<!-- Generator: Adobe Illustrator 21.1.0, SVG Export Plug-In . SVG Version: 6.00 Build 0)  -->
<svg version="1.1" xmlns="http://www.w3.org/2000/svg" xmlns:xlink="http://www.w3.org/1999/xlink" x="0px" y="0px"
	 viewBox="0 0 600 322.4" enable-background="new 0 0 600 322.4" xml:space="preserve">
<g id="Layer_1">
	<g>
		<g>
			<rect x="0" y="-0.3" fill="#FFFFFF" width="600" height="322.7"/>
		</g>
		<g>
			<defs>
				<rect id="SVGID_1_" x="-0.2" y="0.1" width="600" height="322.6"/>
			</defs>
			<clipPath id="SVGID_2_">
				<use xlink:href="#SVGID_1_"  overflow="visible"/>
			</clipPath>
			<g clip-path="url(#SVGID_2_)">
				<rect x="-0.2" y="0.1" fill="#E3F9FF" width="600" height="354.6"/>
			</g>
			<g clip-path="url(#SVGID_2_)">
				<path fill="#0A5995" d="M336.2,385.4c3.5,2,8.2,1.4,11.1-1.4l125.3-123l188.1,102.6l-4.2-23.8l-180.9-98.8
					c-3.5-2-8.2-1.4-11.1,1.4L339,365.8L122.8,245.9c-2.4-1.4-5.5-1.7-8.2-0.6c-1.1,0.5-2.1,1.2-2.9,2l-211.9,209l3.9,22.3
					L120,265.5L336.2,385.4z"/>
				<path fill="#E3F9FF" d="M-101.2,494l-7.1-40.3l214.7-211.8c1.4-1.5,3.2-2.7,5.2-3.5l0.3-0.1c4.7-1.8,10.1-1.4,14.5,1.1
					l211.3,117.2L459.4,237c5.2-5,13.6-6,19.9-2.5l184,100.5l7.5,42.7L473.9,270.3L352.5,389.5c-5.3,5-13.6,6-20,2.5L121.3,274.8
					L-101.2,494z M-92.1,458.9l0.8,4.4l210.1-207l221.2,122.7c0.6,0.3,1.7,0.2,2.2-0.3l129.2-126.9l179.3,97.8l-0.9-4.9L472,247.6
					c-0.6-0.3-1.7-0.2-2.2,0.3L340.3,375.1L119.1,252.4c-0.5-0.3-1.1-0.3-1.6-0.2c-0.2,0.1-0.3,0.2-0.4,0.3L-92.1,458.9z"/>
			</g>
			<g clip-path="url(#SVGID_2_)">
				<polygon fill="#E3F9FF" points="625.9,501.1 -41.4,414.4 118.6,256.4 315.9,365.1 345.2,375.1 471.2,251.7 639.9,342.4 				"/>
			</g>
		</g>
		<g>
			<g>
				<rect x="234.3" y="215.6" fill="#0A5995" width="130.7" height="50.6"/>
			</g>
		</g>
		<g>
			<g>
				<rect x="269.1" y="239.8" fill="#FFFFFF" width="46.6" height="2.7"/>
			</g>
		</g>
		<g>
			<g>
				<polygon fill="#FFFFFF" points="315.7,241.2 315.7,232.2 323.5,236.7 331.3,241.2 323.5,245.7 315.7,250.2 				"/>
			</g>
		</g>
		<g>
			<path fill="#0A5995" d="M428.6,25.1c-22,0-39.9,17.9-39.9,39.9s17.9,39.9,39.9,39.9s39.9-17.9,39.9-39.9S450.6,25.1,428.6,25.1z
				 M428.6,93.4c-15.8,0-28.5-12.7-28.5-28.5c0-14.8,11.2-27,25.6-28.5c0.9-0.1,1.9,0,2.8,0c15.8,0,28.5,12.7,28.5,28.5
				S444.4,93.4,428.6,93.4z"/>
			<path fill="#E3F9FF" d="M428.6,108.8c-24.2,0-43.9-19.7-43.9-43.9s19.7-43.9,43.9-43.9s43.9,19.7,43.9,43.9
				S452.8,108.8,428.6,108.8z M428.6,29.1c-19.8,0-35.9,16.1-35.9,35.9s16.1,35.9,35.9,35.9s35.9-16.1,35.9-35.9
				S448.4,29.1,428.6,29.1z M428.6,97.4c-17.9,0-32.5-14.6-32.5-32.5c0-16.8,12.6-30.8,29.2-32.5c0.9-0.1,1.7-0.1,2.4,0
				c0.3,0,0.6,0,0.8,0c17.9,0,32.5,14.6,32.5,32.5S446.5,97.4,428.6,97.4z M426.7,40.4c-0.2,0-0.4,0-0.6,0
				c-12.5,1.3-22,11.8-22,24.5c0,13.5,11,24.5,24.5,24.5s24.5-11,24.5-24.5s-11-24.5-24.5-24.5c-0.4,0-0.7,0-1.1,0
				C427.2,40.4,427,40.4,426.7,40.4z"/>
		</g>
		<g>
			<circle fill="#E3F9FF" cx="428.6" cy="65.1" r="32.3"/>
		</g>
	</g>
	<g>
		<path fill="#0A5995" d="M107.1,129.6c0,2.3-0.7,4.1-2.2,5.3s-3.5,1.8-6.1,1.8h-1.9v7.6h-4.5v-21.4h6.8c2.6,0,4.6,0.6,5.9,1.7
			S107.1,127.3,107.1,129.6z M96.8,133h1.5c1.4,0,2.4-0.3,3.1-0.8c0.7-0.6,1-1.4,1-2.4c0-1.1-0.3-1.9-0.9-2.4s-1.5-0.8-2.7-0.8h-2.1
			V133z"/>
		<path fill="#0A5995" d="M120.4,144.3l-0.9-2.2h-0.1c-0.8,0.9-1.5,1.6-2.3,2c-0.8,0.4-1.8,0.5-3.1,0.5c-1.6,0-2.8-0.4-3.7-1.3
			s-1.4-2.2-1.4-3.8c0-1.7,0.6-3,1.8-3.8c1.2-0.8,3-1.3,5.5-1.4l2.8-0.1v-0.7c0-1.7-0.8-2.5-2.5-2.5c-1.3,0-2.8,0.4-4.6,1.2l-1.5-3
			c1.9-1,4-1.5,6.3-1.5c2.2,0,3.9,0.5,5.1,1.4s1.8,2.4,1.8,4.4v10.9H120.4z M119.1,136.7l-1.7,0.1c-1.3,0-2.3,0.3-2.9,0.7
			s-1,1.1-1,2c0,1.3,0.7,1.9,2.2,1.9c1,0,1.9-0.3,2.5-0.9s0.9-1.4,0.9-2.4V136.7z"/>
		<path fill="#0A5995" d="M142.5,144.3h-4.5v-9.6c0-1.2-0.2-2.1-0.6-2.7c-0.4-0.6-1.1-0.9-2-0.9c-1.2,0-2.2,0.4-2.7,1.3
			c-0.6,0.8-0.8,2.2-0.8,4.2v7.7h-4.5v-16.4h3.4l0.6,2.1h0.2c0.5-0.8,1.2-1.4,2.1-1.8s1.9-0.6,3-0.6c1.9,0,3.3,0.5,4.3,1.5
			s1.5,2.5,1.5,4.5V144.3z"/>
		<path fill="#0A5995" d="M153.8,144.6c-2.6,0-4.7-0.7-6.2-2.2s-2.2-3.5-2.2-6.2c0-2.7,0.7-4.9,2.1-6.4s3.3-2.2,5.7-2.2
			c2.3,0,4.1,0.7,5.4,2s1.9,3.1,1.9,5.5v2.2h-10.6c0,1.3,0.4,2.3,1.1,3s1.7,1.1,3,1.1c1,0,1.9-0.1,2.8-0.3s1.8-0.5,2.8-1v3.5
			c-0.8,0.4-1.6,0.7-2.5,0.9C156.1,144.5,155.1,144.6,153.8,144.6z M153.2,130.8c-0.9,0-1.7,0.3-2.2,0.9c-0.5,0.6-0.8,1.5-0.9,2.6
			h6.3c0-1.1-0.3-2-0.9-2.6C154.9,131.1,154.1,130.8,153.2,130.8z"/>
		<path fill="#0A5995" d="M167.8,144.3h-4.5v-22.8h4.5V144.3z"/>
		<path fill="#0A5995" d="M187.4,144.3h-4.5v-17.6h-5.8v-3.8h16.2v3.8h-5.8V144.3z"/>
		<path fill="#0A5995" d="M195.2,123.7c0-1.5,0.8-2.2,2.4-2.2s2.4,0.7,2.4,2.2c0,0.7-0.2,1.2-0.6,1.6c-0.4,0.4-1,0.6-1.8,0.6
			C196,125.9,195.2,125.1,195.2,123.7z M199.9,144.3h-4.5v-16.4h4.5V144.3z"/>
		<path fill="#0A5995" d="M210.7,141c0.8,0,1.7-0.2,2.8-0.5v3.3c-1.1,0.5-2.5,0.7-4.1,0.7c-1.8,0-3.1-0.5-3.9-1.4
			c-0.8-0.9-1.2-2.3-1.2-4.1v-7.9h-2.1v-1.9l2.5-1.5l1.3-3.5h2.9v3.5h4.6v3.4h-4.6v7.9c0,0.6,0.2,1.1,0.5,1.4S210.1,141,210.7,141z"
			/>
		<path fill="#0A5995" d="M220.6,144.3h-4.5v-22.8h4.5V144.3z"/>
		<path fill="#0A5995" d="M231.9,144.6c-2.6,0-4.7-0.7-6.2-2.2s-2.2-3.5-2.2-6.2c0-2.7,0.7-4.9,2.1-6.4s3.3-2.2,5.7-2.2
			c2.3,0,4.1,0.7,5.4,2s1.9,3.1,1.9,5.5v2.2H228c0,1.3,0.4,2.3,1.1,3s1.7,1.1,3,1.1c1,0,1.9-0.1,2.8-0.3s1.8-0.5,2.8-1v3.5
			c-0.8,0.4-1.6,0.7-2.5,0.9C234.3,144.5,233.2,144.6,231.9,144.6z M231.3,130.8c-0.9,0-1.7,0.3-2.2,0.9c-0.5,0.6-0.8,1.5-0.9,2.6
			h6.3c0-1.1-0.3-2-0.9-2.6C233,131.1,232.2,130.8,231.3,130.8z"/>
		<path fill="#0A5995" d="M253.3,144.3h-4.5v-21.4h12.3v3.7h-7.8v5.5h7.3v3.7h-7.3V144.3z"/>
		<path fill="#0A5995" d="M279.1,136.1c0,2.7-0.7,4.8-2.1,6.3s-3.4,2.3-5.9,2.3c-1.6,0-3-0.3-4.2-1c-1.2-0.7-2.1-1.7-2.8-3
			s-1-2.8-1-4.5c0-2.7,0.7-4.8,2.1-6.2s3.4-2.2,5.9-2.2c1.6,0,3,0.3,4.2,1s2.1,1.7,2.8,2.9S279.1,134.4,279.1,136.1z M267.8,136.1
			c0,1.6,0.3,2.8,0.8,3.7s1.4,1.2,2.6,1.2c1.2,0,2-0.4,2.6-1.2s0.8-2.1,0.8-3.7c0-1.6-0.3-2.8-0.8-3.6s-1.4-1.2-2.6-1.2
			c-1.2,0-2.1,0.4-2.6,1.2C268.1,133.2,267.8,134.4,267.8,136.1z"/>
		<path fill="#0A5995" d="M291.2,127.6c0.6,0,1.1,0,1.5,0.1l-0.3,4.2c-0.4-0.1-0.8-0.1-1.3-0.1c-1.4,0-2.5,0.4-3.3,1.1
			s-1.2,1.8-1.2,3.1v8.3h-4.5v-16.4h3.4l0.7,2.8h0.2c0.5-0.9,1.2-1.7,2.1-2.2S290.2,127.6,291.2,127.6z"/>
		<path fill="#0A5995" d="M319.9,144.3h-4.5v-9.2h-8.5v9.2h-4.5v-21.4h4.5v8.4h8.5v-8.4h4.5V144.3z"/>
		<path fill="#0A5995" d="M331.6,144.6c-2.6,0-4.7-0.7-6.2-2.2s-2.2-3.5-2.2-6.2c0-2.7,0.7-4.9,2.1-6.4s3.3-2.2,5.7-2.2
			c2.3,0,4.1,0.7,5.4,2s1.9,3.1,1.9,5.5v2.2h-10.6c0,1.3,0.4,2.3,1.1,3s1.7,1.1,3,1.1c1,0,1.9-0.1,2.8-0.3s1.8-0.5,2.8-1v3.5
			c-0.8,0.4-1.6,0.7-2.5,0.9C334,144.5,332.9,144.6,331.6,144.6z M331,130.8c-0.9,0-1.7,0.3-2.2,0.9c-0.5,0.6-0.8,1.5-0.9,2.6h6.3
			c0-1.1-0.3-2-0.9-2.6C332.7,131.1,331.9,130.8,331,130.8z"/>
		<path fill="#0A5995" d="M351.6,144.3l-0.9-2.2h-0.1c-0.8,0.9-1.5,1.6-2.3,2c-0.8,0.4-1.8,0.5-3.1,0.5c-1.6,0-2.8-0.4-3.7-1.3
			s-1.4-2.2-1.4-3.8c0-1.7,0.6-3,1.8-3.8c1.2-0.8,3-1.3,5.5-1.4l2.8-0.1v-0.7c0-1.7-0.8-2.5-2.5-2.5c-1.3,0-2.8,0.4-4.6,1.2l-1.5-3
			c1.9-1,4-1.5,6.3-1.5c2.2,0,3.9,0.5,5.1,1.4s1.8,2.4,1.8,4.4v10.9H351.6z M350.2,136.7l-1.7,0.1c-1.3,0-2.3,0.3-2.9,0.7
			s-1,1.1-1,2c0,1.3,0.7,1.9,2.2,1.9c1,0,1.9-0.3,2.5-0.9s0.9-1.4,0.9-2.4V136.7z"/>
		<path fill="#0A5995" d="M363.7,144.6c-1.9,0-3.4-0.7-4.5-2.2s-1.6-3.6-1.6-6.2c0-2.7,0.6-4.8,1.7-6.3s2.7-2.2,4.6-2.2
			c2.1,0,3.6,0.8,4.7,2.4h0.1c-0.2-1.2-0.3-2.3-0.3-3.3v-5.2h4.5v22.8h-3.4l-0.9-2.1h-0.2C367.3,143.8,365.8,144.6,363.7,144.6z
			 M365.3,141c1.1,0,2-0.3,2.5-1s0.8-1.8,0.9-3.4v-0.5c0-1.8-0.3-3-0.8-3.8s-1.4-1.1-2.6-1.1c-1,0-1.8,0.4-2.3,1.3
			c-0.6,0.8-0.8,2.1-0.8,3.7s0.3,2.8,0.8,3.6C363.4,140.6,364.2,141,365.3,141z"/>
		<path fill="#0A5995" d="M381.2,144.3h-4.5v-22.8h4.5V144.3z"/>
		<path fill="#0A5995" d="M385,123.7c0-1.5,0.8-2.2,2.4-2.2s2.4,0.7,2.4,2.2c0,0.7-0.2,1.2-0.6,1.6c-0.4,0.4-1,0.6-1.8,0.6
			C385.8,125.9,385,125.1,385,123.7z M389.6,144.3h-4.5v-16.4h4.5V144.3z"/>
		<path fill="#0A5995" d="M408.7,144.3h-4.5v-9.6c0-1.2-0.2-2.1-0.6-2.7c-0.4-0.6-1.1-0.9-2-0.9c-1.2,0-2.2,0.4-2.7,1.3
			c-0.6,0.8-0.8,2.2-0.8,4.2v7.7h-4.5v-16.4h3.4l0.6,2.1h0.2c0.5-0.8,1.2-1.4,2.1-1.8s1.9-0.6,3-0.6c1.9,0,3.3,0.5,4.3,1.5
			s1.5,2.5,1.5,4.5V144.3z"/>
		<path fill="#0A5995" d="M419.9,144.6c-2.6,0-4.7-0.7-6.2-2.2s-2.2-3.5-2.2-6.2c0-2.7,0.7-4.9,2.1-6.4s3.3-2.2,5.7-2.2
			c2.3,0,4.1,0.7,5.4,2s1.9,3.1,1.9,5.5v2.2h-10.6c0,1.3,0.4,2.3,1.1,3s1.7,1.1,3,1.1c1,0,1.9-0.1,2.8-0.3s1.8-0.5,2.8-1v3.5
			c-0.8,0.4-1.6,0.7-2.5,0.9C422.3,144.5,421.2,144.6,419.9,144.6z M419.3,130.8c-0.9,0-1.7,0.3-2.2,0.9c-0.5,0.6-0.8,1.5-0.9,2.6
			h6.3c0-1.1-0.3-2-0.9-2.6C421,131.1,420.3,130.8,419.3,130.8z"/>
		<path fill="#0A5995" d="M440.9,139.4c0,1.7-0.6,3-1.8,3.8s-2.9,1.3-5.2,1.3c-1.2,0-2.2-0.1-3-0.2c-0.8-0.2-1.6-0.4-2.4-0.7v-3.7
			c0.8,0.4,1.8,0.7,2.8,1s2,0.4,2.7,0.4c1.6,0,2.4-0.5,2.4-1.4c0-0.4-0.1-0.6-0.3-0.9c-0.2-0.2-0.6-0.5-1.1-0.7
			c-0.5-0.3-1.2-0.6-2.1-1c-1.3-0.5-2.2-1-2.8-1.5s-1-1-1.3-1.5c-0.3-0.6-0.4-1.3-0.4-2.1c0-1.5,0.6-2.6,1.7-3.4s2.7-1.2,4.8-1.2
			c2,0,3.9,0.4,5.8,1.3l-1.3,3.2c-0.8-0.4-1.6-0.6-2.3-0.9s-1.4-0.3-2.2-0.3c-1.3,0-2,0.4-2,1.1c0,0.4,0.2,0.7,0.6,1
			s1.4,0.7,2.8,1.3c1.3,0.5,2.2,1,2.8,1.5s1,1,1.3,1.6S440.9,138.6,440.9,139.4z"/>
		<path fill="#0A5995" d="M464.2,144.3l-1.6-5.1h-7.8l-1.6,5.1h-4.9l7.6-21.5h5.6l7.6,21.5H464.2z M461.5,135.4
			c-1.4-4.6-2.2-7.2-2.4-7.8s-0.3-1.1-0.4-1.4c-0.3,1.2-1.2,4.3-2.8,9.3H461.5z"/>
		<path fill="#0A5995" d="M485.8,144.3h-4.5v-9.6c0-1.2-0.2-2.1-0.6-2.7c-0.4-0.6-1.1-0.9-2-0.9c-1.2,0-2.2,0.4-2.7,1.3
			c-0.6,0.8-0.8,2.2-0.8,4.2v7.7h-4.5v-16.4h3.4l0.6,2.1h0.2c0.5-0.8,1.2-1.4,2.1-1.8s1.9-0.6,3-0.6c1.9,0,3.3,0.5,4.3,1.5
			s1.5,2.5,1.5,4.5V144.3z"/>
		<path fill="#0A5995" d="M494.8,144.6c-1.9,0-3.4-0.7-4.5-2.2s-1.6-3.6-1.6-6.2c0-2.7,0.6-4.8,1.7-6.3s2.7-2.2,4.6-2.2
			c2.1,0,3.6,0.8,4.7,2.4h0.1c-0.2-1.2-0.3-2.3-0.3-3.3v-5.2h4.5v22.8h-3.4l-0.9-2.1h-0.2C498.4,143.8,496.9,144.6,494.8,144.6z
			 M496.4,141c1.1,0,2-0.3,2.5-1s0.8-1.8,0.9-3.4v-0.5c0-1.8-0.3-3-0.8-3.8s-1.4-1.1-2.6-1.1c-1,0-1.8,0.4-2.3,1.3
			c-0.6,0.8-0.8,2.1-0.8,3.7s0.3,2.8,0.8,3.6C494.6,140.6,495.3,141,496.4,141z"/>
		<path fill="#0A5995" d="M86.8,180.3h-4.5v-21.4h12.3v3.7h-7.8v5.5h7.3v3.7h-7.3V180.3z"/>
		<path fill="#0A5995" d="M112.6,172.1c0,2.7-0.7,4.8-2.1,6.3s-3.4,2.3-5.9,2.3c-1.6,0-3-0.3-4.2-1c-1.2-0.7-2.1-1.7-2.8-3
			s-1-2.8-1-4.5c0-2.7,0.7-4.8,2.1-6.2s3.4-2.2,5.9-2.2c1.6,0,3,0.3,4.2,1s2.1,1.7,2.8,2.9S112.6,170.4,112.6,172.1z M101.3,172.1
			c0,1.6,0.3,2.8,0.8,3.7s1.4,1.2,2.6,1.2c1.2,0,2-0.4,2.6-1.2s0.8-2.1,0.8-3.7c0-1.6-0.3-2.8-0.8-3.6s-1.4-1.2-2.6-1.2
			c-1.2,0-2.1,0.4-2.6,1.2C101.5,169.2,101.3,170.4,101.3,172.1z"/>
		<path fill="#0A5995" d="M124.7,163.6c0.6,0,1.1,0,1.5,0.1l-0.3,4.2c-0.4-0.1-0.8-0.1-1.3-0.1c-1.4,0-2.5,0.4-3.3,1.1
			s-1.2,1.8-1.2,3.1v8.3h-4.5v-16.4h3.4l0.7,2.8h0.2c0.5-0.9,1.2-1.7,2.1-2.2S123.7,163.6,124.7,163.6z"/>
		<path fill="#0A5995" d="M135.8,158.9h6.7c3,0,5.2,0.4,6.6,1.3c1.4,0.9,2.1,2.2,2.1,4.1c0,1.3-0.3,2.3-0.9,3.1s-1.4,1.3-2.4,1.5
			v0.1c1.4,0.3,2.3,0.9,2.9,1.7s0.9,1.9,0.9,3.3c0,2-0.7,3.5-2.1,4.6s-3.3,1.6-5.7,1.6h-8V158.9z M140.3,167.4h2.6
			c1.2,0,2.1-0.2,2.7-0.6s0.8-1,0.8-1.9c0-0.8-0.3-1.4-0.9-1.8s-1.6-0.5-2.8-0.5h-2.4V167.4z M140.3,171v5.6h3
			c1.2,0,2.2-0.2,2.8-0.7s0.9-1.2,0.9-2.2c0-1.8-1.3-2.7-3.8-2.7H140.3z"/>
		<path fill="#0A5995" d="M169.7,172.1c0,2.7-0.7,4.8-2.1,6.3s-3.4,2.3-5.9,2.3c-1.6,0-3-0.3-4.2-1c-1.2-0.7-2.1-1.7-2.8-3
			s-1-2.8-1-4.5c0-2.7,0.7-4.8,2.1-6.2s3.4-2.2,5.9-2.2c1.6,0,3,0.3,4.2,1s2.1,1.7,2.8,2.9S169.7,170.4,169.7,172.1z M158.4,172.1
			c0,1.6,0.3,2.8,0.8,3.7s1.4,1.2,2.6,1.2c1.2,0,2-0.4,2.6-1.2s0.8-2.1,0.8-3.7c0-1.6-0.3-2.8-0.8-3.6s-1.4-1.2-2.6-1.2
			c-1.2,0-2.1,0.4-2.6,1.2C158.7,169.2,158.4,170.4,158.4,172.1z"/>
		<path fill="#0A5995" d="M177.1,180.3h-4.5v-22.8h4.5V180.3z"/>
		<path fill="#0A5995" d="M186.3,180.6c-1.9,0-3.4-0.7-4.5-2.2s-1.6-3.6-1.6-6.2c0-2.7,0.6-4.8,1.7-6.3s2.7-2.2,4.6-2.2
			c2.1,0,3.6,0.8,4.7,2.4h0.1c-0.2-1.2-0.3-2.3-0.3-3.3v-5.2h4.5v22.8H192l-0.9-2.1h-0.2C189.9,179.8,188.3,180.6,186.3,180.6z
			 M187.8,177c1.1,0,2-0.3,2.5-1s0.8-1.8,0.9-3.4v-0.5c0-1.8-0.3-3-0.8-3.8s-1.4-1.1-2.6-1.1c-1,0-1.8,0.4-2.3,1.3
			c-0.6,0.8-0.8,2.1-0.8,3.7s0.3,2.8,0.8,3.6C186,176.6,186.8,177,187.8,177z"/>
		<path fill="#0A5995" d="M206.7,180.3v-21.4h4.5v21.4H206.7z"/>
		<path fill="#0A5995" d="M230.2,180.3h-4.5v-9.6c0-1.2-0.2-2.1-0.6-2.7c-0.4-0.6-1-0.9-1.9-0.9c-1.1,0-2,0.4-2.5,1.3
			s-0.8,2.2-0.8,4.1v7.7h-4.5v-16.4h3.4l0.6,2.1h0.2c0.4-0.8,1.1-1.3,1.9-1.8c0.8-0.4,1.8-0.6,2.9-0.6c2.5,0,4.1,0.8,5,2.4h0.4
			c0.4-0.8,1.1-1.4,1.9-1.8s1.8-0.6,2.9-0.6c1.9,0,3.3,0.5,4.2,1.4c1,1,1.4,2.5,1.4,4.6v10.7h-4.5v-9.6c0-1.2-0.2-2.1-0.6-2.7
			c-0.4-0.6-1-0.9-1.9-0.9c-1.1,0-1.9,0.4-2.5,1.2s-0.8,2-0.8,3.7V180.3z"/>
		<path fill="#0A5995" d="M253.2,180.6c-1.9,0-3.4-0.7-4.5-2.1h-0.2c0.2,1.4,0.2,2.2,0.2,2.4v6.6h-4.5v-23.6h3.6l0.6,2.1h0.2
			c1-1.6,2.6-2.4,4.6-2.4c1.9,0,3.4,0.7,4.5,2.2s1.6,3.6,1.6,6.2c0,1.7-0.3,3.3-0.8,4.6s-1.2,2.3-2.2,2.9
			C255.6,180.3,254.5,180.6,253.2,180.6z M251.9,167.2c-1.1,0-1.9,0.3-2.4,1s-0.8,1.8-0.8,3.4v0.5c0,1.8,0.3,3,0.8,3.8
			s1.4,1.1,2.5,1.1c2,0,3-1.7,3-5c0-1.6-0.2-2.8-0.7-3.6C253.8,167.6,253,167.2,251.9,167.2z"/>
		<path fill="#0A5995" d="M272.9,180.3l-0.9-2.2h-0.1c-0.8,0.9-1.5,1.6-2.3,2c-0.8,0.4-1.8,0.5-3.1,0.5c-1.6,0-2.8-0.4-3.7-1.3
			s-1.4-2.2-1.4-3.8c0-1.7,0.6-3,1.8-3.8c1.2-0.8,3-1.3,5.5-1.4l2.8-0.1v-0.7c0-1.7-0.8-2.5-2.5-2.5c-1.3,0-2.8,0.4-4.6,1.2l-1.5-3
			c1.9-1,4-1.5,6.3-1.5c2.2,0,3.9,0.5,5.1,1.4s1.8,2.4,1.8,4.4v10.9H272.9z M271.6,172.7l-1.7,0.1c-1.3,0-2.3,0.3-2.9,0.7
			s-1,1.1-1,2c0,1.3,0.7,1.9,2.2,1.9c1,0,1.9-0.3,2.5-0.9s0.9-1.4,0.9-2.4V172.7z"/>
		<path fill="#0A5995" d="M286.5,180.6c-5.1,0-7.6-2.8-7.6-8.4c0-2.8,0.7-4.9,2.1-6.4c1.4-1.5,3.4-2.2,6-2.2c1.9,0,3.6,0.4,5.1,1.1
			l-1.3,3.5c-0.7-0.3-1.4-0.5-2-0.7c-0.6-0.2-1.2-0.3-1.8-0.3c-2.3,0-3.5,1.7-3.5,5c0,3.2,1.2,4.8,3.5,4.8c0.9,0,1.7-0.1,2.4-0.3
			c0.7-0.2,1.5-0.6,2.2-1.1v3.8c-0.7,0.5-1.5,0.8-2.2,1S287.6,180.6,286.5,180.6z"/>
		<path fill="#0A5995" d="M301.4,177c0.8,0,1.7-0.2,2.8-0.5v3.3c-1.1,0.5-2.5,0.7-4.1,0.7c-1.8,0-3.1-0.5-3.9-1.4
			c-0.8-0.9-1.2-2.3-1.2-4.1v-7.9h-2.1v-1.9l2.5-1.5l1.3-3.5h2.9v3.5h4.6v3.4h-4.6v7.9c0,0.6,0.2,1.1,0.5,1.4S300.8,177,301.4,177z"
			/>
		<path fill="#0A5995" d="M315.9,167.3H312v13h-4.5v-13h-2.5v-2.2l2.5-1.2v-1.2c0-1.9,0.5-3.2,1.4-4.1s2.4-1.3,4.4-1.3
			c1.5,0,2.9,0.2,4.1,0.7l-1.1,3.3c-0.9-0.3-1.7-0.4-2.5-0.4c-0.6,0-1.1,0.2-1.4,0.6c-0.3,0.4-0.4,0.9-0.4,1.4v1h3.9V167.3z"/>
		<path fill="#0A5995" d="M329.3,180.3l-0.6-2.1h-0.2c-0.5,0.8-1.2,1.4-2,1.8c-0.9,0.4-1.9,0.6-3,0.6c-1.9,0-3.4-0.5-4.4-1.5
			s-1.5-2.5-1.5-4.4v-10.7h4.5v9.6c0,1.2,0.2,2.1,0.6,2.7s1.1,0.9,2,0.9c1.2,0,2.2-0.4,2.7-1.3c0.6-0.8,0.8-2.2,0.8-4.2v-7.7h4.5
			v16.4H329.3z"/>
		<path fill="#0A5995" d="M341.1,180.3h-4.5v-22.8h4.5V180.3z"/>
		<path fill="#0A5995" d="M365.1,174.3c0,1.9-0.7,3.5-2.1,4.6s-3.3,1.7-5.8,1.7c-2.3,0-4.3-0.4-6.1-1.3v-4.2
			c1.4,0.6,2.7,1.1,3.7,1.4s1.9,0.4,2.7,0.4c1,0,1.8-0.2,2.3-0.6s0.8-0.9,0.8-1.7c0-0.4-0.1-0.8-0.4-1.1s-0.6-0.6-1-0.9
			s-1.4-0.8-2.8-1.5c-1.3-0.6-2.3-1.2-2.9-1.8s-1.2-1.2-1.6-2s-0.6-1.6-0.6-2.6c0-1.9,0.6-3.4,1.9-4.5s3.1-1.6,5.3-1.6
			c1.1,0,2.2,0.1,3.2,0.4s2.1,0.6,3.2,1.1l-1.5,3.5c-1.1-0.5-2.1-0.8-2.8-1s-1.5-0.3-2.2-0.3c-0.9,0-1.5,0.2-2,0.6s-0.7,0.9-0.7,1.6
			c0,0.4,0.1,0.8,0.3,1s0.5,0.6,0.9,0.9c0.4,0.3,1.4,0.8,2.9,1.5c2,1,3.4,1.9,4.1,2.9S365.1,173,365.1,174.3z"/>
		<path fill="#0A5995" d="M374.8,177c0.8,0,1.7-0.2,2.8-0.5v3.3c-1.1,0.5-2.5,0.7-4.1,0.7c-1.8,0-3.1-0.5-3.9-1.4
			c-0.8-0.9-1.2-2.3-1.2-4.1v-7.9h-2.1v-1.9l2.5-1.5l1.3-3.5h2.9v3.5h4.6v3.4h-4.6v7.9c0,0.6,0.2,1.1,0.5,1.4S374.2,177,374.8,177z"
			/>
		<path fill="#0A5995" d="M390.5,180.3l-0.9-2.2h-0.1c-0.8,0.9-1.5,1.6-2.3,2c-0.8,0.4-1.8,0.5-3.1,0.5c-1.6,0-2.8-0.4-3.7-1.3
			s-1.4-2.2-1.4-3.8c0-1.7,0.6-3,1.8-3.8c1.2-0.8,3-1.3,5.5-1.4l2.8-0.1v-0.7c0-1.7-0.8-2.5-2.5-2.5c-1.3,0-2.8,0.4-4.6,1.2l-1.5-3
			c1.9-1,4-1.5,6.3-1.5c2.2,0,3.9,0.5,5.1,1.4s1.8,2.4,1.8,4.4v10.9H390.5z M389.2,172.7l-1.7,0.1c-1.3,0-2.3,0.3-2.9,0.7
			s-1,1.1-1,2c0,1.3,0.7,1.9,2.2,1.9c1,0,1.9-0.3,2.5-0.9s0.9-1.4,0.9-2.4V172.7z"/>
		<path fill="#0A5995" d="M404.4,177c0.8,0,1.7-0.2,2.8-0.5v3.3c-1.1,0.5-2.5,0.7-4.1,0.7c-1.8,0-3.1-0.5-3.9-1.4
			c-0.8-0.9-1.2-2.3-1.2-4.1v-7.9h-2.1v-1.9l2.5-1.5l1.3-3.5h2.9v3.5h4.6v3.4h-4.6v7.9c0,0.6,0.2,1.1,0.5,1.4S403.8,177,404.4,177z"
			/>
		<path fill="#0A5995" d="M417.2,180.6c-2.6,0-4.7-0.7-6.2-2.2s-2.2-3.5-2.2-6.2c0-2.7,0.7-4.9,2.1-6.4s3.3-2.2,5.7-2.2
			c2.3,0,4.1,0.7,5.4,2s1.9,3.1,1.9,5.5v2.2h-10.6c0,1.3,0.4,2.3,1.1,3s1.7,1.1,3,1.1c1,0,1.9-0.1,2.8-0.3s1.8-0.5,2.8-1v3.5
			c-0.8,0.4-1.6,0.7-2.5,0.9C419.5,180.5,418.5,180.6,417.2,180.6z M416.6,166.8c-0.9,0-1.7,0.3-2.2,0.9c-0.5,0.6-0.8,1.5-0.9,2.6
			h6.3c0-1.1-0.3-2-0.9-2.6C418.2,167.1,417.5,166.8,416.6,166.8z"/>
		<path fill="#0A5995" d="M441.4,180.3h-4.5v-9.6c0-1.2-0.2-2.1-0.6-2.7c-0.4-0.6-1-0.9-1.9-0.9c-1.1,0-2,0.4-2.5,1.3
			s-0.8,2.2-0.8,4.1v7.7h-4.5v-16.4h3.4l0.6,2.1h0.2c0.4-0.8,1.1-1.3,1.9-1.8c0.8-0.4,1.8-0.6,2.9-0.6c2.5,0,4.1,0.8,5,2.4h0.4
			c0.4-0.8,1.1-1.4,1.9-1.8s1.8-0.6,2.9-0.6c1.9,0,3.3,0.5,4.2,1.4c1,1,1.4,2.5,1.4,4.6v10.7h-4.5v-9.6c0-1.2-0.2-2.1-0.6-2.7
			c-0.4-0.6-1-0.9-1.9-0.9c-1.1,0-1.9,0.4-2.5,1.2s-0.8,2-0.8,3.7V180.3z"/>
		<path fill="#0A5995" d="M462.9,180.6c-2.6,0-4.7-0.7-6.2-2.2s-2.2-3.5-2.2-6.2c0-2.7,0.7-4.9,2.1-6.4s3.3-2.2,5.7-2.2
			c2.3,0,4.1,0.7,5.4,2s1.9,3.1,1.9,5.5v2.2H459c0,1.3,0.4,2.3,1.1,3s1.7,1.1,3,1.1c1,0,1.9-0.1,2.8-0.3s1.8-0.5,2.8-1v3.5
			c-0.8,0.4-1.6,0.7-2.5,0.9C465.2,180.5,464.1,180.6,462.9,180.6z M462.2,166.8c-0.9,0-1.7,0.3-2.2,0.9c-0.5,0.6-0.8,1.5-0.9,2.6
			h6.3c0-1.1-0.3-2-0.9-2.6C463.9,167.1,463.2,166.8,462.2,166.8z"/>
		<path fill="#0A5995" d="M487.5,180.3h-4.5v-9.6c0-1.2-0.2-2.1-0.6-2.7c-0.4-0.6-1.1-0.9-2-0.9c-1.2,0-2.2,0.4-2.7,1.3
			c-0.6,0.8-0.8,2.2-0.8,4.2v7.7h-4.5v-16.4h3.4l0.6,2.1h0.2c0.5-0.8,1.2-1.4,2.1-1.8s1.9-0.6,3-0.6c1.9,0,3.3,0.5,4.3,1.5
			s1.5,2.5,1.5,4.5V180.3z"/>
		<path fill="#0A5995" d="M498.3,177c0.8,0,1.7-0.2,2.8-0.5v3.3c-1.1,0.5-2.5,0.7-4.1,0.7c-1.8,0-3.1-0.5-3.9-1.4
			c-0.8-0.9-1.2-2.3-1.2-4.1v-7.9h-2.1v-1.9l2.5-1.5l1.3-3.5h2.9v3.5h4.6v3.4h-4.6v7.9c0,0.6,0.2,1.1,0.5,1.4S497.7,177,498.3,177z"
			/>
		<path fill="#0A5995" d="M515.1,175.4c0,1.7-0.6,3-1.8,3.8s-2.9,1.3-5.2,1.3c-1.2,0-2.2-0.1-3-0.2c-0.8-0.2-1.6-0.4-2.4-0.7v-3.7
			c0.8,0.4,1.8,0.7,2.8,1s2,0.4,2.7,0.4c1.6,0,2.4-0.5,2.4-1.4c0-0.4-0.1-0.6-0.3-0.9c-0.2-0.2-0.6-0.5-1.1-0.7
			c-0.5-0.3-1.2-0.6-2.1-1c-1.3-0.5-2.2-1-2.8-1.5s-1-1-1.3-1.5c-0.3-0.6-0.4-1.3-0.4-2.1c0-1.5,0.6-2.6,1.7-3.4s2.7-1.2,4.8-1.2
			c2,0,3.9,0.4,5.8,1.3l-1.3,3.2c-0.8-0.4-1.6-0.6-2.3-0.9s-1.4-0.3-2.2-0.3c-1.3,0-2,0.4-2,1.1c0,0.4,0.2,0.7,0.6,1
			s1.4,0.7,2.8,1.3c1.3,0.5,2.2,1,2.8,1.5s1,1,1.3,1.6S515.1,174.6,515.1,175.4z"/>
	</g>
</g>
<g id="Layer_2">
</g>
</svg>
