<?xml version="1.0" encoding="utf-8"?>
<!-- Generator: Adobe Illustrator 21.1.0, SVG Export Plug-In . SVG Version: 6.00 Build 0)  -->
<svg version="1.1" xmlns="http://www.w3.org/2000/svg" xmlns:xlink="http://www.w3.org/1999/xlink" x="0px" y="0px"
	 viewBox="0 0 600 280.7" enable-background="new 0 0 600 280.7" xml:space="preserve">
<g id="Layer_1">
	<g>
		<g>
			<rect y="-0.3" fill="#FFFFFF" width="600" height="280.8"/>
		</g>
		<g>
			<g>
				<path fill="#E3F9FF" d="M276.4,67c0-6.5,1.5-11.6,4.6-15.4c3.1-3.8,7.6-6.2,13.5-7.4v6.7c-4.4,1.4-7.4,3.8-8.9,7.1
					c-0.8,1.8-1.1,3.6-1,5.5h10.2v17.1h-18.5V67z M303.5,67c0-6.6,1.6-11.7,4.8-15.4c3.2-3.7,7.6-6.2,13.4-7.3v6.7
					c-4.4,1.3-7.3,3.8-8.8,7.3c-0.9,1.9-1.2,3.7-1,5.4H322v17.1h-18.5V67z"/>
				<path fill="#0A5995" d="M323.5,82.2H302V67c0-6.9,1.7-12.4,5.1-16.4c3.4-4,8.2-6.6,14.2-7.8l1.8-0.4v9.7l-1.1,0.3
					c-4,1.2-6.5,3.3-7.9,6.4c-0.5,1.1-0.8,2.2-0.9,3.3h10.2V82.2z M305,79.2h15.5V65.1h-10l-0.1-1.3c-0.2-2,0.2-4.1,1.2-6.2
					c1.5-3.6,4.5-6.2,8.7-7.7v-3.8c-4.5,1.2-8.2,3.4-10.8,6.4c-2.9,3.4-4.4,8.3-4.4,14.5V79.2z M296.4,82.2h-21.5V67
					c0-6.8,1.7-12.3,5-16.3c3.3-4,8.2-6.7,14.4-7.9l1.8-0.4V52l-1.1,0.3c-4,1.3-6.6,3.3-8,6.3c-0.5,1.1-0.8,2.2-0.8,3.4h10.2V82.2z
					 M277.9,79.2h15.5V65.1h-10.1l-0.1-1.4c-0.1-2.1,0.2-4.2,1.1-6.2c1.6-3.5,4.5-6,8.8-7.6v-3.8c-4.7,1.2-8.3,3.4-10.9,6.5
					c-2.9,3.5-4.3,8.3-4.3,14.4V79.2z"/>
			</g>
		</g>
		<g>
			<path fill="#0A5995" d="M81.1,131.1l-1.1-3.7h-5.6l-1.1,3.7h-3.5l5.4-15.4h4l5.4,15.4H81.1z M79.2,124.8c-1-3.3-1.6-5.2-1.7-5.6
				c-0.1-0.4-0.2-0.8-0.3-1c-0.2,0.9-0.9,3.1-2,6.6H79.2z"/>
			<path fill="#0A5995" d="M94.5,131.3c-1.4,0-2.5-0.5-3.2-1.6c-0.8-1.1-1.2-2.6-1.2-4.5c0-1.9,0.4-3.4,1.2-4.5
				c0.8-1.1,1.9-1.6,3.3-1.6c1.5,0,2.6,0.6,3.4,1.7h0.1c-0.2-0.9-0.2-1.7-0.2-2.3v-3.8h3.2v16.3h-2.5l-0.6-1.5h-0.1
				C97.1,130.8,96,131.3,94.5,131.3z M95.7,128.8c0.8,0,1.4-0.2,1.8-0.7c0.4-0.5,0.6-1.3,0.6-2.4v-0.3c0-1.3-0.2-2.2-0.6-2.7
				c-0.4-0.5-1-0.8-1.9-0.8c-0.7,0-1.3,0.3-1.7,0.9c-0.4,0.6-0.6,1.5-0.6,2.6c0,1.2,0.2,2,0.6,2.6C94.3,128.5,94.9,128.8,95.7,128.8
				z"/>
			<path fill="#0A5995" d="M109.2,131.3c-1.9,0-3.4-0.5-4.4-1.6c-1.1-1-1.6-2.5-1.6-4.4c0-2,0.5-3.5,1.5-4.6s2.3-1.6,4.1-1.6
				c1.7,0,3,0.5,3.9,1.4c0.9,0.9,1.4,2.2,1.4,3.9v1.6h-7.6c0,0.9,0.3,1.6,0.8,2.1c0.5,0.5,1.2,0.8,2.1,0.8c0.7,0,1.4-0.1,2-0.2
				c0.6-0.1,1.3-0.4,2-0.7v2.5c-0.6,0.3-1.2,0.5-1.8,0.6C110.9,131.3,110.1,131.3,109.2,131.3z M108.7,121.5c-0.7,0-1.2,0.2-1.6,0.6
				c-0.4,0.4-0.6,1-0.7,1.8h4.5c0-0.8-0.2-1.4-0.6-1.8C110,121.7,109.4,121.5,108.7,121.5z"/>
			<path fill="#0A5995" d="M124.2,127.6c0,1.2-0.4,2.1-1.3,2.8c-0.8,0.6-2.1,0.9-3.8,0.9c-0.9,0-1.6-0.1-2.2-0.2
				c-0.6-0.1-1.2-0.3-1.7-0.5V128c0.6,0.3,1.3,0.5,2,0.7c0.7,0.2,1.4,0.3,2,0.3c1.2,0,1.7-0.3,1.7-1c0-0.3-0.1-0.5-0.2-0.6
				c-0.2-0.2-0.4-0.3-0.8-0.5s-0.9-0.4-1.5-0.7c-0.9-0.4-1.6-0.7-2-1c-0.4-0.3-0.7-0.7-0.9-1.1c-0.2-0.4-0.3-0.9-0.3-1.5
				c0-1,0.4-1.8,1.2-2.4c0.8-0.6,2-0.9,3.4-0.9c1.4,0,2.8,0.3,4.1,0.9l-1,2.3c-0.6-0.3-1.1-0.5-1.6-0.6s-1-0.2-1.6-0.2
				c-0.9,0-1.4,0.3-1.4,0.8c0,0.3,0.2,0.5,0.5,0.7c0.3,0.2,1,0.5,2,0.9c0.9,0.4,1.6,0.7,2,1c0.4,0.3,0.7,0.7,0.9,1.1
				C124.1,126.6,124.2,127.1,124.2,127.6z"/>
			<path fill="#0A5995" d="M126.1,116.4c0-1,0.6-1.6,1.7-1.6c1.2,0,1.7,0.5,1.7,1.6c0,0.5-0.1,0.9-0.4,1.2c-0.3,0.3-0.7,0.4-1.3,0.4
				C126.6,117.9,126.1,117.4,126.1,116.4z M129.4,131.1h-3.2v-11.7h3.2V131.1z"/>
			<path fill="#0A5995" d="M142.4,119.4v1.6l-1.8,0.5c0.3,0.5,0.5,1.1,0.5,1.8c0,1.3-0.4,2.2-1.3,2.9c-0.9,0.7-2.1,1.1-3.7,1.1
				l-0.6,0l-0.5-0.1c-0.3,0.3-0.5,0.5-0.5,0.8c0,0.5,0.6,0.7,1.8,0.7h2c1.3,0,2.3,0.3,2.9,0.8c0.7,0.6,1,1.4,1,2.4
				c0,1.4-0.6,2.4-1.7,3.2c-1.1,0.8-2.8,1.1-4.9,1.1c-1.6,0-2.9-0.3-3.8-0.9c-0.9-0.6-1.3-1.4-1.3-2.4c0-0.7,0.2-1.3,0.7-1.8
				c0.4-0.5,1.1-0.8,1.9-1c-0.3-0.1-0.6-0.4-0.9-0.7s-0.4-0.7-0.4-1c0-0.4,0.1-0.8,0.4-1.1s0.6-0.6,1.1-0.9
				c-0.6-0.3-1.1-0.7-1.5-1.3s-0.5-1.3-0.5-2.1c0-1.3,0.4-2.3,1.2-3c0.8-0.7,2-1,3.6-1c0.3,0,0.7,0,1.2,0.1s0.7,0.1,0.9,0.1H142.4z
				 M133.4,132.8c0,0.4,0.2,0.8,0.6,1c0.4,0.3,1,0.4,1.8,0.4c1.1,0,2-0.2,2.7-0.5c0.7-0.3,1-0.7,1-1.3c0-0.4-0.2-0.7-0.6-0.9
				c-0.4-0.2-1-0.3-1.8-0.3h-1.7c-0.6,0-1.1,0.1-1.5,0.4C133.6,132,133.4,132.3,133.4,132.8z M134.5,123.2c0,0.6,0.1,1.1,0.4,1.5
				c0.3,0.4,0.7,0.6,1.3,0.6c0.6,0,1-0.2,1.3-0.6c0.3-0.4,0.4-0.9,0.4-1.5c0-1.4-0.6-2.1-1.7-2.1
				C135.1,121.1,134.5,121.8,134.5,123.2z"/>
			<path fill="#0A5995" d="M154.7,131.1h-3.2v-6.9c0-0.8-0.2-1.5-0.5-1.9c-0.3-0.4-0.8-0.6-1.4-0.6c-0.9,0-1.5,0.3-1.9,0.9
				c-0.4,0.6-0.6,1.6-0.6,3v5.5h-3.2v-11.7h2.4l0.4,1.5h0.2c0.4-0.6,0.8-1,1.5-1.3c0.6-0.3,1.3-0.4,2.1-0.4c1.4,0,2.4,0.4,3.1,1.1
				s1.1,1.8,1.1,3.2V131.1z"/>
			<path fill="#0A5995" d="M162.7,131.3c-1.9,0-3.4-0.5-4.4-1.6c-1.1-1-1.6-2.5-1.6-4.4c0-2,0.5-3.5,1.5-4.6s2.3-1.6,4.1-1.6
				c1.7,0,3,0.5,3.9,1.4c0.9,0.9,1.4,2.2,1.4,3.9v1.6h-7.6c0,0.9,0.3,1.6,0.8,2.1c0.5,0.5,1.2,0.8,2.1,0.8c0.7,0,1.4-0.1,2-0.2
				c0.6-0.1,1.3-0.4,2-0.7v2.5c-0.6,0.3-1.2,0.5-1.8,0.6C164.4,131.3,163.6,131.3,162.7,131.3z M162.3,121.5c-0.7,0-1.2,0.2-1.6,0.6
				c-0.4,0.4-0.6,1-0.7,1.8h4.5c0-0.8-0.2-1.4-0.6-1.8C163.5,121.7,163,121.5,162.3,121.5z"/>
			<path fill="#0A5995" d="M176.1,119.2c0.4,0,0.8,0,1.1,0.1l-0.2,3c-0.3-0.1-0.6-0.1-0.9-0.1c-1,0-1.8,0.3-2.4,0.8
				c-0.6,0.5-0.9,1.3-0.9,2.2v6h-3.2v-11.7h2.4l0.5,2h0.2c0.4-0.7,0.9-1.2,1.5-1.6S175.4,119.2,176.1,119.2z"/>
			<path fill="#0A5995" d="M186.9,124.8l1.4-1.8l3.3-3.6h3.6l-4.7,5.1l4.9,6.6h-3.7l-3.4-4.8l-1.4,1.1v3.7h-3.2v-16.3h3.2v7.3
				L186.9,124.8L186.9,124.8z"/>
			<path fill="#0A5995" d="M207.5,131.1h-3.2v-6.9c0-0.8-0.2-1.5-0.5-1.9c-0.3-0.4-0.8-0.6-1.4-0.6c-0.9,0-1.5,0.3-1.9,0.9
				c-0.4,0.6-0.6,1.6-0.6,3v5.5h-3.2v-11.7h2.4l0.4,1.5h0.2c0.4-0.6,0.8-1,1.5-1.3c0.6-0.3,1.3-0.4,2.1-0.4c1.4,0,2.4,0.4,3.1,1.1
				s1.1,1.8,1.1,3.2V131.1z"/>
			<path fill="#0A5995" d="M220.9,125.2c0,1.9-0.5,3.4-1.5,4.5c-1,1.1-2.4,1.6-4.2,1.6c-1.1,0-2.1-0.2-3-0.7s-1.5-1.2-2-2.1
				c-0.5-0.9-0.7-2-0.7-3.2c0-1.9,0.5-3.4,1.5-4.5c1-1.1,2.4-1.6,4.2-1.6c1.1,0,2.1,0.2,3,0.7c0.9,0.5,1.5,1.2,2,2.1
				S220.9,124,220.9,125.2z M212.8,125.2c0,1.2,0.2,2,0.6,2.6c0.4,0.6,1,0.9,1.9,0.9c0.9,0,1.5-0.3,1.8-0.9c0.4-0.6,0.6-1.5,0.6-2.6
				c0-1.2-0.2-2-0.6-2.6s-1-0.9-1.9-0.9c-0.9,0-1.5,0.3-1.8,0.9S212.8,124.1,212.8,125.2z"/>
			<path fill="#0A5995" d="M232.7,131.1l-0.9-4.1l-1.2-5.2h-0.1l-2.1,9.3h-3.4l-3.3-11.7h3.2l1.4,5.2c0.2,0.9,0.4,2.2,0.7,3.9h0.1
				c0-0.5,0.2-1.4,0.4-2.5l0.2-0.9l1.4-5.6h3.5l1.4,5.6c0,0.2,0.1,0.4,0.1,0.7s0.1,0.6,0.2,1c0.1,0.3,0.1,0.7,0.2,1
				c0,0.3,0.1,0.6,0.1,0.8h0.1c0.1-0.5,0.2-1.2,0.3-2.1c0.2-0.9,0.3-1.5,0.3-1.8l1.4-5.2h3.1l-3.4,11.7H232.7z"/>
			<path fill="#0A5995" d="M249.1,127.6c0,1.2-0.4,2.1-1.3,2.8c-0.8,0.6-2.1,0.9-3.8,0.9c-0.9,0-1.6-0.1-2.2-0.2
				c-0.6-0.1-1.2-0.3-1.7-0.5V128c0.6,0.3,1.3,0.5,2,0.7c0.7,0.2,1.4,0.3,2,0.3c1.2,0,1.7-0.3,1.7-1c0-0.3-0.1-0.5-0.2-0.6
				c-0.2-0.2-0.4-0.3-0.8-0.5s-0.9-0.4-1.5-0.7c-0.9-0.4-1.6-0.7-2-1c-0.4-0.3-0.7-0.7-0.9-1.1c-0.2-0.4-0.3-0.9-0.3-1.5
				c0-1,0.4-1.8,1.2-2.4c0.8-0.6,2-0.9,3.4-0.9c1.4,0,2.8,0.3,4.1,0.9l-1,2.3c-0.6-0.3-1.1-0.5-1.6-0.6s-1-0.2-1.6-0.2
				c-0.9,0-1.4,0.3-1.4,0.8c0,0.3,0.2,0.5,0.5,0.7c0.3,0.2,1,0.5,2,0.9c0.9,0.4,1.6,0.7,2,1c0.4,0.3,0.7,0.7,0.9,1.1
				C249,126.6,249.1,127.1,249.1,127.6z"/>
			<path fill="#0A5995" d="M266.9,131.1h-3.2v-6.9c0-1.7-0.6-2.5-1.9-2.5c-0.9,0-1.5,0.3-1.9,0.9c-0.4,0.6-0.6,1.6-0.6,3v5.5h-3.2
				v-16.3h3.2v3.3c0,0.3,0,0.9-0.1,1.8l-0.1,0.9h0.2c0.7-1.1,1.8-1.7,3.4-1.7c1.4,0,2.4,0.4,3.1,1.1c0.7,0.7,1.1,1.8,1.1,3.2V131.1z
				"/>
			<path fill="#0A5995" d="M275,131.3c-1.9,0-3.4-0.5-4.4-1.6c-1.1-1-1.6-2.5-1.6-4.4c0-2,0.5-3.5,1.5-4.6s2.3-1.6,4.1-1.6
				c1.7,0,3,0.5,3.9,1.4c0.9,0.9,1.4,2.2,1.4,3.9v1.6h-7.6c0,0.9,0.3,1.6,0.8,2.1c0.5,0.5,1.2,0.8,2.1,0.8c0.7,0,1.4-0.1,2-0.2
				c0.6-0.1,1.3-0.4,2-0.7v2.5c-0.6,0.3-1.2,0.5-1.8,0.6C276.7,131.3,275.9,131.3,275,131.3z M274.5,121.5c-0.7,0-1.2,0.2-1.6,0.6
				c-0.4,0.4-0.6,1-0.7,1.8h4.5c0-0.8-0.2-1.4-0.6-1.8C275.7,121.7,275.2,121.5,274.5,121.5z"/>
			<path fill="#0A5995" d="M297.7,131.1h-3.2v-6.9c0-1.7-0.6-2.5-1.9-2.5c-0.9,0-1.5,0.3-1.9,0.9c-0.4,0.6-0.6,1.6-0.6,3v5.5h-3.2
				v-16.3h3.2v3.3c0,0.3,0,0.9-0.1,1.8l-0.1,0.9h0.2c0.7-1.1,1.8-1.7,3.4-1.7c1.4,0,2.4,0.4,3.1,1.1c0.7,0.7,1.1,1.8,1.1,3.2V131.1z
				"/>
			<path fill="#0A5995" d="M307.9,131.1l-0.6-1.6h-0.1c-0.5,0.7-1.1,1.1-1.7,1.4s-1.3,0.4-2.2,0.4c-1.1,0-2-0.3-2.7-1
				c-0.6-0.6-1-1.6-1-2.7c0-1.2,0.4-2.2,1.3-2.8c0.9-0.6,2.2-0.9,3.9-1l2-0.1v-0.5c0-1.2-0.6-1.8-1.8-1.8c-0.9,0-2,0.3-3.3,0.9
				l-1.1-2.2c1.4-0.7,2.8-1.1,4.5-1.1c1.6,0,2.8,0.3,3.6,1c0.8,0.7,1.3,1.7,1.3,3.1v7.8H307.9z M307,125.7l-1.2,0
				c-0.9,0-1.6,0.2-2.1,0.5c-0.5,0.3-0.7,0.8-0.7,1.4c0,0.9,0.5,1.4,1.6,1.4c0.7,0,1.3-0.2,1.8-0.6c0.4-0.4,0.7-1,0.7-1.7V125.7z"/>
			<path fill="#0A5995" d="M321.1,127.6c0,1.2-0.4,2.1-1.3,2.8c-0.8,0.6-2.1,0.9-3.8,0.9c-0.9,0-1.6-0.1-2.2-0.2
				c-0.6-0.1-1.2-0.3-1.7-0.5V128c0.6,0.3,1.3,0.5,2,0.7c0.7,0.2,1.4,0.3,2,0.3c1.2,0,1.7-0.3,1.7-1c0-0.3-0.1-0.5-0.2-0.6
				c-0.2-0.2-0.4-0.3-0.8-0.5s-0.9-0.4-1.5-0.7c-0.9-0.4-1.6-0.7-2-1c-0.4-0.3-0.7-0.7-0.9-1.1c-0.2-0.4-0.3-0.9-0.3-1.5
				c0-1,0.4-1.8,1.2-2.4c0.8-0.6,2-0.9,3.4-0.9c1.4,0,2.8,0.3,4.1,0.9l-1,2.3c-0.6-0.3-1.1-0.5-1.6-0.6s-1-0.2-1.6-0.2
				c-0.9,0-1.4,0.3-1.4,0.8c0,0.3,0.2,0.5,0.5,0.7c0.3,0.2,1,0.5,2,0.9c0.9,0.4,1.6,0.7,2,1c0.4,0.3,0.7,0.7,0.9,1.1
				C321,126.6,321.1,127.1,321.1,127.6z"/>
			<path fill="#0A5995" d="M335.6,131.1l-0.6-1.6h-0.1c-0.5,0.7-1.1,1.1-1.7,1.4s-1.3,0.4-2.2,0.4c-1.1,0-2-0.3-2.7-1
				c-0.6-0.6-1-1.6-1-2.7c0-1.2,0.4-2.2,1.3-2.8c0.9-0.6,2.2-0.9,3.9-1l2-0.1v-0.5c0-1.2-0.6-1.8-1.8-1.8c-0.9,0-2,0.3-3.3,0.9
				l-1.1-2.2c1.4-0.7,2.8-1.1,4.5-1.1c1.6,0,2.8,0.3,3.6,1c0.8,0.7,1.3,1.7,1.3,3.1v7.8H335.6z M334.6,125.7l-1.2,0
				c-0.9,0-1.6,0.2-2.1,0.5c-0.5,0.3-0.7,0.8-0.7,1.4c0,0.9,0.5,1.4,1.6,1.4c0.7,0,1.3-0.2,1.8-0.6c0.4-0.4,0.7-1,0.7-1.7V125.7z"/>
			<path fill="#0A5995" d="M345.3,131.3c-3.7,0-5.5-2-5.5-6c0-2,0.5-3.5,1.5-4.6c1-1.1,2.4-1.6,4.3-1.6c1.4,0,2.6,0.3,3.7,0.8
				l-0.9,2.5c-0.5-0.2-1-0.4-1.4-0.5s-0.9-0.2-1.3-0.2c-1.7,0-2.5,1.2-2.5,3.5c0,2.3,0.8,3.4,2.5,3.4c0.6,0,1.2-0.1,1.7-0.2
				c0.5-0.2,1-0.4,1.6-0.8v2.7c-0.5,0.3-1,0.6-1.6,0.7C346.8,131.3,346.1,131.3,345.3,131.3z"/>
			<path fill="#0A5995" d="M361.9,131.1h-3.2v-6.9c0-1.7-0.6-2.5-1.9-2.5c-0.9,0-1.5,0.3-1.9,0.9c-0.4,0.6-0.6,1.6-0.6,3v5.5h-3.2
				v-16.3h3.2v3.3c0,0.3,0,0.9-0.1,1.8l-0.1,0.9h0.2c0.7-1.1,1.8-1.7,3.4-1.7c1.4,0,2.4,0.4,3.1,1.1c0.7,0.7,1.1,1.8,1.1,3.2V131.1z
				"/>
			<path fill="#0A5995" d="M364.5,116.4c0-1,0.6-1.6,1.7-1.6c1.2,0,1.7,0.5,1.7,1.6c0,0.5-0.1,0.9-0.4,1.2c-0.3,0.3-0.7,0.4-1.3,0.4
				C365.1,117.9,364.5,117.4,364.5,116.4z M367.9,131.1h-3.2v-11.7h3.2V131.1z"/>
			<path fill="#0A5995" d="M376,131.3c-1.9,0-3.4-0.5-4.4-1.6c-1.1-1-1.6-2.5-1.6-4.4c0-2,0.5-3.5,1.5-4.6s2.3-1.6,4.1-1.6
				c1.7,0,3,0.5,3.9,1.4c0.9,0.9,1.4,2.2,1.4,3.9v1.6h-7.6c0,0.9,0.3,1.6,0.8,2.1c0.5,0.5,1.2,0.8,2.1,0.8c0.7,0,1.4-0.1,2-0.2
				c0.6-0.1,1.3-0.4,2-0.7v2.5c-0.6,0.3-1.2,0.5-1.8,0.6C377.7,131.3,376.9,131.3,376,131.3z M375.6,121.5c-0.7,0-1.2,0.2-1.6,0.6
				c-0.4,0.4-0.6,1-0.7,1.8h4.5c0-0.8-0.2-1.4-0.6-1.8C376.8,121.7,376.2,121.5,375.6,121.5z"/>
			<path fill="#0A5995" d="M385.6,131.1l-4.5-11.7h3.3l2.3,6.7c0.3,0.8,0.4,1.6,0.5,2.4h0.1c0-0.7,0.2-1.5,0.5-2.4l2.3-6.7h3.3
				l-4.5,11.7H385.6z"/>
			<path fill="#0A5995" d="M399.9,131.3c-1.9,0-3.4-0.5-4.4-1.6c-1.1-1-1.6-2.5-1.6-4.4c0-2,0.5-3.5,1.5-4.6s2.3-1.6,4.1-1.6
				c1.7,0,3,0.5,3.9,1.4c0.9,0.9,1.4,2.2,1.4,3.9v1.6h-7.6c0,0.9,0.3,1.6,0.8,2.1c0.5,0.5,1.2,0.8,2.1,0.8c0.7,0,1.4-0.1,2-0.2
				c0.6-0.1,1.3-0.4,2-0.7v2.5c-0.6,0.3-1.2,0.5-1.8,0.6C401.6,131.3,400.8,131.3,399.9,131.3z M399.4,121.5c-0.7,0-1.2,0.2-1.6,0.6
				c-0.4,0.4-0.6,1-0.7,1.8h4.5c0-0.8-0.2-1.4-0.6-1.8C400.6,121.7,400.1,121.5,399.4,121.5z"/>
			<path fill="#0A5995" d="M410.4,131.3c-1.4,0-2.5-0.5-3.2-1.6c-0.8-1.1-1.2-2.6-1.2-4.5c0-1.9,0.4-3.4,1.2-4.5
				c0.8-1.1,1.9-1.6,3.3-1.6c1.5,0,2.6,0.6,3.4,1.7h0.1c-0.2-0.9-0.2-1.7-0.2-2.3v-3.8h3.2v16.3h-2.5l-0.6-1.5h-0.1
				C413,130.8,411.9,131.3,410.4,131.3z M411.5,128.8c0.8,0,1.4-0.2,1.8-0.7c0.4-0.5,0.6-1.3,0.6-2.4v-0.3c0-1.3-0.2-2.2-0.6-2.7
				c-0.4-0.5-1-0.8-1.9-0.8c-0.7,0-1.3,0.3-1.7,0.9c-0.4,0.6-0.6,1.5-0.6,2.6c0,1.2,0.2,2,0.6,2.6
				C410.2,128.5,410.8,128.8,411.5,128.8z"/>
			<path fill="#0A5995" d="M431.3,131.3c-1.4,0-2.5-0.5-3.2-1.5h-0.2c0.1,1,0.2,1.5,0.2,1.7v4.8h-3.2v-16.9h2.6l0.5,1.5h0.1
				c0.7-1.2,1.9-1.7,3.3-1.7c1.4,0,2.5,0.5,3.3,1.6c0.8,1.1,1.2,2.6,1.2,4.5c0,1.3-0.2,2.3-0.6,3.3c-0.4,0.9-0.9,1.6-1.6,2.1
				C433,131.1,432.2,131.3,431.3,131.3z M430.3,121.7c-0.8,0-1.4,0.2-1.7,0.7c-0.4,0.5-0.6,1.3-0.6,2.4v0.3c0,1.3,0.2,2.2,0.6,2.7
				c0.4,0.5,1,0.8,1.8,0.8c1.4,0,2.2-1.2,2.2-3.5c0-1.2-0.2-2-0.5-2.6S431.1,121.7,430.3,121.7z"/>
			<path fill="#0A5995" d="M443.2,131.3c-1.9,0-3.4-0.5-4.4-1.6c-1.1-1-1.6-2.5-1.6-4.4c0-2,0.5-3.5,1.5-4.6s2.3-1.6,4.1-1.6
				c1.7,0,3,0.5,3.9,1.4c0.9,0.9,1.4,2.2,1.4,3.9v1.6h-7.6c0,0.9,0.3,1.6,0.8,2.1c0.5,0.5,1.2,0.8,2.1,0.8c0.7,0,1.4-0.1,2-0.2
				c0.6-0.1,1.3-0.4,2-0.7v2.5c-0.6,0.3-1.2,0.5-1.8,0.6C444.9,131.3,444.1,131.3,443.2,131.3z M442.8,121.5c-0.7,0-1.2,0.2-1.6,0.6
				c-0.4,0.4-0.6,1-0.7,1.8h4.5c0-0.8-0.2-1.4-0.6-1.8C444,121.7,443.4,121.5,442.8,121.5z"/>
			<path fill="#0A5995" d="M456.6,119.2c0.4,0,0.8,0,1.1,0.1l-0.2,3c-0.3-0.1-0.6-0.1-0.9-0.1c-1,0-1.8,0.3-2.4,0.8
				c-0.6,0.5-0.9,1.3-0.9,2.2v6h-3.2v-11.7h2.4l0.5,2h0.2c0.4-0.7,0.9-1.2,1.5-1.6S455.9,119.2,456.6,119.2z"/>
			<path fill="#0A5995" d="M465.8,121.8H463v9.3h-3.2v-9.3H458v-1.5l1.8-0.9v-0.9c0-1.3,0.3-2.3,1-2.9s1.7-0.9,3.2-0.9
				c1.1,0,2.1,0.2,2.9,0.5l-0.8,2.4c-0.6-0.2-1.2-0.3-1.8-0.3c-0.5,0-0.8,0.1-1,0.4s-0.3,0.6-0.3,1v0.7h2.8V121.8z"/>
			<path fill="#0A5995" d="M472.4,131.3c-1.9,0-3.4-0.5-4.4-1.6c-1.1-1-1.6-2.5-1.6-4.4c0-2,0.5-3.5,1.5-4.6s2.3-1.6,4.1-1.6
				c1.7,0,3,0.5,3.9,1.4c0.9,0.9,1.4,2.2,1.4,3.9v1.6h-7.6c0,0.9,0.3,1.6,0.8,2.1c0.5,0.5,1.2,0.8,2.1,0.8c0.7,0,1.4-0.1,2-0.2
				c0.6-0.1,1.3-0.4,2-0.7v2.5c-0.6,0.3-1.2,0.5-1.8,0.6C474.1,131.3,473.3,131.3,472.4,131.3z M471.9,121.5c-0.7,0-1.2,0.2-1.6,0.6
				c-0.4,0.4-0.6,1-0.7,1.8h4.5c0-0.8-0.2-1.4-0.6-1.8C473.1,121.7,472.6,121.5,471.9,121.5z"/>
			<path fill="#0A5995" d="M484,131.3c-3.7,0-5.5-2-5.5-6c0-2,0.5-3.5,1.5-4.6c1-1.1,2.4-1.6,4.3-1.6c1.4,0,2.6,0.3,3.7,0.8
				l-0.9,2.5c-0.5-0.2-1-0.4-1.4-0.5s-0.9-0.2-1.3-0.2c-1.7,0-2.5,1.2-2.5,3.5c0,2.3,0.8,3.4,2.5,3.4c0.6,0,1.2-0.1,1.7-0.2
				c0.5-0.2,1-0.4,1.6-0.8v2.7c-0.5,0.3-1,0.6-1.6,0.7C485.5,131.3,484.8,131.3,484,131.3z"/>
			<path fill="#0A5995" d="M494.7,128.8c0.6,0,1.2-0.1,2-0.4v2.4c-0.8,0.4-1.8,0.5-2.9,0.5c-1.3,0-2.2-0.3-2.8-1s-0.9-1.6-0.9-2.9
				v-5.7h-1.5v-1.4l1.8-1.1l0.9-2.5h2v2.5h3.3v2.4h-3.3v5.7c0,0.5,0.1,0.8,0.4,1C493.9,128.7,494.3,128.8,494.7,128.8z"/>
			<path fill="#0A5995" d="M498.4,116.4c0-1,0.6-1.6,1.7-1.6c1.2,0,1.7,0.5,1.7,1.6c0,0.5-0.1,0.9-0.4,1.2c-0.3,0.3-0.7,0.4-1.3,0.4
				C499,117.9,498.4,117.4,498.4,116.4z M501.7,131.1h-3.2v-11.7h3.2V131.1z"/>
			<path fill="#0A5995" d="M515.2,125.2c0,1.9-0.5,3.4-1.5,4.5c-1,1.1-2.4,1.6-4.2,1.6c-1.1,0-2.1-0.2-3-0.7s-1.5-1.2-2-2.1
				c-0.5-0.9-0.7-2-0.7-3.2c0-1.9,0.5-3.4,1.5-4.5c1-1.1,2.4-1.6,4.2-1.6c1.1,0,2.1,0.2,3,0.7c0.9,0.5,1.5,1.2,2,2.1
				S515.2,124,515.2,125.2z M507.1,125.2c0,1.2,0.2,2,0.6,2.6c0.4,0.6,1,0.9,1.9,0.9c0.9,0,1.5-0.3,1.8-0.9c0.4-0.6,0.6-1.5,0.6-2.6
				c0-1.2-0.2-2-0.6-2.6s-1-0.9-1.9-0.9c-0.9,0-1.5,0.3-1.8,0.9S507.1,124.1,507.1,125.2z"/>
			<path fill="#0A5995" d="M528.2,131.1H525v-6.9c0-0.8-0.2-1.5-0.5-1.9c-0.3-0.4-0.8-0.6-1.4-0.6c-0.9,0-1.5,0.3-1.9,0.9
				c-0.4,0.6-0.6,1.6-0.6,3v5.5h-3.2v-11.7h2.4l0.4,1.5h0.2c0.4-0.6,0.8-1,1.5-1.3c0.6-0.3,1.3-0.4,2.1-0.4c1.4,0,2.4,0.4,3.1,1.1
				s1.1,1.8,1.1,3.2V131.1z"/>
			<path fill="#0A5995" d="M70.5,161.2h-3.2v-6.9c0-0.8-0.2-1.5-0.5-1.9c-0.3-0.4-0.8-0.6-1.4-0.6c-0.9,0-1.5,0.3-1.9,0.9
				c-0.4,0.6-0.6,1.6-0.6,3v5.5h-3.2v-11.7h2.4l0.4,1.5h0.2c0.4-0.6,0.8-1,1.5-1.3c0.6-0.3,1.3-0.4,2.1-0.4c1.4,0,2.4,0.4,3.1,1.1
				s1.1,1.8,1.1,3.2V161.2z"/>
			<path fill="#0A5995" d="M83.9,155.3c0,1.9-0.5,3.4-1.5,4.5c-1,1.1-2.4,1.6-4.2,1.6c-1.1,0-2.1-0.2-3-0.7s-1.5-1.2-2-2.1
				c-0.5-0.9-0.7-2-0.7-3.2c0-1.9,0.5-3.4,1.5-4.5c1-1.1,2.4-1.6,4.2-1.6c1.1,0,2.1,0.2,3,0.7c0.9,0.5,1.5,1.2,2,2.1
				S83.9,154.1,83.9,155.3z M75.8,155.3c0,1.2,0.2,2,0.6,2.6c0.4,0.6,1,0.9,1.9,0.9c0.9,0,1.5-0.3,1.8-0.9c0.4-0.6,0.6-1.5,0.6-2.6
				c0-1.2-0.2-2-0.6-2.6s-1-0.9-1.9-0.9c-0.9,0-1.5,0.3-1.8,0.9S75.8,154.2,75.8,155.3z"/>
			<path fill="#0A5995" d="M90.9,158.9c0.6,0,1.2-0.1,2-0.4v2.4c-0.8,0.4-1.8,0.5-2.9,0.5c-1.3,0-2.2-0.3-2.8-1s-0.9-1.6-0.9-2.9
				v-5.7h-1.5v-1.4l1.8-1.1l0.9-2.5h2v2.5h3.3v2.4h-3.3v5.7c0,0.5,0.1,0.8,0.4,1C90.2,158.8,90.5,158.9,90.9,158.9z"/>
			<path fill="#0A5995" d="M109.5,161.2l-0.9-4.1l-1.2-5.2h-0.1l-2.1,9.3h-3.4l-3.3-11.7h3.2l1.4,5.2c0.2,0.9,0.4,2.2,0.7,3.9h0.1
				c0-0.5,0.2-1.4,0.4-2.5l0.2-0.9l1.4-5.6h3.5l1.4,5.6c0,0.2,0.1,0.4,0.1,0.7s0.1,0.6,0.2,1c0.1,0.3,0.1,0.7,0.2,1
				c0,0.3,0.1,0.6,0.1,0.8h0.1c0.1-0.5,0.2-1.2,0.3-2.1c0.2-0.9,0.3-1.5,0.3-1.8l1.4-5.2h3.1l-3.4,11.7H109.5z"/>
			<path fill="#0A5995" d="M128.5,161.2h-3.2v-6.9c0-1.7-0.6-2.5-1.9-2.5c-0.9,0-1.5,0.3-1.9,0.9c-0.4,0.6-0.6,1.6-0.6,3v5.5h-3.2
				v-16.3h3.2v3.3c0,0.3,0,0.9-0.1,1.8l-0.1,0.9h0.2c0.7-1.1,1.8-1.7,3.4-1.7c1.4,0,2.4,0.4,3.1,1.1c0.7,0.7,1.1,1.8,1.1,3.2V161.2z
				"/>
			<path fill="#0A5995" d="M136.6,161.4c-1.9,0-3.4-0.5-4.4-1.6c-1.1-1-1.6-2.5-1.6-4.4c0-2,0.5-3.5,1.5-4.6s2.3-1.6,4.1-1.6
				c1.7,0,3,0.5,3.9,1.4c0.9,0.9,1.4,2.2,1.4,3.9v1.6h-7.6c0,0.9,0.3,1.6,0.8,2.1s1.2,0.8,2.1,0.8c0.7,0,1.4-0.1,2-0.2
				c0.6-0.1,1.3-0.4,2-0.7v2.5c-0.6,0.3-1.2,0.5-1.8,0.6C138.3,161.4,137.5,161.4,136.6,161.4z M136.1,151.6c-0.7,0-1.2,0.2-1.6,0.6
				c-0.4,0.4-0.6,1-0.7,1.8h4.5c0-0.8-0.2-1.4-0.6-1.8C137.4,151.8,136.8,151.6,136.1,151.6z"/>
			<path fill="#0A5995" d="M154.3,161.2h-3.2v-6.9c0-0.8-0.2-1.5-0.5-1.9c-0.3-0.4-0.8-0.6-1.4-0.6c-0.9,0-1.5,0.3-1.9,0.9
				c-0.4,0.6-0.6,1.6-0.6,3v5.5h-3.2v-11.7h2.4l0.4,1.5h0.2c0.4-0.6,0.8-1,1.5-1.3c0.6-0.3,1.3-0.4,2.1-0.4c1.4,0,2.4,0.4,3.1,1.1
				s1.1,1.8,1.1,3.2V161.2z"/>
			<path fill="#0A5995" d="M167,158.9c0.6,0,1.2-0.1,2-0.4v2.4c-0.8,0.4-1.8,0.5-2.9,0.5c-1.3,0-2.2-0.3-2.8-1s-0.9-1.6-0.9-2.9
				v-5.7h-1.5v-1.4l1.8-1.1l0.9-2.5h2v2.5h3.3v2.4h-3.3v5.7c0,0.5,0.1,0.8,0.4,1C166.3,158.8,166.6,158.9,167,158.9z"/>
			<path fill="#0A5995" d="M181.7,161.2h-3.2v-6.9c0-1.7-0.6-2.5-1.9-2.5c-0.9,0-1.5,0.3-1.9,0.9c-0.4,0.6-0.6,1.6-0.6,3v5.5h-3.2
				v-16.3h3.2v3.3c0,0.3,0,0.9-0.1,1.8l-0.1,0.9h0.2c0.7-1.1,1.8-1.7,3.4-1.7c1.4,0,2.4,0.4,3.1,1.1c0.7,0.7,1.1,1.8,1.1,3.2V161.2z
				"/>
			<path fill="#0A5995" d="M189.8,161.4c-1.9,0-3.4-0.5-4.4-1.6c-1.1-1-1.6-2.5-1.6-4.4c0-2,0.5-3.5,1.5-4.6s2.3-1.6,4.1-1.6
				c1.7,0,3,0.5,3.9,1.4c0.9,0.9,1.4,2.2,1.4,3.9v1.6H187c0,0.9,0.3,1.6,0.8,2.1s1.2,0.8,2.1,0.8c0.7,0,1.4-0.1,2-0.2
				c0.6-0.1,1.3-0.4,2-0.7v2.5c-0.6,0.3-1.2,0.5-1.8,0.6C191.5,161.4,190.7,161.4,189.8,161.4z M189.3,151.6c-0.7,0-1.2,0.2-1.6,0.6
				c-0.4,0.4-0.6,1-0.7,1.8h4.5c0-0.8-0.2-1.4-0.6-1.8C190.6,151.8,190,151.6,189.3,151.6z"/>
			<path fill="#0A5995" d="M203.2,149.3c0.4,0,0.8,0,1.1,0.1l-0.2,3c-0.3-0.1-0.6-0.1-0.9-0.1c-1,0-1.8,0.3-2.4,0.8
				c-0.6,0.5-0.9,1.3-0.9,2.2v6h-3.2v-11.7h2.4l0.5,2h0.2c0.4-0.7,0.9-1.2,1.5-1.6S202.5,149.3,203.2,149.3z"/>
			<path fill="#0A5995" d="M211.2,161.4c-1.9,0-3.4-0.5-4.4-1.6c-1.1-1-1.6-2.5-1.6-4.4c0-2,0.5-3.5,1.5-4.6s2.3-1.6,4.1-1.6
				c1.7,0,3,0.5,3.9,1.4c0.9,0.9,1.4,2.2,1.4,3.9v1.6h-7.6c0,0.9,0.3,1.6,0.8,2.1s1.2,0.8,2.1,0.8c0.7,0,1.4-0.1,2-0.2
				c0.6-0.1,1.3-0.4,2-0.7v2.5c-0.6,0.3-1.2,0.5-1.8,0.6C212.9,161.4,212.1,161.4,211.2,161.4z M210.7,151.6c-0.7,0-1.2,0.2-1.6,0.6
				c-0.4,0.4-0.6,1-0.7,1.8h4.5c0-0.8-0.2-1.4-0.6-1.8C211.9,151.8,211.4,151.6,210.7,151.6z"/>
			<path fill="#0A5995" d="M222.9,146.5c0-1,0.6-1.6,1.7-1.6c1.2,0,1.7,0.5,1.7,1.6c0,0.5-0.1,0.9-0.4,1.2c-0.3,0.3-0.7,0.4-1.3,0.4
				C223.5,148,222.9,147.5,222.9,146.5z M226.3,161.2h-3.2v-11.7h3.2V161.2z"/>
			<path fill="#0A5995" d="M237.3,157.7c0,1.2-0.4,2.1-1.3,2.8c-0.8,0.6-2.1,0.9-3.8,0.9c-0.9,0-1.6-0.1-2.2-0.2
				c-0.6-0.1-1.2-0.3-1.7-0.5v-2.6c0.6,0.3,1.3,0.5,2,0.7c0.7,0.2,1.4,0.3,2,0.3c1.2,0,1.7-0.3,1.7-1c0-0.3-0.1-0.5-0.2-0.6
				c-0.2-0.2-0.4-0.3-0.8-0.5s-0.9-0.4-1.5-0.7c-0.9-0.4-1.6-0.7-2-1c-0.4-0.3-0.7-0.7-0.9-1.1c-0.2-0.4-0.3-0.9-0.3-1.5
				c0-1,0.4-1.8,1.2-2.4c0.8-0.6,2-0.9,3.4-0.9c1.4,0,2.8,0.3,4.1,0.9l-1,2.3c-0.6-0.3-1.1-0.5-1.6-0.6s-1-0.2-1.6-0.2
				c-0.9,0-1.4,0.3-1.4,0.8c0,0.3,0.2,0.5,0.5,0.7c0.3,0.2,1,0.5,2,0.9c0.9,0.4,1.6,0.7,2,1c0.4,0.3,0.7,0.7,0.9,1.1
				C237.2,156.7,237.3,157.2,237.3,157.7z"/>
			<path fill="#0A5995" d="M255.1,161.2h-3.2v-6.9c0-0.8-0.2-1.5-0.5-1.9c-0.3-0.4-0.8-0.6-1.4-0.6c-0.9,0-1.5,0.3-1.9,0.9
				c-0.4,0.6-0.6,1.6-0.6,3v5.5h-3.2v-11.7h2.4l0.4,1.5h0.2c0.4-0.6,0.8-1,1.5-1.3c0.6-0.3,1.3-0.4,2.1-0.4c1.4,0,2.4,0.4,3.1,1.1
				s1.1,1.8,1.1,3.2V161.2z"/>
			<path fill="#0A5995" d="M268.5,155.3c0,1.9-0.5,3.4-1.5,4.5c-1,1.1-2.4,1.6-4.2,1.6c-1.1,0-2.1-0.2-3-0.7s-1.5-1.2-2-2.1
				c-0.5-0.9-0.7-2-0.7-3.2c0-1.9,0.5-3.4,1.5-4.5c1-1.1,2.4-1.6,4.2-1.6c1.1,0,2.1,0.2,3,0.7c0.9,0.5,1.5,1.2,2,2.1
				S268.5,154.1,268.5,155.3z M260.4,155.3c0,1.2,0.2,2,0.6,2.6c0.4,0.6,1,0.9,1.9,0.9c0.9,0,1.5-0.3,1.8-0.9
				c0.4-0.6,0.6-1.5,0.6-2.6c0-1.2-0.2-2-0.6-2.6s-1-0.9-1.9-0.9c-0.9,0-1.5,0.3-1.8,0.9S260.4,154.2,260.4,155.3z"/>
			<path fill="#0A5995" d="M275.6,158.9c0.6,0,1.2-0.1,2-0.4v2.4c-0.8,0.4-1.8,0.5-2.9,0.5c-1.3,0-2.2-0.3-2.8-1s-0.9-1.6-0.9-2.9
				v-5.7h-1.5v-1.4l1.8-1.1l0.9-2.5h2v2.5h3.3v2.4h-3.3v5.7c0,0.5,0.1,0.8,0.4,1C274.8,158.8,275.2,158.9,275.6,158.9z"/>
			<path fill="#0A5995" d="M290.3,161.2h-3.2v-6.9c0-1.7-0.6-2.5-1.9-2.5c-0.9,0-1.5,0.3-1.9,0.9c-0.4,0.6-0.6,1.6-0.6,3v5.5h-3.2
				v-16.3h3.2v3.3c0,0.3,0,0.9-0.1,1.8l-0.1,0.9h0.2c0.7-1.1,1.8-1.7,3.4-1.7c1.4,0,2.4,0.4,3.1,1.1c0.7,0.7,1.1,1.8,1.1,3.2V161.2z
				"/>
			<path fill="#0A5995" d="M292.9,146.5c0-1,0.6-1.6,1.7-1.6c1.2,0,1.7,0.5,1.7,1.6c0,0.5-0.1,0.9-0.4,1.2c-0.3,0.3-0.7,0.4-1.3,0.4
				C293.5,148,292.9,147.5,292.9,146.5z M296.2,161.2H293v-11.7h3.2V161.2z"/>
			<path fill="#0A5995" d="M309.9,161.2h-3.2v-6.9c0-0.8-0.2-1.5-0.5-1.9c-0.3-0.4-0.8-0.6-1.4-0.6c-0.9,0-1.5,0.3-1.9,0.9
				c-0.4,0.6-0.6,1.6-0.6,3v5.5h-3.2v-11.7h2.4l0.4,1.5h0.2c0.4-0.6,0.8-1,1.5-1.3c0.6-0.3,1.3-0.4,2.1-0.4c1.4,0,2.4,0.4,3.1,1.1
				s1.1,1.8,1.1,3.2V161.2z"/>
			<path fill="#0A5995" d="M322.9,149.5v1.6l-1.8,0.5c0.3,0.5,0.5,1.1,0.5,1.8c0,1.3-0.4,2.2-1.3,2.9c-0.9,0.7-2.1,1.1-3.7,1.1
				l-0.6,0l-0.5-0.1c-0.3,0.3-0.5,0.5-0.5,0.8c0,0.5,0.6,0.7,1.8,0.7h2c1.3,0,2.3,0.3,2.9,0.8c0.7,0.6,1,1.4,1,2.4
				c0,1.4-0.6,2.4-1.7,3.2c-1.1,0.8-2.8,1.1-4.9,1.1c-1.6,0-2.9-0.3-3.8-0.9c-0.9-0.6-1.3-1.4-1.3-2.4c0-0.7,0.2-1.3,0.7-1.8
				c0.4-0.5,1.1-0.8,1.9-1c-0.3-0.1-0.6-0.4-0.9-0.7s-0.4-0.7-0.4-1c0-0.4,0.1-0.8,0.4-1.1s0.6-0.6,1.1-0.9
				c-0.6-0.3-1.1-0.7-1.5-1.3s-0.5-1.3-0.5-2.1c0-1.3,0.4-2.3,1.2-3c0.8-0.7,2-1,3.6-1c0.3,0,0.7,0,1.2,0.1s0.7,0.1,0.9,0.1H322.9z
				 M313.8,162.9c0,0.4,0.2,0.8,0.6,1c0.4,0.3,1,0.4,1.8,0.4c1.1,0,2-0.2,2.7-0.5c0.7-0.3,1-0.7,1-1.3c0-0.4-0.2-0.7-0.6-0.9
				c-0.4-0.2-1-0.3-1.8-0.3h-1.7c-0.6,0-1.1,0.1-1.5,0.4C314,162.1,313.8,162.4,313.8,162.9z M315,153.3c0,0.6,0.1,1.1,0.4,1.5
				c0.3,0.4,0.7,0.6,1.3,0.6c0.6,0,1-0.2,1.3-0.6c0.3-0.4,0.4-0.9,0.4-1.5c0-1.4-0.6-2.1-1.7-2.1C315.6,151.2,315,151.9,315,153.3z"
				/>
			<path fill="#0A5995" d="M332.5,161.2h-3.2v-16.3h3.2V161.2z"/>
			<path fill="#0A5995" d="M340.6,161.4c-1.9,0-3.4-0.5-4.4-1.6c-1.1-1-1.6-2.5-1.6-4.4c0-2,0.5-3.5,1.5-4.6s2.3-1.6,4.1-1.6
				c1.7,0,3,0.5,3.9,1.4c0.9,0.9,1.4,2.2,1.4,3.9v1.6h-7.6c0,0.9,0.3,1.6,0.8,2.1s1.2,0.8,2.1,0.8c0.7,0,1.4-0.1,2-0.2
				c0.6-0.1,1.3-0.4,2-0.7v2.5c-0.6,0.3-1.2,0.5-1.8,0.6C342.3,161.4,341.6,161.4,340.6,161.4z M340.2,151.6c-0.7,0-1.2,0.2-1.6,0.6
				c-0.4,0.4-0.6,1-0.7,1.8h4.5c0-0.8-0.2-1.4-0.6-1.8C341.4,151.8,340.9,151.6,340.2,151.6z"/>
			<path fill="#0A5995" d="M354,151.9h-2.8v9.3H348v-9.3h-1.8v-1.5l1.8-0.9v-0.9c0-1.3,0.3-2.3,1-2.9s1.7-0.9,3.2-0.9
				c1.1,0,2.1,0.2,2.9,0.5l-0.8,2.4c-0.6-0.2-1.2-0.3-1.8-0.3c-0.5,0-0.8,0.1-1,0.4s-0.3,0.6-0.3,1v0.7h2.8V151.9z"/>
			<path fill="#0A5995" d="M360.2,158.9c0.6,0,1.2-0.1,2-0.4v2.4c-0.8,0.4-1.8,0.5-2.9,0.5c-1.3,0-2.2-0.3-2.8-1s-0.9-1.6-0.9-2.9
				v-5.7h-1.5v-1.4l1.8-1.1l0.9-2.5h2v2.5h3.3v2.4h-3.3v5.7c0,0.5,0.1,0.8,0.4,1C359.5,158.8,359.8,158.9,360.2,158.9z"/>
			<path fill="#0A5995" d="M374.1,158.9c0.6,0,1.2-0.1,2-0.4v2.4c-0.8,0.4-1.8,0.5-2.9,0.5c-1.3,0-2.2-0.3-2.8-1s-0.9-1.6-0.9-2.9
				v-5.7h-1.5v-1.4l1.8-1.1l0.9-2.5h2v2.5h3.3v2.4h-3.3v5.7c0,0.5,0.1,0.8,0.4,1C373.3,158.8,373.7,158.9,374.1,158.9z"/>
			<path fill="#0A5995" d="M388.6,155.3c0,1.9-0.5,3.4-1.5,4.5c-1,1.1-2.4,1.6-4.2,1.6c-1.1,0-2.1-0.2-3-0.7s-1.5-1.2-2-2.1
				c-0.5-0.9-0.7-2-0.7-3.2c0-1.9,0.5-3.4,1.5-4.5c1-1.1,2.4-1.6,4.2-1.6c1.1,0,2.1,0.2,3,0.7c0.9,0.5,1.5,1.2,2,2.1
				S388.6,154.1,388.6,155.3z M380.5,155.3c0,1.2,0.2,2,0.6,2.6c0.4,0.6,1,0.9,1.9,0.9c0.9,0,1.5-0.3,1.8-0.9
				c0.4-0.6,0.6-1.5,0.6-2.6c0-1.2-0.2-2-0.6-2.6s-1-0.9-1.9-0.9c-0.9,0-1.5,0.3-1.8,0.9S380.5,154.2,380.5,155.3z"/>
			<path fill="#0A5995" d="M403.2,161.2l-0.6-1.6h-0.1c-0.5,0.7-1.1,1.1-1.7,1.4s-1.3,0.4-2.2,0.4c-1.1,0-2-0.3-2.7-1
				c-0.6-0.6-1-1.6-1-2.8c0-1.2,0.4-2.2,1.3-2.8c0.9-0.6,2.2-0.9,3.9-1l2-0.1v-0.5c0-1.2-0.6-1.8-1.8-1.8c-0.9,0-2,0.3-3.3,0.9
				l-1.1-2.2c1.4-0.7,2.8-1.1,4.5-1.1c1.6,0,2.8,0.3,3.6,1c0.8,0.7,1.3,1.7,1.3,3.1v7.8H403.2z M402.3,155.8l-1.2,0
				c-0.9,0-1.6,0.2-2.1,0.5c-0.5,0.3-0.7,0.8-0.7,1.4c0,0.9,0.5,1.4,1.6,1.4c0.7,0,1.3-0.2,1.8-0.6s0.7-1,0.7-1.7V155.8z"/>
			<path fill="#0A5995" d="M411.9,161.4c-1.4,0-2.5-0.5-3.2-1.6c-0.8-1.1-1.2-2.6-1.2-4.5c0-1.9,0.4-3.4,1.2-4.5
				c0.8-1.1,1.9-1.6,3.3-1.6c1.5,0,2.6,0.6,3.4,1.7h0.1c-0.2-0.9-0.2-1.7-0.2-2.3v-3.8h3.2v16.3H416l-0.6-1.5h-0.1
				C414.5,160.9,413.4,161.4,411.9,161.4z M413,158.9c0.8,0,1.4-0.2,1.8-0.7c0.4-0.5,0.6-1.3,0.6-2.4v-0.3c0-1.3-0.2-2.2-0.6-2.7
				c-0.4-0.5-1-0.8-1.9-0.8c-0.7,0-1.3,0.3-1.7,0.9c-0.4,0.6-0.6,1.5-0.6,2.6c0,1.2,0.2,2,0.6,2.6
				C411.7,158.6,412.3,158.9,413,158.9z"/>
			<path fill="#0A5995" d="M425,161.4c-1.4,0-2.5-0.5-3.2-1.6c-0.8-1.1-1.2-2.6-1.2-4.5c0-1.9,0.4-3.4,1.2-4.5
				c0.8-1.1,1.9-1.6,3.3-1.6c1.5,0,2.6,0.6,3.4,1.7h0.1c-0.2-0.9-0.2-1.7-0.2-2.3v-3.8h3.2v16.3h-2.5l-0.6-1.5h-0.1
				C427.6,160.9,426.5,161.4,425,161.4z M426.1,158.9c0.8,0,1.4-0.2,1.8-0.7c0.4-0.5,0.6-1.3,0.6-2.4v-0.3c0-1.3-0.2-2.2-0.6-2.7
				c-0.4-0.5-1-0.8-1.9-0.8c-0.7,0-1.3,0.3-1.7,0.9c-0.4,0.6-0.6,1.5-0.6,2.6c0,1.2,0.2,2,0.6,2.6
				C424.8,158.6,425.4,158.9,426.1,158.9z"/>
			<path fill="#0A5995" d="M437.5,159c-0.4,1.4-1,3.1-1.8,5h-2.3c0.5-1.9,0.8-3.6,1.1-5.3h2.9L437.5,159z"/>
			<path fill="#0A5995" d="M451.6,149.3c1.4,0,2.5,0.5,3.3,1.6c0.8,1.1,1.2,2.6,1.2,4.4c0,1.9-0.4,3.4-1.2,4.5
				c-0.8,1.1-1.9,1.6-3.3,1.6c-1.4,0-2.5-0.5-3.2-1.5h-0.2l-0.5,1.3h-2.4v-16.3h3.2v3.8c0,0.5,0,1.3-0.1,2.3h0.1
				C449,149.9,450.1,149.3,451.6,149.3z M450.6,151.8c-0.8,0-1.4,0.2-1.7,0.7c-0.4,0.5-0.6,1.3-0.6,2.4v0.3c0,1.3,0.2,2.2,0.6,2.7
				c0.4,0.5,1,0.8,1.8,0.8c0.7,0,1.2-0.3,1.6-0.9c0.4-0.6,0.6-1.5,0.6-2.6c0-1.2-0.2-2-0.6-2.6S451.2,151.8,450.6,151.8z"/>
			<path fill="#0A5995" d="M466.5,161.2l-0.4-1.5h-0.2c-0.3,0.5-0.8,1-1.5,1.3c-0.6,0.3-1.3,0.4-2.2,0.4c-1.4,0-2.4-0.4-3.1-1.1
				c-0.7-0.7-1-1.8-1-3.2v-7.7h3.2v6.9c0,0.8,0.2,1.5,0.5,1.9c0.3,0.4,0.8,0.6,1.4,0.6c0.9,0,1.5-0.3,1.9-0.9c0.4-0.6,0.6-1.6,0.6-3
				v-5.5h3.2v11.7H466.5z"/>
			<path fill="#0A5995" d="M476.7,158.9c0.6,0,1.2-0.1,2-0.4v2.4c-0.8,0.4-1.8,0.5-2.9,0.5c-1.3,0-2.2-0.3-2.8-1s-0.9-1.6-0.9-2.9
				v-5.7h-1.5v-1.4l1.8-1.1l0.9-2.5h2v2.5h3.3v2.4h-3.3v5.7c0,0.5,0.1,0.8,0.4,1C475.9,158.8,476.3,158.9,476.7,158.9z"/>
			<path fill="#0A5995" d="M495.2,161.2l-0.9-4.1l-1.2-5.2H493l-2.1,9.3h-3.4l-3.3-11.7h3.2l1.4,5.2c0.2,0.9,0.4,2.2,0.7,3.9h0.1
				c0-0.5,0.2-1.4,0.4-2.5l0.2-0.9l1.4-5.6h3.5l1.4,5.6c0,0.2,0.1,0.4,0.1,0.7s0.1,0.6,0.2,1c0.1,0.3,0.1,0.7,0.2,1
				c0,0.3,0.1,0.6,0.1,0.8h0.1c0.1-0.5,0.2-1.2,0.3-2.1c0.2-0.9,0.3-1.5,0.3-1.8l1.4-5.2h3.1l-3.4,11.7H495.2z"/>
			<path fill="#0A5995" d="M514.3,161.2h-3.2v-6.9c0-1.7-0.6-2.5-1.9-2.5c-0.9,0-1.5,0.3-1.9,0.9c-0.4,0.6-0.6,1.6-0.6,3v5.5h-3.2
				v-16.3h3.2v3.3c0,0.3,0,0.9-0.1,1.8l-0.1,0.9h0.2c0.7-1.1,1.8-1.7,3.4-1.7c1.4,0,2.4,0.4,3.1,1.1c0.7,0.7,1.1,1.8,1.1,3.2V161.2z
				"/>
			<path fill="#0A5995" d="M522.3,161.4c-1.9,0-3.4-0.5-4.4-1.6c-1.1-1-1.6-2.5-1.6-4.4c0-2,0.5-3.5,1.5-4.6s2.3-1.6,4.1-1.6
				c1.7,0,3,0.5,3.9,1.4c0.9,0.9,1.4,2.2,1.4,3.9v1.6h-7.6c0,0.9,0.3,1.6,0.8,2.1s1.2,0.8,2.1,0.8c0.7,0,1.4-0.1,2-0.2
				c0.6-0.1,1.3-0.4,2-0.7v2.5c-0.6,0.3-1.2,0.5-1.8,0.6C524,161.4,523.3,161.4,522.3,161.4z M521.9,151.6c-0.7,0-1.2,0.2-1.6,0.6
				c-0.4,0.4-0.6,1-0.7,1.8h4.5c0-0.8-0.2-1.4-0.6-1.8C523.1,151.8,522.6,151.6,521.9,151.6z"/>
			<path fill="#0A5995" d="M540,161.2h-3.2v-6.9c0-0.8-0.2-1.5-0.5-1.9c-0.3-0.4-0.8-0.6-1.4-0.6c-0.9,0-1.5,0.3-1.9,0.9
				c-0.4,0.6-0.6,1.6-0.6,3v5.5h-3.2v-11.7h2.4l0.4,1.5h0.2c0.4-0.6,0.8-1,1.5-1.3c0.6-0.3,1.3-0.4,2.1-0.4c1.4,0,2.4,0.4,3.1,1.1
				s1.1,1.8,1.1,3.2V161.2z"/>
			<path fill="#0A5995" d="M133.7,189c0.6,0,1.2-0.1,2-0.4v2.4c-0.8,0.4-1.8,0.5-2.9,0.5c-1.3,0-2.2-0.3-2.8-1s-0.9-1.6-0.9-2.9V182
				h-1.5v-1.4l1.8-1.1l0.9-2.5h2v2.5h3.3v2.4h-3.3v5.7c0,0.5,0.1,0.8,0.4,1C132.9,188.9,133.3,189,133.7,189z"/>
			<path fill="#0A5995" d="M148.4,191.3h-3.2v-6.9c0-1.7-0.6-2.5-1.9-2.5c-0.9,0-1.5,0.3-1.9,0.9c-0.4,0.6-0.6,1.6-0.6,3v5.5h-3.2
				V175h3.2v3.3c0,0.3,0,0.9-0.1,1.8l-0.1,0.9h0.2c0.7-1.1,1.8-1.7,3.4-1.7c1.4,0,2.4,0.4,3.1,1.1c0.7,0.7,1.1,1.8,1.1,3.2V191.3z"
				/>
			<path fill="#0A5995" d="M156.4,191.5c-1.9,0-3.4-0.5-4.4-1.6c-1.1-1-1.6-2.5-1.6-4.4c0-2,0.5-3.5,1.5-4.6s2.3-1.6,4.1-1.6
				c1.7,0,3,0.5,3.9,1.4c0.9,0.9,1.4,2.2,1.4,3.9v1.6h-7.6c0,0.9,0.3,1.6,0.8,2.1s1.2,0.8,2.1,0.8c0.7,0,1.4-0.1,2-0.2
				c0.6-0.1,1.3-0.4,2-0.7v2.5c-0.6,0.3-1.2,0.5-1.8,0.6C158.1,191.5,157.3,191.5,156.4,191.5z M156,181.7c-0.7,0-1.2,0.2-1.6,0.6
				c-0.4,0.4-0.6,1-0.7,1.8h4.5c0-0.8-0.2-1.4-0.6-1.8C157.2,181.9,156.7,181.7,156,181.7z"/>
			<path fill="#0A5995" d="M169.8,179.4c0.4,0,0.8,0,1.1,0.1l-0.2,3c-0.3-0.1-0.6-0.1-0.9-0.1c-1,0-1.8,0.3-2.4,0.8
				c-0.6,0.5-0.9,1.3-0.9,2.2v6h-3.2v-11.7h2.4l0.5,2h0.2c0.4-0.7,0.9-1.2,1.5-1.6S169.1,179.4,169.8,179.4z"/>
			<path fill="#0A5995" d="M177.8,191.5c-1.9,0-3.4-0.5-4.4-1.6c-1.1-1-1.6-2.5-1.6-4.4c0-2,0.5-3.5,1.5-4.6s2.3-1.6,4.1-1.6
				c1.7,0,3,0.5,3.9,1.4c0.9,0.9,1.4,2.2,1.4,3.9v1.6H175c0,0.9,0.3,1.6,0.8,2.1s1.2,0.8,2.1,0.8c0.7,0,1.4-0.1,2-0.2
				c0.6-0.1,1.3-0.4,2-0.7v2.5c-0.6,0.3-1.2,0.5-1.8,0.6C179.5,191.5,178.7,191.5,177.8,191.5z M177.4,181.7c-0.7,0-1.2,0.2-1.6,0.6
				c-0.4,0.4-0.6,1-0.7,1.8h4.5c0-0.8-0.2-1.4-0.6-1.8C178.6,181.9,178,181.7,177.4,181.7z"/>
			<path fill="#0A5995" d="M189.6,176.6c0-1,0.6-1.6,1.7-1.6c1.2,0,1.7,0.5,1.7,1.6c0,0.5-0.1,0.9-0.4,1.2c-0.3,0.3-0.7,0.4-1.3,0.4
				C190.2,178.1,189.6,177.6,189.6,176.6z M192.9,191.3h-3.2v-11.7h3.2V191.3z"/>
			<path fill="#0A5995" d="M203.9,187.8c0,1.2-0.4,2.1-1.3,2.8c-0.8,0.6-2.1,0.9-3.8,0.9c-0.9,0-1.6-0.1-2.2-0.2
				c-0.6-0.1-1.2-0.3-1.7-0.5v-2.6c0.6,0.3,1.3,0.5,2,0.7c0.7,0.2,1.4,0.3,2,0.3c1.2,0,1.7-0.3,1.7-1c0-0.3-0.1-0.5-0.2-0.6
				c-0.2-0.2-0.4-0.3-0.8-0.5s-0.9-0.4-1.5-0.7c-0.9-0.4-1.6-0.7-2-1c-0.4-0.3-0.7-0.7-0.9-1.1c-0.2-0.4-0.3-0.9-0.3-1.5
				c0-1,0.4-1.8,1.2-2.4c0.8-0.6,2-0.9,3.4-0.9c1.4,0,2.8,0.3,4.1,0.9l-1,2.3c-0.6-0.3-1.1-0.5-1.6-0.6s-1-0.2-1.6-0.2
				c-0.9,0-1.4,0.3-1.4,0.8c0,0.3,0.2,0.5,0.5,0.7c0.3,0.2,1,0.5,2,0.9c0.9,0.4,1.6,0.7,2,1c0.4,0.3,0.7,0.7,0.9,1.1
				C203.8,186.8,203.9,187.3,203.9,187.8z"/>
			<path fill="#0A5995" d="M221.8,191.3h-3.2v-6.9c0-0.8-0.2-1.5-0.5-1.9c-0.3-0.4-0.8-0.6-1.4-0.6c-0.9,0-1.5,0.3-1.9,0.9
				c-0.4,0.6-0.6,1.6-0.6,3v5.5h-3.2v-11.7h2.4l0.4,1.5h0.2c0.4-0.6,0.8-1,1.5-1.3c0.6-0.3,1.3-0.4,2.1-0.4c1.4,0,2.4,0.4,3.1,1.1
				s1.1,1.8,1.1,3.2V191.3z"/>
			<path fill="#0A5995" d="M235.2,185.4c0,1.9-0.5,3.4-1.5,4.5c-1,1.1-2.4,1.6-4.2,1.6c-1.1,0-2.1-0.2-3-0.7s-1.5-1.2-2-2.1
				c-0.5-0.9-0.7-2-0.7-3.2c0-1.9,0.5-3.4,1.5-4.5c1-1.1,2.4-1.6,4.2-1.6c1.1,0,2.1,0.2,3,0.7c0.9,0.5,1.5,1.2,2,2.1
				S235.2,184.2,235.2,185.4z M227.1,185.4c0,1.2,0.2,2,0.6,2.6c0.4,0.6,1,0.9,1.9,0.9c0.9,0,1.5-0.3,1.8-0.9
				c0.4-0.6,0.6-1.5,0.6-2.6c0-1.2-0.2-2-0.6-2.6s-1-0.9-1.9-0.9c-0.9,0-1.5,0.3-1.8,0.9S227.1,184.3,227.1,185.4z"/>
			<path fill="#0A5995" d="M242.2,189c0.6,0,1.2-0.1,2-0.4v2.4c-0.8,0.4-1.8,0.5-2.9,0.5c-1.3,0-2.2-0.3-2.8-1s-0.9-1.6-0.9-2.9V182
				h-1.5v-1.4l1.8-1.1l0.9-2.5h2v2.5h3.3v2.4h-3.3v5.7c0,0.5,0.1,0.8,0.4,1C241.5,188.9,241.8,189,242.2,189z"/>
			<path fill="#0A5995" d="M256.9,191.3h-3.2v-6.9c0-1.7-0.6-2.5-1.9-2.5c-0.9,0-1.5,0.3-1.9,0.9c-0.4,0.6-0.6,1.6-0.6,3v5.5h-3.2
				V175h3.2v3.3c0,0.3,0,0.9-0.1,1.8l-0.1,0.9h0.2c0.7-1.1,1.8-1.7,3.4-1.7c1.4,0,2.4,0.4,3.1,1.1c0.7,0.7,1.1,1.8,1.1,3.2V191.3z"
				/>
			<path fill="#0A5995" d="M259.5,176.6c0-1,0.6-1.6,1.7-1.6c1.2,0,1.7,0.5,1.7,1.6c0,0.5-0.1,0.9-0.4,1.2c-0.3,0.3-0.7,0.4-1.3,0.4
				C260.1,178.1,259.5,177.6,259.5,176.6z M262.9,191.3h-3.2v-11.7h3.2V191.3z"/>
			<path fill="#0A5995" d="M276.5,191.3h-3.2v-6.9c0-0.8-0.2-1.5-0.5-1.9c-0.3-0.4-0.8-0.6-1.4-0.6c-0.9,0-1.5,0.3-1.9,0.9
				c-0.4,0.6-0.6,1.6-0.6,3v5.5h-3.2v-11.7h2.4l0.4,1.5h0.2c0.4-0.6,0.8-1,1.5-1.3c0.6-0.3,1.3-0.4,2.1-0.4c1.4,0,2.4,0.4,3.1,1.1
				s1.1,1.8,1.1,3.2V191.3z"/>
			<path fill="#0A5995" d="M289.5,179.6v1.6l-1.8,0.5c0.3,0.5,0.5,1.1,0.5,1.8c0,1.3-0.4,2.2-1.3,2.9c-0.9,0.7-2.1,1.1-3.7,1.1
				l-0.6,0l-0.5-0.1c-0.3,0.3-0.5,0.5-0.5,0.8c0,0.5,0.6,0.7,1.8,0.7h2c1.3,0,2.3,0.3,2.9,0.8c0.7,0.6,1,1.4,1,2.4
				c0,1.4-0.6,2.4-1.7,3.2c-1.1,0.8-2.8,1.1-4.9,1.1c-1.6,0-2.9-0.3-3.8-0.9c-0.9-0.6-1.3-1.4-1.3-2.4c0-0.7,0.2-1.3,0.7-1.8
				c0.4-0.5,1.1-0.8,1.9-1c-0.3-0.1-0.6-0.4-0.9-0.7s-0.4-0.7-0.4-1c0-0.4,0.1-0.8,0.4-1.1s0.6-0.6,1.1-0.9
				c-0.6-0.3-1.1-0.7-1.5-1.3s-0.5-1.3-0.5-2.1c0-1.3,0.4-2.3,1.2-3c0.8-0.7,2-1,3.6-1c0.3,0,0.7,0,1.2,0.1s0.7,0.1,0.9,0.1H289.5z
				 M280.5,193c0,0.4,0.2,0.8,0.6,1c0.4,0.3,1,0.4,1.8,0.4c1.1,0,2-0.2,2.7-0.5c0.7-0.3,1-0.7,1-1.3c0-0.4-0.2-0.7-0.6-0.9
				c-0.4-0.2-1-0.3-1.8-0.3h-1.7c-0.6,0-1.1,0.1-1.5,0.4C280.7,192.2,280.5,192.5,280.5,193z M281.6,183.4c0,0.6,0.1,1.1,0.4,1.5
				c0.3,0.4,0.7,0.6,1.3,0.6c0.6,0,1-0.2,1.3-0.6c0.3-0.4,0.4-0.9,0.4-1.5c0-1.4-0.6-2.1-1.7-2.1C282.2,181.3,281.6,182,281.6,183.4
				z"/>
			<path fill="#0A5995" d="M299.2,191.3H296V175h3.2V191.3z"/>
			<path fill="#0A5995" d="M307.3,191.5c-1.9,0-3.4-0.5-4.4-1.6c-1.1-1-1.6-2.5-1.6-4.4c0-2,0.5-3.5,1.5-4.6s2.3-1.6,4.1-1.6
				c1.7,0,3,0.5,3.9,1.4c0.9,0.9,1.4,2.2,1.4,3.9v1.6h-7.6c0,0.9,0.3,1.6,0.8,2.1s1.2,0.8,2.1,0.8c0.7,0,1.4-0.1,2-0.2
				c0.6-0.1,1.3-0.4,2-0.7v2.5c-0.6,0.3-1.2,0.5-1.8,0.6C309,191.5,308.2,191.5,307.3,191.5z M306.8,181.7c-0.7,0-1.2,0.2-1.6,0.6
				c-0.4,0.4-0.6,1-0.7,1.8h4.5c0-0.8-0.2-1.4-0.6-1.8C308.1,181.9,307.5,181.7,306.8,181.7z"/>
			<path fill="#0A5995" d="M320.6,182h-2.8v9.3h-3.2V182h-1.8v-1.5l1.8-0.9v-0.9c0-1.3,0.3-2.3,1-2.9s1.7-0.9,3.2-0.9
				c1.1,0,2.1,0.2,2.9,0.5l-0.8,2.4c-0.6-0.2-1.2-0.3-1.8-0.3c-0.5,0-0.8,0.1-1,0.4s-0.3,0.6-0.3,1v0.7h2.8V182z"/>
			<path fill="#0A5995" d="M326.9,189c0.6,0,1.2-0.1,2-0.4v2.4c-0.8,0.4-1.8,0.5-2.9,0.5c-1.3,0-2.2-0.3-2.8-1s-0.9-1.6-0.9-2.9V182
				h-1.5v-1.4l1.8-1.1l0.9-2.5h2v2.5h3.3v2.4h-3.3v5.7c0,0.5,0.1,0.8,0.4,1C326.1,188.9,326.5,189,326.9,189z"/>
			<path fill="#0A5995" d="M340.7,189c0.6,0,1.2-0.1,2-0.4v2.4c-0.8,0.4-1.8,0.5-2.9,0.5c-1.3,0-2.2-0.3-2.8-1s-0.9-1.6-0.9-2.9V182
				h-1.5v-1.4l1.8-1.1l0.9-2.5h2v2.5h3.3v2.4h-3.3v5.7c0,0.5,0.1,0.8,0.4,1C340,188.9,340.3,189,340.7,189z"/>
			<path fill="#0A5995" d="M355.2,185.4c0,1.9-0.5,3.4-1.5,4.5c-1,1.1-2.4,1.6-4.2,1.6c-1.1,0-2.1-0.2-3-0.7s-1.5-1.2-2-2.1
				c-0.5-0.9-0.7-2-0.7-3.2c0-1.9,0.5-3.4,1.5-4.5c1-1.1,2.4-1.6,4.2-1.6c1.1,0,2.1,0.2,3,0.7c0.9,0.5,1.5,1.2,2,2.1
				S355.2,184.2,355.2,185.4z M347.1,185.4c0,1.2,0.2,2,0.6,2.6c0.4,0.6,1,0.9,1.9,0.9c0.9,0,1.5-0.3,1.8-0.9
				c0.4-0.6,0.6-1.5,0.6-2.6c0-1.2-0.2-2-0.6-2.6s-1-0.9-1.9-0.9c-0.9,0-1.5,0.3-1.8,0.9S347.1,184.3,347.1,185.4z"/>
			<path fill="#0A5995" d="M367.3,189c0.6,0,1.2-0.1,2-0.4v2.4c-0.8,0.4-1.8,0.5-2.9,0.5c-1.3,0-2.2-0.3-2.8-1s-0.9-1.6-0.9-2.9V182
				h-1.5v-1.4l1.8-1.1l0.9-2.5h2v2.5h3.3v2.4h-3.3v5.7c0,0.5,0.1,0.8,0.4,1C366.6,188.9,366.9,189,367.3,189z"/>
			<path fill="#0A5995" d="M378.6,191.3l-0.6-1.6h-0.1c-0.5,0.7-1.1,1.1-1.7,1.4s-1.3,0.4-2.2,0.4c-1.1,0-2-0.3-2.7-1
				c-0.6-0.6-1-1.6-1-2.8c0-1.2,0.4-2.2,1.3-2.8c0.9-0.6,2.2-0.9,3.9-1l2-0.1v-0.5c0-1.2-0.6-1.8-1.8-1.8c-0.9,0-2,0.3-3.3,0.9
				l-1.1-2.2c1.4-0.7,2.8-1.1,4.5-1.1c1.6,0,2.8,0.3,3.6,1c0.8,0.7,1.3,1.7,1.3,3.1v7.8H378.6z M377.7,185.9l-1.2,0
				c-0.9,0-1.6,0.2-2.1,0.5c-0.5,0.3-0.7,0.8-0.7,1.4c0,0.9,0.5,1.4,1.6,1.4c0.7,0,1.3-0.2,1.8-0.6s0.7-1,0.7-1.7V185.9z"/>
			<path fill="#0A5995" d="M386.7,184.9l1.4-1.8l3.3-3.6h3.6l-4.7,5.1l4.9,6.6h-3.7l-3.4-4.8l-1.4,1.1v3.7h-3.2V175h3.2v7.3
				L386.7,184.9L386.7,184.9z"/>
			<path fill="#0A5995" d="M401.7,191.5c-1.9,0-3.4-0.5-4.4-1.6c-1.1-1-1.6-2.5-1.6-4.4c0-2,0.5-3.5,1.5-4.6s2.3-1.6,4.1-1.6
				c1.7,0,3,0.5,3.9,1.4c0.9,0.9,1.4,2.2,1.4,3.9v1.6H399c0,0.9,0.3,1.6,0.8,2.1s1.2,0.8,2.1,0.8c0.7,0,1.4-0.1,2-0.2
				c0.6-0.1,1.3-0.4,2-0.7v2.5c-0.6,0.3-1.2,0.5-1.8,0.6C403.4,191.5,402.6,191.5,401.7,191.5z M401.3,181.7c-0.7,0-1.2,0.2-1.6,0.6
				c-0.4,0.4-0.6,1-0.7,1.8h4.5c0-0.8-0.2-1.4-0.6-1.8C402.5,181.9,402,181.7,401.3,181.7z"/>
			<path fill="#0A5995" d="M421.1,191.3l-0.6-1.6h-0.1c-0.5,0.7-1.1,1.1-1.7,1.4s-1.3,0.4-2.2,0.4c-1.1,0-2-0.3-2.7-1
				c-0.6-0.6-1-1.6-1-2.8c0-1.2,0.4-2.2,1.3-2.8c0.9-0.6,2.2-0.9,3.9-1l2-0.1v-0.5c0-1.2-0.6-1.8-1.8-1.8c-0.9,0-2,0.3-3.3,0.9
				l-1.1-2.2c1.4-0.7,2.8-1.1,4.5-1.1c1.6,0,2.8,0.3,3.6,1c0.8,0.7,1.3,1.7,1.3,3.1v7.8H421.1z M420.1,185.9l-1.2,0
				c-0.9,0-1.6,0.2-2.1,0.5c-0.5,0.3-0.7,0.8-0.7,1.4c0,0.9,0.5,1.4,1.6,1.4c0.7,0,1.3-0.2,1.8-0.6s0.7-1,0.7-1.7V185.9z"/>
			<path fill="#0A5995" d="M435.7,191.3l-0.9-4.1l-1.2-5.2h-0.1l-2.1,9.3h-3.4l-3.3-11.7h3.2l1.4,5.2c0.2,0.9,0.4,2.2,0.7,3.9h0.1
				c0-0.5,0.2-1.4,0.4-2.5l0.2-0.9l1.4-5.6h3.5l1.4,5.6c0,0.2,0.1,0.4,0.1,0.7s0.1,0.6,0.2,1c0.1,0.3,0.1,0.7,0.2,1
				c0,0.3,0.1,0.6,0.1,0.8h0.1c0.1-0.5,0.2-1.2,0.3-2.1c0.2-0.9,0.3-1.5,0.3-1.8l1.4-5.2h3.1l-3.4,11.7H435.7z"/>
			<path fill="#0A5995" d="M451.4,191.3l-0.6-1.6h-0.1c-0.5,0.7-1.1,1.1-1.7,1.4s-1.3,0.4-2.2,0.4c-1.1,0-2-0.3-2.7-1
				c-0.6-0.6-1-1.6-1-2.8c0-1.2,0.4-2.2,1.3-2.8c0.9-0.6,2.2-0.9,3.9-1l2-0.1v-0.5c0-1.2-0.6-1.8-1.8-1.8c-0.9,0-2,0.3-3.3,0.9
				l-1.1-2.2c1.4-0.7,2.8-1.1,4.5-1.1c1.6,0,2.8,0.3,3.6,1c0.8,0.7,1.3,1.7,1.3,3.1v7.8H451.4z M450.5,185.9l-1.2,0
				c-0.9,0-1.6,0.2-2.1,0.5c-0.5,0.3-0.7,0.8-0.7,1.4c0,0.9,0.5,1.4,1.6,1.4c0.7,0,1.3-0.2,1.8-0.6s0.7-1,0.7-1.7V185.9z"/>
			<path fill="#0A5995" d="M454.7,179.6h3.5l2.2,6.6c0.2,0.6,0.3,1.3,0.4,2h0.1c0.1-0.7,0.2-1.4,0.5-2l2.2-6.6h3.4l-5,13.2
				c-0.5,1.2-1.1,2.1-1.9,2.8c-0.8,0.6-1.8,0.9-3,0.9c-0.6,0-1.1-0.1-1.6-0.2v-2.5c0.4,0.1,0.8,0.1,1.3,0.1c0.6,0,1.1-0.2,1.5-0.5
				c0.4-0.3,0.8-0.9,1-1.6l0.2-0.6L454.7,179.6z"/>
			<path fill="#0A5995" d="M467.6,189.8c0-0.6,0.2-1,0.5-1.3c0.3-0.3,0.8-0.5,1.4-0.5c0.6,0,1,0.2,1.3,0.5c0.3,0.3,0.5,0.7,0.5,1.3
				c0,0.6-0.2,1-0.5,1.3c-0.3,0.3-0.8,0.5-1.3,0.5c-0.6,0-1-0.2-1.4-0.5S467.6,190.4,467.6,189.8z"/>
		</g>
		<g>
			<path fill="#0A5995" d="M212.9,238.8l-0.9-2.6h-3.5l-0.9,2.6h-1.6l3.5-9.3h1.7l3.5,9.3H212.9z M211.5,234.9l-0.9-2.5
				c-0.1-0.2-0.2-0.4-0.3-0.8s-0.2-0.6-0.2-0.8c-0.1,0.5-0.3,1.1-0.5,1.7l-0.8,2.4H211.5z"/>
			<path fill="#0A5995" d="M223.8,238.8h-1.9l-4.6-7.4h-0.1l0,0.4c0.1,0.8,0.1,1.5,0.1,2.2v4.8H216v-9.3h1.8l4.6,7.4h0
				c0-0.1,0-0.5-0.1-1.1s0-1.1,0-1.4v-4.9h1.4V238.8z"/>
			<path fill="#0A5995" d="M229.7,238.8h-1.5v-8h-2.7v-1.3h7v1.3h-2.7V238.8z"/>
			<path fill="#0A5995" d="M242.5,234.1c0,1.5-0.4,2.7-1.1,3.5c-0.8,0.8-1.8,1.3-3.2,1.3c-1.4,0-2.5-0.4-3.2-1.2
				c-0.8-0.8-1.1-2-1.1-3.5c0-1.5,0.4-2.7,1.1-3.5c0.8-0.8,1.8-1.2,3.2-1.2c1.4,0,2.4,0.4,3.2,1.2
				C242.1,231.5,242.5,232.6,242.5,234.1z M235.4,234.1c0,1.1,0.2,2,0.7,2.6c0.5,0.6,1.1,0.9,2.1,0.9c0.9,0,1.6-0.3,2-0.9
				s0.7-1.5,0.7-2.6c0-1.1-0.2-2-0.7-2.6c-0.5-0.6-1.1-0.9-2-0.9c-0.9,0-1.6,0.3-2.1,0.9C235.6,232.1,235.4,233,235.4,234.1z"/>
			<path fill="#0A5995" d="M244.8,238.8v-9.3h1.5v9.3H244.8z"/>
			<path fill="#0A5995" d="M256.8,238.8h-1.9l-4.6-7.4h-0.1l0,0.4c0.1,0.8,0.1,1.5,0.1,2.2v4.8h-1.4v-9.3h1.8l4.6,7.4h0
				c0-0.1,0-0.5-0.1-1.1s0-1.1,0-1.4v-4.9h1.4V238.8z"/>
			<path fill="#0A5995" d="M264.8,238.8h-5.2v-9.3h5.2v1.3h-3.7v2.5h3.5v1.3h-3.5v2.9h3.7V238.8z"/>
			<path fill="#0A5995" d="M278.4,234.1c0,1.5-0.4,2.7-1.3,3.5c-0.8,0.8-2.1,1.2-3.7,1.2h-2.6v-9.3h2.9c1.5,0,2.6,0.4,3.4,1.2
				S278.4,232.6,278.4,234.1z M276.8,234.1c0-2.2-1-3.3-3.1-3.3h-1.3v6.7h1.1C275.7,237.5,276.8,236.4,276.8,234.1z"/>
			<path fill="#0A5995" d="M286,238.8h-5.2v-9.3h5.2v1.3h-3.7v2.5h3.5v1.3h-3.5v2.9h3.7V238.8z"/>
			<path fill="#0A5995" d="M297.4,236.3c0,0.8-0.3,1.5-0.9,1.9c-0.6,0.5-1.4,0.7-2.5,0.7s-1.9-0.2-2.6-0.5V237
				c0.4,0.2,0.9,0.4,1.3,0.5c0.5,0.1,0.9,0.2,1.3,0.2c0.6,0,1-0.1,1.3-0.3c0.3-0.2,0.4-0.5,0.4-0.9c0-0.3-0.1-0.6-0.4-0.9
				c-0.3-0.2-0.8-0.5-1.6-0.9c-0.8-0.3-1.4-0.7-1.8-1.2c-0.3-0.4-0.5-1-0.5-1.6c0-0.8,0.3-1.4,0.8-1.8c0.5-0.4,1.3-0.7,2.2-0.7
				c0.9,0,1.8,0.2,2.7,0.6l-0.5,1.2c-0.8-0.3-1.6-0.5-2.2-0.5c-0.5,0-0.9,0.1-1.1,0.3s-0.4,0.5-0.4,0.8c0,0.2,0.1,0.4,0.2,0.6
				c0.1,0.2,0.3,0.3,0.5,0.5c0.2,0.2,0.7,0.4,1.3,0.6c0.7,0.3,1.2,0.5,1.5,0.8c0.3,0.2,0.5,0.5,0.7,0.8
				C297.3,235.5,297.4,235.9,297.4,236.3z"/>
			<path fill="#0A5995" d="M305.2,238.8l-0.9-2.6h-3.5l-0.9,2.6h-1.6l3.5-9.3h1.7l3.5,9.3H305.2z M303.9,234.9l-0.9-2.5
				c-0.1-0.2-0.2-0.4-0.3-0.8s-0.2-0.6-0.2-0.8c-0.1,0.5-0.3,1.1-0.5,1.7l-0.8,2.4H303.9z"/>
			<path fill="#0A5995" d="M308.4,238.8v-9.3h1.5v9.3H308.4z"/>
			<path fill="#0A5995" d="M320.4,238.8h-1.9l-4.6-7.4h-0.1l0,0.4c0.1,0.8,0.1,1.5,0.1,2.2v4.8h-1.4v-9.3h1.8l4.6,7.4h0
				c0-0.1,0-0.5-0.1-1.1s0-1.1,0-1.4v-4.9h1.4V238.8z"/>
			<path fill="#0A5995" d="M326.4,238.8h-1.5v-8h-2.7v-1.3h7v1.3h-2.7V238.8z"/>
			<path fill="#0A5995" d="M330.1,236v-1.3h3.3v1.3H330.1z"/>
			<path fill="#0A5995" d="M340.6,238.8h-5.2v-9.3h5.2v1.3h-3.7v2.5h3.5v1.3h-3.5v2.9h3.7V238.8z"/>
			<path fill="#0A5995" d="M349.8,238.8h-1.7l-2.3-3.8l-2.3,3.8h-1.6l3.1-4.8l-2.9-4.5h1.7l2.1,3.5l2.1-3.5h1.6l-2.9,4.5
				L349.8,238.8z"/>
			<path fill="#0A5995" d="M358.7,229.5v6c0,0.7-0.1,1.3-0.4,1.8c-0.3,0.5-0.7,0.9-1.3,1.2s-1.2,0.4-2,0.4c-1.2,0-2-0.3-2.7-0.9
				c-0.6-0.6-1-1.4-1-2.5v-6h1.5v5.9c0,0.8,0.2,1.3,0.5,1.7s0.9,0.5,1.6,0.5c1.4,0,2.1-0.8,2.1-2.3v-5.9H358.7z"/>
			<path fill="#0A5995" d="M367.5,232.3c0,1-0.3,1.7-1,2.2c-0.6,0.5-1.5,0.8-2.7,0.8h-1v3.5h-1.5v-9.3h2.7c1.2,0,2,0.2,2.6,0.7
				C367.2,230.7,367.5,231.4,367.5,232.3z M362.9,234.1h0.8c0.8,0,1.3-0.1,1.7-0.4c0.4-0.3,0.5-0.7,0.5-1.3c0-0.5-0.2-0.9-0.5-1.2
				s-0.8-0.4-1.5-0.4h-1.1V234.1z"/>
			<path fill="#0A5995" d="M374.9,238.8h-5.2v-9.3h5.2v1.3h-3.7v2.5h3.5v1.3h-3.5v2.9h3.7V238.8z M371.2,228.8v-0.2
				c0.2-0.3,0.5-0.6,0.7-1s0.5-0.7,0.6-0.9h1.7v0.1c-0.2,0.3-0.5,0.6-1,1c-0.4,0.4-0.8,0.7-1.1,0.9H371.2z"/>
			<path fill="#0A5995" d="M378.8,235.1v3.7h-1.5v-9.3h2.6c1.2,0,2.1,0.2,2.7,0.7c0.6,0.4,0.9,1.1,0.9,2c0,1.2-0.6,2-1.8,2.5
				l2.6,4.1h-1.7l-2.2-3.7H378.8z M378.8,233.8h1.1c0.7,0,1.2-0.1,1.5-0.4s0.5-0.7,0.5-1.2c0-0.5-0.2-0.9-0.5-1.1s-0.9-0.3-1.5-0.3
				h-1V233.8z"/>
			<path fill="#0A5995" d="M388.5,233.8l2.2-4.2h1.7l-3.1,5.7v3.6h-1.5v-3.5l-3.1-5.7h1.7L388.5,233.8z"/>
		</g>
	</g>
</g>
<g id="Layer_2">
</g>
</svg>
