<?xml version="1.0" encoding="utf-8"?>
<!-- Generator: Adobe Illustrator 21.1.0, SVG Export Plug-In . SVG Version: 6.00 Build 0)  -->
<svg version="1.1" xmlns="http://www.w3.org/2000/svg" xmlns:xlink="http://www.w3.org/1999/xlink" x="0px" y="0px"
	 viewBox="0 0 600 417" enable-background="new 0 0 600 417" xml:space="preserve">
<g id="Layer_1">
	<g>
		<rect y="-0.3" fill="#FFFFFF" width="600" height="417.3"/>
	</g>
	<g>
		<rect x="19" y="82.3" fill="#E3F9FF" width="560.5" height="247.9"/>
	</g>
	<g>
		<g>
			<path fill="#0A5995" d="M581,332.2H17.8V80.7H581V332.2z M20.8,329.2H578V83.7H20.8V329.2z"/>
		</g>
	</g>
	<g>
		<path fill="#0A5995" d="M299.3,160.6c-25.2,0-45.7,20.5-45.7,45.7s20.5,45.7,45.7,45.7c25.2,0,45.7-20.5,45.7-45.7
			S324.5,160.6,299.3,160.6z"/>
		<path fill="#E3F9FF" d="M317.3,207.8l-26.6,16.6c-0.8,0.5-1.4,0.2-1.7,0c-0.3-0.2-0.9-0.6-0.9-1.4v-33.2c0-0.9,0.6-1.3,0.9-1.4
			c0.2-0.1,0.5-0.2,0.9-0.2c0.3,0,0.6,0.1,0.9,0.3l26.6,16.6c0.7,0.5,0.8,1.2,0.8,1.4C318.2,206.7,318.1,207.3,317.3,207.8z"/>
	</g>
	<g>
		<path fill="#0A5995" d="M56.4,268h3.7l-5.8,17.1h-4L44.5,268h3.7l3.2,10.2c0.2,0.6,0.4,1.3,0.6,2.1s0.3,1.4,0.4,1.7
			c0.1-0.7,0.4-2,0.9-3.8L56.4,268z"/>
		<path fill="#0A5995" d="M61.2,268.6c0-1.2,0.6-1.7,1.9-1.7c1.3,0,1.9,0.6,1.9,1.7c0,0.6-0.2,1-0.5,1.3s-0.8,0.5-1.5,0.5
			C61.9,270.4,61.2,269.8,61.2,268.6z M64.9,285.1h-3.6V272h3.6V285.1z"/>
		<path fill="#0A5995" d="M72.2,285.3c-1.5,0-2.7-0.6-3.6-1.8s-1.3-2.9-1.3-5c0-2.1,0.4-3.8,1.3-5s2.1-1.8,3.7-1.8
			c1.6,0,2.9,0.6,3.8,1.9h0.1c-0.2-1-0.3-1.8-0.3-2.6v-4.2h3.6v18.2h-2.7l-0.7-1.7H76C75.1,284.7,73.9,285.3,72.2,285.3z
			 M73.5,282.5c0.9,0,1.6-0.3,2-0.8s0.7-1.4,0.7-2.7v-0.4c0-1.4-0.2-2.4-0.7-3s-1.1-0.9-2.1-0.9c-0.8,0-1.4,0.3-1.9,1
			s-0.7,1.7-0.7,2.9s0.2,2.3,0.7,2.9S72.7,282.5,73.5,282.5z"/>
		<path fill="#0A5995" d="M88.6,285.3c-2.1,0-3.8-0.6-4.9-1.7s-1.8-2.8-1.8-4.9c0-2.2,0.5-3.9,1.6-5.1s2.6-1.8,4.6-1.8
			c1.9,0,3.3,0.5,4.3,1.6s1.5,2.5,1.5,4.4v1.7h-8.4c0,1,0.3,1.8,0.9,2.4s1.4,0.9,2.4,0.9c0.8,0,1.5-0.1,2.2-0.2s1.4-0.4,2.2-0.8v2.8
			c-0.6,0.3-1.3,0.5-2,0.7S89.6,285.3,88.6,285.3z M88.1,274.3c-0.8,0-1.4,0.2-1.8,0.7s-0.7,1.2-0.7,2h5c0-0.9-0.2-1.6-0.7-2
			S88.9,274.3,88.1,274.3z"/>
		<path fill="#0A5995" d="M108.2,278.5c0,2.1-0.6,3.8-1.7,5s-2.7,1.8-4.7,1.8c-1.3,0-2.4-0.3-3.3-0.8s-1.7-1.3-2.2-2.4
			s-0.8-2.2-0.8-3.6c0-2.1,0.6-3.8,1.7-5s2.7-1.8,4.7-1.8c1.3,0,2.4,0.3,3.3,0.8s1.7,1.3,2.2,2.4S108.2,277.1,108.2,278.5z
			 M99.1,278.5c0,1.3,0.2,2.3,0.6,2.9s1.1,1,2.1,1c1,0,1.6-0.3,2.1-1s0.6-1.6,0.6-2.9c0-1.3-0.2-2.3-0.6-2.9s-1.1-1-2.1-1
			c-1,0-1.6,0.3-2.1,1S99.1,277.2,99.1,278.5z"/>
		<path fill="#0A5995" d="M123.1,285.1h-3.6V271h-4.7v-3h12.9v3h-4.7V285.1z"/>
		<path fill="#0A5995" d="M129.3,268.6c0-1.2,0.6-1.7,1.9-1.7s1.9,0.6,1.9,1.7c0,0.6-0.2,1-0.5,1.3s-0.8,0.5-1.5,0.5
			C130,270.4,129.3,269.8,129.3,268.6z M133,285.1h-3.6V272h3.6V285.1z"/>
		<path fill="#0A5995" d="M141.7,282.5c0.6,0,1.4-0.1,2.2-0.4v2.7c-0.9,0.4-2,0.6-3.3,0.6c-1.4,0-2.5-0.4-3.1-1.1s-1-1.8-1-3.3v-6.3
			h-1.7v-1.5l2-1.2l1-2.8h2.3v2.8h3.7v2.7h-3.7v6.3c0,0.5,0.1,0.9,0.4,1.1S141.2,282.5,141.7,282.5z"/>
		<path fill="#0A5995" d="M149.6,285.1H146v-18.2h3.6V285.1z"/>
		<path fill="#0A5995" d="M158.7,285.3c-2.1,0-3.8-0.6-4.9-1.7s-1.8-2.8-1.8-4.9c0-2.2,0.5-3.9,1.6-5.1s2.6-1.8,4.6-1.8
			c1.9,0,3.3,0.5,4.3,1.6s1.5,2.5,1.5,4.4v1.7h-8.4c0,1,0.3,1.8,0.9,2.4s1.4,0.9,2.4,0.9c0.8,0,1.5-0.1,2.2-0.2s1.4-0.4,2.2-0.8v2.8
			c-0.6,0.3-1.3,0.5-2,0.7S159.7,285.3,158.7,285.3z M158.2,274.3c-0.8,0-1.4,0.2-1.8,0.7s-0.7,1.2-0.7,2h5c0-0.9-0.2-1.6-0.7-2
			S158.9,274.3,158.2,274.3z"/>
	</g>
	<g>
		<path fill="#0A5995" d="M48.3,307.8l-2.2-7.2H46c0.1,1.5,0.1,2.4,0.1,2.9v4.3h-1.7v-9.2H47l2.2,7h0l2.3-7h2.7v9.2h-1.8v-4.3
			c0-0.2,0-0.4,0-0.7c0-0.3,0-1,0.1-2.1h-0.1l-2.4,7.2H48.3z"/>
		<path fill="#0A5995" d="M60.5,307.8l-0.4-1h0c-0.3,0.4-0.7,0.7-1,0.8c-0.3,0.2-0.8,0.2-1.3,0.2c-0.7,0-1.2-0.2-1.6-0.6
			c-0.4-0.4-0.6-0.9-0.6-1.6c0-0.7,0.3-1.3,0.8-1.7c0.5-0.4,1.3-0.5,2.4-0.6l1.2,0v-0.3c0-0.7-0.4-1.1-1.1-1.1c-0.6,0-1.2,0.2-2,0.5
			l-0.6-1.3c0.8-0.4,1.7-0.6,2.7-0.6c0.9,0,1.7,0.2,2.2,0.6c0.5,0.4,0.8,1,0.8,1.9v4.7H60.5z M59.9,304.5l-0.7,0
			c-0.6,0-1,0.1-1.2,0.3s-0.4,0.5-0.4,0.8c0,0.5,0.3,0.8,0.9,0.8c0.4,0,0.8-0.1,1.1-0.4c0.3-0.3,0.4-0.6,0.4-1V304.5z"/>
		<path fill="#0A5995" d="M68.5,307.8l-0.3-0.9h-0.1c-0.2,0.3-0.5,0.6-0.9,0.8c-0.4,0.2-0.8,0.3-1.3,0.3c-0.8,0-1.4-0.2-1.9-0.7
			c-0.4-0.4-0.6-1.1-0.6-1.9v-4.6h1.9v4.1c0,0.5,0.1,0.9,0.3,1.1c0.2,0.3,0.5,0.4,0.9,0.4c0.5,0,0.9-0.2,1.2-0.5
			c0.2-0.4,0.4-1,0.4-1.8v-3.3h1.9v7H68.5z"/>
		<path fill="#0A5995" d="M75.5,300.6c0.3,0,0.5,0,0.6,0.1l-0.1,1.8c-0.2,0-0.3-0.1-0.6-0.1c-0.6,0-1.1,0.2-1.4,0.5
			c-0.3,0.3-0.5,0.8-0.5,1.3v3.6h-1.9v-7h1.5l0.3,1.2h0.1c0.2-0.4,0.5-0.7,0.9-1C74.7,300.7,75.1,300.6,75.5,300.6z"/>
		<path fill="#0A5995" d="M77.1,298.9c0-0.6,0.3-0.9,1-0.9s1,0.3,1,0.9c0,0.3-0.1,0.5-0.3,0.7c-0.2,0.2-0.4,0.2-0.8,0.2
			C77.4,299.9,77.1,299.6,77.1,298.9z M79.1,307.8h-1.9v-7h1.9V307.8z"/>
		<path fill="#0A5995" d="M85.6,305.7c0,0.7-0.2,1.3-0.8,1.6c-0.5,0.4-1.2,0.6-2.2,0.6c-0.5,0-0.9,0-1.3-0.1c-0.4-0.1-0.7-0.2-1-0.3
			v-1.6c0.4,0.2,0.8,0.3,1.2,0.4s0.8,0.2,1.2,0.2c0.7,0,1-0.2,1-0.6c0-0.2,0-0.3-0.1-0.4c-0.1-0.1-0.3-0.2-0.5-0.3
			c-0.2-0.1-0.5-0.3-0.9-0.4c-0.5-0.2-0.9-0.4-1.2-0.6c-0.3-0.2-0.4-0.4-0.6-0.7c-0.1-0.2-0.2-0.6-0.2-0.9c0-0.6,0.2-1.1,0.7-1.4
			c0.5-0.3,1.2-0.5,2.1-0.5c0.8,0,1.7,0.2,2.5,0.6l-0.6,1.4c-0.4-0.2-0.7-0.3-1-0.4c-0.3-0.1-0.6-0.1-0.9-0.1
			c-0.6,0-0.8,0.2-0.8,0.5c0,0.2,0.1,0.3,0.3,0.4s0.6,0.3,1.2,0.6c0.5,0.2,1,0.4,1.2,0.6c0.3,0.2,0.4,0.4,0.6,0.7
			C85.6,305,85.6,305.3,85.6,305.7z"/>
		<path fill="#0A5995" d="M91.5,307.8l-2.7-7h2l1.4,4c0.2,0.5,0.2,1,0.3,1.4h0c0-0.4,0.1-0.9,0.3-1.4l1.4-4h2l-2.7,7H91.5z"/>
		<path fill="#0A5995" d="M100,307.9c-1.1,0-2-0.3-2.7-0.9s-1-1.5-1-2.7c0-1.2,0.3-2.1,0.9-2.7c0.6-0.6,1.4-1,2.4-1
			c1,0,1.8,0.3,2.3,0.8c0.6,0.6,0.8,1.3,0.8,2.3v0.9h-4.5c0,0.5,0.2,1,0.5,1.3s0.7,0.5,1.3,0.5c0.4,0,0.8,0,1.2-0.1
			c0.4-0.1,0.8-0.2,1.2-0.4v1.5c-0.3,0.2-0.7,0.3-1.1,0.4C101,307.9,100.6,307.9,100,307.9z M99.8,302c-0.4,0-0.7,0.1-1,0.4
			s-0.4,0.6-0.4,1.1h2.7c0-0.5-0.1-0.8-0.4-1.1C100.5,302.1,100.2,302,99.8,302z"/>
		<path fill="#0A5995" d="M110.6,307.8h-1.9v-4.1c0-0.5-0.1-0.9-0.3-1.1c-0.2-0.3-0.5-0.4-0.9-0.4c-0.5,0-0.9,0.2-1.2,0.5
			c-0.2,0.4-0.4,1-0.4,1.8v3.3h-1.9v-7h1.5l0.3,0.9h0.1c0.2-0.3,0.5-0.6,0.9-0.8s0.8-0.3,1.3-0.3c0.8,0,1.4,0.2,1.9,0.7
			c0.4,0.4,0.6,1.1,0.6,1.9V307.8z"/>
		<path fill="#0A5995" d="M115.4,307.9c-1.1,0-2-0.3-2.7-0.9s-1-1.5-1-2.7c0-1.2,0.3-2.1,0.9-2.7c0.6-0.6,1.4-1,2.4-1
			c1,0,1.8,0.3,2.3,0.8c0.6,0.6,0.8,1.3,0.8,2.3v0.9h-4.5c0,0.5,0.2,1,0.5,1.3s0.7,0.5,1.3,0.5c0.4,0,0.8,0,1.2-0.1
			c0.4-0.1,0.8-0.2,1.2-0.4v1.5c-0.3,0.2-0.7,0.3-1.1,0.4C116.5,307.9,116,307.9,115.4,307.9z M115.2,302c-0.4,0-0.7,0.1-1,0.4
			s-0.4,0.6-0.4,1.1h2.7c0-0.5-0.1-0.8-0.4-1.1C115.9,302.1,115.6,302,115.2,302z"/>
		<path fill="#0A5995" d="M126,307.8h-1.9v-4.1c0-0.5-0.1-0.9-0.3-1.1c-0.2-0.3-0.5-0.4-0.9-0.4c-0.5,0-0.9,0.2-1.2,0.5
			c-0.2,0.4-0.4,1-0.4,1.8v3.3h-1.9v-7h1.5l0.3,0.9h0.1c0.2-0.3,0.5-0.6,0.9-0.8s0.8-0.3,1.3-0.3c0.8,0,1.4,0.2,1.9,0.7
			c0.4,0.4,0.6,1.1,0.6,1.9V307.8z"/>
		<path fill="#0A5995" d="M132.1,307.8l-0.4-1h0c-0.3,0.4-0.7,0.7-1,0.8c-0.3,0.2-0.8,0.2-1.3,0.2c-0.7,0-1.2-0.2-1.6-0.6
			c-0.4-0.4-0.6-0.9-0.6-1.6c0-0.7,0.3-1.3,0.8-1.7c0.5-0.4,1.3-0.5,2.4-0.6l1.2,0v-0.3c0-0.7-0.4-1.1-1.1-1.1c-0.6,0-1.2,0.2-2,0.5
			l-0.6-1.3c0.8-0.4,1.7-0.6,2.7-0.6c0.9,0,1.7,0.2,2.2,0.6c0.5,0.4,0.8,1,0.8,1.9v4.7H132.1z M131.6,304.5l-0.7,0
			c-0.6,0-1,0.1-1.2,0.3s-0.4,0.5-0.4,0.8c0,0.5,0.3,0.8,0.9,0.8c0.4,0,0.8-0.1,1.1-0.4c0.3-0.3,0.4-0.6,0.4-1V304.5z"/>
		<path fill="#0A5995" d="M138.1,306.4c0.3,0,0.7-0.1,1.2-0.2v1.4c-0.5,0.2-1.1,0.3-1.8,0.3c-0.8,0-1.3-0.2-1.7-0.6
			c-0.3-0.4-0.5-1-0.5-1.7v-3.4h-0.9v-0.8l1.1-0.6l0.6-1.5h1.2v1.5h2v1.4h-2v3.4c0,0.3,0.1,0.5,0.2,0.6
			C137.6,306.3,137.8,306.4,138.1,306.4z"/>
		<path fill="#0A5995" d="M140.3,298.9c0-0.6,0.3-0.9,1-0.9s1,0.3,1,0.9c0,0.3-0.1,0.5-0.3,0.7c-0.2,0.2-0.4,0.2-0.8,0.2
			C140.7,299.9,140.3,299.6,140.3,298.9z M142.3,307.8h-1.9v-7h1.9V307.8z"/>
		<path fill="#0A5995" d="M148.9,305.7c0,0.7-0.2,1.3-0.8,1.6c-0.5,0.4-1.2,0.6-2.2,0.6c-0.5,0-0.9,0-1.3-0.1
			c-0.4-0.1-0.7-0.2-1-0.3v-1.6c0.4,0.2,0.8,0.3,1.2,0.4s0.8,0.2,1.2,0.2c0.7,0,1-0.2,1-0.6c0-0.2,0-0.3-0.1-0.4
			c-0.1-0.1-0.3-0.2-0.5-0.3c-0.2-0.1-0.5-0.3-0.9-0.4c-0.5-0.2-0.9-0.4-1.2-0.6c-0.3-0.2-0.4-0.4-0.6-0.7c-0.1-0.2-0.2-0.6-0.2-0.9
			c0-0.6,0.2-1.1,0.7-1.4c0.5-0.3,1.2-0.5,2.1-0.5c0.8,0,1.7,0.2,2.5,0.6l-0.6,1.4c-0.4-0.2-0.7-0.3-1-0.4c-0.3-0.1-0.6-0.1-0.9-0.1
			c-0.6,0-0.8,0.2-0.8,0.5c0,0.2,0.1,0.3,0.3,0.4s0.6,0.3,1.2,0.6c0.5,0.2,1,0.4,1.2,0.6c0.3,0.2,0.4,0.4,0.6,0.7
			C148.8,305,148.9,305.3,148.9,305.7z"/>
		<path fill="#0A5995" d="M154.8,307.8l-2.7-7h2l1.4,4c0.2,0.5,0.2,1,0.3,1.4h0c0-0.4,0.1-0.9,0.3-1.4l1.4-4h2l-2.7,7H154.8z"/>
		<path fill="#0A5995" d="M160,298.9c0-0.6,0.3-0.9,1-0.9s1,0.3,1,0.9c0,0.3-0.1,0.5-0.3,0.7c-0.2,0.2-0.4,0.2-0.8,0.2
			C160.4,299.9,160,299.6,160,298.9z M162,307.8h-1.9v-7h1.9V307.8z"/>
		<path fill="#0A5995" d="M166.7,306.4c0.3,0,0.7-0.1,1.2-0.2v1.4c-0.5,0.2-1.1,0.3-1.8,0.3c-0.8,0-1.3-0.2-1.7-0.6
			c-0.3-0.4-0.5-1-0.5-1.7v-3.4H163v-0.8l1.1-0.6l0.6-1.5h1.2v1.5h2v1.4h-2v3.4c0,0.3,0.1,0.5,0.2,0.6
			C166.2,306.3,166.4,306.4,166.7,306.4z"/>
		<path fill="#0A5995" d="M173.4,307.8l-0.4-1h0c-0.3,0.4-0.7,0.7-1,0.8c-0.3,0.2-0.8,0.2-1.3,0.2c-0.7,0-1.2-0.2-1.6-0.6
			c-0.4-0.4-0.6-0.9-0.6-1.6c0-0.7,0.3-1.3,0.8-1.7c0.5-0.4,1.3-0.5,2.4-0.6l1.2,0v-0.3c0-0.7-0.4-1.1-1.1-1.1c-0.6,0-1.2,0.2-2,0.5
			l-0.6-1.3c0.8-0.4,1.7-0.6,2.7-0.6c0.9,0,1.7,0.2,2.2,0.6c0.5,0.4,0.8,1,0.8,1.9v4.7H173.4z M172.9,304.5l-0.7,0
			c-0.6,0-1,0.1-1.2,0.3s-0.4,0.5-0.4,0.8c0,0.5,0.3,0.8,0.9,0.8c0.4,0,0.8-0.1,1.1-0.4c0.3-0.3,0.4-0.6,0.4-1V304.5z"/>
		<path fill="#0A5995" d="M179.6,307.9c-1.1,0-2-0.3-2.7-0.9s-1-1.5-1-2.7c0-1.2,0.3-2.1,0.9-2.7c0.6-0.6,1.4-1,2.4-1
			c1,0,1.8,0.3,2.3,0.8c0.6,0.6,0.8,1.3,0.8,2.3v0.9h-4.5c0,0.5,0.2,1,0.5,1.3s0.7,0.5,1.3,0.5c0.4,0,0.8,0,1.2-0.1
			c0.4-0.1,0.8-0.2,1.2-0.4v1.5c-0.3,0.2-0.7,0.3-1.1,0.4C180.6,307.9,180.2,307.9,179.6,307.9z M179.3,302c-0.4,0-0.7,0.1-1,0.4
			s-0.4,0.6-0.4,1.1h2.7c0-0.5-0.1-0.8-0.4-1.1C180.1,302.1,179.7,302,179.3,302z"/>
		<path fill="#0A5995" d="M193.2,307.8h-1.9v-4.1c0-0.5-0.1-0.9-0.3-1.1c-0.2-0.3-0.5-0.4-0.9-0.4c-0.5,0-0.9,0.2-1.2,0.5
			c-0.2,0.4-0.4,1-0.4,1.8v3.3h-1.9v-7h1.5l0.3,0.9h0.1c0.2-0.3,0.5-0.6,0.9-0.8s0.8-0.3,1.3-0.3c0.8,0,1.4,0.2,1.9,0.7
			c0.4,0.4,0.6,1.1,0.6,1.9V307.8z"/>
		<path fill="#0A5995" d="M199.8,307.8l-0.3-0.9h-0.1c-0.2,0.3-0.5,0.6-0.9,0.8c-0.4,0.2-0.8,0.3-1.3,0.3c-0.8,0-1.4-0.2-1.9-0.7
			c-0.4-0.4-0.6-1.1-0.6-1.9v-4.6h1.9v4.1c0,0.5,0.1,0.9,0.3,1.1c0.2,0.3,0.5,0.4,0.9,0.4c0.5,0,0.9-0.2,1.2-0.5
			c0.2-0.4,0.4-1,0.4-1.8v-3.3h1.9v7H199.8z"/>
		<path fill="#0A5995" d="M204.9,307.8H203V298h1.9V307.8z"/>
		<path fill="#0A5995" d="M208.5,307.8h-1.9V298h1.9V307.8z"/>
		<path fill="#0A5995" d="M214.7,307.8l-0.4-1h0c-0.3,0.4-0.7,0.7-1,0.8c-0.3,0.2-0.8,0.2-1.3,0.2c-0.7,0-1.2-0.2-1.6-0.6
			c-0.4-0.4-0.6-0.9-0.6-1.6c0-0.7,0.3-1.3,0.8-1.7c0.5-0.4,1.3-0.5,2.4-0.6l1.2,0v-0.3c0-0.7-0.4-1.1-1.1-1.1c-0.6,0-1.2,0.2-2,0.5
			l-0.6-1.3c0.8-0.4,1.7-0.6,2.7-0.6c0.9,0,1.7,0.2,2.2,0.6c0.5,0.4,0.8,1,0.8,1.9v4.7H214.7z M214.1,304.5l-0.7,0
			c-0.6,0-1,0.1-1.2,0.3s-0.4,0.5-0.4,0.8c0,0.5,0.3,0.8,0.9,0.8c0.4,0,0.8-0.1,1.1-0.4c0.3-0.3,0.4-0.6,0.4-1V304.5z"/>
		<path fill="#0A5995" d="M225.2,307.8l-0.4-1h0c-0.3,0.4-0.7,0.7-1,0.8c-0.3,0.2-0.8,0.2-1.3,0.2c-0.7,0-1.2-0.2-1.6-0.6
			c-0.4-0.4-0.6-0.9-0.6-1.6c0-0.7,0.3-1.3,0.8-1.7c0.5-0.4,1.3-0.5,2.4-0.6l1.2,0v-0.3c0-0.7-0.4-1.1-1.1-1.1c-0.6,0-1.2,0.2-2,0.5
			l-0.6-1.3c0.8-0.4,1.7-0.6,2.7-0.6c0.9,0,1.7,0.2,2.2,0.6c0.5,0.4,0.8,1,0.8,1.9v4.7H225.2z M224.6,304.5l-0.7,0
			c-0.6,0-1,0.1-1.2,0.3s-0.4,0.5-0.4,0.8c0,0.5,0.3,0.8,0.9,0.8c0.4,0,0.8-0.1,1.1-0.4c0.3-0.3,0.4-0.6,0.4-1V304.5z"/>
		<path fill="#0A5995" d="M231,307.9c-2.2,0-3.3-1.2-3.3-3.6c0-1.2,0.3-2.1,0.9-2.7c0.6-0.6,1.4-0.9,2.6-0.9c0.8,0,1.5,0.2,2.2,0.5
			l-0.6,1.5c-0.3-0.1-0.6-0.2-0.8-0.3c-0.3-0.1-0.5-0.1-0.8-0.1c-1,0-1.5,0.7-1.5,2.1c0,1.4,0.5,2.1,1.5,2.1c0.4,0,0.7,0,1-0.1
			s0.6-0.3,0.9-0.5v1.6c-0.3,0.2-0.6,0.3-0.9,0.4S231.5,307.9,231,307.9z"/>
		<path fill="#0A5995" d="M242.4,305.7c0,0.7-0.2,1.3-0.8,1.6c-0.5,0.4-1.2,0.6-2.2,0.6c-0.5,0-0.9,0-1.3-0.1
			c-0.4-0.1-0.7-0.2-1-0.3v-1.6c0.4,0.2,0.8,0.3,1.2,0.4s0.8,0.2,1.2,0.2c0.7,0,1-0.2,1-0.6c0-0.2,0-0.3-0.1-0.4
			c-0.1-0.1-0.3-0.2-0.5-0.3c-0.2-0.1-0.5-0.3-0.9-0.4c-0.5-0.2-0.9-0.4-1.2-0.6c-0.3-0.2-0.4-0.4-0.6-0.7c-0.1-0.2-0.2-0.6-0.2-0.9
			c0-0.6,0.2-1.1,0.7-1.4c0.5-0.3,1.2-0.5,2.1-0.5c0.8,0,1.7,0.2,2.5,0.6l-0.6,1.4c-0.4-0.2-0.7-0.3-1-0.4c-0.3-0.1-0.6-0.1-0.9-0.1
			c-0.6,0-0.8,0.2-0.8,0.5c0,0.2,0.1,0.3,0.3,0.4s0.6,0.3,1.2,0.6c0.5,0.2,1,0.4,1.2,0.6c0.3,0.2,0.4,0.4,0.6,0.7
			C242.3,305,242.4,305.3,242.4,305.7z"/>
		<path fill="#0A5995" d="M249.9,304.2c0,1.1-0.3,2-0.9,2.7c-0.6,0.6-1.4,1-2.5,1c-0.7,0-1.3-0.1-1.8-0.4s-0.9-0.7-1.2-1.3
			c-0.3-0.6-0.4-1.2-0.4-1.9c0-1.1,0.3-2,0.9-2.7c0.6-0.6,1.4-1,2.5-1c0.7,0,1.3,0.1,1.8,0.4c0.5,0.3,0.9,0.7,1.2,1.3
			C249.8,302.9,249.9,303.5,249.9,304.2z M245.1,304.2c0,0.7,0.1,1.2,0.3,1.6s0.6,0.5,1.1,0.5c0.5,0,0.9-0.2,1.1-0.5
			c0.2-0.4,0.3-0.9,0.3-1.6c0-0.7-0.1-1.2-0.3-1.6s-0.6-0.5-1.1-0.5c-0.5,0-0.9,0.2-1.1,0.5S245.1,303.5,245.1,304.2z"/>
		<path fill="#0A5995" d="M253.1,307.8h-1.9V298h1.9V307.8z"/>
		<path fill="#0A5995" d="M256.7,307.8h-1.9V298h1.9V307.8z"/>
		<path fill="#0A5995" d="M258.3,298.9c0-0.6,0.3-0.9,1-0.9s1,0.3,1,0.9c0,0.3-0.1,0.5-0.3,0.7c-0.2,0.2-0.4,0.2-0.8,0.2
			C258.7,299.9,258.3,299.6,258.3,298.9z M260.3,307.8h-1.9v-7h1.9V307.8z"/>
		<path fill="#0A5995" d="M264.9,307.9c-2.2,0-3.3-1.2-3.3-3.6c0-1.2,0.3-2.1,0.9-2.7c0.6-0.6,1.4-0.9,2.6-0.9
			c0.8,0,1.5,0.2,2.2,0.5l-0.6,1.5c-0.3-0.1-0.6-0.2-0.8-0.3c-0.3-0.1-0.5-0.1-0.8-0.1c-1,0-1.5,0.7-1.5,2.1c0,1.4,0.5,2.1,1.5,2.1
			c0.4,0,0.7,0,1-0.1s0.6-0.3,0.9-0.5v1.6c-0.3,0.2-0.6,0.3-0.9,0.4S265.3,307.9,264.9,307.9z"/>
		<path fill="#0A5995" d="M268.2,298.9c0-0.6,0.3-0.9,1-0.9s1,0.3,1,0.9c0,0.3-0.1,0.5-0.3,0.7c-0.2,0.2-0.4,0.2-0.8,0.2
			C268.6,299.9,268.2,299.6,268.2,298.9z M270.2,307.8h-1.9v-7h1.9V307.8z"/>
		<path fill="#0A5995" d="M274.9,306.4c0.3,0,0.7-0.1,1.2-0.2v1.4c-0.5,0.2-1.1,0.3-1.8,0.3c-0.8,0-1.3-0.2-1.7-0.6
			c-0.3-0.4-0.5-1-0.5-1.7v-3.4h-0.9v-0.8l1.1-0.6l0.6-1.5h1.2v1.5h2v1.4h-2v3.4c0,0.3,0.1,0.5,0.2,0.6
			C274.4,306.3,274.6,306.4,274.9,306.4z"/>
	</g>
</g>
<g id="Layer_2">
</g>
</svg>
