<?xml version="1.0" encoding="utf-8"?>
<!-- Generator: Adobe Illustrator 21.1.0, SVG Export Plug-In . SVG Version: 6.00 Build 0)  -->
<svg version="1.1" xmlns="http://www.w3.org/2000/svg" xmlns:xlink="http://www.w3.org/1999/xlink" x="0px" y="0px"
	 viewBox="0 0 600 348" enable-background="new 0 0 600 348" xml:space="preserve">
<g id="Layer_1">
	<g>
		<rect y="0.1" fill="#FFFFFF" width="600" height="347.6"/>
	</g>
	<g>
		<g>
			<rect x="322.7" y="86" fill="#E3F9FF" width="255" height="173"/>
		</g>
		<g>
			<g>
				<path fill="#0A5995" d="M580.2,262.5H321.8V85.1h258.3V262.5z M324.8,259.5h252.3V88.1H324.8V259.5z"/>
			</g>
		</g>
		<g>
			<g>
				<path fill="#0A5995" d="M450.2,141.1c-17.3,0-31.3,14.1-31.3,31.3s14.1,31.3,31.3,31.3s31.3-14.1,31.3-31.3
					S467.5,141.1,450.2,141.1z"/>
				<path fill="#E3F9FF" d="M462.5,173.5l-18.2,11.3c-0.5,0.3-1,0.1-1.2,0c-0.2-0.1-0.6-0.4-0.6-1V161c0-0.6,0.4-0.9,0.6-1
					c0.1-0.1,0.3-0.1,0.6-0.1c0.2,0,0.4,0.1,0.6,0.2l18.2,11.3c0.5,0.3,0.5,0.8,0.5,1C463.1,172.7,463.1,173.1,462.5,173.5z"/>
			</g>
		</g>
	</g>
	<g>
		<path fill="#0A5995" d="M44.5,91.3c0,2-0.6,3.6-1.9,4.6c-1.3,1.1-3.1,1.6-5.4,1.6h-1.7v6.7h-4V85.4h6c2.3,0,4,0.5,5.2,1.5
			C43.9,87.9,44.5,89.3,44.5,91.3z M35.5,94.2h1.3c1.2,0,2.1-0.2,2.7-0.7c0.6-0.5,0.9-1.2,0.9-2.1c0-0.9-0.3-1.6-0.8-2.1
			c-0.5-0.4-1.3-0.7-2.4-0.7h-1.8V94.2z"/>
		<path fill="#0A5995" d="M56.1,104.1l-0.8-1.9h-0.1c-0.7,0.8-1.3,1.4-2,1.7c-0.7,0.3-1.6,0.5-2.7,0.5c-1.4,0-2.5-0.4-3.2-1.2
			c-0.8-0.8-1.2-1.9-1.2-3.4c0-1.5,0.5-2.6,1.6-3.4s2.7-1.1,4.8-1.2l2.5-0.1v-0.6c0-1.5-0.7-2.2-2.2-2.2c-1.1,0-2.5,0.3-4,1
			l-1.3-2.6c1.6-0.9,3.5-1.3,5.5-1.3c1.9,0,3.4,0.4,4.4,1.3c1,0.8,1.5,2.1,1.5,3.8v9.5H56.1z M55,97.5l-1.5,0.1
			c-1.1,0-2,0.2-2.5,0.6c-0.6,0.4-0.8,0.9-0.8,1.7c0,1.1,0.6,1.7,1.9,1.7c0.9,0,1.6-0.3,2.2-0.8c0.5-0.5,0.8-1.2,0.8-2.1V97.5z"/>
		<path fill="#0A5995" d="M75.4,104.1h-3.9v-8.4c0-1-0.2-1.8-0.6-2.3s-1-0.8-1.8-0.8c-1.1,0-1.9,0.4-2.4,1.1
			c-0.5,0.7-0.7,1.9-0.7,3.6v6.7h-3.9V89.8h3l0.5,1.8h0.2c0.4-0.7,1-1.2,1.8-1.6c0.8-0.4,1.6-0.5,2.6-0.5c1.7,0,2.9,0.5,3.8,1.4
			c0.9,0.9,1.3,2.2,1.3,3.9V104.1z"/>
		<path fill="#0A5995" d="M85.3,104.4c-2.3,0-4.1-0.6-5.4-1.9s-1.9-3.1-1.9-5.4c0-2.4,0.6-4.3,1.8-5.6c1.2-1.3,2.9-2,5-2
			c2,0,3.6,0.6,4.7,1.7c1.1,1.2,1.7,2.7,1.7,4.8V98h-9.2c0,1.1,0.4,2,1,2.6c0.6,0.6,1.5,0.9,2.6,0.9c0.9,0,1.7-0.1,2.4-0.3
			c0.8-0.2,1.6-0.5,2.4-0.9v3c-0.7,0.3-1.4,0.6-2.2,0.8C87.4,104.3,86.4,104.4,85.3,104.4z M84.7,92.3c-0.8,0-1.5,0.3-1.9,0.8
			c-0.5,0.5-0.7,1.3-0.8,2.2h5.5c0-1-0.3-1.7-0.8-2.2S85.6,92.3,84.7,92.3z"/>
		<path fill="#0A5995" d="M97.6,104.1h-3.9V84.2h3.9V104.1z"/>
		<path fill="#0A5995" d="M114.7,104.1h-4V88.7h-5.1v-3.3h14.1v3.3h-5.1V104.1z"/>
		<path fill="#0A5995" d="M121.5,86.1c0-1.3,0.7-1.9,2.1-1.9c1.4,0,2.1,0.6,2.1,1.9c0,0.6-0.2,1.1-0.5,1.4s-0.9,0.5-1.6,0.5
			C122.2,88,121.5,87.4,121.5,86.1z M125.6,104.1h-3.9V89.8h3.9V104.1z"/>
		<path fill="#0A5995" d="M135.1,101.3c0.7,0,1.5-0.1,2.5-0.4v2.9c-1,0.4-2.2,0.7-3.6,0.7c-1.6,0-2.7-0.4-3.4-1.2s-1.1-2-1.1-3.6
			v-6.9h-1.9v-1.7l2.2-1.3l1.1-3h2.5v3h4v2.9h-4v6.9c0,0.6,0.2,1,0.5,1.2C134.1,101.2,134.6,101.3,135.1,101.3z"/>
		<path fill="#0A5995" d="M143.7,104.1h-3.9V84.2h3.9V104.1z"/>
		<path fill="#0A5995" d="M153.6,104.4c-2.3,0-4.1-0.6-5.4-1.9s-1.9-3.1-1.9-5.4c0-2.4,0.6-4.3,1.8-5.6s2.9-2,5-2
			c2,0,3.6,0.6,4.7,1.7s1.7,2.7,1.7,4.8V98h-9.2c0,1.1,0.4,2,1,2.6c0.6,0.6,1.5,0.9,2.6,0.9c0.9,0,1.7-0.1,2.4-0.3
			c0.8-0.2,1.6-0.5,2.4-0.9v3c-0.7,0.3-1.4,0.6-2.2,0.8C155.7,104.3,154.7,104.4,153.6,104.4z M153,92.3c-0.8,0-1.5,0.3-1.9,0.8
			s-0.7,1.3-0.8,2.2h5.5c0-1-0.3-1.7-0.8-2.2C154.5,92.6,153.9,92.3,153,92.3z"/>
		<path fill="#0A5995" d="M172.3,104.1h-3.9V85.4h10.7v3.3h-6.8v4.8h6.4v3.2h-6.4V104.1z"/>
		<path fill="#0A5995" d="M194.9,97c0,2.3-0.6,4.2-1.8,5.5c-1.2,1.3-2.9,2-5.1,2c-1.4,0-2.6-0.3-3.6-0.9c-1-0.6-1.9-1.5-2.4-2.6
			c-0.6-1.1-0.8-2.4-0.8-3.9c0-2.3,0.6-4.2,1.8-5.5c1.2-1.3,2.9-1.9,5.1-1.9c1.4,0,2.6,0.3,3.6,0.9c1,0.6,1.9,1.5,2.4,2.6
			C194.6,94.1,194.9,95.5,194.9,97z M185,97c0,1.4,0.2,2.5,0.7,3.2c0.5,0.7,1.2,1.1,2.3,1.1c1,0,1.8-0.4,2.2-1.1s0.7-1.8,0.7-3.2
			c0-1.4-0.2-2.5-0.7-3.2c-0.5-0.7-1.2-1.1-2.3-1.1c-1,0-1.8,0.4-2.3,1.1S185,95.5,185,97z"/>
		<path fill="#0A5995" d="M205.4,89.6c0.5,0,1,0,1.3,0.1l-0.3,3.7c-0.3-0.1-0.7-0.1-1.2-0.1c-1.2,0-2.2,0.3-2.9,1
			c-0.7,0.6-1,1.5-1,2.7v7.3h-3.9V89.8h3l0.6,2.4h0.2c0.4-0.8,1-1.4,1.8-1.9C203.7,89.8,204.5,89.6,205.4,89.6z"/>
		<path fill="#0A5995" d="M46.9,134.1h-4v-8.1h-7.4v8.1h-4v-18.7h4v7.3h7.4v-7.3h4V134.1z"/>
		<path fill="#0A5995" d="M57.1,134.4c-2.3,0-4.1-0.6-5.4-1.9s-1.9-3.1-1.9-5.4c0-2.4,0.6-4.3,1.8-5.6s2.9-2,5-2
			c2,0,3.6,0.6,4.7,1.7s1.7,2.7,1.7,4.8v1.9h-9.2c0,1.1,0.4,2,1,2.6c0.6,0.6,1.5,0.9,2.6,0.9c0.9,0,1.7-0.1,2.4-0.3
			c0.8-0.2,1.6-0.5,2.4-0.9v3c-0.7,0.3-1.4,0.6-2.2,0.8C59.2,134.3,58.2,134.4,57.1,134.4z M56.6,122.3c-0.8,0-1.5,0.3-1.9,0.8
			s-0.7,1.3-0.8,2.2h5.5c0-1-0.3-1.7-0.8-2.2C58,122.6,57.4,122.3,56.6,122.3z"/>
		<path fill="#0A5995" d="M74.6,134.1l-0.8-1.9h-0.1c-0.7,0.8-1.3,1.4-2,1.7c-0.7,0.3-1.6,0.5-2.7,0.5c-1.4,0-2.5-0.4-3.2-1.2
			c-0.8-0.8-1.2-1.9-1.2-3.4c0-1.5,0.5-2.6,1.6-3.4c1.1-0.7,2.7-1.1,4.8-1.2l2.5-0.1v-0.6c0-1.5-0.7-2.2-2.2-2.2c-1.1,0-2.5,0.3-4,1
			l-1.3-2.6c1.6-0.9,3.5-1.3,5.5-1.3c1.9,0,3.4,0.4,4.4,1.3s1.5,2.1,1.5,3.8v9.5H74.6z M73.4,127.5l-1.5,0.1c-1.1,0-2,0.2-2.5,0.6
			c-0.6,0.4-0.8,0.9-0.8,1.7c0,1.1,0.6,1.7,1.9,1.7c0.9,0,1.6-0.3,2.2-0.8c0.5-0.5,0.8-1.2,0.8-2.1V127.5z"/>
		<path fill="#0A5995" d="M85.2,134.4c-1.7,0-3-0.7-4-2c-1-1.3-1.4-3.1-1.4-5.4c0-2.3,0.5-4.2,1.5-5.5c1-1.3,2.3-2,4-2
			c1.8,0,3.2,0.7,4.1,2.1h0.1c-0.2-1.1-0.3-2-0.3-2.9v-4.6h3.9v19.9h-3l-0.8-1.9h-0.2C88.4,133.7,87,134.4,85.2,134.4z M86.6,131.3
			c1,0,1.7-0.3,2.2-0.9c0.5-0.6,0.7-1.6,0.8-3V127c0-1.5-0.2-2.6-0.7-3.3c-0.5-0.7-1.2-1-2.3-1c-0.9,0-1.5,0.4-2,1.1
			c-0.5,0.7-0.7,1.8-0.7,3.2s0.2,2.5,0.7,3.2C85,130.9,85.7,131.3,86.6,131.3z"/>
		<path fill="#0A5995" d="M100.5,134.1h-3.9v-19.9h3.9V134.1z"/>
		<path fill="#0A5995" d="M103.8,116.1c0-1.3,0.7-1.9,2.1-1.9c1.4,0,2.1,0.6,2.1,1.9c0,0.6-0.2,1.1-0.5,1.4
			c-0.4,0.3-0.9,0.5-1.6,0.5C104.5,118,103.8,117.4,103.8,116.1z M107.9,134.1H104v-14.3h3.9V134.1z"/>
		<path fill="#0A5995" d="M124.5,134.1h-3.9v-8.4c0-1-0.2-1.8-0.6-2.3s-1-0.8-1.8-0.8c-1.1,0-1.9,0.4-2.4,1.1
			c-0.5,0.7-0.7,1.9-0.7,3.6v6.7h-3.9v-14.3h3l0.5,1.8h0.2c0.4-0.7,1-1.2,1.8-1.6c0.8-0.4,1.6-0.5,2.6-0.5c1.7,0,2.9,0.5,3.8,1.4
			c0.9,0.9,1.3,2.2,1.3,3.9V134.1z"/>
		<path fill="#0A5995" d="M134.4,134.4c-2.3,0-4.1-0.6-5.4-1.9c-1.3-1.3-1.9-3.1-1.9-5.4c0-2.4,0.6-4.3,1.8-5.6c1.2-1.3,2.9-2,5-2
			c2,0,3.6,0.6,4.7,1.7c1.1,1.2,1.7,2.7,1.7,4.8v1.9H131c0,1.1,0.4,2,1,2.6c0.6,0.6,1.5,0.9,2.6,0.9c0.9,0,1.7-0.1,2.4-0.3
			c0.8-0.2,1.6-0.5,2.4-0.9v3c-0.7,0.3-1.4,0.6-2.2,0.8C136.4,134.3,135.5,134.4,134.4,134.4z M133.8,122.3c-0.8,0-1.5,0.3-1.9,0.8
			c-0.5,0.5-0.7,1.3-0.8,2.2h5.5c0-1-0.3-1.7-0.8-2.2S134.6,122.3,133.8,122.3z"/>
		<path fill="#0A5995" d="M152.7,129.9c0,1.5-0.5,2.6-1.5,3.4s-2.5,1.2-4.6,1.2c-1,0-1.9-0.1-2.7-0.2s-1.4-0.3-2.1-0.6v-3.2
			c0.7,0.3,1.5,0.6,2.5,0.9c0.9,0.2,1.7,0.3,2.4,0.3c1.4,0,2.1-0.4,2.1-1.2c0-0.3-0.1-0.6-0.3-0.7s-0.5-0.4-1-0.7
			c-0.5-0.2-1.1-0.5-1.8-0.9c-1.1-0.5-1.9-0.9-2.4-1.3s-0.9-0.8-1.1-1.4c-0.2-0.5-0.4-1.1-0.4-1.9c0-1.3,0.5-2.3,1.5-3
			c1-0.7,2.4-1,4.2-1c1.7,0,3.4,0.4,5,1.1l-1.2,2.8c-0.7-0.3-1.4-0.6-2-0.8s-1.3-0.3-1.9-0.3c-1.2,0-1.7,0.3-1.7,0.9
			c0,0.4,0.2,0.7,0.6,0.9c0.4,0.3,1.2,0.6,2.4,1.1c1.1,0.5,1.9,0.9,2.5,1.3c0.5,0.4,0.9,0.8,1.2,1.4
			C152.6,128.6,152.7,129.2,152.7,129.9z"/>
	</g>
	<g>
		<path fill="#0A5995" d="M35.4,155.3c-0.9,0-1.6,0.3-2.1,0.9c-0.5,0.6-0.7,1.5-0.7,2.6c0,1.1,0.2,2,0.7,2.6s1.2,0.9,2.1,0.9
			c0.4,0,0.8,0,1.1-0.1s0.8-0.2,1.1-0.3v1.3c-0.7,0.3-1.6,0.4-2.5,0.4c-1.4,0-2.4-0.4-3.1-1.2c-0.7-0.8-1.1-2-1.1-3.5
			c0-1,0.2-1.8,0.5-2.5s0.9-1.3,1.5-1.7c0.7-0.4,1.5-0.6,2.4-0.6c0.9,0,1.8,0.2,2.6,0.6l-0.5,1.3c-0.3-0.1-0.6-0.3-1-0.4
			C36.1,155.3,35.8,155.3,35.4,155.3z"/>
		<path fill="#0A5995" d="M45.4,159.9c0,1.1-0.3,2-0.9,2.7c-0.6,0.6-1.4,1-2.5,1c-0.7,0-1.2-0.1-1.7-0.4c-0.5-0.3-0.9-0.7-1.2-1.3
			c-0.3-0.6-0.4-1.2-0.4-1.9c0-1.1,0.3-2,0.9-2.7c0.6-0.6,1.4-1,2.5-1c1,0,1.8,0.3,2.4,1C45.1,157.9,45.4,158.7,45.4,159.9z
			 M40.3,159.9c0,1.6,0.6,2.4,1.8,2.4c1.2,0,1.8-0.8,1.8-2.4c0-1.6-0.6-2.4-1.8-2.4c-0.6,0-1.1,0.2-1.4,0.6S40.3,159.1,40.3,159.9z"
			/>
		<path fill="#0A5995" d="M53,163.4h-1.5v-4.3c0-0.5-0.1-0.9-0.3-1.2c-0.2-0.3-0.6-0.4-1-0.4c-0.6,0-1.1,0.2-1.4,0.6s-0.4,1-0.4,1.9
			v3.5h-1.5v-7H48l0.2,0.9h0.1c0.2-0.3,0.5-0.6,0.9-0.8c0.4-0.2,0.8-0.3,1.3-0.3c1.7,0,2.5,0.9,2.5,2.6V163.4z"/>
		<path fill="#0A5995" d="M57.3,162.3c0.4,0,0.7-0.1,1.1-0.2v1.1c-0.2,0.1-0.4,0.1-0.6,0.2c-0.3,0-0.5,0.1-0.8,0.1
			c-1.4,0-2.1-0.7-2.1-2.2v-3.8h-1v-0.7l1-0.5l0.5-1.5h0.9v1.6h2v1.1h-2v3.8c0,0.4,0.1,0.6,0.3,0.8
			C56.8,162.2,57.1,162.3,57.3,162.3z"/>
		<path fill="#0A5995" d="M62.6,163.5c-1.1,0-1.9-0.3-2.6-1c-0.6-0.6-0.9-1.5-0.9-2.6c0-1.1,0.3-2,0.9-2.7c0.6-0.7,1.4-1,2.4-1
			c0.9,0,1.7,0.3,2.2,0.8c0.5,0.6,0.8,1.3,0.8,2.3v0.8h-4.7c0,0.7,0.2,1.2,0.6,1.6c0.3,0.4,0.8,0.5,1.5,0.5c0.4,0,0.8,0,1.2-0.1
			s0.7-0.2,1.2-0.4v1.2c-0.4,0.2-0.7,0.3-1.1,0.4C63.5,163.5,63.1,163.5,62.6,163.5z M62.3,157.4c-0.5,0-0.9,0.2-1.1,0.5
			c-0.3,0.3-0.5,0.7-0.5,1.3h3.2c0-0.6-0.1-1-0.4-1.3C63.2,157.5,62.8,157.4,62.3,157.4z"/>
		<path fill="#0A5995" d="M72.9,163.4h-1.5v-4.3c0-0.5-0.1-0.9-0.3-1.2c-0.2-0.3-0.6-0.4-1-0.4c-0.6,0-1.1,0.2-1.4,0.6
			s-0.4,1-0.4,1.9v3.5h-1.5v-7h1.2l0.2,0.9h0.1c0.2-0.3,0.5-0.6,0.9-0.8c0.4-0.2,0.8-0.3,1.3-0.3c1.7,0,2.5,0.9,2.5,2.6V163.4z"/>
		<path fill="#0A5995" d="M77.2,162.3c0.4,0,0.7-0.1,1.1-0.2v1.1c-0.2,0.1-0.4,0.1-0.6,0.2c-0.3,0-0.5,0.1-0.8,0.1
			c-1.4,0-2.1-0.7-2.1-2.2v-3.8h-1v-0.7l1-0.5l0.5-1.5h0.9v1.6h2v1.1h-2v3.8c0,0.4,0.1,0.6,0.3,0.8
			C76.7,162.2,76.9,162.3,77.2,162.3z"/>
		<path fill="#0A5995" d="M86.8,163.4l-0.3-1h-0.1c-0.3,0.4-0.7,0.7-1,0.9s-0.8,0.2-1.3,0.2c-0.7,0-1.2-0.2-1.6-0.6
			c-0.4-0.4-0.6-0.9-0.6-1.6c0-0.7,0.3-1.3,0.8-1.6c0.5-0.4,1.4-0.6,2.5-0.6l1.2,0v-0.4c0-0.4-0.1-0.8-0.3-1c-0.2-0.2-0.5-0.3-1-0.3
			c-0.4,0-0.7,0.1-1,0.2c-0.3,0.1-0.6,0.2-1,0.4l-0.5-1.1c0.4-0.2,0.8-0.4,1.3-0.5c0.5-0.1,0.9-0.2,1.3-0.2c0.9,0,1.6,0.2,2,0.6
			s0.7,1,0.7,1.8v4.7H86.8z M84.6,162.4c0.5,0,1-0.2,1.3-0.5c0.3-0.3,0.5-0.7,0.5-1.3V160l-0.9,0c-0.7,0-1.2,0.1-1.5,0.4
			c-0.3,0.2-0.5,0.5-0.5,1c0,0.3,0.1,0.6,0.3,0.7C84,162.3,84.2,162.4,84.6,162.4z"/>
		<path fill="#0A5995" d="M93.2,156.2c0.3,0,0.5,0,0.7,0.1l-0.1,1.4c-0.2-0.1-0.4-0.1-0.7-0.1c-0.6,0-1.1,0.2-1.5,0.6
			c-0.4,0.4-0.6,0.9-0.6,1.5v3.7h-1.5v-7h1.2l0.2,1.2h0.1c0.2-0.4,0.5-0.8,0.9-1C92.4,156.3,92.8,156.2,93.2,156.2z"/>
		<path fill="#0A5995" d="M98,163.5c-1.1,0-1.9-0.3-2.6-1c-0.6-0.6-0.9-1.5-0.9-2.6c0-1.1,0.3-2,0.9-2.7c0.6-0.7,1.4-1,2.4-1
			c0.9,0,1.7,0.3,2.2,0.8c0.5,0.6,0.8,1.3,0.8,2.3v0.8h-4.7c0,0.7,0.2,1.2,0.6,1.6c0.3,0.4,0.8,0.5,1.5,0.5c0.4,0,0.8,0,1.2-0.1
			s0.7-0.2,1.2-0.4v1.2c-0.4,0.2-0.7,0.3-1.1,0.4C98.9,163.5,98.5,163.5,98,163.5z M97.7,157.4c-0.5,0-0.9,0.2-1.1,0.5
			c-0.3,0.3-0.5,0.7-0.5,1.3h3.2c0-0.6-0.1-1-0.4-1.3C98.6,157.5,98.2,157.4,97.7,157.4z"/>
		<path fill="#0A5995" d="M106.5,163.4l-0.3-1h-0.1c-0.3,0.4-0.7,0.7-1,0.9s-0.8,0.2-1.3,0.2c-0.7,0-1.2-0.2-1.6-0.6
			c-0.4-0.4-0.6-0.9-0.6-1.6c0-0.7,0.3-1.3,0.8-1.6c0.5-0.4,1.4-0.6,2.5-0.6l1.2,0v-0.4c0-0.4-0.1-0.8-0.3-1c-0.2-0.2-0.5-0.3-1-0.3
			c-0.4,0-0.7,0.1-1,0.2c-0.3,0.1-0.6,0.2-1,0.4l-0.5-1.1c0.4-0.2,0.8-0.4,1.3-0.5c0.5-0.1,0.9-0.2,1.3-0.2c0.9,0,1.6,0.2,2,0.6
			s0.7,1,0.7,1.8v4.7H106.5z M104.3,162.4c0.5,0,1-0.2,1.3-0.5c0.3-0.3,0.5-0.7,0.5-1.3V160l-0.9,0c-0.7,0-1.2,0.1-1.5,0.4
			c-0.3,0.2-0.5,0.5-0.5,1c0,0.3,0.1,0.6,0.3,0.7C103.6,162.3,103.9,162.4,104.3,162.4z"/>
		<path fill="#0A5995" d="M115.9,157.5h-1.7v5.9h-1.5v-5.9h-1.2v-0.7l1.2-0.5v-0.5c0-0.8,0.2-1.4,0.6-1.8c0.4-0.4,1-0.6,1.8-0.6
			c0.5,0,1,0.1,1.5,0.3l-0.4,1.1c-0.4-0.1-0.7-0.2-1.1-0.2c-0.3,0-0.6,0.1-0.7,0.3c-0.2,0.2-0.2,0.5-0.2,0.9v0.5h1.7V157.5z"/>
		<path fill="#0A5995" d="M123,159.9c0,1.1-0.3,2-0.9,2.7c-0.6,0.6-1.4,1-2.5,1c-0.7,0-1.2-0.1-1.7-0.4c-0.5-0.3-0.9-0.7-1.2-1.3
			c-0.3-0.6-0.4-1.2-0.4-1.9c0-1.1,0.3-2,0.9-2.7c0.6-0.6,1.4-1,2.5-1c1,0,1.8,0.3,2.4,1C122.7,157.9,123,158.7,123,159.9z
			 M117.9,159.9c0,1.6,0.6,2.4,1.8,2.4c1.2,0,1.8-0.8,1.8-2.4c0-1.6-0.6-2.4-1.8-2.4c-0.6,0-1.1,0.2-1.4,0.6
			C118,158.5,117.9,159.1,117.9,159.9z"/>
		<path fill="#0A5995" d="M127.9,156.2c0.3,0,0.5,0,0.7,0.1l-0.1,1.4c-0.2-0.1-0.4-0.1-0.7-0.1c-0.6,0-1.1,0.2-1.5,0.6
			c-0.4,0.4-0.6,0.9-0.6,1.5v3.7h-1.5v-7h1.2l0.2,1.2h0.1c0.2-0.4,0.5-0.8,0.9-1C127.1,156.3,127.5,156.2,127.9,156.2z"/>
		<path fill="#0A5995" d="M135.1,163.5c-0.9,0-1.6-0.3-2-1c-0.5-0.6-0.7-1.5-0.7-2.7c0-1.2,0.2-2,0.7-2.7c0.5-0.6,1.2-1,2.1-1
			c0.9,0,1.6,0.3,2.1,1h0.1c-0.1-0.5-0.1-0.9-0.1-1.2v-2.6h1.5v9.9h-1.2l-0.3-0.9h-0.1C136.7,163.2,136,163.5,135.1,163.5z
			 M135.5,162.3c0.6,0,1.1-0.2,1.3-0.5s0.4-0.9,0.4-1.7v-0.2c0-0.9-0.1-1.5-0.4-1.9c-0.3-0.4-0.7-0.6-1.4-0.6
			c-0.5,0-0.9,0.2-1.2,0.6c-0.3,0.4-0.4,1-0.4,1.8c0,0.8,0.1,1.4,0.4,1.8C134.5,162.1,134.9,162.3,135.5,162.3z"/>
		<path fill="#0A5995" d="M143.5,163.5c-1.1,0-1.9-0.3-2.6-1c-0.6-0.6-0.9-1.5-0.9-2.6c0-1.1,0.3-2,0.9-2.7c0.6-0.7,1.4-1,2.4-1
			c0.9,0,1.7,0.3,2.2,0.8c0.5,0.6,0.8,1.3,0.8,2.3v0.8h-4.7c0,0.7,0.2,1.2,0.6,1.6c0.3,0.4,0.8,0.5,1.5,0.5c0.4,0,0.8,0,1.2-0.1
			s0.7-0.2,1.2-0.4v1.2c-0.4,0.2-0.7,0.3-1.1,0.4C144.5,163.5,144,163.5,143.5,163.5z M143.3,157.4c-0.5,0-0.9,0.2-1.1,0.5
			c-0.3,0.3-0.5,0.7-0.5,1.3h3.2c0-0.6-0.1-1-0.4-1.3C144.1,157.5,143.8,157.4,143.3,157.4z"/>
		<path fill="#0A5995" d="M152.4,161.4c0,0.7-0.2,1.2-0.7,1.6c-0.5,0.4-1.2,0.5-2.1,0.5c-0.9,0-1.7-0.1-2.3-0.4v-1.3
			c0.8,0.4,1.6,0.6,2.3,0.6c0.9,0,1.4-0.3,1.4-0.8c0-0.2-0.1-0.3-0.2-0.4c-0.1-0.1-0.3-0.2-0.5-0.4c-0.2-0.1-0.6-0.3-1-0.4
			c-0.8-0.3-1.4-0.6-1.6-0.9c-0.3-0.3-0.4-0.7-0.4-1.2c0-0.6,0.2-1.1,0.7-1.4c0.5-0.3,1.1-0.5,2-0.5c0.8,0,1.6,0.2,2.3,0.5l-0.5,1.1
			c-0.8-0.3-1.4-0.5-1.9-0.5c-0.8,0-1.2,0.2-1.2,0.7c0,0.2,0.1,0.4,0.3,0.6c0.2,0.2,0.7,0.4,1.3,0.6c0.6,0.2,1,0.4,1.3,0.6
			c0.3,0.2,0.5,0.4,0.6,0.6S152.4,161,152.4,161.4z"/>
		<path fill="#0A5995" d="M156.5,163.5c-1.1,0-1.9-0.3-2.4-0.9c-0.6-0.6-0.8-1.5-0.8-2.7c0-1.2,0.3-2.1,0.9-2.7c0.6-0.6,1.4-1,2.5-1
			c0.7,0,1.4,0.1,2,0.4l-0.5,1.2c-0.6-0.2-1.2-0.4-1.6-0.4c-1.2,0-1.8,0.8-1.8,2.4c0,0.8,0.2,1.4,0.5,1.8c0.3,0.4,0.7,0.6,1.3,0.6
			c0.7,0,1.3-0.2,1.9-0.5v1.3c-0.3,0.2-0.6,0.3-0.9,0.3C157.3,163.5,156.9,163.5,156.5,163.5z"/>
		<path fill="#0A5995" d="M163.3,156.2c0.3,0,0.5,0,0.7,0.1l-0.1,1.4c-0.2-0.1-0.4-0.1-0.7-0.1c-0.6,0-1.1,0.2-1.5,0.6
			c-0.4,0.4-0.6,0.9-0.6,1.5v3.7h-1.5v-7h1.2l0.2,1.2h0.1c0.2-0.4,0.5-0.8,0.9-1C162.5,156.3,162.9,156.2,163.3,156.2z"/>
		<path fill="#0A5995" d="M165,154.5c0-0.3,0.1-0.5,0.2-0.6c0.1-0.1,0.4-0.2,0.6-0.2c0.3,0,0.5,0.1,0.6,0.2c0.1,0.1,0.2,0.3,0.2,0.6
			c0,0.3-0.1,0.5-0.2,0.6c-0.1,0.1-0.4,0.2-0.6,0.2c-0.3,0-0.5-0.1-0.6-0.2C165,154.9,165,154.7,165,154.5z M166.5,163.4H165v-7h1.5
			V163.4z"/>
		<path fill="#0A5995" d="M171.9,163.5c-0.9,0-1.6-0.3-2.1-1h-0.1c0.1,0.6,0.1,1,0.1,1.1v2.9h-1.5v-10.1h1.2c0,0.1,0.1,0.4,0.2,0.9
			h0.1c0.5-0.7,1.2-1.1,2.1-1.1c0.9,0,1.6,0.3,2,1c0.5,0.6,0.7,1.5,0.7,2.7c0,1.1-0.2,2-0.7,2.7S172.8,163.5,171.9,163.5z
			 M171.5,157.4c-0.6,0-1,0.2-1.3,0.5c-0.3,0.3-0.4,0.9-0.4,1.7v0.2c0,0.9,0.1,1.5,0.4,1.9c0.3,0.4,0.7,0.6,1.3,0.6
			c0.5,0,0.9-0.2,1.2-0.6s0.4-1,0.4-1.8c0-0.8-0.1-1.4-0.4-1.8C172.5,157.6,172.1,157.4,171.5,157.4z"/>
		<path fill="#0A5995" d="M178.7,162.3c0.4,0,0.7-0.1,1.1-0.2v1.1c-0.2,0.1-0.4,0.1-0.6,0.2c-0.3,0-0.5,0.1-0.8,0.1
			c-1.4,0-2.1-0.7-2.1-2.2v-3.8h-1v-0.7l1-0.5l0.5-1.5h0.9v1.6h2v1.1h-2v3.8c0,0.4,0.1,0.6,0.3,0.8
			C178.2,162.2,178.4,162.3,178.7,162.3z"/>
		<path fill="#0A5995" d="M180.8,154.5c0-0.3,0.1-0.5,0.2-0.6c0.1-0.1,0.4-0.2,0.6-0.2c0.3,0,0.5,0.1,0.6,0.2
			c0.1,0.1,0.2,0.3,0.2,0.6c0,0.3-0.1,0.5-0.2,0.6c-0.1,0.1-0.4,0.2-0.6,0.2c-0.3,0-0.5-0.1-0.6-0.2
			C180.9,154.9,180.8,154.7,180.8,154.5z M182.4,163.4h-1.5v-7h1.5V163.4z"/>
		<path fill="#0A5995" d="M190.4,159.9c0,1.1-0.3,2-0.9,2.7c-0.6,0.6-1.4,1-2.5,1c-0.7,0-1.2-0.1-1.7-0.4c-0.5-0.3-0.9-0.7-1.2-1.3
			c-0.3-0.6-0.4-1.2-0.4-1.9c0-1.1,0.3-2,0.9-2.7c0.6-0.6,1.4-1,2.5-1c1,0,1.8,0.3,2.4,1C190.1,157.9,190.4,158.7,190.4,159.9z
			 M185.3,159.9c0,1.6,0.6,2.4,1.8,2.4c1.2,0,1.8-0.8,1.8-2.4c0-1.6-0.6-2.4-1.8-2.4c-0.6,0-1.1,0.2-1.4,0.6
			S185.3,159.1,185.3,159.9z"/>
		<path fill="#0A5995" d="M198,163.4h-1.5v-4.3c0-0.5-0.1-0.9-0.3-1.2c-0.2-0.3-0.6-0.4-1-0.4c-0.6,0-1.1,0.2-1.4,0.6
			s-0.4,1-0.4,1.9v3.5h-1.5v-7h1.2l0.2,0.9h0.1c0.2-0.3,0.5-0.6,0.9-0.8c0.4-0.2,0.8-0.3,1.3-0.3c1.7,0,2.5,0.9,2.5,2.6V163.4z"/>
		<path fill="#0A5995" d="M204.5,161.4c0,0.7-0.2,1.2-0.7,1.6c-0.5,0.4-1.2,0.5-2.1,0.5c-0.9,0-1.7-0.1-2.3-0.4v-1.3
			c0.8,0.4,1.6,0.6,2.3,0.6c0.9,0,1.4-0.3,1.4-0.8c0-0.2-0.1-0.3-0.2-0.4c-0.1-0.1-0.3-0.2-0.5-0.4c-0.2-0.1-0.6-0.3-1-0.4
			c-0.8-0.3-1.4-0.6-1.6-0.9c-0.3-0.3-0.4-0.7-0.4-1.2c0-0.6,0.2-1.1,0.7-1.4s1.1-0.5,2-0.5c0.8,0,1.6,0.2,2.3,0.5l-0.5,1.1
			c-0.8-0.3-1.4-0.5-1.9-0.5c-0.8,0-1.2,0.2-1.2,0.7c0,0.2,0.1,0.4,0.3,0.6s0.7,0.4,1.3,0.6c0.6,0.2,1,0.4,1.3,0.6
			c0.3,0.2,0.5,0.4,0.6,0.6S204.5,161,204.5,161.4z"/>
		<path fill="#0A5995" d="M207.3,162c-0.2,0.8-0.6,1.8-1.1,3h-1.1c0.3-1.1,0.5-2.2,0.7-3.2h1.5L207.3,162z"/>
		<path fill="#0A5995" d="M213.4,163.4h-1.5v-9.9h1.5V163.4z"/>
		<path fill="#0A5995" d="M221.5,159.9c0,1.1-0.3,2-0.9,2.7c-0.6,0.6-1.4,1-2.5,1c-0.7,0-1.2-0.1-1.7-0.4c-0.5-0.3-0.9-0.7-1.2-1.3
			c-0.3-0.6-0.4-1.2-0.4-1.9c0-1.1,0.3-2,0.9-2.7c0.6-0.6,1.4-1,2.5-1c1,0,1.8,0.3,2.4,1C221.2,157.9,221.5,158.7,221.5,159.9z
			 M216.4,159.9c0,1.6,0.6,2.4,1.8,2.4c1.2,0,1.8-0.8,1.8-2.4c0-1.6-0.6-2.4-1.8-2.4c-0.6,0-1.1,0.2-1.4,0.6
			C216.5,158.5,216.4,159.1,216.4,159.9z"/>
		<path fill="#0A5995" d="M226.4,156.2c0.3,0,0.5,0,0.7,0.1l-0.1,1.4c-0.2-0.1-0.4-0.1-0.7-0.1c-0.6,0-1.1,0.2-1.5,0.6
			c-0.4,0.4-0.6,0.9-0.6,1.5v3.7h-1.5v-7h1.2l0.2,1.2h0.1c0.2-0.4,0.5-0.8,0.9-1C225.6,156.3,226,156.2,226.4,156.2z"/>
		<path fill="#0A5995" d="M231.2,163.5c-1.1,0-1.9-0.3-2.6-1c-0.6-0.6-0.9-1.5-0.9-2.6c0-1.1,0.3-2,0.9-2.7c0.6-0.7,1.4-1,2.4-1
			c0.9,0,1.7,0.3,2.2,0.8c0.5,0.6,0.8,1.3,0.8,2.3v0.8h-4.7c0,0.7,0.2,1.2,0.6,1.6c0.3,0.4,0.8,0.5,1.5,0.5c0.4,0,0.8,0,1.2-0.1
			s0.7-0.2,1.2-0.4v1.2c-0.4,0.2-0.7,0.3-1.1,0.4C232.1,163.5,231.7,163.5,231.2,163.5z M230.9,157.4c-0.5,0-0.9,0.2-1.1,0.5
			c-0.3,0.3-0.5,0.7-0.5,1.3h3.2c0-0.6-0.1-1-0.4-1.3C231.8,157.5,231.4,157.4,230.9,157.4z"/>
		<path fill="#0A5995" d="M241.2,163.4h-1.5V159c0-0.5-0.1-0.9-0.3-1.2s-0.5-0.4-1-0.4c-0.6,0-1,0.2-1.3,0.6c-0.3,0.4-0.4,1-0.4,1.9
			v3.5h-1.5v-7h1.2l0.2,0.9h0.1c0.2-0.3,0.5-0.6,0.8-0.8c0.4-0.2,0.8-0.3,1.2-0.3c1.1,0,1.8,0.4,2.1,1.1h0.1
			c0.2-0.3,0.5-0.6,0.9-0.8c0.4-0.2,0.8-0.3,1.3-0.3c0.8,0,1.4,0.2,1.8,0.6c0.4,0.4,0.6,1.1,0.6,1.9v4.6h-1.5V159
			c0-0.5-0.1-0.9-0.3-1.2s-0.5-0.4-1-0.4c-0.6,0-1,0.2-1.3,0.5c-0.3,0.4-0.4,0.9-0.4,1.7V163.4z"/>
		<path fill="#0A5995" d="M250.4,154.5c0-0.3,0.1-0.5,0.2-0.6c0.1-0.1,0.4-0.2,0.6-0.2c0.3,0,0.5,0.1,0.6,0.2
			c0.1,0.1,0.2,0.3,0.2,0.6c0,0.3-0.1,0.5-0.2,0.6c-0.1,0.1-0.4,0.2-0.6,0.2c-0.3,0-0.5-0.1-0.6-0.2
			C250.4,154.9,250.4,154.7,250.4,154.5z M252,163.4h-1.5v-7h1.5V163.4z"/>
		<path fill="#0A5995" d="M257.3,163.5c-0.9,0-1.6-0.3-2.1-1h-0.1c0.1,0.6,0.1,1,0.1,1.1v2.9h-1.5v-10.1h1.2c0,0.1,0.1,0.4,0.2,0.9
			h0.1c0.5-0.7,1.2-1.1,2.1-1.1c0.9,0,1.6,0.3,2,1c0.5,0.6,0.7,1.5,0.7,2.7c0,1.1-0.2,2-0.7,2.7
			C258.9,163.2,258.2,163.5,257.3,163.5z M257,157.4c-0.6,0-1,0.2-1.3,0.5c-0.3,0.3-0.4,0.9-0.4,1.7v0.2c0,0.9,0.1,1.5,0.4,1.9
			c0.3,0.4,0.7,0.6,1.3,0.6c0.5,0,0.9-0.2,1.2-0.6s0.4-1,0.4-1.8c0-0.8-0.1-1.4-0.4-1.8S257.5,157.4,257,157.4z"/>
		<path fill="#0A5995" d="M266.3,161.4c0,0.7-0.2,1.2-0.7,1.6c-0.5,0.4-1.2,0.5-2.1,0.5c-0.9,0-1.7-0.1-2.3-0.4v-1.3
			c0.8,0.4,1.6,0.6,2.3,0.6c0.9,0,1.4-0.3,1.4-0.8c0-0.2-0.1-0.3-0.2-0.4c-0.1-0.1-0.3-0.2-0.5-0.4c-0.2-0.1-0.6-0.3-1-0.4
			c-0.8-0.3-1.4-0.6-1.6-0.9c-0.3-0.3-0.4-0.7-0.4-1.2c0-0.6,0.2-1.1,0.7-1.4c0.5-0.3,1.1-0.5,2-0.5c0.8,0,1.6,0.2,2.3,0.5l-0.5,1.1
			c-0.8-0.3-1.4-0.5-1.9-0.5c-0.8,0-1.2,0.2-1.2,0.7c0,0.2,0.1,0.4,0.3,0.6c0.2,0.2,0.7,0.4,1.3,0.6c0.6,0.2,1,0.4,1.3,0.6
			c0.3,0.2,0.5,0.4,0.6,0.6S266.3,161,266.3,161.4z"/>
		<path fill="#0A5995" d="M272.5,163.4l-0.2-0.9h-0.1c-0.2,0.3-0.5,0.6-0.9,0.8c-0.4,0.2-0.8,0.3-1.3,0.3c-0.9,0-1.5-0.2-1.9-0.6
			s-0.6-1.1-0.6-1.9v-4.6h1.5v4.3c0,0.5,0.1,0.9,0.3,1.2c0.2,0.3,0.6,0.4,1,0.4c0.6,0,1.1-0.2,1.4-0.6c0.3-0.4,0.4-1,0.4-1.9v-3.5
			h1.5v7H272.5z"/>
		<path fill="#0A5995" d="M281.4,163.4h-1.5V159c0-0.5-0.1-0.9-0.3-1.2s-0.5-0.4-1-0.4c-0.6,0-1,0.2-1.3,0.6c-0.3,0.4-0.4,1-0.4,1.9
			v3.5h-1.5v-7h1.2l0.2,0.9h0.1c0.2-0.3,0.5-0.6,0.8-0.8c0.4-0.2,0.8-0.3,1.2-0.3c1.1,0,1.8,0.4,2.1,1.1h0.1
			c0.2-0.3,0.5-0.6,0.9-0.8c0.4-0.2,0.8-0.3,1.3-0.3c0.8,0,1.4,0.2,1.8,0.6c0.4,0.4,0.6,1.1,0.6,1.9v4.6h-1.5V159
			c0-0.5-0.1-0.9-0.3-1.2s-0.5-0.4-1-0.4c-0.6,0-1,0.2-1.3,0.5c-0.3,0.4-0.4,0.9-0.4,1.7V163.4z"/>
		<path fill="#0A5995" d="M33.6,181.5c-0.9,0-1.6-0.3-2-1c-0.5-0.6-0.7-1.5-0.7-2.7c0-1.2,0.2-2,0.7-2.7c0.5-0.6,1.2-1,2.1-1
			c0.9,0,1.6,0.3,2.1,1h0.1c-0.1-0.5-0.1-0.9-0.1-1.2v-2.6h1.5v9.9h-1.2l-0.3-0.9h-0.1C35.3,181.2,34.6,181.5,33.6,181.5z M34,180.3
			c0.6,0,1.1-0.2,1.3-0.5s0.4-0.9,0.4-1.7v-0.2c0-0.9-0.1-1.5-0.4-1.9c-0.3-0.4-0.7-0.6-1.4-0.6c-0.5,0-0.9,0.2-1.2,0.6
			c-0.3,0.4-0.4,1-0.4,1.8c0,0.8,0.1,1.4,0.4,1.8C33.1,180.1,33.5,180.3,34,180.3z"/>
		<path fill="#0A5995" d="M45.3,177.9c0,1.1-0.3,2-0.9,2.7c-0.6,0.6-1.4,1-2.5,1c-0.7,0-1.2-0.1-1.7-0.4c-0.5-0.3-0.9-0.7-1.2-1.3
			c-0.3-0.6-0.4-1.2-0.4-1.9c0-1.1,0.3-2,0.9-2.7c0.6-0.6,1.4-1,2.5-1c1,0,1.8,0.3,2.4,1C45,175.9,45.3,176.7,45.3,177.9z
			 M40.2,177.9c0,1.6,0.6,2.4,1.8,2.4c1.2,0,1.8-0.8,1.8-2.4c0-1.6-0.6-2.4-1.8-2.4c-0.6,0-1.1,0.2-1.4,0.6S40.2,177.1,40.2,177.9z"
			/>
		<path fill="#0A5995" d="M48.2,181.4h-1.5v-9.9h1.5V181.4z"/>
		<path fill="#0A5995" d="M56.2,177.9c0,1.1-0.3,2-0.9,2.7c-0.6,0.6-1.4,1-2.5,1c-0.7,0-1.2-0.1-1.7-0.4c-0.5-0.3-0.9-0.7-1.2-1.3
			c-0.3-0.6-0.4-1.2-0.4-1.9c0-1.1,0.3-2,0.9-2.7c0.6-0.6,1.4-1,2.5-1c1,0,1.8,0.3,2.4,1C55.9,175.9,56.2,176.7,56.2,177.9z
			 M51.1,177.9c0,1.6,0.6,2.4,1.8,2.4c1.2,0,1.8-0.8,1.8-2.4c0-1.6-0.6-2.4-1.8-2.4c-0.6,0-1.1,0.2-1.4,0.6
			C51.2,176.5,51.1,177.1,51.1,177.9z"/>
		<path fill="#0A5995" d="M61.1,174.2c0.3,0,0.5,0,0.7,0.1l-0.1,1.4c-0.2-0.1-0.4-0.1-0.7-0.1c-0.6,0-1.1,0.2-1.5,0.6
			c-0.4,0.4-0.6,0.9-0.6,1.5v3.7h-1.5v-7h1.2l0.2,1.2H59c0.2-0.4,0.5-0.8,0.9-1C60.3,174.3,60.7,174.2,61.1,174.2z"/>
		<path fill="#0A5995" d="M70.6,179.4c0,0.7-0.2,1.2-0.7,1.6c-0.5,0.4-1.2,0.5-2.1,0.5c-0.9,0-1.7-0.1-2.3-0.4v-1.3
			c0.8,0.4,1.6,0.6,2.3,0.6c0.9,0,1.4-0.3,1.4-0.8c0-0.2-0.1-0.3-0.2-0.4c-0.1-0.1-0.3-0.2-0.5-0.4c-0.2-0.1-0.6-0.3-1-0.4
			c-0.8-0.3-1.4-0.6-1.6-0.9c-0.3-0.3-0.4-0.7-0.4-1.2c0-0.6,0.2-1.1,0.7-1.4s1.1-0.5,2-0.5c0.8,0,1.6,0.2,2.3,0.5l-0.5,1.1
			c-0.8-0.3-1.4-0.5-1.9-0.5c-0.8,0-1.2,0.2-1.2,0.7c0,0.2,0.1,0.4,0.3,0.6s0.7,0.4,1.3,0.6c0.6,0.2,1,0.4,1.3,0.6
			c0.3,0.2,0.5,0.4,0.6,0.6S70.6,179,70.6,179.4z"/>
		<path fill="#0A5995" d="M71.8,172.5c0-0.3,0.1-0.5,0.2-0.6c0.1-0.1,0.4-0.2,0.6-0.2c0.3,0,0.5,0.1,0.6,0.2
			c0.1,0.1,0.2,0.3,0.2,0.6c0,0.3-0.1,0.5-0.2,0.6c-0.1,0.1-0.4,0.2-0.6,0.2c-0.3,0-0.5-0.1-0.6-0.2
			C71.9,172.9,71.8,172.7,71.8,172.5z M73.4,181.4h-1.5v-7h1.5V181.4z"/>
		<path fill="#0A5995" d="M77.8,180.3c0.4,0,0.7-0.1,1.1-0.2v1.1c-0.2,0.1-0.4,0.1-0.6,0.2c-0.3,0-0.5,0.1-0.8,0.1
			c-1.4,0-2.1-0.7-2.1-2.2v-3.8h-1v-0.7l1-0.5l0.5-1.5h0.9v1.6h2v1.1h-2v3.8c0,0.4,0.1,0.6,0.3,0.8
			C77.3,180.2,77.5,180.3,77.8,180.3z"/>
		<path fill="#0A5995" d="M87.4,181.4l-0.3-1h-0.1c-0.3,0.4-0.7,0.7-1,0.9s-0.8,0.2-1.3,0.2c-0.7,0-1.2-0.2-1.6-0.6
			c-0.4-0.4-0.6-0.9-0.6-1.6c0-0.7,0.3-1.3,0.8-1.6c0.5-0.4,1.4-0.6,2.5-0.6l1.2,0v-0.4c0-0.4-0.1-0.8-0.3-1c-0.2-0.2-0.5-0.3-1-0.3
			c-0.4,0-0.7,0.1-1,0.2c-0.3,0.1-0.6,0.2-1,0.4l-0.5-1.1c0.4-0.2,0.8-0.4,1.2-0.5c0.5-0.1,0.9-0.2,1.3-0.2c0.9,0,1.6,0.2,2,0.6
			c0.5,0.4,0.7,1,0.7,1.8v4.7H87.4z M85.2,180.4c0.5,0,1-0.2,1.3-0.5s0.5-0.7,0.5-1.3V178l-0.9,0c-0.7,0-1.2,0.1-1.5,0.4
			c-0.3,0.2-0.5,0.5-0.5,1c0,0.3,0.1,0.6,0.3,0.7C84.6,180.3,84.8,180.4,85.2,180.4z"/>
		<path fill="#0A5995" d="M96.2,181.4h-1.5V177c0-0.5-0.1-0.9-0.3-1.2s-0.5-0.4-1-0.4c-0.6,0-1,0.2-1.3,0.6c-0.3,0.4-0.4,1-0.4,1.9
			v3.5h-1.5v-7h1.2l0.2,0.9h0.1c0.2-0.3,0.5-0.6,0.8-0.8c0.4-0.2,0.8-0.3,1.2-0.3c1.1,0,1.8,0.4,2.1,1.1H96c0.2-0.3,0.5-0.6,0.9-0.8
			c0.4-0.2,0.8-0.3,1.3-0.3c0.8,0,1.4,0.2,1.8,0.6s0.6,1.1,0.6,1.9v4.6h-1.5V177c0-0.5-0.1-0.9-0.3-1.2c-0.2-0.3-0.5-0.4-1-0.4
			c-0.6,0-1,0.2-1.3,0.5c-0.3,0.4-0.4,0.9-0.4,1.7V181.4z"/>
		<path fill="#0A5995" d="M105.4,181.5c-1.1,0-1.9-0.3-2.6-1c-0.6-0.6-0.9-1.5-0.9-2.6c0-1.1,0.3-2,0.9-2.7c0.6-0.7,1.4-1,2.4-1
			c0.9,0,1.7,0.3,2.2,0.8c0.5,0.6,0.8,1.3,0.8,2.3v0.8h-4.7c0,0.7,0.2,1.2,0.6,1.6c0.3,0.4,0.8,0.5,1.5,0.5c0.4,0,0.8,0,1.2-0.1
			s0.7-0.2,1.2-0.4v1.2c-0.4,0.2-0.7,0.3-1.1,0.4C106.3,181.5,105.9,181.5,105.4,181.5z M105.2,175.4c-0.5,0-0.9,0.2-1.1,0.5
			c-0.3,0.3-0.5,0.7-0.5,1.3h3.2c0-0.6-0.1-1-0.4-1.3C106,175.5,105.6,175.4,105.2,175.4z"/>
		<path fill="#0A5995" d="M112.1,180.3c0.4,0,0.7-0.1,1.1-0.2v1.1c-0.2,0.1-0.4,0.1-0.6,0.2c-0.3,0-0.5,0.1-0.8,0.1
			c-1.4,0-2.1-0.7-2.1-2.2v-3.8h-1v-0.7l1-0.5l0.5-1.5h0.9v1.6h2v1.1h-2v3.8c0,0.4,0.1,0.6,0.3,0.8
			C111.6,180.2,111.9,180.3,112.1,180.3z"/>
		<path fill="#0A5995" d="M120.2,181.5c-1.1,0-1.9-0.3-2.4-0.9c-0.6-0.6-0.8-1.5-0.8-2.7c0-1.2,0.3-2.1,0.9-2.7c0.6-0.6,1.4-1,2.5-1
			c0.7,0,1.4,0.1,2,0.4l-0.5,1.2c-0.6-0.2-1.2-0.4-1.6-0.4c-1.2,0-1.8,0.8-1.8,2.4c0,0.8,0.2,1.4,0.5,1.8c0.3,0.4,0.7,0.6,1.3,0.6
			c0.7,0,1.3-0.2,1.9-0.5v1.3c-0.3,0.2-0.6,0.3-0.9,0.3C121,181.5,120.6,181.5,120.2,181.5z"/>
		<path fill="#0A5995" d="M129.7,177.9c0,1.1-0.3,2-0.9,2.7c-0.6,0.6-1.4,1-2.5,1c-0.7,0-1.2-0.1-1.7-0.4c-0.5-0.3-0.9-0.7-1.2-1.3
			c-0.3-0.6-0.4-1.2-0.4-1.9c0-1.1,0.3-2,0.9-2.7c0.6-0.6,1.4-1,2.5-1c1,0,1.8,0.3,2.4,1C129.4,175.9,129.7,176.7,129.7,177.9z
			 M124.6,177.9c0,1.6,0.6,2.4,1.8,2.4c1.2,0,1.8-0.8,1.8-2.4c0-1.6-0.6-2.4-1.8-2.4c-0.6,0-1.1,0.2-1.4,0.6
			S124.6,177.1,124.6,177.9z"/>
		<path fill="#0A5995" d="M137.3,181.4h-1.5v-4.3c0-0.5-0.1-0.9-0.3-1.2c-0.2-0.3-0.6-0.4-1-0.4c-0.6,0-1.1,0.2-1.4,0.6
			s-0.4,1-0.4,1.9v3.5h-1.5v-7h1.2l0.2,0.9h0.1c0.2-0.3,0.5-0.6,0.9-0.8c0.4-0.2,0.8-0.3,1.3-0.3c1.7,0,2.5,0.9,2.5,2.6V181.4z"/>
		<path fill="#0A5995" d="M143.7,179.4c0,0.7-0.2,1.2-0.7,1.6c-0.5,0.4-1.2,0.5-2.1,0.5c-0.9,0-1.7-0.1-2.3-0.4v-1.3
			c0.8,0.4,1.6,0.6,2.3,0.6c0.9,0,1.4-0.3,1.4-0.8c0-0.2-0.1-0.3-0.2-0.4c-0.1-0.1-0.3-0.2-0.5-0.4c-0.2-0.1-0.6-0.3-1-0.4
			c-0.8-0.3-1.4-0.6-1.6-0.9c-0.3-0.3-0.4-0.7-0.4-1.2c0-0.6,0.2-1.1,0.7-1.4s1.1-0.5,2-0.5c0.8,0,1.6,0.2,2.3,0.5l-0.5,1.1
			c-0.8-0.3-1.4-0.5-1.9-0.5c-0.8,0-1.2,0.2-1.2,0.7c0,0.2,0.1,0.4,0.3,0.6s0.7,0.4,1.3,0.6c0.6,0.2,1,0.4,1.3,0.6
			c0.3,0.2,0.5,0.4,0.6,0.6S143.7,179,143.7,179.4z"/>
		<path fill="#0A5995" d="M148.1,181.5c-1.1,0-1.9-0.3-2.6-1c-0.6-0.6-0.9-1.5-0.9-2.6c0-1.1,0.3-2,0.9-2.7c0.6-0.7,1.4-1,2.4-1
			c0.9,0,1.7,0.3,2.2,0.8c0.5,0.6,0.8,1.3,0.8,2.3v0.8h-4.7c0,0.7,0.2,1.2,0.6,1.6c0.3,0.4,0.8,0.5,1.5,0.5c0.4,0,0.8,0,1.2-0.1
			s0.7-0.2,1.2-0.4v1.2c-0.4,0.2-0.7,0.3-1.1,0.4C149,181.5,148.6,181.5,148.1,181.5z M147.8,175.4c-0.5,0-0.9,0.2-1.1,0.5
			c-0.3,0.3-0.5,0.7-0.5,1.3h3.2c0-0.6-0.1-1-0.4-1.3C148.7,175.5,148.3,175.4,147.8,175.4z"/>
		<path fill="#0A5995" d="M155,181.5c-1.1,0-1.9-0.3-2.4-0.9c-0.6-0.6-0.8-1.5-0.8-2.7c0-1.2,0.3-2.1,0.9-2.7c0.6-0.6,1.4-1,2.5-1
			c0.7,0,1.4,0.1,2,0.4l-0.5,1.2c-0.6-0.2-1.2-0.4-1.6-0.4c-1.2,0-1.8,0.8-1.8,2.4c0,0.8,0.2,1.4,0.5,1.8c0.3,0.4,0.7,0.6,1.3,0.6
			c0.7,0,1.3-0.2,1.9-0.5v1.3c-0.3,0.2-0.6,0.3-0.9,0.3C155.8,181.5,155.5,181.5,155,181.5z"/>
		<path fill="#0A5995" d="M160.9,180.3c0.4,0,0.7-0.1,1.1-0.2v1.1c-0.2,0.1-0.4,0.1-0.6,0.2c-0.3,0-0.5,0.1-0.8,0.1
			c-1.4,0-2.1-0.7-2.1-2.2v-3.8h-1v-0.7l1-0.5l0.5-1.5h0.9v1.6h2v1.1h-2v3.8c0,0.4,0.1,0.6,0.3,0.8
			C160.4,180.2,160.6,180.3,160.9,180.3z"/>
		<path fill="#0A5995" d="M166.2,181.5c-1.1,0-1.9-0.3-2.6-1c-0.6-0.6-0.9-1.5-0.9-2.6c0-1.1,0.3-2,0.9-2.7c0.6-0.7,1.4-1,2.4-1
			c0.9,0,1.7,0.3,2.2,0.8c0.5,0.6,0.8,1.3,0.8,2.3v0.8h-4.7c0,0.7,0.2,1.2,0.6,1.6c0.3,0.4,0.8,0.5,1.5,0.5c0.4,0,0.8,0,1.2-0.1
			s0.7-0.2,1.2-0.4v1.2c-0.4,0.2-0.7,0.3-1.1,0.4C167.1,181.5,166.6,181.5,166.2,181.5z M165.9,175.4c-0.5,0-0.9,0.2-1.1,0.5
			c-0.3,0.3-0.5,0.7-0.5,1.3h3.2c0-0.6-0.1-1-0.4-1.3C166.7,175.5,166.4,175.4,165.9,175.4z"/>
		<path fill="#0A5995" d="M172.9,180.3c0.4,0,0.7-0.1,1.1-0.2v1.1c-0.2,0.1-0.4,0.1-0.6,0.2c-0.3,0-0.5,0.1-0.8,0.1
			c-1.4,0-2.1-0.7-2.1-2.2v-3.8h-1v-0.7l1-0.5l0.5-1.5h0.9v1.6h2v1.1h-2v3.8c0,0.4,0.1,0.6,0.3,0.8
			C172.3,180.2,172.6,180.3,172.9,180.3z"/>
		<path fill="#0A5995" d="M180,181.4l-0.2-0.9h-0.1c-0.2,0.3-0.5,0.6-0.9,0.8c-0.4,0.2-0.8,0.3-1.3,0.3c-0.9,0-1.5-0.2-1.9-0.6
			s-0.6-1.1-0.6-1.9v-4.6h1.5v4.3c0,0.5,0.1,0.9,0.3,1.2c0.2,0.3,0.6,0.4,1,0.4c0.6,0,1.1-0.2,1.4-0.6c0.3-0.4,0.4-1,0.4-1.9v-3.5
			h1.5v7H180z"/>
		<path fill="#0A5995" d="M186.5,174.2c0.3,0,0.5,0,0.7,0.1l-0.1,1.4c-0.2-0.1-0.4-0.1-0.7-0.1c-0.6,0-1.1,0.2-1.5,0.6
			c-0.4,0.4-0.6,0.9-0.6,1.5v3.7H183v-7h1.2l0.2,1.2h0.1c0.2-0.4,0.5-0.8,0.9-1C185.7,174.3,186.1,174.2,186.5,174.2z"/>
		<path fill="#0A5995" d="M188,180.6c0-0.3,0.1-0.5,0.2-0.7c0.2-0.2,0.4-0.2,0.7-0.2c0.3,0,0.5,0.1,0.7,0.3c0.2,0.2,0.2,0.4,0.2,0.7
			c0,0.3-0.1,0.5-0.2,0.7s-0.4,0.3-0.7,0.3s-0.5-0.1-0.7-0.3C188.1,181.1,188,180.9,188,180.6z"/>
		<path fill="#0A5995" d="M198.7,181.4l-2.7-7.8H196c0.1,1.2,0.1,2.2,0.1,3.2v4.5h-1.4v-9.3h2.1l2.6,7.4h0l2.7-7.4h2.1v9.3h-1.5
			v-4.6c0-0.5,0-1.1,0-1.8c0-0.7,0-1.2,0.1-1.3h-0.1l-2.8,7.7H198.7z"/>
		<path fill="#0A5995" d="M210.6,181.4l-0.3-1h-0.1c-0.3,0.4-0.7,0.7-1,0.9s-0.8,0.2-1.3,0.2c-0.7,0-1.2-0.2-1.6-0.6
			c-0.4-0.4-0.6-0.9-0.6-1.6c0-0.7,0.3-1.3,0.8-1.6c0.5-0.4,1.4-0.6,2.5-0.6l1.2,0v-0.4c0-0.4-0.1-0.8-0.3-1c-0.2-0.2-0.5-0.3-1-0.3
			c-0.4,0-0.7,0.1-1,0.2c-0.3,0.1-0.6,0.2-1,0.4l-0.5-1.1c0.4-0.2,0.8-0.4,1.3-0.5c0.5-0.1,0.9-0.2,1.3-0.2c0.9,0,1.6,0.2,2,0.6
			s0.7,1,0.7,1.8v4.7H210.6z M208.4,180.4c0.5,0,1-0.2,1.3-0.5c0.3-0.3,0.5-0.7,0.5-1.3V178l-0.9,0c-0.7,0-1.2,0.1-1.5,0.4
			c-0.3,0.2-0.5,0.5-0.5,1c0,0.3,0.1,0.6,0.3,0.7C207.7,180.3,208,180.4,208.4,180.4z"/>
		<path fill="#0A5995" d="M218.4,181.4l-0.2-0.9h-0.1c-0.2,0.3-0.5,0.6-0.9,0.8c-0.4,0.2-0.8,0.3-1.3,0.3c-0.9,0-1.5-0.2-1.9-0.6
			s-0.6-1.1-0.6-1.9v-4.6h1.5v4.3c0,0.5,0.1,0.9,0.3,1.2c0.2,0.3,0.6,0.4,1,0.4c0.6,0,1.1-0.2,1.4-0.6c0.3-0.4,0.4-1,0.4-1.9v-3.5
			h1.5v7H218.4z"/>
		<path fill="#0A5995" d="M224.9,174.2c0.3,0,0.5,0,0.7,0.1l-0.1,1.4c-0.2-0.1-0.4-0.1-0.7-0.1c-0.6,0-1.1,0.2-1.5,0.6
			c-0.4,0.4-0.6,0.9-0.6,1.5v3.7h-1.5v-7h1.2l0.2,1.2h0.1c0.2-0.4,0.5-0.8,0.9-1C224.1,174.3,224.5,174.2,224.9,174.2z"/>
		<path fill="#0A5995" d="M226.6,172.5c0-0.3,0.1-0.5,0.2-0.6c0.1-0.1,0.4-0.2,0.6-0.2c0.3,0,0.5,0.1,0.6,0.2
			c0.1,0.1,0.2,0.3,0.2,0.6c0,0.3-0.1,0.5-0.2,0.6c-0.1,0.1-0.4,0.2-0.6,0.2c-0.3,0-0.5-0.1-0.6-0.2
			C226.6,172.9,226.6,172.7,226.6,172.5z M228.1,181.4h-1.5v-7h1.5V181.4z"/>
		<path fill="#0A5995" d="M234.7,179.4c0,0.7-0.2,1.2-0.7,1.6c-0.5,0.4-1.2,0.5-2.1,0.5c-0.9,0-1.7-0.1-2.3-0.4v-1.3
			c0.8,0.4,1.6,0.6,2.3,0.6c0.9,0,1.4-0.3,1.4-0.8c0-0.2-0.1-0.3-0.2-0.4c-0.1-0.1-0.3-0.2-0.5-0.4c-0.2-0.1-0.6-0.3-1-0.4
			c-0.8-0.3-1.4-0.6-1.6-0.9c-0.3-0.3-0.4-0.7-0.4-1.2c0-0.6,0.2-1.1,0.7-1.4c0.5-0.3,1.1-0.5,2-0.5c0.8,0,1.6,0.2,2.3,0.5l-0.5,1.1
			c-0.8-0.3-1.4-0.5-1.9-0.5c-0.8,0-1.2,0.2-1.2,0.7c0,0.2,0.1,0.4,0.3,0.6c0.2,0.2,0.7,0.4,1.3,0.6c0.6,0.2,1,0.4,1.3,0.6
			c0.3,0.2,0.5,0.4,0.6,0.6S234.7,179,234.7,179.4z"/>
		<path fill="#0A5995" d="M240.6,181.4l-2.7-7h1.6l1.4,4.1c0.2,0.7,0.4,1.2,0.4,1.7h0.1c0-0.3,0.2-0.9,0.4-1.7l1.4-4.1h1.6l-2.7,7
			H240.6z"/>
		<path fill="#0A5995" d="M248.7,181.5c-1.1,0-1.9-0.3-2.6-1c-0.6-0.6-0.9-1.5-0.9-2.6c0-1.1,0.3-2,0.9-2.7c0.6-0.7,1.4-1,2.4-1
			c0.9,0,1.7,0.3,2.2,0.8c0.5,0.6,0.8,1.3,0.8,2.3v0.8h-4.7c0,0.7,0.2,1.2,0.6,1.6c0.3,0.4,0.8,0.5,1.5,0.5c0.4,0,0.8,0,1.2-0.1
			c0.4-0.1,0.7-0.2,1.2-0.4v1.2c-0.4,0.2-0.7,0.3-1.1,0.4C249.6,181.5,249.2,181.5,248.7,181.5z M248.4,175.4
			c-0.5,0-0.9,0.2-1.1,0.5c-0.3,0.3-0.5,0.7-0.5,1.3h3.2c0-0.6-0.1-1-0.4-1.3C249.3,175.5,248.9,175.4,248.4,175.4z"/>
		<path fill="#0A5995" d="M259,181.4h-1.5v-4.3c0-0.5-0.1-0.9-0.3-1.2c-0.2-0.3-0.6-0.4-1-0.4c-0.6,0-1.1,0.2-1.4,0.6
			s-0.4,1-0.4,1.9v3.5h-1.5v-7h1.2l0.2,0.9h0.1c0.2-0.3,0.5-0.6,0.9-0.8c0.4-0.2,0.8-0.3,1.3-0.3c1.7,0,2.5,0.9,2.5,2.6V181.4z"/>
		<path fill="#0A5995" d="M263.8,181.5c-1.1,0-1.9-0.3-2.6-1c-0.6-0.6-0.9-1.5-0.9-2.6c0-1.1,0.3-2,0.9-2.7c0.6-0.7,1.4-1,2.4-1
			c0.9,0,1.7,0.3,2.2,0.8c0.5,0.6,0.8,1.3,0.8,2.3v0.8h-4.7c0,0.7,0.2,1.2,0.6,1.6c0.3,0.4,0.8,0.5,1.5,0.5c0.4,0,0.8,0,1.2-0.1
			s0.7-0.2,1.2-0.4v1.2c-0.4,0.2-0.7,0.3-1.1,0.4C264.7,181.5,264.3,181.5,263.8,181.5z M263.5,175.4c-0.5,0-0.9,0.2-1.1,0.5
			c-0.3,0.3-0.5,0.7-0.5,1.3h3.2c0-0.6-0.1-1-0.4-1.3C264.4,175.5,264,175.4,263.5,175.4z"/>
		<path fill="#0A5995" d="M274.1,181.4h-1.5v-4.3c0-0.5-0.1-0.9-0.3-1.2c-0.2-0.3-0.6-0.4-1-0.4c-0.6,0-1.1,0.2-1.4,0.6
			s-0.4,1-0.4,1.9v3.5h-1.5v-7h1.2l0.2,0.9h0.1c0.2-0.3,0.5-0.6,0.9-0.8c0.4-0.2,0.8-0.3,1.3-0.3c1.7,0,2.5,0.9,2.5,2.6V181.4z"/>
		<path fill="#0A5995" d="M280.2,181.4l-0.3-1h-0.1c-0.3,0.4-0.7,0.7-1,0.9s-0.8,0.2-1.3,0.2c-0.7,0-1.2-0.2-1.6-0.6
			c-0.4-0.4-0.6-0.9-0.6-1.6c0-0.7,0.3-1.3,0.8-1.6c0.5-0.4,1.4-0.6,2.5-0.6l1.2,0v-0.4c0-0.4-0.1-0.8-0.3-1c-0.2-0.2-0.5-0.3-1-0.3
			c-0.4,0-0.7,0.1-1,0.2c-0.3,0.1-0.6,0.2-1,0.4l-0.5-1.1c0.4-0.2,0.8-0.4,1.2-0.5c0.5-0.1,0.9-0.2,1.3-0.2c0.9,0,1.6,0.2,2,0.6
			c0.5,0.4,0.7,1,0.7,1.8v4.7H280.2z M278,180.4c0.5,0,1-0.2,1.3-0.5s0.5-0.7,0.5-1.3V178l-0.9,0c-0.7,0-1.2,0.1-1.5,0.4
			c-0.3,0.2-0.5,0.5-0.5,1c0,0.3,0.1,0.6,0.3,0.7C277.3,180.3,277.6,180.4,278,180.4z"/>
		<path fill="#0A5995" d="M285.6,180.3c0.4,0,0.7-0.1,1.1-0.2v1.1c-0.2,0.1-0.4,0.1-0.6,0.2c-0.3,0-0.5,0.1-0.8,0.1
			c-1.4,0-2.1-0.7-2.1-2.2v-3.8h-1v-0.7l1-0.5l0.5-1.5h0.9v1.6h2v1.1h-2v3.8c0,0.4,0.1,0.6,0.3,0.8
			C285.1,180.2,285.4,180.3,285.6,180.3z"/>
		<path fill="#0A5995" d="M287.7,172.5c0-0.3,0.1-0.5,0.2-0.6c0.1-0.1,0.4-0.2,0.6-0.2c0.3,0,0.5,0.1,0.6,0.2
			c0.1,0.1,0.2,0.3,0.2,0.6c0,0.3-0.1,0.5-0.2,0.6c-0.1,0.1-0.4,0.2-0.6,0.2c-0.3,0-0.5-0.1-0.6-0.2
			C287.8,172.9,287.7,172.7,287.7,172.5z M289.3,181.4h-1.5v-7h1.5V181.4z"/>
		<path fill="#0A5995" d="M295.8,179.4c0,0.7-0.2,1.2-0.7,1.6c-0.5,0.4-1.2,0.5-2.1,0.5c-0.9,0-1.7-0.1-2.3-0.4v-1.3
			c0.8,0.4,1.6,0.6,2.3,0.6c0.9,0,1.4-0.3,1.4-0.8c0-0.2-0.1-0.3-0.2-0.4c-0.1-0.1-0.3-0.2-0.5-0.4c-0.2-0.1-0.6-0.3-1-0.4
			c-0.8-0.3-1.4-0.6-1.6-0.9c-0.3-0.3-0.4-0.7-0.4-1.2c0-0.6,0.2-1.1,0.7-1.4s1.1-0.5,2-0.5c0.8,0,1.6,0.2,2.3,0.5l-0.5,1.1
			c-0.8-0.3-1.4-0.5-1.9-0.5c-0.8,0-1.2,0.2-1.2,0.7c0,0.2,0.1,0.4,0.3,0.6s0.7,0.4,1.3,0.6c0.6,0.2,1,0.4,1.3,0.6
			c0.3,0.2,0.5,0.4,0.6,0.6S295.8,179,295.8,179.4z"/>
		<path fill="#0A5995" d="M32.9,199.4l-2.7-7h1.6l1.4,4.1c0.2,0.7,0.4,1.2,0.4,1.7h0.1c0-0.3,0.2-0.9,0.4-1.7l1.4-4.1h1.6l-2.7,7
			H32.9z"/>
		<path fill="#0A5995" d="M37.8,190.5c0-0.3,0.1-0.5,0.2-0.6c0.1-0.1,0.4-0.2,0.6-0.2c0.3,0,0.5,0.1,0.6,0.2
			c0.1,0.1,0.2,0.3,0.2,0.6c0,0.3-0.1,0.5-0.2,0.6c-0.1,0.1-0.4,0.2-0.6,0.2c-0.3,0-0.5-0.1-0.6-0.2
			C37.9,190.9,37.8,190.7,37.8,190.5z M39.4,199.4h-1.5v-7h1.5V199.4z"/>
		<path fill="#0A5995" d="M43.8,198.3c0.4,0,0.7-0.1,1.1-0.2v1.1c-0.2,0.1-0.4,0.1-0.6,0.2c-0.3,0-0.5,0.1-0.8,0.1
			c-1.4,0-2.1-0.7-2.1-2.2v-3.8h-1v-0.7l1-0.5l0.5-1.5h0.9v1.6h2v1.1h-2v3.8c0,0.4,0.1,0.6,0.3,0.8
			C43.3,198.2,43.5,198.3,43.8,198.3z"/>
		<path fill="#0A5995" d="M50.4,199.4l-0.3-1H50c-0.3,0.4-0.7,0.7-1,0.9s-0.8,0.2-1.3,0.2c-0.7,0-1.2-0.2-1.6-0.6
			c-0.4-0.4-0.6-0.9-0.6-1.6c0-0.7,0.3-1.3,0.8-1.6c0.5-0.4,1.4-0.6,2.5-0.6l1.2,0v-0.4c0-0.4-0.1-0.8-0.3-1c-0.2-0.2-0.5-0.3-1-0.3
			c-0.4,0-0.7,0.1-1,0.2c-0.3,0.1-0.6,0.2-1,0.4l-0.5-1.1c0.4-0.2,0.8-0.4,1.2-0.5c0.5-0.1,0.9-0.2,1.3-0.2c0.9,0,1.6,0.2,2,0.6
			c0.5,0.4,0.7,1,0.7,1.8v4.7H50.4z M48.2,198.4c0.5,0,1-0.2,1.3-0.5s0.5-0.7,0.5-1.3V196l-0.9,0c-0.7,0-1.2,0.1-1.5,0.4
			c-0.3,0.2-0.5,0.5-0.5,1c0,0.3,0.1,0.6,0.3,0.7C47.5,198.3,47.8,198.4,48.2,198.4z"/>
		<path fill="#0A5995" d="M56.3,199.5c-1.1,0-1.9-0.3-2.6-1c-0.6-0.6-0.9-1.5-0.9-2.6c0-1.1,0.3-2,0.9-2.7c0.6-0.7,1.4-1,2.4-1
			c0.9,0,1.7,0.3,2.2,0.8c0.5,0.6,0.8,1.3,0.8,2.3v0.8h-4.7c0,0.7,0.2,1.2,0.6,1.6c0.3,0.4,0.8,0.5,1.5,0.5c0.4,0,0.8,0,1.2-0.1
			s0.7-0.2,1.2-0.4v1.2c-0.4,0.2-0.7,0.3-1.1,0.4C57.2,199.5,56.7,199.5,56.3,199.5z M56,193.4c-0.5,0-0.9,0.2-1.1,0.5
			c-0.3,0.3-0.5,0.7-0.5,1.3h3.2c0-0.6-0.1-1-0.4-1.3C56.8,193.5,56.5,193.4,56,193.4z"/>
		<path fill="#0A5995" d="M69.6,199.4h-1.5v-4.3c0-0.5-0.1-0.9-0.3-1.2c-0.2-0.3-0.6-0.4-1-0.4c-0.6,0-1.1,0.2-1.4,0.6
			s-0.4,1-0.4,1.9v3.5h-1.5v-7h1.2l0.2,0.9h0.1c0.2-0.3,0.5-0.6,0.9-0.8c0.4-0.2,0.8-0.3,1.3-0.3c1.7,0,2.5,0.9,2.5,2.6V199.4z"/>
		<path fill="#0A5995" d="M76.3,199.4l-0.2-0.9H76c-0.2,0.3-0.5,0.6-0.9,0.8s-0.8,0.3-1.3,0.3c-0.9,0-1.5-0.2-1.9-0.6
			s-0.6-1.1-0.6-1.9v-4.6h1.5v4.3c0,0.5,0.1,0.9,0.3,1.2c0.2,0.3,0.6,0.4,1,0.4c0.6,0,1.1-0.2,1.4-0.6c0.3-0.4,0.4-1,0.4-1.9v-3.5
			h1.5v7H76.3z"/>
		<path fill="#0A5995" d="M80.8,199.4h-1.5v-9.9h1.5V199.4z"/>
		<path fill="#0A5995" d="M84.1,199.4h-1.5v-9.9h1.5V199.4z"/>
		<path fill="#0A5995" d="M90.3,199.4l-0.3-1h-0.1c-0.3,0.4-0.7,0.7-1,0.9s-0.8,0.2-1.3,0.2c-0.7,0-1.2-0.2-1.6-0.6
			c-0.4-0.4-0.6-0.9-0.6-1.6c0-0.7,0.3-1.3,0.8-1.6c0.5-0.4,1.4-0.6,2.5-0.6l1.2,0v-0.4c0-0.4-0.1-0.8-0.3-1c-0.2-0.2-0.5-0.3-1-0.3
			c-0.4,0-0.7,0.1-1,0.2c-0.3,0.1-0.6,0.2-1,0.4l-0.5-1.1c0.4-0.2,0.8-0.4,1.3-0.5c0.5-0.1,0.9-0.2,1.3-0.2c0.9,0,1.6,0.2,2,0.6
			s0.7,1,0.7,1.8v4.7H90.3z M88,198.4c0.5,0,1-0.2,1.3-0.5c0.3-0.3,0.5-0.7,0.5-1.3V196l-0.9,0c-0.7,0-1.2,0.1-1.5,0.4
			c-0.3,0.2-0.5,0.5-0.5,1c0,0.3,0.1,0.6,0.3,0.7C87.4,198.3,87.7,198.4,88,198.4z"/>
		<path fill="#0A5995" d="M100.5,199.4l-0.3-1h-0.1c-0.3,0.4-0.7,0.7-1,0.9s-0.8,0.2-1.3,0.2c-0.7,0-1.2-0.2-1.6-0.6
			c-0.4-0.4-0.6-0.9-0.6-1.6c0-0.7,0.3-1.3,0.8-1.6c0.5-0.4,1.4-0.6,2.5-0.6l1.2,0v-0.4c0-0.4-0.1-0.8-0.3-1c-0.2-0.2-0.5-0.3-1-0.3
			c-0.4,0-0.7,0.1-1,0.2c-0.3,0.1-0.6,0.2-1,0.4l-0.5-1.1c0.4-0.2,0.8-0.4,1.2-0.5c0.5-0.1,0.9-0.2,1.3-0.2c0.9,0,1.6,0.2,2,0.6
			c0.5,0.4,0.7,1,0.7,1.8v4.7H100.5z M98.3,198.4c0.5,0,1-0.2,1.3-0.5s0.5-0.7,0.5-1.3V196l-0.9,0c-0.7,0-1.2,0.1-1.5,0.4
			c-0.3,0.2-0.5,0.5-0.5,1c0,0.3,0.1,0.6,0.3,0.7C97.7,198.3,97.9,198.4,98.3,198.4z"/>
		<path fill="#0A5995" d="M106.2,199.5c-1.1,0-1.9-0.3-2.4-0.9c-0.6-0.6-0.8-1.5-0.8-2.7c0-1.2,0.3-2.1,0.9-2.7c0.6-0.6,1.4-1,2.5-1
			c0.7,0,1.4,0.1,2,0.4l-0.5,1.2c-0.6-0.2-1.2-0.4-1.6-0.4c-1.2,0-1.8,0.8-1.8,2.4c0,0.8,0.2,1.4,0.5,1.8s0.7,0.6,1.3,0.6
			c0.7,0,1.3-0.2,1.9-0.5v1.3c-0.3,0.2-0.6,0.3-0.9,0.3S106.6,199.5,106.2,199.5z"/>
		<path fill="#0A5995" d="M117.2,197.4c0,0.7-0.2,1.2-0.7,1.6c-0.5,0.4-1.2,0.5-2.1,0.5c-0.9,0-1.7-0.1-2.3-0.4v-1.3
			c0.8,0.4,1.6,0.6,2.3,0.6c0.9,0,1.4-0.3,1.4-0.8c0-0.2-0.1-0.3-0.2-0.4c-0.1-0.1-0.3-0.2-0.5-0.4c-0.2-0.1-0.6-0.3-1-0.4
			c-0.8-0.3-1.4-0.6-1.6-0.9c-0.3-0.3-0.4-0.7-0.4-1.2c0-0.6,0.2-1.1,0.7-1.4s1.1-0.5,2-0.5c0.8,0,1.6,0.2,2.3,0.5l-0.5,1.1
			c-0.8-0.3-1.4-0.5-1.9-0.5c-0.8,0-1.2,0.2-1.2,0.7c0,0.2,0.1,0.4,0.3,0.6s0.7,0.4,1.3,0.6c0.6,0.2,1,0.4,1.3,0.6
			c0.3,0.2,0.5,0.4,0.6,0.6S117.2,197,117.2,197.4z"/>
		<path fill="#0A5995" d="M124.8,195.9c0,1.1-0.3,2-0.9,2.7c-0.6,0.6-1.4,1-2.5,1c-0.7,0-1.2-0.1-1.7-0.4c-0.5-0.3-0.9-0.7-1.2-1.3
			c-0.3-0.6-0.4-1.2-0.4-1.9c0-1.1,0.3-2,0.9-2.7c0.6-0.6,1.4-1,2.5-1c1,0,1.8,0.3,2.4,1C124.5,193.9,124.8,194.7,124.8,195.9z
			 M119.6,195.9c0,1.6,0.6,2.4,1.8,2.4c1.2,0,1.8-0.8,1.8-2.4c0-1.6-0.6-2.4-1.8-2.4c-0.6,0-1.1,0.2-1.4,0.6
			C119.8,194.5,119.6,195.1,119.6,195.9z"/>
		<path fill="#0A5995" d="M127.6,199.4h-1.5v-9.9h1.5V199.4z"/>
		<path fill="#0A5995" d="M130.9,199.4h-1.5v-9.9h1.5V199.4z"/>
		<path fill="#0A5995" d="M132.7,190.5c0-0.3,0.1-0.5,0.2-0.6c0.1-0.1,0.4-0.2,0.6-0.2c0.3,0,0.5,0.1,0.6,0.2
			c0.1,0.1,0.2,0.3,0.2,0.6c0,0.3-0.1,0.5-0.2,0.6c-0.1,0.1-0.4,0.2-0.6,0.2c-0.3,0-0.5-0.1-0.6-0.2
			C132.7,190.9,132.7,190.7,132.7,190.5z M134.2,199.4h-1.5v-7h1.5V199.4z"/>
		<path fill="#0A5995" d="M138.9,199.5c-1.1,0-1.9-0.3-2.4-0.9c-0.6-0.6-0.8-1.5-0.8-2.7c0-1.2,0.3-2.1,0.9-2.7c0.6-0.6,1.4-1,2.5-1
			c0.7,0,1.4,0.1,2,0.4l-0.5,1.2c-0.6-0.2-1.2-0.4-1.6-0.4c-1.2,0-1.8,0.8-1.8,2.4c0,0.8,0.2,1.4,0.5,1.8s0.7,0.6,1.3,0.6
			c0.7,0,1.3-0.2,1.9-0.5v1.3c-0.3,0.2-0.6,0.3-0.9,0.3S139.3,199.5,138.9,199.5z"/>
		<path fill="#0A5995" d="M142.1,190.5c0-0.3,0.1-0.5,0.2-0.6c0.1-0.1,0.4-0.2,0.6-0.2c0.3,0,0.5,0.1,0.6,0.2
			c0.1,0.1,0.2,0.3,0.2,0.6c0,0.3-0.1,0.5-0.2,0.6c-0.1,0.1-0.4,0.2-0.6,0.2c-0.3,0-0.5-0.1-0.6-0.2
			C142.1,190.9,142.1,190.7,142.1,190.5z M143.6,199.4h-1.5v-7h1.5V199.4z"/>
		<path fill="#0A5995" d="M148.1,198.3c0.4,0,0.7-0.1,1.1-0.2v1.1c-0.2,0.1-0.4,0.1-0.6,0.2c-0.3,0-0.5,0.1-0.8,0.1
			c-1.4,0-2.1-0.7-2.1-2.2v-3.8h-1v-0.7l1-0.5l0.5-1.5h0.9v1.6h2v1.1h-2v3.8c0,0.4,0.1,0.6,0.3,0.8
			C147.5,198.2,147.8,198.3,148.1,198.3z"/>
		<path fill="#0A5995" d="M155.2,199.4l-0.2-0.9h-0.1c-0.2,0.3-0.5,0.6-0.9,0.8c-0.4,0.2-0.8,0.3-1.3,0.3c-0.9,0-1.5-0.2-1.9-0.6
			s-0.6-1.1-0.6-1.9v-4.6h1.5v4.3c0,0.5,0.1,0.9,0.3,1.2c0.2,0.3,0.6,0.4,1,0.4c0.6,0,1.1-0.2,1.4-0.6c0.3-0.4,0.4-1,0.4-1.9v-3.5
			h1.5v7H155.2z"/>
		<path fill="#0A5995" d="M160.5,199.5c-0.9,0-1.6-0.3-2.1-1c-0.5-0.6-0.7-1.5-0.7-2.7c0-1.2,0.2-2,0.7-2.7c0.5-0.6,1.2-1,2.1-1
			c0.9,0,1.6,0.3,2.1,1h0.1c-0.1-0.5-0.1-0.9-0.1-1.2v-2.6h1.5v9.9H163l-0.3-0.9h-0.1C162.2,199.2,161.5,199.5,160.5,199.5z
			 M160.9,198.3c0.6,0,1.1-0.2,1.3-0.5s0.4-0.9,0.4-1.7v-0.2c0-0.9-0.1-1.5-0.4-1.9c-0.3-0.4-0.7-0.6-1.4-0.6
			c-0.5,0-0.9,0.2-1.2,0.6c-0.3,0.4-0.4,1-0.4,1.8c0,0.8,0.1,1.4,0.4,1.8C160,198.1,160.4,198.3,160.9,198.3z"/>
		<path fill="#0A5995" d="M165.8,190.5c0-0.3,0.1-0.5,0.2-0.6c0.1-0.1,0.4-0.2,0.6-0.2c0.3,0,0.5,0.1,0.6,0.2
			c0.1,0.1,0.2,0.3,0.2,0.6c0,0.3-0.1,0.5-0.2,0.6c-0.1,0.1-0.4,0.2-0.6,0.2c-0.3,0-0.5-0.1-0.6-0.2
			C165.9,190.9,165.8,190.7,165.8,190.5z M167.4,199.4h-1.5v-7h1.5V199.4z"/>
		<path fill="#0A5995" d="M175.4,199.4h-1.5v-4.3c0-0.5-0.1-0.9-0.3-1.2c-0.2-0.3-0.6-0.4-1-0.4c-0.6,0-1.1,0.2-1.4,0.6
			s-0.4,1-0.4,1.9v3.5h-1.5v-7h1.2l0.2,0.9h0.1c0.2-0.3,0.5-0.6,0.9-0.8c0.4-0.2,0.8-0.3,1.3-0.3c1.7,0,2.5,0.9,2.5,2.6V199.4z"/>
		<path fill="#0A5995" d="M176.9,198.6c0-0.3,0.1-0.5,0.2-0.7c0.2-0.2,0.4-0.2,0.7-0.2c0.3,0,0.5,0.1,0.7,0.3
			c0.2,0.2,0.2,0.4,0.2,0.7c0,0.3-0.1,0.5-0.2,0.7s-0.4,0.3-0.7,0.3s-0.5-0.1-0.7-0.3C177,199.1,176.9,198.9,176.9,198.6z"/>
		<path fill="#0A5995" d="M185.1,199.4h-1.5v-9.3h5.2v1.3h-3.7v2.9h3.5v1.3h-3.5V199.4z"/>
		<path fill="#0A5995" d="M195,199.4l-0.2-0.9h-0.1c-0.2,0.3-0.5,0.6-0.9,0.8s-0.8,0.3-1.3,0.3c-0.9,0-1.5-0.2-1.9-0.6
			s-0.6-1.1-0.6-1.9v-4.6h1.5v4.3c0,0.5,0.1,0.9,0.3,1.2c0.2,0.3,0.6,0.4,1,0.4c0.6,0,1.1-0.2,1.4-0.6c0.3-0.4,0.4-1,0.4-1.9v-3.5
			h1.5v7H195z"/>
		<path fill="#0A5995" d="M202.7,197.4c0,0.7-0.2,1.2-0.7,1.6c-0.5,0.4-1.2,0.5-2.1,0.5c-0.9,0-1.7-0.1-2.3-0.4v-1.3
			c0.8,0.4,1.6,0.6,2.3,0.6c0.9,0,1.4-0.3,1.4-0.8c0-0.2-0.1-0.3-0.2-0.4c-0.1-0.1-0.3-0.2-0.5-0.4c-0.2-0.1-0.6-0.3-1-0.4
			c-0.8-0.3-1.4-0.6-1.6-0.9c-0.3-0.3-0.4-0.7-0.4-1.2c0-0.6,0.2-1.1,0.7-1.4c0.5-0.3,1.1-0.5,2-0.5c0.8,0,1.6,0.2,2.3,0.5l-0.5,1.1
			c-0.8-0.3-1.4-0.5-1.9-0.5c-0.8,0-1.2,0.2-1.2,0.7c0,0.2,0.1,0.4,0.3,0.6c0.2,0.2,0.7,0.4,1.3,0.6c0.6,0.2,1,0.4,1.3,0.6
			c0.3,0.2,0.5,0.4,0.6,0.6S202.7,197,202.7,197.4z"/>
		<path fill="#0A5995" d="M206.8,199.5c-1.1,0-1.9-0.3-2.4-0.9c-0.6-0.6-0.8-1.5-0.8-2.7c0-1.2,0.3-2.1,0.9-2.7c0.6-0.6,1.4-1,2.5-1
			c0.7,0,1.4,0.1,2,0.4l-0.5,1.2c-0.6-0.2-1.2-0.4-1.6-0.4c-1.2,0-1.8,0.8-1.8,2.4c0,0.8,0.2,1.4,0.5,1.8s0.7,0.6,1.3,0.6
			c0.7,0,1.3-0.2,1.9-0.5v1.3c-0.3,0.2-0.6,0.3-0.9,0.3S207.2,199.5,206.8,199.5z"/>
		<path fill="#0A5995" d="M213.2,199.5c-1.1,0-1.9-0.3-2.6-1c-0.6-0.6-0.9-1.5-0.9-2.6c0-1.1,0.3-2,0.9-2.7c0.6-0.7,1.4-1,2.4-1
			c0.9,0,1.7,0.3,2.2,0.8c0.5,0.6,0.8,1.3,0.8,2.3v0.8h-4.7c0,0.7,0.2,1.2,0.6,1.6c0.3,0.4,0.8,0.5,1.5,0.5c0.4,0,0.8,0,1.2-0.1
			c0.4-0.1,0.7-0.2,1.2-0.4v1.2c-0.4,0.2-0.7,0.3-1.1,0.4C214.1,199.5,213.6,199.5,213.2,199.5z M212.9,193.4
			c-0.5,0-0.9,0.2-1.1,0.5c-0.3,0.3-0.5,0.7-0.5,1.3h3.2c0-0.6-0.1-1-0.4-1.3C213.7,193.5,213.4,193.4,212.9,193.4z"/>
		<path fill="#0A5995" d="M221.9,199.4l-2.7-7h1.6l1.4,4.1c0.2,0.7,0.4,1.2,0.4,1.7h0.1c0-0.3,0.2-0.9,0.4-1.7l1.4-4.1h1.6l-2.7,7
			H221.9z"/>
		<path fill="#0A5995" d="M226.9,190.5c0-0.3,0.1-0.5,0.2-0.6c0.1-0.1,0.4-0.2,0.6-0.2c0.3,0,0.5,0.1,0.6,0.2
			c0.1,0.1,0.2,0.3,0.2,0.6c0,0.3-0.1,0.5-0.2,0.6c-0.1,0.1-0.4,0.2-0.6,0.2c-0.3,0-0.5-0.1-0.6-0.2
			C226.9,190.9,226.9,190.7,226.9,190.5z M228.4,199.4h-1.5v-7h1.5V199.4z"/>
		<path fill="#0A5995" d="M232.9,198.3c0.4,0,0.7-0.1,1.1-0.2v1.1c-0.2,0.1-0.4,0.1-0.6,0.2c-0.3,0-0.5,0.1-0.8,0.1
			c-1.4,0-2.1-0.7-2.1-2.2v-3.8h-1v-0.7l1-0.5l0.5-1.5h0.9v1.6h2v1.1h-2v3.8c0,0.4,0.1,0.6,0.3,0.8
			C232.3,198.2,232.6,198.3,232.9,198.3z"/>
		<path fill="#0A5995" d="M239.4,199.4l-0.3-1h-0.1c-0.3,0.4-0.7,0.7-1,0.9s-0.8,0.2-1.3,0.2c-0.7,0-1.2-0.2-1.6-0.6
			c-0.4-0.4-0.6-0.9-0.6-1.6c0-0.7,0.3-1.3,0.8-1.6c0.5-0.4,1.4-0.6,2.5-0.6l1.2,0v-0.4c0-0.4-0.1-0.8-0.3-1c-0.2-0.2-0.5-0.3-1-0.3
			c-0.4,0-0.7,0.1-1,0.2c-0.3,0.1-0.6,0.2-1,0.4l-0.5-1.1c0.4-0.2,0.8-0.4,1.2-0.5c0.5-0.1,0.9-0.2,1.3-0.2c0.9,0,1.6,0.2,2,0.6
			c0.5,0.4,0.7,1,0.7,1.8v4.7H239.4z M237.2,198.4c0.5,0,1-0.2,1.3-0.5s0.5-0.7,0.5-1.3V196l-0.9,0c-0.7,0-1.2,0.1-1.5,0.4
			c-0.3,0.2-0.5,0.5-0.5,1c0,0.3,0.1,0.6,0.3,0.7C236.6,198.3,236.8,198.4,237.2,198.4z"/>
		<path fill="#0A5995" d="M245.3,199.5c-1.1,0-1.9-0.3-2.6-1c-0.6-0.6-0.9-1.5-0.9-2.6c0-1.1,0.3-2,0.9-2.7c0.6-0.7,1.4-1,2.4-1
			c0.9,0,1.7,0.3,2.2,0.8c0.5,0.6,0.8,1.3,0.8,2.3v0.8h-4.7c0,0.7,0.2,1.2,0.6,1.6c0.3,0.4,0.8,0.5,1.5,0.5c0.4,0,0.8,0,1.2-0.1
			s0.7-0.2,1.2-0.4v1.2c-0.4,0.2-0.7,0.3-1.1,0.4C246.2,199.5,245.8,199.5,245.3,199.5z M245,193.4c-0.5,0-0.9,0.2-1.1,0.5
			c-0.3,0.3-0.5,0.7-0.5,1.3h3.2c0-0.6-0.1-1-0.4-1.3C245.9,193.5,245.5,193.4,245,193.4z"/>
		<path fill="#0A5995" d="M256,193.5h-1.7v5.9h-1.5v-5.9h-1.2v-0.7l1.2-0.5v-0.5c0-0.8,0.2-1.4,0.6-1.8c0.4-0.4,1-0.6,1.8-0.6
			c0.5,0,1,0.1,1.5,0.3l-0.4,1.1c-0.4-0.1-0.7-0.2-1.1-0.2c-0.3,0-0.6,0.1-0.7,0.3c-0.2,0.2-0.2,0.5-0.2,0.9v0.5h1.7V193.5z"/>
		<path fill="#0A5995" d="M261.2,199.4l-0.3-1h-0.1c-0.3,0.4-0.7,0.7-1,0.9s-0.8,0.2-1.3,0.2c-0.7,0-1.2-0.2-1.6-0.6
			c-0.4-0.4-0.6-0.9-0.6-1.6c0-0.7,0.3-1.3,0.8-1.6c0.5-0.4,1.4-0.6,2.5-0.6l1.2,0v-0.4c0-0.4-0.1-0.8-0.3-1c-0.2-0.2-0.5-0.3-1-0.3
			c-0.4,0-0.7,0.1-1,0.2c-0.3,0.1-0.6,0.2-1,0.4l-0.5-1.1c0.4-0.2,0.8-0.4,1.3-0.5c0.5-0.1,0.9-0.2,1.3-0.2c0.9,0,1.6,0.2,2,0.6
			s0.7,1,0.7,1.8v4.7H261.2z M259,198.4c0.5,0,1-0.2,1.3-0.5c0.3-0.3,0.5-0.7,0.5-1.3V196l-0.9,0c-0.7,0-1.2,0.1-1.5,0.4
			c-0.3,0.2-0.5,0.5-0.5,1c0,0.3,0.1,0.6,0.3,0.7C258.4,198.3,258.7,198.4,259,198.4z"/>
		<path fill="#0A5995" d="M266.9,199.5c-1.1,0-1.9-0.3-2.4-0.9c-0.6-0.6-0.8-1.5-0.8-2.7c0-1.2,0.3-2.1,0.9-2.7c0.6-0.6,1.4-1,2.5-1
			c0.7,0,1.4,0.1,2,0.4l-0.5,1.2c-0.6-0.2-1.2-0.4-1.6-0.4c-1.2,0-1.8,0.8-1.8,2.4c0,0.8,0.2,1.4,0.5,1.8c0.3,0.4,0.7,0.6,1.3,0.6
			c0.7,0,1.3-0.2,1.9-0.5v1.3c-0.3,0.2-0.6,0.3-0.9,0.3C267.7,199.5,267.3,199.5,266.9,199.5z"/>
		<path fill="#0A5995" d="M270.1,190.5c0-0.3,0.1-0.5,0.2-0.6c0.1-0.1,0.4-0.2,0.6-0.2c0.3,0,0.5,0.1,0.6,0.2
			c0.1,0.1,0.2,0.3,0.2,0.6c0,0.3-0.1,0.5-0.2,0.6c-0.1,0.1-0.4,0.2-0.6,0.2c-0.3,0-0.5-0.1-0.6-0.2
			C270.2,190.9,270.1,190.7,270.1,190.5z M271.7,199.4h-1.5v-7h1.5V199.4z"/>
		<path fill="#0A5995" d="M275,199.4h-1.5v-9.9h1.5V199.4z"/>
		<path fill="#0A5995" d="M276.7,190.5c0-0.3,0.1-0.5,0.2-0.6c0.1-0.1,0.4-0.2,0.6-0.2c0.3,0,0.5,0.1,0.6,0.2
			c0.1,0.1,0.2,0.3,0.2,0.6c0,0.3-0.1,0.5-0.2,0.6c-0.1,0.1-0.4,0.2-0.6,0.2c-0.3,0-0.5-0.1-0.6-0.2
			C276.8,190.9,276.7,190.7,276.7,190.5z M278.3,199.4h-1.5v-7h1.5V199.4z"/>
		<path fill="#0A5995" d="M284.8,197.4c0,0.7-0.2,1.2-0.7,1.6c-0.5,0.4-1.2,0.5-2.1,0.5c-0.9,0-1.7-0.1-2.3-0.4v-1.3
			c0.8,0.4,1.6,0.6,2.3,0.6c0.9,0,1.4-0.3,1.4-0.8c0-0.2-0.1-0.3-0.2-0.4c-0.1-0.1-0.3-0.2-0.5-0.4c-0.2-0.1-0.6-0.3-1-0.4
			c-0.8-0.3-1.4-0.6-1.6-0.9c-0.3-0.3-0.4-0.7-0.4-1.2c0-0.6,0.2-1.1,0.7-1.4c0.5-0.3,1.1-0.5,2-0.5c0.8,0,1.6,0.2,2.3,0.5l-0.5,1.1
			c-0.8-0.3-1.4-0.5-1.9-0.5c-0.8,0-1.2,0.2-1.2,0.7c0,0.2,0.1,0.4,0.3,0.6c0.2,0.2,0.7,0.4,1.3,0.6c0.6,0.2,1,0.4,1.3,0.6
			c0.3,0.2,0.5,0.4,0.6,0.6S284.8,197,284.8,197.4z"/>
		<path fill="#0A5995" d="M286,190.5c0-0.3,0.1-0.5,0.2-0.6c0.1-0.1,0.4-0.2,0.6-0.2c0.3,0,0.5,0.1,0.6,0.2c0.1,0.1,0.2,0.3,0.2,0.6
			c0,0.3-0.1,0.5-0.2,0.6c-0.1,0.1-0.4,0.2-0.6,0.2c-0.3,0-0.5-0.1-0.6-0.2C286.1,190.9,286,190.7,286,190.5z M287.6,199.4h-1.5v-7
			h1.5V199.4z"/>
		<path fill="#0A5995" d="M294.1,197.4c0,0.7-0.2,1.2-0.7,1.6c-0.5,0.4-1.2,0.5-2.1,0.5c-0.9,0-1.7-0.1-2.3-0.4v-1.3
			c0.8,0.4,1.6,0.6,2.3,0.6c0.9,0,1.4-0.3,1.4-0.8c0-0.2-0.1-0.3-0.2-0.4c-0.1-0.1-0.3-0.2-0.5-0.4c-0.2-0.1-0.6-0.3-1-0.4
			c-0.8-0.3-1.4-0.6-1.6-0.9c-0.3-0.3-0.4-0.7-0.4-1.2c0-0.6,0.2-1.1,0.7-1.4s1.1-0.5,2-0.5c0.8,0,1.6,0.2,2.3,0.5l-0.5,1.1
			c-0.8-0.3-1.4-0.5-1.9-0.5c-0.8,0-1.2,0.2-1.2,0.7c0,0.2,0.1,0.4,0.3,0.6s0.7,0.4,1.3,0.6c0.6,0.2,1,0.4,1.3,0.6
			c0.3,0.2,0.5,0.4,0.6,0.6S294.1,197,294.1,197.4z"/>
		<path fill="#0A5995" d="M32.8,217.4h-1.5v-9.9h1.5V217.4z"/>
		<path fill="#0A5995" d="M37.6,217.5c-1.1,0-1.9-0.3-2.6-1c-0.6-0.6-0.9-1.5-0.9-2.6c0-1.1,0.3-2,0.9-2.7c0.6-0.7,1.4-1,2.4-1
			c0.9,0,1.7,0.3,2.2,0.8c0.5,0.6,0.8,1.3,0.8,2.3v0.8h-4.7c0,0.7,0.2,1.2,0.6,1.6c0.3,0.4,0.8,0.5,1.5,0.5c0.4,0,0.8,0,1.2-0.1
			c0.4-0.1,0.7-0.2,1.2-0.4v1.2c-0.4,0.2-0.7,0.3-1.1,0.4C38.5,217.5,38.1,217.5,37.6,217.5z M37.4,211.4c-0.5,0-0.9,0.2-1.1,0.5
			c-0.3,0.3-0.5,0.7-0.5,1.3h3.2c0-0.6-0.1-1-0.4-1.3C38.2,211.5,37.8,211.4,37.4,211.4z"/>
		<path fill="#0A5995" d="M48,213.9c0,1.1-0.3,2-0.9,2.7c-0.6,0.6-1.4,1-2.5,1c-0.7,0-1.2-0.1-1.7-0.4c-0.5-0.3-0.9-0.7-1.2-1.3
			c-0.3-0.6-0.4-1.2-0.4-1.9c0-1.1,0.3-2,0.9-2.7c0.6-0.6,1.4-1,2.5-1c1,0,1.8,0.3,2.4,1C47.7,211.9,48,212.7,48,213.9z M42.9,213.9
			c0,1.6,0.6,2.4,1.8,2.4c1.2,0,1.8-0.8,1.8-2.4c0-1.6-0.6-2.4-1.8-2.4c-0.6,0-1.1,0.2-1.4,0.6S42.9,213.1,42.9,213.9z"/>
		<path fill="#0A5995" d="M50.9,216c-0.2,0.8-0.6,1.8-1.1,3h-1.1c0.3-1.1,0.5-2.2,0.7-3.2h1.5L50.9,216z"/>
		<path fill="#0A5995" d="M61.7,217.4h-1.5v-4.3c0-0.5-0.1-0.9-0.3-1.2c-0.2-0.3-0.6-0.4-1-0.4c-0.6,0-1.1,0.2-1.4,0.6
			s-0.4,1-0.4,1.9v3.5h-1.5v-7h1.2l0.2,0.9H57c0.2-0.3,0.5-0.6,0.9-0.8c0.4-0.2,0.8-0.3,1.3-0.3c1.7,0,2.5,0.9,2.5,2.6V217.4z"/>
		<path fill="#0A5995" d="M69.7,213.9c0,1.1-0.3,2-0.9,2.7c-0.6,0.6-1.4,1-2.5,1c-0.7,0-1.2-0.1-1.7-0.4c-0.5-0.3-0.9-0.7-1.2-1.3
			c-0.3-0.6-0.4-1.2-0.4-1.9c0-1.1,0.3-2,0.9-2.7c0.6-0.6,1.4-1,2.5-1c1,0,1.8,0.3,2.4,1C69.4,211.9,69.7,212.7,69.7,213.9z
			 M64.6,213.9c0,1.6,0.6,2.4,1.8,2.4c1.2,0,1.8-0.8,1.8-2.4c0-1.6-0.6-2.4-1.8-2.4c-0.6,0-1.1,0.2-1.4,0.6
			C64.7,212.5,64.6,213.1,64.6,213.9z"/>
		<path fill="#0A5995" d="M77.3,217.4h-1.5v-4.3c0-0.5-0.1-0.9-0.3-1.2c-0.2-0.3-0.6-0.4-1-0.4c-0.6,0-1.1,0.2-1.4,0.6
			s-0.4,1-0.4,1.9v3.5h-1.5v-7h1.2l0.2,0.9h0.1c0.2-0.3,0.5-0.6,0.9-0.8c0.4-0.2,0.8-0.3,1.3-0.3c1.7,0,2.5,0.9,2.5,2.6V217.4z"/>
		<path fill="#0A5995" d="M86.8,215.4c0,0.7-0.2,1.2-0.7,1.6c-0.5,0.4-1.2,0.5-2.1,0.5c-0.9,0-1.7-0.1-2.3-0.4v-1.3
			c0.8,0.4,1.6,0.6,2.3,0.6c0.9,0,1.4-0.3,1.4-0.8c0-0.2-0.1-0.3-0.2-0.4c-0.1-0.1-0.3-0.2-0.5-0.4c-0.2-0.1-0.6-0.3-1-0.4
			c-0.8-0.3-1.4-0.6-1.6-0.9c-0.3-0.3-0.4-0.7-0.4-1.2c0-0.6,0.2-1.1,0.7-1.4s1.1-0.5,2-0.5c0.8,0,1.6,0.2,2.3,0.5l-0.5,1.1
			c-0.8-0.3-1.4-0.5-1.9-0.5c-0.8,0-1.2,0.2-1.2,0.7c0,0.2,0.1,0.4,0.3,0.6s0.7,0.4,1.3,0.6c0.6,0.2,1,0.4,1.3,0.6
			c0.3,0.2,0.5,0.4,0.6,0.6S86.8,215,86.8,215.4z"/>
		<path fill="#0A5995" d="M93,217.4l-0.2-0.9h-0.1c-0.2,0.3-0.5,0.6-0.9,0.8s-0.8,0.3-1.3,0.3c-0.9,0-1.5-0.2-1.9-0.6
			s-0.6-1.1-0.6-1.9v-4.6h1.5v4.3c0,0.5,0.1,0.9,0.3,1.2c0.2,0.3,0.6,0.4,1,0.4c0.6,0,1.1-0.2,1.4-0.6c0.3-0.4,0.4-1,0.4-1.9v-3.5
			h1.5v7H93z"/>
		<path fill="#0A5995" d="M100.7,215.4c0,0.7-0.2,1.2-0.7,1.6c-0.5,0.4-1.2,0.5-2.1,0.5c-0.9,0-1.7-0.1-2.3-0.4v-1.3
			c0.8,0.4,1.6,0.6,2.3,0.6c0.9,0,1.4-0.3,1.4-0.8c0-0.2-0.1-0.3-0.2-0.4c-0.1-0.1-0.3-0.2-0.5-0.4c-0.2-0.1-0.6-0.3-1-0.4
			c-0.8-0.3-1.4-0.6-1.6-0.9c-0.3-0.3-0.4-0.7-0.4-1.2c0-0.6,0.2-1.1,0.7-1.4c0.5-0.3,1.1-0.5,2-0.5c0.8,0,1.6,0.2,2.3,0.5l-0.5,1.1
			c-0.8-0.3-1.4-0.5-1.9-0.5c-0.8,0-1.2,0.2-1.2,0.7c0,0.2,0.1,0.4,0.3,0.6c0.2,0.2,0.7,0.4,1.3,0.6c0.6,0.2,1,0.4,1.3,0.6
			c0.3,0.2,0.5,0.4,0.6,0.6S100.7,215,100.7,215.4z"/>
		<path fill="#0A5995" d="M104.8,217.5c-1.1,0-1.9-0.3-2.4-0.9c-0.6-0.6-0.8-1.5-0.8-2.7c0-1.2,0.3-2.1,0.9-2.7c0.6-0.6,1.4-1,2.5-1
			c0.7,0,1.4,0.1,2,0.4l-0.5,1.2c-0.6-0.2-1.2-0.4-1.6-0.4c-1.2,0-1.8,0.8-1.8,2.4c0,0.8,0.2,1.4,0.5,1.8s0.7,0.6,1.3,0.6
			c0.7,0,1.3-0.2,1.9-0.5v1.3c-0.3,0.2-0.6,0.3-0.9,0.3S105.3,217.5,104.8,217.5z"/>
		<path fill="#0A5995" d="M108,208.5c0-0.3,0.1-0.5,0.2-0.6c0.1-0.1,0.4-0.2,0.6-0.2c0.3,0,0.5,0.1,0.6,0.2c0.1,0.1,0.2,0.3,0.2,0.6
			c0,0.3-0.1,0.5-0.2,0.6c-0.1,0.1-0.4,0.2-0.6,0.2c-0.3,0-0.5-0.1-0.6-0.2C108.1,208.9,108,208.7,108,208.5z M109.6,217.4h-1.5v-7
			h1.5V217.4z"/>
		<path fill="#0A5995" d="M115,217.5c-0.9,0-1.6-0.3-2.1-1h-0.1c0.1,0.6,0.1,1,0.1,1.1v2.9h-1.5v-10.1h1.2c0,0.1,0.1,0.4,0.2,0.9
			h0.1c0.5-0.7,1.2-1.1,2.1-1.1c0.9,0,1.6,0.3,2,1c0.5,0.6,0.7,1.5,0.7,2.7c0,1.1-0.2,2-0.7,2.7S115.9,217.5,115,217.5z
			 M114.6,211.4c-0.6,0-1,0.2-1.3,0.5c-0.3,0.3-0.4,0.9-0.4,1.7v0.2c0,0.9,0.1,1.5,0.4,1.9c0.3,0.4,0.7,0.6,1.3,0.6
			c0.5,0,0.9-0.2,1.2-0.6s0.4-1,0.4-1.8c0-0.8-0.1-1.4-0.4-1.8C115.6,211.6,115.2,211.4,114.6,211.4z"/>
		<path fill="#0A5995" d="M119.1,208.5c0-0.3,0.1-0.5,0.2-0.6c0.1-0.1,0.4-0.2,0.6-0.2c0.3,0,0.5,0.1,0.6,0.2
			c0.1,0.1,0.2,0.3,0.2,0.6c0,0.3-0.1,0.5-0.2,0.6c-0.1,0.1-0.4,0.2-0.6,0.2c-0.3,0-0.5-0.1-0.6-0.2
			C119.2,208.9,119.1,208.7,119.1,208.5z M120.7,217.4h-1.5v-7h1.5V217.4z"/>
		<path fill="#0A5995" d="M125.1,216.3c0.4,0,0.7-0.1,1.1-0.2v1.1c-0.2,0.1-0.4,0.1-0.6,0.2c-0.3,0-0.5,0.1-0.8,0.1
			c-1.4,0-2.1-0.7-2.1-2.2v-3.8h-1v-0.7l1-0.5l0.5-1.5h0.9v1.6h2v1.1h-2v3.8c0,0.4,0.1,0.6,0.3,0.8
			C124.6,216.2,124.8,216.3,125.1,216.3z"/>
		<path fill="#0A5995" d="M132.7,217.5c-0.9,0-1.6-0.3-2-1c-0.5-0.6-0.7-1.5-0.7-2.7c0-1.2,0.2-2,0.7-2.7c0.5-0.6,1.2-1,2.1-1
			c0.9,0,1.6,0.3,2.1,1h0.1c-0.1-0.5-0.1-0.9-0.1-1.2v-2.6h1.5v9.9h-1.2l-0.3-0.9h-0.1C134.3,217.2,133.6,217.5,132.7,217.5z
			 M133.1,216.3c0.6,0,1.1-0.2,1.3-0.5s0.4-0.9,0.4-1.7v-0.2c0-0.9-0.1-1.5-0.4-1.9c-0.3-0.4-0.7-0.6-1.4-0.6
			c-0.5,0-0.9,0.2-1.2,0.6c-0.3,0.4-0.4,1-0.4,1.8c0,0.8,0.1,1.4,0.4,1.8C132.1,216.1,132.5,216.3,133.1,216.3z"/>
		<path fill="#0A5995" d="M138,208.5c0-0.3,0.1-0.5,0.2-0.6c0.1-0.1,0.4-0.2,0.6-0.2c0.3,0,0.5,0.1,0.6,0.2c0.1,0.1,0.2,0.3,0.2,0.6
			c0,0.3-0.1,0.5-0.2,0.6c-0.1,0.1-0.4,0.2-0.6,0.2c-0.3,0-0.5-0.1-0.6-0.2C138.1,208.9,138,208.7,138,208.5z M139.6,217.4h-1.5v-7
			h1.5V217.4z"/>
		<path fill="#0A5995" d="M145.8,217.4l-0.3-1h-0.1c-0.3,0.4-0.7,0.7-1,0.9s-0.8,0.2-1.3,0.2c-0.7,0-1.2-0.2-1.6-0.6
			c-0.4-0.4-0.6-0.9-0.6-1.6c0-0.7,0.3-1.3,0.8-1.6c0.5-0.4,1.4-0.6,2.5-0.6l1.2,0v-0.4c0-0.4-0.1-0.8-0.3-1c-0.2-0.2-0.5-0.3-1-0.3
			c-0.4,0-0.7,0.1-1,0.2c-0.3,0.1-0.6,0.2-1,0.4l-0.5-1.1c0.4-0.2,0.8-0.4,1.3-0.5c0.5-0.1,0.9-0.2,1.3-0.2c0.9,0,1.6,0.2,2,0.6
			s0.7,1,0.7,1.8v4.7H145.8z M143.6,216.4c0.5,0,1-0.2,1.3-0.5c0.3-0.3,0.5-0.7,0.5-1.3V214l-0.9,0c-0.7,0-1.2,0.1-1.5,0.4
			c-0.3,0.2-0.5,0.5-0.5,1c0,0.3,0.1,0.6,0.3,0.7C142.9,216.3,143.2,216.4,143.6,216.4z"/>
		<path fill="#0A5995" d="M154.5,217.4H153V213c0-0.5-0.1-0.9-0.3-1.2s-0.5-0.4-1-0.4c-0.6,0-1,0.2-1.3,0.6c-0.3,0.4-0.4,1-0.4,1.9
			v3.5h-1.5v-7h1.2l0.2,0.9h0.1c0.2-0.3,0.5-0.6,0.8-0.8c0.4-0.2,0.8-0.3,1.2-0.3c1.1,0,1.8,0.4,2.1,1.1h0.1
			c0.2-0.3,0.5-0.6,0.9-0.8c0.4-0.2,0.8-0.3,1.3-0.3c0.8,0,1.4,0.2,1.8,0.6c0.4,0.4,0.6,1.1,0.6,1.9v4.6h-1.5V213
			c0-0.5-0.1-0.9-0.3-1.2s-0.5-0.4-1-0.4c-0.6,0-1,0.2-1.3,0.5c-0.3,0.4-0.4,0.9-0.4,1.7V217.4z"/>
		<path fill="#0A5995" d="M160.5,216.6c0-0.3,0.1-0.5,0.2-0.7c0.2-0.2,0.4-0.2,0.7-0.2c0.3,0,0.5,0.1,0.7,0.3
			c0.2,0.2,0.2,0.4,0.2,0.7c0,0.3-0.1,0.5-0.2,0.7s-0.4,0.3-0.7,0.3s-0.5-0.1-0.7-0.3C160.6,217.1,160.5,216.9,160.5,216.6z"/>
		<path fill="#0A5995" d="M173.3,210.9c0,1-0.3,1.7-1,2.2c-0.6,0.5-1.5,0.8-2.7,0.8h-1v3.5h-1.5v-9.3h2.7c1.2,0,2,0.2,2.6,0.7
			C173,209.3,173.3,210,173.3,210.9z M168.7,212.6h0.8c0.8,0,1.3-0.1,1.7-0.4c0.4-0.3,0.5-0.7,0.5-1.3c0-0.5-0.2-0.9-0.5-1.2
			c-0.3-0.3-0.8-0.4-1.5-0.4h-1.1V212.6z"/>
		<path fill="#0A5995" d="M177.8,217.5c-1.1,0-1.9-0.3-2.6-1c-0.6-0.6-0.9-1.5-0.9-2.6c0-1.1,0.3-2,0.9-2.7c0.6-0.7,1.4-1,2.4-1
			c0.9,0,1.7,0.3,2.2,0.8c0.5,0.6,0.8,1.3,0.8,2.3v0.8h-4.7c0,0.7,0.2,1.2,0.6,1.6c0.3,0.4,0.8,0.5,1.5,0.5c0.4,0,0.8,0,1.2-0.1
			c0.4-0.1,0.7-0.2,1.2-0.4v1.2c-0.4,0.2-0.7,0.3-1.1,0.4C178.7,217.5,178.2,217.5,177.8,217.5z M177.5,211.4
			c-0.5,0-0.9,0.2-1.1,0.5c-0.3,0.3-0.5,0.7-0.5,1.3h3.2c0-0.6-0.1-1-0.4-1.3C178.3,211.5,178,211.4,177.5,211.4z"/>
		<path fill="#0A5995" d="M183.4,217.4h-1.5v-9.9h1.5V217.4z"/>
		<path fill="#0A5995" d="M186.7,217.4h-1.5v-9.9h1.5V217.4z"/>
		<path fill="#0A5995" d="M191.5,217.5c-1.1,0-1.9-0.3-2.6-1c-0.6-0.6-0.9-1.5-0.9-2.6c0-1.1,0.3-2,0.9-2.7c0.6-0.7,1.4-1,2.4-1
			c0.9,0,1.7,0.3,2.2,0.8c0.5,0.6,0.8,1.3,0.8,2.3v0.8h-4.7c0,0.7,0.2,1.2,0.6,1.6c0.3,0.4,0.8,0.5,1.5,0.5c0.4,0,0.8,0,1.2-0.1
			s0.7-0.2,1.2-0.4v1.2c-0.4,0.2-0.7,0.3-1.1,0.4C192.4,217.5,192,217.5,191.5,217.5z M191.3,211.4c-0.5,0-0.9,0.2-1.1,0.5
			c-0.3,0.3-0.5,0.7-0.5,1.3h3.2c0-0.6-0.1-1-0.4-1.3C192.1,211.5,191.7,211.4,191.3,211.4z"/>
		<path fill="#0A5995" d="M201.8,217.4h-1.5v-4.3c0-0.5-0.1-0.9-0.3-1.2c-0.2-0.3-0.6-0.4-1-0.4c-0.6,0-1.1,0.2-1.4,0.6
			s-0.4,1-0.4,1.9v3.5h-1.5v-7h1.2l0.2,0.9h0.1c0.2-0.3,0.5-0.6,0.9-0.8c0.4-0.2,0.8-0.3,1.3-0.3c1.7,0,2.5,0.9,2.5,2.6V217.4z"/>
		<path fill="#0A5995" d="M206.2,216.3c0.4,0,0.7-0.1,1.1-0.2v1.1c-0.2,0.1-0.4,0.1-0.6,0.2c-0.3,0-0.5,0.1-0.8,0.1
			c-1.4,0-2.1-0.7-2.1-2.2v-3.8h-1v-0.7l1-0.5l0.5-1.5h0.9v1.6h2v1.1h-2v3.8c0,0.4,0.1,0.6,0.3,0.8
			C205.6,216.2,205.9,216.3,206.2,216.3z"/>
		<path fill="#0A5995" d="M211.4,217.5c-1.1,0-1.9-0.3-2.6-1c-0.6-0.6-0.9-1.5-0.9-2.6c0-1.1,0.3-2,0.9-2.7c0.6-0.7,1.4-1,2.4-1
			c0.9,0,1.7,0.3,2.2,0.8c0.5,0.6,0.8,1.3,0.8,2.3v0.8h-4.7c0,0.7,0.2,1.2,0.6,1.6c0.3,0.4,0.8,0.5,1.5,0.5c0.4,0,0.8,0,1.2-0.1
			s0.7-0.2,1.2-0.4v1.2c-0.4,0.2-0.7,0.3-1.1,0.4C212.3,217.5,211.9,217.5,211.4,217.5z M211.1,211.4c-0.5,0-0.9,0.2-1.1,0.5
			c-0.3,0.3-0.5,0.7-0.5,1.3h3.2c0-0.6-0.1-1-0.4-1.3C212,211.5,211.6,211.4,211.1,211.4z"/>
		<path fill="#0A5995" d="M220.2,215.4c0,0.7-0.2,1.2-0.7,1.6c-0.5,0.4-1.2,0.5-2.1,0.5c-0.9,0-1.7-0.1-2.3-0.4v-1.3
			c0.8,0.4,1.6,0.6,2.3,0.6c0.9,0,1.4-0.3,1.4-0.8c0-0.2-0.1-0.3-0.2-0.4c-0.1-0.1-0.3-0.2-0.5-0.4c-0.2-0.1-0.6-0.3-1-0.4
			c-0.8-0.3-1.4-0.6-1.6-0.9c-0.3-0.3-0.4-0.7-0.4-1.2c0-0.6,0.2-1.1,0.7-1.4c0.5-0.3,1.1-0.5,2-0.5c0.8,0,1.6,0.2,2.3,0.5l-0.5,1.1
			c-0.8-0.3-1.4-0.5-1.9-0.5c-0.8,0-1.2,0.2-1.2,0.7c0,0.2,0.1,0.4,0.3,0.6c0.2,0.2,0.7,0.4,1.3,0.6c0.6,0.2,1,0.4,1.3,0.6
			c0.3,0.2,0.5,0.4,0.6,0.6S220.2,215,220.2,215.4z"/>
		<path fill="#0A5995" d="M223.9,217.5c-0.9,0-1.5-0.3-2-1c-0.5-0.6-0.7-1.5-0.7-2.7s0.2-2,0.7-2.7c0.5-0.6,1.2-1,2.1-1
			c0.4,0,0.8,0.1,1.2,0.2c0.3,0.2,0.7,0.4,0.9,0.8h0.1l0.2-0.9h1.2v10.1H226v-3c0-0.2,0-0.4,0-0.6c0-0.2,0-0.4,0-0.5H226
			C225.5,217.2,224.8,217.5,223.9,217.5z M224.3,216.3c0.6,0,1.1-0.2,1.3-0.5c0.3-0.4,0.4-0.9,0.4-1.6v-0.2c0-0.9-0.1-1.5-0.4-1.9
			s-0.7-0.6-1.4-0.6c-0.5,0-0.9,0.2-1.2,0.6s-0.4,1-0.4,1.8C222.6,215.5,223.2,216.3,224.3,216.3z"/>
		<path fill="#0A5995" d="M234.2,217.4l-0.2-0.9h-0.1c-0.2,0.3-0.5,0.6-0.9,0.8s-0.8,0.3-1.3,0.3c-0.9,0-1.5-0.2-1.9-0.6
			s-0.6-1.1-0.6-1.9v-4.6h1.5v4.3c0,0.5,0.1,0.9,0.3,1.2c0.2,0.3,0.6,0.4,1,0.4c0.6,0,1.1-0.2,1.4-0.6c0.3-0.4,0.4-1,0.4-1.9v-3.5
			h1.5v7H234.2z"/>
		<path fill="#0A5995" d="M240.3,217.5c-1.1,0-1.9-0.3-2.6-1c-0.6-0.6-0.9-1.5-0.9-2.6c0-1.1,0.3-2,0.9-2.7c0.6-0.7,1.4-1,2.4-1
			c0.9,0,1.7,0.3,2.2,0.8c0.5,0.6,0.8,1.3,0.8,2.3v0.8h-4.7c0,0.7,0.2,1.2,0.6,1.6c0.3,0.4,0.8,0.5,1.5,0.5c0.4,0,0.8,0,1.2-0.1
			c0.4-0.1,0.7-0.2,1.2-0.4v1.2c-0.4,0.2-0.7,0.3-1.1,0.4C241.2,217.5,240.8,217.5,240.3,217.5z M240,211.4c-0.5,0-0.9,0.2-1.1,0.5
			c-0.3,0.3-0.5,0.7-0.5,1.3h3.2c0-0.6-0.1-1-0.4-1.3C240.8,211.5,240.5,211.4,240,211.4z"/>
		<path fill="#0A5995" d="M252.1,215.4c0,0.7-0.2,1.2-0.7,1.6c-0.5,0.4-1.2,0.5-2.1,0.5c-0.9,0-1.7-0.1-2.3-0.4v-1.3
			c0.8,0.4,1.6,0.6,2.3,0.6c0.9,0,1.4-0.3,1.4-0.8c0-0.2-0.1-0.3-0.2-0.4c-0.1-0.1-0.3-0.2-0.5-0.4c-0.2-0.1-0.6-0.3-1-0.4
			c-0.8-0.3-1.4-0.6-1.6-0.9c-0.3-0.3-0.4-0.7-0.4-1.2c0-0.6,0.2-1.1,0.7-1.4s1.1-0.5,2-0.5c0.8,0,1.6,0.2,2.3,0.5l-0.5,1.1
			c-0.8-0.3-1.4-0.5-1.9-0.5c-0.8,0-1.2,0.2-1.2,0.7c0,0.2,0.1,0.4,0.3,0.6s0.7,0.4,1.3,0.6c0.6,0.2,1,0.4,1.3,0.6
			c0.3,0.2,0.5,0.4,0.6,0.6S252.1,215,252.1,215.4z"/>
		<path fill="#0A5995" d="M256.3,217.5c-1.1,0-1.9-0.3-2.4-0.9c-0.6-0.6-0.8-1.5-0.8-2.7c0-1.2,0.3-2.1,0.9-2.7c0.6-0.6,1.4-1,2.5-1
			c0.7,0,1.4,0.1,2,0.4l-0.5,1.2c-0.6-0.2-1.2-0.4-1.6-0.4c-1.2,0-1.8,0.8-1.8,2.4c0,0.8,0.2,1.4,0.5,1.8s0.7,0.6,1.3,0.6
			c0.7,0,1.3-0.2,1.9-0.5v1.3c-0.3,0.2-0.6,0.3-0.9,0.3S256.7,217.5,256.3,217.5z"/>
		<path fill="#0A5995" d="M262.6,217.5c-1.1,0-1.9-0.3-2.6-1c-0.6-0.6-0.9-1.5-0.9-2.6c0-1.1,0.3-2,0.9-2.7c0.6-0.7,1.4-1,2.4-1
			c0.9,0,1.7,0.3,2.2,0.8c0.5,0.6,0.8,1.3,0.8,2.3v0.8h-4.7c0,0.7,0.2,1.2,0.6,1.6c0.3,0.4,0.8,0.5,1.5,0.5c0.4,0,0.8,0,1.2-0.1
			s0.7-0.2,1.2-0.4v1.2c-0.4,0.2-0.7,0.3-1.1,0.4C263.5,217.5,263.1,217.5,262.6,217.5z M262.3,211.4c-0.5,0-0.9,0.2-1.1,0.5
			c-0.3,0.3-0.5,0.7-0.5,1.3h3.2c0-0.6-0.1-1-0.4-1.3C263.2,211.5,262.8,211.4,262.3,211.4z"/>
		<path fill="#0A5995" d="M268.2,217.4h-1.5v-9.9h1.5V217.4z"/>
		<path fill="#0A5995" d="M273.1,217.5c-1.1,0-1.9-0.3-2.6-1c-0.6-0.6-0.9-1.5-0.9-2.6c0-1.1,0.3-2,0.9-2.7c0.6-0.7,1.4-1,2.4-1
			c0.9,0,1.7,0.3,2.2,0.8c0.5,0.6,0.8,1.3,0.8,2.3v0.8h-4.7c0,0.7,0.2,1.2,0.6,1.6c0.3,0.4,0.8,0.5,1.5,0.5c0.4,0,0.8,0,1.2-0.1
			c0.4-0.1,0.7-0.2,1.2-0.4v1.2c-0.4,0.2-0.7,0.3-1.1,0.4C274,217.5,273.5,217.5,273.1,217.5z M272.8,211.4c-0.5,0-0.9,0.2-1.1,0.5
			c-0.3,0.3-0.5,0.7-0.5,1.3h3.2c0-0.6-0.1-1-0.4-1.3C273.6,211.5,273.3,211.4,272.8,211.4z"/>
		<path fill="#0A5995" d="M280.7,210.2c0.3,0,0.5,0,0.7,0.1l-0.1,1.4c-0.2-0.1-0.4-0.1-0.7-0.1c-0.6,0-1.1,0.2-1.5,0.6
			c-0.4,0.4-0.6,0.9-0.6,1.5v3.7h-1.5v-7h1.2l0.2,1.2h0.1c0.2-0.4,0.5-0.8,0.9-1C279.9,210.3,280.3,210.2,280.7,210.2z"/>
		<path fill="#0A5995" d="M31.2,226.5c0-0.3,0.1-0.5,0.2-0.6c0.1-0.1,0.4-0.2,0.6-0.2c0.3,0,0.5,0.1,0.6,0.2
			c0.1,0.1,0.2,0.3,0.2,0.6c0,0.3-0.1,0.5-0.2,0.6c-0.1,0.1-0.4,0.2-0.6,0.2c-0.3,0-0.5-0.1-0.6-0.2
			C31.3,226.9,31.2,226.7,31.2,226.5z M32.8,235.4h-1.5v-7h1.5V235.4z"/>
		<path fill="#0A5995" d="M39.3,233.4c0,0.7-0.2,1.2-0.7,1.6c-0.5,0.4-1.2,0.5-2.1,0.5c-0.9,0-1.7-0.1-2.3-0.4v-1.3
			c0.8,0.4,1.6,0.6,2.3,0.6c0.9,0,1.4-0.3,1.4-0.8c0-0.2-0.1-0.3-0.2-0.4c-0.1-0.1-0.3-0.2-0.5-0.4c-0.2-0.1-0.6-0.3-1-0.4
			c-0.8-0.3-1.4-0.6-1.6-0.9c-0.3-0.3-0.4-0.7-0.4-1.2c0-0.6,0.2-1.1,0.7-1.4c0.5-0.3,1.1-0.5,2-0.5c0.8,0,1.6,0.2,2.3,0.5l-0.5,1.1
			c-0.8-0.3-1.4-0.5-1.9-0.5c-0.8,0-1.2,0.2-1.2,0.7c0,0.2,0.1,0.4,0.3,0.6c0.2,0.2,0.7,0.4,1.3,0.6c0.6,0.2,1,0.4,1.3,0.6
			c0.3,0.2,0.5,0.4,0.6,0.6S39.3,233,39.3,233.4z"/>
		<path fill="#0A5995" d="M42.9,235.5c-0.9,0-1.5-0.3-2-1c-0.5-0.6-0.7-1.5-0.7-2.7s0.2-2,0.7-2.7c0.5-0.6,1.2-1,2.1-1
			c0.4,0,0.8,0.1,1.2,0.2c0.3,0.2,0.7,0.4,0.9,0.8h0.1l0.2-0.9h1.2v10.1H45v-3c0-0.2,0-0.4,0-0.6c0-0.2,0-0.4,0-0.5H45
			C44.6,235.2,43.9,235.5,42.9,235.5z M43.4,234.3c0.6,0,1.1-0.2,1.3-0.5c0.3-0.4,0.4-0.9,0.4-1.6v-0.2c0-0.9-0.1-1.5-0.4-1.9
			c-0.3-0.4-0.7-0.6-1.4-0.6c-0.5,0-0.9,0.2-1.2,0.6s-0.4,1-0.4,1.8C41.7,233.5,42.2,234.3,43.4,234.3z"/>
		<path fill="#0A5995" d="M53.3,235.4l-0.2-0.9H53c-0.2,0.3-0.5,0.6-0.9,0.8s-0.8,0.3-1.3,0.3c-0.9,0-1.5-0.2-1.9-0.6
			s-0.6-1.1-0.6-1.9v-4.6h1.5v4.3c0,0.5,0.1,0.9,0.3,1.2c0.2,0.3,0.6,0.4,1,0.4c0.6,0,1.1-0.2,1.4-0.6c0.3-0.4,0.4-1,0.4-1.9v-3.5
			h1.5v7H53.3z"/>
		<path fill="#0A5995" d="M59.3,235.5c-1.1,0-1.9-0.3-2.6-1c-0.6-0.6-0.9-1.5-0.9-2.6c0-1.1,0.3-2,0.9-2.7c0.6-0.7,1.4-1,2.4-1
			c0.9,0,1.7,0.3,2.2,0.8c0.5,0.6,0.8,1.3,0.8,2.3v0.8h-4.7c0,0.7,0.2,1.2,0.6,1.6c0.3,0.4,0.8,0.5,1.5,0.5c0.4,0,0.8,0,1.2-0.1
			s0.7-0.2,1.2-0.4v1.2c-0.4,0.2-0.7,0.3-1.1,0.4C60.2,235.5,59.8,235.5,59.3,235.5z M59.1,229.4c-0.5,0-0.9,0.2-1.1,0.5
			c-0.3,0.3-0.5,0.7-0.5,1.3h3.2c0-0.6-0.1-1-0.4-1.3C59.9,229.5,59.5,229.4,59.1,229.4z"/>
		<path fill="#0A5995" d="M68.1,235.4l-2.7-7H67l1.4,4.1c0.2,0.7,0.4,1.2,0.4,1.7h0.1c0-0.3,0.2-0.9,0.4-1.7l1.4-4.1h1.6l-2.7,7
			H68.1z"/>
		<path fill="#0A5995" d="M78.1,235.4l-0.2-0.9h-0.1c-0.2,0.3-0.5,0.6-0.9,0.8s-0.8,0.3-1.3,0.3c-0.9,0-1.5-0.2-1.9-0.6
			s-0.6-1.1-0.6-1.9v-4.6h1.5v4.3c0,0.5,0.1,0.9,0.3,1.2c0.2,0.3,0.6,0.4,1,0.4c0.6,0,1.1-0.2,1.4-0.6c0.3-0.4,0.4-1,0.4-1.9v-3.5
			h1.5v7H78.1z"/>
		<path fill="#0A5995" d="M82.5,235.4h-1.5v-9.9h1.5V235.4z"/>
		<path fill="#0A5995" d="M87.9,235.5c-0.9,0-1.6-0.3-2.1-1h-0.1c0.1,0.6,0.1,1,0.1,1.1v2.9h-1.5v-10.1h1.2c0,0.1,0.1,0.4,0.2,0.9
			h0.1c0.5-0.7,1.2-1.1,2.1-1.1c0.9,0,1.6,0.3,2,1c0.5,0.6,0.7,1.5,0.7,2.7c0,1.1-0.2,2-0.7,2.7S88.8,235.5,87.9,235.5z M87.5,229.4
			c-0.6,0-1,0.2-1.3,0.5c-0.3,0.3-0.4,0.9-0.4,1.7v0.2c0,0.9,0.1,1.5,0.4,1.9c0.3,0.4,0.7,0.6,1.3,0.6c0.5,0,0.9-0.2,1.2-0.6
			s0.4-1,0.4-1.8c0-0.8-0.1-1.4-0.4-1.8C88.5,229.6,88.1,229.4,87.5,229.4z"/>
		<path fill="#0A5995" d="M97.1,235.4l-0.2-0.9h-0.1c-0.2,0.3-0.5,0.6-0.9,0.8s-0.8,0.3-1.3,0.3c-0.9,0-1.5-0.2-1.9-0.6
			s-0.6-1.1-0.6-1.9v-4.6h1.5v4.3c0,0.5,0.1,0.9,0.3,1.2c0.2,0.3,0.6,0.4,1,0.4c0.6,0,1.1-0.2,1.4-0.6c0.3-0.4,0.4-1,0.4-1.9v-3.5
			h1.5v7H97.1z"/>
		<path fill="#0A5995" d="M102.7,234.3c0.4,0,0.7-0.1,1.1-0.2v1.1c-0.2,0.1-0.4,0.1-0.6,0.2c-0.3,0-0.5,0.1-0.8,0.1
			c-1.4,0-2.1-0.7-2.1-2.2v-3.8h-1v-0.7l1-0.5l0.5-1.5h0.9v1.6h2v1.1h-2v3.8c0,0.4,0.1,0.6,0.3,0.8
			C102.1,234.2,102.4,234.3,102.7,234.3z"/>
		<path fill="#0A5995" d="M109.2,235.4l-0.3-1h-0.1c-0.3,0.4-0.7,0.7-1,0.9s-0.8,0.2-1.3,0.2c-0.7,0-1.2-0.2-1.6-0.6
			c-0.4-0.4-0.6-0.9-0.6-1.6c0-0.7,0.3-1.3,0.8-1.6c0.5-0.4,1.4-0.6,2.5-0.6l1.2,0v-0.4c0-0.4-0.1-0.8-0.3-1c-0.2-0.2-0.5-0.3-1-0.3
			c-0.4,0-0.7,0.1-1,0.2c-0.3,0.1-0.6,0.2-1,0.4l-0.5-1.1c0.4-0.2,0.8-0.4,1.2-0.5c0.5-0.1,0.9-0.2,1.3-0.2c0.9,0,1.6,0.2,2,0.6
			c0.5,0.4,0.7,1,0.7,1.8v4.7H109.2z M107,234.4c0.5,0,1-0.2,1.3-0.5s0.5-0.7,0.5-1.3V232l-0.9,0c-0.7,0-1.2,0.1-1.5,0.4
			c-0.3,0.2-0.5,0.5-0.5,1c0,0.3,0.1,0.6,0.3,0.7C106.4,234.3,106.6,234.4,107,234.4z"/>
		<path fill="#0A5995" d="M114.7,234.3c0.4,0,0.7-0.1,1.1-0.2v1.1c-0.2,0.1-0.4,0.1-0.6,0.2c-0.3,0-0.5,0.1-0.8,0.1
			c-1.4,0-2.1-0.7-2.1-2.2v-3.8h-1v-0.7l1-0.5l0.5-1.5h0.9v1.6h2v1.1h-2v3.8c0,0.4,0.1,0.6,0.3,0.8
			C114.1,234.2,114.4,234.3,114.7,234.3z"/>
		<path fill="#0A5995" d="M119.9,235.5c-1.1,0-1.9-0.3-2.6-1c-0.6-0.6-0.9-1.5-0.9-2.6c0-1.1,0.3-2,0.9-2.7c0.6-0.7,1.4-1,2.4-1
			c0.9,0,1.7,0.3,2.2,0.8c0.5,0.6,0.8,1.3,0.8,2.3v0.8H118c0,0.7,0.2,1.2,0.6,1.6c0.3,0.4,0.8,0.5,1.5,0.5c0.4,0,0.8,0,1.2-0.1
			c0.4-0.1,0.7-0.2,1.2-0.4v1.2c-0.4,0.2-0.7,0.3-1.1,0.4C120.8,235.5,120.4,235.5,119.9,235.5z M119.6,229.4
			c-0.5,0-0.9,0.2-1.1,0.5c-0.3,0.3-0.5,0.7-0.5,1.3h3.2c0-0.6-0.1-1-0.4-1.3C120.5,229.5,120.1,229.4,119.6,229.4z"/>
		<path fill="#0A5995" d="M128.5,235.4h-1.5v-9.9h1.5V235.4z"/>
		<path fill="#0A5995" d="M130.3,226.5c0-0.3,0.1-0.5,0.2-0.6c0.1-0.1,0.4-0.2,0.6-0.2c0.3,0,0.5,0.1,0.6,0.2
			c0.1,0.1,0.2,0.3,0.2,0.6c0,0.3-0.1,0.5-0.2,0.6c-0.1,0.1-0.4,0.2-0.6,0.2c-0.3,0-0.5-0.1-0.6-0.2
			C130.3,226.9,130.3,226.7,130.3,226.5z M131.8,235.4h-1.5v-7h1.5V235.4z"/>
		<path fill="#0A5995" d="M137.2,228.2c0.9,0,1.6,0.3,2,1c0.5,0.6,0.7,1.5,0.7,2.7c0,1.2-0.2,2-0.7,2.7c-0.5,0.6-1.2,1-2.1,1
			c-0.9,0-1.6-0.3-2.1-1H135l-0.3,0.8h-1.1v-9.9h1.5v2.3c0,0.2,0,0.4,0,0.8c0,0.3,0,0.6,0,0.7h0.1
			C135.6,228.6,136.3,228.2,137.2,228.2z M136.9,229.4c-0.6,0-1,0.2-1.3,0.5c-0.3,0.4-0.4,0.9-0.4,1.8v0.1c0,0.9,0.1,1.5,0.4,1.9
			c0.3,0.4,0.7,0.6,1.3,0.6c0.5,0,0.9-0.2,1.2-0.6c0.3-0.4,0.4-1,0.4-1.8C138.5,230.2,137.9,229.4,136.9,229.4z"/>
		<path fill="#0A5995" d="M144.5,235.5c-1.1,0-1.9-0.3-2.6-1c-0.6-0.6-0.9-1.5-0.9-2.6c0-1.1,0.3-2,0.9-2.7c0.6-0.7,1.4-1,2.4-1
			c0.9,0,1.7,0.3,2.2,0.8c0.5,0.6,0.8,1.3,0.8,2.3v0.8h-4.7c0,0.7,0.2,1.2,0.6,1.6c0.3,0.4,0.8,0.5,1.5,0.5c0.4,0,0.8,0,1.2-0.1
			c0.4-0.1,0.7-0.2,1.2-0.4v1.2c-0.4,0.2-0.7,0.3-1.1,0.4C145.4,235.5,145,235.5,144.5,235.5z M144.2,229.4c-0.5,0-0.9,0.2-1.1,0.5
			c-0.3,0.3-0.5,0.7-0.5,1.3h3.2c0-0.6-0.1-1-0.4-1.3C145.1,229.5,144.7,229.4,144.2,229.4z"/>
		<path fill="#0A5995" d="M152.2,228.2c0.3,0,0.5,0,0.7,0.1l-0.1,1.4c-0.2-0.1-0.4-0.1-0.7-0.1c-0.6,0-1.1,0.2-1.5,0.6
			c-0.4,0.4-0.6,0.9-0.6,1.5v3.7h-1.5v-7h1.2l0.2,1.2h0.1c0.2-0.4,0.5-0.8,0.9-1C151.3,228.3,151.7,228.2,152.2,228.2z"/>
		<path fill="#0A5995" d="M160.1,231.9c0,1.1-0.3,2-0.9,2.7c-0.6,0.6-1.4,1-2.5,1c-0.7,0-1.2-0.1-1.7-0.4c-0.5-0.3-0.9-0.7-1.2-1.3
			c-0.3-0.6-0.4-1.2-0.4-1.9c0-1.1,0.3-2,0.9-2.7c0.6-0.6,1.4-1,2.5-1c1,0,1.8,0.3,2.4,1C159.8,229.9,160.1,230.7,160.1,231.9z
			 M155,231.9c0,1.6,0.6,2.4,1.8,2.4c1.2,0,1.8-0.8,1.8-2.4c0-1.6-0.6-2.4-1.8-2.4c-0.6,0-1.1,0.2-1.4,0.6S155,231.1,155,231.9z"/>
		<path fill="#0A5995" d="M163,234c-0.2,0.8-0.6,1.8-1.1,3h-1.1c0.3-1.1,0.5-2.2,0.7-3.2h1.5L163,234z"/>
		<path fill="#0A5995" d="M170.8,235.5c-1.1,0-1.9-0.3-2.6-1c-0.6-0.6-0.9-1.5-0.9-2.6c0-1.1,0.3-2,0.9-2.7c0.6-0.7,1.4-1,2.4-1
			c0.9,0,1.7,0.3,2.2,0.8c0.5,0.6,0.8,1.3,0.8,2.3v0.8h-4.7c0,0.7,0.2,1.2,0.6,1.6c0.3,0.4,0.8,0.5,1.5,0.5c0.4,0,0.8,0,1.2-0.1
			s0.7-0.2,1.2-0.4v1.2c-0.4,0.2-0.7,0.3-1.1,0.4C171.7,235.5,171.2,235.5,170.8,235.5z M170.5,229.4c-0.5,0-0.9,0.2-1.1,0.5
			c-0.3,0.3-0.5,0.7-0.5,1.3h3.2c0-0.6-0.1-1-0.4-1.3C171.3,229.5,171,229.4,170.5,229.4z"/>
		<path fill="#0A5995" d="M177.5,234.3c0.4,0,0.7-0.1,1.1-0.2v1.1c-0.2,0.1-0.4,0.1-0.6,0.2c-0.3,0-0.5,0.1-0.8,0.1
			c-1.4,0-2.1-0.7-2.1-2.2v-3.8h-1v-0.7l1-0.5l0.5-1.5h0.9v1.6h2v1.1h-2v3.8c0,0.4,0.1,0.6,0.3,0.8
			C176.9,234.2,177.2,234.3,177.5,234.3z"/>
		<path fill="#0A5995" d="M187.4,233.4c0,0.7-0.2,1.2-0.7,1.6c-0.5,0.4-1.2,0.5-2.1,0.5c-0.9,0-1.7-0.1-2.3-0.4v-1.3
			c0.8,0.4,1.6,0.6,2.3,0.6c0.9,0,1.4-0.3,1.4-0.8c0-0.2-0.1-0.3-0.2-0.4c-0.1-0.1-0.3-0.2-0.5-0.4c-0.2-0.1-0.6-0.3-1-0.4
			c-0.8-0.3-1.4-0.6-1.6-0.9c-0.3-0.3-0.4-0.7-0.4-1.2c0-0.6,0.2-1.1,0.7-1.4s1.1-0.5,2-0.5c0.8,0,1.6,0.2,2.3,0.5l-0.5,1.1
			c-0.8-0.3-1.4-0.5-1.9-0.5c-0.8,0-1.2,0.2-1.2,0.7c0,0.2,0.1,0.4,0.3,0.6s0.7,0.4,1.3,0.6c0.6,0.2,1,0.4,1.3,0.6
			c0.3,0.2,0.5,0.4,0.6,0.6S187.4,233,187.4,233.4z"/>
		<path fill="#0A5995" d="M193.6,235.4l-0.2-0.9h-0.1c-0.2,0.3-0.5,0.6-0.9,0.8s-0.8,0.3-1.3,0.3c-0.9,0-1.5-0.2-1.9-0.6
			s-0.6-1.1-0.6-1.9v-4.6h1.5v4.3c0,0.5,0.1,0.9,0.3,1.2c0.2,0.3,0.6,0.4,1,0.4c0.6,0,1.1-0.2,1.4-0.6c0.3-0.4,0.4-1,0.4-1.9v-3.5
			h1.5v7H193.6z"/>
		<path fill="#0A5995" d="M201.3,233.4c0,0.7-0.2,1.2-0.7,1.6c-0.5,0.4-1.2,0.5-2.1,0.5c-0.9,0-1.7-0.1-2.3-0.4v-1.3
			c0.8,0.4,1.6,0.6,2.3,0.6c0.9,0,1.4-0.3,1.4-0.8c0-0.2-0.1-0.3-0.2-0.4c-0.1-0.1-0.3-0.2-0.5-0.4c-0.2-0.1-0.6-0.3-1-0.4
			c-0.8-0.3-1.4-0.6-1.6-0.9c-0.3-0.3-0.4-0.7-0.4-1.2c0-0.6,0.2-1.1,0.7-1.4s1.1-0.5,2-0.5c0.8,0,1.6,0.2,2.3,0.5l-0.5,1.1
			c-0.8-0.3-1.4-0.5-1.9-0.5c-0.8,0-1.2,0.2-1.2,0.7c0,0.2,0.1,0.4,0.3,0.6s0.7,0.4,1.3,0.6c0.6,0.2,1,0.4,1.3,0.6
			c0.3,0.2,0.5,0.4,0.6,0.6S201.3,233,201.3,233.4z"/>
		<path fill="#0A5995" d="M205.5,235.5c-1.1,0-1.9-0.3-2.4-0.9c-0.6-0.6-0.8-1.5-0.8-2.7c0-1.2,0.3-2.1,0.9-2.7c0.6-0.6,1.4-1,2.5-1
			c0.7,0,1.4,0.1,2,0.4l-0.5,1.2c-0.6-0.2-1.2-0.4-1.6-0.4c-1.2,0-1.8,0.8-1.8,2.4c0,0.8,0.2,1.4,0.5,1.8s0.7,0.6,1.3,0.6
			c0.7,0,1.3-0.2,1.9-0.5v1.3c-0.3,0.2-0.6,0.3-0.9,0.3S205.9,235.5,205.5,235.5z"/>
		<path fill="#0A5995" d="M208.6,226.5c0-0.3,0.1-0.5,0.2-0.6c0.1-0.1,0.4-0.2,0.6-0.2c0.3,0,0.5,0.1,0.6,0.2
			c0.1,0.1,0.2,0.3,0.2,0.6c0,0.3-0.1,0.5-0.2,0.6c-0.1,0.1-0.4,0.2-0.6,0.2c-0.3,0-0.5-0.1-0.6-0.2
			C208.7,226.9,208.6,226.7,208.6,226.5z M210.2,235.4h-1.5v-7h1.5V235.4z"/>
		<path fill="#0A5995" d="M215.6,235.5c-0.9,0-1.6-0.3-2.1-1h-0.1c0.1,0.6,0.1,1,0.1,1.1v2.9H212v-10.1h1.2c0,0.1,0.1,0.4,0.2,0.9
			h0.1c0.5-0.7,1.2-1.1,2.1-1.1c0.9,0,1.6,0.3,2,1c0.5,0.6,0.7,1.5,0.7,2.7c0,1.1-0.2,2-0.7,2.7S216.5,235.5,215.6,235.5z
			 M215.2,229.4c-0.6,0-1,0.2-1.3,0.5c-0.3,0.3-0.4,0.9-0.4,1.7v0.2c0,0.9,0.1,1.5,0.4,1.9c0.3,0.4,0.7,0.6,1.3,0.6
			c0.5,0,0.9-0.2,1.2-0.6s0.4-1,0.4-1.8c0-0.8-0.1-1.4-0.4-1.8C216.2,229.6,215.8,229.4,215.2,229.4z"/>
		<path fill="#0A5995" d="M219.7,226.5c0-0.3,0.1-0.5,0.2-0.6c0.1-0.1,0.4-0.2,0.6-0.2c0.3,0,0.5,0.1,0.6,0.2
			c0.1,0.1,0.2,0.3,0.2,0.6c0,0.3-0.1,0.5-0.2,0.6c-0.1,0.1-0.4,0.2-0.6,0.2c-0.3,0-0.5-0.1-0.6-0.2
			C219.8,226.9,219.7,226.7,219.7,226.5z M221.3,235.4h-1.5v-7h1.5V235.4z"/>
		<path fill="#0A5995" d="M225.7,234.3c0.4,0,0.7-0.1,1.1-0.2v1.1c-0.2,0.1-0.4,0.1-0.6,0.2c-0.3,0-0.5,0.1-0.8,0.1
			c-1.4,0-2.1-0.7-2.1-2.2v-3.8h-1v-0.7l1-0.5l0.5-1.5h0.9v1.6h2v1.1h-2v3.8c0,0.4,0.1,0.6,0.3,0.8
			C225.2,234.2,225.4,234.3,225.7,234.3z"/>
		<path fill="#0A5995" d="M233.3,235.5c-0.9,0-1.6-0.3-2-1c-0.5-0.6-0.7-1.5-0.7-2.7c0-1.2,0.2-2,0.7-2.7c0.5-0.6,1.2-1,2.1-1
			c0.9,0,1.6,0.3,2.1,1h0.1c-0.1-0.5-0.1-0.9-0.1-1.2v-2.6h1.5v9.9h-1.2l-0.3-0.9h-0.1C234.9,235.2,234.2,235.5,233.3,235.5z
			 M233.7,234.3c0.6,0,1.1-0.2,1.3-0.5s0.4-0.9,0.4-1.7v-0.2c0-0.9-0.1-1.5-0.4-1.9c-0.3-0.4-0.7-0.6-1.4-0.6
			c-0.5,0-0.9,0.2-1.2,0.6c-0.3,0.4-0.4,1-0.4,1.8c0,0.8,0.1,1.4,0.4,1.8C232.8,234.1,233.2,234.3,233.7,234.3z"/>
		<path fill="#0A5995" d="M244.9,231.9c0,1.1-0.3,2-0.9,2.7c-0.6,0.6-1.4,1-2.5,1c-0.7,0-1.2-0.1-1.7-0.4c-0.5-0.3-0.9-0.7-1.2-1.3
			c-0.3-0.6-0.4-1.2-0.4-1.9c0-1.1,0.3-2,0.9-2.7c0.6-0.6,1.4-1,2.5-1c1,0,1.8,0.3,2.4,1C244.7,229.9,244.9,230.7,244.9,231.9z
			 M239.8,231.9c0,1.6,0.6,2.4,1.8,2.4c1.2,0,1.8-0.8,1.8-2.4c0-1.6-0.6-2.4-1.8-2.4c-0.6,0-1.1,0.2-1.4,0.6
			C240,230.5,239.8,231.1,239.8,231.9z"/>
		<path fill="#0A5995" d="M247.8,235.4h-1.5v-9.9h1.5V235.4z"/>
		<path fill="#0A5995" d="M255.9,231.9c0,1.1-0.3,2-0.9,2.7c-0.6,0.6-1.4,1-2.5,1c-0.7,0-1.2-0.1-1.7-0.4c-0.5-0.3-0.9-0.7-1.2-1.3
			c-0.3-0.6-0.4-1.2-0.4-1.9c0-1.1,0.3-2,0.9-2.7c0.6-0.6,1.4-1,2.5-1c1,0,1.8,0.3,2.4,1C255.6,229.9,255.9,230.7,255.9,231.9z
			 M250.8,231.9c0,1.6,0.6,2.4,1.8,2.4c1.2,0,1.8-0.8,1.8-2.4c0-1.6-0.6-2.4-1.8-2.4c-0.6,0-1.1,0.2-1.4,0.6
			S250.8,231.1,250.8,231.9z"/>
		<path fill="#0A5995" d="M260.8,228.2c0.3,0,0.5,0,0.7,0.1l-0.1,1.4c-0.2-0.1-0.4-0.1-0.7-0.1c-0.6,0-1.1,0.2-1.5,0.6
			c-0.4,0.4-0.6,0.9-0.6,1.5v3.7h-1.5v-7h1.2l0.2,1.2h0.1c0.2-0.4,0.5-0.8,0.9-1C260,228.3,260.4,228.2,260.8,228.2z"/>
		<path fill="#0A5995" d="M37.2,253.4h-1.5V249c0-0.5-0.1-0.9-0.3-1.2s-0.5-0.4-1-0.4c-0.6,0-1,0.2-1.3,0.6c-0.3,0.4-0.4,1-0.4,1.9
			v3.5h-1.5v-7h1.2l0.2,0.9h0.1c0.2-0.3,0.5-0.6,0.8-0.8c0.4-0.2,0.8-0.3,1.2-0.3c1.1,0,1.8,0.4,2.1,1.1H37c0.2-0.3,0.5-0.6,0.9-0.8
			c0.4-0.2,0.8-0.3,1.3-0.3c0.8,0,1.4,0.2,1.8,0.6c0.4,0.4,0.6,1.1,0.6,1.9v4.6h-1.5V249c0-0.5-0.1-0.9-0.3-1.2s-0.5-0.4-1-0.4
			c-0.6,0-1,0.2-1.3,0.5c-0.3,0.4-0.4,0.9-0.4,1.7V253.4z"/>
		<path fill="#0A5995" d="M49.6,249.9c0,1.1-0.3,2-0.9,2.7c-0.6,0.6-1.4,1-2.5,1c-0.7,0-1.2-0.1-1.7-0.4c-0.5-0.3-0.9-0.7-1.2-1.3
			c-0.3-0.6-0.4-1.2-0.4-1.9c0-1.1,0.3-2,0.9-2.7c0.6-0.6,1.4-1,2.5-1c1,0,1.8,0.3,2.4,1C49.3,247.9,49.6,248.7,49.6,249.9z
			 M44.5,249.9c0,1.6,0.6,2.4,1.8,2.4c1.2,0,1.8-0.8,1.8-2.4c0-1.6-0.6-2.4-1.8-2.4c-0.6,0-1.1,0.2-1.4,0.6S44.5,249.1,44.5,249.9z"
			/>
		<path fill="#0A5995" d="M52.5,253.4H51v-9.9h1.5V253.4z"/>
		<path fill="#0A5995" d="M55.8,253.4h-1.5v-9.9h1.5V253.4z"/>
		<path fill="#0A5995" d="M57.5,244.5c0-0.3,0.1-0.5,0.2-0.6c0.1-0.1,0.4-0.2,0.6-0.2c0.3,0,0.5,0.1,0.6,0.2
			c0.1,0.1,0.2,0.3,0.2,0.6c0,0.3-0.1,0.5-0.2,0.6c-0.1,0.1-0.4,0.2-0.6,0.2c-0.3,0-0.5-0.1-0.6-0.2
			C57.6,244.9,57.5,244.7,57.5,244.5z M59.1,253.4h-1.5v-7h1.5V253.4z"/>
		<path fill="#0A5995" d="M65.6,251.4c0,0.7-0.2,1.2-0.7,1.6c-0.5,0.4-1.2,0.5-2.1,0.5c-0.9,0-1.7-0.1-2.3-0.4v-1.3
			c0.8,0.4,1.6,0.6,2.3,0.6c0.9,0,1.4-0.3,1.4-0.8c0-0.2-0.1-0.3-0.2-0.4c-0.1-0.1-0.3-0.2-0.5-0.4c-0.2-0.1-0.6-0.3-1-0.4
			c-0.8-0.3-1.4-0.6-1.6-0.9c-0.3-0.3-0.4-0.7-0.4-1.2c0-0.6,0.2-1.1,0.7-1.4s1.1-0.5,2-0.5c0.8,0,1.6,0.2,2.3,0.5l-0.5,1.1
			c-0.8-0.3-1.4-0.5-1.9-0.5c-0.8,0-1.2,0.2-1.2,0.7c0,0.2,0.1,0.4,0.3,0.6s0.7,0.4,1.3,0.6c0.6,0.2,1,0.4,1.3,0.6
			c0.3,0.2,0.5,0.4,0.6,0.6S65.6,251,65.6,251.4z"/>
		<path fill="#0A5995" d="M74.7,251.4c0,0.7-0.2,1.2-0.7,1.6c-0.5,0.4-1.2,0.5-2.1,0.5c-0.9,0-1.7-0.1-2.3-0.4v-1.3
			c0.8,0.4,1.6,0.6,2.3,0.6c0.9,0,1.4-0.3,1.4-0.8c0-0.2-0.1-0.3-0.2-0.4c-0.1-0.1-0.3-0.2-0.5-0.4c-0.2-0.1-0.6-0.3-1-0.4
			c-0.8-0.3-1.4-0.6-1.6-0.9c-0.3-0.3-0.4-0.7-0.4-1.2c0-0.6,0.2-1.1,0.7-1.4s1.1-0.5,2-0.5c0.8,0,1.6,0.2,2.3,0.5l-0.5,1.1
			c-0.8-0.3-1.4-0.5-1.9-0.5c-0.8,0-1.2,0.2-1.2,0.7c0,0.2,0.1,0.4,0.3,0.6s0.7,0.4,1.3,0.6c0.6,0.2,1,0.4,1.3,0.6
			c0.3,0.2,0.5,0.4,0.6,0.6S74.7,251,74.7,251.4z"/>
		<path fill="#0A5995" d="M79,253.5c-1.1,0-1.9-0.3-2.6-1c-0.6-0.6-0.9-1.5-0.9-2.6c0-1.1,0.3-2,0.9-2.7c0.6-0.7,1.4-1,2.4-1
			c0.9,0,1.7,0.3,2.2,0.8c0.5,0.6,0.8,1.3,0.8,2.3v0.8h-4.7c0,0.7,0.2,1.2,0.6,1.6c0.3,0.4,0.8,0.5,1.5,0.5c0.4,0,0.8,0,1.2-0.1
			c0.4-0.1,0.7-0.2,1.2-0.4v1.2c-0.4,0.2-0.7,0.3-1.1,0.4C79.9,253.5,79.5,253.5,79,253.5z M78.7,247.4c-0.5,0-0.9,0.2-1.1,0.5
			c-0.3,0.3-0.5,0.7-0.5,1.3h3.2c0-0.6-0.1-1-0.4-1.3C79.6,247.5,79.2,247.4,78.7,247.4z"/>
		<path fill="#0A5995" d="M85.5,253.5c-0.9,0-1.6-0.3-2-1c-0.5-0.6-0.7-1.5-0.7-2.7c0-1.2,0.2-2,0.7-2.7c0.5-0.6,1.2-1,2.1-1
			c0.9,0,1.6,0.3,2.1,1h0.1c-0.1-0.5-0.1-0.9-0.1-1.2v-2.6h1.5v9.9h-1.2l-0.3-0.9h-0.1C87.1,253.2,86.4,253.5,85.5,253.5z
			 M85.9,252.3c0.6,0,1.1-0.2,1.3-0.5s0.4-0.9,0.4-1.7v-0.2c0-0.9-0.1-1.5-0.4-1.9c-0.3-0.4-0.7-0.6-1.4-0.6c-0.5,0-0.9,0.2-1.2,0.6
			c-0.3,0.4-0.4,1-0.4,1.8c0,0.8,0.1,1.4,0.4,1.8C84.9,252.1,85.3,252.3,85.9,252.3z"/>
		<path fill="#0A5995" d="M90.7,252.6c0-0.3,0.1-0.5,0.2-0.7c0.2-0.2,0.4-0.2,0.7-0.2c0.3,0,0.5,0.1,0.7,0.3
			c0.2,0.2,0.2,0.4,0.2,0.7c0,0.3-0.1,0.5-0.2,0.7c-0.2,0.2-0.4,0.3-0.7,0.3s-0.5-0.1-0.7-0.3C90.7,253.1,90.7,252.9,90.7,252.6z"/>
	</g>
</g>
<g id="Layer_2">
</g>
</svg>
