<?xml version="1.0" encoding="utf-8"?>
<!-- Generator: Adobe Illustrator 21.1.0, SVG Export Plug-In . SVG Version: 6.00 Build 0)  -->
<svg version="1.1" xmlns="http://www.w3.org/2000/svg" xmlns:xlink="http://www.w3.org/1999/xlink" x="0px" y="0px"
	 viewBox="0 0 134 92" enable-background="new 0 0 134 92" xml:space="preserve">
<g id="Layer_1">
	<g>
		<rect x="72.5" y="20" width="47.5" height="5.1"/>
		<rect x="72.5" y="28" width="43.3" height="5.1"/>
		<rect x="72.5" y="43" width="45.4" height="2.1"/>
		<rect x="72.5" y="38.8" width="45.4" height="2.1"/>
		<rect x="72.5" y="47.2" width="47.5" height="2.1"/>
		<rect x="72.5" y="51.5" width="25.4" height="2.1"/>
		<rect x="72.5" y="58.5" width="12.7" height="4.9"/>
		<g>
			<g>
				<path d="M66.9,67c0,3-2,5.5-4.4,5.5l-44.4,0c-2.4,0-4.4-2.5-4.4-5.5l0-41.7c0-3,2-5.5,4.4-5.5l44.4,0c2.4,0,4.4,2.5,4.4,5.5
					L66.9,67z M18,24.2c-0.5,0-0.9,0.5-0.9,1.1V67c0,0.6,0.4,1.1,0.9,1.1h44.4c0.5,0,0.9-0.5,0.9-1.1V25.3c0-0.6-0.4-1.1-0.9-1.1
					L18,24.2z M59.8,63.7H20.7v-6.6l8.9-11l4.4,5.5l14.2-17.6l11.6,14.3V63.7z"/>
			</g>
			<path d="M13.6,19.8l0,52.7l53.3,0l0-52.7L13.6,19.8z M64.2,68.9H16.5l0-45.7l47.7,0V68.9z"/>
		</g>
	</g>
</g>
<g id="Layer_2">
</g>
</svg>
