<?xml version="1.0" encoding="utf-8"?>
<!-- Generator: Adobe Illustrator 21.1.0, SVG Export Plug-In . SVG Version: 6.00 Build 0)  -->
<svg version="1.1" xmlns="http://www.w3.org/2000/svg" xmlns:xlink="http://www.w3.org/1999/xlink" x="0px" y="0px"
	 viewBox="0 0 600 494.1" enable-background="new 0 0 600 494.1" xml:space="preserve">
<g id="Layer_1">
	<g>
		<rect y="-0.3" fill="#FFFFFF" width="600" height="495"/>
	</g>
	<g>
		<path fill="#0A5995" d="M161.1,92.1c0,2-0.6,3.6-1.9,4.6c-1.3,1.1-3.1,1.6-5.4,1.6h-1.7v6.7h-4V86.3h6c2.3,0,4,0.5,5.2,1.5
			C160.5,88.7,161.1,90.2,161.1,92.1z M152.1,95.1h1.3c1.2,0,2.1-0.2,2.7-0.7c0.6-0.5,0.9-1.2,0.9-2.1c0-0.9-0.3-1.6-0.8-2.1
			c-0.5-0.4-1.3-0.7-2.4-0.7h-1.8V95.1z"/>
		<path fill="#0A5995" d="M172.8,105l-0.8-1.9h-0.1c-0.7,0.8-1.3,1.4-2,1.7c-0.7,0.3-1.6,0.5-2.7,0.5c-1.4,0-2.5-0.4-3.2-1.2
			c-0.8-0.8-1.2-1.9-1.2-3.4c0-1.5,0.5-2.6,1.6-3.4c1.1-0.7,2.7-1.1,4.8-1.2l2.5-0.1v-0.6c0-1.5-0.7-2.2-2.2-2.2c-1.1,0-2.5,0.3-4,1
			l-1.3-2.6c1.6-0.9,3.5-1.3,5.5-1.3c1.9,0,3.4,0.4,4.4,1.3s1.5,2.1,1.5,3.8v9.5H172.8z M171.6,98.4l-1.5,0.1c-1.1,0-2,0.2-2.5,0.6
			c-0.6,0.4-0.8,0.9-0.8,1.7c0,1.1,0.6,1.7,1.9,1.7c0.9,0,1.6-0.3,2.2-0.8c0.5-0.5,0.8-1.2,0.8-2.1V98.4z"/>
		<path fill="#0A5995" d="M192.1,105h-3.9v-8.4c0-1-0.2-1.8-0.6-2.3s-1-0.8-1.8-0.8c-1.1,0-1.9,0.4-2.4,1.1
			c-0.5,0.7-0.7,1.9-0.7,3.6v6.7h-3.9V90.7h3l0.5,1.8h0.2c0.4-0.7,1-1.2,1.8-1.6c0.8-0.4,1.6-0.5,2.6-0.5c1.7,0,2.9,0.5,3.8,1.4
			c0.9,0.9,1.3,2.2,1.3,3.9V105z"/>
		<path fill="#0A5995" d="M201.9,105.3c-2.3,0-4.1-0.6-5.4-1.9s-1.9-3.1-1.9-5.4c0-2.4,0.6-4.3,1.8-5.6s2.9-2,5-2
			c2,0,3.6,0.6,4.7,1.7c1.1,1.2,1.7,2.7,1.7,4.8v1.9h-9.2c0,1.1,0.4,2,1,2.6s1.5,0.9,2.6,0.9c0.9,0,1.7-0.1,2.4-0.3
			c0.8-0.2,1.6-0.5,2.4-0.9v3c-0.7,0.3-1.4,0.6-2.2,0.8C204,105.2,203,105.3,201.9,105.3z M201.4,93.2c-0.8,0-1.5,0.3-1.9,0.8
			c-0.5,0.5-0.7,1.3-0.8,2.2h5.5c0-1-0.3-1.7-0.8-2.2S202.2,93.2,201.4,93.2z"/>
		<path fill="#0A5995" d="M214.2,105h-3.9V85.1h3.9V105z"/>
		<path fill="#0A5995" d="M231.3,105h-4V89.6h-5.1v-3.3h14.1v3.3h-5.1V105z"/>
		<path fill="#0A5995" d="M238.2,87c0-1.3,0.7-1.9,2.1-1.9s2.1,0.6,2.1,1.9c0,0.6-0.2,1.1-0.5,1.4c-0.4,0.3-0.9,0.5-1.6,0.5
			C238.9,88.9,238.2,88.3,238.2,87z M242.2,105h-3.9V90.7h3.9V105z"/>
		<path fill="#0A5995" d="M251.7,102.1c0.7,0,1.5-0.1,2.5-0.4v2.9c-1,0.4-2.2,0.7-3.6,0.7c-1.6,0-2.7-0.4-3.4-1.2s-1.1-2-1.1-3.6
			v-6.9h-1.9V92l2.2-1.3l1.1-3h2.5v3h4v2.9h-4v6.9c0,0.6,0.2,1,0.5,1.2C250.8,102,251.2,102.1,251.7,102.1z"/>
		<path fill="#0A5995" d="M260.3,105h-3.9V85.1h3.9V105z"/>
		<path fill="#0A5995" d="M270.2,105.3c-2.3,0-4.1-0.6-5.4-1.9c-1.3-1.3-1.9-3.1-1.9-5.4c0-2.4,0.6-4.3,1.8-5.6c1.2-1.3,2.9-2,5-2
			c2,0,3.6,0.6,4.7,1.7s1.7,2.7,1.7,4.8v1.9h-9.2c0,1.1,0.4,2,1,2.6c0.6,0.6,1.5,0.9,2.6,0.9c0.9,0,1.7-0.1,2.4-0.3
			c0.8-0.2,1.6-0.5,2.4-0.9v3c-0.7,0.3-1.4,0.6-2.2,0.8C272.3,105.2,271.3,105.3,270.2,105.3z M269.7,93.2c-0.8,0-1.5,0.3-1.9,0.8
			s-0.7,1.3-0.8,2.2h5.5c0-1-0.3-1.7-0.8-2.2S270.5,93.2,269.7,93.2z"/>
		<path fill="#0A5995" d="M289,105h-3.9V86.3h10.7v3.3H289v4.8h6.4v3.2H289V105z"/>
		<path fill="#0A5995" d="M311.5,97.8c0,2.3-0.6,4.2-1.8,5.5c-1.2,1.3-2.9,2-5.1,2c-1.4,0-2.6-0.3-3.6-0.9c-1-0.6-1.9-1.5-2.4-2.6
			c-0.6-1.1-0.8-2.4-0.8-3.9c0-2.3,0.6-4.2,1.8-5.5s2.9-1.9,5.1-1.9c1.4,0,2.6,0.3,3.6,0.9c1,0.6,1.9,1.5,2.4,2.6
			C311.2,95,311.5,96.3,311.5,97.8z M301.6,97.8c0,1.4,0.2,2.5,0.7,3.2c0.5,0.7,1.2,1.1,2.3,1.1c1,0,1.8-0.4,2.2-1.1
			s0.7-1.8,0.7-3.2c0-1.4-0.2-2.5-0.7-3.2c-0.5-0.7-1.2-1.1-2.3-1.1c-1,0-1.8,0.4-2.3,1.1S301.6,96.4,301.6,97.8z"/>
		<path fill="#0A5995" d="M322.1,90.4c0.5,0,1,0,1.3,0.1l-0.3,3.7c-0.3-0.1-0.7-0.1-1.2-0.1c-1.2,0-2.2,0.3-2.9,1s-1,1.5-1,2.7v7.3
			h-3.9V90.7h3l0.6,2.4h0.2c0.4-0.8,1-1.4,1.8-1.9S321.2,90.4,322.1,90.4z"/>
		<path fill="#0A5995" d="M347.1,105h-4v-8.1h-7.4v8.1h-4V86.3h4v7.3h7.4v-7.3h4V105z"/>
		<path fill="#0A5995" d="M357.4,105.3c-2.3,0-4.1-0.6-5.4-1.9s-1.9-3.1-1.9-5.4c0-2.4,0.6-4.3,1.8-5.6s2.9-2,5-2
			c2,0,3.6,0.6,4.7,1.7c1.1,1.2,1.7,2.7,1.7,4.8v1.9H354c0,1.1,0.4,2,1,2.6s1.5,0.9,2.6,0.9c0.9,0,1.7-0.1,2.4-0.3
			c0.8-0.2,1.6-0.5,2.4-0.9v3c-0.7,0.3-1.4,0.6-2.2,0.8C359.5,105.2,358.5,105.3,357.4,105.3z M356.8,93.2c-0.8,0-1.5,0.3-1.9,0.8
			c-0.5,0.5-0.7,1.3-0.8,2.2h5.5c0-1-0.3-1.7-0.8-2.2S357.7,93.2,356.8,93.2z"/>
		<path fill="#0A5995" d="M374.8,105l-0.8-1.9H374c-0.7,0.8-1.3,1.4-2,1.7c-0.7,0.3-1.6,0.5-2.7,0.5c-1.4,0-2.5-0.4-3.2-1.2
			c-0.8-0.8-1.2-1.9-1.2-3.4c0-1.5,0.5-2.6,1.6-3.4c1.1-0.7,2.7-1.1,4.8-1.2l2.5-0.1v-0.6c0-1.5-0.7-2.2-2.2-2.2c-1.1,0-2.5,0.3-4,1
			l-1.3-2.6c1.6-0.9,3.5-1.3,5.5-1.3c1.9,0,3.4,0.4,4.4,1.3s1.5,2.1,1.5,3.8v9.5H374.8z M373.7,98.4l-1.5,0.1c-1.1,0-2,0.2-2.5,0.6
			c-0.6,0.4-0.8,0.9-0.8,1.7c0,1.1,0.6,1.7,1.9,1.7c0.9,0,1.6-0.3,2.2-0.8c0.5-0.5,0.8-1.2,0.8-2.1V98.4z"/>
		<path fill="#0A5995" d="M385.5,105.3c-1.7,0-3-0.7-4-2c-1-1.3-1.4-3.1-1.4-5.4c0-2.3,0.5-4.2,1.5-5.5c1-1.3,2.3-2,4-2
			c1.8,0,3.2,0.7,4.1,2.1h0.1c-0.2-1.1-0.3-2-0.3-2.9v-4.6h3.9V105h-3l-0.8-1.9h-0.2C388.6,104.6,387.3,105.3,385.5,105.3z
			 M386.8,102.1c1,0,1.7-0.3,2.2-0.9c0.5-0.6,0.7-1.6,0.8-3v-0.4c0-1.5-0.2-2.6-0.7-3.3c-0.5-0.7-1.2-1-2.3-1c-0.9,0-1.5,0.4-2,1.1
			c-0.5,0.7-0.7,1.8-0.7,3.2s0.2,2.5,0.7,3.2C385.2,101.8,385.9,102.1,386.8,102.1z"/>
		<path fill="#0A5995" d="M400.8,105h-3.9V85.1h3.9V105z"/>
		<path fill="#0A5995" d="M404.1,87c0-1.3,0.7-1.9,2.1-1.9s2.1,0.6,2.1,1.9c0,0.6-0.2,1.1-0.5,1.4s-0.9,0.5-1.6,0.5
			C404.8,88.9,404.1,88.3,404.1,87z M408.1,105h-3.9V90.7h3.9V105z"/>
		<path fill="#0A5995" d="M424.8,105h-3.9v-8.4c0-1-0.2-1.8-0.6-2.3s-1-0.8-1.8-0.8c-1.1,0-1.9,0.4-2.4,1.1
			c-0.5,0.7-0.7,1.9-0.7,3.6v6.7h-3.9V90.7h3l0.5,1.8h0.2c0.4-0.7,1-1.2,1.8-1.6s1.6-0.5,2.6-0.5c1.7,0,2.9,0.5,3.8,1.4
			c0.9,0.9,1.3,2.2,1.3,3.9V105z"/>
		<path fill="#0A5995" d="M434.6,105.3c-2.3,0-4.1-0.6-5.4-1.9c-1.3-1.3-1.9-3.1-1.9-5.4c0-2.4,0.6-4.3,1.8-5.6s2.9-2,5-2
			c2,0,3.6,0.6,4.7,1.7c1.1,1.2,1.7,2.7,1.7,4.8v1.9h-9.2c0,1.1,0.4,2,1,2.6c0.6,0.6,1.5,0.9,2.6,0.9c0.9,0,1.7-0.1,2.4-0.3
			c0.8-0.2,1.6-0.5,2.4-0.9v3c-0.7,0.3-1.4,0.6-2.2,0.8C436.7,105.2,435.8,105.3,434.6,105.3z M434.1,93.2c-0.8,0-1.5,0.3-1.9,0.8
			c-0.5,0.5-0.7,1.3-0.8,2.2h5.5c0-1-0.3-1.7-0.8-2.2C435.6,93.5,434.9,93.2,434.1,93.2z"/>
		<path fill="#0A5995" d="M453,100.7c0,1.5-0.5,2.6-1.5,3.4c-1,0.8-2.5,1.2-4.6,1.2c-1,0-1.9-0.1-2.7-0.2s-1.4-0.3-2.1-0.6v-3.2
			c0.7,0.3,1.5,0.6,2.5,0.9c0.9,0.2,1.7,0.3,2.4,0.3c1.4,0,2.1-0.4,2.1-1.2c0-0.3-0.1-0.6-0.3-0.7c-0.2-0.2-0.5-0.4-1-0.7
			c-0.5-0.2-1.1-0.5-1.8-0.9c-1.1-0.5-1.9-0.9-2.4-1.3s-0.9-0.8-1.1-1.4c-0.2-0.5-0.4-1.1-0.4-1.9c0-1.3,0.5-2.3,1.5-3
			c1-0.7,2.4-1,4.2-1c1.7,0,3.4,0.4,5,1.1l-1.2,2.8c-0.7-0.3-1.4-0.6-2-0.8s-1.3-0.3-1.9-0.3c-1.2,0-1.7,0.3-1.7,0.9
			c0,0.4,0.2,0.7,0.6,0.9c0.4,0.3,1.2,0.6,2.4,1.1c1.1,0.5,1.9,0.9,2.5,1.3c0.5,0.4,0.9,0.8,1.2,1.4C452.9,99.4,453,100,453,100.7z"
			/>
	</g>
	<rect x="19.6" y="143.5" fill="#E3F9FF" width="557.3" height="38"/>
	<g>
		<path fill="#0A5995" d="M67.4,163.1c0,2.1-0.5,3.7-1.5,4.8c-1,1.1-2.5,1.7-4.4,1.7c-1.9,0-3.4-0.6-4.4-1.7c-1-1.1-1.6-2.7-1.6-4.8
			s0.5-3.7,1.6-4.8s2.5-1.7,4.5-1.7s3.4,0.6,4.4,1.7C66.9,159.4,67.4,161,67.4,163.1z M58.2,163.1c0,1.4,0.3,2.5,0.8,3.2
			c0.5,0.7,1.3,1.1,2.4,1.1c2.1,0,3.2-1.4,3.2-4.2c0-2.8-1.1-4.3-3.2-4.3c-1.1,0-1.9,0.4-2.4,1.1C58.4,160.7,58.2,161.7,58.2,163.1z
			"/>
		<path fill="#0A5995" d="M74.6,169.6c-1.1,0-2-0.4-2.7-1.2h-0.1c0.1,0.8,0.1,1.3,0.1,1.4v3.9h-2.6v-13.9h2.1l0.4,1.2H72
			c0.6-1,1.5-1.4,2.7-1.4c1.1,0,2,0.4,2.7,1.3c0.6,0.9,1,2.1,1,3.7c0,1-0.2,1.9-0.5,2.7c-0.3,0.8-0.7,1.3-1.3,1.7
			S75.4,169.6,74.6,169.6z M73.8,161.7c-0.6,0-1.1,0.2-1.4,0.6c-0.3,0.4-0.5,1.1-0.5,2v0.3c0,1,0.2,1.8,0.5,2.2
			c0.3,0.4,0.8,0.7,1.5,0.7c1.2,0,1.8-1,1.8-2.9c0-0.9-0.1-1.7-0.4-2.1S74.5,161.7,73.8,161.7z"/>
		<path fill="#0A5995" d="M84.4,169.6c-1.5,0-2.8-0.4-3.6-1.3c-0.9-0.9-1.3-2.1-1.3-3.6c0-1.6,0.4-2.9,1.2-3.7
			c0.8-0.9,1.9-1.3,3.3-1.3c1.4,0,2.4,0.4,3.2,1.2c0.8,0.8,1.1,1.8,1.1,3.2v1.3h-6.2c0,0.7,0.2,1.3,0.7,1.7c0.4,0.4,1,0.6,1.7,0.6
			c0.6,0,1.1-0.1,1.6-0.2c0.5-0.1,1.1-0.3,1.6-0.6v2c-0.5,0.2-1,0.4-1.5,0.5C85.8,169.5,85.2,169.6,84.4,169.6z M84,161.5
			c-0.6,0-1,0.2-1.3,0.5c-0.3,0.4-0.5,0.9-0.5,1.5h3.7c0-0.6-0.2-1.1-0.5-1.5C85,161.7,84.6,161.5,84,161.5z"/>
		<path fill="#0A5995" d="M98.9,169.4h-2.6v-5.6c0-0.7-0.1-1.2-0.4-1.6s-0.6-0.5-1.2-0.5c-0.7,0-1.3,0.2-1.6,0.7
			c-0.3,0.5-0.5,1.3-0.5,2.4v4.5H90v-9.6h2l0.4,1.2h0.1c0.3-0.5,0.7-0.8,1.2-1.1s1.1-0.4,1.8-0.4c1.1,0,2,0.3,2.5,0.9
			s0.9,1.5,0.9,2.6V169.4z"/>
		<path fill="#0A5995" d="M113.2,169.4l-0.9-3h-4.6l-0.9,3h-2.9l4.4-12.6h3.3l4.5,12.6H113.2z M111.7,164.2
			c-0.8-2.7-1.3-4.3-1.4-4.6c-0.1-0.4-0.2-0.6-0.2-0.8c-0.2,0.7-0.7,2.6-1.6,5.5H111.7z"/>
		<path fill="#0A5995" d="M121,169.6c-3,0-4.5-1.6-4.5-4.9c0-1.6,0.4-2.9,1.2-3.8c0.8-0.9,2-1.3,3.5-1.3c1.1,0,2.1,0.2,3,0.7l-0.8,2
			c-0.4-0.2-0.8-0.3-1.2-0.4c-0.4-0.1-0.7-0.2-1.1-0.2c-1.4,0-2,1-2,2.9c0,1.9,0.7,2.8,2,2.8c0.5,0,1-0.1,1.4-0.2s0.9-0.3,1.3-0.6
			v2.2c-0.4,0.3-0.9,0.5-1.3,0.6C122.2,169.6,121.6,169.6,121,169.6z"/>
		<path fill="#0A5995" d="M129.6,169.6c-3,0-4.5-1.6-4.5-4.9c0-1.6,0.4-2.9,1.2-3.8c0.8-0.9,2-1.3,3.5-1.3c1.1,0,2.1,0.2,3,0.7
			l-0.8,2c-0.4-0.2-0.8-0.3-1.2-0.4c-0.4-0.1-0.7-0.2-1.1-0.2c-1.4,0-2,1-2,2.9c0,1.9,0.7,2.8,2,2.8c0.5,0,1-0.1,1.4-0.2
			s0.9-0.3,1.3-0.6v2.2c-0.4,0.3-0.9,0.5-1.3,0.6C130.8,169.6,130.2,169.6,129.6,169.6z"/>
		<path fill="#0A5995" d="M143.1,164.6c0,1.6-0.4,2.8-1.2,3.7c-0.8,0.9-2,1.3-3.5,1.3c-0.9,0-1.7-0.2-2.4-0.6
			c-0.7-0.4-1.2-1-1.6-1.7s-0.6-1.6-0.6-2.7c0-1.6,0.4-2.8,1.2-3.7c0.8-0.9,2-1.3,3.5-1.3c0.9,0,1.7,0.2,2.4,0.6
			c0.7,0.4,1.2,1,1.6,1.7C142.9,162.7,143.1,163.6,143.1,164.6z M136.4,164.6c0,1,0.2,1.7,0.5,2.2c0.3,0.5,0.8,0.7,1.5,0.7
			c0.7,0,1.2-0.2,1.5-0.7c0.3-0.5,0.5-1.2,0.5-2.2c0-1-0.2-1.7-0.5-2.1c-0.3-0.5-0.8-0.7-1.5-0.7c-0.7,0-1.2,0.2-1.5,0.7
			C136.6,162.9,136.4,163.6,136.4,164.6z"/>
		<path fill="#0A5995" d="M150.2,159.6c0.4,0,0.7,0,0.9,0.1l-0.2,2.5c-0.2-0.1-0.5-0.1-0.8-0.1c-0.8,0-1.5,0.2-2,0.6s-0.7,1-0.7,1.8
			v4.9h-2.6v-9.6h2l0.4,1.6h0.1c0.3-0.5,0.7-1,1.2-1.3C149,159.8,149.6,159.6,150.2,159.6z"/>
		<path fill="#0A5995" d="M155.4,169.6c-1.1,0-2-0.4-2.7-1.3c-0.6-0.9-1-2.1-1-3.7c0-1.6,0.3-2.8,1-3.7c0.7-0.9,1.6-1.3,2.7-1.3
			c1.2,0,2.1,0.5,2.8,1.4h0.1c-0.1-0.7-0.2-1.4-0.2-1.9V156h2.6v13.4h-2l-0.5-1.2h-0.1C157.5,169.1,156.6,169.6,155.4,169.6z
			 M156.3,167.5c0.7,0,1.2-0.2,1.5-0.6c0.3-0.4,0.5-1.1,0.5-2v-0.3c0-1-0.2-1.8-0.5-2.2c-0.3-0.4-0.8-0.7-1.6-0.7
			c-0.6,0-1,0.2-1.4,0.7c-0.3,0.5-0.5,1.2-0.5,2.2s0.2,1.7,0.5,2.1S155.7,167.5,156.3,167.5z"/>
		<path fill="#0A5995" d="M163,157.3c0-0.9,0.5-1.3,1.4-1.3s1.4,0.4,1.4,1.3c0,0.4-0.1,0.7-0.4,1c-0.2,0.2-0.6,0.3-1.1,0.3
			C163.4,158.6,163,158.2,163,157.3z M165.7,169.4h-2.6v-9.6h2.6V169.4z"/>
		<path fill="#0A5995" d="M176.8,164.6c0,1.6-0.4,2.8-1.2,3.7c-0.8,0.9-2,1.3-3.5,1.3c-0.9,0-1.7-0.2-2.4-0.6
			c-0.7-0.4-1.2-1-1.6-1.7s-0.6-1.6-0.6-2.7c0-1.6,0.4-2.8,1.2-3.7c0.8-0.9,2-1.3,3.5-1.3c0.9,0,1.7,0.2,2.4,0.6
			c0.7,0.4,1.2,1,1.6,1.7C176.6,162.7,176.8,163.6,176.8,164.6z M170.1,164.6c0,1,0.2,1.7,0.5,2.2c0.3,0.5,0.8,0.7,1.5,0.7
			c0.7,0,1.2-0.2,1.5-0.7c0.3-0.5,0.5-1.2,0.5-2.2c0-1-0.2-1.7-0.5-2.1c-0.3-0.5-0.8-0.7-1.5-0.7c-0.7,0-1.2,0.2-1.5,0.7
			C170.3,162.9,170.1,163.6,170.1,164.6z"/>
		<path fill="#0A5995" d="M187.4,169.4h-2.6v-5.6c0-0.7-0.1-1.2-0.4-1.6s-0.6-0.5-1.2-0.5c-0.7,0-1.3,0.2-1.6,0.7
			c-0.3,0.5-0.5,1.3-0.5,2.4v4.5h-2.6v-9.6h2l0.4,1.2h0.1c0.3-0.5,0.7-0.8,1.2-1.1s1.1-0.4,1.8-0.4c1.1,0,2,0.3,2.5,0.9
			s0.9,1.5,0.9,2.6V169.4z"/>
	</g>
	<g>
		<g>
			<path fill="#0A5995" d="M579,272.2H17.8V141.7H579V272.2z M20.8,269.2H576V144.7H20.8V269.2z"/>
		</g>
	</g>
	<g>
		<g>
			<path fill="#0A5995" d="M579,184.2H17.8v-42.4H579V184.2z M20.8,181.2H576v-36.4H20.8V181.2z"/>
		</g>
	</g>
	<g>
		<path fill="#0A5995" d="M33,165.5v-3.7h6.6v3.7H33z"/>
	</g>
	<g>
		<path fill="#0A5995" d="M61.3,294.2c-1,0-1.8,0.4-2.3,1.1c-0.6,0.8-0.8,1.8-0.8,3.2c0,2.8,1.1,4.2,3.2,4.2c0.9,0,2-0.2,3.2-0.7
			v2.2c-1,0.4-2.2,0.6-3.5,0.6c-1.8,0-3.2-0.6-4.2-1.7c-1-1.1-1.5-2.7-1.5-4.8c0-1.3,0.2-2.5,0.7-3.4s1.2-1.7,2.1-2.3
			c0.9-0.5,1.9-0.8,3.1-0.8c1.2,0,2.5,0.3,3.7,0.9l-0.9,2.2c-0.5-0.2-0.9-0.4-1.4-0.6C62.2,294.3,61.7,294.2,61.3,294.2z"/>
		<path fill="#0A5995" d="M69.2,304.8h-2.6v-13.4h2.6V304.8z"/>
		<path fill="#0A5995" d="M80.2,299.9c0,1.6-0.4,2.8-1.2,3.7c-0.8,0.9-2,1.3-3.5,1.3c-0.9,0-1.7-0.2-2.4-0.6c-0.7-0.4-1.2-1-1.6-1.7
			s-0.6-1.6-0.6-2.7c0-1.6,0.4-2.8,1.2-3.7c0.8-0.9,2-1.3,3.5-1.3c0.9,0,1.7,0.2,2.4,0.6c0.7,0.4,1.2,1,1.6,1.7
			C80,298,80.2,298.9,80.2,299.9z M73.6,299.9c0,1,0.2,1.7,0.5,2.2c0.3,0.5,0.8,0.7,1.5,0.7c0.7,0,1.2-0.2,1.5-0.7
			c0.3-0.5,0.5-1.2,0.5-2.2c0-1-0.2-1.7-0.5-2.1c-0.3-0.5-0.8-0.7-1.5-0.7c-0.7,0-1.2,0.2-1.5,0.7C73.7,298.3,73.6,299,73.6,299.9z"
			/>
		<path fill="#0A5995" d="M88.7,301.9c0,1-0.3,1.7-1,2.3c-0.7,0.5-1.7,0.8-3.1,0.8c-0.7,0-1.3,0-1.8-0.1c-0.5-0.1-1-0.2-1.4-0.4
			v-2.2c0.5,0.2,1,0.4,1.6,0.6c0.6,0.2,1.1,0.2,1.6,0.2c1,0,1.4-0.3,1.4-0.8c0-0.2-0.1-0.4-0.2-0.5c-0.1-0.1-0.3-0.3-0.7-0.4
			c-0.3-0.2-0.7-0.4-1.2-0.6c-0.7-0.3-1.3-0.6-1.6-0.9c-0.3-0.3-0.6-0.6-0.8-0.9c-0.2-0.3-0.2-0.8-0.2-1.3c0-0.9,0.3-1.5,1-2
			c0.7-0.5,1.6-0.7,2.8-0.7c1.2,0,2.3,0.3,3.4,0.8l-0.8,1.9c-0.5-0.2-0.9-0.4-1.4-0.5c-0.4-0.1-0.8-0.2-1.3-0.2
			c-0.8,0-1.2,0.2-1.2,0.6c0,0.2,0.1,0.4,0.4,0.6c0.2,0.2,0.8,0.4,1.6,0.8c0.8,0.3,1.3,0.6,1.7,0.9c0.4,0.3,0.6,0.6,0.8,0.9
			C88.6,301,88.7,301.4,88.7,301.9z"/>
		<path fill="#0A5995" d="M94.6,304.9c-1.5,0-2.8-0.4-3.6-1.3c-0.9-0.9-1.3-2.1-1.3-3.6c0-1.6,0.4-2.9,1.2-3.7
			c0.8-0.9,1.9-1.3,3.3-1.3c1.4,0,2.4,0.4,3.2,1.2c0.8,0.8,1.1,1.8,1.1,3.2v1.3h-6.2c0,0.7,0.2,1.3,0.7,1.7c0.4,0.4,1,0.6,1.7,0.6
			c0.6,0,1.1-0.1,1.6-0.2c0.5-0.1,1.1-0.3,1.6-0.6v2c-0.5,0.2-1,0.4-1.5,0.5C96,304.9,95.4,304.9,94.6,304.9z M94.3,296.8
			c-0.6,0-1,0.2-1.3,0.5c-0.3,0.4-0.5,0.9-0.5,1.5h3.7c0-0.6-0.2-1.1-0.5-1.5C95.3,297,94.8,296.8,94.3,296.8z"/>
		<path fill="#0A5995" d="M103.3,304.9c-1.1,0-2-0.4-2.7-1.3c-0.6-0.9-1-2.1-1-3.7c0-1.6,0.3-2.8,1-3.7c0.7-0.9,1.6-1.3,2.7-1.3
			c1.2,0,2.1,0.5,2.8,1.4h0.1c-0.1-0.7-0.2-1.4-0.2-1.9v-3.1h2.6v13.4h-2l-0.5-1.2H106C105.4,304.5,104.5,304.9,103.3,304.9z
			 M104.2,302.8c0.7,0,1.2-0.2,1.5-0.6c0.3-0.4,0.5-1.1,0.5-2V300c0-1-0.2-1.8-0.5-2.2c-0.3-0.4-0.8-0.7-1.6-0.7
			c-0.6,0-1,0.2-1.4,0.7c-0.3,0.5-0.5,1.2-0.5,2.2s0.2,1.7,0.5,2.1S103.6,302.8,104.2,302.8z"/>
		<path fill="#0A5995" d="M123,304.8l-0.9-3h-4.6l-0.9,3h-2.9l4.4-12.6h3.3l4.5,12.6H123z M121.5,299.5c-0.8-2.7-1.3-4.3-1.4-4.6
			c-0.1-0.4-0.2-0.6-0.2-0.8c-0.2,0.7-0.7,2.6-1.6,5.5H121.5z"/>
		<path fill="#0A5995" d="M130.8,304.9c-3,0-4.5-1.6-4.5-4.9c0-1.6,0.4-2.9,1.2-3.8c0.8-0.9,2-1.3,3.5-1.3c1.1,0,2.1,0.2,3,0.7
			l-0.8,2c-0.4-0.2-0.8-0.3-1.2-0.4c-0.4-0.1-0.7-0.2-1.1-0.2c-1.4,0-2,1-2,2.9c0,1.9,0.7,2.8,2,2.8c0.5,0,1-0.1,1.4-0.2
			s0.9-0.3,1.3-0.6v2.2c-0.4,0.3-0.9,0.5-1.3,0.6C132,304.9,131.4,304.9,130.8,304.9z"/>
		<path fill="#0A5995" d="M139.4,304.9c-3,0-4.5-1.6-4.5-4.9c0-1.6,0.4-2.9,1.2-3.8c0.8-0.9,2-1.3,3.5-1.3c1.1,0,2.1,0.2,3,0.7
			l-0.8,2c-0.4-0.2-0.8-0.3-1.2-0.4c-0.4-0.1-0.7-0.2-1.1-0.2c-1.4,0-2,1-2,2.9c0,1.9,0.7,2.8,2,2.8c0.5,0,1-0.1,1.4-0.2
			s0.9-0.3,1.3-0.6v2.2c-0.4,0.3-0.9,0.5-1.3,0.6C140.6,304.9,140,304.9,139.4,304.9z"/>
		<path fill="#0A5995" d="M152.8,299.9c0,1.6-0.4,2.8-1.2,3.7c-0.8,0.9-2,1.3-3.5,1.3c-0.9,0-1.7-0.2-2.4-0.6
			c-0.7-0.4-1.2-1-1.6-1.7s-0.6-1.6-0.6-2.7c0-1.6,0.4-2.8,1.2-3.7c0.8-0.9,2-1.3,3.5-1.3c0.9,0,1.7,0.2,2.4,0.6
			c0.7,0.4,1.2,1,1.6,1.7C152.7,298,152.8,298.9,152.8,299.9z M146.2,299.9c0,1,0.2,1.7,0.5,2.2c0.3,0.5,0.8,0.7,1.5,0.7
			c0.7,0,1.2-0.2,1.5-0.7c0.3-0.5,0.5-1.2,0.5-2.2c0-1-0.2-1.7-0.5-2.1c-0.3-0.5-0.8-0.7-1.5-0.7c-0.7,0-1.2,0.2-1.5,0.7
			C146.3,298.3,146.2,299,146.2,299.9z"/>
		<path fill="#0A5995" d="M160,295c0.4,0,0.7,0,0.9,0.1l-0.2,2.5c-0.2-0.1-0.5-0.1-0.8-0.1c-0.8,0-1.5,0.2-2,0.6s-0.7,1-0.7,1.8v4.9
			h-2.6v-9.6h2l0.4,1.6h0.1c0.3-0.5,0.7-1,1.2-1.3C158.8,295.1,159.4,295,160,295z"/>
		<path fill="#0A5995" d="M165.2,304.9c-1.1,0-2-0.4-2.7-1.3c-0.6-0.9-1-2.1-1-3.7c0-1.6,0.3-2.8,1-3.7c0.7-0.9,1.6-1.3,2.7-1.3
			c1.2,0,2.1,0.5,2.8,1.4h0.1c-0.1-0.7-0.2-1.4-0.2-1.9v-3.1h2.6v13.4h-2l-0.5-1.2h-0.1C167.3,304.5,166.4,304.9,165.2,304.9z
			 M166.1,302.8c0.7,0,1.2-0.2,1.5-0.6c0.3-0.4,0.5-1.1,0.5-2V300c0-1-0.2-1.8-0.5-2.2c-0.3-0.4-0.8-0.7-1.6-0.7
			c-0.6,0-1,0.2-1.4,0.7c-0.3,0.5-0.5,1.2-0.5,2.2s0.2,1.7,0.5,2.1S165.5,302.8,166.1,302.8z"/>
		<path fill="#0A5995" d="M172.8,292.6c0-0.9,0.5-1.3,1.4-1.3s1.4,0.4,1.4,1.3c0,0.4-0.1,0.7-0.4,1c-0.2,0.2-0.6,0.3-1.1,0.3
			C173.2,293.9,172.8,293.5,172.8,292.6z M175.5,304.8h-2.6v-9.6h2.6V304.8z"/>
		<path fill="#0A5995" d="M186.6,299.9c0,1.6-0.4,2.8-1.2,3.7c-0.8,0.9-2,1.3-3.5,1.3c-0.9,0-1.7-0.2-2.4-0.6
			c-0.7-0.4-1.2-1-1.6-1.7s-0.6-1.6-0.6-2.7c0-1.6,0.4-2.8,1.2-3.7c0.8-0.9,2-1.3,3.5-1.3c0.9,0,1.7,0.2,2.4,0.6
			c0.7,0.4,1.2,1,1.6,1.7C186.4,298,186.6,298.9,186.6,299.9z M179.9,299.9c0,1,0.2,1.7,0.5,2.2c0.3,0.5,0.8,0.7,1.5,0.7
			c0.7,0,1.2-0.2,1.5-0.7c0.3-0.5,0.5-1.2,0.5-2.2c0-1-0.2-1.7-0.5-2.1c-0.3-0.5-0.8-0.7-1.5-0.7c-0.7,0-1.2,0.2-1.5,0.7
			C180.1,298.3,179.9,299,179.9,299.9z"/>
		<path fill="#0A5995" d="M197.2,304.8h-2.6v-5.6c0-0.7-0.1-1.2-0.4-1.6s-0.6-0.5-1.2-0.5c-0.7,0-1.3,0.2-1.6,0.7
			c-0.3,0.5-0.5,1.3-0.5,2.4v4.5h-2.6v-9.6h2l0.4,1.2h0.1c0.3-0.5,0.7-0.8,1.2-1.1s1.1-0.4,1.8-0.4c1.1,0,2,0.3,2.5,0.9
			s0.9,1.5,0.9,2.6V304.8z"/>
	</g>
	<g>
		<g>
			<path fill="#0A5995" d="M579,319.5H17.8v-42.4H579V319.5z M20.8,316.5H576v-36.4H20.8V316.5z"/>
		</g>
	</g>
	<g>
		<path fill="#0A5995" d="M35.7,300.5h-4.4v-3.1h4.4v-4.3h3.2v4.3h4.4v3.1h-4.4v4.2h-3.2V300.5z"/>
	</g>
	<g>
		<path fill="#0A5995" d="M61.3,340.2c-1,0-1.8,0.4-2.3,1.1c-0.6,0.8-0.8,1.8-0.8,3.2c0,2.8,1.1,4.2,3.2,4.2c0.9,0,2-0.2,3.2-0.7
			v2.2c-1,0.4-2.2,0.6-3.5,0.6c-1.8,0-3.2-0.6-4.2-1.7c-1-1.1-1.5-2.7-1.5-4.8c0-1.3,0.2-2.5,0.7-3.4s1.2-1.7,2.1-2.3
			c0.9-0.5,1.9-0.8,3.1-0.8c1.2,0,2.5,0.3,3.7,0.9l-0.9,2.2c-0.5-0.2-0.9-0.4-1.4-0.6C62.2,340.3,61.7,340.2,61.3,340.2z"/>
		<path fill="#0A5995" d="M69.2,350.8h-2.6v-13.4h2.6V350.8z"/>
		<path fill="#0A5995" d="M80.2,345.9c0,1.6-0.4,2.8-1.2,3.7c-0.8,0.9-2,1.3-3.5,1.3c-0.9,0-1.7-0.2-2.4-0.6c-0.7-0.4-1.2-1-1.6-1.7
			s-0.6-1.6-0.6-2.7c0-1.6,0.4-2.8,1.2-3.7c0.8-0.9,2-1.3,3.5-1.3c0.9,0,1.7,0.2,2.4,0.6c0.7,0.4,1.2,1,1.6,1.7
			C80,344,80.2,344.9,80.2,345.9z M73.6,345.9c0,1,0.2,1.7,0.5,2.2c0.3,0.5,0.8,0.7,1.5,0.7c0.7,0,1.2-0.2,1.5-0.7
			c0.3-0.5,0.5-1.2,0.5-2.2c0-1-0.2-1.7-0.5-2.1c-0.3-0.5-0.8-0.7-1.5-0.7c-0.7,0-1.2,0.2-1.5,0.7C73.7,344.3,73.6,345,73.6,345.9z"
			/>
		<path fill="#0A5995" d="M88.7,347.9c0,1-0.3,1.7-1,2.3c-0.7,0.5-1.7,0.8-3.1,0.8c-0.7,0-1.3,0-1.8-0.1c-0.5-0.1-1-0.2-1.4-0.4
			v-2.2c0.5,0.2,1,0.4,1.6,0.6c0.6,0.2,1.1,0.2,1.6,0.2c1,0,1.4-0.3,1.4-0.8c0-0.2-0.1-0.4-0.2-0.5c-0.1-0.1-0.3-0.3-0.7-0.4
			c-0.3-0.2-0.7-0.4-1.2-0.6c-0.7-0.3-1.3-0.6-1.6-0.9c-0.3-0.3-0.6-0.6-0.8-0.9c-0.2-0.3-0.2-0.8-0.2-1.3c0-0.9,0.3-1.5,1-2
			c0.7-0.5,1.6-0.7,2.8-0.7c1.2,0,2.3,0.3,3.4,0.8l-0.8,1.9c-0.5-0.2-0.9-0.4-1.4-0.5c-0.4-0.1-0.8-0.2-1.3-0.2
			c-0.8,0-1.2,0.2-1.2,0.6c0,0.2,0.1,0.4,0.4,0.6c0.2,0.2,0.8,0.4,1.6,0.8c0.8,0.3,1.3,0.6,1.7,0.9c0.4,0.3,0.6,0.6,0.8,0.9
			C88.6,347,88.7,347.4,88.7,347.9z"/>
		<path fill="#0A5995" d="M94.6,350.9c-1.5,0-2.8-0.4-3.6-1.3c-0.9-0.9-1.3-2.1-1.3-3.6c0-1.6,0.4-2.9,1.2-3.7
			c0.8-0.9,1.9-1.3,3.3-1.3c1.4,0,2.4,0.4,3.2,1.2c0.8,0.8,1.1,1.8,1.1,3.2v1.3h-6.2c0,0.7,0.2,1.3,0.7,1.7c0.4,0.4,1,0.6,1.7,0.6
			c0.6,0,1.1-0.1,1.6-0.2c0.5-0.1,1.1-0.3,1.6-0.6v2c-0.5,0.2-1,0.4-1.5,0.5C96,350.9,95.4,350.9,94.6,350.9z M94.3,342.8
			c-0.6,0-1,0.2-1.3,0.5c-0.3,0.4-0.5,0.9-0.5,1.5h3.7c0-0.6-0.2-1.1-0.5-1.5C95.3,343,94.8,342.8,94.3,342.8z"/>
		<path fill="#0A5995" d="M103.3,350.9c-1.1,0-2-0.4-2.7-1.3c-0.6-0.9-1-2.1-1-3.7c0-1.6,0.3-2.8,1-3.7c0.7-0.9,1.6-1.3,2.7-1.3
			c1.2,0,2.1,0.5,2.8,1.4h0.1c-0.1-0.7-0.2-1.4-0.2-1.9v-3.1h2.6v13.4h-2l-0.5-1.2H106C105.4,350.5,104.5,350.9,103.3,350.9z
			 M104.2,348.8c0.7,0,1.2-0.2,1.5-0.6c0.3-0.4,0.5-1.1,0.5-2V346c0-1-0.2-1.8-0.5-2.2c-0.3-0.4-0.8-0.7-1.6-0.7
			c-0.6,0-1,0.2-1.4,0.7c-0.3,0.5-0.5,1.2-0.5,2.2s0.2,1.7,0.5,2.1S103.6,348.8,104.2,348.8z"/>
		<path fill="#0A5995" d="M123,350.8l-0.9-3h-4.6l-0.9,3h-2.9l4.4-12.6h3.3l4.5,12.6H123z M121.5,345.5c-0.8-2.7-1.3-4.3-1.4-4.6
			c-0.1-0.4-0.2-0.6-0.2-0.8c-0.2,0.7-0.7,2.6-1.6,5.5H121.5z"/>
		<path fill="#0A5995" d="M130.8,350.9c-3,0-4.5-1.6-4.5-4.9c0-1.6,0.4-2.9,1.2-3.8c0.8-0.9,2-1.3,3.5-1.3c1.1,0,2.1,0.2,3,0.7
			l-0.8,2c-0.4-0.2-0.8-0.3-1.2-0.4c-0.4-0.1-0.7-0.2-1.1-0.2c-1.4,0-2,1-2,2.9c0,1.9,0.7,2.8,2,2.8c0.5,0,1-0.1,1.4-0.2
			s0.9-0.3,1.3-0.6v2.2c-0.4,0.3-0.9,0.5-1.3,0.6C132,350.9,131.4,350.9,130.8,350.9z"/>
		<path fill="#0A5995" d="M139.4,350.9c-3,0-4.5-1.6-4.5-4.9c0-1.6,0.4-2.9,1.2-3.8c0.8-0.9,2-1.3,3.5-1.3c1.1,0,2.1,0.2,3,0.7
			l-0.8,2c-0.4-0.2-0.8-0.3-1.2-0.4c-0.4-0.1-0.7-0.2-1.1-0.2c-1.4,0-2,1-2,2.9c0,1.9,0.7,2.8,2,2.8c0.5,0,1-0.1,1.4-0.2
			s0.9-0.3,1.3-0.6v2.2c-0.4,0.3-0.9,0.5-1.3,0.6C140.6,350.9,140,350.9,139.4,350.9z"/>
		<path fill="#0A5995" d="M152.8,345.9c0,1.6-0.4,2.8-1.2,3.7c-0.8,0.9-2,1.3-3.5,1.3c-0.9,0-1.7-0.2-2.4-0.6
			c-0.7-0.4-1.2-1-1.6-1.7s-0.6-1.6-0.6-2.7c0-1.6,0.4-2.8,1.2-3.7c0.8-0.9,2-1.3,3.5-1.3c0.9,0,1.7,0.2,2.4,0.6
			c0.7,0.4,1.2,1,1.6,1.7C152.7,344,152.8,344.9,152.8,345.9z M146.2,345.9c0,1,0.2,1.7,0.5,2.2c0.3,0.5,0.8,0.7,1.5,0.7
			c0.7,0,1.2-0.2,1.5-0.7c0.3-0.5,0.5-1.2,0.5-2.2c0-1-0.2-1.7-0.5-2.1c-0.3-0.5-0.8-0.7-1.5-0.7c-0.7,0-1.2,0.2-1.5,0.7
			C146.3,344.3,146.2,345,146.2,345.9z"/>
		<path fill="#0A5995" d="M160,341c0.4,0,0.7,0,0.9,0.1l-0.2,2.5c-0.2-0.1-0.5-0.1-0.8-0.1c-0.8,0-1.5,0.2-2,0.6s-0.7,1-0.7,1.8v4.9
			h-2.6v-9.6h2l0.4,1.6h0.1c0.3-0.5,0.7-1,1.2-1.3C158.8,341.1,159.4,341,160,341z"/>
		<path fill="#0A5995" d="M165.2,350.9c-1.1,0-2-0.4-2.7-1.3c-0.6-0.9-1-2.1-1-3.7c0-1.6,0.3-2.8,1-3.7c0.7-0.9,1.6-1.3,2.7-1.3
			c1.2,0,2.1,0.5,2.8,1.4h0.1c-0.1-0.7-0.2-1.4-0.2-1.9v-3.1h2.6v13.4h-2l-0.5-1.2h-0.1C167.3,350.5,166.4,350.9,165.2,350.9z
			 M166.1,348.8c0.7,0,1.2-0.2,1.5-0.6c0.3-0.4,0.5-1.1,0.5-2V346c0-1-0.2-1.8-0.5-2.2c-0.3-0.4-0.8-0.7-1.6-0.7
			c-0.6,0-1,0.2-1.4,0.7c-0.3,0.5-0.5,1.2-0.5,2.2s0.2,1.7,0.5,2.1S165.5,348.8,166.1,348.8z"/>
		<path fill="#0A5995" d="M172.8,338.6c0-0.9,0.5-1.3,1.4-1.3s1.4,0.4,1.4,1.3c0,0.4-0.1,0.7-0.4,1c-0.2,0.2-0.6,0.3-1.1,0.3
			C173.2,339.9,172.8,339.5,172.8,338.6z M175.5,350.8h-2.6v-9.6h2.6V350.8z"/>
		<path fill="#0A5995" d="M186.6,345.9c0,1.6-0.4,2.8-1.2,3.7c-0.8,0.9-2,1.3-3.5,1.3c-0.9,0-1.7-0.2-2.4-0.6
			c-0.7-0.4-1.2-1-1.6-1.7s-0.6-1.6-0.6-2.7c0-1.6,0.4-2.8,1.2-3.7c0.8-0.9,2-1.3,3.5-1.3c0.9,0,1.7,0.2,2.4,0.6
			c0.7,0.4,1.2,1,1.6,1.7C186.4,344,186.6,344.9,186.6,345.9z M179.9,345.9c0,1,0.2,1.7,0.5,2.2c0.3,0.5,0.8,0.7,1.5,0.7
			c0.7,0,1.2-0.2,1.5-0.7c0.3-0.5,0.5-1.2,0.5-2.2c0-1-0.2-1.7-0.5-2.1c-0.3-0.5-0.8-0.7-1.5-0.7c-0.7,0-1.2,0.2-1.5,0.7
			C180.1,344.3,179.9,345,179.9,345.9z"/>
		<path fill="#0A5995" d="M197.2,350.8h-2.6v-5.6c0-0.7-0.1-1.2-0.4-1.6s-0.6-0.5-1.2-0.5c-0.7,0-1.3,0.2-1.6,0.7
			c-0.3,0.5-0.5,1.3-0.5,2.4v4.5h-2.6v-9.6h2l0.4,1.2h0.1c0.3-0.5,0.7-0.8,1.2-1.1s1.1-0.4,1.8-0.4c1.1,0,2,0.3,2.5,0.9
			s0.9,1.5,0.9,2.6V350.8z"/>
	</g>
	<g>
		<g>
			<path fill="#0A5995" d="M579,365.5H17.8v-42.4H579V365.5z M20.8,362.5H576v-36.4H20.8V362.5z"/>
		</g>
	</g>
	<g>
		<path fill="#0A5995" d="M35.7,346.5h-4.4v-3.1h4.4v-4.3h3.2v4.3h4.4v3.1h-4.4v4.2h-3.2V346.5z"/>
	</g>
	<g>
		<path fill="#0A5995" d="M61.3,388.2c-1,0-1.8,0.4-2.3,1.1c-0.6,0.8-0.8,1.8-0.8,3.2c0,2.8,1.1,4.2,3.2,4.2c0.9,0,2-0.2,3.2-0.7
			v2.2c-1,0.4-2.2,0.6-3.5,0.6c-1.8,0-3.2-0.6-4.2-1.7c-1-1.1-1.5-2.7-1.5-4.8c0-1.3,0.2-2.5,0.7-3.4s1.2-1.7,2.1-2.3
			c0.9-0.5,1.9-0.8,3.1-0.8c1.2,0,2.5,0.3,3.7,0.9l-0.9,2.2c-0.5-0.2-0.9-0.4-1.4-0.6C62.2,388.3,61.7,388.2,61.3,388.2z"/>
		<path fill="#0A5995" d="M69.2,398.8h-2.6v-13.4h2.6V398.8z"/>
		<path fill="#0A5995" d="M80.2,393.9c0,1.6-0.4,2.8-1.2,3.7c-0.8,0.9-2,1.3-3.5,1.3c-0.9,0-1.7-0.2-2.4-0.6c-0.7-0.4-1.2-1-1.6-1.7
			s-0.6-1.6-0.6-2.7c0-1.6,0.4-2.8,1.2-3.7c0.8-0.9,2-1.3,3.5-1.3c0.9,0,1.7,0.2,2.4,0.6c0.7,0.4,1.2,1,1.6,1.7
			C80,392,80.2,392.9,80.2,393.9z M73.6,393.9c0,1,0.2,1.7,0.5,2.2c0.3,0.5,0.8,0.7,1.5,0.7c0.7,0,1.2-0.2,1.5-0.7
			c0.3-0.5,0.5-1.2,0.5-2.2c0-1-0.2-1.7-0.5-2.1c-0.3-0.5-0.8-0.7-1.5-0.7c-0.7,0-1.2,0.2-1.5,0.7C73.7,392.3,73.6,393,73.6,393.9z"
			/>
		<path fill="#0A5995" d="M88.7,395.9c0,1-0.3,1.7-1,2.3c-0.7,0.5-1.7,0.8-3.1,0.8c-0.7,0-1.3,0-1.8-0.1c-0.5-0.1-1-0.2-1.4-0.4
			v-2.2c0.5,0.2,1,0.4,1.6,0.6c0.6,0.2,1.1,0.2,1.6,0.2c1,0,1.4-0.3,1.4-0.8c0-0.2-0.1-0.4-0.2-0.5c-0.1-0.1-0.3-0.3-0.7-0.4
			c-0.3-0.2-0.7-0.4-1.2-0.6c-0.7-0.3-1.3-0.6-1.6-0.9c-0.3-0.3-0.6-0.6-0.8-0.9c-0.2-0.3-0.2-0.8-0.2-1.3c0-0.9,0.3-1.5,1-2
			c0.7-0.5,1.6-0.7,2.8-0.7c1.2,0,2.3,0.3,3.4,0.8l-0.8,1.9c-0.5-0.2-0.9-0.4-1.4-0.5c-0.4-0.1-0.8-0.2-1.3-0.2
			c-0.8,0-1.2,0.2-1.2,0.6c0,0.2,0.1,0.4,0.4,0.6c0.2,0.2,0.8,0.4,1.6,0.8c0.8,0.3,1.3,0.6,1.7,0.9c0.4,0.3,0.6,0.6,0.8,0.9
			C88.6,395,88.7,395.4,88.7,395.9z"/>
		<path fill="#0A5995" d="M94.6,398.9c-1.5,0-2.8-0.4-3.6-1.3c-0.9-0.9-1.3-2.1-1.3-3.6c0-1.6,0.4-2.9,1.2-3.7
			c0.8-0.9,1.9-1.3,3.3-1.3c1.4,0,2.4,0.4,3.2,1.2c0.8,0.8,1.1,1.8,1.1,3.2v1.3h-6.2c0,0.7,0.2,1.3,0.7,1.7c0.4,0.4,1,0.6,1.7,0.6
			c0.6,0,1.1-0.1,1.6-0.2c0.5-0.1,1.1-0.3,1.6-0.6v2c-0.5,0.2-1,0.4-1.5,0.5C96,398.9,95.4,398.9,94.6,398.9z M94.3,390.8
			c-0.6,0-1,0.2-1.3,0.5c-0.3,0.4-0.5,0.9-0.5,1.5h3.7c0-0.6-0.2-1.1-0.5-1.5C95.3,391,94.8,390.8,94.3,390.8z"/>
		<path fill="#0A5995" d="M103.3,398.9c-1.1,0-2-0.4-2.7-1.3c-0.6-0.9-1-2.1-1-3.7c0-1.6,0.3-2.8,1-3.7c0.7-0.9,1.6-1.3,2.7-1.3
			c1.2,0,2.1,0.5,2.8,1.4h0.1c-0.1-0.7-0.2-1.4-0.2-1.9v-3.1h2.6v13.4h-2l-0.5-1.2H106C105.4,398.5,104.5,398.9,103.3,398.9z
			 M104.2,396.8c0.7,0,1.2-0.2,1.5-0.6c0.3-0.4,0.5-1.1,0.5-2V394c0-1-0.2-1.8-0.5-2.2c-0.3-0.4-0.8-0.7-1.6-0.7
			c-0.6,0-1,0.2-1.4,0.7c-0.3,0.5-0.5,1.2-0.5,2.2s0.2,1.7,0.5,2.1S103.6,396.8,104.2,396.8z"/>
		<path fill="#0A5995" d="M123,398.8l-0.9-3h-4.6l-0.9,3h-2.9l4.4-12.6h3.3l4.5,12.6H123z M121.5,393.5c-0.8-2.7-1.3-4.3-1.4-4.6
			c-0.1-0.4-0.2-0.6-0.2-0.8c-0.2,0.7-0.7,2.6-1.6,5.5H121.5z"/>
		<path fill="#0A5995" d="M130.8,398.9c-3,0-4.5-1.6-4.5-4.9c0-1.6,0.4-2.9,1.2-3.8c0.8-0.9,2-1.3,3.5-1.3c1.1,0,2.1,0.2,3,0.7
			l-0.8,2c-0.4-0.2-0.8-0.3-1.2-0.4c-0.4-0.1-0.7-0.2-1.1-0.2c-1.4,0-2,1-2,2.9c0,1.9,0.7,2.8,2,2.8c0.5,0,1-0.1,1.4-0.2
			s0.9-0.3,1.3-0.6v2.2c-0.4,0.3-0.9,0.5-1.3,0.6C132,398.9,131.4,398.9,130.8,398.9z"/>
		<path fill="#0A5995" d="M139.4,398.9c-3,0-4.5-1.6-4.5-4.9c0-1.6,0.4-2.9,1.2-3.8c0.8-0.9,2-1.3,3.5-1.3c1.1,0,2.1,0.2,3,0.7
			l-0.8,2c-0.4-0.2-0.8-0.3-1.2-0.4c-0.4-0.1-0.7-0.2-1.1-0.2c-1.4,0-2,1-2,2.9c0,1.9,0.7,2.8,2,2.8c0.5,0,1-0.1,1.4-0.2
			s0.9-0.3,1.3-0.6v2.2c-0.4,0.3-0.9,0.5-1.3,0.6C140.6,398.9,140,398.9,139.4,398.9z"/>
		<path fill="#0A5995" d="M152.8,393.9c0,1.6-0.4,2.8-1.2,3.7c-0.8,0.9-2,1.3-3.5,1.3c-0.9,0-1.7-0.2-2.4-0.6
			c-0.7-0.4-1.2-1-1.6-1.7s-0.6-1.6-0.6-2.7c0-1.6,0.4-2.8,1.2-3.7c0.8-0.9,2-1.3,3.5-1.3c0.9,0,1.7,0.2,2.4,0.6
			c0.7,0.4,1.2,1,1.6,1.7C152.7,392,152.8,392.9,152.8,393.9z M146.2,393.9c0,1,0.2,1.7,0.5,2.2c0.3,0.5,0.8,0.7,1.5,0.7
			c0.7,0,1.2-0.2,1.5-0.7c0.3-0.5,0.5-1.2,0.5-2.2c0-1-0.2-1.7-0.5-2.1c-0.3-0.5-0.8-0.7-1.5-0.7c-0.7,0-1.2,0.2-1.5,0.7
			C146.3,392.3,146.2,393,146.2,393.9z"/>
		<path fill="#0A5995" d="M160,389c0.4,0,0.7,0,0.9,0.1l-0.2,2.5c-0.2-0.1-0.5-0.1-0.8-0.1c-0.8,0-1.5,0.2-2,0.6s-0.7,1-0.7,1.8v4.9
			h-2.6v-9.6h2l0.4,1.6h0.1c0.3-0.5,0.7-1,1.2-1.3C158.8,389.1,159.4,389,160,389z"/>
		<path fill="#0A5995" d="M165.2,398.9c-1.1,0-2-0.4-2.7-1.3c-0.6-0.9-1-2.1-1-3.7c0-1.6,0.3-2.8,1-3.7c0.7-0.9,1.6-1.3,2.7-1.3
			c1.2,0,2.1,0.5,2.8,1.4h0.1c-0.1-0.7-0.2-1.4-0.2-1.9v-3.1h2.6v13.4h-2l-0.5-1.2h-0.1C167.3,398.5,166.4,398.9,165.2,398.9z
			 M166.1,396.8c0.7,0,1.2-0.2,1.5-0.6c0.3-0.4,0.5-1.1,0.5-2V394c0-1-0.2-1.8-0.5-2.2c-0.3-0.4-0.8-0.7-1.6-0.7
			c-0.6,0-1,0.2-1.4,0.7c-0.3,0.5-0.5,1.2-0.5,2.2s0.2,1.7,0.5,2.1S165.5,396.8,166.1,396.8z"/>
		<path fill="#0A5995" d="M172.8,386.6c0-0.9,0.5-1.3,1.4-1.3s1.4,0.4,1.4,1.3c0,0.4-0.1,0.7-0.4,1c-0.2,0.2-0.6,0.3-1.1,0.3
			C173.2,387.9,172.8,387.5,172.8,386.6z M175.5,398.8h-2.6v-9.6h2.6V398.8z"/>
		<path fill="#0A5995" d="M186.6,393.9c0,1.6-0.4,2.8-1.2,3.7c-0.8,0.9-2,1.3-3.5,1.3c-0.9,0-1.7-0.2-2.4-0.6
			c-0.7-0.4-1.2-1-1.6-1.7s-0.6-1.6-0.6-2.7c0-1.6,0.4-2.8,1.2-3.7c0.8-0.9,2-1.3,3.5-1.3c0.9,0,1.7,0.2,2.4,0.6
			c0.7,0.4,1.2,1,1.6,1.7C186.4,392,186.6,392.9,186.6,393.9z M179.9,393.9c0,1,0.2,1.7,0.5,2.2c0.3,0.5,0.8,0.7,1.5,0.7
			c0.7,0,1.2-0.2,1.5-0.7c0.3-0.5,0.5-1.2,0.5-2.2c0-1-0.2-1.7-0.5-2.1c-0.3-0.5-0.8-0.7-1.5-0.7c-0.7,0-1.2,0.2-1.5,0.7
			C180.1,392.3,179.9,393,179.9,393.9z"/>
		<path fill="#0A5995" d="M197.2,398.8h-2.6v-5.6c0-0.7-0.1-1.2-0.4-1.6s-0.6-0.5-1.2-0.5c-0.7,0-1.3,0.2-1.6,0.7
			c-0.3,0.5-0.5,1.3-0.5,2.4v4.5h-2.6v-9.6h2l0.4,1.2h0.1c0.3-0.5,0.7-0.8,1.2-1.1s1.1-0.4,1.8-0.4c1.1,0,2,0.3,2.5,0.9
			s0.9,1.5,0.9,2.6V398.8z"/>
	</g>
	<g>
		<g>
			<path fill="#0A5995" d="M579,413.5H17.8v-42.4H579V413.5z M20.8,410.5H576v-36.4H20.8V410.5z"/>
		</g>
	</g>
	<g>
		<path fill="#0A5995" d="M35.7,394.5h-4.4v-3.1h4.4v-4.3h3.2v4.3h4.4v3.1h-4.4v4.2h-3.2V394.5z"/>
	</g>
	<g>
		<path fill="#0A5995" d="M60.3,203.6c-0.9,0-1.6,0.3-2.1,0.9s-0.7,1.5-0.7,2.6c0,1.1,0.2,2,0.7,2.6c0.5,0.6,1.2,0.9,2.1,0.9
			c0.4,0,0.8,0,1.1-0.1s0.8-0.2,1.1-0.3v1.3c-0.7,0.3-1.6,0.4-2.5,0.4c-1.4,0-2.4-0.4-3.1-1.2s-1.1-2-1.1-3.5c0-1,0.2-1.8,0.5-2.5
			s0.9-1.3,1.5-1.7c0.7-0.4,1.5-0.6,2.4-0.6c0.9,0,1.8,0.2,2.6,0.6l-0.5,1.3c-0.3-0.1-0.6-0.3-1-0.4S60.7,203.6,60.3,203.6z"/>
		<path fill="#0A5995" d="M70.3,208.2c0,1.1-0.3,2-0.9,2.7c-0.6,0.6-1.4,1-2.5,1c-0.7,0-1.2-0.1-1.7-0.4s-0.9-0.7-1.2-1.3
			c-0.3-0.6-0.4-1.2-0.4-1.9c0-1.1,0.3-2,0.9-2.7c0.6-0.6,1.4-1,2.5-1c1,0,1.8,0.3,2.4,1C70,206.2,70.3,207.1,70.3,208.2z
			 M65.2,208.2c0,1.6,0.6,2.4,1.8,2.4c1.2,0,1.8-0.8,1.8-2.4c0-1.6-0.6-2.4-1.8-2.4c-0.6,0-1.1,0.2-1.4,0.6
			C65.3,206.8,65.2,207.4,65.2,208.2z"/>
		<path fill="#0A5995" d="M77.9,211.7h-1.5v-4.3c0-0.5-0.1-0.9-0.3-1.2c-0.2-0.3-0.6-0.4-1-0.4c-0.6,0-1.1,0.2-1.4,0.6
			c-0.3,0.4-0.4,1-0.4,1.9v3.5h-1.5v-7h1.2l0.2,0.9h0.1c0.2-0.3,0.5-0.6,0.9-0.8c0.4-0.2,0.8-0.3,1.3-0.3c1.7,0,2.5,0.9,2.5,2.6
			V211.7z"/>
		<path fill="#0A5995" d="M82.2,210.6c0.4,0,0.7-0.1,1.1-0.2v1.1c-0.2,0.1-0.4,0.1-0.6,0.2c-0.3,0-0.5,0.1-0.8,0.1
			c-1.4,0-2.1-0.7-2.1-2.2v-3.8h-1v-0.7l1-0.5l0.5-1.5h0.9v1.6h2v1.1h-2v3.8c0,0.4,0.1,0.6,0.3,0.8
			C81.7,210.5,81.9,210.6,82.2,210.6z"/>
		<path fill="#0A5995" d="M87.5,211.8c-1.1,0-1.9-0.3-2.6-1c-0.6-0.6-0.9-1.5-0.9-2.6c0-1.1,0.3-2,0.9-2.7c0.6-0.7,1.4-1,2.4-1
			c0.9,0,1.7,0.3,2.2,0.8c0.5,0.6,0.8,1.3,0.8,2.3v0.8h-4.7c0,0.7,0.2,1.2,0.6,1.6s0.8,0.5,1.5,0.5c0.4,0,0.8,0,1.2-0.1
			s0.7-0.2,1.2-0.4v1.2c-0.4,0.2-0.7,0.3-1.1,0.4C88.4,211.8,88,211.8,87.5,211.8z M87.2,205.7c-0.5,0-0.9,0.2-1.1,0.5
			c-0.3,0.3-0.5,0.7-0.5,1.3h3.2c0-0.6-0.1-1-0.4-1.3C88,205.8,87.7,205.7,87.2,205.7z"/>
		<path fill="#0A5995" d="M97.8,211.7h-1.5v-4.3c0-0.5-0.1-0.9-0.3-1.2c-0.2-0.3-0.6-0.4-1-0.4c-0.6,0-1.1,0.2-1.4,0.6
			c-0.3,0.4-0.4,1-0.4,1.9v3.5h-1.5v-7h1.2l0.2,0.9H93c0.2-0.3,0.5-0.6,0.9-0.8c0.4-0.2,0.8-0.3,1.3-0.3c1.7,0,2.5,0.9,2.5,2.6
			V211.7z"/>
		<path fill="#0A5995" d="M102.1,210.6c0.4,0,0.7-0.1,1.1-0.2v1.1c-0.2,0.1-0.4,0.1-0.6,0.2c-0.3,0-0.5,0.1-0.8,0.1
			c-1.4,0-2.1-0.7-2.1-2.2v-3.8h-1v-0.7l1-0.5l0.5-1.5h0.9v1.6h2v1.1h-2v3.8c0,0.4,0.1,0.6,0.3,0.8
			C101.6,210.5,101.8,210.6,102.1,210.6z"/>
		<path fill="#0A5995" d="M111.7,211.7l-0.3-1h-0.1c-0.3,0.4-0.7,0.7-1,0.9c-0.3,0.2-0.8,0.2-1.3,0.2c-0.7,0-1.2-0.2-1.6-0.6
			c-0.4-0.4-0.6-0.9-0.6-1.6c0-0.7,0.3-1.3,0.8-1.6c0.5-0.4,1.4-0.6,2.5-0.6l1.2,0V207c0-0.4-0.1-0.8-0.3-1c-0.2-0.2-0.5-0.3-1-0.3
			c-0.4,0-0.7,0.1-1,0.2c-0.3,0.1-0.6,0.2-1,0.4l-0.5-1.1c0.4-0.2,0.8-0.4,1.3-0.5c0.5-0.1,0.9-0.2,1.3-0.2c0.9,0,1.6,0.2,2,0.6
			c0.5,0.4,0.7,1,0.7,1.8v4.7H111.7z M109.5,210.7c0.5,0,1-0.2,1.3-0.5s0.5-0.7,0.5-1.3v-0.6l-0.9,0c-0.7,0-1.2,0.1-1.5,0.4
			c-0.3,0.2-0.5,0.5-0.5,1c0,0.3,0.1,0.6,0.3,0.7C108.9,210.6,109.1,210.7,109.5,210.7z"/>
		<path fill="#0A5995" d="M118.1,204.6c0.3,0,0.5,0,0.7,0.1l-0.1,1.4c-0.2-0.1-0.4-0.1-0.7-0.1c-0.6,0-1.1,0.2-1.5,0.6
			c-0.4,0.4-0.6,0.9-0.6,1.5v3.7h-1.5v-7h1.2l0.2,1.2h0.1c0.2-0.4,0.5-0.8,0.9-1C117.3,204.7,117.7,204.6,118.1,204.6z"/>
		<path fill="#0A5995" d="M122.9,211.8c-1.1,0-1.9-0.3-2.6-1s-0.9-1.5-0.9-2.6c0-1.1,0.3-2,0.9-2.7c0.6-0.7,1.4-1,2.4-1
			c0.9,0,1.7,0.3,2.2,0.8c0.5,0.6,0.8,1.3,0.8,2.3v0.8H121c0,0.7,0.2,1.2,0.6,1.6s0.8,0.5,1.5,0.5c0.4,0,0.8,0,1.2-0.1
			c0.4-0.1,0.7-0.2,1.2-0.4v1.2c-0.4,0.2-0.7,0.3-1.1,0.4C123.8,211.8,123.4,211.8,122.9,211.8z M122.6,205.7
			c-0.5,0-0.9,0.2-1.1,0.5c-0.3,0.3-0.5,0.7-0.5,1.3h3.2c0-0.6-0.1-1-0.4-1.3C123.5,205.8,123.1,205.7,122.6,205.7z"/>
		<path fill="#0A5995" d="M131.4,211.7l-0.3-1H131c-0.3,0.4-0.7,0.7-1,0.9c-0.3,0.2-0.8,0.2-1.3,0.2c-0.7,0-1.2-0.2-1.6-0.6
			s-0.6-0.9-0.6-1.6c0-0.7,0.3-1.3,0.8-1.6c0.5-0.4,1.4-0.6,2.5-0.6l1.2,0V207c0-0.4-0.1-0.8-0.3-1c-0.2-0.2-0.5-0.3-1-0.3
			c-0.4,0-0.7,0.1-1,0.2c-0.3,0.1-0.6,0.2-1,0.4l-0.5-1.1c0.4-0.2,0.8-0.4,1.2-0.5c0.5-0.1,0.9-0.2,1.3-0.2c0.9,0,1.6,0.2,2,0.6
			s0.7,1,0.7,1.8v4.7H131.4z M129.2,210.7c0.5,0,1-0.2,1.3-0.5c0.3-0.3,0.5-0.7,0.5-1.3v-0.6l-0.9,0c-0.7,0-1.2,0.1-1.5,0.4
			c-0.3,0.2-0.5,0.5-0.5,1c0,0.3,0.1,0.6,0.3,0.7C128.5,210.6,128.8,210.7,129.2,210.7z"/>
		<path fill="#0A5995" d="M140.8,205.8h-1.7v5.9h-1.5v-5.9h-1.2v-0.7l1.2-0.5v-0.5c0-0.8,0.2-1.4,0.6-1.8c0.4-0.4,1-0.6,1.8-0.6
			c0.5,0,1,0.1,1.5,0.3l-0.4,1.1c-0.4-0.1-0.7-0.2-1.1-0.2c-0.3,0-0.6,0.1-0.7,0.3c-0.2,0.2-0.2,0.5-0.2,0.9v0.5h1.7V205.8z"/>
		<path fill="#0A5995" d="M147.9,208.2c0,1.1-0.3,2-0.9,2.7s-1.4,1-2.5,1c-0.7,0-1.2-0.1-1.7-0.4c-0.5-0.3-0.9-0.7-1.2-1.3
			c-0.3-0.6-0.4-1.2-0.4-1.9c0-1.1,0.3-2,0.9-2.7c0.6-0.6,1.4-1,2.5-1c1,0,1.8,0.3,2.4,1C147.6,206.2,147.9,207.1,147.9,208.2z
			 M142.8,208.2c0,1.6,0.6,2.4,1.8,2.4c1.2,0,1.8-0.8,1.8-2.4c0-1.6-0.6-2.4-1.8-2.4c-0.6,0-1.1,0.2-1.4,0.6
			S142.8,207.4,142.8,208.2z"/>
		<path fill="#0A5995" d="M152.8,204.6c0.3,0,0.5,0,0.7,0.1l-0.1,1.4c-0.2-0.1-0.4-0.1-0.7-0.1c-0.6,0-1.1,0.2-1.5,0.6
			c-0.4,0.4-0.6,0.9-0.6,1.5v3.7h-1.5v-7h1.2l0.2,1.2h0.1c0.2-0.4,0.5-0.8,0.9-1C152,204.7,152.4,204.6,152.8,204.6z"/>
		<path fill="#0A5995" d="M160,211.8c-0.9,0-1.6-0.3-2-1c-0.5-0.6-0.7-1.5-0.7-2.7c0-1.2,0.2-2,0.7-2.7c0.5-0.6,1.2-1,2.1-1
			c0.9,0,1.6,0.3,2.1,1h0.1c-0.1-0.5-0.1-0.9-0.1-1.2v-2.6h1.5v9.9h-1.2l-0.3-0.9h-0.1C161.6,211.5,160.9,211.8,160,211.8z
			 M160.4,210.6c0.6,0,1.1-0.2,1.3-0.5s0.4-0.9,0.4-1.7v-0.2c0-0.9-0.1-1.5-0.4-1.9s-0.7-0.6-1.4-0.6c-0.5,0-0.9,0.2-1.2,0.6
			c-0.3,0.4-0.4,1-0.4,1.8c0,0.8,0.1,1.4,0.4,1.8S159.8,210.6,160.4,210.6z"/>
		<path fill="#0A5995" d="M168.4,211.8c-1.1,0-1.9-0.3-2.6-1s-0.9-1.5-0.9-2.6c0-1.1,0.3-2,0.9-2.7c0.6-0.7,1.4-1,2.4-1
			c0.9,0,1.7,0.3,2.2,0.8c0.5,0.6,0.8,1.3,0.8,2.3v0.8h-4.7c0,0.7,0.2,1.2,0.6,1.6s0.8,0.5,1.5,0.5c0.4,0,0.8,0,1.2-0.1
			c0.4-0.1,0.7-0.2,1.2-0.4v1.2c-0.4,0.2-0.7,0.3-1.1,0.4C169.4,211.8,168.9,211.8,168.4,211.8z M168.2,205.7
			c-0.5,0-0.9,0.2-1.1,0.5c-0.3,0.3-0.5,0.7-0.5,1.3h3.2c0-0.6-0.1-1-0.4-1.3C169,205.8,168.6,205.7,168.2,205.7z"/>
		<path fill="#0A5995" d="M177.3,209.7c0,0.7-0.2,1.2-0.7,1.6c-0.5,0.4-1.2,0.5-2.1,0.5c-0.9,0-1.7-0.1-2.3-0.4v-1.3
			c0.8,0.4,1.6,0.6,2.3,0.6c0.9,0,1.4-0.3,1.4-0.8c0-0.2-0.1-0.3-0.2-0.4c-0.1-0.1-0.3-0.2-0.5-0.4c-0.2-0.1-0.6-0.3-1-0.4
			c-0.8-0.3-1.4-0.6-1.6-0.9c-0.3-0.3-0.4-0.7-0.4-1.2c0-0.6,0.2-1.1,0.7-1.4s1.1-0.5,2-0.5c0.8,0,1.6,0.2,2.3,0.5l-0.5,1.1
			c-0.8-0.3-1.4-0.5-1.9-0.5c-0.8,0-1.2,0.2-1.2,0.7c0,0.2,0.1,0.4,0.3,0.6c0.2,0.2,0.7,0.4,1.3,0.6c0.6,0.2,1,0.4,1.3,0.6
			c0.3,0.2,0.5,0.4,0.6,0.6S177.3,209.4,177.3,209.7z"/>
		<path fill="#0A5995" d="M181.4,211.8c-1.1,0-1.9-0.3-2.4-0.9s-0.8-1.5-0.8-2.7c0-1.2,0.3-2.1,0.9-2.7c0.6-0.6,1.4-1,2.5-1
			c0.7,0,1.4,0.1,2,0.4l-0.5,1.2c-0.6-0.2-1.2-0.4-1.6-0.4c-1.2,0-1.8,0.8-1.8,2.4c0,0.8,0.2,1.4,0.5,1.8c0.3,0.4,0.7,0.6,1.3,0.6
			c0.7,0,1.3-0.2,1.9-0.5v1.3c-0.3,0.2-0.6,0.3-0.9,0.3C182.2,211.8,181.8,211.8,181.4,211.8z"/>
		<path fill="#0A5995" d="M188.2,204.6c0.3,0,0.5,0,0.7,0.1l-0.1,1.4c-0.2-0.1-0.4-0.1-0.7-0.1c-0.6,0-1.1,0.2-1.5,0.6
			c-0.4,0.4-0.6,0.9-0.6,1.5v3.7h-1.5v-7h1.2l0.2,1.2h0.1c0.2-0.4,0.5-0.8,0.9-1C187.4,204.7,187.8,204.6,188.2,204.6z"/>
		<path fill="#0A5995" d="M189.9,202.8c0-0.3,0.1-0.5,0.2-0.6c0.1-0.1,0.4-0.2,0.6-0.2c0.3,0,0.5,0.1,0.6,0.2s0.2,0.3,0.2,0.6
			c0,0.3-0.1,0.5-0.2,0.6c-0.1,0.1-0.3,0.2-0.6,0.2c-0.3,0-0.5-0.1-0.6-0.2C189.9,203.3,189.9,203.1,189.9,202.8z M191.4,211.7h-1.5
			v-7h1.5V211.7z"/>
		<path fill="#0A5995" d="M196.8,211.8c-0.9,0-1.6-0.3-2.1-1h-0.1c0.1,0.6,0.1,1,0.1,1.1v2.9h-1.5v-10.1h1.2c0,0.1,0.1,0.4,0.2,0.9
			h0.1c0.5-0.7,1.2-1.1,2.1-1.1c0.9,0,1.6,0.3,2,1c0.5,0.6,0.7,1.5,0.7,2.7c0,1.1-0.2,2-0.7,2.7
			C198.4,211.5,197.7,211.8,196.8,211.8z M196.4,205.8c-0.6,0-1,0.2-1.3,0.5c-0.3,0.3-0.4,0.9-0.4,1.7v0.2c0,0.9,0.1,1.5,0.4,1.9
			c0.3,0.4,0.7,0.6,1.3,0.6c0.5,0,0.9-0.2,1.2-0.6s0.4-1,0.4-1.8c0-0.8-0.1-1.4-0.4-1.8C197.4,206,197,205.8,196.4,205.8z"/>
		<path fill="#0A5995" d="M203.6,210.6c0.4,0,0.7-0.1,1.1-0.2v1.1c-0.2,0.1-0.4,0.1-0.6,0.2s-0.5,0.1-0.8,0.1
			c-1.4,0-2.1-0.7-2.1-2.2v-3.8h-1v-0.7l1-0.5l0.5-1.5h0.9v1.6h2v1.1h-2v3.8c0,0.4,0.1,0.6,0.3,0.8
			C203.1,210.5,203.3,210.6,203.6,210.6z"/>
		<path fill="#0A5995" d="M205.7,202.8c0-0.3,0.1-0.5,0.2-0.6c0.1-0.1,0.4-0.2,0.6-0.2c0.3,0,0.5,0.1,0.6,0.2
			c0.1,0.1,0.2,0.3,0.2,0.6c0,0.3-0.1,0.5-0.2,0.6c-0.1,0.1-0.4,0.2-0.6,0.2c-0.3,0-0.5-0.1-0.6-0.2
			C205.8,203.3,205.7,203.1,205.7,202.8z M207.3,211.7h-1.5v-7h1.5V211.7z"/>
		<path fill="#0A5995" d="M215.3,208.2c0,1.1-0.3,2-0.9,2.7c-0.6,0.6-1.4,1-2.5,1c-0.7,0-1.2-0.1-1.7-0.4s-0.9-0.7-1.2-1.3
			c-0.3-0.6-0.4-1.2-0.4-1.9c0-1.1,0.3-2,0.9-2.7c0.6-0.6,1.4-1,2.5-1c1,0,1.8,0.3,2.4,1C215,206.2,215.3,207.1,215.3,208.2z
			 M210.2,208.2c0,1.6,0.6,2.4,1.8,2.4c1.2,0,1.8-0.8,1.8-2.4c0-1.6-0.6-2.4-1.8-2.4c-0.6,0-1.1,0.2-1.4,0.6
			S210.2,207.4,210.2,208.2z"/>
		<path fill="#0A5995" d="M222.9,211.7h-1.5v-4.3c0-0.5-0.1-0.9-0.3-1.2c-0.2-0.3-0.6-0.4-1-0.4c-0.6,0-1.1,0.2-1.4,0.6
			c-0.3,0.4-0.4,1-0.4,1.9v3.5h-1.5v-7h1.2l0.2,0.9h0.1c0.2-0.3,0.5-0.6,0.9-0.8c0.4-0.2,0.8-0.3,1.3-0.3c1.7,0,2.5,0.9,2.5,2.6
			V211.7z"/>
		<path fill="#0A5995" d="M229.4,209.7c0,0.7-0.2,1.2-0.7,1.6s-1.2,0.5-2.1,0.5c-0.9,0-1.7-0.1-2.3-0.4v-1.3
			c0.8,0.4,1.6,0.6,2.3,0.6c0.9,0,1.4-0.3,1.4-0.8c0-0.2-0.1-0.3-0.2-0.4c-0.1-0.1-0.3-0.2-0.5-0.4s-0.6-0.3-1-0.4
			c-0.8-0.3-1.4-0.6-1.6-0.9c-0.3-0.3-0.4-0.7-0.4-1.2c0-0.6,0.2-1.1,0.7-1.4c0.5-0.3,1.1-0.5,2-0.5c0.8,0,1.6,0.2,2.3,0.5l-0.5,1.1
			c-0.8-0.3-1.4-0.5-1.9-0.5c-0.8,0-1.2,0.2-1.2,0.7c0,0.2,0.1,0.4,0.3,0.6s0.7,0.4,1.3,0.6c0.6,0.2,1,0.4,1.3,0.6s0.5,0.4,0.6,0.6
			S229.4,209.4,229.4,209.7z"/>
		<path fill="#0A5995" d="M232.2,210.3c-0.2,0.8-0.6,1.8-1.1,3H230c0.3-1.1,0.5-2.2,0.7-3.2h1.5L232.2,210.3z"/>
		<path fill="#0A5995" d="M238.3,211.7h-1.5v-9.9h1.5V211.7z"/>
		<path fill="#0A5995" d="M246.4,208.2c0,1.1-0.3,2-0.9,2.7s-1.4,1-2.5,1c-0.7,0-1.2-0.1-1.7-0.4c-0.5-0.3-0.9-0.7-1.2-1.3
			c-0.3-0.6-0.4-1.2-0.4-1.9c0-1.1,0.3-2,0.9-2.7c0.6-0.6,1.4-1,2.5-1c1,0,1.8,0.3,2.4,1C246.1,206.2,246.4,207.1,246.4,208.2z
			 M241.3,208.2c0,1.6,0.6,2.4,1.8,2.4c1.2,0,1.8-0.8,1.8-2.4c0-1.6-0.6-2.4-1.8-2.4c-0.6,0-1.1,0.2-1.4,0.6
			S241.3,207.4,241.3,208.2z"/>
		<path fill="#0A5995" d="M251.3,204.6c0.3,0,0.5,0,0.7,0.1l-0.1,1.4c-0.2-0.1-0.4-0.1-0.7-0.1c-0.6,0-1.1,0.2-1.5,0.6
			c-0.4,0.4-0.6,0.9-0.6,1.5v3.7h-1.5v-7h1.2l0.2,1.2h0.1c0.2-0.4,0.5-0.8,0.9-1C250.5,204.7,250.9,204.6,251.3,204.6z"/>
		<path fill="#0A5995" d="M256.1,211.8c-1.1,0-1.9-0.3-2.6-1s-0.9-1.5-0.9-2.6c0-1.1,0.3-2,0.9-2.7c0.6-0.7,1.4-1,2.4-1
			c0.9,0,1.7,0.3,2.2,0.8c0.5,0.6,0.8,1.3,0.8,2.3v0.8h-4.7c0,0.7,0.2,1.2,0.6,1.6s0.8,0.5,1.5,0.5c0.4,0,0.8,0,1.2-0.1
			c0.4-0.1,0.7-0.2,1.2-0.4v1.2c-0.4,0.2-0.7,0.3-1.1,0.4C257,211.8,256.6,211.8,256.1,211.8z M255.8,205.7c-0.5,0-0.9,0.2-1.1,0.5
			c-0.3,0.3-0.5,0.7-0.5,1.3h3.2c0-0.6-0.1-1-0.4-1.3C256.7,205.8,256.3,205.7,255.8,205.7z"/>
		<path fill="#0A5995" d="M266.1,211.7h-1.5v-4.3c0-0.5-0.1-0.9-0.3-1.2s-0.5-0.4-1-0.4c-0.6,0-1,0.2-1.3,0.6
			c-0.3,0.4-0.4,1-0.4,1.9v3.5h-1.5v-7h1.2l0.2,0.9h0.1c0.2-0.3,0.5-0.6,0.8-0.8c0.4-0.2,0.8-0.3,1.2-0.3c1.1,0,1.8,0.4,2.1,1.1h0.1
			c0.2-0.3,0.5-0.6,0.9-0.8s0.8-0.3,1.3-0.3c0.8,0,1.4,0.2,1.8,0.6c0.4,0.4,0.6,1.1,0.6,1.9v4.6h-1.5v-4.3c0-0.5-0.1-0.9-0.3-1.2
			c-0.2-0.3-0.5-0.4-1-0.4c-0.6,0-1,0.2-1.3,0.5c-0.3,0.4-0.4,0.9-0.4,1.7V211.7z"/>
		<path fill="#0A5995" d="M275.3,202.8c0-0.3,0.1-0.5,0.2-0.6c0.1-0.1,0.4-0.2,0.6-0.2c0.3,0,0.5,0.1,0.6,0.2
			c0.1,0.1,0.2,0.3,0.2,0.6c0,0.3-0.1,0.5-0.2,0.6c-0.1,0.1-0.4,0.2-0.6,0.2c-0.3,0-0.5-0.1-0.6-0.2
			C275.3,203.3,275.3,203.1,275.3,202.8z M276.9,211.7h-1.5v-7h1.5V211.7z"/>
		<path fill="#0A5995" d="M282.2,211.8c-0.9,0-1.6-0.3-2.1-1h-0.1c0.1,0.6,0.1,1,0.1,1.1v2.9h-1.5v-10.1h1.2c0,0.1,0.1,0.4,0.2,0.9
			h0.1c0.5-0.7,1.2-1.1,2.1-1.1c0.9,0,1.6,0.3,2,1c0.5,0.6,0.7,1.5,0.7,2.7c0,1.1-0.2,2-0.7,2.7
			C283.8,211.5,283.1,211.8,282.2,211.8z M281.9,205.8c-0.6,0-1,0.2-1.3,0.5c-0.3,0.3-0.4,0.9-0.4,1.7v0.2c0,0.9,0.1,1.5,0.4,1.9
			s0.7,0.6,1.3,0.6c0.5,0,0.9-0.2,1.2-0.6s0.4-1,0.4-1.8c0-0.8-0.1-1.4-0.4-1.8S282.4,205.8,281.9,205.8z"/>
		<path fill="#0A5995" d="M291.2,209.7c0,0.7-0.2,1.2-0.8,1.6c-0.5,0.4-1.2,0.5-2.1,0.5c-0.9,0-1.7-0.1-2.3-0.4v-1.3
			c0.8,0.4,1.6,0.6,2.3,0.6c0.9,0,1.4-0.3,1.4-0.8c0-0.2-0.1-0.3-0.2-0.4c-0.1-0.1-0.3-0.2-0.5-0.4c-0.2-0.1-0.6-0.3-1-0.4
			c-0.8-0.3-1.4-0.6-1.6-0.9c-0.3-0.3-0.4-0.7-0.4-1.2c0-0.6,0.2-1.1,0.7-1.4c0.5-0.3,1.1-0.5,2-0.5c0.8,0,1.6,0.2,2.3,0.5l-0.5,1.1
			c-0.8-0.3-1.4-0.5-1.9-0.5c-0.8,0-1.2,0.2-1.2,0.7c0,0.2,0.1,0.4,0.3,0.6s0.7,0.4,1.3,0.6c0.6,0.2,1,0.4,1.3,0.6
			c0.3,0.2,0.5,0.4,0.6,0.6S291.2,209.4,291.2,209.7z"/>
		<path fill="#0A5995" d="M297.4,211.7l-0.2-0.9h-0.1c-0.2,0.3-0.5,0.6-0.9,0.8s-0.8,0.3-1.3,0.3c-0.9,0-1.5-0.2-1.9-0.6
			s-0.6-1.1-0.6-1.9v-4.6h1.5v4.3c0,0.5,0.1,0.9,0.3,1.2s0.6,0.4,1,0.4c0.6,0,1.1-0.2,1.4-0.6c0.3-0.4,0.4-1,0.4-1.9v-3.5h1.5v7
			H297.4z"/>
		<path fill="#0A5995" d="M306.3,211.7h-1.5v-4.3c0-0.5-0.1-0.9-0.3-1.2s-0.5-0.4-1-0.4c-0.6,0-1,0.2-1.3,0.6
			c-0.3,0.4-0.4,1-0.4,1.9v3.5h-1.5v-7h1.2l0.2,0.9h0.1c0.2-0.3,0.5-0.6,0.8-0.8c0.4-0.2,0.8-0.3,1.2-0.3c1.1,0,1.8,0.4,2.1,1.1h0.1
			c0.2-0.3,0.5-0.6,0.9-0.8s0.8-0.3,1.3-0.3c0.8,0,1.4,0.2,1.8,0.6c0.4,0.4,0.6,1.1,0.6,1.9v4.6h-1.5v-4.3c0-0.5-0.1-0.9-0.3-1.2
			c-0.2-0.3-0.5-0.4-1-0.4c-0.6,0-1,0.2-1.3,0.5c-0.3,0.4-0.4,0.9-0.4,1.7V211.7z"/>
		<path fill="#0A5995" d="M317.9,211.8c-0.9,0-1.6-0.3-2-1s-0.7-1.5-0.7-2.7c0-1.2,0.2-2,0.7-2.7c0.5-0.6,1.2-1,2.1-1
			c0.9,0,1.6,0.3,2.1,1h0.1c-0.1-0.5-0.1-0.9-0.1-1.2v-2.6h1.5v9.9h-1.2l-0.3-0.9H320C319.5,211.5,318.8,211.8,317.9,211.8z
			 M318.3,210.6c0.6,0,1.1-0.2,1.3-0.5s0.4-0.9,0.4-1.7v-0.2c0-0.9-0.1-1.5-0.4-1.9c-0.3-0.4-0.7-0.6-1.4-0.6
			c-0.5,0-0.9,0.2-1.2,0.6c-0.3,0.4-0.4,1-0.4,1.8c0,0.8,0.1,1.4,0.4,1.8C317.3,210.4,317.7,210.6,318.3,210.6z"/>
		<path fill="#0A5995" d="M329.5,208.2c0,1.1-0.3,2-0.9,2.7c-0.6,0.6-1.4,1-2.5,1c-0.7,0-1.2-0.1-1.7-0.4s-0.9-0.7-1.2-1.3
			c-0.3-0.6-0.4-1.2-0.4-1.9c0-1.1,0.3-2,0.9-2.7c0.6-0.6,1.4-1,2.5-1c1,0,1.8,0.3,2.4,1C329.2,206.2,329.5,207.1,329.5,208.2z
			 M324.4,208.2c0,1.6,0.6,2.4,1.8,2.4c1.2,0,1.8-0.8,1.8-2.4c0-1.6-0.6-2.4-1.8-2.4c-0.6,0-1.1,0.2-1.4,0.6
			S324.4,207.4,324.4,208.2z"/>
		<path fill="#0A5995" d="M332.4,211.7h-1.5v-9.9h1.5V211.7z"/>
		<path fill="#0A5995" d="M340.4,208.2c0,1.1-0.3,2-0.9,2.7c-0.6,0.6-1.4,1-2.5,1c-0.7,0-1.2-0.1-1.7-0.4s-0.9-0.7-1.2-1.3
			c-0.3-0.6-0.4-1.2-0.4-1.9c0-1.1,0.3-2,0.9-2.7c0.6-0.6,1.4-1,2.5-1c1,0,1.8,0.3,2.4,1C340.1,206.2,340.4,207.1,340.4,208.2z
			 M335.3,208.2c0,1.6,0.6,2.4,1.8,2.4c1.2,0,1.8-0.8,1.8-2.4c0-1.6-0.6-2.4-1.8-2.4c-0.6,0-1.1,0.2-1.4,0.6
			C335.5,206.8,335.3,207.4,335.3,208.2z"/>
		<path fill="#0A5995" d="M345.4,204.6c0.3,0,0.5,0,0.7,0.1L346,206c-0.2-0.1-0.4-0.1-0.7-0.1c-0.6,0-1.1,0.2-1.5,0.6
			c-0.4,0.4-0.6,0.9-0.6,1.5v3.7h-1.5v-7h1.2l0.2,1.2h0.1c0.2-0.4,0.5-0.8,0.9-1S345,204.6,345.4,204.6z"/>
		<path fill="#0A5995" d="M354.9,209.7c0,0.7-0.2,1.2-0.7,1.6s-1.2,0.5-2.1,0.5c-0.9,0-1.7-0.1-2.3-0.4v-1.3
			c0.8,0.4,1.6,0.6,2.3,0.6c0.9,0,1.4-0.3,1.4-0.8c0-0.2-0.1-0.3-0.2-0.4c-0.1-0.1-0.3-0.2-0.5-0.4s-0.6-0.3-1-0.4
			c-0.8-0.3-1.4-0.6-1.6-0.9c-0.3-0.3-0.4-0.7-0.4-1.2c0-0.6,0.2-1.1,0.7-1.4c0.5-0.3,1.1-0.5,2-0.5c0.8,0,1.6,0.2,2.3,0.5l-0.5,1.1
			c-0.8-0.3-1.4-0.5-1.9-0.5c-0.8,0-1.2,0.2-1.2,0.7c0,0.2,0.1,0.4,0.3,0.6s0.7,0.4,1.3,0.6c0.6,0.2,1,0.4,1.3,0.6s0.5,0.4,0.6,0.6
			S354.9,209.4,354.9,209.7z"/>
		<path fill="#0A5995" d="M356.1,202.8c0-0.3,0.1-0.5,0.2-0.6c0.1-0.1,0.4-0.2,0.6-0.2c0.3,0,0.5,0.1,0.6,0.2
			c0.1,0.1,0.2,0.3,0.2,0.6c0,0.3-0.1,0.5-0.2,0.6c-0.1,0.1-0.4,0.2-0.6,0.2c-0.3,0-0.5-0.1-0.6-0.2
			C356.1,203.3,356.1,203.1,356.1,202.8z M357.7,211.7h-1.5v-7h1.5V211.7z"/>
		<path fill="#0A5995" d="M362.1,210.6c0.4,0,0.7-0.1,1.1-0.2v1.1c-0.2,0.1-0.4,0.1-0.6,0.2s-0.5,0.1-0.8,0.1
			c-1.4,0-2.1-0.7-2.1-2.2v-3.8h-1v-0.7l1-0.5l0.5-1.5h0.9v1.6h2v1.1h-2v3.8c0,0.4,0.1,0.6,0.3,0.8
			C361.6,210.5,361.8,210.6,362.1,210.6z"/>
		<path fill="#0A5995" d="M371.7,211.7l-0.3-1h-0.1c-0.3,0.4-0.7,0.7-1,0.9c-0.3,0.2-0.8,0.2-1.3,0.2c-0.7,0-1.2-0.2-1.6-0.6
			s-0.6-0.9-0.6-1.6c0-0.7,0.3-1.3,0.8-1.6c0.5-0.4,1.4-0.6,2.5-0.6l1.2,0V207c0-0.4-0.1-0.8-0.3-1c-0.2-0.2-0.5-0.3-1-0.3
			c-0.4,0-0.7,0.1-1,0.2c-0.3,0.1-0.6,0.2-1,0.4l-0.5-1.1c0.4-0.2,0.8-0.4,1.2-0.5c0.5-0.1,0.9-0.2,1.3-0.2c0.9,0,1.6,0.2,2,0.6
			s0.7,1,0.7,1.8v4.7H371.7z M369.5,210.7c0.5,0,1-0.2,1.3-0.5c0.3-0.3,0.5-0.7,0.5-1.3v-0.6l-0.9,0c-0.7,0-1.2,0.1-1.5,0.4
			c-0.3,0.2-0.5,0.5-0.5,1c0,0.3,0.1,0.6,0.3,0.7C368.8,210.6,369.1,210.7,369.5,210.7z"/>
		<path fill="#0A5995" d="M380.4,211.7h-1.5v-4.3c0-0.5-0.1-0.9-0.3-1.2s-0.5-0.4-1-0.4c-0.6,0-1,0.2-1.3,0.6
			c-0.3,0.4-0.4,1-0.4,1.9v3.5h-1.5v-7h1.2l0.2,0.9h0.1c0.2-0.3,0.5-0.6,0.8-0.8c0.4-0.2,0.8-0.3,1.2-0.3c1.1,0,1.8,0.4,2.1,1.1h0.1
			c0.2-0.3,0.5-0.6,0.9-0.8c0.4-0.2,0.8-0.3,1.3-0.3c0.8,0,1.4,0.2,1.8,0.6c0.4,0.4,0.6,1.1,0.6,1.9v4.6h-1.5v-4.3
			c0-0.5-0.1-0.9-0.3-1.2s-0.5-0.4-1-0.4c-0.6,0-1,0.2-1.3,0.5c-0.3,0.4-0.4,0.9-0.4,1.7V211.7z"/>
		<path fill="#0A5995" d="M389.7,211.8c-1.1,0-1.9-0.3-2.6-1c-0.6-0.6-0.9-1.5-0.9-2.6c0-1.1,0.3-2,0.9-2.7c0.6-0.7,1.4-1,2.4-1
			c0.9,0,1.7,0.3,2.2,0.8c0.5,0.6,0.8,1.3,0.8,2.3v0.8h-4.7c0,0.7,0.2,1.2,0.6,1.6c0.3,0.4,0.8,0.5,1.5,0.5c0.4,0,0.8,0,1.2-0.1
			c0.4-0.1,0.7-0.2,1.2-0.4v1.2c-0.4,0.2-0.7,0.3-1.1,0.4C390.6,211.8,390.2,211.8,389.7,211.8z M389.4,205.7
			c-0.5,0-0.9,0.2-1.1,0.5c-0.3,0.3-0.5,0.7-0.5,1.3h3.2c0-0.6-0.1-1-0.4-1.3C390.3,205.8,389.9,205.7,389.4,205.7z"/>
		<path fill="#0A5995" d="M396.4,210.6c0.4,0,0.7-0.1,1.1-0.2v1.1c-0.2,0.1-0.4,0.1-0.6,0.2c-0.3,0-0.5,0.1-0.8,0.1
			c-1.4,0-2.1-0.7-2.1-2.2v-3.8h-1v-0.7l1-0.5l0.5-1.5h0.9v1.6h2v1.1h-2v3.8c0,0.4,0.1,0.6,0.3,0.8
			C395.9,210.5,396.1,210.6,396.4,210.6z"/>
		<path fill="#0A5995" d="M404.5,211.8c-1.1,0-1.9-0.3-2.4-0.9c-0.6-0.6-0.8-1.5-0.8-2.7c0-1.2,0.3-2.1,0.9-2.7c0.6-0.6,1.4-1,2.5-1
			c0.7,0,1.4,0.1,2,0.4l-0.5,1.2c-0.6-0.2-1.2-0.4-1.6-0.4c-1.2,0-1.8,0.8-1.8,2.4c0,0.8,0.2,1.4,0.5,1.8c0.3,0.4,0.7,0.6,1.3,0.6
			c0.7,0,1.3-0.2,1.9-0.5v1.3c-0.3,0.2-0.6,0.3-0.9,0.3C405.3,211.8,404.9,211.8,404.5,211.8z"/>
		<path fill="#0A5995" d="M414,208.2c0,1.1-0.3,2-0.9,2.7c-0.6,0.6-1.4,1-2.5,1c-0.7,0-1.2-0.1-1.7-0.4s-0.9-0.7-1.2-1.3
			c-0.3-0.6-0.4-1.2-0.4-1.9c0-1.1,0.3-2,0.9-2.7c0.6-0.6,1.4-1,2.5-1c1,0,1.8,0.3,2.4,1C413.7,206.2,414,207.1,414,208.2z
			 M408.9,208.2c0,1.6,0.6,2.4,1.8,2.4c1.2,0,1.8-0.8,1.8-2.4c0-1.6-0.6-2.4-1.8-2.4c-0.6,0-1.1,0.2-1.4,0.6
			C409,206.8,408.9,207.4,408.9,208.2z"/>
		<path fill="#0A5995" d="M421.5,211.7H420v-4.3c0-0.5-0.1-0.9-0.3-1.2c-0.2-0.3-0.6-0.4-1-0.4c-0.6,0-1.1,0.2-1.4,0.6
			s-0.4,1-0.4,1.9v3.5h-1.5v-7h1.2l0.2,0.9h0.1c0.2-0.3,0.5-0.6,0.9-0.8c0.4-0.2,0.8-0.3,1.3-0.3c1.7,0,2.5,0.9,2.5,2.6V211.7z"/>
		<path fill="#0A5995" d="M428,209.7c0,0.7-0.2,1.2-0.8,1.6c-0.5,0.4-1.2,0.5-2.1,0.5c-0.9,0-1.7-0.1-2.3-0.4v-1.3
			c0.8,0.4,1.6,0.6,2.3,0.6c0.9,0,1.4-0.3,1.4-0.8c0-0.2-0.1-0.3-0.2-0.4c-0.1-0.1-0.3-0.2-0.5-0.4c-0.2-0.1-0.6-0.3-1-0.4
			c-0.8-0.3-1.4-0.6-1.6-0.9c-0.3-0.3-0.4-0.7-0.4-1.2c0-0.6,0.2-1.1,0.7-1.4c0.5-0.3,1.1-0.5,2-0.5c0.8,0,1.6,0.2,2.3,0.5l-0.5,1.1
			c-0.8-0.3-1.4-0.5-1.9-0.5c-0.8,0-1.2,0.2-1.2,0.7c0,0.2,0.1,0.4,0.3,0.6s0.7,0.4,1.3,0.6c0.6,0.2,1,0.4,1.3,0.6
			c0.3,0.2,0.5,0.4,0.6,0.6S428,209.4,428,209.7z"/>
		<path fill="#0A5995" d="M432.3,211.8c-1.1,0-1.9-0.3-2.6-1c-0.6-0.6-0.9-1.5-0.9-2.6c0-1.1,0.3-2,0.9-2.7c0.6-0.7,1.4-1,2.4-1
			c0.9,0,1.7,0.3,2.2,0.8c0.5,0.6,0.8,1.3,0.8,2.3v0.8h-4.7c0,0.7,0.2,1.2,0.6,1.6c0.3,0.4,0.8,0.5,1.5,0.5c0.4,0,0.8,0,1.2-0.1
			c0.4-0.1,0.7-0.2,1.2-0.4v1.2c-0.4,0.2-0.7,0.3-1.1,0.4C433.2,211.8,432.8,211.8,432.3,211.8z M432.1,205.7
			c-0.5,0-0.9,0.2-1.1,0.5c-0.3,0.3-0.5,0.7-0.5,1.3h3.2c0-0.6-0.1-1-0.4-1.3C432.9,205.8,432.5,205.7,432.1,205.7z"/>
		<path fill="#0A5995" d="M439.3,211.8c-1.1,0-1.9-0.3-2.4-0.9c-0.6-0.6-0.8-1.5-0.8-2.7c0-1.2,0.3-2.1,0.9-2.7c0.6-0.6,1.4-1,2.5-1
			c0.7,0,1.4,0.1,2,0.4l-0.5,1.2c-0.6-0.2-1.2-0.4-1.6-0.4c-1.2,0-1.8,0.8-1.8,2.4c0,0.8,0.2,1.4,0.5,1.8s0.7,0.6,1.3,0.6
			c0.7,0,1.3-0.2,1.9-0.5v1.3c-0.3,0.2-0.6,0.3-0.9,0.3S439.7,211.8,439.3,211.8z"/>
		<path fill="#0A5995" d="M445.2,210.6c0.4,0,0.7-0.1,1.1-0.2v1.1c-0.2,0.1-0.4,0.1-0.6,0.2s-0.5,0.1-0.8,0.1
			c-1.4,0-2.1-0.7-2.1-2.2v-3.8h-1v-0.7l1-0.5l0.5-1.5h0.9v1.6h2v1.1h-2v3.8c0,0.4,0.1,0.6,0.3,0.8
			C444.6,210.5,444.9,210.6,445.2,210.6z"/>
		<path fill="#0A5995" d="M450.4,211.8c-1.1,0-1.9-0.3-2.6-1c-0.6-0.6-0.9-1.5-0.9-2.6c0-1.1,0.3-2,0.9-2.7c0.6-0.7,1.4-1,2.4-1
			c0.9,0,1.7,0.3,2.2,0.8c0.5,0.6,0.8,1.3,0.8,2.3v0.8h-4.7c0,0.7,0.2,1.2,0.6,1.6c0.3,0.4,0.8,0.5,1.5,0.5c0.4,0,0.8,0,1.2-0.1
			s0.7-0.2,1.2-0.4v1.2c-0.4,0.2-0.7,0.3-1.1,0.4C451.3,211.8,450.9,211.8,450.4,211.8z M450.1,205.7c-0.5,0-0.9,0.2-1.1,0.5
			c-0.3,0.3-0.5,0.7-0.5,1.3h3.2c0-0.6-0.1-1-0.4-1.3C451,205.8,450.6,205.7,450.1,205.7z"/>
		<path fill="#0A5995" d="M457.1,210.6c0.4,0,0.7-0.1,1.1-0.2v1.1c-0.2,0.1-0.4,0.1-0.6,0.2c-0.3,0-0.5,0.1-0.8,0.1
			c-1.4,0-2.1-0.7-2.1-2.2v-3.8h-1v-0.7l1-0.5l0.5-1.5h0.9v1.6h2v1.1h-2v3.8c0,0.4,0.1,0.6,0.3,0.8
			C456.6,210.5,456.8,210.6,457.1,210.6z"/>
		<path fill="#0A5995" d="M464.2,211.7l-0.2-0.9H464c-0.2,0.3-0.5,0.6-0.9,0.8c-0.4,0.2-0.8,0.3-1.3,0.3c-0.8,0-1.5-0.2-1.9-0.6
			c-0.4-0.4-0.6-1.1-0.6-1.9v-4.6h1.5v4.3c0,0.5,0.1,0.9,0.3,1.2c0.2,0.3,0.6,0.4,1,0.4c0.6,0,1.1-0.2,1.4-0.6
			c0.3-0.4,0.4-1,0.4-1.9v-3.5h1.5v7H464.2z"/>
		<path fill="#0A5995" d="M470.8,204.6c0.3,0,0.5,0,0.7,0.1l-0.1,1.4c-0.2-0.1-0.4-0.1-0.7-0.1c-0.6,0-1.1,0.2-1.5,0.6
			c-0.4,0.4-0.6,0.9-0.6,1.5v3.7h-1.5v-7h1.2l0.2,1.2h0.1c0.2-0.4,0.5-0.8,0.9-1C469.9,204.7,470.3,204.6,470.8,204.6z"/>
		<path fill="#0A5995" d="M472.3,210.9c0-0.3,0.1-0.5,0.2-0.7c0.2-0.2,0.4-0.2,0.7-0.2c0.3,0,0.5,0.1,0.7,0.3
			c0.2,0.2,0.2,0.4,0.2,0.7c0,0.3-0.1,0.5-0.2,0.7s-0.4,0.3-0.7,0.3s-0.5-0.1-0.7-0.3C472.4,211.4,472.3,211.2,472.3,210.9z"/>
		<path fill="#0A5995" d="M483,211.7l-2.7-7.8h-0.1c0.1,1.2,0.1,2.2,0.1,3.2v4.5H479v-9.3h2.1l2.6,7.4h0l2.7-7.4h2.1v9.3h-1.5v-4.6
			c0-0.5,0-1.1,0-1.8c0-0.7,0-1.2,0.1-1.3h-0.1l-2.8,7.7H483z"/>
		<path fill="#0A5995" d="M494.9,211.7l-0.3-1h-0.1c-0.3,0.4-0.7,0.7-1,0.9s-0.8,0.2-1.3,0.2c-0.7,0-1.2-0.2-1.6-0.6
			c-0.4-0.4-0.6-0.9-0.6-1.6c0-0.7,0.3-1.3,0.8-1.6c0.5-0.4,1.4-0.6,2.5-0.6l1.2,0V207c0-0.4-0.1-0.8-0.3-1c-0.2-0.2-0.5-0.3-1-0.3
			c-0.4,0-0.7,0.1-1,0.2c-0.3,0.1-0.6,0.2-1,0.4l-0.5-1.1c0.4-0.2,0.8-0.4,1.2-0.5s0.9-0.2,1.3-0.2c0.9,0,1.6,0.2,2,0.6
			c0.5,0.4,0.7,1,0.7,1.8v4.7H494.9z M492.6,210.7c0.5,0,1-0.2,1.3-0.5c0.3-0.3,0.5-0.7,0.5-1.3v-0.6l-0.9,0c-0.7,0-1.2,0.1-1.5,0.4
			c-0.3,0.2-0.5,0.5-0.5,1c0,0.3,0.1,0.6,0.3,0.7C492,210.6,492.3,210.7,492.6,210.7z"/>
		<path fill="#0A5995" d="M502.6,211.7l-0.2-0.9h-0.1c-0.2,0.3-0.5,0.6-0.9,0.8s-0.8,0.3-1.3,0.3c-0.9,0-1.5-0.2-1.9-0.6
			c-0.4-0.4-0.6-1.1-0.6-1.9v-4.6h1.5v4.3c0,0.5,0.1,0.9,0.3,1.2c0.2,0.3,0.6,0.4,1,0.4c0.6,0,1.1-0.2,1.4-0.6
			c0.3-0.4,0.4-1,0.4-1.9v-3.5h1.5v7H502.6z"/>
		<path fill="#0A5995" d="M509.2,204.6c0.3,0,0.5,0,0.7,0.1l-0.1,1.4c-0.2-0.1-0.4-0.1-0.7-0.1c-0.6,0-1.1,0.2-1.5,0.6
			c-0.4,0.4-0.6,0.9-0.6,1.5v3.7h-1.5v-7h1.2l0.2,1.2h0.1c0.2-0.4,0.5-0.8,0.9-1C508.3,204.7,508.7,204.6,509.2,204.6z"/>
		<path fill="#0A5995" d="M510.8,202.8c0-0.3,0.1-0.5,0.2-0.6c0.1-0.1,0.4-0.2,0.6-0.2c0.3,0,0.5,0.1,0.6,0.2
			c0.1,0.1,0.2,0.3,0.2,0.6c0,0.3-0.1,0.5-0.2,0.6c-0.1,0.1-0.4,0.2-0.6,0.2c-0.3,0-0.5-0.1-0.6-0.2
			C510.9,203.3,510.8,203.1,510.8,202.8z M512.4,211.7h-1.5v-7h1.5V211.7z"/>
		<path fill="#0A5995" d="M518.9,209.7c0,0.7-0.2,1.2-0.7,1.6s-1.2,0.5-2.1,0.5c-0.9,0-1.7-0.1-2.3-0.4v-1.3
			c0.8,0.4,1.6,0.6,2.3,0.6c0.9,0,1.4-0.3,1.4-0.8c0-0.2-0.1-0.3-0.2-0.4c-0.1-0.1-0.3-0.2-0.5-0.4s-0.6-0.3-1-0.4
			c-0.8-0.3-1.4-0.6-1.6-0.9c-0.3-0.3-0.4-0.7-0.4-1.2c0-0.6,0.2-1.1,0.7-1.4c0.5-0.3,1.1-0.5,2-0.5c0.8,0,1.6,0.2,2.3,0.5l-0.5,1.1
			c-0.8-0.3-1.4-0.5-1.9-0.5c-0.8,0-1.2,0.2-1.2,0.7c0,0.2,0.1,0.4,0.3,0.6s0.7,0.4,1.3,0.6c0.6,0.2,1,0.4,1.3,0.6s0.5,0.4,0.6,0.6
			S518.9,209.4,518.9,209.7z"/>
		<path fill="#0A5995" d="M57.8,229.7l-2.7-7h1.6l1.4,4.1c0.2,0.7,0.4,1.2,0.4,1.7h0.1c0-0.3,0.2-0.9,0.4-1.7l1.4-4.1h1.6l-2.7,7
			H57.8z"/>
		<path fill="#0A5995" d="M65.9,229.8c-1.1,0-1.9-0.3-2.6-1s-0.9-1.5-0.9-2.6c0-1.1,0.3-2,0.9-2.7c0.6-0.7,1.4-1,2.4-1
			c0.9,0,1.7,0.3,2.2,0.8c0.5,0.6,0.8,1.3,0.8,2.3v0.8h-4.7c0,0.7,0.2,1.2,0.6,1.6s0.8,0.5,1.5,0.5c0.4,0,0.8,0,1.2-0.1
			c0.4-0.1,0.7-0.2,1.2-0.4v1.2c-0.4,0.2-0.7,0.3-1.1,0.4C66.8,229.8,66.3,229.8,65.9,229.8z M65.6,223.7c-0.5,0-0.9,0.2-1.1,0.5
			c-0.3,0.3-0.5,0.7-0.5,1.3h3.2c0-0.6-0.1-1-0.4-1.3C66.4,223.8,66.1,223.7,65.6,223.7z"/>
		<path fill="#0A5995" d="M76.1,229.7h-1.5v-4.3c0-0.5-0.1-0.9-0.3-1.2c-0.2-0.3-0.6-0.4-1-0.4c-0.6,0-1.1,0.2-1.4,0.6
			s-0.4,1-0.4,1.9v3.5H70v-7h1.2l0.2,0.9h0.1c0.2-0.3,0.5-0.6,0.9-0.8c0.4-0.2,0.8-0.3,1.3-0.3c1.7,0,2.5,0.9,2.5,2.6V229.7z"/>
		<path fill="#0A5995" d="M81,229.8c-1.1,0-1.9-0.3-2.6-1c-0.6-0.6-0.9-1.5-0.9-2.6c0-1.1,0.3-2,0.9-2.7c0.6-0.7,1.4-1,2.4-1
			c0.9,0,1.7,0.3,2.2,0.8c0.5,0.6,0.8,1.3,0.8,2.3v0.8H79c0,0.7,0.2,1.2,0.6,1.6c0.3,0.4,0.8,0.5,1.5,0.5c0.4,0,0.8,0,1.2-0.1
			c0.4-0.1,0.7-0.2,1.2-0.4v1.2c-0.4,0.2-0.7,0.3-1.1,0.4C81.9,229.8,81.4,229.8,81,229.8z M80.7,223.7c-0.5,0-0.9,0.2-1.1,0.5
			c-0.3,0.3-0.5,0.7-0.5,1.3h3.2c0-0.6-0.1-1-0.4-1.3C81.5,223.8,81.2,223.7,80.7,223.7z"/>
		<path fill="#0A5995" d="M91.2,229.7h-1.5v-4.3c0-0.5-0.1-0.9-0.3-1.2c-0.2-0.3-0.6-0.4-1-0.4c-0.6,0-1.1,0.2-1.4,0.6
			c-0.3,0.4-0.4,1-0.4,1.9v3.5h-1.5v-7h1.2l0.2,0.9h0.1c0.2-0.3,0.5-0.6,0.9-0.8c0.4-0.2,0.8-0.3,1.3-0.3c1.7,0,2.5,0.9,2.5,2.6
			V229.7z"/>
		<path fill="#0A5995" d="M97.4,229.7l-0.3-1H97c-0.3,0.4-0.7,0.7-1,0.9c-0.3,0.2-0.8,0.2-1.3,0.2c-0.7,0-1.2-0.2-1.6-0.6
			s-0.6-0.9-0.6-1.6c0-0.7,0.3-1.3,0.8-1.6c0.5-0.4,1.4-0.6,2.5-0.6l1.2,0V225c0-0.4-0.1-0.8-0.3-1c-0.2-0.2-0.5-0.3-1-0.3
			c-0.4,0-0.7,0.1-1,0.2c-0.3,0.1-0.6,0.2-1,0.4l-0.5-1.1c0.4-0.2,0.8-0.4,1.2-0.5c0.5-0.1,0.9-0.2,1.3-0.2c0.9,0,1.6,0.2,2,0.6
			s0.7,1,0.7,1.8v4.7H97.4z M95.2,228.7c0.5,0,1-0.2,1.3-0.5c0.3-0.3,0.5-0.7,0.5-1.3v-0.6l-0.9,0c-0.7,0-1.2,0.1-1.5,0.4
			c-0.3,0.2-0.5,0.5-0.5,1c0,0.3,0.1,0.6,0.3,0.7C94.5,228.6,94.8,228.7,95.2,228.7z"/>
		<path fill="#0A5995" d="M102.8,228.6c0.4,0,0.7-0.1,1.1-0.2v1.1c-0.2,0.1-0.4,0.1-0.6,0.2s-0.5,0.1-0.8,0.1
			c-1.4,0-2.1-0.7-2.1-2.2v-3.8h-1v-0.7l1-0.5l0.5-1.5h0.9v1.6h2v1.1h-2v3.8c0,0.4,0.1,0.6,0.3,0.8
			C102.3,228.5,102.5,228.6,102.8,228.6z"/>
		<path fill="#0A5995" d="M104.9,220.8c0-0.3,0.1-0.5,0.2-0.6c0.1-0.1,0.4-0.2,0.6-0.2c0.3,0,0.5,0.1,0.6,0.2s0.2,0.3,0.2,0.6
			c0,0.3-0.1,0.5-0.2,0.6c-0.1,0.1-0.3,0.2-0.6,0.2c-0.3,0-0.5-0.1-0.6-0.2C105,221.3,104.9,221.1,104.9,220.8z M106.5,229.7H105v-7
			h1.5V229.7z"/>
		<path fill="#0A5995" d="M113,227.7c0,0.7-0.2,1.2-0.8,1.6c-0.5,0.4-1.2,0.5-2.1,0.5c-0.9,0-1.7-0.1-2.3-0.4v-1.3
			c0.8,0.4,1.6,0.6,2.3,0.6c0.9,0,1.4-0.3,1.4-0.8c0-0.2-0.1-0.3-0.2-0.4c-0.1-0.1-0.3-0.2-0.5-0.4c-0.2-0.1-0.6-0.3-1-0.4
			c-0.8-0.3-1.4-0.6-1.6-0.9c-0.3-0.3-0.4-0.7-0.4-1.2c0-0.6,0.2-1.1,0.7-1.4c0.5-0.3,1.1-0.5,2-0.5c0.8,0,1.6,0.2,2.3,0.5l-0.5,1.1
			c-0.8-0.3-1.4-0.5-1.9-0.5c-0.8,0-1.2,0.2-1.2,0.7c0,0.2,0.1,0.4,0.3,0.6s0.7,0.4,1.3,0.6c0.6,0.2,1,0.4,1.3,0.6
			c0.3,0.2,0.5,0.4,0.6,0.6S113,227.4,113,227.7z"/>
		<path fill="#0A5995" d="M118.9,229.7l-2.7-7h1.6l1.4,4.1c0.2,0.7,0.4,1.2,0.4,1.7h0.1c0-0.3,0.2-0.9,0.4-1.7l1.4-4.1h1.6l-2.7,7
			H118.9z"/>
		<path fill="#0A5995" d="M123.9,220.8c0-0.3,0.1-0.5,0.2-0.6c0.1-0.1,0.4-0.2,0.6-0.2c0.3,0,0.5,0.1,0.6,0.2
			c0.1,0.1,0.2,0.3,0.2,0.6c0,0.3-0.1,0.5-0.2,0.6c-0.1,0.1-0.4,0.2-0.6,0.2c-0.3,0-0.5-0.1-0.6-0.2
			C124,221.3,123.9,221.1,123.9,220.8z M125.5,229.7H124v-7h1.5V229.7z"/>
		<path fill="#0A5995" d="M129.9,228.6c0.4,0,0.7-0.1,1.1-0.2v1.1c-0.2,0.1-0.4,0.1-0.6,0.2c-0.3,0-0.5,0.1-0.8,0.1
			c-1.4,0-2.1-0.7-2.1-2.2v-3.8h-1v-0.7l1-0.5l0.5-1.5h0.9v1.6h2v1.1h-2v3.8c0,0.4,0.1,0.6,0.3,0.8
			C129.4,228.5,129.6,228.6,129.9,228.6z"/>
		<path fill="#0A5995" d="M136.4,229.7l-0.3-1h-0.1c-0.3,0.4-0.7,0.7-1,0.9c-0.3,0.2-0.8,0.2-1.3,0.2c-0.7,0-1.2-0.2-1.6-0.6
			s-0.6-0.9-0.6-1.6c0-0.7,0.3-1.3,0.8-1.6c0.5-0.4,1.4-0.6,2.5-0.6l1.2,0V225c0-0.4-0.1-0.8-0.3-1c-0.2-0.2-0.5-0.3-1-0.3
			c-0.4,0-0.7,0.1-1,0.2c-0.3,0.1-0.6,0.2-1,0.4l-0.5-1.1c0.4-0.2,0.8-0.4,1.2-0.5c0.5-0.1,0.9-0.2,1.3-0.2c0.9,0,1.6,0.2,2,0.6
			s0.7,1,0.7,1.8v4.7H136.4z M134.2,228.7c0.5,0,1-0.2,1.3-0.5c0.3-0.3,0.5-0.7,0.5-1.3v-0.6l-0.9,0c-0.7,0-1.2,0.1-1.5,0.4
			c-0.3,0.2-0.5,0.5-0.5,1c0,0.3,0.1,0.6,0.3,0.7C133.6,228.6,133.9,228.7,134.2,228.7z"/>
		<path fill="#0A5995" d="M142.3,229.8c-1.1,0-1.9-0.3-2.6-1c-0.6-0.6-0.9-1.5-0.9-2.6c0-1.1,0.3-2,0.9-2.7c0.6-0.7,1.4-1,2.4-1
			c0.9,0,1.7,0.3,2.2,0.8c0.5,0.6,0.8,1.3,0.8,2.3v0.8h-4.7c0,0.7,0.2,1.2,0.6,1.6c0.3,0.4,0.8,0.5,1.5,0.5c0.4,0,0.8,0,1.2-0.1
			c0.4-0.1,0.7-0.2,1.2-0.4v1.2c-0.4,0.2-0.7,0.3-1.1,0.4C143.2,229.8,142.8,229.8,142.3,229.8z M142.1,223.7
			c-0.5,0-0.9,0.2-1.1,0.5c-0.3,0.3-0.5,0.7-0.5,1.3h3.2c0-0.6-0.1-1-0.4-1.3C142.9,223.8,142.5,223.7,142.1,223.7z"/>
		<path fill="#0A5995" d="M155.7,229.7h-1.5v-4.3c0-0.5-0.1-0.9-0.3-1.2c-0.2-0.3-0.6-0.4-1-0.4c-0.6,0-1.1,0.2-1.4,0.6
			s-0.4,1-0.4,1.9v3.5h-1.5v-7h1.2l0.2,0.9h0.1c0.2-0.3,0.5-0.6,0.9-0.8c0.4-0.2,0.8-0.3,1.3-0.3c1.7,0,2.5,0.9,2.5,2.6V229.7z"/>
		<path fill="#0A5995" d="M162.4,229.7l-0.2-0.9h-0.1c-0.2,0.3-0.5,0.6-0.9,0.8s-0.8,0.3-1.3,0.3c-0.9,0-1.5-0.2-1.9-0.6
			s-0.6-1.1-0.6-1.9v-4.6h1.5v4.3c0,0.5,0.1,0.9,0.3,1.2s0.6,0.4,1,0.4c0.6,0,1.1-0.2,1.4-0.6c0.3-0.4,0.4-1,0.4-1.9v-3.5h1.5v7
			H162.4z"/>
		<path fill="#0A5995" d="M166.8,229.7h-1.5v-9.9h1.5V229.7z"/>
		<path fill="#0A5995" d="M170.1,229.7h-1.5v-9.9h1.5V229.7z"/>
		<path fill="#0A5995" d="M176.3,229.7l-0.3-1H176c-0.3,0.4-0.7,0.7-1,0.9s-0.8,0.2-1.3,0.2c-0.7,0-1.2-0.2-1.6-0.6
			c-0.4-0.4-0.6-0.9-0.6-1.6c0-0.7,0.3-1.3,0.8-1.6c0.5-0.4,1.4-0.6,2.5-0.6l1.2,0V225c0-0.4-0.1-0.8-0.3-1c-0.2-0.2-0.5-0.3-1-0.3
			c-0.4,0-0.7,0.1-1,0.2c-0.3,0.1-0.6,0.2-1,0.4l-0.5-1.1c0.4-0.2,0.8-0.4,1.2-0.5s0.9-0.2,1.3-0.2c0.9,0,1.6,0.2,2,0.6
			c0.5,0.4,0.7,1,0.7,1.8v4.7H176.3z M174.1,228.7c0.5,0,1-0.2,1.3-0.5c0.3-0.3,0.5-0.7,0.5-1.3v-0.6l-0.9,0c-0.7,0-1.2,0.1-1.5,0.4
			c-0.3,0.2-0.5,0.5-0.5,1c0,0.3,0.1,0.6,0.3,0.7C173.5,228.6,173.7,228.7,174.1,228.7z"/>
		<path fill="#0A5995" d="M186.6,229.7l-0.3-1h-0.1c-0.3,0.4-0.7,0.7-1,0.9c-0.3,0.2-0.8,0.2-1.3,0.2c-0.7,0-1.2-0.2-1.6-0.6
			s-0.6-0.9-0.6-1.6c0-0.7,0.3-1.3,0.8-1.6c0.5-0.4,1.4-0.6,2.5-0.6l1.2,0V225c0-0.4-0.1-0.8-0.3-1c-0.2-0.2-0.5-0.3-1-0.3
			c-0.4,0-0.7,0.1-1,0.2c-0.3,0.1-0.6,0.2-1,0.4l-0.5-1.1c0.4-0.2,0.8-0.4,1.2-0.5c0.5-0.1,0.9-0.2,1.3-0.2c0.9,0,1.6,0.2,2,0.6
			s0.7,1,0.7,1.8v4.7H186.6z M184.4,228.7c0.5,0,1-0.2,1.3-0.5c0.3-0.3,0.5-0.7,0.5-1.3v-0.6l-0.9,0c-0.7,0-1.2,0.1-1.5,0.4
			c-0.3,0.2-0.5,0.5-0.5,1c0,0.3,0.1,0.6,0.3,0.7C183.7,228.6,184,228.7,184.4,228.7z"/>
		<path fill="#0A5995" d="M192.3,229.8c-1.1,0-1.9-0.3-2.4-0.9c-0.6-0.6-0.8-1.5-0.8-2.7c0-1.2,0.3-2.1,0.9-2.7s1.4-1,2.5-1
			c0.7,0,1.4,0.1,2,0.4l-0.5,1.2c-0.6-0.2-1.2-0.4-1.6-0.4c-1.2,0-1.8,0.8-1.8,2.4c0,0.8,0.2,1.4,0.5,1.8s0.7,0.6,1.3,0.6
			c0.7,0,1.3-0.2,1.9-0.5v1.3c-0.3,0.2-0.6,0.3-0.9,0.3S192.7,229.8,192.3,229.8z"/>
		<path fill="#0A5995" d="M203.3,227.7c0,0.7-0.2,1.2-0.7,1.6c-0.5,0.4-1.2,0.5-2.1,0.5c-0.9,0-1.7-0.1-2.3-0.4v-1.3
			c0.8,0.4,1.6,0.6,2.3,0.6c0.9,0,1.4-0.3,1.4-0.8c0-0.2-0.1-0.3-0.2-0.4c-0.1-0.1-0.3-0.2-0.5-0.4c-0.2-0.1-0.6-0.3-1-0.4
			c-0.8-0.3-1.4-0.6-1.6-0.9c-0.3-0.3-0.4-0.7-0.4-1.2c0-0.6,0.2-1.1,0.7-1.4s1.1-0.5,2-0.5c0.8,0,1.6,0.2,2.3,0.5l-0.5,1.1
			c-0.8-0.3-1.4-0.5-1.9-0.5c-0.8,0-1.2,0.2-1.2,0.7c0,0.2,0.1,0.4,0.3,0.6c0.2,0.2,0.7,0.4,1.3,0.6c0.6,0.2,1,0.4,1.3,0.6
			c0.3,0.2,0.5,0.4,0.6,0.6S203.3,227.4,203.3,227.7z"/>
		<path fill="#0A5995" d="M210.8,226.2c0,1.1-0.3,2-0.9,2.7c-0.6,0.6-1.4,1-2.5,1c-0.7,0-1.2-0.1-1.7-0.4s-0.9-0.7-1.2-1.3
			c-0.3-0.6-0.4-1.2-0.4-1.9c0-1.1,0.3-2,0.9-2.7c0.6-0.6,1.4-1,2.5-1c1,0,1.8,0.3,2.4,1C210.5,224.2,210.8,225.1,210.8,226.2z
			 M205.7,226.2c0,1.6,0.6,2.4,1.8,2.4c1.2,0,1.8-0.8,1.8-2.4c0-1.6-0.6-2.4-1.8-2.4c-0.6,0-1.1,0.2-1.4,0.6
			C205.9,224.8,205.7,225.4,205.7,226.2z"/>
		<path fill="#0A5995" d="M213.7,229.7h-1.5v-9.9h1.5V229.7z"/>
		<path fill="#0A5995" d="M217,229.7h-1.5v-9.9h1.5V229.7z"/>
		<path fill="#0A5995" d="M218.7,220.8c0-0.3,0.1-0.5,0.2-0.6c0.1-0.1,0.4-0.2,0.6-0.2c0.3,0,0.5,0.1,0.6,0.2
			c0.1,0.1,0.2,0.3,0.2,0.6c0,0.3-0.1,0.5-0.2,0.6c-0.1,0.1-0.4,0.2-0.6,0.2c-0.3,0-0.5-0.1-0.6-0.2
			C218.8,221.3,218.7,221.1,218.7,220.8z M220.3,229.7h-1.5v-7h1.5V229.7z"/>
		<path fill="#0A5995" d="M224.9,229.8c-1.1,0-1.9-0.3-2.4-0.9c-0.6-0.6-0.8-1.5-0.8-2.7c0-1.2,0.3-2.1,0.9-2.7s1.4-1,2.5-1
			c0.7,0,1.4,0.1,2,0.4l-0.5,1.2c-0.6-0.2-1.2-0.4-1.6-0.4c-1.2,0-1.8,0.8-1.8,2.4c0,0.8,0.2,1.4,0.5,1.8s0.7,0.6,1.3,0.6
			c0.7,0,1.3-0.2,1.9-0.5v1.3c-0.3,0.2-0.6,0.3-0.9,0.3S225.4,229.8,224.9,229.8z"/>
		<path fill="#0A5995" d="M228.1,220.8c0-0.3,0.1-0.5,0.2-0.6c0.1-0.1,0.4-0.2,0.6-0.2c0.3,0,0.5,0.1,0.6,0.2s0.2,0.3,0.2,0.6
			c0,0.3-0.1,0.5-0.2,0.6c-0.1,0.1-0.3,0.2-0.6,0.2c-0.3,0-0.5-0.1-0.6-0.2C228.2,221.3,228.1,221.1,228.1,220.8z M229.7,229.7h-1.5
			v-7h1.5V229.7z"/>
		<path fill="#0A5995" d="M234.1,228.6c0.4,0,0.7-0.1,1.1-0.2v1.1c-0.2,0.1-0.4,0.1-0.6,0.2c-0.3,0-0.5,0.1-0.8,0.1
			c-1.4,0-2.1-0.7-2.1-2.2v-3.8h-1v-0.7l1-0.5l0.5-1.5h0.9v1.6h2v1.1h-2v3.8c0,0.4,0.1,0.6,0.3,0.8
			C233.6,228.5,233.8,228.6,234.1,228.6z"/>
		<path fill="#0A5995" d="M241.3,229.7l-0.2-0.9H241c-0.2,0.3-0.5,0.6-0.9,0.8c-0.4,0.2-0.8,0.3-1.3,0.3c-0.8,0-1.5-0.2-1.9-0.6
			c-0.4-0.4-0.6-1.1-0.6-1.9v-4.6h1.5v4.3c0,0.5,0.1,0.9,0.3,1.2c0.2,0.3,0.6,0.4,1,0.4c0.6,0,1.1-0.2,1.4-0.6
			c0.3-0.4,0.4-1,0.4-1.9v-3.5h1.5v7H241.3z"/>
		<path fill="#0A5995" d="M246.6,229.8c-0.9,0-1.6-0.3-2.1-1c-0.5-0.6-0.7-1.5-0.7-2.7c0-1.2,0.2-2,0.7-2.7c0.5-0.6,1.2-1,2.1-1
			c0.9,0,1.6,0.3,2.1,1h0.1c-0.1-0.5-0.1-0.9-0.1-1.2v-2.6h1.5v9.9H249l-0.3-0.9h-0.1C248.2,229.5,247.5,229.8,246.6,229.8z
			 M247,228.6c0.6,0,1.1-0.2,1.3-0.5s0.4-0.9,0.4-1.7v-0.2c0-0.9-0.1-1.5-0.4-1.9s-0.7-0.6-1.4-0.6c-0.5,0-0.9,0.2-1.2,0.6
			c-0.3,0.4-0.4,1-0.4,1.8c0,0.8,0.1,1.4,0.4,1.8S246.4,228.6,247,228.6z"/>
		<path fill="#0A5995" d="M251.9,220.8c0-0.3,0.1-0.5,0.2-0.6s0.4-0.2,0.6-0.2c0.3,0,0.5,0.1,0.6,0.2c0.1,0.1,0.2,0.3,0.2,0.6
			c0,0.3-0.1,0.5-0.2,0.6c-0.1,0.1-0.4,0.2-0.6,0.2c-0.3,0-0.5-0.1-0.6-0.2C252,221.3,251.9,221.1,251.9,220.8z M253.5,229.7H252v-7
			h1.5V229.7z"/>
		<path fill="#0A5995" d="M261.5,229.7H260v-4.3c0-0.5-0.1-0.9-0.3-1.2c-0.2-0.3-0.6-0.4-1-0.4c-0.6,0-1.1,0.2-1.4,0.6
			s-0.4,1-0.4,1.9v3.5h-1.5v-7h1.2l0.2,0.9h0.1c0.2-0.3,0.5-0.6,0.9-0.8c0.4-0.2,0.8-0.3,1.3-0.3c1.7,0,2.5,0.9,2.5,2.6V229.7z"/>
		<path fill="#0A5995" d="M263,228.9c0-0.3,0.1-0.5,0.2-0.7c0.2-0.2,0.4-0.2,0.7-0.2c0.3,0,0.5,0.1,0.7,0.3c0.2,0.2,0.2,0.4,0.2,0.7
			c0,0.3-0.1,0.5-0.2,0.7c-0.2,0.2-0.4,0.3-0.7,0.3s-0.5-0.1-0.7-0.3S263,229.2,263,228.9z"/>
		<path fill="#0A5995" d="M271.2,229.7h-1.5v-9.3h5.2v1.3h-3.7v2.9h3.5v1.3h-3.5V229.7z"/>
		<path fill="#0A5995" d="M281.1,229.7l-0.2-0.9h-0.1c-0.2,0.3-0.5,0.6-0.9,0.8c-0.4,0.2-0.8,0.3-1.3,0.3c-0.9,0-1.5-0.2-1.9-0.6
			s-0.6-1.1-0.6-1.9v-4.6h1.5v4.3c0,0.5,0.1,0.9,0.3,1.2s0.6,0.4,1,0.4c0.6,0,1.1-0.2,1.4-0.6c0.3-0.4,0.4-1,0.4-1.9v-3.5h1.5v7
			H281.1z"/>
		<path fill="#0A5995" d="M288.8,227.7c0,0.7-0.2,1.2-0.7,1.6s-1.2,0.5-2.1,0.5c-0.9,0-1.7-0.1-2.3-0.4v-1.3
			c0.8,0.4,1.6,0.6,2.3,0.6c0.9,0,1.4-0.3,1.4-0.8c0-0.2-0.1-0.3-0.2-0.4c-0.1-0.1-0.3-0.2-0.5-0.4s-0.6-0.3-1-0.4
			c-0.8-0.3-1.4-0.6-1.6-0.9c-0.3-0.3-0.4-0.7-0.4-1.2c0-0.6,0.2-1.1,0.7-1.4c0.5-0.3,1.1-0.5,2-0.5c0.8,0,1.6,0.2,2.3,0.5l-0.5,1.1
			c-0.8-0.3-1.4-0.5-1.9-0.5c-0.8,0-1.2,0.2-1.2,0.7c0,0.2,0.1,0.4,0.3,0.6s0.7,0.4,1.3,0.6c0.6,0.2,1,0.4,1.3,0.6s0.5,0.4,0.6,0.6
			S288.8,227.4,288.8,227.7z"/>
		<path fill="#0A5995" d="M292.9,229.8c-1.1,0-1.9-0.3-2.4-0.9c-0.6-0.6-0.8-1.5-0.8-2.7c0-1.2,0.3-2.1,0.9-2.7s1.4-1,2.5-1
			c0.7,0,1.4,0.1,2,0.4l-0.5,1.2c-0.6-0.2-1.2-0.4-1.6-0.4c-1.2,0-1.8,0.8-1.8,2.4c0,0.8,0.2,1.4,0.5,1.8s0.7,0.6,1.3,0.6
			c0.7,0,1.3-0.2,1.9-0.5v1.3c-0.3,0.2-0.6,0.3-0.9,0.3S293.3,229.8,292.9,229.8z"/>
		<path fill="#0A5995" d="M299.2,229.8c-1.1,0-1.9-0.3-2.6-1s-0.9-1.5-0.9-2.6c0-1.1,0.3-2,0.9-2.7c0.6-0.7,1.4-1,2.4-1
			c0.9,0,1.7,0.3,2.2,0.8c0.5,0.6,0.8,1.3,0.8,2.3v0.8h-4.7c0,0.7,0.2,1.2,0.6,1.6s0.8,0.5,1.5,0.5c0.4,0,0.8,0,1.2-0.1
			c0.4-0.1,0.7-0.2,1.2-0.4v1.2c-0.4,0.2-0.7,0.3-1.1,0.4C300.1,229.8,299.7,229.8,299.2,229.8z M299,223.7c-0.5,0-0.9,0.2-1.1,0.5
			c-0.3,0.3-0.5,0.7-0.5,1.3h3.2c0-0.6-0.1-1-0.4-1.3C299.8,223.8,299.4,223.7,299,223.7z"/>
		<path fill="#0A5995" d="M308,229.7l-2.7-7h1.6l1.4,4.1c0.2,0.7,0.4,1.2,0.4,1.7h0.1c0-0.3,0.2-0.9,0.4-1.7l1.4-4.1h1.6l-2.7,7H308
			z"/>
		<path fill="#0A5995" d="M312.9,220.8c0-0.3,0.1-0.5,0.2-0.6c0.1-0.1,0.4-0.2,0.6-0.2c0.3,0,0.5,0.1,0.6,0.2
			c0.1,0.1,0.2,0.3,0.2,0.6c0,0.3-0.1,0.5-0.2,0.6c-0.1,0.1-0.4,0.2-0.6,0.2c-0.3,0-0.5-0.1-0.6-0.2
			C313,221.3,312.9,221.1,312.9,220.8z M314.5,229.7H313v-7h1.5V229.7z"/>
		<path fill="#0A5995" d="M318.9,228.6c0.4,0,0.7-0.1,1.1-0.2v1.1c-0.2,0.1-0.4,0.1-0.6,0.2c-0.3,0-0.5,0.1-0.8,0.1
			c-1.4,0-2.1-0.7-2.1-2.2v-3.8h-1v-0.7l1-0.5l0.5-1.5h0.9v1.6h2v1.1h-2v3.8c0,0.4,0.1,0.6,0.3,0.8
			C318.4,228.5,318.6,228.6,318.9,228.6z"/>
		<path fill="#0A5995" d="M325.5,229.7l-0.3-1h-0.1c-0.3,0.4-0.7,0.7-1,0.9c-0.3,0.2-0.8,0.2-1.3,0.2c-0.7,0-1.2-0.2-1.6-0.6
			c-0.4-0.4-0.6-0.9-0.6-1.6c0-0.7,0.3-1.3,0.8-1.6c0.5-0.4,1.4-0.6,2.5-0.6l1.2,0V225c0-0.4-0.1-0.8-0.3-1c-0.2-0.2-0.5-0.3-1-0.3
			c-0.4,0-0.7,0.1-1,0.2c-0.3,0.1-0.6,0.2-1,0.4l-0.5-1.1c0.4-0.2,0.8-0.4,1.3-0.5c0.5-0.1,0.9-0.2,1.3-0.2c0.9,0,1.6,0.2,2,0.6
			c0.5,0.4,0.7,1,0.7,1.8v4.7H325.5z M323.3,228.7c0.5,0,1-0.2,1.3-0.5s0.5-0.7,0.5-1.3v-0.6l-0.9,0c-0.7,0-1.2,0.1-1.5,0.4
			c-0.3,0.2-0.5,0.5-0.5,1c0,0.3,0.1,0.6,0.3,0.7C322.6,228.6,322.9,228.7,323.3,228.7z"/>
		<path fill="#0A5995" d="M331.4,229.8c-1.1,0-1.9-0.3-2.6-1c-0.6-0.6-0.9-1.5-0.9-2.6c0-1.1,0.3-2,0.9-2.7c0.6-0.7,1.4-1,2.4-1
			c0.9,0,1.7,0.3,2.2,0.8c0.5,0.6,0.8,1.3,0.8,2.3v0.8h-4.7c0,0.7,0.2,1.2,0.6,1.6c0.3,0.4,0.8,0.5,1.5,0.5c0.4,0,0.8,0,1.2-0.1
			s0.7-0.2,1.2-0.4v1.2c-0.4,0.2-0.7,0.3-1.1,0.4C332.3,229.8,331.9,229.8,331.4,229.8z M331.1,223.7c-0.5,0-0.9,0.2-1.1,0.5
			c-0.3,0.3-0.5,0.7-0.5,1.3h3.2c0-0.6-0.1-1-0.4-1.3C332,223.8,331.6,223.7,331.1,223.7z"/>
		<path fill="#0A5995" d="M342.1,223.8h-1.7v5.9h-1.5v-5.9h-1.2v-0.7l1.2-0.5v-0.5c0-0.8,0.2-1.4,0.6-1.8c0.4-0.4,1-0.6,1.8-0.6
			c0.5,0,1,0.1,1.5,0.3l-0.4,1.1c-0.4-0.1-0.7-0.2-1.1-0.2c-0.3,0-0.6,0.1-0.7,0.3c-0.2,0.2-0.2,0.5-0.2,0.9v0.5h1.7V223.8z"/>
		<path fill="#0A5995" d="M347.3,229.7l-0.3-1H347c-0.3,0.4-0.7,0.7-1,0.9s-0.8,0.2-1.3,0.2c-0.7,0-1.2-0.2-1.6-0.6
			c-0.4-0.4-0.6-0.9-0.6-1.6c0-0.7,0.3-1.3,0.8-1.6c0.5-0.4,1.4-0.6,2.5-0.6l1.2,0V225c0-0.4-0.1-0.8-0.3-1c-0.2-0.2-0.5-0.3-1-0.3
			c-0.4,0-0.7,0.1-1,0.2c-0.3,0.1-0.6,0.2-1,0.4l-0.5-1.1c0.4-0.2,0.8-0.4,1.2-0.5s0.9-0.2,1.3-0.2c0.9,0,1.6,0.2,2,0.6
			c0.5,0.4,0.7,1,0.7,1.8v4.7H347.3z M345.1,228.7c0.5,0,1-0.2,1.3-0.5c0.3-0.3,0.5-0.7,0.5-1.3v-0.6l-0.9,0c-0.7,0-1.2,0.1-1.5,0.4
			c-0.3,0.2-0.5,0.5-0.5,1c0,0.3,0.1,0.6,0.3,0.7C344.4,228.6,344.7,228.7,345.1,228.7z"/>
		<path fill="#0A5995" d="M353,229.8c-1.1,0-1.9-0.3-2.4-0.9c-0.6-0.6-0.8-1.5-0.8-2.7c0-1.2,0.3-2.1,0.9-2.7c0.6-0.6,1.4-1,2.5-1
			c0.7,0,1.4,0.1,2,0.4l-0.5,1.2c-0.6-0.2-1.2-0.4-1.6-0.4c-1.2,0-1.8,0.8-1.8,2.4c0,0.8,0.2,1.4,0.5,1.8s0.7,0.6,1.3,0.6
			c0.7,0,1.3-0.2,1.9-0.5v1.3c-0.3,0.2-0.6,0.3-0.9,0.3S353.4,229.8,353,229.8z"/>
		<path fill="#0A5995" d="M356.2,220.8c0-0.3,0.1-0.5,0.2-0.6c0.1-0.1,0.4-0.2,0.6-0.2c0.3,0,0.5,0.1,0.6,0.2s0.2,0.3,0.2,0.6
			c0,0.3-0.1,0.5-0.2,0.6c-0.1,0.1-0.3,0.2-0.6,0.2c-0.3,0-0.5-0.1-0.6-0.2C356.2,221.3,356.2,221.1,356.2,220.8z M357.7,229.7h-1.5
			v-7h1.5V229.7z"/>
		<path fill="#0A5995" d="M361,229.7h-1.5v-9.9h1.5V229.7z"/>
		<path fill="#0A5995" d="M362.8,220.8c0-0.3,0.1-0.5,0.2-0.6s0.4-0.2,0.6-0.2c0.3,0,0.5,0.1,0.6,0.2c0.1,0.1,0.2,0.3,0.2,0.6
			c0,0.3-0.1,0.5-0.2,0.6c-0.1,0.1-0.4,0.2-0.6,0.2c-0.3,0-0.5-0.1-0.6-0.2C362.8,221.3,362.8,221.1,362.8,220.8z M364.3,229.7h-1.5
			v-7h1.5V229.7z"/>
		<path fill="#0A5995" d="M370.9,227.7c0,0.7-0.2,1.2-0.7,1.6s-1.2,0.5-2.1,0.5c-0.9,0-1.7-0.1-2.3-0.4v-1.3
			c0.8,0.4,1.6,0.6,2.3,0.6c0.9,0,1.4-0.3,1.4-0.8c0-0.2-0.1-0.3-0.2-0.4c-0.1-0.1-0.3-0.2-0.5-0.4s-0.6-0.3-1-0.4
			c-0.8-0.3-1.4-0.6-1.6-0.9c-0.3-0.3-0.4-0.7-0.4-1.2c0-0.6,0.2-1.1,0.7-1.4c0.5-0.3,1.1-0.5,2-0.5c0.8,0,1.6,0.2,2.3,0.5l-0.5,1.1
			c-0.8-0.3-1.4-0.5-1.9-0.5c-0.8,0-1.2,0.2-1.2,0.7c0,0.2,0.1,0.4,0.3,0.6s0.7,0.4,1.3,0.6c0.6,0.2,1,0.4,1.3,0.6s0.5,0.4,0.6,0.6
			S370.9,227.4,370.9,227.7z"/>
		<path fill="#0A5995" d="M372.1,220.8c0-0.3,0.1-0.5,0.2-0.6c0.1-0.1,0.4-0.2,0.6-0.2c0.3,0,0.5,0.1,0.6,0.2
			c0.1,0.1,0.2,0.3,0.2,0.6c0,0.3-0.1,0.5-0.2,0.6c-0.1,0.1-0.4,0.2-0.6,0.2c-0.3,0-0.5-0.1-0.6-0.2
			C372.1,221.3,372.1,221.1,372.1,220.8z M373.6,229.7h-1.5v-7h1.5V229.7z"/>
		<path fill="#0A5995" d="M380.2,227.7c0,0.7-0.2,1.2-0.8,1.6c-0.5,0.4-1.2,0.5-2.1,0.5c-0.9,0-1.7-0.1-2.3-0.4v-1.3
			c0.8,0.4,1.6,0.6,2.3,0.6c0.9,0,1.4-0.3,1.4-0.8c0-0.2-0.1-0.3-0.2-0.4c-0.1-0.1-0.3-0.2-0.5-0.4c-0.2-0.1-0.6-0.3-1-0.4
			c-0.8-0.3-1.4-0.6-1.6-0.9c-0.3-0.3-0.4-0.7-0.4-1.2c0-0.6,0.2-1.1,0.7-1.4c0.5-0.3,1.1-0.5,2-0.5c0.8,0,1.6,0.2,2.3,0.5l-0.5,1.1
			c-0.8-0.3-1.4-0.5-1.9-0.5c-0.8,0-1.2,0.2-1.2,0.7c0,0.2,0.1,0.4,0.3,0.6s0.7,0.4,1.3,0.6c0.6,0.2,1,0.4,1.3,0.6
			c0.3,0.2,0.5,0.4,0.6,0.6S380.2,227.4,380.2,227.7z"/>
		<path fill="#0A5995" d="M386,229.7h-1.5v-9.9h1.5V229.7z"/>
		<path fill="#0A5995" d="M390.9,229.8c-1.1,0-1.9-0.3-2.6-1s-0.9-1.5-0.9-2.6c0-1.1,0.3-2,0.9-2.7c0.6-0.7,1.4-1,2.4-1
			c0.9,0,1.7,0.3,2.2,0.8c0.5,0.6,0.8,1.3,0.8,2.3v0.8h-4.7c0,0.7,0.2,1.2,0.6,1.6s0.8,0.5,1.5,0.5c0.4,0,0.8,0,1.2-0.1
			c0.4-0.1,0.7-0.2,1.2-0.4v1.2c-0.4,0.2-0.7,0.3-1.1,0.4C391.8,229.8,391.4,229.8,390.9,229.8z M390.6,223.7
			c-0.5,0-0.9,0.2-1.1,0.5c-0.3,0.3-0.5,0.7-0.5,1.3h3.2c0-0.6-0.1-1-0.4-1.3C391.5,223.8,391.1,223.7,390.6,223.7z"/>
		<path fill="#0A5995" d="M401.2,226.2c0,1.1-0.3,2-0.9,2.7c-0.6,0.6-1.4,1-2.5,1c-0.7,0-1.2-0.1-1.7-0.4s-0.9-0.7-1.2-1.3
			c-0.3-0.6-0.4-1.2-0.4-1.9c0-1.1,0.3-2,0.9-2.7c0.6-0.6,1.4-1,2.5-1c1,0,1.8,0.3,2.4,1C400.9,224.2,401.2,225.1,401.2,226.2z
			 M396.1,226.2c0,1.6,0.6,2.4,1.8,2.4c1.2,0,1.8-0.8,1.8-2.4c0-1.6-0.6-2.4-1.8-2.4c-0.6,0-1.1,0.2-1.4,0.6
			C396.2,224.8,396.1,225.4,396.1,226.2z"/>
		<path fill="#0A5995" d="M404.1,228.3c-0.2,0.8-0.6,1.8-1.1,3h-1.1c0.3-1.1,0.5-2.2,0.7-3.2h1.5L404.1,228.3z"/>
		<path fill="#0A5995" d="M415,229.7h-1.5v-4.3c0-0.5-0.1-0.9-0.3-1.2c-0.2-0.3-0.6-0.4-1-0.4c-0.6,0-1.1,0.2-1.4,0.6
			s-0.4,1-0.4,1.9v3.5h-1.5v-7h1.2l0.2,0.9h0.1c0.2-0.3,0.5-0.6,0.9-0.8c0.4-0.2,0.8-0.3,1.3-0.3c1.7,0,2.5,0.9,2.5,2.6V229.7z"/>
		<path fill="#0A5995" d="M422.9,226.2c0,1.1-0.3,2-0.9,2.7c-0.6,0.6-1.4,1-2.5,1c-0.7,0-1.2-0.1-1.7-0.4s-0.9-0.7-1.2-1.3
			c-0.3-0.6-0.4-1.2-0.4-1.9c0-1.1,0.3-2,0.9-2.7c0.6-0.6,1.4-1,2.5-1c1,0,1.8,0.3,2.4,1C422.6,224.2,422.9,225.1,422.9,226.2z
			 M417.8,226.2c0,1.6,0.6,2.4,1.8,2.4c1.2,0,1.8-0.8,1.8-2.4c0-1.6-0.6-2.4-1.8-2.4c-0.6,0-1.1,0.2-1.4,0.6
			C418,224.8,417.8,225.4,417.8,226.2z"/>
		<path fill="#0A5995" d="M430.5,229.7H429v-4.3c0-0.5-0.1-0.9-0.3-1.2c-0.2-0.3-0.6-0.4-1-0.4c-0.6,0-1.1,0.2-1.4,0.6
			s-0.4,1-0.4,1.9v3.5h-1.5v-7h1.2l0.2,0.9h0.1c0.2-0.3,0.5-0.6,0.9-0.8c0.4-0.2,0.8-0.3,1.3-0.3c1.7,0,2.5,0.9,2.5,2.6V229.7z"/>
		<path fill="#0A5995" d="M440,227.7c0,0.7-0.2,1.2-0.7,1.6s-1.2,0.5-2.1,0.5c-0.9,0-1.7-0.1-2.3-0.4v-1.3c0.8,0.4,1.6,0.6,2.3,0.6
			c0.9,0,1.4-0.3,1.4-0.8c0-0.2-0.1-0.3-0.2-0.4c-0.1-0.1-0.3-0.2-0.5-0.4s-0.6-0.3-1-0.4c-0.8-0.3-1.4-0.6-1.6-0.9
			c-0.3-0.3-0.4-0.7-0.4-1.2c0-0.6,0.2-1.1,0.7-1.4c0.5-0.3,1.1-0.5,2-0.5c0.8,0,1.6,0.2,2.3,0.5l-0.5,1.1c-0.8-0.3-1.4-0.5-1.9-0.5
			c-0.8,0-1.2,0.2-1.2,0.7c0,0.2,0.1,0.4,0.3,0.6s0.7,0.4,1.3,0.6c0.6,0.2,1,0.4,1.3,0.6s0.5,0.4,0.6,0.6S440,227.4,440,227.7z"/>
		<path fill="#0A5995" d="M446.3,229.7l-0.2-0.9H446c-0.2,0.3-0.5,0.6-0.9,0.8s-0.8,0.3-1.3,0.3c-0.9,0-1.5-0.2-1.9-0.6
			c-0.4-0.4-0.6-1.1-0.6-1.9v-4.6h1.5v4.3c0,0.5,0.1,0.9,0.3,1.2c0.2,0.3,0.6,0.4,1,0.4c0.6,0,1.1-0.2,1.4-0.6
			c0.3-0.4,0.4-1,0.4-1.9v-3.5h1.5v7H446.3z"/>
		<path fill="#0A5995" d="M454,227.7c0,0.7-0.2,1.2-0.7,1.6s-1.2,0.5-2.1,0.5c-0.9,0-1.7-0.1-2.3-0.4v-1.3c0.8,0.4,1.6,0.6,2.3,0.6
			c0.9,0,1.4-0.3,1.4-0.8c0-0.2-0.1-0.3-0.2-0.4c-0.1-0.1-0.3-0.2-0.5-0.4s-0.6-0.3-1-0.4c-0.8-0.3-1.4-0.6-1.6-0.9
			c-0.3-0.3-0.4-0.7-0.4-1.2c0-0.6,0.2-1.1,0.7-1.4s1.1-0.5,2-0.5c0.8,0,1.6,0.2,2.3,0.5l-0.5,1.1c-0.8-0.3-1.4-0.5-1.9-0.5
			c-0.8,0-1.2,0.2-1.2,0.7c0,0.2,0.1,0.4,0.3,0.6c0.2,0.2,0.7,0.4,1.3,0.6c0.6,0.2,1,0.4,1.3,0.6s0.5,0.4,0.6,0.6
			S454,227.4,454,227.7z"/>
		<path fill="#0A5995" d="M458.1,229.8c-1.1,0-1.9-0.3-2.4-0.9c-0.6-0.6-0.8-1.5-0.8-2.7c0-1.2,0.3-2.1,0.9-2.7c0.6-0.6,1.4-1,2.5-1
			c0.7,0,1.4,0.1,2,0.4l-0.5,1.2c-0.6-0.2-1.2-0.4-1.6-0.4c-1.2,0-1.8,0.8-1.8,2.4c0,0.8,0.2,1.4,0.5,1.8c0.3,0.4,0.7,0.6,1.3,0.6
			c0.7,0,1.3-0.2,1.9-0.5v1.3c-0.3,0.2-0.6,0.3-0.9,0.3C458.9,229.8,458.5,229.8,458.1,229.8z"/>
		<path fill="#0A5995" d="M461.3,220.8c0-0.3,0.1-0.5,0.2-0.6s0.4-0.2,0.6-0.2c0.3,0,0.5,0.1,0.6,0.2c0.1,0.1,0.2,0.3,0.2,0.6
			c0,0.3-0.1,0.5-0.2,0.6c-0.1,0.1-0.4,0.2-0.6,0.2c-0.3,0-0.5-0.1-0.6-0.2C461.3,221.3,461.3,221.1,461.3,220.8z M462.9,229.7h-1.5
			v-7h1.5V229.7z"/>
		<path fill="#0A5995" d="M468.2,229.8c-0.9,0-1.6-0.3-2.1-1h-0.1c0.1,0.6,0.1,1,0.1,1.1v2.9h-1.5v-10.1h1.2c0,0.1,0.1,0.4,0.2,0.9
			h0.1c0.5-0.7,1.2-1.1,2.1-1.1c0.9,0,1.6,0.3,2,1c0.5,0.6,0.7,1.5,0.7,2.7c0,1.1-0.2,2-0.7,2.7S469.1,229.8,468.2,229.8z
			 M467.9,223.8c-0.6,0-1,0.2-1.3,0.5c-0.3,0.3-0.4,0.9-0.4,1.7v0.2c0,0.9,0.1,1.5,0.4,1.9c0.3,0.4,0.7,0.6,1.3,0.6
			c0.5,0,0.9-0.2,1.2-0.6s0.4-1,0.4-1.8c0-0.8-0.1-1.4-0.4-1.8S468.4,223.8,467.9,223.8z"/>
		<path fill="#0A5995" d="M472.3,220.8c0-0.3,0.1-0.5,0.2-0.6c0.1-0.1,0.4-0.2,0.6-0.2c0.3,0,0.5,0.1,0.6,0.2
			c0.1,0.1,0.2,0.3,0.2,0.6c0,0.3-0.1,0.5-0.2,0.6c-0.1,0.1-0.4,0.2-0.6,0.2c-0.3,0-0.5-0.1-0.6-0.2
			C472.4,221.3,472.3,221.1,472.3,220.8z M473.9,229.7h-1.5v-7h1.5V229.7z"/>
		<path fill="#0A5995" d="M478.3,228.6c0.4,0,0.7-0.1,1.1-0.2v1.1c-0.2,0.1-0.4,0.1-0.6,0.2c-0.3,0-0.5,0.1-0.8,0.1
			c-1.4,0-2.1-0.7-2.1-2.2v-3.8h-1v-0.7l1-0.5l0.5-1.5h0.9v1.6h2v1.1h-2v3.8c0,0.4,0.1,0.6,0.3,0.8
			C477.8,228.5,478.1,228.6,478.3,228.6z"/>
		<path fill="#0A5995" d="M485.9,229.8c-0.9,0-1.6-0.3-2-1s-0.7-1.5-0.7-2.7c0-1.2,0.2-2,0.7-2.7c0.5-0.6,1.2-1,2.1-1
			c0.9,0,1.6,0.3,2.1,1h0.1c-0.1-0.5-0.1-0.9-0.1-1.2v-2.6h1.5v9.9h-1.2l-0.3-0.9H488C487.6,229.5,486.9,229.8,485.9,229.8z
			 M486.3,228.6c0.6,0,1.1-0.2,1.3-0.5s0.4-0.9,0.4-1.7v-0.2c0-0.9-0.1-1.5-0.4-1.9c-0.3-0.4-0.7-0.6-1.4-0.6
			c-0.5,0-0.9,0.2-1.2,0.6c-0.3,0.4-0.4,1-0.4,1.8c0,0.8,0.1,1.4,0.4,1.8C485.4,228.4,485.8,228.6,486.3,228.6z"/>
		<path fill="#0A5995" d="M491.3,220.8c0-0.3,0.1-0.5,0.2-0.6c0.1-0.1,0.4-0.2,0.6-0.2c0.3,0,0.5,0.1,0.6,0.2
			c0.1,0.1,0.2,0.3,0.2,0.6c0,0.3-0.1,0.5-0.2,0.6c-0.1,0.1-0.4,0.2-0.6,0.2c-0.3,0-0.5-0.1-0.6-0.2
			C491.3,221.3,491.3,221.1,491.3,220.8z M492.8,229.7h-1.5v-7h1.5V229.7z"/>
		<path fill="#0A5995" d="M499,229.7l-0.3-1h-0.1c-0.3,0.4-0.7,0.7-1,0.9c-0.3,0.2-0.8,0.2-1.3,0.2c-0.7,0-1.2-0.2-1.6-0.6
			c-0.4-0.4-0.6-0.9-0.6-1.6c0-0.7,0.3-1.3,0.8-1.6c0.5-0.4,1.4-0.6,2.5-0.6l1.2,0V225c0-0.4-0.1-0.8-0.3-1c-0.2-0.2-0.5-0.3-1-0.3
			c-0.4,0-0.7,0.1-1,0.2c-0.3,0.1-0.6,0.2-1,0.4l-0.5-1.1c0.4-0.2,0.8-0.4,1.3-0.5c0.5-0.1,0.9-0.2,1.3-0.2c0.9,0,1.6,0.2,2,0.6
			c0.5,0.4,0.7,1,0.7,1.8v4.7H499z M496.8,228.7c0.5,0,1-0.2,1.3-0.5s0.5-0.7,0.5-1.3v-0.6l-0.9,0c-0.7,0-1.2,0.1-1.5,0.4
			c-0.3,0.2-0.5,0.5-0.5,1c0,0.3,0.1,0.6,0.3,0.7C496.2,228.6,496.4,228.7,496.8,228.7z"/>
		<path fill="#0A5995" d="M507.8,229.7h-1.5v-4.3c0-0.5-0.1-0.9-0.3-1.2s-0.5-0.4-1-0.4c-0.6,0-1,0.2-1.3,0.6
			c-0.3,0.4-0.4,1-0.4,1.9v3.5h-1.5v-7h1.2l0.2,0.9h0.1c0.2-0.3,0.5-0.6,0.8-0.8c0.4-0.2,0.8-0.3,1.2-0.3c1.1,0,1.8,0.4,2.1,1.1h0.1
			c0.2-0.3,0.5-0.6,0.9-0.8c0.4-0.2,0.8-0.3,1.3-0.3c0.8,0,1.4,0.2,1.8,0.6c0.4,0.4,0.6,1.1,0.6,1.9v4.6h-1.5v-4.3
			c0-0.5-0.1-0.9-0.3-1.2c-0.2-0.3-0.5-0.4-1-0.4c-0.6,0-1,0.2-1.3,0.5c-0.3,0.4-0.4,0.9-0.4,1.7V229.7z"/>
		<path fill="#0A5995" d="M513.7,228.9c0-0.3,0.1-0.5,0.2-0.7c0.2-0.2,0.4-0.2,0.7-0.2c0.3,0,0.5,0.1,0.7,0.3
			c0.2,0.2,0.2,0.4,0.2,0.7c0,0.3-0.1,0.5-0.2,0.7c-0.2,0.2-0.4,0.3-0.7,0.3s-0.5-0.1-0.7-0.3C513.8,229.4,513.7,229.2,513.7,228.9z
			"/>
		<path fill="#0A5995" d="M62.5,241.2c0,1-0.3,1.7-1,2.2c-0.6,0.5-1.5,0.8-2.7,0.8h-1v3.5h-1.5v-9.3H59c1.2,0,2,0.2,2.6,0.7
			S62.5,240.3,62.5,241.2z M57.8,243h0.8c0.8,0,1.3-0.1,1.7-0.4s0.5-0.7,0.5-1.3c0-0.5-0.2-0.9-0.5-1.2c-0.3-0.3-0.8-0.4-1.5-0.4
			h-1.1V243z"/>
		<path fill="#0A5995" d="M66.9,247.8c-1.1,0-1.9-0.3-2.6-1s-0.9-1.5-0.9-2.6c0-1.1,0.3-2,0.9-2.7c0.6-0.7,1.4-1,2.4-1
			c0.9,0,1.7,0.3,2.2,0.8c0.5,0.6,0.8,1.3,0.8,2.3v0.8H65c0,0.7,0.2,1.2,0.6,1.6s0.8,0.5,1.5,0.5c0.4,0,0.8,0,1.2-0.1
			c0.4-0.1,0.7-0.2,1.2-0.4v1.2c-0.4,0.2-0.7,0.3-1.1,0.4C67.8,247.8,67.4,247.8,66.9,247.8z M66.6,241.7c-0.5,0-0.9,0.2-1.1,0.5
			c-0.3,0.3-0.5,0.7-0.5,1.3h3.2c0-0.6-0.1-1-0.4-1.3C67.5,241.8,67.1,241.7,66.6,241.7z"/>
		<path fill="#0A5995" d="M72.5,247.7H71v-9.9h1.5V247.7z"/>
		<path fill="#0A5995" d="M75.8,247.7h-1.5v-9.9h1.5V247.7z"/>
		<path fill="#0A5995" d="M80.7,247.8c-1.1,0-1.9-0.3-2.6-1c-0.6-0.6-0.9-1.5-0.9-2.6c0-1.1,0.3-2,0.9-2.7c0.6-0.7,1.4-1,2.4-1
			c0.9,0,1.7,0.3,2.2,0.8c0.5,0.6,0.8,1.3,0.8,2.3v0.8h-4.7c0,0.7,0.2,1.2,0.6,1.6s0.8,0.5,1.5,0.5c0.4,0,0.8,0,1.2-0.1
			s0.7-0.2,1.2-0.4v1.2c-0.4,0.2-0.7,0.3-1.1,0.4C81.6,247.8,81.1,247.8,80.7,247.8z M80.4,241.7c-0.5,0-0.9,0.2-1.1,0.5
			c-0.3,0.3-0.5,0.7-0.5,1.3h3.2c0-0.6-0.1-1-0.4-1.3C81.2,241.8,80.9,241.7,80.4,241.7z"/>
		<path fill="#0A5995" d="M90.9,247.7h-1.5v-4.3c0-0.5-0.1-0.9-0.3-1.2c-0.2-0.3-0.6-0.4-1-0.4c-0.6,0-1.1,0.2-1.4,0.6
			c-0.3,0.4-0.4,1-0.4,1.9v3.5h-1.5v-7h1.2l0.2,0.9h0.1c0.2-0.3,0.5-0.6,0.9-0.8c0.4-0.2,0.8-0.3,1.3-0.3c1.7,0,2.5,0.9,2.5,2.6
			V247.7z"/>
		<path fill="#0A5995" d="M95.3,246.6c0.4,0,0.7-0.1,1.1-0.2v1.1c-0.2,0.1-0.4,0.1-0.6,0.2c-0.3,0-0.5,0.1-0.8,0.1
			c-1.4,0-2.1-0.7-2.1-2.2v-3.8h-1v-0.7l1-0.5l0.5-1.5h0.9v1.6h2v1.1h-2v3.8c0,0.4,0.1,0.6,0.3,0.8C94.8,246.5,95,246.6,95.3,246.6z
			"/>
		<path fill="#0A5995" d="M100.5,247.8c-1.1,0-1.9-0.3-2.6-1c-0.6-0.6-0.9-1.5-0.9-2.6c0-1.1,0.3-2,0.9-2.7c0.6-0.7,1.4-1,2.4-1
			c0.9,0,1.7,0.3,2.2,0.8c0.5,0.6,0.8,1.3,0.8,2.3v0.8h-4.7c0,0.7,0.2,1.2,0.6,1.6s0.8,0.5,1.5,0.5c0.4,0,0.8,0,1.2-0.1
			s0.7-0.2,1.2-0.4v1.2c-0.4,0.2-0.7,0.3-1.1,0.4C101.5,247.8,101,247.8,100.5,247.8z M100.3,241.7c-0.5,0-0.9,0.2-1.1,0.5
			c-0.3,0.3-0.5,0.7-0.5,1.3h3.2c0-0.6-0.1-1-0.4-1.3C101.1,241.8,100.7,241.7,100.3,241.7z"/>
		<path fill="#0A5995" d="M109.4,245.7c0,0.7-0.2,1.2-0.7,1.6s-1.2,0.5-2.1,0.5c-0.9,0-1.7-0.1-2.3-0.4v-1.3
			c0.8,0.4,1.6,0.6,2.3,0.6c0.9,0,1.4-0.3,1.4-0.8c0-0.2-0.1-0.3-0.2-0.4c-0.1-0.1-0.3-0.2-0.5-0.4s-0.6-0.3-1-0.4
			c-0.8-0.3-1.4-0.6-1.6-0.9c-0.3-0.3-0.4-0.7-0.4-1.2c0-0.6,0.2-1.1,0.7-1.4c0.5-0.3,1.1-0.5,2-0.5c0.8,0,1.6,0.2,2.3,0.5l-0.5,1.1
			c-0.8-0.3-1.4-0.5-1.9-0.5c-0.8,0-1.2,0.2-1.2,0.7c0,0.2,0.1,0.4,0.3,0.6s0.7,0.4,1.3,0.6c0.6,0.2,1,0.4,1.3,0.6s0.5,0.4,0.6,0.6
			S109.4,245.4,109.4,245.7z"/>
		<path fill="#0A5995" d="M113,247.8c-0.9,0-1.5-0.3-2-1c-0.5-0.6-0.7-1.5-0.7-2.7s0.2-2,0.8-2.7c0.5-0.6,1.2-1,2.1-1
			c0.4,0,0.8,0.1,1.2,0.2s0.7,0.4,0.9,0.8h0.1l0.2-0.9h1.2v10.1h-1.5v-3c0-0.2,0-0.4,0-0.6c0-0.2,0-0.4,0-0.5h-0.1
			C114.7,247.5,114,247.8,113,247.8z M113.4,246.6c0.6,0,1.1-0.2,1.3-0.5c0.3-0.4,0.4-0.9,0.4-1.6v-0.2c0-0.9-0.1-1.5-0.4-1.9
			c-0.3-0.4-0.7-0.6-1.4-0.6c-0.5,0-0.9,0.2-1.2,0.6s-0.4,1-0.4,1.8C111.8,245.8,112.3,246.6,113.4,246.6z"/>
		<path fill="#0A5995" d="M123.4,247.7l-0.2-0.9h-0.1c-0.2,0.3-0.5,0.6-0.9,0.8c-0.4,0.2-0.8,0.3-1.3,0.3c-0.9,0-1.5-0.2-1.9-0.6
			s-0.6-1.1-0.6-1.9v-4.6h1.5v4.3c0,0.5,0.1,0.9,0.3,1.2s0.6,0.4,1,0.4c0.6,0,1.1-0.2,1.4-0.6c0.3-0.4,0.4-1,0.4-1.9v-3.5h1.5v7
			H123.4z"/>
		<path fill="#0A5995" d="M129.4,247.8c-1.1,0-1.9-0.3-2.6-1s-0.9-1.5-0.9-2.6c0-1.1,0.3-2,0.9-2.7c0.6-0.7,1.4-1,2.4-1
			c0.9,0,1.7,0.3,2.2,0.8c0.5,0.6,0.8,1.3,0.8,2.3v0.8h-4.7c0,0.7,0.2,1.2,0.6,1.6s0.8,0.5,1.5,0.5c0.4,0,0.8,0,1.2-0.1
			c0.4-0.1,0.7-0.2,1.2-0.4v1.2c-0.4,0.2-0.7,0.3-1.1,0.4C130.3,247.8,129.9,247.8,129.4,247.8z M129.1,241.7
			c-0.5,0-0.9,0.2-1.1,0.5c-0.3,0.3-0.5,0.7-0.5,1.3h3.2c0-0.6-0.1-1-0.4-1.3C130,241.8,129.6,241.7,129.1,241.7z"/>
		<path fill="#0A5995" d="M141.3,245.7c0,0.7-0.2,1.2-0.8,1.6c-0.5,0.4-1.2,0.5-2.1,0.5c-0.9,0-1.7-0.1-2.3-0.4v-1.3
			c0.8,0.4,1.6,0.6,2.3,0.6c0.9,0,1.4-0.3,1.4-0.8c0-0.2-0.1-0.3-0.2-0.4c-0.1-0.1-0.3-0.2-0.5-0.4c-0.2-0.1-0.6-0.3-1-0.4
			c-0.8-0.3-1.4-0.6-1.6-0.9c-0.3-0.3-0.4-0.7-0.4-1.2c0-0.6,0.2-1.1,0.7-1.4c0.5-0.3,1.1-0.5,2-0.5c0.8,0,1.6,0.2,2.3,0.5l-0.5,1.1
			c-0.8-0.3-1.4-0.5-1.9-0.5c-0.8,0-1.2,0.2-1.2,0.7c0,0.2,0.1,0.4,0.3,0.6s0.7,0.4,1.3,0.6c0.6,0.2,1,0.4,1.3,0.6
			c0.3,0.2,0.5,0.4,0.6,0.6S141.3,245.4,141.3,245.7z"/>
		<path fill="#0A5995" d="M145.4,247.8c-1.1,0-1.9-0.3-2.4-0.9c-0.6-0.6-0.8-1.5-0.8-2.7c0-1.2,0.3-2.1,0.9-2.7c0.6-0.6,1.4-1,2.5-1
			c0.7,0,1.4,0.1,2,0.4l-0.5,1.2c-0.6-0.2-1.2-0.4-1.6-0.4c-1.2,0-1.8,0.8-1.8,2.4c0,0.8,0.2,1.4,0.5,1.8c0.3,0.4,0.7,0.6,1.3,0.6
			c0.7,0,1.3-0.2,1.9-0.5v1.3c-0.3,0.2-0.6,0.3-0.9,0.3C146.2,247.8,145.8,247.8,145.4,247.8z"/>
		<path fill="#0A5995" d="M151.8,247.8c-1.1,0-1.9-0.3-2.6-1c-0.6-0.6-0.9-1.5-0.9-2.6c0-1.1,0.3-2,0.9-2.7c0.6-0.7,1.4-1,2.4-1
			c0.9,0,1.7,0.3,2.2,0.8c0.5,0.6,0.8,1.3,0.8,2.3v0.8h-4.7c0,0.7,0.2,1.2,0.6,1.6c0.3,0.4,0.8,0.5,1.5,0.5c0.4,0,0.8,0,1.2-0.1
			c0.4-0.1,0.7-0.2,1.2-0.4v1.2c-0.4,0.2-0.7,0.3-1.1,0.4C152.7,247.8,152.2,247.8,151.8,247.8z M151.5,241.7
			c-0.5,0-0.9,0.2-1.1,0.5c-0.3,0.3-0.5,0.7-0.5,1.3h3.2c0-0.6-0.1-1-0.4-1.3C152.3,241.8,152,241.7,151.5,241.7z"/>
		<path fill="#0A5995" d="M157.3,247.7h-1.5v-9.9h1.5V247.7z"/>
		<path fill="#0A5995" d="M162.2,247.8c-1.1,0-1.9-0.3-2.6-1c-0.6-0.6-0.9-1.5-0.9-2.6c0-1.1,0.3-2,0.9-2.7c0.6-0.7,1.4-1,2.4-1
			c0.9,0,1.7,0.3,2.2,0.8c0.5,0.6,0.8,1.3,0.8,2.3v0.8h-4.7c0,0.7,0.2,1.2,0.6,1.6c0.3,0.4,0.8,0.5,1.5,0.5c0.4,0,0.8,0,1.2-0.1
			c0.4-0.1,0.7-0.2,1.2-0.4v1.2c-0.4,0.2-0.7,0.3-1.1,0.4C163.1,247.8,162.7,247.8,162.2,247.8z M161.9,241.7
			c-0.5,0-0.9,0.2-1.1,0.5c-0.3,0.3-0.5,0.7-0.5,1.3h3.2c0-0.6-0.1-1-0.4-1.3C162.8,241.8,162.4,241.7,161.9,241.7z"/>
		<path fill="#0A5995" d="M169.9,240.6c0.3,0,0.5,0,0.7,0.1l-0.1,1.4c-0.2-0.1-0.4-0.1-0.7-0.1c-0.6,0-1.1,0.2-1.5,0.6
			c-0.4,0.4-0.6,0.9-0.6,1.5v3.7h-1.5v-7h1.2l0.2,1.2h0.1c0.2-0.4,0.5-0.8,0.9-1C169,240.7,169.4,240.6,169.9,240.6z"/>
		<path fill="#0A5995" d="M174.6,238.8c0-0.3,0.1-0.5,0.2-0.6c0.1-0.1,0.4-0.2,0.6-0.2c0.3,0,0.5,0.1,0.6,0.2
			c0.1,0.1,0.2,0.3,0.2,0.6c0,0.3-0.1,0.5-0.2,0.6c-0.1,0.1-0.4,0.2-0.6,0.2c-0.3,0-0.5-0.1-0.6-0.2
			C174.6,239.3,174.6,239.1,174.6,238.8z M176.1,247.7h-1.5v-7h1.5V247.7z"/>
		<path fill="#0A5995" d="M182.7,245.7c0,0.7-0.2,1.2-0.7,1.6s-1.2,0.5-2.1,0.5c-0.9,0-1.7-0.1-2.3-0.4v-1.3
			c0.8,0.4,1.6,0.6,2.3,0.6c0.9,0,1.4-0.3,1.4-0.8c0-0.2-0.1-0.3-0.2-0.4c-0.1-0.1-0.3-0.2-0.5-0.4s-0.6-0.3-1-0.4
			c-0.8-0.3-1.4-0.6-1.6-0.9c-0.3-0.3-0.4-0.7-0.4-1.2c0-0.6,0.2-1.1,0.7-1.4c0.5-0.3,1.1-0.5,2-0.5c0.8,0,1.6,0.2,2.3,0.5l-0.5,1.1
			c-0.8-0.3-1.4-0.5-1.9-0.5c-0.8,0-1.2,0.2-1.2,0.7c0,0.2,0.1,0.4,0.3,0.6s0.7,0.4,1.3,0.6c0.6,0.2,1,0.4,1.3,0.6s0.5,0.4,0.6,0.6
			S182.7,245.4,182.7,245.7z"/>
		<path fill="#0A5995" d="M186.3,247.8c-0.9,0-1.5-0.3-2-1c-0.5-0.6-0.7-1.5-0.7-2.7s0.2-2,0.8-2.7c0.5-0.6,1.2-1,2.1-1
			c0.4,0,0.8,0.1,1.2,0.2s0.7,0.4,0.9,0.8h0.1l0.2-0.9h1.2v10.1h-1.5v-3c0-0.2,0-0.4,0-0.6c0-0.2,0-0.4,0-0.5h-0.1
			C188,247.5,187.3,247.8,186.3,247.8z M186.7,246.6c0.6,0,1.1-0.2,1.3-0.5c0.3-0.4,0.4-0.9,0.4-1.6v-0.2c0-0.9-0.1-1.5-0.4-1.9
			c-0.3-0.4-0.7-0.6-1.4-0.6c-0.5,0-0.9,0.2-1.2,0.6s-0.4,1-0.4,1.8C185.1,245.8,185.6,246.6,186.7,246.6z"/>
		<path fill="#0A5995" d="M196.7,247.7l-0.2-0.9h-0.1c-0.2,0.3-0.5,0.6-0.9,0.8c-0.4,0.2-0.8,0.3-1.3,0.3c-0.9,0-1.5-0.2-1.9-0.6
			s-0.6-1.1-0.6-1.9v-4.6h1.5v4.3c0,0.5,0.1,0.9,0.3,1.2s0.6,0.4,1,0.4c0.6,0,1.1-0.2,1.4-0.6c0.3-0.4,0.4-1,0.4-1.9v-3.5h1.5v7
			H196.7z"/>
		<path fill="#0A5995" d="M202.7,247.8c-1.1,0-1.9-0.3-2.6-1c-0.6-0.6-0.9-1.5-0.9-2.6c0-1.1,0.3-2,0.9-2.7c0.6-0.7,1.4-1,2.4-1
			c0.9,0,1.7,0.3,2.2,0.8c0.5,0.6,0.8,1.3,0.8,2.3v0.8h-4.7c0,0.7,0.2,1.2,0.6,1.6c0.3,0.4,0.8,0.5,1.5,0.5c0.4,0,0.8,0,1.2-0.1
			c0.4-0.1,0.7-0.2,1.2-0.4v1.2c-0.4,0.2-0.7,0.3-1.1,0.4C203.6,247.8,203.2,247.8,202.7,247.8z M202.4,241.7
			c-0.5,0-0.9,0.2-1.1,0.5c-0.3,0.3-0.5,0.7-0.5,1.3h3.2c0-0.6-0.1-1-0.4-1.3C203.3,241.8,202.9,241.7,202.4,241.7z"/>
		<path fill="#0A5995" d="M211.5,247.7l-2.7-7h1.6l1.4,4.1c0.2,0.7,0.4,1.2,0.4,1.7h0.1c0-0.3,0.2-0.9,0.4-1.7l1.4-4.1h1.6l-2.7,7
			H211.5z"/>
		<path fill="#0A5995" d="M221.5,247.7l-0.2-0.9h-0.1c-0.2,0.3-0.5,0.6-0.9,0.8s-0.8,0.3-1.3,0.3c-0.9,0-1.5-0.2-1.9-0.6
			s-0.6-1.1-0.6-1.9v-4.6h1.5v4.3c0,0.5,0.1,0.9,0.3,1.2s0.6,0.4,1,0.4c0.6,0,1.1-0.2,1.4-0.6c0.3-0.4,0.4-1,0.4-1.9v-3.5h1.5v7
			H221.5z"/>
		<path fill="#0A5995" d="M225.9,247.7h-1.5v-9.9h1.5V247.7z"/>
		<path fill="#0A5995" d="M231.3,247.8c-0.9,0-1.6-0.3-2.1-1h-0.1c0.1,0.6,0.1,1,0.1,1.1v2.9h-1.5v-10.1h1.2c0,0.1,0.1,0.4,0.2,0.9
			h0.1c0.5-0.7,1.2-1.1,2.1-1.1c0.9,0,1.6,0.3,2,1s0.7,1.5,0.7,2.7c0,1.1-0.2,2-0.7,2.7C232.9,247.5,232.2,247.8,231.3,247.8z
			 M230.9,241.8c-0.6,0-1,0.2-1.3,0.5s-0.4,0.9-0.4,1.7v0.2c0,0.9,0.1,1.5,0.4,1.9s0.7,0.6,1.3,0.6c0.5,0,0.9-0.2,1.2-0.6
			s0.4-1,0.4-1.8c0-0.8-0.1-1.4-0.4-1.8C231.9,242,231.5,241.8,230.9,241.8z"/>
		<path fill="#0A5995" d="M240.5,247.7l-0.2-0.9h-0.1c-0.2,0.3-0.5,0.6-0.9,0.8c-0.4,0.2-0.8,0.3-1.3,0.3c-0.9,0-1.5-0.2-1.9-0.6
			s-0.6-1.1-0.6-1.9v-4.6h1.5v4.3c0,0.5,0.1,0.9,0.3,1.2s0.6,0.4,1,0.4c0.6,0,1.1-0.2,1.4-0.6c0.3-0.4,0.4-1,0.4-1.9v-3.5h1.5v7
			H240.5z"/>
		<path fill="#0A5995" d="M246,246.6c0.4,0,0.7-0.1,1.1-0.2v1.1c-0.2,0.1-0.4,0.1-0.6,0.2s-0.5,0.1-0.8,0.1c-1.4,0-2.1-0.7-2.1-2.2
			v-3.8h-1v-0.7l1-0.5l0.5-1.5h0.9v1.6h2v1.1h-2v3.8c0,0.4,0.1,0.6,0.3,0.8C245.5,246.5,245.8,246.6,246,246.6z"/>
		<path fill="#0A5995" d="M252.6,247.7l-0.3-1h-0.1c-0.3,0.4-0.7,0.7-1,0.9c-0.3,0.2-0.8,0.2-1.3,0.2c-0.7,0-1.2-0.2-1.6-0.6
			c-0.4-0.4-0.6-0.9-0.6-1.6c0-0.7,0.3-1.3,0.8-1.6c0.5-0.4,1.4-0.6,2.5-0.6l1.2,0V243c0-0.4-0.1-0.8-0.3-1c-0.2-0.2-0.5-0.3-1-0.3
			c-0.4,0-0.7,0.1-1,0.2c-0.3,0.1-0.6,0.2-1,0.4l-0.5-1.1c0.4-0.2,0.8-0.4,1.3-0.5c0.5-0.1,0.9-0.2,1.3-0.2c0.9,0,1.6,0.2,2,0.6
			c0.5,0.4,0.7,1,0.7,1.8v4.7H252.6z M250.4,246.7c0.5,0,1-0.2,1.3-0.5s0.5-0.7,0.5-1.3v-0.6l-0.9,0c-0.7,0-1.2,0.1-1.5,0.4
			c-0.3,0.2-0.5,0.5-0.5,1c0,0.3,0.1,0.6,0.3,0.7C249.7,246.6,250,246.7,250.4,246.7z"/>
		<path fill="#0A5995" d="M258,246.6c0.4,0,0.7-0.1,1.1-0.2v1.1c-0.2,0.1-0.4,0.1-0.6,0.2c-0.3,0-0.5,0.1-0.8,0.1
			c-1.4,0-2.1-0.7-2.1-2.2v-3.8h-1v-0.7l1-0.5l0.5-1.5h0.9v1.6h2v1.1h-2v3.8c0,0.4,0.1,0.6,0.3,0.8
			C257.5,246.5,257.8,246.6,258,246.6z"/>
		<path fill="#0A5995" d="M263.3,247.8c-1.1,0-1.9-0.3-2.6-1c-0.6-0.6-0.9-1.5-0.9-2.6c0-1.1,0.3-2,0.9-2.7c0.6-0.7,1.4-1,2.4-1
			c0.9,0,1.7,0.3,2.2,0.8c0.5,0.6,0.8,1.3,0.8,2.3v0.8h-4.7c0,0.7,0.2,1.2,0.6,1.6s0.8,0.5,1.5,0.5c0.4,0,0.8,0,1.2-0.1
			s0.7-0.2,1.2-0.4v1.2c-0.4,0.2-0.7,0.3-1.1,0.4C264.2,247.8,263.8,247.8,263.3,247.8z M263,241.7c-0.5,0-0.9,0.2-1.1,0.5
			c-0.3,0.3-0.5,0.7-0.5,1.3h3.2c0-0.6-0.1-1-0.4-1.3C263.9,241.8,263.5,241.7,263,241.7z"/>
		<path fill="#0A5995" d="M271.9,247.7h-1.5v-9.9h1.5V247.7z"/>
		<path fill="#0A5995" d="M273.6,238.8c0-0.3,0.1-0.5,0.2-0.6c0.1-0.1,0.4-0.2,0.6-0.2c0.3,0,0.5,0.1,0.6,0.2s0.2,0.3,0.2,0.6
			c0,0.3-0.1,0.5-0.2,0.6c-0.1,0.1-0.3,0.2-0.6,0.2c-0.3,0-0.5-0.1-0.6-0.2C273.7,239.3,273.6,239.1,273.6,238.8z M275.2,247.7h-1.5
			v-7h1.5V247.7z"/>
		<path fill="#0A5995" d="M280.6,240.6c0.9,0,1.6,0.3,2,1c0.5,0.6,0.7,1.5,0.7,2.7c0,1.2-0.2,2-0.7,2.7c-0.5,0.6-1.2,1-2.1,1
			c-0.9,0-1.6-0.3-2.1-1h-0.1l-0.3,0.8H277v-9.9h1.5v2.3c0,0.2,0,0.4,0,0.8c0,0.3,0,0.6,0,0.7h0.1
			C279,240.9,279.7,240.6,280.6,240.6z M280.2,241.8c-0.6,0-1,0.2-1.3,0.5s-0.4,0.9-0.4,1.8v0.1c0,0.9,0.1,1.5,0.4,1.9
			c0.3,0.4,0.7,0.6,1.3,0.6c0.5,0,0.9-0.2,1.2-0.6c0.3-0.4,0.4-1,0.4-1.8C281.9,242.6,281.3,241.8,280.2,241.8z"/>
		<path fill="#0A5995" d="M287.9,247.8c-1.1,0-1.9-0.3-2.6-1s-0.9-1.5-0.9-2.6c0-1.1,0.3-2,0.9-2.7c0.6-0.7,1.4-1,2.4-1
			c0.9,0,1.7,0.3,2.2,0.8c0.5,0.6,0.8,1.3,0.8,2.3v0.8h-4.7c0,0.7,0.2,1.2,0.6,1.6s0.8,0.5,1.5,0.5c0.4,0,0.8,0,1.2-0.1
			c0.4-0.1,0.7-0.2,1.2-0.4v1.2c-0.4,0.2-0.7,0.3-1.1,0.4C288.8,247.8,288.3,247.8,287.9,247.8z M287.6,241.7
			c-0.5,0-0.9,0.2-1.1,0.5c-0.3,0.3-0.5,0.7-0.5,1.3h3.2c0-0.6-0.1-1-0.4-1.3C288.4,241.8,288.1,241.7,287.6,241.7z"/>
		<path fill="#0A5995" d="M295.5,240.6c0.3,0,0.5,0,0.7,0.1l-0.1,1.4c-0.2-0.1-0.4-0.1-0.7-0.1c-0.6,0-1.1,0.2-1.5,0.6
			c-0.4,0.4-0.6,0.9-0.6,1.5v3.7H292v-7h1.2l0.2,1.2h0.1c0.2-0.4,0.5-0.8,0.9-1C294.7,240.7,295.1,240.6,295.5,240.6z"/>
		<path fill="#0A5995" d="M303.5,244.2c0,1.1-0.3,2-0.9,2.7s-1.4,1-2.5,1c-0.7,0-1.2-0.1-1.7-0.4c-0.5-0.3-0.9-0.7-1.2-1.3
			c-0.3-0.6-0.4-1.2-0.4-1.9c0-1.1,0.3-2,0.9-2.7c0.6-0.6,1.4-1,2.5-1c1,0,1.8,0.3,2.4,1C303.2,242.2,303.5,243.1,303.5,244.2z
			 M298.4,244.2c0,1.6,0.6,2.4,1.8,2.4c1.2,0,1.8-0.8,1.8-2.4c0-1.6-0.6-2.4-1.8-2.4c-0.6,0-1.1,0.2-1.4,0.6
			C298.5,242.8,298.4,243.4,298.4,244.2z"/>
		<path fill="#0A5995" d="M306.4,246.3c-0.2,0.8-0.6,1.8-1.1,3h-1.1c0.3-1.1,0.5-2.2,0.7-3.2h1.5L306.4,246.3z"/>
		<path fill="#0A5995" d="M314.1,247.8c-1.1,0-1.9-0.3-2.6-1c-0.6-0.6-0.9-1.5-0.9-2.6c0-1.1,0.3-2,0.9-2.7c0.6-0.7,1.4-1,2.4-1
			c0.9,0,1.7,0.3,2.2,0.8c0.5,0.6,0.8,1.3,0.8,2.3v0.8h-4.7c0,0.7,0.2,1.2,0.6,1.6c0.3,0.4,0.8,0.5,1.5,0.5c0.4,0,0.8,0,1.2-0.1
			c0.4-0.1,0.7-0.2,1.2-0.4v1.2c-0.4,0.2-0.7,0.3-1.1,0.4C315,247.8,314.6,247.8,314.1,247.8z M313.9,241.7c-0.5,0-0.9,0.2-1.1,0.5
			c-0.3,0.3-0.5,0.7-0.5,1.3h3.2c0-0.6-0.1-1-0.4-1.3C314.7,241.8,314.3,241.7,313.9,241.7z"/>
		<path fill="#0A5995" d="M320.8,246.6c0.4,0,0.7-0.1,1.1-0.2v1.1c-0.2,0.1-0.4,0.1-0.6,0.2c-0.3,0-0.5,0.1-0.8,0.1
			c-1.4,0-2.1-0.7-2.1-2.2v-3.8h-1v-0.7l1-0.5l0.5-1.5h0.9v1.6h2v1.1h-2v3.8c0,0.4,0.1,0.6,0.3,0.8
			C320.3,246.5,320.6,246.6,320.8,246.6z"/>
		<path fill="#0A5995" d="M330.8,245.7c0,0.7-0.2,1.2-0.8,1.6c-0.5,0.4-1.2,0.5-2.1,0.5c-0.9,0-1.7-0.1-2.3-0.4v-1.3
			c0.8,0.4,1.6,0.6,2.3,0.6c0.9,0,1.4-0.3,1.4-0.8c0-0.2-0.1-0.3-0.2-0.4c-0.1-0.1-0.3-0.2-0.5-0.4c-0.2-0.1-0.6-0.3-1-0.4
			c-0.8-0.3-1.4-0.6-1.6-0.9c-0.3-0.3-0.4-0.7-0.4-1.2c0-0.6,0.2-1.1,0.7-1.4c0.5-0.3,1.1-0.5,2-0.5c0.8,0,1.6,0.2,2.3,0.5l-0.5,1.1
			c-0.8-0.3-1.4-0.5-1.9-0.5c-0.8,0-1.2,0.2-1.2,0.7c0,0.2,0.1,0.4,0.3,0.6s0.7,0.4,1.3,0.6c0.6,0.2,1,0.4,1.3,0.6
			c0.3,0.2,0.5,0.4,0.6,0.6S330.8,245.4,330.8,245.7z"/>
		<path fill="#0A5995" d="M337,247.7l-0.2-0.9h-0.1c-0.2,0.3-0.5,0.6-0.9,0.8s-0.8,0.3-1.3,0.3c-0.9,0-1.5-0.2-1.9-0.6
			s-0.6-1.1-0.6-1.9v-4.6h1.5v4.3c0,0.5,0.1,0.9,0.3,1.2s0.6,0.4,1,0.4c0.6,0,1.1-0.2,1.4-0.6c0.3-0.4,0.4-1,0.4-1.9v-3.5h1.5v7H337
			z"/>
		<path fill="#0A5995" d="M344.7,245.7c0,0.7-0.2,1.2-0.7,1.6c-0.5,0.4-1.2,0.5-2.1,0.5c-0.9,0-1.7-0.1-2.3-0.4v-1.3
			c0.8,0.4,1.6,0.6,2.3,0.6c0.9,0,1.4-0.3,1.4-0.8c0-0.2-0.1-0.3-0.2-0.4c-0.1-0.1-0.3-0.2-0.5-0.4c-0.2-0.1-0.6-0.3-1-0.4
			c-0.8-0.3-1.4-0.6-1.6-0.9c-0.3-0.3-0.4-0.7-0.4-1.2c0-0.6,0.2-1.1,0.7-1.4s1.1-0.5,2-0.5c0.8,0,1.6,0.2,2.3,0.5l-0.5,1.1
			c-0.8-0.3-1.4-0.5-1.9-0.5c-0.8,0-1.2,0.2-1.2,0.7c0,0.2,0.1,0.4,0.3,0.6c0.2,0.2,0.7,0.4,1.3,0.6c0.6,0.2,1,0.4,1.3,0.6
			c0.3,0.2,0.5,0.4,0.6,0.6S344.7,245.4,344.7,245.7z"/>
		<path fill="#0A5995" d="M348.8,247.8c-1.1,0-1.9-0.3-2.4-0.9s-0.8-1.5-0.8-2.7c0-1.2,0.3-2.1,0.9-2.7c0.6-0.6,1.4-1,2.5-1
			c0.7,0,1.4,0.1,2,0.4l-0.5,1.2c-0.6-0.2-1.2-0.4-1.6-0.4c-1.2,0-1.8,0.8-1.8,2.4c0,0.8,0.2,1.4,0.5,1.8c0.3,0.4,0.7,0.6,1.3,0.6
			c0.7,0,1.3-0.2,1.9-0.5v1.3c-0.3,0.2-0.6,0.3-0.9,0.3C349.6,247.8,349.3,247.8,348.8,247.8z"/>
		<path fill="#0A5995" d="M352,238.8c0-0.3,0.1-0.5,0.2-0.6s0.4-0.2,0.6-0.2c0.3,0,0.5,0.1,0.6,0.2c0.1,0.1,0.2,0.3,0.2,0.6
			c0,0.3-0.1,0.5-0.2,0.6c-0.1,0.1-0.4,0.2-0.6,0.2c-0.3,0-0.5-0.1-0.6-0.2C352.1,239.3,352,239.1,352,238.8z M353.6,247.7h-1.5v-7
			h1.5V247.7z"/>
		<path fill="#0A5995" d="M359,247.8c-0.9,0-1.6-0.3-2.1-1h-0.1c0.1,0.6,0.1,1,0.1,1.1v2.9h-1.5v-10.1h1.2c0,0.1,0.1,0.4,0.2,0.9
			h0.1c0.5-0.7,1.2-1.1,2.1-1.1c0.9,0,1.6,0.3,2,1s0.7,1.5,0.7,2.7c0,1.1-0.2,2-0.7,2.7C360.5,247.5,359.8,247.8,359,247.8z
			 M358.6,241.8c-0.6,0-1,0.2-1.3,0.5s-0.4,0.9-0.4,1.7v0.2c0,0.9,0.1,1.5,0.4,1.9s0.7,0.6,1.3,0.6c0.5,0,0.9-0.2,1.2-0.6
			s0.4-1,0.4-1.8c0-0.8-0.1-1.4-0.4-1.8C359.6,242,359.1,241.8,358.6,241.8z"/>
		<path fill="#0A5995" d="M363.1,238.8c0-0.3,0.1-0.5,0.2-0.6s0.4-0.2,0.6-0.2c0.3,0,0.5,0.1,0.6,0.2c0.1,0.1,0.2,0.3,0.2,0.6
			c0,0.3-0.1,0.5-0.2,0.6c-0.1,0.1-0.4,0.2-0.6,0.2c-0.3,0-0.5-0.1-0.6-0.2C363.2,239.3,363.1,239.1,363.1,238.8z M364.7,247.7h-1.5
			v-7h1.5V247.7z"/>
		<path fill="#0A5995" d="M369.1,246.6c0.4,0,0.7-0.1,1.1-0.2v1.1c-0.2,0.1-0.4,0.1-0.6,0.2s-0.5,0.1-0.8,0.1
			c-1.4,0-2.1-0.7-2.1-2.2v-3.8h-1v-0.7l1-0.5l0.5-1.5h0.9v1.6h2v1.1h-2v3.8c0,0.4,0.1,0.6,0.3,0.8
			C368.6,246.5,368.8,246.6,369.1,246.6z"/>
		<path fill="#0A5995" d="M376.7,247.8c-0.9,0-1.6-0.3-2-1s-0.7-1.5-0.7-2.7c0-1.2,0.2-2,0.7-2.7c0.5-0.6,1.2-1,2.1-1
			c0.9,0,1.6,0.3,2.1,1h0.1c-0.1-0.5-0.1-0.9-0.1-1.2v-2.6h1.5v9.9h-1.2l-0.3-0.9h-0.1C378.3,247.5,377.6,247.8,376.7,247.8z
			 M377.1,246.6c0.6,0,1.1-0.2,1.3-0.5s0.4-0.9,0.4-1.7v-0.2c0-0.9-0.1-1.5-0.4-1.9c-0.3-0.4-0.7-0.6-1.4-0.6
			c-0.5,0-0.9,0.2-1.2,0.6c-0.3,0.4-0.4,1-0.4,1.8c0,0.8,0.1,1.4,0.4,1.8C376.1,246.4,376.5,246.6,377.1,246.6z"/>
		<path fill="#0A5995" d="M388.3,244.2c0,1.1-0.3,2-0.9,2.7c-0.6,0.6-1.4,1-2.5,1c-0.7,0-1.2-0.1-1.7-0.4s-0.9-0.7-1.2-1.3
			c-0.3-0.6-0.4-1.2-0.4-1.9c0-1.1,0.3-2,0.9-2.7c0.6-0.6,1.4-1,2.5-1c1,0,1.8,0.3,2.4,1C388,242.2,388.3,243.1,388.3,244.2z
			 M383.2,244.2c0,1.6,0.6,2.4,1.8,2.4c1.2,0,1.8-0.8,1.8-2.4c0-1.6-0.6-2.4-1.8-2.4c-0.6,0-1.1,0.2-1.4,0.6
			S383.2,243.4,383.2,244.2z"/>
		<path fill="#0A5995" d="M391.2,247.7h-1.5v-9.9h1.5V247.7z"/>
		<path fill="#0A5995" d="M399.2,244.2c0,1.1-0.3,2-0.9,2.7s-1.4,1-2.5,1c-0.7,0-1.2-0.1-1.7-0.4c-0.5-0.3-0.9-0.7-1.2-1.3
			c-0.3-0.6-0.4-1.2-0.4-1.9c0-1.1,0.3-2,0.9-2.7c0.6-0.6,1.4-1,2.5-1c1,0,1.8,0.3,2.4,1C398.9,242.2,399.2,243.1,399.2,244.2z
			 M394.1,244.2c0,1.6,0.6,2.4,1.8,2.4c1.2,0,1.8-0.8,1.8-2.4c0-1.6-0.6-2.4-1.8-2.4c-0.6,0-1.1,0.2-1.4,0.6
			C394.3,242.8,394.1,243.4,394.1,244.2z"/>
		<path fill="#0A5995" d="M404.2,240.6c0.3,0,0.5,0,0.7,0.1l-0.1,1.4c-0.2-0.1-0.4-0.1-0.7-0.1c-0.6,0-1.1,0.2-1.5,0.6
			c-0.4,0.4-0.6,0.9-0.6,1.5v3.7h-1.5v-7h1.2l0.2,1.2h0.1c0.2-0.4,0.5-0.8,0.9-1S403.8,240.6,404.2,240.6z"/>
		<path fill="#0A5995" d="M414.9,247.7h-1.5v-4.3c0-0.5-0.1-0.9-0.3-1.2s-0.5-0.4-1-0.4c-0.6,0-1,0.2-1.3,0.6
			c-0.3,0.4-0.4,1-0.4,1.9v3.5H409v-7h1.2l0.2,0.9h0.1c0.2-0.3,0.5-0.6,0.8-0.8c0.4-0.2,0.8-0.3,1.2-0.3c1.1,0,1.8,0.4,2.1,1.1h0.1
			c0.2-0.3,0.5-0.6,0.9-0.8s0.8-0.3,1.3-0.3c0.8,0,1.4,0.2,1.8,0.6s0.6,1.1,0.6,1.9v4.6h-1.5v-4.3c0-0.5-0.1-0.9-0.3-1.2
			s-0.5-0.4-1-0.4c-0.6,0-1,0.2-1.3,0.5c-0.3,0.4-0.4,0.9-0.4,1.7V247.7z"/>
		<path fill="#0A5995" d="M427.3,244.2c0,1.1-0.3,2-0.9,2.7c-0.6,0.6-1.4,1-2.5,1c-0.7,0-1.2-0.1-1.7-0.4s-0.9-0.7-1.2-1.3
			c-0.3-0.6-0.4-1.2-0.4-1.9c0-1.1,0.3-2,0.9-2.7c0.6-0.6,1.4-1,2.5-1c1,0,1.8,0.3,2.4,1C427,242.2,427.3,243.1,427.3,244.2z
			 M422.2,244.2c0,1.6,0.6,2.4,1.8,2.4c1.2,0,1.8-0.8,1.8-2.4c0-1.6-0.6-2.4-1.8-2.4c-0.6,0-1.1,0.2-1.4,0.6
			S422.2,243.4,422.2,244.2z"/>
		<path fill="#0A5995" d="M430.2,247.7h-1.5v-9.9h1.5V247.7z"/>
		<path fill="#0A5995" d="M433.5,247.7H432v-9.9h1.5V247.7z"/>
		<path fill="#0A5995" d="M435.2,238.8c0-0.3,0.1-0.5,0.2-0.6c0.1-0.1,0.4-0.2,0.6-0.2c0.3,0,0.5,0.1,0.6,0.2s0.2,0.3,0.2,0.6
			c0,0.3-0.1,0.5-0.2,0.6c-0.1,0.1-0.3,0.2-0.6,0.2c-0.3,0-0.5-0.1-0.6-0.2C435.3,239.3,435.2,239.1,435.2,238.8z M436.8,247.7h-1.5
			v-7h1.5V247.7z"/>
		<path fill="#0A5995" d="M443.3,245.7c0,0.7-0.2,1.2-0.7,1.6s-1.2,0.5-2.1,0.5c-0.9,0-1.7-0.1-2.3-0.4v-1.3
			c0.8,0.4,1.6,0.6,2.3,0.6c0.9,0,1.4-0.3,1.4-0.8c0-0.2-0.1-0.3-0.2-0.4c-0.1-0.1-0.3-0.2-0.5-0.4s-0.6-0.3-1-0.4
			c-0.8-0.3-1.4-0.6-1.6-0.9c-0.3-0.3-0.4-0.7-0.4-1.2c0-0.6,0.2-1.1,0.7-1.4s1.1-0.5,2-0.5c0.8,0,1.6,0.2,2.3,0.5l-0.5,1.1
			c-0.8-0.3-1.4-0.5-1.9-0.5c-0.8,0-1.2,0.2-1.2,0.7c0,0.2,0.1,0.4,0.3,0.6c0.2,0.2,0.7,0.4,1.3,0.6c0.6,0.2,1,0.4,1.3,0.6
			s0.5,0.4,0.6,0.6S443.3,245.4,443.3,245.7z"/>
		<path fill="#0A5995" d="M452.4,245.7c0,0.7-0.2,1.2-0.7,1.6s-1.2,0.5-2.1,0.5c-0.9,0-1.7-0.1-2.3-0.4v-1.3
			c0.8,0.4,1.6,0.6,2.3,0.6c0.9,0,1.4-0.3,1.4-0.8c0-0.2-0.1-0.3-0.2-0.4c-0.1-0.1-0.3-0.2-0.5-0.4s-0.6-0.3-1-0.4
			c-0.8-0.3-1.4-0.6-1.6-0.9c-0.3-0.3-0.4-0.7-0.4-1.2c0-0.6,0.2-1.1,0.7-1.4c0.5-0.3,1.1-0.5,2-0.5c0.8,0,1.6,0.2,2.3,0.5l-0.5,1.1
			c-0.8-0.3-1.4-0.5-1.9-0.5c-0.8,0-1.2,0.2-1.2,0.7c0,0.2,0.1,0.4,0.3,0.6s0.7,0.4,1.3,0.6c0.6,0.2,1,0.4,1.3,0.6s0.5,0.4,0.6,0.6
			S452.4,245.4,452.4,245.7z"/>
		<path fill="#0A5995" d="M456.7,247.8c-1.1,0-1.9-0.3-2.6-1c-0.6-0.6-0.9-1.5-0.9-2.6c0-1.1,0.3-2,0.9-2.7c0.6-0.7,1.4-1,2.4-1
			c0.9,0,1.7,0.3,2.2,0.8c0.5,0.6,0.8,1.3,0.8,2.3v0.8h-4.7c0,0.7,0.2,1.2,0.6,1.6c0.3,0.4,0.8,0.5,1.5,0.5c0.4,0,0.8,0,1.2-0.1
			s0.7-0.2,1.2-0.4v1.2c-0.4,0.2-0.7,0.3-1.1,0.4C457.6,247.8,457.2,247.8,456.7,247.8z M456.4,241.7c-0.5,0-0.9,0.2-1.1,0.5
			c-0.3,0.3-0.5,0.7-0.5,1.3h3.2c0-0.6-0.1-1-0.4-1.3C457.3,241.8,456.9,241.7,456.4,241.7z"/>
		<path fill="#0A5995" d="M463.2,247.8c-0.9,0-1.6-0.3-2-1s-0.7-1.5-0.7-2.7c0-1.2,0.2-2,0.7-2.7c0.5-0.6,1.2-1,2.1-1
			c0.9,0,1.6,0.3,2.1,1h0.1c-0.1-0.5-0.1-0.9-0.1-1.2v-2.6h1.5v9.9h-1.2l-0.3-0.9h-0.1C464.8,247.5,464.1,247.8,463.2,247.8z
			 M463.6,246.6c0.6,0,1.1-0.2,1.3-0.5s0.4-0.9,0.4-1.7v-0.2c0-0.9-0.1-1.5-0.4-1.9c-0.3-0.4-0.7-0.6-1.4-0.6
			c-0.5,0-0.9,0.2-1.2,0.6c-0.3,0.4-0.4,1-0.4,1.8c0,0.8,0.1,1.4,0.4,1.8C462.6,246.4,463,246.6,463.6,246.6z"/>
		<path fill="#0A5995" d="M468.4,246.9c0-0.3,0.1-0.5,0.2-0.7c0.2-0.2,0.4-0.2,0.7-0.2c0.3,0,0.5,0.1,0.7,0.3
			c0.2,0.2,0.2,0.4,0.2,0.7c0,0.3-0.1,0.5-0.2,0.7c-0.2,0.2-0.4,0.3-0.7,0.3s-0.5-0.1-0.7-0.3S468.4,247.2,468.4,246.9z"/>
	</g>
</g>
<g id="Layer_2">
</g>
</svg>
