<?xml version="1.0" encoding="utf-8"?>
<!-- Generator: Adobe Illustrator 21.1.0, SVG Export Plug-In . SVG Version: 6.00 Build 0)  -->
<svg version="1.1" xmlns="http://www.w3.org/2000/svg" xmlns:xlink="http://www.w3.org/1999/xlink" x="0px" y="0px"
	 viewBox="0 0 600 522" enable-background="new 0 0 600 522" xml:space="preserve">
<g id="Layer_1">
	<g>
		<rect y="-0.3" fill="#FFFFFF" width="600" height="521.5"/>
	</g>
	<g>
		<rect x="19" y="86.3" fill="#E3F9FF" width="560.5" height="267.9"/>
	</g>
	<g>
		<g>
			<path fill="#0A5995" d="M581,356.2H17.8V84.7H581V356.2z M20.8,353.2H578V87.7H20.8V353.2z"/>
		</g>
	</g>
	<g>
		<g>
			<path fill="#0A5995" d="M354.8,117.3c-20.8,0-37.7,16.9-37.7,37.7s16.9,37.7,37.7,37.7s37.7-16.9,37.7-37.7
				S375.6,117.3,354.8,117.3z M354.8,188.8c-18.7,0-33.8-15.2-33.8-33.8c0-17.5,13.1-32.1,30.5-33.8l0.1,0c0.8-0.1,1.6-0.1,2.3,0
				l0.2,0c0.3,0,0.5,0,0.8,0c18.7,0,33.8,15.2,33.8,33.8C388.6,173.7,373.5,188.8,354.8,188.8z"/>
		</g>
		<path fill="#0A5995" d="M56.3,354.6l150.1-161.1l144.3,161.1h5.2l-14.4-16.1l91.6-97.3l1.5,1.6l102.1,111.8h5.2L434.5,237.1
			c-0.4-0.4-1.1-0.7-1.7-0.6c-0.4,0.1-0.8,0.3-1.1,0.6l-92.9,98.6L208,189.4c-0.4-0.4-1.1-0.7-1.7-0.6c-0.4,0.1-0.8,0.3-1,0.6
			L52.4,353.5v1.1H56.3z"/>
	</g>
	<g>
		<rect x="18.9" y="364.3" fill="#E3F9FF" width="105.5" height="71.8"/>
	</g>
	<g>
		<g>
			<path fill="#0A5995" d="M98.6,400.6l24.5,26.8v6.9H94.3l-13.3-14.9L98.6,400.6z M52.1,390.9L91,434.3H20.3v-9.4L52.1,390.9z
				 M79.6,375.6c0.2,0,0.4,0,0.6,0c3.4,0,6.1,2.7,6.1,6.1s-2.7,6.1-6.1,6.1s-6.1-2.7-6.1-6.1C74.1,378.6,76.5,375.9,79.6,375.6z
				 M80.2,373.2c-4.7,0-8.6,3.8-8.6,8.6c0,4.7,3.8,8.6,8.6,8.6s8.6-3.8,8.6-8.6C88.8,377,85,373.2,80.2,373.2z M20.3,365.8H123v58
				L99.5,398c-0.3-0.3-0.7-0.5-1.1-0.4c-0.3,0-0.5,0.2-0.7,0.4l-18.4,19.6L53,388.2c-0.3-0.3-0.7-0.5-1.1-0.4
				c-0.3,0-0.5,0.2-0.7,0.4l-30.9,33.2V365.8z M17.9,363.4v73.4h107.6v-73.4H19.1H17.9z"/>
		</g>
	</g>
	<g>
		<g>
			<path fill="#0A5995" d="M212.3,400.6l24.5,26.8v6.9H208l-13.3-14.9L212.3,400.6z M165.8,390.9l38.9,43.4h-70.6v-9.4L165.8,390.9z
				 M193.4,375.6c0.2,0,0.4,0,0.6,0c3.4,0,6.1,2.7,6.1,6.1s-2.7,6.1-6.1,6.1s-6.1-2.7-6.1-6.1C187.9,378.6,190.3,375.9,193.4,375.6z
				 M194,373.2c-4.7,0-8.6,3.8-8.6,8.6c0,4.7,3.8,8.6,8.6,8.6s8.6-3.8,8.6-8.6C202.5,377,198.7,373.2,194,373.2z M134.1,365.8h102.7
				v58L213.2,398c-0.3-0.3-0.7-0.5-1.1-0.4c-0.3,0-0.5,0.2-0.7,0.4L193,417.6l-26.2-29.3c-0.3-0.3-0.7-0.5-1.1-0.4
				c-0.3,0-0.5,0.2-0.7,0.4l-30.9,33.2V365.8z M131.6,363.4v73.4h107.6v-73.4H132.8H131.6z"/>
		</g>
	</g>
	<g>
		<g>
			<path fill="#0A5995" d="M327,400.6l24.5,26.8v6.9h-28.8l-13.3-14.9L327,400.6z M280.5,390.9l38.9,43.4h-70.6v-9.4L280.5,390.9z
				 M308.1,375.6c0.2,0,0.4,0,0.6,0c3.4,0,6.1,2.7,6.1,6.1s-2.7,6.1-6.1,6.1s-6.1-2.7-6.1-6.1C302.6,378.6,305,375.9,308.1,375.6z
				 M308.7,373.2c-4.7,0-8.6,3.8-8.6,8.6c0,4.7,3.8,8.6,8.6,8.6c4.7,0,8.6-3.8,8.6-8.6C317.3,377,313.4,373.2,308.7,373.2z
				 M248.8,365.8h102.7v58L328,398c-0.3-0.3-0.7-0.5-1.1-0.4c-0.3,0-0.5,0.2-0.7,0.4l-18.4,19.6l-26.2-29.3
				c-0.3-0.3-0.7-0.5-1.1-0.4c-0.3,0-0.5,0.2-0.7,0.4l-30.9,33.2V365.8z M246.3,363.4v73.4h107.6v-73.4H247.6H246.3z"/>
		</g>
	</g>
	<g>
		<g>
			<path fill="#0A5995" d="M440.8,400.6l24.5,26.8v6.9h-28.8l-13.3-14.9L440.8,400.6z M394.3,390.9l38.9,43.4h-70.6v-9.4
				L394.3,390.9z M421.8,375.6c0.2,0,0.4,0,0.6,0c3.4,0,6.1,2.7,6.1,6.1s-2.7,6.1-6.1,6.1s-6.1-2.7-6.1-6.1
				C416.3,378.6,418.7,375.9,421.8,375.6z M422.4,373.2c-4.7,0-8.6,3.8-8.6,8.6c0,4.7,3.8,8.6,8.6,8.6c4.7,0,8.6-3.8,8.6-8.6
				C431,377,427.1,373.2,422.4,373.2z M362.5,365.8h102.7v58L441.7,398c-0.3-0.3-0.7-0.5-1.1-0.4c-0.3,0-0.5,0.2-0.7,0.4l-18.4,19.6
				l-26.2-29.3c-0.3-0.3-0.7-0.5-1.1-0.4c-0.3,0-0.5,0.2-0.7,0.4l-30.9,33.2V365.8z M360.1,363.4v73.4h107.6v-73.4H361.3H360.1z"/>
		</g>
	</g>
	<g>
		<g>
			<path fill="#0A5995" d="M554,400.6l24.5,26.8v6.9h-28.8l-13.3-14.9L554,400.6z M507.5,390.9l38.9,43.4h-70.6v-9.4L507.5,390.9z
				 M535.1,375.6c0.2,0,0.4,0,0.6,0c3.4,0,6.1,2.7,6.1,6.1s-2.7,6.1-6.1,6.1s-6.1-2.7-6.1-6.1C529.6,378.6,532,375.9,535.1,375.6z
				 M535.7,373.2c-4.7,0-8.6,3.8-8.6,8.6c0,4.7,3.8,8.6,8.6,8.6s8.6-3.8,8.6-8.6C544.2,377,540.4,373.2,535.7,373.2z M475.8,365.8
				h102.7v58L554.9,398c-0.3-0.3-0.7-0.5-1.1-0.4c-0.3,0-0.5,0.2-0.7,0.4l-18.4,19.6l-26.2-29.3c-0.3-0.3-0.7-0.5-1.1-0.4
				c-0.3,0-0.5,0.2-0.7,0.4l-30.9,33.2V365.8z M473.3,363.4v73.4h107.6v-73.4H474.5H473.3z"/>
		</g>
	</g>
</g>
<g id="Layer_2">
</g>
</svg>
