<?xml version="1.0" encoding="utf-8"?>
<!-- Generator: Adobe Illustrator 21.1.0, SVG Export Plug-In . SVG Version: 6.00 Build 0)  -->
<svg version="1.1" xmlns="http://www.w3.org/2000/svg" xmlns:xlink="http://www.w3.org/1999/xlink" x="0px" y="0px"
	 viewBox="0 0 600 462.7" enable-background="new 0 0 600 462.7" xml:space="preserve">
<g id="Layer_1">
	<g>
		<g>
			<rect y="-0.3" fill="#FFFFFF" width="600" height="462.7"/>
		</g>
		<g>
			<path fill="#0A5995" d="M161.1,92.1c0,2-0.6,3.6-1.9,4.6c-1.3,1.1-3.1,1.6-5.4,1.6h-1.7v6.7h-4V86.3h6c2.3,0,4,0.5,5.2,1.5
				S161.1,90.2,161.1,92.1z M152.1,95.1h1.3c1.2,0,2.1-0.2,2.7-0.7s0.9-1.2,0.9-2.1c0-0.9-0.3-1.6-0.8-2.1c-0.5-0.4-1.3-0.7-2.4-0.7
				h-1.8V95.1z"/>
			<path fill="#0A5995" d="M172.8,105l-0.8-1.9h-0.1c-0.7,0.8-1.3,1.4-2,1.7c-0.7,0.3-1.6,0.5-2.7,0.5c-1.4,0-2.5-0.4-3.2-1.2
				c-0.8-0.8-1.2-1.9-1.2-3.4c0-1.5,0.5-2.6,1.6-3.4c1.1-0.7,2.7-1.1,4.8-1.2l2.5-0.1v-0.6c0-1.5-0.7-2.2-2.2-2.2
				c-1.1,0-2.5,0.3-4,1l-1.3-2.6c1.6-0.9,3.5-1.3,5.5-1.3c1.9,0,3.4,0.4,4.4,1.3c1,0.8,1.5,2.1,1.5,3.8v9.5H172.8z M171.6,98.4
				l-1.5,0.1c-1.1,0-2,0.2-2.5,0.6c-0.6,0.4-0.8,0.9-0.8,1.7c0,1.1,0.6,1.7,1.9,1.7c0.9,0,1.6-0.3,2.2-0.8c0.5-0.5,0.8-1.2,0.8-2.1
				V98.4z"/>
			<path fill="#0A5995" d="M192.1,105h-3.9v-8.4c0-1-0.2-1.8-0.6-2.3s-1-0.8-1.8-0.8c-1.1,0-1.9,0.4-2.4,1.1
				c-0.5,0.7-0.7,1.9-0.7,3.6v6.7h-3.9V90.7h3l0.5,1.8h0.2c0.4-0.7,1-1.2,1.8-1.6s1.6-0.5,2.6-0.5c1.7,0,2.9,0.5,3.8,1.4
				c0.9,0.9,1.3,2.2,1.3,3.9V105z"/>
			<path fill="#0A5995" d="M201.9,105.3c-2.3,0-4.1-0.6-5.4-1.9c-1.3-1.3-1.9-3.1-1.9-5.4c0-2.4,0.6-4.3,1.8-5.6s2.9-2,5-2
				c2,0,3.6,0.6,4.7,1.7c1.1,1.2,1.7,2.7,1.7,4.8v1.9h-9.2c0,1.1,0.4,2,1,2.6c0.6,0.6,1.5,0.9,2.6,0.9c0.9,0,1.7-0.1,2.4-0.3
				c0.8-0.2,1.6-0.5,2.4-0.9v3c-0.7,0.3-1.4,0.6-2.2,0.8C204,105.2,203,105.3,201.9,105.3z M201.4,93.2c-0.8,0-1.5,0.3-1.9,0.8
				c-0.5,0.5-0.7,1.3-0.8,2.2h5.5c0-1-0.3-1.7-0.8-2.2C202.9,93.5,202.2,93.2,201.4,93.2z"/>
			<path fill="#0A5995" d="M214.2,105h-3.9V85.1h3.9V105z"/>
			<path fill="#0A5995" d="M231.3,105h-4V89.6h-5.1v-3.3h14.1v3.3h-5.1V105z"/>
			<path fill="#0A5995" d="M238.2,87c0-1.3,0.7-1.9,2.1-1.9c1.4,0,2.1,0.6,2.1,1.9c0,0.6-0.2,1.1-0.5,1.4c-0.4,0.3-0.9,0.5-1.6,0.5
				C238.9,88.9,238.2,88.3,238.2,87z M242.2,105h-3.9V90.7h3.9V105z"/>
			<path fill="#0A5995" d="M251.7,102.1c0.7,0,1.5-0.1,2.5-0.4v2.9c-1,0.4-2.2,0.7-3.6,0.7c-1.6,0-2.7-0.4-3.4-1.2s-1.1-2-1.1-3.6
				v-6.9h-1.9V92l2.2-1.3l1.1-3h2.5v3h4v2.9h-4v6.9c0,0.6,0.2,1,0.5,1.2C250.8,102,251.2,102.1,251.7,102.1z"/>
			<path fill="#0A5995" d="M260.3,105h-3.9V85.1h3.9V105z"/>
			<path fill="#0A5995" d="M270.2,105.3c-2.3,0-4.1-0.6-5.4-1.9s-1.9-3.1-1.9-5.4c0-2.4,0.6-4.3,1.8-5.6s2.9-2,5-2
				c2,0,3.6,0.6,4.7,1.7c1.1,1.2,1.7,2.7,1.7,4.8v1.9h-9.2c0,1.1,0.4,2,1,2.6s1.5,0.9,2.6,0.9c0.9,0,1.7-0.1,2.4-0.3
				c0.8-0.2,1.6-0.5,2.4-0.9v3c-0.7,0.3-1.4,0.6-2.2,0.8C272.3,105.2,271.3,105.3,270.2,105.3z M269.7,93.2c-0.8,0-1.5,0.3-1.9,0.8
				c-0.5,0.5-0.7,1.3-0.8,2.2h5.5c0-1-0.3-1.7-0.8-2.2S270.5,93.2,269.7,93.2z"/>
			<path fill="#0A5995" d="M289,105h-3.9V86.3h10.7v3.3H289v4.8h6.4v3.2H289V105z"/>
			<path fill="#0A5995" d="M311.5,97.8c0,2.3-0.6,4.2-1.8,5.5c-1.2,1.3-2.9,2-5.1,2c-1.4,0-2.6-0.3-3.6-0.9c-1-0.6-1.9-1.5-2.4-2.6
				c-0.6-1.1-0.8-2.4-0.8-3.9c0-2.3,0.6-4.2,1.8-5.5c1.2-1.3,2.9-1.9,5.1-1.9c1.4,0,2.6,0.3,3.6,0.9s1.9,1.5,2.4,2.6
				C311.2,95,311.5,96.3,311.5,97.8z M301.6,97.8c0,1.4,0.2,2.5,0.7,3.2c0.5,0.7,1.2,1.1,2.3,1.1c1,0,1.8-0.4,2.2-1.1
				c0.5-0.7,0.7-1.8,0.7-3.2c0-1.4-0.2-2.5-0.7-3.2c-0.5-0.7-1.2-1.1-2.3-1.1c-1,0-1.8,0.4-2.3,1.1
				C301.8,95.3,301.6,96.4,301.6,97.8z"/>
			<path fill="#0A5995" d="M322.1,90.4c0.5,0,1,0,1.3,0.1l-0.3,3.7c-0.3-0.1-0.7-0.1-1.2-0.1c-1.2,0-2.2,0.3-2.9,1
				c-0.7,0.6-1,1.5-1,2.7v7.3h-3.9V90.7h3l0.6,2.4h0.2c0.4-0.8,1-1.4,1.8-1.9S321.2,90.4,322.1,90.4z"/>
			<path fill="#0A5995" d="M347.1,105h-4v-8.1h-7.4v8.1h-4V86.3h4v7.3h7.4v-7.3h4V105z"/>
			<path fill="#0A5995" d="M357.4,105.3c-2.3,0-4.1-0.6-5.4-1.9c-1.3-1.3-1.9-3.1-1.9-5.4c0-2.4,0.6-4.3,1.8-5.6s2.9-2,5-2
				c2,0,3.6,0.6,4.7,1.7c1.1,1.2,1.7,2.7,1.7,4.8v1.9H354c0,1.1,0.4,2,1,2.6c0.6,0.6,1.5,0.9,2.6,0.9c0.9,0,1.7-0.1,2.4-0.3
				c0.8-0.2,1.6-0.5,2.4-0.9v3c-0.7,0.3-1.4,0.6-2.2,0.8C359.5,105.2,358.5,105.3,357.4,105.3z M356.8,93.2c-0.8,0-1.5,0.3-1.9,0.8
				c-0.5,0.5-0.7,1.3-0.8,2.2h5.5c0-1-0.3-1.7-0.8-2.2C358.3,93.5,357.7,93.2,356.8,93.2z"/>
			<path fill="#0A5995" d="M374.8,105l-0.8-1.9H374c-0.7,0.8-1.3,1.4-2,1.7c-0.7,0.3-1.6,0.5-2.7,0.5c-1.4,0-2.5-0.4-3.2-1.2
				c-0.8-0.8-1.2-1.9-1.2-3.4c0-1.5,0.5-2.6,1.6-3.4c1.1-0.7,2.7-1.1,4.8-1.2l2.5-0.1v-0.6c0-1.5-0.7-2.2-2.2-2.2
				c-1.1,0-2.5,0.3-4,1l-1.3-2.6c1.6-0.9,3.5-1.3,5.5-1.3c1.9,0,3.4,0.4,4.4,1.3c1,0.8,1.5,2.1,1.5,3.8v9.5H374.8z M373.7,98.4
				l-1.5,0.1c-1.1,0-2,0.2-2.5,0.6c-0.6,0.4-0.8,0.9-0.8,1.7c0,1.1,0.6,1.7,1.9,1.7c0.9,0,1.6-0.3,2.2-0.8c0.5-0.5,0.8-1.2,0.8-2.1
				V98.4z"/>
			<path fill="#0A5995" d="M385.5,105.3c-1.7,0-3-0.7-4-2c-1-1.3-1.4-3.1-1.4-5.4c0-2.3,0.5-4.2,1.5-5.5c1-1.3,2.3-2,4-2
				c1.8,0,3.2,0.7,4.1,2.1h0.1c-0.2-1.1-0.3-2-0.3-2.9v-4.6h3.9V105h-3l-0.8-1.9h-0.2C388.6,104.6,387.3,105.3,385.5,105.3z
				 M386.8,102.1c1,0,1.7-0.3,2.2-0.9c0.5-0.6,0.7-1.6,0.8-3v-0.4c0-1.5-0.2-2.6-0.7-3.3c-0.5-0.7-1.2-1-2.3-1c-0.9,0-1.5,0.4-2,1.1
				c-0.5,0.7-0.7,1.8-0.7,3.2s0.2,2.5,0.7,3.2C385.2,101.8,385.9,102.1,386.8,102.1z"/>
			<path fill="#0A5995" d="M400.8,105h-3.9V85.1h3.9V105z"/>
			<path fill="#0A5995" d="M404.1,87c0-1.3,0.7-1.9,2.1-1.9c1.4,0,2.1,0.6,2.1,1.9c0,0.6-0.2,1.1-0.5,1.4c-0.4,0.3-0.9,0.5-1.6,0.5
				C404.8,88.9,404.1,88.3,404.1,87z M408.1,105h-3.9V90.7h3.9V105z"/>
			<path fill="#0A5995" d="M424.8,105h-3.9v-8.4c0-1-0.2-1.8-0.6-2.3s-1-0.8-1.8-0.8c-1.1,0-1.9,0.4-2.4,1.1s-0.7,1.9-0.7,3.6v6.7
				h-3.9V90.7h3l0.5,1.8h0.2c0.4-0.7,1-1.2,1.8-1.6c0.8-0.4,1.6-0.5,2.6-0.5c1.7,0,2.9,0.5,3.8,1.4c0.9,0.9,1.3,2.2,1.3,3.9V105z"/>
			<path fill="#0A5995" d="M434.6,105.3c-2.3,0-4.1-0.6-5.4-1.9s-1.9-3.1-1.9-5.4c0-2.4,0.6-4.3,1.8-5.6c1.2-1.3,2.9-2,5-2
				c2,0,3.6,0.6,4.7,1.7s1.7,2.7,1.7,4.8v1.9h-9.2c0,1.1,0.4,2,1,2.6s1.5,0.9,2.6,0.9c0.9,0,1.7-0.1,2.4-0.3
				c0.8-0.2,1.6-0.5,2.4-0.9v3c-0.7,0.3-1.4,0.6-2.2,0.8C436.7,105.2,435.8,105.3,434.6,105.3z M434.1,93.2c-0.8,0-1.5,0.3-1.9,0.8
				c-0.5,0.5-0.7,1.3-0.8,2.2h5.5c0-1-0.3-1.7-0.8-2.2C435.6,93.5,434.9,93.2,434.1,93.2z"/>
			<path fill="#0A5995" d="M453,100.7c0,1.5-0.5,2.6-1.5,3.4s-2.5,1.2-4.6,1.2c-1,0-1.9-0.1-2.7-0.2s-1.4-0.3-2.1-0.6v-3.2
				c0.7,0.3,1.5,0.6,2.5,0.9c0.9,0.2,1.7,0.3,2.4,0.3c1.4,0,2.1-0.4,2.1-1.2c0-0.3-0.1-0.6-0.3-0.7s-0.5-0.4-1-0.7
				c-0.5-0.2-1.1-0.5-1.8-0.9c-1.1-0.5-1.9-0.9-2.4-1.3c-0.5-0.4-0.9-0.8-1.1-1.4c-0.2-0.5-0.4-1.1-0.4-1.9c0-1.3,0.5-2.3,1.5-3
				c1-0.7,2.4-1,4.2-1c1.7,0,3.4,0.4,5,1.1l-1.2,2.8c-0.7-0.3-1.4-0.6-2-0.8c-0.6-0.2-1.3-0.3-1.9-0.3c-1.2,0-1.7,0.3-1.7,0.9
				c0,0.4,0.2,0.7,0.6,0.9c0.4,0.3,1.2,0.6,2.4,1.1c1.1,0.5,1.9,0.9,2.5,1.3c0.5,0.4,0.9,0.8,1.2,1.4C452.9,99.4,453,100,453,100.7z
				"/>
		</g>
	</g>
	<g>
		<g>
			<g>
				<rect x="19" y="143.2" fill="#E3F9FF" width="130.7" height="71.4"/>
				<path fill="#0A5995" d="M151.2,254.5H17.5V141.7h133.7V254.5z M20.5,251.5h127.7V144.7H20.5V251.5z"/>
				<path fill="#0A5995" d="M151.2,214.5H17.5v-72.8h133.7V214.5z M20.5,211.5h127.7v-66.8H20.5V211.5z"/>
			</g>
		</g>
		<g>
			<path fill="#0A5995" d="M38.9,228.5c0,1.1-0.3,2-1,2.6c-0.7,0.6-1.7,0.9-3,0.9H34v3.7h-2.2v-10.4h3.3c1.3,0,2.2,0.3,2.9,0.8
				C38.6,226.6,38.9,227.4,38.9,228.5z M34,230.1h0.7c0.7,0,1.2-0.1,1.5-0.4c0.3-0.3,0.5-0.7,0.5-1.2c0-0.5-0.1-0.9-0.4-1.1
				S35.6,227,35,227h-1V230.1z"/>
			<path fill="#0A5995" d="M47.6,231.6c0,1.3-0.3,2.3-1,3c-0.7,0.7-1.6,1.1-2.8,1.1c-0.8,0-1.4-0.2-2-0.5c-0.6-0.3-1-0.8-1.3-1.4
				c-0.3-0.6-0.5-1.4-0.5-2.2c0-1.3,0.3-2.3,1-3c0.7-0.7,1.6-1.1,2.9-1.1c0.8,0,1.4,0.2,2,0.5s1,0.8,1.3,1.4
				C47.4,230.1,47.6,230.8,47.6,231.6z M42.1,231.6c0,0.8,0.1,1.4,0.4,1.8s0.7,0.6,1.3,0.6c0.6,0,1-0.2,1.2-0.6
				c0.3-0.4,0.4-1,0.4-1.8c0-0.8-0.1-1.4-0.4-1.8s-0.7-0.6-1.3-0.6c-0.6,0-1,0.2-1.2,0.6C42.2,230.3,42.1,230.8,42.1,231.6z"/>
			<path fill="#0A5995" d="M54.5,233.3c0,0.8-0.3,1.4-0.8,1.9c-0.6,0.4-1.4,0.6-2.5,0.6c-0.6,0-1.1,0-1.5-0.1
				c-0.4-0.1-0.8-0.2-1.1-0.3v-1.8c0.4,0.2,0.9,0.3,1.4,0.5s0.9,0.2,1.3,0.2c0.8,0,1.2-0.2,1.2-0.7c0-0.2-0.1-0.3-0.2-0.4
				s-0.3-0.2-0.5-0.4s-0.6-0.3-1-0.5c-0.6-0.3-1.1-0.5-1.3-0.7s-0.5-0.5-0.6-0.7c-0.1-0.3-0.2-0.6-0.2-1c0-0.7,0.3-1.2,0.8-1.6
				c0.5-0.4,1.3-0.6,2.3-0.6c1,0,1.9,0.2,2.8,0.6l-0.7,1.6c-0.4-0.2-0.8-0.3-1.1-0.4c-0.3-0.1-0.7-0.2-1.1-0.2c-0.6,0-1,0.2-1,0.5
				c0,0.2,0.1,0.4,0.3,0.5c0.2,0.1,0.7,0.4,1.4,0.6c0.6,0.3,1.1,0.5,1.4,0.7s0.5,0.5,0.6,0.8C54.5,232.5,54.5,232.9,54.5,233.3z"/>
			<path fill="#0A5995" d="M59.2,234c0.4,0,0.8-0.1,1.4-0.2v1.6c-0.5,0.2-1.2,0.4-2,0.4c-0.9,0-1.5-0.2-1.9-0.7s-0.6-1.1-0.6-2v-3.8
				h-1v-0.9l1.2-0.7l0.6-1.7h1.4v1.7h2.2v1.6h-2.2v3.8c0,0.3,0.1,0.5,0.3,0.7S58.9,234,59.2,234z"/>
			<path fill="#0A5995" d="M69.4,235.6h-2.2v-8.5h-2.8v-1.8h7.8v1.8h-2.8V235.6z"/>
			<path fill="#0A5995" d="M73.2,225.6c0-0.7,0.4-1.1,1.2-1.1s1.2,0.4,1.2,1.1c0,0.3-0.1,0.6-0.3,0.8c-0.2,0.2-0.5,0.3-0.9,0.3
				C73.6,226.7,73.2,226.3,73.2,225.6z M75.4,235.6h-2.2v-7.9h2.2V235.6z"/>
			<path fill="#0A5995" d="M80.7,234c0.4,0,0.8-0.1,1.4-0.2v1.6c-0.5,0.2-1.2,0.4-2,0.4c-0.9,0-1.5-0.2-1.9-0.7s-0.6-1.1-0.6-2v-3.8
				h-1v-0.9l1.2-0.7l0.6-1.7h1.4v1.7h2.2v1.6h-2.2v3.8c0,0.3,0.1,0.5,0.3,0.7S80.4,234,80.7,234z"/>
			<path fill="#0A5995" d="M85.4,235.6h-2.2v-11h2.2V235.6z"/>
			<path fill="#0A5995" d="M90.9,235.8c-1.3,0-2.3-0.4-3-1.1s-1.1-1.7-1.1-3c0-1.3,0.3-2.4,1-3.1c0.7-0.7,1.6-1.1,2.8-1.1
				c1.1,0,2,0.3,2.6,1c0.6,0.6,0.9,1.5,0.9,2.6v1h-5.1c0,0.6,0.2,1.1,0.5,1.4c0.3,0.3,0.8,0.5,1.4,0.5c0.5,0,0.9,0,1.4-0.1
				c0.4-0.1,0.9-0.3,1.3-0.5v1.7c-0.4,0.2-0.8,0.3-1.2,0.4C92.1,235.7,91.6,235.8,90.9,235.8z M90.6,229.1c-0.5,0-0.8,0.1-1.1,0.4
				c-0.3,0.3-0.4,0.7-0.4,1.2h3c0-0.5-0.1-0.9-0.4-1.2C91.5,229.2,91.1,229.1,90.6,229.1z"/>
		</g>
		<g>
			<g>
				<path fill="#0A5995" stroke="#0A5995" stroke-width="2.25" stroke-miterlimit="10" d="M100.8,153.7c-5.4,0-9.7,4.4-9.7,9.7
					s4.4,9.7,9.7,9.7s9.7-4.4,9.7-9.7S106.2,153.7,100.8,153.7z M100.8,172.2c-4.8,0-8.7-3.9-8.7-8.7c0-4.5,3.4-8.3,7.9-8.7l0,0
					c0.2,0,0.4,0,0.6,0l0,0c0.1,0,0.1,0,0.2,0c4.8,0,8.7,3.9,8.7,8.7C109.5,168.2,105.6,172.2,100.8,172.2z"/>
			</g>
			<path fill="#0A5995" stroke="#0A5995" stroke-width="2.25" stroke-miterlimit="10" d="M21.2,212L60,170.4L97.3,212h1.3l-3.7-4.2
				l23.7-25.2l0.4,0.4l26.4,28.9h1.3l-27.7-30.4c-0.1-0.1-0.3-0.2-0.4-0.2c-0.1,0-0.2,0.1-0.3,0.2l-24,25.5l-33.8-37.8
				c-0.1-0.1-0.3-0.2-0.4-0.1c-0.1,0-0.2,0.1-0.3,0.2l-39.5,42.4v0.3H21.2z"/>
		</g>
	</g>
	<g>
		<g>
			<g>
				<rect x="163" y="143.2" fill="#E3F9FF" width="130.7" height="71.4"/>
				<path fill="#0A5995" d="M295.2,254.5H161.5V141.7h133.7V254.5z M164.5,251.5h127.7V144.7H164.5V251.5z"/>
				<path fill="#0A5995" d="M295.2,214.5H161.5v-72.8h133.7V214.5z M164.5,211.5h127.7v-66.8H164.5V211.5z"/>
			</g>
		</g>
		<g>
			<path fill="#0A5995" d="M182.9,228.5c0,1.1-0.3,2-1,2.6c-0.7,0.6-1.7,0.9-3,0.9H178v3.7h-2.2v-10.4h3.3c1.3,0,2.2,0.3,2.9,0.8
				C182.6,226.6,182.9,227.4,182.9,228.5z M178,230.1h0.7c0.7,0,1.2-0.1,1.5-0.4c0.3-0.3,0.5-0.7,0.5-1.2c0-0.5-0.1-0.9-0.4-1.1
				s-0.7-0.4-1.3-0.4h-1V230.1z"/>
			<path fill="#0A5995" d="M191.6,231.6c0,1.3-0.3,2.3-1,3c-0.7,0.7-1.6,1.1-2.8,1.1c-0.8,0-1.4-0.2-2-0.5c-0.6-0.3-1-0.8-1.3-1.4
				c-0.3-0.6-0.5-1.4-0.5-2.2c0-1.3,0.3-2.3,1-3c0.7-0.7,1.6-1.1,2.9-1.1c0.8,0,1.4,0.2,2,0.5s1,0.8,1.3,1.4
				C191.4,230.1,191.6,230.8,191.6,231.6z M186.1,231.6c0,0.8,0.1,1.4,0.4,1.8s0.7,0.6,1.3,0.6c0.6,0,1-0.2,1.2-0.6
				c0.3-0.4,0.4-1,0.4-1.8c0-0.8-0.1-1.4-0.4-1.8s-0.7-0.6-1.3-0.6c-0.6,0-1,0.2-1.2,0.6C186.2,230.3,186.1,230.8,186.1,231.6z"/>
			<path fill="#0A5995" d="M198.5,233.3c0,0.8-0.3,1.4-0.8,1.9c-0.6,0.4-1.4,0.6-2.5,0.6c-0.6,0-1.1,0-1.5-0.1
				c-0.4-0.1-0.8-0.2-1.1-0.3v-1.8c0.4,0.2,0.9,0.3,1.4,0.5s0.9,0.2,1.3,0.2c0.8,0,1.2-0.2,1.2-0.7c0-0.2-0.1-0.3-0.2-0.4
				s-0.3-0.2-0.5-0.4s-0.6-0.3-1-0.5c-0.6-0.3-1.1-0.5-1.3-0.7s-0.5-0.5-0.6-0.7c-0.1-0.3-0.2-0.6-0.2-1c0-0.7,0.3-1.2,0.8-1.6
				c0.5-0.4,1.3-0.6,2.3-0.6c1,0,1.9,0.2,2.8,0.6l-0.7,1.6c-0.4-0.2-0.8-0.3-1.1-0.4c-0.3-0.1-0.7-0.2-1.1-0.2c-0.6,0-1,0.2-1,0.5
				c0,0.2,0.1,0.4,0.3,0.5c0.2,0.1,0.7,0.4,1.4,0.6c0.6,0.3,1.1,0.5,1.4,0.7s0.5,0.5,0.6,0.8C198.5,232.5,198.5,232.9,198.5,233.3z"
				/>
			<path fill="#0A5995" d="M203.2,234c0.4,0,0.8-0.1,1.4-0.2v1.6c-0.5,0.2-1.2,0.4-2,0.4c-0.9,0-1.5-0.2-1.9-0.7s-0.6-1.1-0.6-2
				v-3.8h-1v-0.9l1.2-0.7l0.6-1.7h1.4v1.7h2.2v1.6h-2.2v3.8c0,0.3,0.1,0.5,0.3,0.7S202.9,234,203.2,234z"/>
			<path fill="#0A5995" d="M213.4,235.6h-2.2v-8.5h-2.8v-1.8h7.8v1.8h-2.8V235.6z"/>
			<path fill="#0A5995" d="M217.2,225.6c0-0.7,0.4-1.1,1.2-1.1s1.2,0.4,1.2,1.1c0,0.3-0.1,0.6-0.3,0.8c-0.2,0.2-0.5,0.3-0.9,0.3
				C217.6,226.7,217.2,226.3,217.2,225.6z M219.4,235.6h-2.2v-7.9h2.2V235.6z"/>
			<path fill="#0A5995" d="M224.7,234c0.4,0,0.8-0.1,1.4-0.2v1.6c-0.5,0.2-1.2,0.4-2,0.4c-0.9,0-1.5-0.2-1.9-0.7s-0.6-1.1-0.6-2
				v-3.8h-1v-0.9l1.2-0.7l0.6-1.7h1.4v1.7h2.2v1.6h-2.2v3.8c0,0.3,0.1,0.5,0.3,0.7S224.4,234,224.7,234z"/>
			<path fill="#0A5995" d="M229.4,235.6h-2.2v-11h2.2V235.6z"/>
			<path fill="#0A5995" d="M234.9,235.8c-1.3,0-2.3-0.4-3-1.1s-1.1-1.7-1.1-3c0-1.3,0.3-2.4,1-3.1c0.7-0.7,1.6-1.1,2.8-1.1
				c1.1,0,2,0.3,2.6,1c0.6,0.6,0.9,1.5,0.9,2.6v1h-5.1c0,0.6,0.2,1.1,0.5,1.4c0.3,0.3,0.8,0.5,1.4,0.5c0.5,0,0.9,0,1.4-0.1
				c0.4-0.1,0.9-0.3,1.3-0.5v1.7c-0.4,0.2-0.8,0.3-1.2,0.4C236.1,235.7,235.6,235.8,234.9,235.8z M234.6,229.1
				c-0.5,0-0.8,0.1-1.1,0.4c-0.3,0.3-0.4,0.7-0.4,1.2h3c0-0.5-0.1-0.9-0.4-1.2C235.5,229.2,235.1,229.1,234.6,229.1z"/>
		</g>
		<g>
			<g>
				<path fill="#0A5995" stroke="#0A5995" stroke-width="2.25" stroke-miterlimit="10" d="M244.8,153.7c-5.4,0-9.7,4.4-9.7,9.7
					s4.4,9.7,9.7,9.7s9.7-4.4,9.7-9.7S250.2,153.7,244.8,153.7z M244.8,172.2c-4.8,0-8.7-3.9-8.7-8.7c0-4.5,3.4-8.3,7.9-8.7l0,0
					c0.2,0,0.4,0,0.6,0l0,0c0.1,0,0.1,0,0.2,0c4.8,0,8.7,3.9,8.7,8.7C253.5,168.2,249.6,172.2,244.8,172.2z"/>
			</g>
			<path fill="#0A5995" stroke="#0A5995" stroke-width="2.25" stroke-miterlimit="10" d="M165.2,212l38.8-41.6l37.3,41.6h1.3
				l-3.7-4.2l23.7-25.2l0.4,0.4l26.4,28.9h1.3l-27.7-30.4c-0.1-0.1-0.3-0.2-0.4-0.2c-0.1,0-0.2,0.1-0.3,0.2l-24,25.5l-33.8-37.8
				c-0.1-0.1-0.3-0.2-0.4-0.1c-0.1,0-0.2,0.1-0.3,0.2l-39.5,42.4v0.3H165.2z"/>
		</g>
	</g>
	<g>
		<g>
			<g>
				<rect x="306.3" y="143.2" fill="#E3F9FF" width="130.7" height="71.4"/>
				<path fill="#0A5995" d="M438.5,254.5H304.8V141.7h133.7V254.5z M307.8,251.5h127.7V144.7H307.8V251.5z"/>
				<path fill="#0A5995" d="M438.5,214.5H304.8v-72.8h133.7V214.5z M307.8,211.5h127.7v-66.8H307.8V211.5z"/>
			</g>
		</g>
		<g>
			<path fill="#0A5995" d="M326.3,228.5c0,1.1-0.3,2-1,2.6c-0.7,0.6-1.7,0.9-3,0.9h-0.9v3.7h-2.2v-10.4h3.3c1.3,0,2.2,0.3,2.9,0.8
				C325.9,226.6,326.3,227.4,326.3,228.5z M321.3,230.1h0.7c0.7,0,1.2-0.1,1.5-0.4c0.3-0.3,0.5-0.7,0.5-1.2c0-0.5-0.1-0.9-0.4-1.1
				s-0.7-0.4-1.3-0.4h-1V230.1z"/>
			<path fill="#0A5995" d="M334.9,231.6c0,1.3-0.3,2.3-1,3c-0.7,0.7-1.6,1.1-2.8,1.1c-0.8,0-1.4-0.2-2-0.5c-0.6-0.3-1-0.8-1.3-1.4
				c-0.3-0.6-0.5-1.4-0.5-2.2c0-1.3,0.3-2.3,1-3c0.7-0.7,1.6-1.1,2.9-1.1c0.8,0,1.4,0.2,2,0.5s1,0.8,1.3,1.4
				C334.7,230.1,334.9,230.8,334.9,231.6z M329.4,231.6c0,0.8,0.1,1.4,0.4,1.8s0.7,0.6,1.3,0.6c0.6,0,1-0.2,1.2-0.6
				c0.3-0.4,0.4-1,0.4-1.8c0-0.8-0.1-1.4-0.4-1.8c-0.3-0.4-0.7-0.6-1.3-0.6c-0.6,0-1,0.2-1.2,0.6
				C329.5,230.3,329.4,230.8,329.4,231.6z"/>
			<path fill="#0A5995" d="M341.9,233.3c0,0.8-0.3,1.4-0.8,1.9c-0.6,0.4-1.4,0.6-2.5,0.6c-0.6,0-1.1,0-1.5-0.1
				c-0.4-0.1-0.8-0.2-1.1-0.3v-1.8c0.4,0.2,0.9,0.3,1.4,0.5c0.5,0.1,0.9,0.2,1.3,0.2c0.8,0,1.2-0.2,1.2-0.7c0-0.2-0.1-0.3-0.2-0.4
				c-0.1-0.1-0.3-0.2-0.5-0.4c-0.3-0.1-0.6-0.3-1-0.5c-0.6-0.3-1.1-0.5-1.3-0.7c-0.3-0.2-0.5-0.5-0.6-0.7c-0.1-0.3-0.2-0.6-0.2-1
				c0-0.7,0.3-1.2,0.8-1.6c0.5-0.4,1.3-0.6,2.3-0.6c1,0,1.9,0.2,2.8,0.6l-0.7,1.6c-0.4-0.2-0.8-0.3-1.1-0.4
				c-0.3-0.1-0.7-0.2-1.1-0.2c-0.6,0-1,0.2-1,0.5c0,0.2,0.1,0.4,0.3,0.5c0.2,0.1,0.7,0.4,1.4,0.6c0.6,0.3,1.1,0.5,1.4,0.7
				c0.3,0.2,0.5,0.5,0.6,0.8C341.8,232.5,341.9,232.9,341.9,233.3z"/>
			<path fill="#0A5995" d="M346.5,234c0.4,0,0.8-0.1,1.4-0.2v1.6c-0.5,0.2-1.2,0.4-2,0.4c-0.9,0-1.5-0.2-1.9-0.7
				c-0.4-0.4-0.6-1.1-0.6-2v-3.8h-1v-0.9l1.2-0.7l0.6-1.7h1.4v1.7h2.2v1.6h-2.2v3.8c0,0.3,0.1,0.5,0.3,0.7
				C346,234,346.2,234,346.5,234z"/>
			<path fill="#0A5995" d="M356.7,235.6h-2.2v-8.5h-2.8v-1.8h7.8v1.8h-2.8V235.6z"/>
			<path fill="#0A5995" d="M360.5,225.6c0-0.7,0.4-1.1,1.2-1.1s1.2,0.4,1.2,1.1c0,0.3-0.1,0.6-0.3,0.8c-0.2,0.2-0.5,0.3-0.9,0.3
				C360.9,226.7,360.5,226.3,360.5,225.6z M362.8,235.6h-2.2v-7.9h2.2V235.6z"/>
			<path fill="#0A5995" d="M368,234c0.4,0,0.8-0.1,1.4-0.2v1.6c-0.5,0.2-1.2,0.4-2,0.4c-0.9,0-1.5-0.2-1.9-0.7
				c-0.4-0.4-0.6-1.1-0.6-2v-3.8h-1v-0.9l1.2-0.7l0.6-1.7h1.4v1.7h2.2v1.6h-2.2v3.8c0,0.3,0.1,0.5,0.3,0.7
				C367.5,234,367.7,234,368,234z"/>
			<path fill="#0A5995" d="M372.8,235.6h-2.2v-11h2.2V235.6z"/>
			<path fill="#0A5995" d="M378.3,235.8c-1.3,0-2.3-0.4-3-1.1s-1.1-1.7-1.1-3c0-1.3,0.3-2.4,1-3.1c0.7-0.7,1.6-1.1,2.8-1.1
				c1.1,0,2,0.3,2.6,1c0.6,0.6,0.9,1.5,0.9,2.6v1h-5.1c0,0.6,0.2,1.1,0.5,1.4c0.3,0.3,0.8,0.5,1.4,0.5c0.5,0,0.9,0,1.4-0.1
				c0.4-0.1,0.9-0.3,1.3-0.5v1.7c-0.4,0.2-0.8,0.3-1.2,0.4C379.4,235.7,378.9,235.8,378.3,235.8z M378,229.1c-0.5,0-0.8,0.1-1.1,0.4
				c-0.3,0.3-0.4,0.7-0.4,1.2h3c0-0.5-0.1-0.9-0.4-1.2C378.8,229.2,378.4,229.1,378,229.1z"/>
		</g>
		<g>
			<g>
				<path fill="#0A5995" stroke="#0A5995" stroke-width="2.25" stroke-miterlimit="10" d="M388.1,153.7c-5.4,0-9.7,4.4-9.7,9.7
					s4.4,9.7,9.7,9.7s9.7-4.4,9.7-9.7S393.5,153.7,388.1,153.7z M388.1,172.2c-4.8,0-8.7-3.9-8.7-8.7c0-4.5,3.4-8.3,7.9-8.7l0,0
					c0.2,0,0.4,0,0.6,0l0,0c0.1,0,0.1,0,0.2,0c4.8,0,8.7,3.9,8.7,8.7C396.9,168.2,393,172.2,388.1,172.2z"/>
			</g>
			<path fill="#0A5995" stroke="#0A5995" stroke-width="2.25" stroke-miterlimit="10" d="M308.5,212l38.8-41.6l37.3,41.6h1.3
				l-3.7-4.2l23.7-25.2l0.4,0.4l26.4,28.9h1.3l-27.7-30.4c-0.1-0.1-0.3-0.2-0.4-0.2c-0.1,0-0.2,0.1-0.3,0.2l-24,25.5l-33.8-37.8
				c-0.1-0.1-0.3-0.2-0.4-0.1c-0.1,0-0.2,0.1-0.3,0.2l-39.5,42.4v0.3H308.5z"/>
		</g>
	</g>
	<g>
		<g>
			<g>
				<rect x="449.7" y="143.2" fill="#E3F9FF" width="130.7" height="71.4"/>
				<path fill="#0A5995" d="M581.8,254.5H448.2V141.7h133.7V254.5z M451.2,251.5h127.7V144.7H451.2V251.5z"/>
				<path fill="#0A5995" d="M581.8,214.5H448.2v-72.8h133.7V214.5z M451.2,211.5h127.7v-66.8H451.2V211.5z"/>
			</g>
		</g>
		<g>
			<path fill="#0A5995" d="M469.6,228.5c0,1.1-0.3,2-1,2.6c-0.7,0.6-1.7,0.9-3,0.9h-0.9v3.7h-2.2v-10.4h3.3c1.3,0,2.2,0.3,2.9,0.8
				C469.3,226.6,469.6,227.4,469.6,228.5z M464.6,230.1h0.7c0.7,0,1.2-0.1,1.5-0.4c0.3-0.3,0.5-0.7,0.5-1.2c0-0.5-0.1-0.9-0.4-1.1
				s-0.7-0.4-1.3-0.4h-1V230.1z"/>
			<path fill="#0A5995" d="M478.2,231.6c0,1.3-0.3,2.3-1,3c-0.7,0.7-1.6,1.1-2.8,1.1c-0.8,0-1.4-0.2-2-0.5c-0.6-0.3-1-0.8-1.3-1.4
				s-0.5-1.4-0.5-2.2c0-1.3,0.3-2.3,1-3c0.7-0.7,1.6-1.1,2.9-1.1c0.8,0,1.4,0.2,2,0.5c0.6,0.3,1,0.8,1.3,1.4
				C478.1,230.1,478.2,230.8,478.2,231.6z M472.8,231.6c0,0.8,0.1,1.4,0.4,1.8s0.7,0.6,1.3,0.6c0.6,0,1-0.2,1.2-0.6
				c0.3-0.4,0.4-1,0.4-1.8c0-0.8-0.1-1.4-0.4-1.8s-0.7-0.6-1.3-0.6c-0.6,0-1,0.2-1.2,0.6C472.9,230.3,472.8,230.8,472.8,231.6z"/>
			<path fill="#0A5995" d="M485.2,233.3c0,0.8-0.3,1.4-0.8,1.9c-0.6,0.4-1.4,0.6-2.5,0.6c-0.6,0-1.1,0-1.5-0.1
				c-0.4-0.1-0.8-0.2-1.1-0.3v-1.8c0.4,0.2,0.9,0.3,1.4,0.5c0.5,0.1,0.9,0.2,1.3,0.2c0.8,0,1.2-0.2,1.2-0.7c0-0.2-0.1-0.3-0.2-0.4
				s-0.3-0.2-0.5-0.4c-0.3-0.1-0.6-0.3-1-0.5c-0.6-0.3-1.1-0.5-1.3-0.7s-0.5-0.5-0.6-0.7c-0.1-0.3-0.2-0.6-0.2-1
				c0-0.7,0.3-1.2,0.8-1.6c0.5-0.4,1.3-0.6,2.3-0.6c1,0,1.9,0.2,2.8,0.6l-0.7,1.6c-0.4-0.2-0.8-0.3-1.1-0.4
				c-0.3-0.1-0.7-0.2-1.1-0.2c-0.6,0-1,0.2-1,0.5c0,0.2,0.1,0.4,0.3,0.5c0.2,0.1,0.7,0.4,1.4,0.6c0.6,0.3,1.1,0.5,1.4,0.7
				s0.5,0.5,0.6,0.8C485.1,232.5,485.2,232.9,485.2,233.3z"/>
			<path fill="#0A5995" d="M489.9,234c0.4,0,0.8-0.1,1.4-0.2v1.6c-0.5,0.2-1.2,0.4-2,0.4c-0.9,0-1.5-0.2-1.9-0.7
				c-0.4-0.4-0.6-1.1-0.6-2v-3.8h-1v-0.9l1.2-0.7l0.6-1.7h1.4v1.7h2.2v1.6h-2.2v3.8c0,0.3,0.1,0.5,0.3,0.7S489.6,234,489.9,234z"/>
			<path fill="#0A5995" d="M500,235.6h-2.2v-8.5H495v-1.8h7.8v1.8H500V235.6z"/>
			<path fill="#0A5995" d="M503.8,225.6c0-0.7,0.4-1.1,1.2-1.1s1.2,0.4,1.2,1.1c0,0.3-0.1,0.6-0.3,0.8c-0.2,0.2-0.5,0.3-0.9,0.3
				C504.2,226.7,503.8,226.3,503.8,225.6z M506.1,235.6h-2.2v-7.9h2.2V235.6z"/>
			<path fill="#0A5995" d="M511.3,234c0.4,0,0.8-0.1,1.4-0.2v1.6c-0.5,0.2-1.2,0.4-2,0.4c-0.9,0-1.5-0.2-1.9-0.7
				c-0.4-0.4-0.6-1.1-0.6-2v-3.8h-1v-0.9l1.2-0.7l0.6-1.7h1.4v1.7h2.2v1.6h-2.2v3.8c0,0.3,0.1,0.5,0.3,0.7S511.1,234,511.3,234z"/>
			<path fill="#0A5995" d="M516.1,235.6h-2.2v-11h2.2V235.6z"/>
			<path fill="#0A5995" d="M521.6,235.8c-1.3,0-2.3-0.4-3-1.1s-1.1-1.7-1.1-3c0-1.3,0.3-2.4,1-3.1c0.7-0.7,1.6-1.1,2.8-1.1
				c1.1,0,2,0.3,2.6,1s0.9,1.5,0.9,2.6v1h-5.1c0,0.6,0.2,1.1,0.5,1.4c0.3,0.3,0.8,0.5,1.4,0.5c0.5,0,0.9,0,1.4-0.1
				c0.4-0.1,0.9-0.3,1.3-0.5v1.7c-0.4,0.2-0.8,0.3-1.2,0.4C522.7,235.7,522.2,235.8,521.6,235.8z M521.3,229.1
				c-0.5,0-0.8,0.1-1.1,0.4c-0.3,0.3-0.4,0.7-0.4,1.2h3c0-0.5-0.1-0.9-0.4-1.2C522.1,229.2,521.8,229.1,521.3,229.1z"/>
		</g>
		<g>
			<g>
				<path fill="#0A5995" stroke="#0A5995" stroke-width="2.25" stroke-miterlimit="10" d="M531.5,153.7c-5.4,0-9.7,4.4-9.7,9.7
					s4.4,9.7,9.7,9.7s9.7-4.4,9.7-9.7S536.8,153.7,531.5,153.7z M531.5,172.2c-4.8,0-8.7-3.9-8.7-8.7c0-4.5,3.4-8.3,7.9-8.7l0,0
					c0.2,0,0.4,0,0.6,0l0,0c0.1,0,0.1,0,0.2,0c4.8,0,8.7,3.9,8.7,8.7C540.2,168.2,536.3,172.2,531.5,172.2z"/>
			</g>
			<path fill="#0A5995" stroke="#0A5995" stroke-width="2.25" stroke-miterlimit="10" d="M451.9,212l38.8-41.6l37.3,41.6h1.3
				l-3.7-4.2l23.7-25.2l0.4,0.4L576,212h1.3l-27.7-30.4c-0.1-0.1-0.3-0.2-0.4-0.2c-0.1,0-0.2,0.1-0.3,0.2l-24,25.5l-33.8-37.8
				c-0.1-0.1-0.3-0.2-0.4-0.1c-0.1,0-0.2,0.1-0.3,0.2l-39.5,42.4v0.3H451.9z"/>
		</g>
	</g>
	<g>
		<g>
			<g>
				<rect x="19" y="266.2" fill="#E3F9FF" width="130.7" height="71.4"/>
				<path fill="#0A5995" d="M151.2,377.5H17.5V264.7h133.7V377.5z M20.5,374.5h127.7V267.7H20.5V374.5z"/>
				<path fill="#0A5995" d="M151.2,337.5H17.5v-72.8h133.7V337.5z M20.5,334.5h127.7v-66.8H20.5V334.5z"/>
			</g>
		</g>
		<g>
			<path fill="#0A5995" d="M38.9,351.5c0,1.1-0.3,2-1,2.6c-0.7,0.6-1.7,0.9-3,0.9H34v3.7h-2.2v-10.4h3.3c1.3,0,2.2,0.3,2.9,0.8
				C38.6,349.6,38.9,350.4,38.9,351.5z M34,353.1h0.7c0.7,0,1.2-0.1,1.5-0.4c0.3-0.3,0.5-0.7,0.5-1.2c0-0.5-0.1-0.9-0.4-1.1
				S35.6,350,35,350h-1V353.1z"/>
			<path fill="#0A5995" d="M47.6,354.6c0,1.3-0.3,2.3-1,3c-0.7,0.7-1.6,1.1-2.8,1.1c-0.8,0-1.4-0.2-2-0.5c-0.6-0.3-1-0.8-1.3-1.4
				c-0.3-0.6-0.5-1.4-0.5-2.2c0-1.3,0.3-2.3,1-3c0.7-0.7,1.6-1.1,2.9-1.1c0.8,0,1.4,0.2,2,0.5s1,0.8,1.3,1.4
				C47.4,353.1,47.6,353.8,47.6,354.6z M42.1,354.6c0,0.8,0.1,1.4,0.4,1.8s0.7,0.6,1.3,0.6c0.6,0,1-0.2,1.2-0.6
				c0.3-0.4,0.4-1,0.4-1.8c0-0.8-0.1-1.4-0.4-1.8s-0.7-0.6-1.3-0.6c-0.6,0-1,0.2-1.2,0.6C42.2,353.3,42.1,353.8,42.1,354.6z"/>
			<path fill="#0A5995" d="M54.5,356.3c0,0.8-0.3,1.4-0.8,1.9c-0.6,0.4-1.4,0.6-2.5,0.6c-0.6,0-1.1,0-1.5-0.1
				c-0.4-0.1-0.8-0.2-1.1-0.3v-1.8c0.4,0.2,0.9,0.3,1.4,0.5s0.9,0.2,1.3,0.2c0.8,0,1.2-0.2,1.2-0.7c0-0.2-0.1-0.3-0.2-0.4
				s-0.3-0.2-0.5-0.4s-0.6-0.3-1-0.5c-0.6-0.3-1.1-0.5-1.3-0.7s-0.5-0.5-0.6-0.7c-0.1-0.3-0.2-0.6-0.2-1c0-0.7,0.3-1.2,0.8-1.6
				c0.5-0.4,1.3-0.6,2.3-0.6c1,0,1.9,0.2,2.8,0.6l-0.7,1.6c-0.4-0.2-0.8-0.3-1.1-0.4c-0.3-0.1-0.7-0.2-1.1-0.2c-0.6,0-1,0.2-1,0.5
				c0,0.2,0.1,0.4,0.3,0.5c0.2,0.1,0.7,0.4,1.4,0.6c0.6,0.3,1.1,0.5,1.4,0.7s0.5,0.5,0.6,0.8C54.5,355.5,54.5,355.9,54.5,356.3z"/>
			<path fill="#0A5995" d="M59.2,357c0.4,0,0.8-0.1,1.4-0.2v1.6c-0.5,0.2-1.2,0.4-2,0.4c-0.9,0-1.5-0.2-1.9-0.7s-0.6-1.1-0.6-2v-3.8
				h-1v-0.9l1.2-0.7l0.6-1.7h1.4v1.7h2.2v1.6h-2.2v3.8c0,0.3,0.1,0.5,0.3,0.7S58.9,357,59.2,357z"/>
			<path fill="#0A5995" d="M69.4,358.6h-2.2v-8.5h-2.8v-1.8h7.8v1.8h-2.8V358.6z"/>
			<path fill="#0A5995" d="M73.2,348.6c0-0.7,0.4-1.1,1.2-1.1s1.2,0.4,1.2,1.1c0,0.3-0.1,0.6-0.3,0.8c-0.2,0.2-0.5,0.3-0.9,0.3
				C73.6,349.7,73.2,349.3,73.2,348.6z M75.4,358.6h-2.2v-7.9h2.2V358.6z"/>
			<path fill="#0A5995" d="M80.7,357c0.4,0,0.8-0.1,1.4-0.2v1.6c-0.5,0.2-1.2,0.4-2,0.4c-0.9,0-1.5-0.2-1.9-0.7s-0.6-1.1-0.6-2v-3.8
				h-1v-0.9l1.2-0.7l0.6-1.7h1.4v1.7h2.2v1.6h-2.2v3.8c0,0.3,0.1,0.5,0.3,0.7S80.4,357,80.7,357z"/>
			<path fill="#0A5995" d="M85.4,358.6h-2.2v-11h2.2V358.6z"/>
			<path fill="#0A5995" d="M90.9,358.8c-1.3,0-2.3-0.4-3-1.1s-1.1-1.7-1.1-3c0-1.3,0.3-2.4,1-3.1c0.7-0.7,1.6-1.1,2.8-1.1
				c1.1,0,2,0.3,2.6,1c0.6,0.6,0.9,1.5,0.9,2.6v1h-5.1c0,0.6,0.2,1.1,0.5,1.4c0.3,0.3,0.8,0.5,1.4,0.5c0.5,0,0.9,0,1.4-0.1
				c0.4-0.1,0.9-0.3,1.3-0.5v1.7c-0.4,0.2-0.8,0.3-1.2,0.4C92.1,358.7,91.6,358.8,90.9,358.8z M90.6,352.1c-0.5,0-0.8,0.1-1.1,0.4
				c-0.3,0.3-0.4,0.7-0.4,1.2h3c0-0.5-0.1-0.9-0.4-1.2C91.5,352.2,91.1,352.1,90.6,352.1z"/>
		</g>
		<g>
			<g>
				<path fill="#0A5995" stroke="#0A5995" stroke-width="2.25" stroke-miterlimit="10" d="M100.8,276.7c-5.4,0-9.7,4.4-9.7,9.7
					c0,5.4,4.4,9.7,9.7,9.7s9.7-4.4,9.7-9.7C110.5,281,106.2,276.7,100.8,276.7z M100.8,295.2c-4.8,0-8.7-3.9-8.7-8.7
					c0-4.5,3.4-8.3,7.9-8.7l0,0c0.2,0,0.4,0,0.6,0l0,0c0.1,0,0.1,0,0.2,0c4.8,0,8.7,3.9,8.7,8.7
					C109.5,291.2,105.6,295.2,100.8,295.2z"/>
			</g>
			<path fill="#0A5995" stroke="#0A5995" stroke-width="2.25" stroke-miterlimit="10" d="M21.2,335L60,293.4L97.3,335h1.3l-3.7-4.2
				l23.7-25.2l0.4,0.4l26.4,28.9h1.3l-27.7-30.4c-0.1-0.1-0.3-0.2-0.4-0.2c-0.1,0-0.2,0.1-0.3,0.2l-24,25.5l-33.8-37.8
				c-0.1-0.1-0.3-0.2-0.4-0.1c-0.1,0-0.2,0.1-0.3,0.2l-39.5,42.4v0.3H21.2z"/>
		</g>
	</g>
	<g>
		<g>
			<g>
				<rect x="163" y="266.2" fill="#E3F9FF" width="130.7" height="71.4"/>
				<path fill="#0A5995" d="M295.2,377.5H161.5V264.7h133.7V377.5z M164.5,374.5h127.7V267.7H164.5V374.5z"/>
				<path fill="#0A5995" d="M295.2,337.5H161.5v-72.8h133.7V337.5z M164.5,334.5h127.7v-66.8H164.5V334.5z"/>
			</g>
		</g>
		<g>
			<path fill="#0A5995" d="M182.9,351.5c0,1.1-0.3,2-1,2.6c-0.7,0.6-1.7,0.9-3,0.9H178v3.7h-2.2v-10.4h3.3c1.3,0,2.2,0.3,2.9,0.8
				C182.6,349.6,182.9,350.4,182.9,351.5z M178,353.1h0.7c0.7,0,1.2-0.1,1.5-0.4c0.3-0.3,0.5-0.7,0.5-1.2c0-0.5-0.1-0.9-0.4-1.1
				s-0.7-0.4-1.3-0.4h-1V353.1z"/>
			<path fill="#0A5995" d="M191.6,354.6c0,1.3-0.3,2.3-1,3c-0.7,0.7-1.6,1.1-2.8,1.1c-0.8,0-1.4-0.2-2-0.5c-0.6-0.3-1-0.8-1.3-1.4
				c-0.3-0.6-0.5-1.4-0.5-2.2c0-1.3,0.3-2.3,1-3c0.7-0.7,1.6-1.1,2.9-1.1c0.8,0,1.4,0.2,2,0.5s1,0.8,1.3,1.4
				C191.4,353.1,191.6,353.8,191.6,354.6z M186.1,354.6c0,0.8,0.1,1.4,0.4,1.8s0.7,0.6,1.3,0.6c0.6,0,1-0.2,1.2-0.6
				c0.3-0.4,0.4-1,0.4-1.8c0-0.8-0.1-1.4-0.4-1.8s-0.7-0.6-1.3-0.6c-0.6,0-1,0.2-1.2,0.6C186.2,353.3,186.1,353.8,186.1,354.6z"/>
			<path fill="#0A5995" d="M198.5,356.3c0,0.8-0.3,1.4-0.8,1.9c-0.6,0.4-1.4,0.6-2.5,0.6c-0.6,0-1.1,0-1.5-0.1
				c-0.4-0.1-0.8-0.2-1.1-0.3v-1.8c0.4,0.2,0.9,0.3,1.4,0.5s0.9,0.2,1.3,0.2c0.8,0,1.2-0.2,1.2-0.7c0-0.2-0.1-0.3-0.2-0.4
				s-0.3-0.2-0.5-0.4s-0.6-0.3-1-0.5c-0.6-0.3-1.1-0.5-1.3-0.7s-0.5-0.5-0.6-0.7c-0.1-0.3-0.2-0.6-0.2-1c0-0.7,0.3-1.2,0.8-1.6
				c0.5-0.4,1.3-0.6,2.3-0.6c1,0,1.9,0.2,2.8,0.6l-0.7,1.6c-0.4-0.2-0.8-0.3-1.1-0.4c-0.3-0.1-0.7-0.2-1.1-0.2c-0.6,0-1,0.2-1,0.5
				c0,0.2,0.1,0.4,0.3,0.5c0.2,0.1,0.7,0.4,1.4,0.6c0.6,0.3,1.1,0.5,1.4,0.7s0.5,0.5,0.6,0.8C198.5,355.5,198.5,355.9,198.5,356.3z"
				/>
			<path fill="#0A5995" d="M203.2,357c0.4,0,0.8-0.1,1.4-0.2v1.6c-0.5,0.2-1.2,0.4-2,0.4c-0.9,0-1.5-0.2-1.9-0.7s-0.6-1.1-0.6-2
				v-3.8h-1v-0.9l1.2-0.7l0.6-1.7h1.4v1.7h2.2v1.6h-2.2v3.8c0,0.3,0.1,0.5,0.3,0.7S202.9,357,203.2,357z"/>
			<path fill="#0A5995" d="M213.4,358.6h-2.2v-8.5h-2.8v-1.8h7.8v1.8h-2.8V358.6z"/>
			<path fill="#0A5995" d="M217.2,348.6c0-0.7,0.4-1.1,1.2-1.1s1.2,0.4,1.2,1.1c0,0.3-0.1,0.6-0.3,0.8c-0.2,0.2-0.5,0.3-0.9,0.3
				C217.6,349.7,217.2,349.3,217.2,348.6z M219.4,358.6h-2.2v-7.9h2.2V358.6z"/>
			<path fill="#0A5995" d="M224.7,357c0.4,0,0.8-0.1,1.4-0.2v1.6c-0.5,0.2-1.2,0.4-2,0.4c-0.9,0-1.5-0.2-1.9-0.7s-0.6-1.1-0.6-2
				v-3.8h-1v-0.9l1.2-0.7l0.6-1.7h1.4v1.7h2.2v1.6h-2.2v3.8c0,0.3,0.1,0.5,0.3,0.7S224.4,357,224.7,357z"/>
			<path fill="#0A5995" d="M229.4,358.6h-2.2v-11h2.2V358.6z"/>
			<path fill="#0A5995" d="M234.9,358.8c-1.3,0-2.3-0.4-3-1.1s-1.1-1.7-1.1-3c0-1.3,0.3-2.4,1-3.1c0.7-0.7,1.6-1.1,2.8-1.1
				c1.1,0,2,0.3,2.6,1c0.6,0.6,0.9,1.5,0.9,2.6v1h-5.1c0,0.6,0.2,1.1,0.5,1.4c0.3,0.3,0.8,0.5,1.4,0.5c0.5,0,0.9,0,1.4-0.1
				c0.4-0.1,0.9-0.3,1.3-0.5v1.7c-0.4,0.2-0.8,0.3-1.2,0.4C236.1,358.7,235.6,358.8,234.9,358.8z M234.6,352.1
				c-0.5,0-0.8,0.1-1.1,0.4c-0.3,0.3-0.4,0.7-0.4,1.2h3c0-0.5-0.1-0.9-0.4-1.2C235.5,352.2,235.1,352.1,234.6,352.1z"/>
		</g>
		<g>
			<g>
				<path fill="#0A5995" stroke="#0A5995" stroke-width="2.25" stroke-miterlimit="10" d="M244.8,276.7c-5.4,0-9.7,4.4-9.7,9.7
					c0,5.4,4.4,9.7,9.7,9.7s9.7-4.4,9.7-9.7C254.5,281,250.2,276.7,244.8,276.7z M244.8,295.2c-4.8,0-8.7-3.9-8.7-8.7
					c0-4.5,3.4-8.3,7.9-8.7l0,0c0.2,0,0.4,0,0.6,0l0,0c0.1,0,0.1,0,0.2,0c4.8,0,8.7,3.9,8.7,8.7
					C253.5,291.2,249.6,295.2,244.8,295.2z"/>
			</g>
			<path fill="#0A5995" stroke="#0A5995" stroke-width="2.25" stroke-miterlimit="10" d="M165.2,335l38.8-41.6l37.3,41.6h1.3
				l-3.7-4.2l23.7-25.2l0.4,0.4l26.4,28.9h1.3l-27.7-30.4c-0.1-0.1-0.3-0.2-0.4-0.2c-0.1,0-0.2,0.1-0.3,0.2l-24,25.5l-33.8-37.8
				c-0.1-0.1-0.3-0.2-0.4-0.1c-0.1,0-0.2,0.1-0.3,0.2l-39.5,42.4v0.3H165.2z"/>
		</g>
	</g>
	<g>
		<g>
			<g>
				<rect x="306.3" y="266.2" fill="#E3F9FF" width="130.7" height="71.4"/>
				<path fill="#0A5995" d="M438.5,377.5H304.8V264.7h133.7V377.5z M307.8,374.5h127.7V267.7H307.8V374.5z"/>
				<path fill="#0A5995" d="M438.5,337.5H304.8v-72.8h133.7V337.5z M307.8,334.5h127.7v-66.8H307.8V334.5z"/>
			</g>
		</g>
		<g>
			<path fill="#0A5995" d="M326.3,351.5c0,1.1-0.3,2-1,2.6c-0.7,0.6-1.7,0.9-3,0.9h-0.9v3.7h-2.2v-10.4h3.3c1.3,0,2.2,0.3,2.9,0.8
				C325.9,349.6,326.3,350.4,326.3,351.5z M321.3,353.1h0.7c0.7,0,1.2-0.1,1.5-0.4c0.3-0.3,0.5-0.7,0.5-1.2c0-0.5-0.1-0.9-0.4-1.1
				s-0.7-0.4-1.3-0.4h-1V353.1z"/>
			<path fill="#0A5995" d="M334.9,354.6c0,1.3-0.3,2.3-1,3c-0.7,0.7-1.6,1.1-2.8,1.1c-0.8,0-1.4-0.2-2-0.5c-0.6-0.3-1-0.8-1.3-1.4
				c-0.3-0.6-0.5-1.4-0.5-2.2c0-1.3,0.3-2.3,1-3c0.7-0.7,1.6-1.1,2.9-1.1c0.8,0,1.4,0.2,2,0.5s1,0.8,1.3,1.4
				C334.7,353.1,334.9,353.8,334.9,354.6z M329.4,354.6c0,0.8,0.1,1.4,0.4,1.8s0.7,0.6,1.3,0.6c0.6,0,1-0.2,1.2-0.6
				c0.3-0.4,0.4-1,0.4-1.8c0-0.8-0.1-1.4-0.4-1.8c-0.3-0.4-0.7-0.6-1.3-0.6c-0.6,0-1,0.2-1.2,0.6
				C329.5,353.3,329.4,353.8,329.4,354.6z"/>
			<path fill="#0A5995" d="M341.9,356.3c0,0.8-0.3,1.4-0.8,1.9c-0.6,0.4-1.4,0.6-2.5,0.6c-0.6,0-1.1,0-1.5-0.1
				c-0.4-0.1-0.8-0.2-1.1-0.3v-1.8c0.4,0.2,0.9,0.3,1.4,0.5c0.5,0.1,0.9,0.2,1.3,0.2c0.8,0,1.2-0.2,1.2-0.7c0-0.2-0.1-0.3-0.2-0.4
				c-0.1-0.1-0.3-0.2-0.5-0.4c-0.3-0.1-0.6-0.3-1-0.5c-0.6-0.3-1.1-0.5-1.3-0.7c-0.3-0.2-0.5-0.5-0.6-0.7c-0.1-0.3-0.2-0.6-0.2-1
				c0-0.7,0.3-1.2,0.8-1.6c0.5-0.4,1.3-0.6,2.3-0.6c1,0,1.9,0.2,2.8,0.6l-0.7,1.6c-0.4-0.2-0.8-0.3-1.1-0.4
				c-0.3-0.1-0.7-0.2-1.1-0.2c-0.6,0-1,0.2-1,0.5c0,0.2,0.1,0.4,0.3,0.5c0.2,0.1,0.7,0.4,1.4,0.6c0.6,0.3,1.1,0.5,1.4,0.7
				c0.3,0.2,0.5,0.5,0.6,0.8C341.8,355.5,341.9,355.9,341.9,356.3z"/>
			<path fill="#0A5995" d="M346.5,357c0.4,0,0.8-0.1,1.4-0.2v1.6c-0.5,0.2-1.2,0.4-2,0.4c-0.9,0-1.5-0.2-1.9-0.7
				c-0.4-0.4-0.6-1.1-0.6-2v-3.8h-1v-0.9l1.2-0.7l0.6-1.7h1.4v1.7h2.2v1.6h-2.2v3.8c0,0.3,0.1,0.5,0.3,0.7
				C346,357,346.2,357,346.5,357z"/>
			<path fill="#0A5995" d="M356.7,358.6h-2.2v-8.5h-2.8v-1.8h7.8v1.8h-2.8V358.6z"/>
			<path fill="#0A5995" d="M360.5,348.6c0-0.7,0.4-1.1,1.2-1.1s1.2,0.4,1.2,1.1c0,0.3-0.1,0.6-0.3,0.8c-0.2,0.2-0.5,0.3-0.9,0.3
				C360.9,349.7,360.5,349.3,360.5,348.6z M362.8,358.6h-2.2v-7.9h2.2V358.6z"/>
			<path fill="#0A5995" d="M368,357c0.4,0,0.8-0.1,1.4-0.2v1.6c-0.5,0.2-1.2,0.4-2,0.4c-0.9,0-1.5-0.2-1.9-0.7
				c-0.4-0.4-0.6-1.1-0.6-2v-3.8h-1v-0.9l1.2-0.7l0.6-1.7h1.4v1.7h2.2v1.6h-2.2v3.8c0,0.3,0.1,0.5,0.3,0.7
				C367.5,357,367.7,357,368,357z"/>
			<path fill="#0A5995" d="M372.8,358.6h-2.2v-11h2.2V358.6z"/>
			<path fill="#0A5995" d="M378.3,358.8c-1.3,0-2.3-0.4-3-1.1s-1.1-1.7-1.1-3c0-1.3,0.3-2.4,1-3.1c0.7-0.7,1.6-1.1,2.8-1.1
				c1.1,0,2,0.3,2.6,1c0.6,0.6,0.9,1.5,0.9,2.6v1h-5.1c0,0.6,0.2,1.1,0.5,1.4c0.3,0.3,0.8,0.5,1.4,0.5c0.5,0,0.9,0,1.4-0.1
				c0.4-0.1,0.9-0.3,1.3-0.5v1.7c-0.4,0.2-0.8,0.3-1.2,0.4C379.4,358.7,378.9,358.8,378.3,358.8z M378,352.1c-0.5,0-0.8,0.1-1.1,0.4
				c-0.3,0.3-0.4,0.7-0.4,1.2h3c0-0.5-0.1-0.9-0.4-1.2C378.8,352.2,378.4,352.1,378,352.1z"/>
		</g>
		<g>
			<g>
				<path fill="#0A5995" stroke="#0A5995" stroke-width="2.25" stroke-miterlimit="10" d="M388.1,276.7c-5.4,0-9.7,4.4-9.7,9.7
					c0,5.4,4.4,9.7,9.7,9.7s9.7-4.4,9.7-9.7C397.9,281,393.5,276.7,388.1,276.7z M388.1,295.2c-4.8,0-8.7-3.9-8.7-8.7
					c0-4.5,3.4-8.3,7.9-8.7l0,0c0.2,0,0.4,0,0.6,0l0,0c0.1,0,0.1,0,0.2,0c4.8,0,8.7,3.9,8.7,8.7C396.9,291.2,393,295.2,388.1,295.2z
					"/>
			</g>
			<path fill="#0A5995" stroke="#0A5995" stroke-width="2.25" stroke-miterlimit="10" d="M308.5,335l38.8-41.6l37.3,41.6h1.3
				l-3.7-4.2l23.7-25.2l0.4,0.4l26.4,28.9h1.3l-27.7-30.4c-0.1-0.1-0.3-0.2-0.4-0.2c-0.1,0-0.2,0.1-0.3,0.2l-24,25.5l-33.8-37.8
				c-0.1-0.1-0.3-0.2-0.4-0.1c-0.1,0-0.2,0.1-0.3,0.2l-39.5,42.4v0.3H308.5z"/>
		</g>
	</g>
	<g>
		<g>
			<g>
				<rect x="449.7" y="266.2" fill="#E3F9FF" width="130.7" height="71.4"/>
				<path fill="#0A5995" d="M581.8,377.5H448.2V264.7h133.7V377.5z M451.2,374.5h127.7V267.7H451.2V374.5z"/>
				<path fill="#0A5995" d="M581.8,337.5H448.2v-72.8h133.7V337.5z M451.2,334.5h127.7v-66.8H451.2V334.5z"/>
			</g>
		</g>
		<g>
			<path fill="#0A5995" d="M469.6,351.5c0,1.1-0.3,2-1,2.6c-0.7,0.6-1.7,0.9-3,0.9h-0.9v3.7h-2.2v-10.4h3.3c1.3,0,2.2,0.3,2.9,0.8
				C469.3,349.6,469.6,350.4,469.6,351.5z M464.6,353.1h0.7c0.7,0,1.2-0.1,1.5-0.4c0.3-0.3,0.5-0.7,0.5-1.2c0-0.5-0.1-0.9-0.4-1.1
				s-0.7-0.4-1.3-0.4h-1V353.1z"/>
			<path fill="#0A5995" d="M478.2,354.6c0,1.3-0.3,2.3-1,3c-0.7,0.7-1.6,1.1-2.8,1.1c-0.8,0-1.4-0.2-2-0.5c-0.6-0.3-1-0.8-1.3-1.4
				s-0.5-1.4-0.5-2.2c0-1.3,0.3-2.3,1-3c0.7-0.7,1.6-1.1,2.9-1.1c0.8,0,1.4,0.2,2,0.5c0.6,0.3,1,0.8,1.3,1.4
				C478.1,353.1,478.2,353.8,478.2,354.6z M472.8,354.6c0,0.8,0.1,1.4,0.4,1.8s0.7,0.6,1.3,0.6c0.6,0,1-0.2,1.2-0.6
				c0.3-0.4,0.4-1,0.4-1.8c0-0.8-0.1-1.4-0.4-1.8s-0.7-0.6-1.3-0.6c-0.6,0-1,0.2-1.2,0.6C472.9,353.3,472.8,353.8,472.8,354.6z"/>
			<path fill="#0A5995" d="M485.2,356.3c0,0.8-0.3,1.4-0.8,1.9c-0.6,0.4-1.4,0.6-2.5,0.6c-0.6,0-1.1,0-1.5-0.1
				c-0.4-0.1-0.8-0.2-1.1-0.3v-1.8c0.4,0.2,0.9,0.3,1.4,0.5c0.5,0.1,0.9,0.2,1.3,0.2c0.8,0,1.2-0.2,1.2-0.7c0-0.2-0.1-0.3-0.2-0.4
				s-0.3-0.2-0.5-0.4c-0.3-0.1-0.6-0.3-1-0.5c-0.6-0.3-1.1-0.5-1.3-0.7s-0.5-0.5-0.6-0.7c-0.1-0.3-0.2-0.6-0.2-1
				c0-0.7,0.3-1.2,0.8-1.6c0.5-0.4,1.3-0.6,2.3-0.6c1,0,1.9,0.2,2.8,0.6l-0.7,1.6c-0.4-0.2-0.8-0.3-1.1-0.4
				c-0.3-0.1-0.7-0.2-1.1-0.2c-0.6,0-1,0.2-1,0.5c0,0.2,0.1,0.4,0.3,0.5c0.2,0.1,0.7,0.4,1.4,0.6c0.6,0.3,1.1,0.5,1.4,0.7
				s0.5,0.5,0.6,0.8C485.1,355.5,485.2,355.9,485.2,356.3z"/>
			<path fill="#0A5995" d="M489.9,357c0.4,0,0.8-0.1,1.4-0.2v1.6c-0.5,0.2-1.2,0.4-2,0.4c-0.9,0-1.5-0.2-1.9-0.7
				c-0.4-0.4-0.6-1.1-0.6-2v-3.8h-1v-0.9l1.2-0.7l0.6-1.7h1.4v1.7h2.2v1.6h-2.2v3.8c0,0.3,0.1,0.5,0.3,0.7S489.6,357,489.9,357z"/>
			<path fill="#0A5995" d="M500,358.6h-2.2v-8.5H495v-1.8h7.8v1.8H500V358.6z"/>
			<path fill="#0A5995" d="M503.8,348.6c0-0.7,0.4-1.1,1.2-1.1s1.2,0.4,1.2,1.1c0,0.3-0.1,0.6-0.3,0.8c-0.2,0.2-0.5,0.3-0.9,0.3
				C504.2,349.7,503.8,349.3,503.8,348.6z M506.1,358.6h-2.2v-7.9h2.2V358.6z"/>
			<path fill="#0A5995" d="M511.3,357c0.4,0,0.8-0.1,1.4-0.2v1.6c-0.5,0.2-1.2,0.4-2,0.4c-0.9,0-1.5-0.2-1.9-0.7
				c-0.4-0.4-0.6-1.1-0.6-2v-3.8h-1v-0.9l1.2-0.7l0.6-1.7h1.4v1.7h2.2v1.6h-2.2v3.8c0,0.3,0.1,0.5,0.3,0.7S511.1,357,511.3,357z"/>
			<path fill="#0A5995" d="M516.1,358.6h-2.2v-11h2.2V358.6z"/>
			<path fill="#0A5995" d="M521.6,358.8c-1.3,0-2.3-0.4-3-1.1s-1.1-1.7-1.1-3c0-1.3,0.3-2.4,1-3.1c0.7-0.7,1.6-1.1,2.8-1.1
				c1.1,0,2,0.3,2.6,1s0.9,1.5,0.9,2.6v1h-5.1c0,0.6,0.2,1.1,0.5,1.4c0.3,0.3,0.8,0.5,1.4,0.5c0.5,0,0.9,0,1.4-0.1
				c0.4-0.1,0.9-0.3,1.3-0.5v1.7c-0.4,0.2-0.8,0.3-1.2,0.4C522.7,358.7,522.2,358.8,521.6,358.8z M521.3,352.1
				c-0.5,0-0.8,0.1-1.1,0.4c-0.3,0.3-0.4,0.7-0.4,1.2h3c0-0.5-0.1-0.9-0.4-1.2C522.1,352.2,521.8,352.1,521.3,352.1z"/>
		</g>
		<g>
			<g>
				<path fill="#0A5995" stroke="#0A5995" stroke-width="2.25" stroke-miterlimit="10" d="M531.5,276.7c-5.4,0-9.7,4.4-9.7,9.7
					c0,5.4,4.4,9.7,9.7,9.7s9.7-4.4,9.7-9.7C541.2,281,536.8,276.7,531.5,276.7z M531.5,295.2c-4.8,0-8.7-3.9-8.7-8.7
					c0-4.5,3.4-8.3,7.9-8.7l0,0c0.2,0,0.4,0,0.6,0l0,0c0.1,0,0.1,0,0.2,0c4.8,0,8.7,3.9,8.7,8.7
					C540.2,291.2,536.3,295.2,531.5,295.2z"/>
			</g>
			<path fill="#0A5995" stroke="#0A5995" stroke-width="2.25" stroke-miterlimit="10" d="M451.9,335l38.8-41.6l37.3,41.6h1.3
				l-3.7-4.2l23.7-25.2l0.4,0.4L576,335h1.3l-27.7-30.4c-0.1-0.1-0.3-0.2-0.4-0.2c-0.1,0-0.2,0.1-0.3,0.2l-24,25.5l-33.8-37.8
				c-0.1-0.1-0.3-0.2-0.4-0.1c-0.1,0-0.2,0.1-0.3,0.2l-39.5,42.4v0.3H451.9z"/>
		</g>
	</g>
</g>
<g id="Layer_2">
</g>
</svg>
